G04 #@! TF.GenerationSoftware,KiCad,Pcbnew,(5.1.9)-1*
G04 #@! TF.CreationDate,2021-05-17T18:01:55+01:00*
G04 #@! TF.ProjectId,EnvKB65-SwitchPlate,456e764b-4236-4352-9d53-776974636850,rev?*
G04 #@! TF.SameCoordinates,Original*
G04 #@! TF.FileFunction,Legend,Top*
G04 #@! TF.FilePolarity,Positive*
%FSLAX46Y46*%
G04 Gerber Fmt 4.6, Leading zero omitted, Abs format (unit mm)*
G04 Created by KiCad (PCBNEW (5.1.9)-1) date 2021-05-17 18:01:55*
%MOMM*%
%LPD*%
G01*
G04 APERTURE LIST*
%ADD10C,0.010000*%
G04 APERTURE END LIST*
D10*
G36*
X198654790Y-176017320D02*
G01*
X198857142Y-176106271D01*
X199035988Y-176227653D01*
X199187689Y-176377653D01*
X199308609Y-176552461D01*
X199395110Y-176748265D01*
X199414583Y-176813438D01*
X199420981Y-176844284D01*
X199426458Y-176887183D01*
X199431077Y-176945237D01*
X199434906Y-177021551D01*
X199438010Y-177119228D01*
X199440454Y-177241371D01*
X199442305Y-177391083D01*
X199443628Y-177571470D01*
X199444489Y-177785633D01*
X199444954Y-178036676D01*
X199445082Y-178253062D01*
X199445094Y-178523263D01*
X199444950Y-178754570D01*
X199444548Y-178950421D01*
X199443783Y-179114254D01*
X199442553Y-179249508D01*
X199440754Y-179359621D01*
X199438283Y-179448033D01*
X199435037Y-179518181D01*
X199430912Y-179573505D01*
X199425804Y-179617442D01*
X199419611Y-179653432D01*
X199412229Y-179684913D01*
X199403556Y-179715323D01*
X199400872Y-179724145D01*
X199317165Y-179926889D01*
X199197169Y-180107893D01*
X199102674Y-180210824D01*
X198982780Y-180315862D01*
X198863472Y-180394285D01*
X198727335Y-180456652D01*
X198653535Y-180483101D01*
X198495952Y-180536000D01*
X194446268Y-180535458D01*
X190396583Y-180534917D01*
X190241296Y-180482022D01*
X190034532Y-180390854D01*
X189856016Y-180268305D01*
X189706821Y-180115454D01*
X189588022Y-179933382D01*
X189507565Y-179744201D01*
X189485595Y-179678750D01*
X190132000Y-179678750D01*
X190135325Y-179808736D01*
X190146813Y-179904606D01*
X190168733Y-179974164D01*
X190203356Y-180025215D01*
X190242422Y-180058465D01*
X190289607Y-180075397D01*
X190367816Y-180086979D01*
X190466083Y-180093264D01*
X190573447Y-180094306D01*
X190678942Y-180090159D01*
X190771605Y-180080875D01*
X190840472Y-180066508D01*
X190865882Y-180055423D01*
X190915148Y-180010474D01*
X190948922Y-179946762D01*
X190969191Y-179857625D01*
X190977945Y-179736398D01*
X190978649Y-179678750D01*
X192058167Y-179678750D01*
X192061491Y-179808736D01*
X192072979Y-179904606D01*
X192094900Y-179974164D01*
X192129523Y-180025215D01*
X192168589Y-180058465D01*
X192215774Y-180075397D01*
X192293982Y-180086979D01*
X192392250Y-180093264D01*
X192499614Y-180094306D01*
X192605109Y-180090159D01*
X192697772Y-180080875D01*
X192766639Y-180066508D01*
X192792049Y-180055423D01*
X192841491Y-180010215D01*
X192875335Y-179946039D01*
X192895572Y-179856253D01*
X192904191Y-179734212D01*
X192904833Y-179678749D01*
X192900886Y-179540083D01*
X192885621Y-179436033D01*
X192874474Y-179409933D01*
X194005500Y-179409933D01*
X194005500Y-179947566D01*
X194077467Y-180019533D01*
X194149433Y-180091500D01*
X194404554Y-180091500D01*
X194517511Y-180089423D01*
X194613618Y-180083683D01*
X194683609Y-180075012D01*
X194713290Y-180067071D01*
X194767134Y-180033206D01*
X194804819Y-179984027D01*
X194829281Y-179912173D01*
X194843459Y-179810282D01*
X194848382Y-179728590D01*
X194849664Y-179591715D01*
X194839113Y-179488153D01*
X194814707Y-179410040D01*
X194814636Y-179409933D01*
X195952833Y-179409933D01*
X195952833Y-179947566D01*
X196096767Y-180091500D01*
X196634400Y-180091500D01*
X196706367Y-180019533D01*
X196778333Y-179947566D01*
X196778333Y-179678750D01*
X196905569Y-179678750D01*
X196912000Y-179813531D01*
X196932748Y-179915022D01*
X196970002Y-179990489D01*
X197013410Y-180037222D01*
X197042448Y-180059823D01*
X197071796Y-180075090D01*
X197110162Y-180084456D01*
X197166255Y-180089356D01*
X197248784Y-180091224D01*
X197342991Y-180091500D01*
X197608067Y-180091500D01*
X197680033Y-180019533D01*
X197752000Y-179947566D01*
X197752000Y-179409933D01*
X197879000Y-179409933D01*
X197879000Y-179947566D01*
X197950967Y-180019533D01*
X198022933Y-180091500D01*
X198288009Y-180091500D01*
X198398916Y-180091053D01*
X198476200Y-180088759D01*
X198528570Y-180083182D01*
X198564733Y-180072889D01*
X198593400Y-180056445D01*
X198617590Y-180037222D01*
X198669700Y-179977410D01*
X198703547Y-179897417D01*
X198721319Y-179789977D01*
X198725430Y-179678750D01*
X198719000Y-179543968D01*
X198698251Y-179442477D01*
X198660998Y-179367010D01*
X198617590Y-179320277D01*
X198588552Y-179297676D01*
X198559204Y-179282409D01*
X198520838Y-179273043D01*
X198464744Y-179268143D01*
X198382216Y-179266275D01*
X198288009Y-179266000D01*
X198022933Y-179266000D01*
X197879000Y-179409933D01*
X197752000Y-179409933D01*
X197608067Y-179266000D01*
X197342991Y-179266000D01*
X197232084Y-179266446D01*
X197154800Y-179268740D01*
X197102430Y-179274317D01*
X197066266Y-179284610D01*
X197037600Y-179301054D01*
X197013410Y-179320277D01*
X196961300Y-179380089D01*
X196927452Y-179460082D01*
X196909681Y-179567522D01*
X196905569Y-179678750D01*
X196778333Y-179678750D01*
X196778333Y-179409933D01*
X196706367Y-179337966D01*
X196634400Y-179266000D01*
X196096767Y-179266000D01*
X196024800Y-179337966D01*
X195952833Y-179409933D01*
X194814636Y-179409933D01*
X194774427Y-179349507D01*
X194743296Y-179319609D01*
X194714490Y-179297274D01*
X194685099Y-179282190D01*
X194646432Y-179272939D01*
X194589795Y-179268102D01*
X194506495Y-179266264D01*
X194414509Y-179266000D01*
X194149433Y-179266000D01*
X194005500Y-179409933D01*
X192874474Y-179409933D01*
X192853903Y-179361772D01*
X192800600Y-179312468D01*
X192720577Y-179283292D01*
X192608699Y-179269414D01*
X192466094Y-179266000D01*
X192325588Y-179269502D01*
X192221316Y-179283579D01*
X192147985Y-179313588D01*
X192100302Y-179364883D01*
X192072973Y-179442819D01*
X192060706Y-179552754D01*
X192058167Y-179678750D01*
X190978649Y-179678750D01*
X190978667Y-179677337D01*
X190974516Y-179539062D01*
X190958662Y-179435267D01*
X190926001Y-179361166D01*
X190871431Y-179311975D01*
X190789849Y-179282910D01*
X190676151Y-179269188D01*
X190539927Y-179266000D01*
X190399421Y-179269502D01*
X190295149Y-179283579D01*
X190221818Y-179313588D01*
X190174135Y-179364883D01*
X190146806Y-179442819D01*
X190134539Y-179552754D01*
X190132000Y-179678750D01*
X189485595Y-179678750D01*
X189454667Y-179586619D01*
X189454667Y-178705083D01*
X190132000Y-178705083D01*
X190136608Y-178848541D01*
X190153636Y-178957207D01*
X190187888Y-179035436D01*
X190244168Y-179087585D01*
X190327282Y-179118008D01*
X190442033Y-179131061D01*
X190593226Y-179131099D01*
X190601663Y-179130843D01*
X190714900Y-179124688D01*
X190794027Y-179113690D01*
X190847123Y-179096514D01*
X190862722Y-179087720D01*
X190913408Y-179041304D01*
X190948214Y-178975418D01*
X190969096Y-178883586D01*
X190978010Y-178759331D01*
X190978650Y-178705083D01*
X192058167Y-178705083D01*
X192062775Y-178848541D01*
X192079803Y-178957207D01*
X192114054Y-179035436D01*
X192170335Y-179087585D01*
X192253448Y-179118008D01*
X192368200Y-179131061D01*
X192519393Y-179131099D01*
X192527829Y-179130843D01*
X192641067Y-179124688D01*
X192720194Y-179113690D01*
X192773289Y-179096514D01*
X192788889Y-179087720D01*
X192839574Y-179041304D01*
X192874381Y-178975418D01*
X192895263Y-178883586D01*
X192895532Y-178879825D01*
X194006548Y-178879825D01*
X194010107Y-178932927D01*
X194018561Y-178969214D01*
X194033142Y-178997184D01*
X194055084Y-179025338D01*
X194058560Y-179029476D01*
X194112362Y-179078679D01*
X194172174Y-179113488D01*
X194181880Y-179116932D01*
X194242040Y-179127065D01*
X194328847Y-179131629D01*
X194429667Y-179131105D01*
X194531869Y-179125972D01*
X194622821Y-179116711D01*
X194689890Y-179103801D01*
X194708995Y-179096891D01*
X194764543Y-179061535D01*
X194803238Y-179012973D01*
X194828256Y-178943417D01*
X194842771Y-178845077D01*
X194848382Y-178754924D01*
X194849664Y-178618048D01*
X194839113Y-178514487D01*
X194814707Y-178436373D01*
X194814636Y-178436266D01*
X195952833Y-178436266D01*
X195952833Y-178701342D01*
X195953272Y-178812208D01*
X195955553Y-178889460D01*
X195961118Y-178941815D01*
X195971413Y-178977991D01*
X195987881Y-179006704D01*
X196007505Y-179031392D01*
X196061180Y-179079716D01*
X196121203Y-179113134D01*
X196129213Y-179115773D01*
X196201664Y-179128484D01*
X196299742Y-179135197D01*
X196407161Y-179135866D01*
X196507635Y-179130443D01*
X196584879Y-179118884D01*
X196591764Y-179117096D01*
X196658852Y-179085384D01*
X196718891Y-179036778D01*
X196724056Y-179030923D01*
X196746657Y-179001885D01*
X196761923Y-178972537D01*
X196771289Y-178934171D01*
X196776190Y-178878077D01*
X196778058Y-178795549D01*
X196778333Y-178701342D01*
X196778333Y-178436266D01*
X197879000Y-178436266D01*
X197879000Y-178701342D01*
X197879439Y-178812208D01*
X197881719Y-178889460D01*
X197887285Y-178941815D01*
X197897580Y-178977991D01*
X197914047Y-179006704D01*
X197933672Y-179031392D01*
X197981011Y-179077120D01*
X198037837Y-179107845D01*
X198112560Y-179125734D01*
X198213589Y-179132953D01*
X198325362Y-179132347D01*
X198436796Y-179127005D01*
X198514532Y-179116721D01*
X198567057Y-179100122D01*
X198584359Y-179090469D01*
X198642981Y-179042878D01*
X198682370Y-178984893D01*
X198706499Y-178906962D01*
X198719343Y-178799529D01*
X198721566Y-178760607D01*
X198722015Y-178612949D01*
X198706543Y-178499247D01*
X198673687Y-178413669D01*
X198621987Y-178350385D01*
X198617809Y-178346795D01*
X198588707Y-178324120D01*
X198559369Y-178308803D01*
X198521083Y-178299405D01*
X198465136Y-178294488D01*
X198382816Y-178292611D01*
X198288009Y-178292333D01*
X198022933Y-178292333D01*
X197879000Y-178436266D01*
X196778333Y-178436266D01*
X196706367Y-178364299D01*
X196634400Y-178292333D01*
X196096767Y-178292333D01*
X196024800Y-178364299D01*
X195952833Y-178436266D01*
X194814636Y-178436266D01*
X194774427Y-178375841D01*
X194743296Y-178345942D01*
X194714346Y-178323516D01*
X194684795Y-178308405D01*
X194645889Y-178299169D01*
X194588876Y-178294373D01*
X194505001Y-178292576D01*
X194416960Y-178292333D01*
X194307356Y-178292653D01*
X194231289Y-178294702D01*
X194179962Y-178300119D01*
X194144578Y-178310538D01*
X194116342Y-178327597D01*
X194086456Y-178352931D01*
X194085209Y-178354044D01*
X194016083Y-178415755D01*
X194009180Y-178689171D01*
X194006650Y-178801406D01*
X194006548Y-178879825D01*
X192895532Y-178879825D01*
X192904177Y-178759331D01*
X192904833Y-178703670D01*
X192900579Y-178564664D01*
X192884406Y-178460496D01*
X192851201Y-178386313D01*
X192795849Y-178337265D01*
X192713234Y-178308498D01*
X192598243Y-178295161D01*
X192471223Y-178292333D01*
X192328942Y-178296028D01*
X192223295Y-178310661D01*
X192148960Y-178341551D01*
X192100611Y-178394019D01*
X192072926Y-178473384D01*
X192060579Y-178584968D01*
X192058167Y-178705083D01*
X190978650Y-178705083D01*
X190978667Y-178703670D01*
X190974412Y-178564664D01*
X190958240Y-178460496D01*
X190925035Y-178386313D01*
X190869682Y-178337265D01*
X190787068Y-178308498D01*
X190672077Y-178295161D01*
X190545056Y-178292333D01*
X190402775Y-178296028D01*
X190297128Y-178310661D01*
X190222793Y-178341551D01*
X190174445Y-178394019D01*
X190146759Y-178473384D01*
X190134413Y-178584968D01*
X190132000Y-178705083D01*
X189454667Y-178705083D01*
X189454667Y-177737818D01*
X190132000Y-177737818D01*
X190132927Y-177843102D01*
X190136785Y-177916169D01*
X190145186Y-177967114D01*
X190159743Y-178006035D01*
X190180358Y-178040494D01*
X190225360Y-178093121D01*
X190282394Y-178129040D01*
X190358952Y-178150405D01*
X190462526Y-178159371D01*
X190590674Y-178158434D01*
X190705003Y-178152340D01*
X190785244Y-178142107D01*
X190839546Y-178126412D01*
X190862317Y-178114319D01*
X190913135Y-178067906D01*
X190948037Y-178002210D01*
X190968994Y-177910715D01*
X190977980Y-177786902D01*
X190978572Y-177737818D01*
X191084500Y-177737818D01*
X191085427Y-177843102D01*
X191089285Y-177916169D01*
X191097686Y-177967114D01*
X191112243Y-178006035D01*
X191132858Y-178040494D01*
X191177860Y-178093121D01*
X191234894Y-178129040D01*
X191311452Y-178150405D01*
X191415026Y-178159371D01*
X191543174Y-178158434D01*
X191657503Y-178152340D01*
X191737744Y-178142107D01*
X191792046Y-178126412D01*
X191814817Y-178114319D01*
X191865635Y-178067906D01*
X191900537Y-178002210D01*
X191921494Y-177910715D01*
X191930480Y-177786902D01*
X191931072Y-177737818D01*
X192058167Y-177737818D01*
X192059094Y-177843102D01*
X192062952Y-177916169D01*
X192071352Y-177967114D01*
X192085909Y-178006035D01*
X192106524Y-178040494D01*
X192151527Y-178093121D01*
X192208560Y-178129040D01*
X192285118Y-178150405D01*
X192388693Y-178159371D01*
X192516840Y-178158434D01*
X192631170Y-178152340D01*
X192711410Y-178142107D01*
X192765713Y-178126412D01*
X192788483Y-178114319D01*
X192839302Y-178067906D01*
X192874203Y-178002210D01*
X192895161Y-177910715D01*
X192904147Y-177786902D01*
X192904833Y-177730003D01*
X192900362Y-177589499D01*
X192883524Y-177484569D01*
X192873377Y-177462599D01*
X193053000Y-177462599D01*
X193053000Y-177727675D01*
X193053439Y-177838542D01*
X193055719Y-177915793D01*
X193061285Y-177968149D01*
X193071580Y-178004324D01*
X193088047Y-178033038D01*
X193107672Y-178057725D01*
X193161347Y-178106050D01*
X193221369Y-178139467D01*
X193229380Y-178142107D01*
X193301830Y-178154818D01*
X193399908Y-178161530D01*
X193507327Y-178162199D01*
X193607802Y-178156777D01*
X193685046Y-178145217D01*
X193691931Y-178143429D01*
X193759018Y-178111717D01*
X193819057Y-178063111D01*
X193824223Y-178057256D01*
X193846824Y-178028218D01*
X193862090Y-177998870D01*
X193871456Y-177960504D01*
X193876203Y-177906158D01*
X194006548Y-177906158D01*
X194010107Y-177959261D01*
X194018561Y-177995547D01*
X194033142Y-178023517D01*
X194055084Y-178051672D01*
X194058560Y-178055810D01*
X194112373Y-178105058D01*
X194172194Y-178139958D01*
X194181880Y-178143414D01*
X194244470Y-178154592D01*
X194331478Y-178159729D01*
X194431349Y-178159368D01*
X194532528Y-178154051D01*
X194623459Y-178144321D01*
X194692588Y-178130719D01*
X194723641Y-178117984D01*
X194774792Y-178075540D01*
X194809449Y-178026705D01*
X194831165Y-177961926D01*
X194843489Y-177871649D01*
X194848703Y-177781485D01*
X194849776Y-177644476D01*
X194839093Y-177540814D01*
X194814629Y-177462645D01*
X194814599Y-177462599D01*
X195952833Y-177462599D01*
X195952833Y-177727675D01*
X195953272Y-177838542D01*
X195955553Y-177915793D01*
X195961118Y-177968149D01*
X195971413Y-178004324D01*
X195987881Y-178033038D01*
X196007505Y-178057725D01*
X196061180Y-178106050D01*
X196121203Y-178139467D01*
X196129213Y-178142107D01*
X196201664Y-178154818D01*
X196299742Y-178161530D01*
X196407161Y-178162199D01*
X196507635Y-178156777D01*
X196584879Y-178145217D01*
X196591764Y-178143429D01*
X196658852Y-178111717D01*
X196718891Y-178063111D01*
X196724056Y-178057256D01*
X196746657Y-178028218D01*
X196761923Y-177998870D01*
X196771289Y-177960504D01*
X196776190Y-177904411D01*
X196778058Y-177821882D01*
X196778333Y-177727675D01*
X196778333Y-177720833D01*
X196905684Y-177720833D01*
X196910261Y-177858886D01*
X196925624Y-177961868D01*
X196954619Y-178036288D01*
X197000090Y-178088656D01*
X197064881Y-178125483D01*
X197086060Y-178133607D01*
X197163967Y-178151216D01*
X197267365Y-178161252D01*
X197380035Y-178163385D01*
X197485757Y-178157282D01*
X197565431Y-178143429D01*
X197632518Y-178111717D01*
X197692557Y-178063111D01*
X197697723Y-178057256D01*
X197720324Y-178028218D01*
X197735590Y-177998870D01*
X197744956Y-177960504D01*
X197749856Y-177904411D01*
X197751724Y-177821882D01*
X197752000Y-177727675D01*
X197752000Y-177462599D01*
X197879000Y-177462599D01*
X197879000Y-177727675D01*
X197879439Y-177838542D01*
X197881719Y-177915793D01*
X197887285Y-177968149D01*
X197897580Y-178004324D01*
X197914047Y-178033038D01*
X197933672Y-178057725D01*
X197981011Y-178103454D01*
X198037837Y-178134179D01*
X198112560Y-178152067D01*
X198213589Y-178159286D01*
X198325362Y-178158680D01*
X198436796Y-178153338D01*
X198514532Y-178143054D01*
X198567057Y-178126455D01*
X198584359Y-178116803D01*
X198642981Y-178069211D01*
X198682370Y-178011227D01*
X198706499Y-177933295D01*
X198719343Y-177825863D01*
X198721566Y-177786941D01*
X198722015Y-177639282D01*
X198706543Y-177525580D01*
X198673687Y-177440002D01*
X198621987Y-177376718D01*
X198617809Y-177373128D01*
X198588707Y-177350453D01*
X198559369Y-177335137D01*
X198521083Y-177325739D01*
X198465136Y-177320821D01*
X198382816Y-177318945D01*
X198288009Y-177318666D01*
X198022933Y-177318666D01*
X197950967Y-177390633D01*
X197879000Y-177462599D01*
X197752000Y-177462599D01*
X197680033Y-177390633D01*
X197608067Y-177318666D01*
X197342991Y-177318666D01*
X197232084Y-177319112D01*
X197154800Y-177321407D01*
X197102430Y-177326983D01*
X197066266Y-177337277D01*
X197037600Y-177353720D01*
X197013410Y-177372943D01*
X196959421Y-177435998D01*
X196925074Y-177521149D01*
X196908249Y-177635240D01*
X196905684Y-177720833D01*
X196778333Y-177720833D01*
X196778333Y-177462599D01*
X196634400Y-177318666D01*
X196096767Y-177318666D01*
X196024800Y-177390633D01*
X195952833Y-177462599D01*
X194814599Y-177462599D01*
X194774363Y-177402118D01*
X194743296Y-177372276D01*
X194714346Y-177349850D01*
X194684795Y-177334738D01*
X194645889Y-177325503D01*
X194588876Y-177320706D01*
X194505001Y-177318910D01*
X194416960Y-177318666D01*
X194307356Y-177318986D01*
X194231289Y-177321036D01*
X194179962Y-177326452D01*
X194144578Y-177336872D01*
X194116342Y-177353930D01*
X194086456Y-177379265D01*
X194085209Y-177380377D01*
X194016083Y-177442089D01*
X194009180Y-177715504D01*
X194006650Y-177827740D01*
X194006548Y-177906158D01*
X193876203Y-177906158D01*
X193876356Y-177904411D01*
X193878224Y-177821882D01*
X193878500Y-177727675D01*
X193878500Y-177462599D01*
X193806533Y-177390633D01*
X193734566Y-177318666D01*
X193196933Y-177318666D01*
X193124967Y-177390633D01*
X193053000Y-177462599D01*
X192873377Y-177462599D01*
X192849187Y-177410224D01*
X192792215Y-177361475D01*
X192707474Y-177333334D01*
X192589829Y-177320812D01*
X192481500Y-177318666D01*
X192337190Y-177322380D01*
X192229577Y-177336989D01*
X192153412Y-177367691D01*
X192103442Y-177419685D01*
X192074417Y-177498171D01*
X192061086Y-177608348D01*
X192058167Y-177737818D01*
X191931072Y-177737818D01*
X191931167Y-177730003D01*
X191926502Y-177589289D01*
X191909107Y-177484194D01*
X191873877Y-177409747D01*
X191815710Y-177360978D01*
X191729501Y-177332917D01*
X191610148Y-177320593D01*
X191508808Y-177318666D01*
X191364313Y-177322354D01*
X191256526Y-177336872D01*
X191180198Y-177367405D01*
X191130082Y-177419138D01*
X191100929Y-177497253D01*
X191087493Y-177606936D01*
X191084500Y-177737818D01*
X190978572Y-177737818D01*
X190978667Y-177730003D01*
X190974195Y-177589499D01*
X190957358Y-177484569D01*
X190923020Y-177410224D01*
X190866048Y-177361475D01*
X190781307Y-177333334D01*
X190663663Y-177320812D01*
X190555333Y-177318666D01*
X190411023Y-177322380D01*
X190303411Y-177336989D01*
X190227245Y-177367691D01*
X190177275Y-177419685D01*
X190148250Y-177498171D01*
X190134919Y-177608348D01*
X190132000Y-177737818D01*
X189454667Y-177737818D01*
X189454667Y-176913380D01*
X189507987Y-176754542D01*
X189589930Y-176561760D01*
X189637904Y-176488933D01*
X195952833Y-176488933D01*
X195952833Y-176754009D01*
X195953272Y-176864875D01*
X195955553Y-176942127D01*
X195961118Y-176994482D01*
X195971413Y-177030658D01*
X195987881Y-177059371D01*
X196007505Y-177084058D01*
X196061180Y-177132383D01*
X196121203Y-177165800D01*
X196129213Y-177168440D01*
X196201664Y-177181151D01*
X196299742Y-177187864D01*
X196407161Y-177188532D01*
X196507635Y-177183110D01*
X196584879Y-177171550D01*
X196591764Y-177169762D01*
X196658852Y-177138051D01*
X196718891Y-177089445D01*
X196724056Y-177083590D01*
X196746657Y-177054551D01*
X196761923Y-177025204D01*
X196771289Y-176986837D01*
X196776190Y-176930744D01*
X196778058Y-176848216D01*
X196778333Y-176754009D01*
X196778333Y-176488933D01*
X196706367Y-176416966D01*
X196634400Y-176345000D01*
X196096767Y-176345000D01*
X196024800Y-176416966D01*
X195952833Y-176488933D01*
X189637904Y-176488933D01*
X189699525Y-176395391D01*
X189816663Y-176269540D01*
X189951708Y-176157481D01*
X190090452Y-176075407D01*
X190250251Y-176013235D01*
X190266521Y-176008191D01*
X190284274Y-176002880D01*
X190302379Y-175998013D01*
X190322668Y-175993570D01*
X190346974Y-175989532D01*
X190377129Y-175985879D01*
X190414965Y-175982592D01*
X190462315Y-175979652D01*
X190521010Y-175977040D01*
X190592883Y-175974736D01*
X190679766Y-175972720D01*
X190783491Y-175970974D01*
X190905891Y-175969479D01*
X191048797Y-175968214D01*
X191214043Y-175967160D01*
X191403459Y-175966298D01*
X191618879Y-175965610D01*
X191862135Y-175965074D01*
X192135059Y-175964673D01*
X192439482Y-175964387D01*
X192777238Y-175964196D01*
X193150159Y-175964081D01*
X193560076Y-175964023D01*
X194008823Y-175964002D01*
X194453789Y-175964000D01*
X198495952Y-175964000D01*
X198654790Y-176017320D01*
G37*
X198654790Y-176017320D02*
X198857142Y-176106271D01*
X199035988Y-176227653D01*
X199187689Y-176377653D01*
X199308609Y-176552461D01*
X199395110Y-176748265D01*
X199414583Y-176813438D01*
X199420981Y-176844284D01*
X199426458Y-176887183D01*
X199431077Y-176945237D01*
X199434906Y-177021551D01*
X199438010Y-177119228D01*
X199440454Y-177241371D01*
X199442305Y-177391083D01*
X199443628Y-177571470D01*
X199444489Y-177785633D01*
X199444954Y-178036676D01*
X199445082Y-178253062D01*
X199445094Y-178523263D01*
X199444950Y-178754570D01*
X199444548Y-178950421D01*
X199443783Y-179114254D01*
X199442553Y-179249508D01*
X199440754Y-179359621D01*
X199438283Y-179448033D01*
X199435037Y-179518181D01*
X199430912Y-179573505D01*
X199425804Y-179617442D01*
X199419611Y-179653432D01*
X199412229Y-179684913D01*
X199403556Y-179715323D01*
X199400872Y-179724145D01*
X199317165Y-179926889D01*
X199197169Y-180107893D01*
X199102674Y-180210824D01*
X198982780Y-180315862D01*
X198863472Y-180394285D01*
X198727335Y-180456652D01*
X198653535Y-180483101D01*
X198495952Y-180536000D01*
X194446268Y-180535458D01*
X190396583Y-180534917D01*
X190241296Y-180482022D01*
X190034532Y-180390854D01*
X189856016Y-180268305D01*
X189706821Y-180115454D01*
X189588022Y-179933382D01*
X189507565Y-179744201D01*
X189485595Y-179678750D01*
X190132000Y-179678750D01*
X190135325Y-179808736D01*
X190146813Y-179904606D01*
X190168733Y-179974164D01*
X190203356Y-180025215D01*
X190242422Y-180058465D01*
X190289607Y-180075397D01*
X190367816Y-180086979D01*
X190466083Y-180093264D01*
X190573447Y-180094306D01*
X190678942Y-180090159D01*
X190771605Y-180080875D01*
X190840472Y-180066508D01*
X190865882Y-180055423D01*
X190915148Y-180010474D01*
X190948922Y-179946762D01*
X190969191Y-179857625D01*
X190977945Y-179736398D01*
X190978649Y-179678750D01*
X192058167Y-179678750D01*
X192061491Y-179808736D01*
X192072979Y-179904606D01*
X192094900Y-179974164D01*
X192129523Y-180025215D01*
X192168589Y-180058465D01*
X192215774Y-180075397D01*
X192293982Y-180086979D01*
X192392250Y-180093264D01*
X192499614Y-180094306D01*
X192605109Y-180090159D01*
X192697772Y-180080875D01*
X192766639Y-180066508D01*
X192792049Y-180055423D01*
X192841491Y-180010215D01*
X192875335Y-179946039D01*
X192895572Y-179856253D01*
X192904191Y-179734212D01*
X192904833Y-179678749D01*
X192900886Y-179540083D01*
X192885621Y-179436033D01*
X192874474Y-179409933D01*
X194005500Y-179409933D01*
X194005500Y-179947566D01*
X194077467Y-180019533D01*
X194149433Y-180091500D01*
X194404554Y-180091500D01*
X194517511Y-180089423D01*
X194613618Y-180083683D01*
X194683609Y-180075012D01*
X194713290Y-180067071D01*
X194767134Y-180033206D01*
X194804819Y-179984027D01*
X194829281Y-179912173D01*
X194843459Y-179810282D01*
X194848382Y-179728590D01*
X194849664Y-179591715D01*
X194839113Y-179488153D01*
X194814707Y-179410040D01*
X194814636Y-179409933D01*
X195952833Y-179409933D01*
X195952833Y-179947566D01*
X196096767Y-180091500D01*
X196634400Y-180091500D01*
X196706367Y-180019533D01*
X196778333Y-179947566D01*
X196778333Y-179678750D01*
X196905569Y-179678750D01*
X196912000Y-179813531D01*
X196932748Y-179915022D01*
X196970002Y-179990489D01*
X197013410Y-180037222D01*
X197042448Y-180059823D01*
X197071796Y-180075090D01*
X197110162Y-180084456D01*
X197166255Y-180089356D01*
X197248784Y-180091224D01*
X197342991Y-180091500D01*
X197608067Y-180091500D01*
X197680033Y-180019533D01*
X197752000Y-179947566D01*
X197752000Y-179409933D01*
X197879000Y-179409933D01*
X197879000Y-179947566D01*
X197950967Y-180019533D01*
X198022933Y-180091500D01*
X198288009Y-180091500D01*
X198398916Y-180091053D01*
X198476200Y-180088759D01*
X198528570Y-180083182D01*
X198564733Y-180072889D01*
X198593400Y-180056445D01*
X198617590Y-180037222D01*
X198669700Y-179977410D01*
X198703547Y-179897417D01*
X198721319Y-179789977D01*
X198725430Y-179678750D01*
X198719000Y-179543968D01*
X198698251Y-179442477D01*
X198660998Y-179367010D01*
X198617590Y-179320277D01*
X198588552Y-179297676D01*
X198559204Y-179282409D01*
X198520838Y-179273043D01*
X198464744Y-179268143D01*
X198382216Y-179266275D01*
X198288009Y-179266000D01*
X198022933Y-179266000D01*
X197879000Y-179409933D01*
X197752000Y-179409933D01*
X197608067Y-179266000D01*
X197342991Y-179266000D01*
X197232084Y-179266446D01*
X197154800Y-179268740D01*
X197102430Y-179274317D01*
X197066266Y-179284610D01*
X197037600Y-179301054D01*
X197013410Y-179320277D01*
X196961300Y-179380089D01*
X196927452Y-179460082D01*
X196909681Y-179567522D01*
X196905569Y-179678750D01*
X196778333Y-179678750D01*
X196778333Y-179409933D01*
X196706367Y-179337966D01*
X196634400Y-179266000D01*
X196096767Y-179266000D01*
X196024800Y-179337966D01*
X195952833Y-179409933D01*
X194814636Y-179409933D01*
X194774427Y-179349507D01*
X194743296Y-179319609D01*
X194714490Y-179297274D01*
X194685099Y-179282190D01*
X194646432Y-179272939D01*
X194589795Y-179268102D01*
X194506495Y-179266264D01*
X194414509Y-179266000D01*
X194149433Y-179266000D01*
X194005500Y-179409933D01*
X192874474Y-179409933D01*
X192853903Y-179361772D01*
X192800600Y-179312468D01*
X192720577Y-179283292D01*
X192608699Y-179269414D01*
X192466094Y-179266000D01*
X192325588Y-179269502D01*
X192221316Y-179283579D01*
X192147985Y-179313588D01*
X192100302Y-179364883D01*
X192072973Y-179442819D01*
X192060706Y-179552754D01*
X192058167Y-179678750D01*
X190978649Y-179678750D01*
X190978667Y-179677337D01*
X190974516Y-179539062D01*
X190958662Y-179435267D01*
X190926001Y-179361166D01*
X190871431Y-179311975D01*
X190789849Y-179282910D01*
X190676151Y-179269188D01*
X190539927Y-179266000D01*
X190399421Y-179269502D01*
X190295149Y-179283579D01*
X190221818Y-179313588D01*
X190174135Y-179364883D01*
X190146806Y-179442819D01*
X190134539Y-179552754D01*
X190132000Y-179678750D01*
X189485595Y-179678750D01*
X189454667Y-179586619D01*
X189454667Y-178705083D01*
X190132000Y-178705083D01*
X190136608Y-178848541D01*
X190153636Y-178957207D01*
X190187888Y-179035436D01*
X190244168Y-179087585D01*
X190327282Y-179118008D01*
X190442033Y-179131061D01*
X190593226Y-179131099D01*
X190601663Y-179130843D01*
X190714900Y-179124688D01*
X190794027Y-179113690D01*
X190847123Y-179096514D01*
X190862722Y-179087720D01*
X190913408Y-179041304D01*
X190948214Y-178975418D01*
X190969096Y-178883586D01*
X190978010Y-178759331D01*
X190978650Y-178705083D01*
X192058167Y-178705083D01*
X192062775Y-178848541D01*
X192079803Y-178957207D01*
X192114054Y-179035436D01*
X192170335Y-179087585D01*
X192253448Y-179118008D01*
X192368200Y-179131061D01*
X192519393Y-179131099D01*
X192527829Y-179130843D01*
X192641067Y-179124688D01*
X192720194Y-179113690D01*
X192773289Y-179096514D01*
X192788889Y-179087720D01*
X192839574Y-179041304D01*
X192874381Y-178975418D01*
X192895263Y-178883586D01*
X192895532Y-178879825D01*
X194006548Y-178879825D01*
X194010107Y-178932927D01*
X194018561Y-178969214D01*
X194033142Y-178997184D01*
X194055084Y-179025338D01*
X194058560Y-179029476D01*
X194112362Y-179078679D01*
X194172174Y-179113488D01*
X194181880Y-179116932D01*
X194242040Y-179127065D01*
X194328847Y-179131629D01*
X194429667Y-179131105D01*
X194531869Y-179125972D01*
X194622821Y-179116711D01*
X194689890Y-179103801D01*
X194708995Y-179096891D01*
X194764543Y-179061535D01*
X194803238Y-179012973D01*
X194828256Y-178943417D01*
X194842771Y-178845077D01*
X194848382Y-178754924D01*
X194849664Y-178618048D01*
X194839113Y-178514487D01*
X194814707Y-178436373D01*
X194814636Y-178436266D01*
X195952833Y-178436266D01*
X195952833Y-178701342D01*
X195953272Y-178812208D01*
X195955553Y-178889460D01*
X195961118Y-178941815D01*
X195971413Y-178977991D01*
X195987881Y-179006704D01*
X196007505Y-179031392D01*
X196061180Y-179079716D01*
X196121203Y-179113134D01*
X196129213Y-179115773D01*
X196201664Y-179128484D01*
X196299742Y-179135197D01*
X196407161Y-179135866D01*
X196507635Y-179130443D01*
X196584879Y-179118884D01*
X196591764Y-179117096D01*
X196658852Y-179085384D01*
X196718891Y-179036778D01*
X196724056Y-179030923D01*
X196746657Y-179001885D01*
X196761923Y-178972537D01*
X196771289Y-178934171D01*
X196776190Y-178878077D01*
X196778058Y-178795549D01*
X196778333Y-178701342D01*
X196778333Y-178436266D01*
X197879000Y-178436266D01*
X197879000Y-178701342D01*
X197879439Y-178812208D01*
X197881719Y-178889460D01*
X197887285Y-178941815D01*
X197897580Y-178977991D01*
X197914047Y-179006704D01*
X197933672Y-179031392D01*
X197981011Y-179077120D01*
X198037837Y-179107845D01*
X198112560Y-179125734D01*
X198213589Y-179132953D01*
X198325362Y-179132347D01*
X198436796Y-179127005D01*
X198514532Y-179116721D01*
X198567057Y-179100122D01*
X198584359Y-179090469D01*
X198642981Y-179042878D01*
X198682370Y-178984893D01*
X198706499Y-178906962D01*
X198719343Y-178799529D01*
X198721566Y-178760607D01*
X198722015Y-178612949D01*
X198706543Y-178499247D01*
X198673687Y-178413669D01*
X198621987Y-178350385D01*
X198617809Y-178346795D01*
X198588707Y-178324120D01*
X198559369Y-178308803D01*
X198521083Y-178299405D01*
X198465136Y-178294488D01*
X198382816Y-178292611D01*
X198288009Y-178292333D01*
X198022933Y-178292333D01*
X197879000Y-178436266D01*
X196778333Y-178436266D01*
X196706367Y-178364299D01*
X196634400Y-178292333D01*
X196096767Y-178292333D01*
X196024800Y-178364299D01*
X195952833Y-178436266D01*
X194814636Y-178436266D01*
X194774427Y-178375841D01*
X194743296Y-178345942D01*
X194714346Y-178323516D01*
X194684795Y-178308405D01*
X194645889Y-178299169D01*
X194588876Y-178294373D01*
X194505001Y-178292576D01*
X194416960Y-178292333D01*
X194307356Y-178292653D01*
X194231289Y-178294702D01*
X194179962Y-178300119D01*
X194144578Y-178310538D01*
X194116342Y-178327597D01*
X194086456Y-178352931D01*
X194085209Y-178354044D01*
X194016083Y-178415755D01*
X194009180Y-178689171D01*
X194006650Y-178801406D01*
X194006548Y-178879825D01*
X192895532Y-178879825D01*
X192904177Y-178759331D01*
X192904833Y-178703670D01*
X192900579Y-178564664D01*
X192884406Y-178460496D01*
X192851201Y-178386313D01*
X192795849Y-178337265D01*
X192713234Y-178308498D01*
X192598243Y-178295161D01*
X192471223Y-178292333D01*
X192328942Y-178296028D01*
X192223295Y-178310661D01*
X192148960Y-178341551D01*
X192100611Y-178394019D01*
X192072926Y-178473384D01*
X192060579Y-178584968D01*
X192058167Y-178705083D01*
X190978650Y-178705083D01*
X190978667Y-178703670D01*
X190974412Y-178564664D01*
X190958240Y-178460496D01*
X190925035Y-178386313D01*
X190869682Y-178337265D01*
X190787068Y-178308498D01*
X190672077Y-178295161D01*
X190545056Y-178292333D01*
X190402775Y-178296028D01*
X190297128Y-178310661D01*
X190222793Y-178341551D01*
X190174445Y-178394019D01*
X190146759Y-178473384D01*
X190134413Y-178584968D01*
X190132000Y-178705083D01*
X189454667Y-178705083D01*
X189454667Y-177737818D01*
X190132000Y-177737818D01*
X190132927Y-177843102D01*
X190136785Y-177916169D01*
X190145186Y-177967114D01*
X190159743Y-178006035D01*
X190180358Y-178040494D01*
X190225360Y-178093121D01*
X190282394Y-178129040D01*
X190358952Y-178150405D01*
X190462526Y-178159371D01*
X190590674Y-178158434D01*
X190705003Y-178152340D01*
X190785244Y-178142107D01*
X190839546Y-178126412D01*
X190862317Y-178114319D01*
X190913135Y-178067906D01*
X190948037Y-178002210D01*
X190968994Y-177910715D01*
X190977980Y-177786902D01*
X190978572Y-177737818D01*
X191084500Y-177737818D01*
X191085427Y-177843102D01*
X191089285Y-177916169D01*
X191097686Y-177967114D01*
X191112243Y-178006035D01*
X191132858Y-178040494D01*
X191177860Y-178093121D01*
X191234894Y-178129040D01*
X191311452Y-178150405D01*
X191415026Y-178159371D01*
X191543174Y-178158434D01*
X191657503Y-178152340D01*
X191737744Y-178142107D01*
X191792046Y-178126412D01*
X191814817Y-178114319D01*
X191865635Y-178067906D01*
X191900537Y-178002210D01*
X191921494Y-177910715D01*
X191930480Y-177786902D01*
X191931072Y-177737818D01*
X192058167Y-177737818D01*
X192059094Y-177843102D01*
X192062952Y-177916169D01*
X192071352Y-177967114D01*
X192085909Y-178006035D01*
X192106524Y-178040494D01*
X192151527Y-178093121D01*
X192208560Y-178129040D01*
X192285118Y-178150405D01*
X192388693Y-178159371D01*
X192516840Y-178158434D01*
X192631170Y-178152340D01*
X192711410Y-178142107D01*
X192765713Y-178126412D01*
X192788483Y-178114319D01*
X192839302Y-178067906D01*
X192874203Y-178002210D01*
X192895161Y-177910715D01*
X192904147Y-177786902D01*
X192904833Y-177730003D01*
X192900362Y-177589499D01*
X192883524Y-177484569D01*
X192873377Y-177462599D01*
X193053000Y-177462599D01*
X193053000Y-177727675D01*
X193053439Y-177838542D01*
X193055719Y-177915793D01*
X193061285Y-177968149D01*
X193071580Y-178004324D01*
X193088047Y-178033038D01*
X193107672Y-178057725D01*
X193161347Y-178106050D01*
X193221369Y-178139467D01*
X193229380Y-178142107D01*
X193301830Y-178154818D01*
X193399908Y-178161530D01*
X193507327Y-178162199D01*
X193607802Y-178156777D01*
X193685046Y-178145217D01*
X193691931Y-178143429D01*
X193759018Y-178111717D01*
X193819057Y-178063111D01*
X193824223Y-178057256D01*
X193846824Y-178028218D01*
X193862090Y-177998870D01*
X193871456Y-177960504D01*
X193876203Y-177906158D01*
X194006548Y-177906158D01*
X194010107Y-177959261D01*
X194018561Y-177995547D01*
X194033142Y-178023517D01*
X194055084Y-178051672D01*
X194058560Y-178055810D01*
X194112373Y-178105058D01*
X194172194Y-178139958D01*
X194181880Y-178143414D01*
X194244470Y-178154592D01*
X194331478Y-178159729D01*
X194431349Y-178159368D01*
X194532528Y-178154051D01*
X194623459Y-178144321D01*
X194692588Y-178130719D01*
X194723641Y-178117984D01*
X194774792Y-178075540D01*
X194809449Y-178026705D01*
X194831165Y-177961926D01*
X194843489Y-177871649D01*
X194848703Y-177781485D01*
X194849776Y-177644476D01*
X194839093Y-177540814D01*
X194814629Y-177462645D01*
X194814599Y-177462599D01*
X195952833Y-177462599D01*
X195952833Y-177727675D01*
X195953272Y-177838542D01*
X195955553Y-177915793D01*
X195961118Y-177968149D01*
X195971413Y-178004324D01*
X195987881Y-178033038D01*
X196007505Y-178057725D01*
X196061180Y-178106050D01*
X196121203Y-178139467D01*
X196129213Y-178142107D01*
X196201664Y-178154818D01*
X196299742Y-178161530D01*
X196407161Y-178162199D01*
X196507635Y-178156777D01*
X196584879Y-178145217D01*
X196591764Y-178143429D01*
X196658852Y-178111717D01*
X196718891Y-178063111D01*
X196724056Y-178057256D01*
X196746657Y-178028218D01*
X196761923Y-177998870D01*
X196771289Y-177960504D01*
X196776190Y-177904411D01*
X196778058Y-177821882D01*
X196778333Y-177727675D01*
X196778333Y-177720833D01*
X196905684Y-177720833D01*
X196910261Y-177858886D01*
X196925624Y-177961868D01*
X196954619Y-178036288D01*
X197000090Y-178088656D01*
X197064881Y-178125483D01*
X197086060Y-178133607D01*
X197163967Y-178151216D01*
X197267365Y-178161252D01*
X197380035Y-178163385D01*
X197485757Y-178157282D01*
X197565431Y-178143429D01*
X197632518Y-178111717D01*
X197692557Y-178063111D01*
X197697723Y-178057256D01*
X197720324Y-178028218D01*
X197735590Y-177998870D01*
X197744956Y-177960504D01*
X197749856Y-177904411D01*
X197751724Y-177821882D01*
X197752000Y-177727675D01*
X197752000Y-177462599D01*
X197879000Y-177462599D01*
X197879000Y-177727675D01*
X197879439Y-177838542D01*
X197881719Y-177915793D01*
X197887285Y-177968149D01*
X197897580Y-178004324D01*
X197914047Y-178033038D01*
X197933672Y-178057725D01*
X197981011Y-178103454D01*
X198037837Y-178134179D01*
X198112560Y-178152067D01*
X198213589Y-178159286D01*
X198325362Y-178158680D01*
X198436796Y-178153338D01*
X198514532Y-178143054D01*
X198567057Y-178126455D01*
X198584359Y-178116803D01*
X198642981Y-178069211D01*
X198682370Y-178011227D01*
X198706499Y-177933295D01*
X198719343Y-177825863D01*
X198721566Y-177786941D01*
X198722015Y-177639282D01*
X198706543Y-177525580D01*
X198673687Y-177440002D01*
X198621987Y-177376718D01*
X198617809Y-177373128D01*
X198588707Y-177350453D01*
X198559369Y-177335137D01*
X198521083Y-177325739D01*
X198465136Y-177320821D01*
X198382816Y-177318945D01*
X198288009Y-177318666D01*
X198022933Y-177318666D01*
X197950967Y-177390633D01*
X197879000Y-177462599D01*
X197752000Y-177462599D01*
X197680033Y-177390633D01*
X197608067Y-177318666D01*
X197342991Y-177318666D01*
X197232084Y-177319112D01*
X197154800Y-177321407D01*
X197102430Y-177326983D01*
X197066266Y-177337277D01*
X197037600Y-177353720D01*
X197013410Y-177372943D01*
X196959421Y-177435998D01*
X196925074Y-177521149D01*
X196908249Y-177635240D01*
X196905684Y-177720833D01*
X196778333Y-177720833D01*
X196778333Y-177462599D01*
X196634400Y-177318666D01*
X196096767Y-177318666D01*
X196024800Y-177390633D01*
X195952833Y-177462599D01*
X194814599Y-177462599D01*
X194774363Y-177402118D01*
X194743296Y-177372276D01*
X194714346Y-177349850D01*
X194684795Y-177334738D01*
X194645889Y-177325503D01*
X194588876Y-177320706D01*
X194505001Y-177318910D01*
X194416960Y-177318666D01*
X194307356Y-177318986D01*
X194231289Y-177321036D01*
X194179962Y-177326452D01*
X194144578Y-177336872D01*
X194116342Y-177353930D01*
X194086456Y-177379265D01*
X194085209Y-177380377D01*
X194016083Y-177442089D01*
X194009180Y-177715504D01*
X194006650Y-177827740D01*
X194006548Y-177906158D01*
X193876203Y-177906158D01*
X193876356Y-177904411D01*
X193878224Y-177821882D01*
X193878500Y-177727675D01*
X193878500Y-177462599D01*
X193806533Y-177390633D01*
X193734566Y-177318666D01*
X193196933Y-177318666D01*
X193124967Y-177390633D01*
X193053000Y-177462599D01*
X192873377Y-177462599D01*
X192849187Y-177410224D01*
X192792215Y-177361475D01*
X192707474Y-177333334D01*
X192589829Y-177320812D01*
X192481500Y-177318666D01*
X192337190Y-177322380D01*
X192229577Y-177336989D01*
X192153412Y-177367691D01*
X192103442Y-177419685D01*
X192074417Y-177498171D01*
X192061086Y-177608348D01*
X192058167Y-177737818D01*
X191931072Y-177737818D01*
X191931167Y-177730003D01*
X191926502Y-177589289D01*
X191909107Y-177484194D01*
X191873877Y-177409747D01*
X191815710Y-177360978D01*
X191729501Y-177332917D01*
X191610148Y-177320593D01*
X191508808Y-177318666D01*
X191364313Y-177322354D01*
X191256526Y-177336872D01*
X191180198Y-177367405D01*
X191130082Y-177419138D01*
X191100929Y-177497253D01*
X191087493Y-177606936D01*
X191084500Y-177737818D01*
X190978572Y-177737818D01*
X190978667Y-177730003D01*
X190974195Y-177589499D01*
X190957358Y-177484569D01*
X190923020Y-177410224D01*
X190866048Y-177361475D01*
X190781307Y-177333334D01*
X190663663Y-177320812D01*
X190555333Y-177318666D01*
X190411023Y-177322380D01*
X190303411Y-177336989D01*
X190227245Y-177367691D01*
X190177275Y-177419685D01*
X190148250Y-177498171D01*
X190134919Y-177608348D01*
X190132000Y-177737818D01*
X189454667Y-177737818D01*
X189454667Y-176913380D01*
X189507987Y-176754542D01*
X189589930Y-176561760D01*
X189637904Y-176488933D01*
X195952833Y-176488933D01*
X195952833Y-176754009D01*
X195953272Y-176864875D01*
X195955553Y-176942127D01*
X195961118Y-176994482D01*
X195971413Y-177030658D01*
X195987881Y-177059371D01*
X196007505Y-177084058D01*
X196061180Y-177132383D01*
X196121203Y-177165800D01*
X196129213Y-177168440D01*
X196201664Y-177181151D01*
X196299742Y-177187864D01*
X196407161Y-177188532D01*
X196507635Y-177183110D01*
X196584879Y-177171550D01*
X196591764Y-177169762D01*
X196658852Y-177138051D01*
X196718891Y-177089445D01*
X196724056Y-177083590D01*
X196746657Y-177054551D01*
X196761923Y-177025204D01*
X196771289Y-176986837D01*
X196776190Y-176930744D01*
X196778058Y-176848216D01*
X196778333Y-176754009D01*
X196778333Y-176488933D01*
X196706367Y-176416966D01*
X196634400Y-176345000D01*
X196096767Y-176345000D01*
X196024800Y-176416966D01*
X195952833Y-176488933D01*
X189637904Y-176488933D01*
X189699525Y-176395391D01*
X189816663Y-176269540D01*
X189951708Y-176157481D01*
X190090452Y-176075407D01*
X190250251Y-176013235D01*
X190266521Y-176008191D01*
X190284274Y-176002880D01*
X190302379Y-175998013D01*
X190322668Y-175993570D01*
X190346974Y-175989532D01*
X190377129Y-175985879D01*
X190414965Y-175982592D01*
X190462315Y-175979652D01*
X190521010Y-175977040D01*
X190592883Y-175974736D01*
X190679766Y-175972720D01*
X190783491Y-175970974D01*
X190905891Y-175969479D01*
X191048797Y-175968214D01*
X191214043Y-175967160D01*
X191403459Y-175966298D01*
X191618879Y-175965610D01*
X191862135Y-175965074D01*
X192135059Y-175964673D01*
X192439482Y-175964387D01*
X192777238Y-175964196D01*
X193150159Y-175964081D01*
X193560076Y-175964023D01*
X194008823Y-175964002D01*
X194453789Y-175964000D01*
X198495952Y-175964000D01*
X198654790Y-176017320D01*
M02*
