%FSLAX45Y45*%
G04 Gerber Fmt 4.5, Leading zero omitted, Abs format (unit mm)*
G04 Created by KiCad (PCBNEW (5.1.9)-1) date 2021-05-17 18:01:53*
%MOMM*%
%LPD*%
G01*
G04 APERTURE LIST*
%TA.AperFunction,Profile*%
%ADD10C,0.100000*%
%TD*%
%ADD11C,0.200000*%
%ADD12C,0.300000*%
G04 APERTURE END LIST*
D10*
X35002500Y-9765000D02*
G75*
G02*
X35252500Y-10015000I0J-250000D01*
G01*
X35252500Y-15695000D02*
X35252500Y-10015000D01*
X35502500Y-15945000D02*
G75*
G02*
X35252500Y-15695000I0J250000D01*
G01*
X38280000Y-15945000D02*
X35502500Y-15945000D01*
X38280000Y-15945000D02*
G75*
G02*
X38530000Y-16195000I0J-250000D01*
G01*
X38431250Y-18120000D02*
X38431250Y-19420000D01*
X35126250Y-18120000D02*
G75*
G02*
X35176250Y-18070000I50000J0D01*
G01*
X36526250Y-19420000D02*
G75*
G02*
X36476250Y-19470000I-50000J0D01*
G01*
X35176250Y-18070000D02*
X36476250Y-18070000D01*
X33221250Y-18120000D02*
G75*
G02*
X33271250Y-18070000I50000J0D01*
G01*
X34621250Y-19420000D02*
G75*
G02*
X34571250Y-19470000I-50000J0D01*
G01*
X38381250Y-18070000D02*
G75*
G02*
X38431250Y-18120000I0J-50000D01*
G01*
X37031250Y-18120000D02*
G75*
G02*
X37081250Y-18070000I50000J0D01*
G01*
X34621250Y-18120000D02*
X34621250Y-19420000D01*
X35176250Y-19470000D02*
X36476250Y-19470000D01*
X38431250Y-19420000D02*
G75*
G02*
X38381250Y-19470000I-50000J0D01*
G01*
X36476250Y-18070000D02*
G75*
G02*
X36526250Y-18120000I0J-50000D01*
G01*
X36526250Y-18120000D02*
X36526250Y-19420000D01*
X35126250Y-18120000D02*
X35126250Y-19420000D01*
X37081250Y-18070000D02*
X38381250Y-18070000D01*
X37081250Y-19470000D02*
G75*
G02*
X37031250Y-19420000I0J50000D01*
G01*
X37031250Y-18120000D02*
X37031250Y-19420000D01*
X35176250Y-19470000D02*
G75*
G02*
X35126250Y-19420000I0J50000D01*
G01*
X34571250Y-18070000D02*
G75*
G02*
X34621250Y-18120000I0J-50000D01*
G01*
X37081250Y-19470000D02*
X38381250Y-19470000D01*
X33271250Y-19470000D02*
G75*
G02*
X33221250Y-19420000I0J50000D01*
G01*
X10520625Y-18070000D02*
G75*
G02*
X10570625Y-18120000I0J-50000D01*
G01*
X11551875Y-18120000D02*
G75*
G02*
X11601875Y-18070000I50000J0D01*
G01*
X9170625Y-18120000D02*
G75*
G02*
X9220625Y-18070000I50000J0D01*
G01*
X6789375Y-18120000D02*
X6789375Y-19420000D01*
X6839375Y-19470000D02*
X8139375Y-19470000D01*
X6789375Y-18120000D02*
G75*
G02*
X6839375Y-18070000I50000J0D01*
G01*
X10570625Y-19420000D02*
G75*
G02*
X10520625Y-19470000I-50000J0D01*
G01*
X11601875Y-19470000D02*
X12901875Y-19470000D01*
X37031250Y-16215000D02*
G75*
G02*
X37081250Y-16165000I50000J0D01*
G01*
X11601875Y-18070000D02*
X12901875Y-18070000D01*
X8139375Y-18070000D02*
G75*
G02*
X8189375Y-18120000I0J-50000D01*
G01*
X37081250Y-17565000D02*
G75*
G02*
X37031250Y-17515000I0J50000D01*
G01*
X12951875Y-18120000D02*
X12951875Y-19420000D01*
X11551875Y-18120000D02*
X11551875Y-19420000D01*
X9220625Y-19470000D02*
X10520625Y-19470000D01*
X9220625Y-19470000D02*
G75*
G02*
X9170625Y-19420000I0J50000D01*
G01*
X10570625Y-18120000D02*
X10570625Y-19420000D01*
X9220625Y-18070000D02*
X10520625Y-18070000D01*
X8189375Y-19420000D02*
G75*
G02*
X8139375Y-19470000I-50000J0D01*
G01*
X6839375Y-19470000D02*
G75*
G02*
X6789375Y-19420000I0J50000D01*
G01*
X6839375Y-18070000D02*
X8139375Y-18070000D01*
X8189375Y-18120000D02*
X8189375Y-19420000D01*
X38431250Y-16215000D02*
X38431250Y-17515000D01*
X11601875Y-19470000D02*
G75*
G02*
X11551875Y-19420000I0J50000D01*
G01*
X9170625Y-18120000D02*
X9170625Y-19420000D01*
X12901875Y-18070000D02*
G75*
G02*
X12951875Y-18120000I0J-50000D01*
G01*
X38431250Y-17515000D02*
G75*
G02*
X38381250Y-17565000I-50000J0D01*
G01*
X38381250Y-16165000D02*
G75*
G02*
X38431250Y-16215000I0J-50000D01*
G01*
X26077500Y-16215000D02*
G75*
G02*
X26127500Y-16165000I50000J0D01*
G01*
X29332500Y-16165000D02*
G75*
G02*
X29382500Y-16215000I0J-50000D01*
G01*
X27477500Y-16215000D02*
X27477500Y-17515000D01*
X33271250Y-17565000D02*
G75*
G02*
X33221250Y-17515000I0J50000D01*
G01*
X34571250Y-16165000D02*
G75*
G02*
X34621250Y-16215000I0J-50000D01*
G01*
X30601875Y-16215000D02*
G75*
G02*
X30651875Y-16165000I50000J0D01*
G01*
X28032500Y-17565000D02*
X29332500Y-17565000D01*
X28032500Y-16165000D02*
X29332500Y-16165000D01*
X34621250Y-16215000D02*
X34621250Y-17515000D01*
X21762500Y-16215000D02*
X21762500Y-17515000D01*
X33271250Y-17565000D02*
X34571250Y-17565000D01*
X23667500Y-16215000D02*
X23667500Y-17515000D01*
X32001875Y-16215000D02*
X32001875Y-17515000D01*
X27982500Y-16215000D02*
X27982500Y-17515000D01*
X27427500Y-16165000D02*
G75*
G02*
X27477500Y-16215000I0J-50000D01*
G01*
X21712500Y-16165000D02*
G75*
G02*
X21762500Y-16215000I0J-50000D01*
G01*
X29382500Y-17515000D02*
G75*
G02*
X29332500Y-17565000I-50000J0D01*
G01*
X24172500Y-16215000D02*
G75*
G02*
X24222500Y-16165000I50000J0D01*
G01*
X20362500Y-16215000D02*
G75*
G02*
X20412500Y-16165000I50000J0D01*
G01*
X25572500Y-16215000D02*
X25572500Y-17515000D01*
X22317500Y-17565000D02*
G75*
G02*
X22267500Y-17515000I0J50000D01*
G01*
X35176250Y-17565000D02*
X36476250Y-17565000D01*
X26127500Y-16165000D02*
X27427500Y-16165000D01*
X21762500Y-17515000D02*
G75*
G02*
X21712500Y-17565000I-50000J0D01*
G01*
X36526250Y-16215000D02*
X36526250Y-17515000D01*
X30601875Y-16215000D02*
X30601875Y-17515000D01*
X35126250Y-16215000D02*
X35126250Y-17515000D01*
X25522500Y-16165000D02*
G75*
G02*
X25572500Y-16215000I0J-50000D01*
G01*
X29382500Y-16215000D02*
X29382500Y-17515000D01*
X27477500Y-17515000D02*
G75*
G02*
X27427500Y-17565000I-50000J0D01*
G01*
X26077500Y-16215000D02*
X26077500Y-17515000D01*
X25572500Y-17515000D02*
G75*
G02*
X25522500Y-17565000I-50000J0D01*
G01*
X24172500Y-16215000D02*
X24172500Y-17515000D01*
X26127500Y-17565000D02*
X27427500Y-17565000D01*
X32001875Y-17515000D02*
G75*
G02*
X31951875Y-17565000I-50000J0D01*
G01*
X20412500Y-17565000D02*
G75*
G02*
X20362500Y-17515000I0J50000D01*
G01*
X24222500Y-17565000D02*
G75*
G02*
X24172500Y-17515000I0J50000D01*
G01*
X37031250Y-16215000D02*
X37031250Y-17515000D01*
X37081250Y-17565000D02*
X38381250Y-17565000D01*
X37081250Y-16165000D02*
X38381250Y-16165000D01*
X36526250Y-17515000D02*
G75*
G02*
X36476250Y-17565000I-50000J0D01*
G01*
X35176250Y-17565000D02*
G75*
G02*
X35126250Y-17515000I0J50000D01*
G01*
X30651875Y-17565000D02*
G75*
G02*
X30601875Y-17515000I0J50000D01*
G01*
X33221250Y-16215000D02*
X33221250Y-17515000D01*
X27982500Y-16215000D02*
G75*
G02*
X28032500Y-16165000I50000J0D01*
G01*
X36476250Y-16165000D02*
G75*
G02*
X36526250Y-16215000I0J-50000D01*
G01*
X24222500Y-17565000D02*
X25522500Y-17565000D01*
X26127500Y-17565000D02*
G75*
G02*
X26077500Y-17515000I0J50000D01*
G01*
X22267500Y-16215000D02*
X22267500Y-17515000D01*
X35126250Y-16215000D02*
G75*
G02*
X35176250Y-16165000I50000J0D01*
G01*
X24222500Y-16165000D02*
X25522500Y-16165000D01*
X28032500Y-17565000D02*
G75*
G02*
X27982500Y-17515000I0J50000D01*
G01*
X22317500Y-16165000D02*
X23617500Y-16165000D01*
X35176250Y-16165000D02*
X36476250Y-16165000D01*
X33271250Y-16165000D02*
X34571250Y-16165000D01*
X31951875Y-16165000D02*
G75*
G02*
X32001875Y-16215000I0J-50000D01*
G01*
X22267500Y-16215000D02*
G75*
G02*
X22317500Y-16165000I50000J0D01*
G01*
X30651875Y-16165000D02*
X31951875Y-16165000D01*
X22317500Y-17565000D02*
X23617500Y-17565000D01*
X23667500Y-17515000D02*
G75*
G02*
X23617500Y-17565000I-50000J0D01*
G01*
X34621250Y-17515000D02*
G75*
G02*
X34571250Y-17565000I-50000J0D01*
G01*
X33221250Y-16215000D02*
G75*
G02*
X33271250Y-16165000I50000J0D01*
G01*
X30651875Y-17565000D02*
X31951875Y-17565000D01*
X23617500Y-16165000D02*
G75*
G02*
X23667500Y-16215000I0J-50000D01*
G01*
X10808750Y-12405000D02*
X10808750Y-13705000D01*
X9408750Y-12405000D02*
X9408750Y-13705000D01*
X7027500Y-12405000D02*
X7027500Y-13705000D01*
X7077500Y-12355000D02*
X8377500Y-12355000D01*
X8427500Y-13705000D02*
G75*
G02*
X8377500Y-13755000I-50000J0D01*
G01*
X7077500Y-13755000D02*
G75*
G02*
X7027500Y-13705000I0J50000D01*
G01*
X8377500Y-12355000D02*
G75*
G02*
X8427500Y-12405000I0J-50000D01*
G01*
X7027500Y-12405000D02*
G75*
G02*
X7077500Y-12355000I50000J0D01*
G01*
X32124950Y-12000000D02*
G75*
G02*
X32074950Y-12050000I-50000J0D01*
G01*
X31474950Y-12050000D02*
X32074950Y-12050000D01*
X31474950Y-10550000D02*
X32074950Y-10550000D01*
X31424950Y-10600000D02*
G75*
G02*
X31474950Y-10550000I50000J0D01*
G01*
X9458750Y-12355000D02*
X10758750Y-12355000D01*
X8427500Y-12405000D02*
X8427500Y-13705000D01*
X31424950Y-10600000D02*
X31424950Y-12000000D01*
X32124950Y-10600000D02*
X32124950Y-12000000D01*
X9458750Y-13755000D02*
G75*
G02*
X9408750Y-13705000I0J50000D01*
G01*
X32074950Y-10550000D02*
G75*
G02*
X32124950Y-10600000I0J-50000D01*
G01*
X7077500Y-13755000D02*
X8377500Y-13755000D01*
X9458750Y-13755000D02*
X10758750Y-13755000D01*
X10758750Y-12355000D02*
G75*
G02*
X10808750Y-12405000I0J-50000D01*
G01*
X31474950Y-12050000D02*
G75*
G02*
X31424950Y-12000000I0J50000D01*
G01*
X9408750Y-12405000D02*
G75*
G02*
X9458750Y-12355000I50000J0D01*
G01*
X12266250Y-10500000D02*
X12266250Y-11800000D01*
X11761250Y-11800000D02*
G75*
G02*
X11711250Y-11850000I-50000J0D01*
G01*
X10411250Y-10450000D02*
X11711250Y-10450000D01*
X6601250Y-11850000D02*
G75*
G02*
X6551250Y-11800000I0J50000D01*
G01*
X11761250Y-10500000D02*
X11761250Y-11800000D01*
X13666250Y-10500000D02*
X13666250Y-11800000D01*
X10411250Y-11850000D02*
G75*
G02*
X10361250Y-11800000I0J50000D01*
G01*
X8456250Y-10500000D02*
X8456250Y-11800000D01*
X11711250Y-10450000D02*
G75*
G02*
X11761250Y-10500000I0J-50000D01*
G01*
X8456250Y-10500000D02*
G75*
G02*
X8506250Y-10450000I50000J0D01*
G01*
X8506250Y-11850000D02*
X9806250Y-11850000D01*
X7901250Y-10450000D02*
G75*
G02*
X7951250Y-10500000I0J-50000D01*
G01*
X7951250Y-11800000D02*
G75*
G02*
X7901250Y-11850000I-50000J0D01*
G01*
X12316250Y-11850000D02*
X13616250Y-11850000D01*
X12316250Y-10450000D02*
X13616250Y-10450000D01*
X9856250Y-11800000D02*
G75*
G02*
X9806250Y-11850000I-50000J0D01*
G01*
X10361250Y-10500000D02*
G75*
G02*
X10411250Y-10450000I50000J0D01*
G01*
X10411250Y-11850000D02*
X11711250Y-11850000D01*
X8506250Y-11850000D02*
G75*
G02*
X8456250Y-11800000I0J50000D01*
G01*
X8506250Y-10450000D02*
X9806250Y-10450000D01*
X10361250Y-10500000D02*
X10361250Y-11800000D01*
X9806250Y-10450000D02*
G75*
G02*
X9856250Y-10500000I0J-50000D01*
G01*
X9856250Y-10500000D02*
X9856250Y-11800000D01*
X16479425Y-19570000D02*
G75*
G02*
X16429425Y-19520000I0J50000D01*
G01*
X16429425Y-18120000D02*
G75*
G02*
X16479425Y-18070000I50000J0D01*
G01*
X16235625Y-18070000D02*
G75*
G02*
X16285625Y-18120000I0J-50000D01*
G01*
X16479425Y-18070000D02*
X17079425Y-18070000D01*
X14935625Y-19470000D02*
X16235625Y-19470000D01*
X14935625Y-18070000D02*
X16235625Y-18070000D01*
X17079425Y-18070000D02*
G75*
G02*
X17129425Y-18120000I0J-50000D01*
G01*
X14086825Y-18070000D02*
X14686825Y-18070000D01*
X14885625Y-18120000D02*
X14885625Y-19420000D01*
X17129425Y-19520000D02*
G75*
G02*
X17079425Y-19570000I-50000J0D01*
G01*
X14935625Y-19470000D02*
G75*
G02*
X14885625Y-19420000I0J50000D01*
G01*
X14885625Y-18120000D02*
G75*
G02*
X14935625Y-18070000I50000J0D01*
G01*
X16285625Y-18120000D02*
X16285625Y-19420000D01*
X16479425Y-19570000D02*
X17079425Y-19570000D01*
X18695625Y-18120000D02*
X18695625Y-19420000D01*
X18745625Y-18070000D02*
X20045625Y-18070000D01*
X18745625Y-19470000D02*
X20045625Y-19470000D01*
X14736825Y-19520000D02*
G75*
G02*
X14686825Y-19570000I-50000J0D01*
G01*
X14736825Y-18120000D02*
X14736825Y-19520000D01*
X14086825Y-19570000D02*
X14686825Y-19570000D01*
X17129425Y-18120000D02*
X17129425Y-19520000D01*
X14686825Y-18070000D02*
G75*
G02*
X14736825Y-18120000I0J-50000D01*
G01*
X16285625Y-19420000D02*
G75*
G02*
X16235625Y-19470000I-50000J0D01*
G01*
X14036825Y-18120000D02*
X14036825Y-19520000D01*
X14086825Y-19570000D02*
G75*
G02*
X14036825Y-19520000I0J50000D01*
G01*
X14036825Y-18120000D02*
G75*
G02*
X14086825Y-18070000I50000J0D01*
G01*
X16429425Y-18120000D02*
X16429425Y-19520000D01*
X12951875Y-19420000D02*
G75*
G02*
X12901875Y-19470000I-50000J0D01*
G01*
X32716250Y-18120000D02*
X32716250Y-19420000D01*
X31366250Y-18070000D02*
X32666250Y-18070000D01*
X24744425Y-19520000D02*
G75*
G02*
X24694425Y-19570000I-50000J0D01*
G01*
X22505625Y-18120000D02*
G75*
G02*
X22555625Y-18070000I50000J0D01*
G01*
X22356825Y-19520000D02*
G75*
G02*
X22306825Y-19570000I-50000J0D01*
G01*
X29411250Y-18120000D02*
G75*
G02*
X29461250Y-18070000I50000J0D01*
G01*
X21656825Y-18120000D02*
X21656825Y-19520000D01*
X24744425Y-18120000D02*
X24744425Y-19520000D01*
X30811250Y-18120000D02*
X30811250Y-19420000D01*
X27556250Y-18070000D02*
X28856250Y-18070000D01*
X29461250Y-19470000D02*
X30761250Y-19470000D01*
X29461250Y-18070000D02*
X30761250Y-18070000D01*
X28856250Y-18070000D02*
G75*
G02*
X28906250Y-18120000I0J-50000D01*
G01*
X28906250Y-18120000D02*
X28906250Y-19420000D01*
X26951250Y-18070000D02*
G75*
G02*
X27001250Y-18120000I0J-50000D01*
G01*
X25601250Y-18120000D02*
G75*
G02*
X25651250Y-18070000I50000J0D01*
G01*
X27001250Y-18120000D02*
X27001250Y-19420000D01*
X25651250Y-19470000D02*
X26951250Y-19470000D01*
X24094425Y-18070000D02*
X24694425Y-18070000D01*
X20045625Y-18070000D02*
G75*
G02*
X20095625Y-18120000I0J-50000D01*
G01*
X18695625Y-18120000D02*
G75*
G02*
X18745625Y-18070000I50000J0D01*
G01*
X25651250Y-18070000D02*
X26951250Y-18070000D01*
X22306825Y-18070000D02*
G75*
G02*
X22356825Y-18120000I0J-50000D01*
G01*
X21656825Y-18120000D02*
G75*
G02*
X21706825Y-18070000I50000J0D01*
G01*
X21706825Y-18070000D02*
X22306825Y-18070000D01*
X22356825Y-18120000D02*
X22356825Y-19520000D01*
X21706825Y-19570000D02*
X22306825Y-19570000D01*
X18745625Y-19470000D02*
G75*
G02*
X18695625Y-19420000I0J50000D01*
G01*
X24044425Y-18120000D02*
G75*
G02*
X24094425Y-18070000I50000J0D01*
G01*
X24094425Y-19570000D02*
G75*
G02*
X24044425Y-19520000I0J50000D01*
G01*
X25601250Y-18120000D02*
X25601250Y-19420000D01*
X22555625Y-18070000D02*
X23855625Y-18070000D01*
X20095625Y-18120000D02*
X20095625Y-19420000D01*
X21706825Y-19570000D02*
G75*
G02*
X21656825Y-19520000I0J50000D01*
G01*
X24094425Y-19570000D02*
X24694425Y-19570000D01*
X27001250Y-19420000D02*
G75*
G02*
X26951250Y-19470000I-50000J0D01*
G01*
X20095625Y-19420000D02*
G75*
G02*
X20045625Y-19470000I-50000J0D01*
G01*
X33221250Y-18120000D02*
X33221250Y-19420000D01*
X33271250Y-19470000D02*
X34571250Y-19470000D01*
X22505625Y-18120000D02*
X22505625Y-19420000D01*
X33271250Y-18070000D02*
X34571250Y-18070000D01*
X32716250Y-19420000D02*
G75*
G02*
X32666250Y-19470000I-50000J0D01*
G01*
X31366250Y-19470000D02*
G75*
G02*
X31316250Y-19420000I0J50000D01*
G01*
X24044425Y-18120000D02*
X24044425Y-19520000D01*
X32666250Y-18070000D02*
G75*
G02*
X32716250Y-18120000I0J-50000D01*
G01*
X31316250Y-18120000D02*
X31316250Y-19420000D01*
X30811250Y-19420000D02*
G75*
G02*
X30761250Y-19470000I-50000J0D01*
G01*
X23905625Y-18120000D02*
X23905625Y-19420000D01*
X29461250Y-19470000D02*
G75*
G02*
X29411250Y-19420000I0J50000D01*
G01*
X30761250Y-18070000D02*
G75*
G02*
X30811250Y-18120000I0J-50000D01*
G01*
X28906250Y-19420000D02*
G75*
G02*
X28856250Y-19470000I-50000J0D01*
G01*
X27506250Y-18120000D02*
X27506250Y-19420000D01*
X24694425Y-18070000D02*
G75*
G02*
X24744425Y-18120000I0J-50000D01*
G01*
X29411250Y-18120000D02*
X29411250Y-19420000D01*
X25651250Y-19470000D02*
G75*
G02*
X25601250Y-19420000I0J50000D01*
G01*
X23855625Y-18070000D02*
G75*
G02*
X23905625Y-18120000I0J-50000D01*
G01*
X22555625Y-19470000D02*
X23855625Y-19470000D01*
X31366250Y-19470000D02*
X32666250Y-19470000D01*
X22555625Y-19470000D02*
G75*
G02*
X22505625Y-19420000I0J50000D01*
G01*
X27556250Y-19470000D02*
X28856250Y-19470000D01*
X23905625Y-19420000D02*
G75*
G02*
X23855625Y-19470000I-50000J0D01*
G01*
X31316250Y-18120000D02*
G75*
G02*
X31366250Y-18070000I50000J0D01*
G01*
X27556250Y-19470000D02*
G75*
G02*
X27506250Y-19420000I0J50000D01*
G01*
X27506250Y-18120000D02*
G75*
G02*
X27556250Y-18070000I50000J0D01*
G01*
X20888750Y-12355000D02*
X22188750Y-12355000D01*
X20333750Y-13705000D02*
G75*
G02*
X20283750Y-13755000I-50000J0D01*
G01*
X15123750Y-12405000D02*
G75*
G02*
X15173750Y-12355000I50000J0D01*
G01*
X11363750Y-13755000D02*
G75*
G02*
X11313750Y-13705000I0J50000D01*
G01*
X18933750Y-12405000D02*
X18933750Y-13705000D01*
X18428750Y-12405000D02*
X18428750Y-13705000D01*
X18983750Y-13755000D02*
G75*
G02*
X18933750Y-13705000I0J50000D01*
G01*
X20283750Y-12355000D02*
G75*
G02*
X20333750Y-12405000I0J-50000D01*
G01*
X11313750Y-12405000D02*
G75*
G02*
X11363750Y-12355000I50000J0D01*
G01*
X18933750Y-12405000D02*
G75*
G02*
X18983750Y-12355000I50000J0D01*
G01*
X13268750Y-12355000D02*
X14568750Y-12355000D01*
X20333750Y-12405000D02*
X20333750Y-13705000D01*
X18983750Y-13755000D02*
X20283750Y-13755000D01*
X17078750Y-12355000D02*
X18378750Y-12355000D01*
X14568750Y-12355000D02*
G75*
G02*
X14618750Y-12405000I0J-50000D01*
G01*
X13218750Y-12405000D02*
G75*
G02*
X13268750Y-12355000I50000J0D01*
G01*
X11363750Y-12355000D02*
X12663750Y-12355000D01*
X18983750Y-12355000D02*
X20283750Y-12355000D01*
X17078750Y-13755000D02*
G75*
G02*
X17028750Y-13705000I0J50000D01*
G01*
X17028750Y-12405000D02*
G75*
G02*
X17078750Y-12355000I50000J0D01*
G01*
X13268750Y-13755000D02*
G75*
G02*
X13218750Y-13705000I0J50000D01*
G01*
X12713750Y-13705000D02*
G75*
G02*
X12663750Y-13755000I-50000J0D01*
G01*
X15173750Y-12355000D02*
X16473750Y-12355000D01*
X14618750Y-12405000D02*
X14618750Y-13705000D01*
X17078750Y-13755000D02*
X18378750Y-13755000D01*
X10808750Y-13705000D02*
G75*
G02*
X10758750Y-13755000I-50000J0D01*
G01*
X14618750Y-13705000D02*
G75*
G02*
X14568750Y-13755000I-50000J0D01*
G01*
X20838750Y-12405000D02*
G75*
G02*
X20888750Y-12355000I50000J0D01*
G01*
X15123750Y-12405000D02*
X15123750Y-13705000D01*
X22238750Y-12405000D02*
X22238750Y-13705000D01*
X18428750Y-13705000D02*
G75*
G02*
X18378750Y-13755000I-50000J0D01*
G01*
X17028750Y-12405000D02*
X17028750Y-13705000D01*
X16523750Y-12405000D02*
X16523750Y-13705000D01*
X13218750Y-12405000D02*
X13218750Y-13705000D01*
X12713750Y-12405000D02*
X12713750Y-13705000D01*
X18378750Y-12355000D02*
G75*
G02*
X18428750Y-12405000I0J-50000D01*
G01*
X16473750Y-12355000D02*
G75*
G02*
X16523750Y-12405000I0J-50000D01*
G01*
X11363750Y-13755000D02*
X12663750Y-13755000D01*
X13268750Y-13755000D02*
X14568750Y-13755000D01*
X15173750Y-13755000D02*
X16473750Y-13755000D01*
X12663750Y-12355000D02*
G75*
G02*
X12713750Y-12405000I0J-50000D01*
G01*
X15173750Y-13755000D02*
G75*
G02*
X15123750Y-13705000I0J50000D01*
G01*
X11313750Y-12405000D02*
X11313750Y-13705000D01*
X16523750Y-13705000D02*
G75*
G02*
X16473750Y-13755000I-50000J0D01*
G01*
X20838750Y-12405000D02*
X20838750Y-13705000D01*
X20888750Y-13755000D02*
X22188750Y-13755000D01*
X7951250Y-10500000D02*
X7951250Y-11800000D01*
X6601250Y-10450000D02*
X7901250Y-10450000D01*
X6551250Y-10500000D02*
G75*
G02*
X6601250Y-10450000I50000J0D01*
G01*
X6551250Y-10500000D02*
X6551250Y-11800000D01*
X6601250Y-11850000D02*
X7901250Y-11850000D01*
X34338125Y-15551300D02*
X32938125Y-15551300D01*
X9935000Y-15660000D02*
G75*
G02*
X9885000Y-15610000I0J50000D01*
G01*
X7265625Y-14310000D02*
X7265625Y-15610000D01*
X8665625Y-14310000D02*
X8665625Y-15610000D01*
X34333125Y-13307500D02*
G75*
G02*
X34383125Y-13357500I0J-50000D01*
G01*
X34333125Y-14707500D02*
X33033125Y-14707500D01*
X32888125Y-12513700D02*
G75*
G02*
X32938125Y-12463700I50000J0D01*
G01*
X13745000Y-14260000D02*
X15045000Y-14260000D01*
X13190000Y-15610000D02*
G75*
G02*
X13140000Y-15660000I-50000J0D01*
G01*
X11840000Y-15660000D02*
X13140000Y-15660000D01*
X32888125Y-12513700D02*
X32888125Y-13113700D01*
X9885000Y-14310000D02*
G75*
G02*
X9935000Y-14260000I50000J0D01*
G01*
X11840000Y-14260000D02*
X13140000Y-14260000D01*
X8615625Y-14260000D02*
G75*
G02*
X8665625Y-14310000I0J-50000D01*
G01*
X7265625Y-14310000D02*
G75*
G02*
X7315625Y-14260000I50000J0D01*
G01*
X34388125Y-13113700D02*
G75*
G02*
X34338125Y-13163700I-50000J0D01*
G01*
X32888125Y-14901300D02*
G75*
G02*
X32938125Y-14851300I50000J0D01*
G01*
X34388125Y-14901300D02*
X34388125Y-15501300D01*
X34388125Y-15501300D02*
G75*
G02*
X34338125Y-15551300I-50000J0D01*
G01*
X34338125Y-14851300D02*
G75*
G02*
X34388125Y-14901300I0J-50000D01*
G01*
X34383125Y-14657500D02*
G75*
G02*
X34333125Y-14707500I-50000J0D01*
G01*
X11285000Y-14310000D02*
X11285000Y-15610000D01*
X9885000Y-14310000D02*
X9885000Y-15610000D01*
X32983125Y-13357500D02*
G75*
G02*
X33033125Y-13307500I50000J0D01*
G01*
X8665625Y-15610000D02*
G75*
G02*
X8615625Y-15660000I-50000J0D01*
G01*
X33033125Y-14707500D02*
G75*
G02*
X32983125Y-14657500I0J50000D01*
G01*
X7315625Y-15660000D02*
G75*
G02*
X7265625Y-15610000I0J50000D01*
G01*
X11840000Y-15660000D02*
G75*
G02*
X11790000Y-15610000I0J50000D01*
G01*
X13140000Y-14260000D02*
G75*
G02*
X13190000Y-14310000I0J-50000D01*
G01*
X11285000Y-15610000D02*
G75*
G02*
X11235000Y-15660000I-50000J0D01*
G01*
X32938125Y-15551300D02*
G75*
G02*
X32888125Y-15501300I0J50000D01*
G01*
X13190000Y-14310000D02*
X13190000Y-15610000D01*
X11790000Y-14310000D02*
G75*
G02*
X11840000Y-14260000I50000J0D01*
G01*
X9935000Y-14260000D02*
X11235000Y-14260000D01*
X7315625Y-15660000D02*
X8615625Y-15660000D01*
X7315625Y-14260000D02*
X8615625Y-14260000D01*
X34338125Y-12463700D02*
X32938125Y-12463700D01*
X32888125Y-14901300D02*
X32888125Y-15501300D01*
X11790000Y-14310000D02*
X11790000Y-15610000D01*
X34388125Y-12513700D02*
X34388125Y-13113700D01*
X11235000Y-14260000D02*
G75*
G02*
X11285000Y-14310000I0J-50000D01*
G01*
X34338125Y-12463700D02*
G75*
G02*
X34388125Y-12513700I0J-50000D01*
G01*
X9935000Y-15660000D02*
X11235000Y-15660000D01*
X32938125Y-13163700D02*
G75*
G02*
X32888125Y-13113700I0J50000D01*
G01*
X34338125Y-13163700D02*
X32938125Y-13163700D01*
X34338125Y-14851300D02*
X32938125Y-14851300D01*
X30811250Y-10500000D02*
X30811250Y-11800000D01*
X32268750Y-10500000D02*
X32268750Y-11800000D01*
X32268750Y-10500000D02*
G75*
G02*
X32318750Y-10450000I50000J0D01*
G01*
X33668750Y-11800000D02*
G75*
G02*
X33618750Y-11850000I-50000J0D01*
G01*
X32318750Y-11850000D02*
G75*
G02*
X32268750Y-11800000I0J50000D01*
G01*
X30811250Y-11800000D02*
G75*
G02*
X30761250Y-11850000I-50000J0D01*
G01*
X29411250Y-10500000D02*
G75*
G02*
X29461250Y-10450000I50000J0D01*
G01*
X29411250Y-10500000D02*
X29411250Y-11800000D01*
X29461250Y-11850000D02*
X30761250Y-11850000D01*
X34512550Y-12000000D02*
G75*
G02*
X34462550Y-12050000I-50000J0D01*
G01*
X32318750Y-10450000D02*
X33618750Y-10450000D01*
X33862550Y-10550000D02*
X34462550Y-10550000D01*
X33862550Y-12050000D02*
G75*
G02*
X33812550Y-12000000I0J50000D01*
G01*
X34462550Y-10550000D02*
G75*
G02*
X34512550Y-10600000I0J-50000D01*
G01*
X33812550Y-10600000D02*
G75*
G02*
X33862550Y-10550000I50000J0D01*
G01*
X33668750Y-10500000D02*
X33668750Y-11800000D01*
X29461250Y-11850000D02*
G75*
G02*
X29411250Y-11800000I0J50000D01*
G01*
X33618750Y-10450000D02*
G75*
G02*
X33668750Y-10500000I0J-50000D01*
G01*
X34512550Y-10600000D02*
X34512550Y-12000000D01*
X32318750Y-11850000D02*
X33618750Y-11850000D01*
X30761250Y-10450000D02*
G75*
G02*
X30811250Y-10500000I0J-50000D01*
G01*
X33812550Y-10600000D02*
X33812550Y-12000000D01*
X33862550Y-12050000D02*
X34462550Y-12050000D01*
X28906250Y-11800000D02*
G75*
G02*
X28856250Y-11850000I-50000J0D01*
G01*
X28856250Y-10450000D02*
G75*
G02*
X28906250Y-10500000I0J-50000D01*
G01*
X27506250Y-10500000D02*
X27506250Y-11800000D01*
X25651250Y-11850000D02*
G75*
G02*
X25601250Y-11800000I0J50000D01*
G01*
X26951250Y-10450000D02*
G75*
G02*
X27001250Y-10500000I0J-50000D01*
G01*
X23746250Y-11850000D02*
G75*
G02*
X23696250Y-11800000I0J50000D01*
G01*
X23696250Y-10500000D02*
X23696250Y-11800000D01*
X27556250Y-11850000D02*
G75*
G02*
X27506250Y-11800000I0J50000D01*
G01*
X27506250Y-10500000D02*
G75*
G02*
X27556250Y-10450000I50000J0D01*
G01*
X28906250Y-10500000D02*
X28906250Y-11800000D01*
X25096250Y-11800000D02*
G75*
G02*
X25046250Y-11850000I-50000J0D01*
G01*
X25096250Y-10500000D02*
X25096250Y-11800000D01*
X27556250Y-11850000D02*
X28856250Y-11850000D01*
X25651250Y-11850000D02*
X26951250Y-11850000D01*
X27556250Y-10450000D02*
X28856250Y-10450000D01*
X25601250Y-10500000D02*
G75*
G02*
X25651250Y-10450000I50000J0D01*
G01*
X27001250Y-10500000D02*
X27001250Y-11800000D01*
X25046250Y-10450000D02*
G75*
G02*
X25096250Y-10500000I0J-50000D01*
G01*
X23696250Y-10500000D02*
G75*
G02*
X23746250Y-10450000I50000J0D01*
G01*
X25651250Y-10450000D02*
X26951250Y-10450000D01*
X25601250Y-10500000D02*
X25601250Y-11800000D01*
X27001250Y-11800000D02*
G75*
G02*
X26951250Y-11850000I-50000J0D01*
G01*
X29461250Y-10450000D02*
X30761250Y-10450000D01*
X19331250Y-10450000D02*
G75*
G02*
X19381250Y-10500000I0J-50000D01*
G01*
X19886250Y-10500000D02*
X19886250Y-11800000D01*
X21841250Y-11850000D02*
G75*
G02*
X21791250Y-11800000I0J50000D01*
G01*
X23746250Y-11850000D02*
X25046250Y-11850000D01*
X19381250Y-11800000D02*
G75*
G02*
X19331250Y-11850000I-50000J0D01*
G01*
X21841250Y-10450000D02*
X23141250Y-10450000D01*
X23746250Y-10450000D02*
X25046250Y-10450000D01*
X23191250Y-11800000D02*
G75*
G02*
X23141250Y-11850000I-50000J0D01*
G01*
X21791250Y-10500000D02*
G75*
G02*
X21841250Y-10450000I50000J0D01*
G01*
X19936250Y-11850000D02*
X21236250Y-11850000D01*
X21286250Y-11800000D02*
G75*
G02*
X21236250Y-11850000I-50000J0D01*
G01*
X17981250Y-10500000D02*
G75*
G02*
X18031250Y-10450000I50000J0D01*
G01*
X19381250Y-10500000D02*
X19381250Y-11800000D01*
X23141250Y-10450000D02*
G75*
G02*
X23191250Y-10500000I0J-50000D01*
G01*
X23191250Y-10500000D02*
X23191250Y-11800000D01*
X21791250Y-10500000D02*
X21791250Y-11800000D01*
X19936250Y-10450000D02*
X21236250Y-10450000D01*
X21841250Y-11850000D02*
X23141250Y-11850000D01*
X19936250Y-11850000D02*
G75*
G02*
X19886250Y-11800000I0J50000D01*
G01*
X21236250Y-10450000D02*
G75*
G02*
X21286250Y-10500000I0J-50000D01*
G01*
X19886250Y-10500000D02*
G75*
G02*
X19936250Y-10450000I50000J0D01*
G01*
X21286250Y-10500000D02*
X21286250Y-11800000D01*
X18031250Y-11850000D02*
G75*
G02*
X17981250Y-11800000I0J50000D01*
G01*
X14221250Y-11850000D02*
X15521250Y-11850000D01*
X17981250Y-10500000D02*
X17981250Y-11800000D01*
X17426250Y-10450000D02*
G75*
G02*
X17476250Y-10500000I0J-50000D01*
G01*
X16076250Y-10500000D02*
G75*
G02*
X16126250Y-10450000I50000J0D01*
G01*
X14171250Y-10500000D02*
G75*
G02*
X14221250Y-10450000I50000J0D01*
G01*
X13666250Y-11800000D02*
G75*
G02*
X13616250Y-11850000I-50000J0D01*
G01*
X18031250Y-11850000D02*
X19331250Y-11850000D01*
X18031250Y-10450000D02*
X19331250Y-10450000D01*
X16126250Y-11850000D02*
G75*
G02*
X16076250Y-11800000I0J50000D01*
G01*
X12266250Y-10500000D02*
G75*
G02*
X12316250Y-10450000I50000J0D01*
G01*
X15571250Y-10500000D02*
X15571250Y-11800000D01*
X17476250Y-11800000D02*
G75*
G02*
X17426250Y-11850000I-50000J0D01*
G01*
X17476250Y-10500000D02*
X17476250Y-11800000D01*
X16076250Y-10500000D02*
X16076250Y-11800000D01*
X15571250Y-11800000D02*
G75*
G02*
X15521250Y-11850000I-50000J0D01*
G01*
X13616250Y-10450000D02*
G75*
G02*
X13666250Y-10500000I0J-50000D01*
G01*
X14221250Y-11850000D02*
G75*
G02*
X14171250Y-11800000I0J50000D01*
G01*
X16126250Y-11850000D02*
X17426250Y-11850000D01*
X14221250Y-10450000D02*
X15521250Y-10450000D01*
X16126250Y-10450000D02*
X17426250Y-10450000D01*
X12316250Y-11850000D02*
G75*
G02*
X12266250Y-11800000I0J50000D01*
G01*
X14171250Y-10500000D02*
X14171250Y-11800000D01*
X15521250Y-10450000D02*
G75*
G02*
X15571250Y-10500000I0J-50000D01*
G01*
X20412500Y-17565000D02*
X21712500Y-17565000D01*
X18507500Y-17565000D02*
G75*
G02*
X18457500Y-17515000I0J50000D01*
G01*
X14647500Y-16215000D02*
G75*
G02*
X14697500Y-16165000I50000J0D01*
G01*
X18507500Y-17565000D02*
X19807500Y-17565000D01*
X17952500Y-17515000D02*
G75*
G02*
X17902500Y-17565000I-50000J0D01*
G01*
X16047500Y-16215000D02*
X16047500Y-17515000D01*
X19807500Y-16165000D02*
G75*
G02*
X19857500Y-16215000I0J-50000D01*
G01*
X18457500Y-16215000D02*
G75*
G02*
X18507500Y-16165000I50000J0D01*
G01*
X14697500Y-17565000D02*
G75*
G02*
X14647500Y-17515000I0J50000D01*
G01*
X19857500Y-16215000D02*
X19857500Y-17515000D01*
X16602500Y-17565000D02*
G75*
G02*
X16552500Y-17515000I0J50000D01*
G01*
X16602500Y-16165000D02*
X17902500Y-16165000D01*
X16047500Y-17515000D02*
G75*
G02*
X15997500Y-17565000I-50000J0D01*
G01*
X19857500Y-17515000D02*
G75*
G02*
X19807500Y-17565000I-50000J0D01*
G01*
X17952500Y-16215000D02*
X17952500Y-17515000D01*
X18457500Y-16215000D02*
X18457500Y-17515000D01*
X14697500Y-16165000D02*
X15997500Y-16165000D01*
X16602500Y-17565000D02*
X17902500Y-17565000D01*
X16552500Y-16215000D02*
G75*
G02*
X16602500Y-16165000I50000J0D01*
G01*
X16552500Y-16215000D02*
X16552500Y-17515000D01*
X14142500Y-17515000D02*
G75*
G02*
X14092500Y-17565000I-50000J0D01*
G01*
X18507500Y-16165000D02*
X19807500Y-16165000D01*
X14647500Y-16215000D02*
X14647500Y-17515000D01*
X15997500Y-16165000D02*
G75*
G02*
X16047500Y-16215000I0J-50000D01*
G01*
X20412500Y-16165000D02*
X21712500Y-16165000D01*
X17902500Y-16165000D02*
G75*
G02*
X17952500Y-16215000I0J-50000D01*
G01*
X14697500Y-17565000D02*
X15997500Y-17565000D01*
X20362500Y-16215000D02*
X20362500Y-17515000D01*
X12237500Y-16215000D02*
X12237500Y-17515000D01*
X26525000Y-14310000D02*
X26525000Y-15610000D01*
X30335000Y-14310000D02*
X30335000Y-15610000D01*
X26525000Y-15610000D02*
G75*
G02*
X26475000Y-15660000I-50000J0D01*
G01*
X10887500Y-16165000D02*
X12187500Y-16165000D01*
X25175000Y-14260000D02*
X26475000Y-14260000D01*
X10332500Y-16215000D02*
X10332500Y-17515000D01*
X8982500Y-16165000D02*
X10282500Y-16165000D01*
X6789375Y-16215000D02*
G75*
G02*
X6839375Y-16165000I50000J0D01*
G01*
X28985000Y-15660000D02*
X30285000Y-15660000D01*
X27030000Y-14310000D02*
G75*
G02*
X27080000Y-14260000I50000J0D01*
G01*
X28985000Y-15660000D02*
G75*
G02*
X28935000Y-15610000I0J50000D01*
G01*
X30840000Y-14310000D02*
G75*
G02*
X30890000Y-14260000I50000J0D01*
G01*
X28935000Y-14310000D02*
X28935000Y-15610000D01*
X8189375Y-16215000D02*
X8189375Y-17515000D01*
X30890000Y-14260000D02*
X32190000Y-14260000D01*
X30285000Y-14260000D02*
G75*
G02*
X30335000Y-14310000I0J-50000D01*
G01*
X27080000Y-14260000D02*
X28380000Y-14260000D01*
X24620000Y-15610000D02*
G75*
G02*
X24570000Y-15660000I-50000J0D01*
G01*
X28935000Y-14310000D02*
G75*
G02*
X28985000Y-14260000I50000J0D01*
G01*
X28430000Y-15610000D02*
G75*
G02*
X28380000Y-15660000I-50000J0D01*
G01*
X27080000Y-15660000D02*
G75*
G02*
X27030000Y-15610000I0J50000D01*
G01*
X25175000Y-15660000D02*
G75*
G02*
X25125000Y-15610000I0J50000D01*
G01*
X30335000Y-15610000D02*
G75*
G02*
X30285000Y-15660000I-50000J0D01*
G01*
X12187500Y-16165000D02*
G75*
G02*
X12237500Y-16215000I0J-50000D01*
G01*
X10282500Y-16165000D02*
G75*
G02*
X10332500Y-16215000I0J-50000D01*
G01*
X8932500Y-16215000D02*
G75*
G02*
X8982500Y-16165000I50000J0D01*
G01*
X28430000Y-14310000D02*
X28430000Y-15610000D01*
X8932500Y-16215000D02*
X8932500Y-17515000D01*
X8982500Y-17565000D02*
X10282500Y-17565000D01*
X32190000Y-14260000D02*
G75*
G02*
X32240000Y-14310000I0J-50000D01*
G01*
X30890000Y-15660000D02*
X32190000Y-15660000D01*
X12792500Y-17565000D02*
G75*
G02*
X12742500Y-17515000I0J50000D01*
G01*
X10332500Y-17515000D02*
G75*
G02*
X10282500Y-17565000I-50000J0D01*
G01*
X28985000Y-14260000D02*
X30285000Y-14260000D01*
X32240000Y-15610000D02*
G75*
G02*
X32190000Y-15660000I-50000J0D01*
G01*
X27030000Y-14310000D02*
X27030000Y-15610000D01*
X14092500Y-16165000D02*
G75*
G02*
X14142500Y-16215000I0J-50000D01*
G01*
X6839375Y-17565000D02*
G75*
G02*
X6789375Y-17515000I0J50000D01*
G01*
X25125000Y-14310000D02*
G75*
G02*
X25175000Y-14260000I50000J0D01*
G01*
X26475000Y-14260000D02*
G75*
G02*
X26525000Y-14310000I0J-50000D01*
G01*
X25175000Y-15660000D02*
X26475000Y-15660000D01*
X12742500Y-16215000D02*
G75*
G02*
X12792500Y-16165000I50000J0D01*
G01*
X14142500Y-16215000D02*
X14142500Y-17515000D01*
X8189375Y-17515000D02*
G75*
G02*
X8139375Y-17565000I-50000J0D01*
G01*
X6839375Y-17565000D02*
X8139375Y-17565000D01*
X12237500Y-17515000D02*
G75*
G02*
X12187500Y-17565000I-50000J0D01*
G01*
X10837500Y-16215000D02*
X10837500Y-17515000D01*
X6789375Y-16215000D02*
X6789375Y-17515000D01*
X32240000Y-14310000D02*
X32240000Y-15610000D01*
X27080000Y-15660000D02*
X28380000Y-15660000D01*
X30840000Y-14310000D02*
X30840000Y-15610000D01*
X12742500Y-16215000D02*
X12742500Y-17515000D01*
X30890000Y-15660000D02*
G75*
G02*
X30840000Y-15610000I0J50000D01*
G01*
X8982500Y-17565000D02*
G75*
G02*
X8932500Y-17515000I0J50000D01*
G01*
X25125000Y-14310000D02*
X25125000Y-15610000D01*
X6839375Y-16165000D02*
X8139375Y-16165000D01*
X12792500Y-17565000D02*
X14092500Y-17565000D01*
X12792500Y-16165000D02*
X14092500Y-16165000D01*
X10887500Y-17565000D02*
X12187500Y-17565000D01*
X8139375Y-16165000D02*
G75*
G02*
X8189375Y-16215000I0J-50000D01*
G01*
X28380000Y-14260000D02*
G75*
G02*
X28430000Y-14310000I0J-50000D01*
G01*
X10887500Y-17565000D02*
G75*
G02*
X10837500Y-17515000I0J50000D01*
G01*
X10837500Y-16215000D02*
G75*
G02*
X10887500Y-16165000I50000J0D01*
G01*
X22188750Y-12355000D02*
G75*
G02*
X22238750Y-12405000I0J-50000D01*
G01*
X26603750Y-13755000D02*
G75*
G02*
X26553750Y-13705000I0J50000D01*
G01*
X24698750Y-13755000D02*
X25998750Y-13755000D01*
X24698750Y-12355000D02*
X25998750Y-12355000D01*
X24143750Y-13705000D02*
G75*
G02*
X24093750Y-13755000I-50000J0D01*
G01*
X22793750Y-13755000D02*
X24093750Y-13755000D01*
X27903750Y-12355000D02*
G75*
G02*
X27953750Y-12405000I0J-50000D01*
G01*
X22743750Y-12405000D02*
G75*
G02*
X22793750Y-12355000I50000J0D01*
G01*
X22793750Y-13755000D02*
G75*
G02*
X22743750Y-13705000I0J50000D01*
G01*
X28458750Y-12405000D02*
X28458750Y-13705000D01*
X28508750Y-12355000D02*
X29808750Y-12355000D01*
X26553750Y-12405000D02*
X26553750Y-13705000D01*
X25998750Y-12355000D02*
G75*
G02*
X26048750Y-12405000I0J-50000D01*
G01*
X26048750Y-13705000D02*
G75*
G02*
X25998750Y-13755000I-50000J0D01*
G01*
X24143750Y-12405000D02*
X24143750Y-13705000D01*
X24648750Y-12405000D02*
X24648750Y-13705000D01*
X28508750Y-13755000D02*
X29808750Y-13755000D01*
X34333125Y-13307500D02*
X33033125Y-13307500D01*
X32983125Y-13357500D02*
X32983125Y-14657500D01*
X34383125Y-13357500D02*
X34383125Y-14657500D01*
X26048750Y-12405000D02*
X26048750Y-13705000D01*
X31763750Y-13705000D02*
G75*
G02*
X31713750Y-13755000I-50000J0D01*
G01*
X24093750Y-12355000D02*
G75*
G02*
X24143750Y-12405000I0J-50000D01*
G01*
X27953750Y-13705000D02*
G75*
G02*
X27903750Y-13755000I-50000J0D01*
G01*
X30413750Y-13755000D02*
G75*
G02*
X30363750Y-13705000I0J50000D01*
G01*
X30363750Y-12405000D02*
X30363750Y-13705000D01*
X31713750Y-12355000D02*
G75*
G02*
X31763750Y-12405000I0J-50000D01*
G01*
X30363750Y-12405000D02*
G75*
G02*
X30413750Y-12355000I50000J0D01*
G01*
X29808750Y-12355000D02*
G75*
G02*
X29858750Y-12405000I0J-50000D01*
G01*
X22238750Y-13705000D02*
G75*
G02*
X22188750Y-13755000I-50000J0D01*
G01*
X22793750Y-12355000D02*
X24093750Y-12355000D01*
X31763750Y-12405000D02*
X31763750Y-13705000D01*
X30413750Y-13755000D02*
X31713750Y-13755000D01*
X26603750Y-13755000D02*
X27903750Y-13755000D01*
X30413750Y-12355000D02*
X31713750Y-12355000D01*
X22743750Y-12405000D02*
X22743750Y-13705000D01*
X29858750Y-13705000D02*
G75*
G02*
X29808750Y-13755000I-50000J0D01*
G01*
X28508750Y-13755000D02*
G75*
G02*
X28458750Y-13705000I0J50000D01*
G01*
X28458750Y-12405000D02*
G75*
G02*
X28508750Y-12355000I50000J0D01*
G01*
X27953750Y-12405000D02*
X27953750Y-13705000D01*
X29858750Y-12405000D02*
X29858750Y-13705000D01*
X26553750Y-12405000D02*
G75*
G02*
X26603750Y-12355000I50000J0D01*
G01*
X26603750Y-12355000D02*
X27903750Y-12355000D01*
X20888750Y-13755000D02*
G75*
G02*
X20838750Y-13705000I0J50000D01*
G01*
X24648750Y-12405000D02*
G75*
G02*
X24698750Y-12355000I50000J0D01*
G01*
X24698750Y-13755000D02*
G75*
G02*
X24648750Y-13705000I0J50000D01*
G01*
X15045000Y-14260000D02*
G75*
G02*
X15095000Y-14310000I0J-50000D01*
G01*
X13745000Y-15660000D02*
X15045000Y-15660000D01*
X24570000Y-14260000D02*
G75*
G02*
X24620000Y-14310000I0J-50000D01*
G01*
X23270000Y-15660000D02*
X24570000Y-15660000D01*
X23270000Y-14260000D02*
X24570000Y-14260000D01*
X15650000Y-14260000D02*
X16950000Y-14260000D01*
X21365000Y-14260000D02*
X22665000Y-14260000D01*
X17505000Y-14310000D02*
X17505000Y-15610000D01*
X16950000Y-14260000D02*
G75*
G02*
X17000000Y-14310000I0J-50000D01*
G01*
X15095000Y-15610000D02*
G75*
G02*
X15045000Y-15660000I-50000J0D01*
G01*
X17000000Y-15610000D02*
G75*
G02*
X16950000Y-15660000I-50000J0D01*
G01*
X19460000Y-15660000D02*
G75*
G02*
X19410000Y-15610000I0J50000D01*
G01*
X20760000Y-14260000D02*
G75*
G02*
X20810000Y-14310000I0J-50000D01*
G01*
X19410000Y-14310000D02*
G75*
G02*
X19460000Y-14260000I50000J0D01*
G01*
X17555000Y-15660000D02*
X18855000Y-15660000D01*
X15095000Y-14310000D02*
X15095000Y-15610000D01*
X17555000Y-15660000D02*
G75*
G02*
X17505000Y-15610000I0J50000D01*
G01*
X18855000Y-14260000D02*
G75*
G02*
X18905000Y-14310000I0J-50000D01*
G01*
X13745000Y-15660000D02*
G75*
G02*
X13695000Y-15610000I0J50000D01*
G01*
X23270000Y-15660000D02*
G75*
G02*
X23220000Y-15610000I0J50000D01*
G01*
X19460000Y-15660000D02*
X20760000Y-15660000D01*
X21315000Y-14310000D02*
X21315000Y-15610000D01*
X23220000Y-14310000D02*
X23220000Y-15610000D01*
X23220000Y-14310000D02*
G75*
G02*
X23270000Y-14260000I50000J0D01*
G01*
X21365000Y-15660000D02*
G75*
G02*
X21315000Y-15610000I0J50000D01*
G01*
X22715000Y-14310000D02*
X22715000Y-15610000D01*
X17000000Y-14310000D02*
X17000000Y-15610000D01*
X17505000Y-14310000D02*
G75*
G02*
X17555000Y-14260000I50000J0D01*
G01*
X22665000Y-14260000D02*
G75*
G02*
X22715000Y-14310000I0J-50000D01*
G01*
X19410000Y-14310000D02*
X19410000Y-15610000D01*
X15600000Y-14310000D02*
X15600000Y-15610000D01*
X15650000Y-15660000D02*
G75*
G02*
X15600000Y-15610000I0J50000D01*
G01*
X18905000Y-15610000D02*
G75*
G02*
X18855000Y-15660000I-50000J0D01*
G01*
X21365000Y-15660000D02*
X22665000Y-15660000D01*
X22715000Y-15610000D02*
G75*
G02*
X22665000Y-15660000I-50000J0D01*
G01*
X19460000Y-14260000D02*
X20760000Y-14260000D01*
X24620000Y-14310000D02*
X24620000Y-15610000D01*
X13695000Y-14310000D02*
X13695000Y-15610000D01*
X21315000Y-14310000D02*
G75*
G02*
X21365000Y-14260000I50000J0D01*
G01*
X15650000Y-15660000D02*
X16950000Y-15660000D01*
X20810000Y-14310000D02*
X20810000Y-15610000D01*
X15600000Y-14310000D02*
G75*
G02*
X15650000Y-14260000I50000J0D01*
G01*
X13695000Y-14310000D02*
G75*
G02*
X13745000Y-14260000I50000J0D01*
G01*
X20810000Y-15610000D02*
G75*
G02*
X20760000Y-15660000I-50000J0D01*
G01*
X18905000Y-14310000D02*
X18905000Y-15610000D01*
X17555000Y-14260000D02*
X18855000Y-14260000D01*
X6700000Y-19695000D02*
G75*
G02*
X6450000Y-19445000I0J250000D01*
G01*
X38530000Y-19445000D02*
G75*
G02*
X38280000Y-19695000I-250000J0D01*
G01*
X6450000Y-10015000D02*
G75*
G02*
X6700000Y-9765000I250000J0D01*
G01*
X6450000Y-19445000D02*
X6450000Y-10015000D01*
X6700000Y-19695000D02*
X38280000Y-19695000D01*
X38530000Y-19445000D02*
X38530000Y-16195000D01*
X35002500Y-9765000D02*
X6700000Y-9765000D01*
D11*
D12*
X6731428Y-20165714D02*
X6731428Y-19865714D01*
X6802857Y-19865714D01*
X6845714Y-19880000D01*
X6874286Y-19908572D01*
X6888571Y-19937143D01*
X6902857Y-19994286D01*
X6902857Y-20037143D01*
X6888571Y-20094286D01*
X6874286Y-20122857D01*
X6845714Y-20151429D01*
X6802857Y-20165714D01*
X6731428Y-20165714D01*
X7031428Y-20165714D02*
X7031428Y-19965714D01*
X7031428Y-20022857D02*
X7045714Y-19994286D01*
X7060000Y-19980000D01*
X7088571Y-19965714D01*
X7117143Y-19965714D01*
X7217143Y-20165714D02*
X7217143Y-19965714D01*
X7217143Y-19865714D02*
X7202857Y-19880000D01*
X7217143Y-19894286D01*
X7231428Y-19880000D01*
X7217143Y-19865714D01*
X7217143Y-19894286D01*
X7402857Y-20165714D02*
X7374286Y-20151429D01*
X7360000Y-20122857D01*
X7360000Y-19865714D01*
X7560000Y-20165714D02*
X7531428Y-20151429D01*
X7517143Y-20122857D01*
X7517143Y-19865714D01*
X7902857Y-20165714D02*
X7902857Y-19865714D01*
X8002857Y-20080000D01*
X8102857Y-19865714D01*
X8102857Y-20165714D01*
X8374286Y-20165714D02*
X8374286Y-20008572D01*
X8360000Y-19980000D01*
X8331428Y-19965714D01*
X8274286Y-19965714D01*
X8245714Y-19980000D01*
X8374286Y-20151429D02*
X8345714Y-20165714D01*
X8274286Y-20165714D01*
X8245714Y-20151429D01*
X8231428Y-20122857D01*
X8231428Y-20094286D01*
X8245714Y-20065714D01*
X8274286Y-20051429D01*
X8345714Y-20051429D01*
X8374286Y-20037143D01*
X8517143Y-19965714D02*
X8517143Y-20265714D01*
X8517143Y-19980000D02*
X8545714Y-19965714D01*
X8602857Y-19965714D01*
X8631428Y-19980000D01*
X8645714Y-19994286D01*
X8660000Y-20022857D01*
X8660000Y-20108572D01*
X8645714Y-20137143D01*
X8631428Y-20151429D01*
X8602857Y-20165714D01*
X8545714Y-20165714D01*
X8517143Y-20151429D01*
X8788571Y-20137143D02*
X8802857Y-20151429D01*
X8788571Y-20165714D01*
X8774286Y-20151429D01*
X8788571Y-20137143D01*
X8788571Y-20165714D01*
X8788571Y-19980000D02*
X8802857Y-19994286D01*
X8788571Y-20008572D01*
X8774286Y-19994286D01*
X8788571Y-19980000D01*
X8788571Y-20008572D01*
M02*
