%FSLAX45Y45*%
G04 Gerber Fmt 4.5, Leading zero omitted, Abs format (unit mm)*
G04 Created by KiCad (PCBNEW (5.1.9)-1) date 2021-05-31 03:35:18*
%MOMM*%
%LPD*%
G01*
G04 APERTURE LIST*
%TA.AperFunction,Profile*%
%ADD10C,0.100000*%
%TD*%
%ADD11C,0.200000*%
%ADD12C,0.300000*%
G04 APERTURE END LIST*
D10*
X34333125Y-13307906D02*
X34193500Y-13307906D01*
X34193500Y-13307906D02*
G75*
G02*
X34143500Y-13257906I0J50000D01*
G01*
X34143500Y-13257906D02*
X34143500Y-13214106D01*
X34338125Y-13164000D02*
X34193500Y-13164106D01*
X34143500Y-13214106D02*
G75*
G02*
X34193500Y-13164106I50000J0D01*
G01*
X34388125Y-13114000D02*
G75*
G02*
X34338125Y-13164000I-50000J0D01*
G01*
X34333125Y-13307906D02*
G75*
G02*
X34383125Y-13357906I0J-50000D01*
G01*
X34388125Y-12513700D02*
X34388125Y-13114000D01*
X34283125Y-15601300D02*
G75*
G02*
X34333125Y-15551300I50000J0D01*
G01*
X34283125Y-15810330D02*
X34283125Y-15601300D01*
X34143500Y-12402406D02*
X34143500Y-12413700D01*
X34338125Y-12463700D02*
X34193500Y-12463700D01*
X34383125Y-15501300D02*
G75*
G02*
X34333125Y-15551300I-50000J0D01*
G01*
X6839375Y-16165406D02*
X10282500Y-16165406D01*
X34383125Y-13357906D02*
X34383125Y-15501300D01*
X32743500Y-12402406D02*
G75*
G02*
X32793500Y-12352406I50000J0D01*
G01*
X31938332Y-15660508D02*
X33525950Y-15660506D01*
X33626110Y-15860368D02*
X34233125Y-15860330D01*
X6949575Y-17765406D02*
G75*
G02*
X6899575Y-17715406I0J50000D01*
G01*
X33525950Y-15660506D02*
G75*
G02*
X33575950Y-15710506I0J-50000D01*
G01*
X31238325Y-15860406D02*
G75*
G02*
X31188325Y-15810406I0J50000D01*
G01*
X7599575Y-17715406D02*
X7599575Y-17615406D01*
X9987175Y-17715406D02*
G75*
G02*
X9937175Y-17765406I-50000J0D01*
G01*
X32793500Y-12352406D02*
X34093500Y-12352406D01*
X10282500Y-17565406D02*
X10037175Y-17565406D01*
X6949575Y-17765406D02*
X7549575Y-17765406D01*
X34093500Y-12352406D02*
G75*
G02*
X34143500Y-12402406I0J-50000D01*
G01*
X31238325Y-15860406D02*
X31838325Y-15860406D01*
X34283125Y-15810330D02*
G75*
G02*
X34233125Y-15860330I-50000J0D01*
G01*
X6849575Y-17565406D02*
G75*
G02*
X6899575Y-17615406I0J-50000D01*
G01*
X9237175Y-17565406D02*
G75*
G02*
X9287175Y-17615406I0J-50000D01*
G01*
X31888325Y-15810406D02*
G75*
G02*
X31838325Y-15860406I-50000J0D01*
G01*
X6839375Y-17565406D02*
X6849575Y-17565406D01*
X9987175Y-17715406D02*
X9987175Y-17615406D01*
X9987175Y-17615406D02*
G75*
G02*
X10037175Y-17565406I50000J0D01*
G01*
X9237175Y-17565406D02*
X7649575Y-17565406D01*
X32743250Y-13701406D02*
X32743500Y-12402406D01*
X9287175Y-17615406D02*
X9287175Y-17715406D01*
X7599575Y-17715406D02*
G75*
G02*
X7549575Y-17765406I-50000J0D01*
G01*
X33625925Y-15860406D02*
G75*
G02*
X33575925Y-15810406I0J50000D01*
G01*
X9337175Y-17765406D02*
G75*
G02*
X9287175Y-17715406I0J50000D01*
G01*
X6899575Y-17615406D02*
X6899575Y-17715406D01*
X9337175Y-17765406D02*
X9937175Y-17765406D01*
X31888332Y-15710508D02*
G75*
G02*
X31938332Y-15660508I50000J0D01*
G01*
X33575950Y-15710506D02*
X33575950Y-15810406D01*
X7599575Y-17615406D02*
G75*
G02*
X7649575Y-17565406I50000J0D01*
G01*
X34193500Y-12463700D02*
G75*
G02*
X34143500Y-12413700I0J50000D01*
G01*
X32933250Y-13751406D02*
G75*
G02*
X32983250Y-13801406I0J-50000D01*
G01*
X31188325Y-15810406D02*
X31188232Y-15710508D01*
X32793250Y-13751406D02*
G75*
G02*
X32743250Y-13701406I0J50000D01*
G01*
X32933250Y-13751406D02*
X32793250Y-13751406D01*
X32983250Y-14210384D02*
G75*
G02*
X32933250Y-14260384I-50000J0D01*
G01*
X32983250Y-14210384D02*
X32983250Y-13801406D01*
X31138232Y-15660508D02*
G75*
G02*
X31188232Y-15710508I0J-50000D01*
G01*
X31888325Y-15810406D02*
X31888332Y-15710508D01*
X6839375Y-17565406D02*
G75*
G02*
X6789375Y-17515406I0J50000D01*
G01*
X10282500Y-16165406D02*
G75*
G02*
X10332500Y-16215406I0J-50000D01*
G01*
X30840000Y-14310406D02*
X30840000Y-15610406D01*
X30890000Y-15660406D02*
G75*
G02*
X30840000Y-15610406I0J50000D01*
G01*
X10332500Y-16215406D02*
X10332500Y-17515406D01*
X30840000Y-14310406D02*
G75*
G02*
X30890000Y-14260406I50000J0D01*
G01*
X6789375Y-16215406D02*
X6789375Y-17515406D01*
X30890000Y-15660406D02*
X31138232Y-15660508D01*
X10332500Y-17515406D02*
G75*
G02*
X10282500Y-17565406I-50000J0D01*
G01*
X30890000Y-14260406D02*
X32933250Y-14260384D01*
X6789375Y-16215406D02*
G75*
G02*
X6839375Y-16165406I50000J0D01*
G01*
X35002500Y-9765000D02*
G75*
G02*
X35252500Y-10015000I0J-250000D01*
G01*
X35252500Y-15515000D02*
X35252500Y-10015000D01*
X35502500Y-15765000D02*
G75*
G02*
X35252500Y-15515000I0J250000D01*
G01*
X38581250Y-15765000D02*
X35502500Y-15765000D01*
X38581250Y-15765000D02*
G75*
G02*
X38831250Y-16015000I0J-250000D01*
G01*
X38431250Y-18120000D02*
X38431250Y-19420000D01*
X35126250Y-18120000D02*
G75*
G02*
X35176250Y-18070000I50000J0D01*
G01*
X36526250Y-19420000D02*
G75*
G02*
X36476250Y-19470000I-50000J0D01*
G01*
X35176250Y-18070000D02*
X36476250Y-18070000D01*
X33221250Y-18120000D02*
G75*
G02*
X33271250Y-18070000I50000J0D01*
G01*
X34621250Y-19420000D02*
G75*
G02*
X34571250Y-19470000I-50000J0D01*
G01*
X38381250Y-18070000D02*
G75*
G02*
X38431250Y-18120000I0J-50000D01*
G01*
X37031250Y-18120000D02*
G75*
G02*
X37081250Y-18070000I50000J0D01*
G01*
X34621250Y-18120000D02*
X34621250Y-19420000D01*
X35176250Y-19470000D02*
X36476250Y-19470000D01*
X38431250Y-19420000D02*
G75*
G02*
X38381250Y-19470000I-50000J0D01*
G01*
X36476250Y-18070000D02*
G75*
G02*
X36526250Y-18120000I0J-50000D01*
G01*
X36526250Y-18120000D02*
X36526250Y-19420000D01*
X35126250Y-18120000D02*
X35126250Y-19420000D01*
X37081250Y-18070000D02*
X38381250Y-18070000D01*
X37081250Y-19470000D02*
G75*
G02*
X37031250Y-19420000I0J50000D01*
G01*
X37031250Y-18120000D02*
X37031250Y-19420000D01*
X35176250Y-19470000D02*
G75*
G02*
X35126250Y-19420000I0J50000D01*
G01*
X34571250Y-18070000D02*
G75*
G02*
X34621250Y-18120000I0J-50000D01*
G01*
X37081250Y-19470000D02*
X38381250Y-19470000D01*
X33271250Y-19470000D02*
G75*
G02*
X33221250Y-19420000I0J50000D01*
G01*
X10520625Y-18070000D02*
G75*
G02*
X10570625Y-18120000I0J-50000D01*
G01*
X11551875Y-18120000D02*
G75*
G02*
X11601875Y-18070000I50000J0D01*
G01*
X9170625Y-18120000D02*
G75*
G02*
X9220625Y-18070000I50000J0D01*
G01*
X6789375Y-18120000D02*
X6789375Y-19420000D01*
X6839375Y-19470000D02*
X8139375Y-19470000D01*
X6789375Y-18120000D02*
G75*
G02*
X6839375Y-18070000I50000J0D01*
G01*
X10570625Y-19420000D02*
G75*
G02*
X10520625Y-19470000I-50000J0D01*
G01*
X11601875Y-19470000D02*
X12901875Y-19470000D01*
X37031250Y-16215000D02*
G75*
G02*
X37081250Y-16165000I50000J0D01*
G01*
X11601875Y-18070000D02*
X12901875Y-18070000D01*
X8139375Y-18070000D02*
G75*
G02*
X8189375Y-18120000I0J-50000D01*
G01*
X37081250Y-17565000D02*
G75*
G02*
X37031250Y-17515000I0J50000D01*
G01*
X12951875Y-18120000D02*
X12951875Y-19420000D01*
X11551875Y-18120000D02*
X11551875Y-19420000D01*
X9220625Y-19470000D02*
X10520625Y-19470000D01*
X9220625Y-19470000D02*
G75*
G02*
X9170625Y-19420000I0J50000D01*
G01*
X10570625Y-18120000D02*
X10570625Y-19420000D01*
X9220625Y-18070000D02*
X10520625Y-18070000D01*
X8189375Y-19420000D02*
G75*
G02*
X8139375Y-19470000I-50000J0D01*
G01*
X6839375Y-19470000D02*
G75*
G02*
X6789375Y-19420000I0J50000D01*
G01*
X6839375Y-18070000D02*
X8139375Y-18070000D01*
X8189375Y-18120000D02*
X8189375Y-19420000D01*
X38431250Y-16215000D02*
X38431250Y-17515000D01*
X11601875Y-19470000D02*
G75*
G02*
X11551875Y-19420000I0J50000D01*
G01*
X9170625Y-18120000D02*
X9170625Y-19420000D01*
X12901875Y-18070000D02*
G75*
G02*
X12951875Y-18120000I0J-50000D01*
G01*
X38431250Y-17515000D02*
G75*
G02*
X38381250Y-17565000I-50000J0D01*
G01*
X38381250Y-16165000D02*
G75*
G02*
X38431250Y-16215000I0J-50000D01*
G01*
X26077500Y-16215000D02*
G75*
G02*
X26127500Y-16165000I50000J0D01*
G01*
X29332500Y-16165000D02*
G75*
G02*
X29382500Y-16215000I0J-50000D01*
G01*
X27477500Y-16215000D02*
X27477500Y-17515000D01*
X33271250Y-17565000D02*
G75*
G02*
X33221250Y-17515000I0J50000D01*
G01*
X34571250Y-16165000D02*
G75*
G02*
X34621250Y-16215000I0J-50000D01*
G01*
X30601875Y-16215000D02*
G75*
G02*
X30651875Y-16165000I50000J0D01*
G01*
X28032500Y-17565000D02*
X29332500Y-17565000D01*
X28032500Y-16165000D02*
X29332500Y-16165000D01*
X34621250Y-16215000D02*
X34621250Y-17515000D01*
X21762500Y-16215000D02*
X21762500Y-17515000D01*
X33271250Y-17565000D02*
X34571250Y-17565000D01*
X23667500Y-16215000D02*
X23667500Y-17515000D01*
X32001875Y-16215000D02*
X32001875Y-17515000D01*
X27982500Y-16215000D02*
X27982500Y-17515000D01*
X27427500Y-16165000D02*
G75*
G02*
X27477500Y-16215000I0J-50000D01*
G01*
X21712500Y-16165000D02*
G75*
G02*
X21762500Y-16215000I0J-50000D01*
G01*
X29382500Y-17515000D02*
G75*
G02*
X29332500Y-17565000I-50000J0D01*
G01*
X24172500Y-16215000D02*
G75*
G02*
X24222500Y-16165000I50000J0D01*
G01*
X20362500Y-16215000D02*
G75*
G02*
X20412500Y-16165000I50000J0D01*
G01*
X25572500Y-16215000D02*
X25572500Y-17515000D01*
X22317500Y-17565000D02*
G75*
G02*
X22267500Y-17515000I0J50000D01*
G01*
X35176250Y-17565000D02*
X36476250Y-17565000D01*
X26127500Y-16165000D02*
X27427500Y-16165000D01*
X21762500Y-17515000D02*
G75*
G02*
X21712500Y-17565000I-50000J0D01*
G01*
X36526250Y-16215000D02*
X36526250Y-17515000D01*
X30601875Y-16215000D02*
X30601875Y-17515000D01*
X35126250Y-16215000D02*
X35126250Y-17515000D01*
X25522500Y-16165000D02*
G75*
G02*
X25572500Y-16215000I0J-50000D01*
G01*
X29382500Y-16215000D02*
X29382500Y-17515000D01*
X27477500Y-17515000D02*
G75*
G02*
X27427500Y-17565000I-50000J0D01*
G01*
X26077500Y-16215000D02*
X26077500Y-17515000D01*
X25572500Y-17515000D02*
G75*
G02*
X25522500Y-17565000I-50000J0D01*
G01*
X24172500Y-16215000D02*
X24172500Y-17515000D01*
X26127500Y-17565000D02*
X27427500Y-17565000D01*
X32001875Y-17515000D02*
G75*
G02*
X31951875Y-17565000I-50000J0D01*
G01*
X20412500Y-17565000D02*
G75*
G02*
X20362500Y-17515000I0J50000D01*
G01*
X24222500Y-17565000D02*
G75*
G02*
X24172500Y-17515000I0J50000D01*
G01*
X37031250Y-16215000D02*
X37031250Y-17515000D01*
X37081250Y-17565000D02*
X38381250Y-17565000D01*
X37081250Y-16165000D02*
X38381250Y-16165000D01*
X36526250Y-17515000D02*
G75*
G02*
X36476250Y-17565000I-50000J0D01*
G01*
X35176250Y-17565000D02*
G75*
G02*
X35126250Y-17515000I0J50000D01*
G01*
X30651875Y-17565000D02*
G75*
G02*
X30601875Y-17515000I0J50000D01*
G01*
X33221250Y-16215000D02*
X33221250Y-17515000D01*
X27982500Y-16215000D02*
G75*
G02*
X28032500Y-16165000I50000J0D01*
G01*
X36476250Y-16165000D02*
G75*
G02*
X36526250Y-16215000I0J-50000D01*
G01*
X24222500Y-17565000D02*
X25522500Y-17565000D01*
X26127500Y-17565000D02*
G75*
G02*
X26077500Y-17515000I0J50000D01*
G01*
X22267500Y-16215000D02*
X22267500Y-17515000D01*
X35126250Y-16215000D02*
G75*
G02*
X35176250Y-16165000I50000J0D01*
G01*
X24222500Y-16165000D02*
X25522500Y-16165000D01*
X28032500Y-17565000D02*
G75*
G02*
X27982500Y-17515000I0J50000D01*
G01*
X22317500Y-16165000D02*
X23617500Y-16165000D01*
X35176250Y-16165000D02*
X36476250Y-16165000D01*
X33271250Y-16165000D02*
X34571250Y-16165000D01*
X31951875Y-16165000D02*
G75*
G02*
X32001875Y-16215000I0J-50000D01*
G01*
X22267500Y-16215000D02*
G75*
G02*
X22317500Y-16165000I50000J0D01*
G01*
X30651875Y-16165000D02*
X31951875Y-16165000D01*
X22317500Y-17565000D02*
X23617500Y-17565000D01*
X23667500Y-17515000D02*
G75*
G02*
X23617500Y-17565000I-50000J0D01*
G01*
X34621250Y-17515000D02*
G75*
G02*
X34571250Y-17565000I-50000J0D01*
G01*
X33221250Y-16215000D02*
G75*
G02*
X33271250Y-16165000I50000J0D01*
G01*
X30651875Y-17565000D02*
X31951875Y-17565000D01*
X23617500Y-16165000D02*
G75*
G02*
X23667500Y-16215000I0J-50000D01*
G01*
X10808750Y-12405000D02*
X10808750Y-13705000D01*
X9408750Y-12405000D02*
X9408750Y-13705000D01*
X7027500Y-12405000D02*
X7027500Y-13705000D01*
X7077500Y-12355000D02*
X8377500Y-12355000D01*
X8427500Y-13705000D02*
G75*
G02*
X8377500Y-13755000I-50000J0D01*
G01*
X7077500Y-13755000D02*
G75*
G02*
X7027500Y-13705000I0J50000D01*
G01*
X8377500Y-12355000D02*
G75*
G02*
X8427500Y-12405000I0J-50000D01*
G01*
X7027500Y-12405000D02*
G75*
G02*
X7077500Y-12355000I50000J0D01*
G01*
X32124950Y-12000000D02*
G75*
G02*
X32074950Y-12050000I-50000J0D01*
G01*
X31474950Y-12050000D02*
X32074950Y-12050000D01*
X31474950Y-10550000D02*
X32074950Y-10550000D01*
X31424950Y-10600000D02*
G75*
G02*
X31474950Y-10550000I50000J0D01*
G01*
X9458750Y-12355000D02*
X10758750Y-12355000D01*
X8427500Y-12405000D02*
X8427500Y-13705000D01*
X31424950Y-10600000D02*
X31424950Y-12000000D01*
X32124950Y-10600000D02*
X32124950Y-12000000D01*
X9458750Y-13755000D02*
G75*
G02*
X9408750Y-13705000I0J50000D01*
G01*
X32074950Y-10550000D02*
G75*
G02*
X32124950Y-10600000I0J-50000D01*
G01*
X7077500Y-13755000D02*
X8377500Y-13755000D01*
X9458750Y-13755000D02*
X10758750Y-13755000D01*
X10758750Y-12355000D02*
G75*
G02*
X10808750Y-12405000I0J-50000D01*
G01*
X31474950Y-12050000D02*
G75*
G02*
X31424950Y-12000000I0J50000D01*
G01*
X9408750Y-12405000D02*
G75*
G02*
X9458750Y-12355000I50000J0D01*
G01*
X12266250Y-10500000D02*
X12266250Y-11800000D01*
X11761250Y-11800000D02*
G75*
G02*
X11711250Y-11850000I-50000J0D01*
G01*
X10411250Y-10450000D02*
X11711250Y-10450000D01*
X6601250Y-11850000D02*
G75*
G02*
X6551250Y-11800000I0J50000D01*
G01*
X11761250Y-10500000D02*
X11761250Y-11800000D01*
X13666250Y-10500000D02*
X13666250Y-11800000D01*
X10411250Y-11850000D02*
G75*
G02*
X10361250Y-11800000I0J50000D01*
G01*
X8456250Y-10500000D02*
X8456250Y-11800000D01*
X11711250Y-10450000D02*
G75*
G02*
X11761250Y-10500000I0J-50000D01*
G01*
X8456250Y-10500000D02*
G75*
G02*
X8506250Y-10450000I50000J0D01*
G01*
X8506250Y-11850000D02*
X9806250Y-11850000D01*
X7901250Y-10450000D02*
G75*
G02*
X7951250Y-10500000I0J-50000D01*
G01*
X7951250Y-11800000D02*
G75*
G02*
X7901250Y-11850000I-50000J0D01*
G01*
X12316250Y-11850000D02*
X13616250Y-11850000D01*
X12316250Y-10450000D02*
X13616250Y-10450000D01*
X9856250Y-11800000D02*
G75*
G02*
X9806250Y-11850000I-50000J0D01*
G01*
X10361250Y-10500000D02*
G75*
G02*
X10411250Y-10450000I50000J0D01*
G01*
X10411250Y-11850000D02*
X11711250Y-11850000D01*
X8506250Y-11850000D02*
G75*
G02*
X8456250Y-11800000I0J50000D01*
G01*
X8506250Y-10450000D02*
X9806250Y-10450000D01*
X10361250Y-10500000D02*
X10361250Y-11800000D01*
X9806250Y-10450000D02*
G75*
G02*
X9856250Y-10500000I0J-50000D01*
G01*
X9856250Y-10500000D02*
X9856250Y-11800000D01*
X16479425Y-19570000D02*
G75*
G02*
X16429425Y-19520000I0J50000D01*
G01*
X16429425Y-18120000D02*
G75*
G02*
X16479425Y-18070000I50000J0D01*
G01*
X16235625Y-18070000D02*
G75*
G02*
X16285625Y-18120000I0J-50000D01*
G01*
X16479425Y-18070000D02*
X17079425Y-18070000D01*
X14935625Y-19470000D02*
X16235625Y-19470000D01*
X14935625Y-18070000D02*
X16235625Y-18070000D01*
X17079425Y-18070000D02*
G75*
G02*
X17129425Y-18120000I0J-50000D01*
G01*
X14086825Y-18070000D02*
X14686825Y-18070000D01*
X14885625Y-18120000D02*
X14885625Y-19420000D01*
X17129425Y-19520000D02*
G75*
G02*
X17079425Y-19570000I-50000J0D01*
G01*
X14935625Y-19470000D02*
G75*
G02*
X14885625Y-19420000I0J50000D01*
G01*
X14885625Y-18120000D02*
G75*
G02*
X14935625Y-18070000I50000J0D01*
G01*
X16285625Y-18120000D02*
X16285625Y-19420000D01*
X16479425Y-19570000D02*
X17079425Y-19570000D01*
X18695625Y-18120000D02*
X18695625Y-19420000D01*
X18745625Y-18070000D02*
X20045625Y-18070000D01*
X18745625Y-19470000D02*
X20045625Y-19470000D01*
X14736825Y-19520000D02*
G75*
G02*
X14686825Y-19570000I-50000J0D01*
G01*
X14736825Y-18120000D02*
X14736825Y-19520000D01*
X14086825Y-19570000D02*
X14686825Y-19570000D01*
X17129425Y-18120000D02*
X17129425Y-19520000D01*
X14686825Y-18070000D02*
G75*
G02*
X14736825Y-18120000I0J-50000D01*
G01*
X16285625Y-19420000D02*
G75*
G02*
X16235625Y-19470000I-50000J0D01*
G01*
X14036825Y-18120000D02*
X14036825Y-19520000D01*
X14086825Y-19570000D02*
G75*
G02*
X14036825Y-19520000I0J50000D01*
G01*
X14036825Y-18120000D02*
G75*
G02*
X14086825Y-18070000I50000J0D01*
G01*
X16429425Y-18120000D02*
X16429425Y-19520000D01*
X12951875Y-19420000D02*
G75*
G02*
X12901875Y-19470000I-50000J0D01*
G01*
X32716250Y-18120000D02*
X32716250Y-19420000D01*
X31366250Y-18070000D02*
X32666250Y-18070000D01*
X24744425Y-19520000D02*
G75*
G02*
X24694425Y-19570000I-50000J0D01*
G01*
X22505625Y-18120000D02*
G75*
G02*
X22555625Y-18070000I50000J0D01*
G01*
X22356825Y-19520000D02*
G75*
G02*
X22306825Y-19570000I-50000J0D01*
G01*
X29411250Y-18120000D02*
G75*
G02*
X29461250Y-18070000I50000J0D01*
G01*
X21656825Y-18120000D02*
X21656825Y-19520000D01*
X24744425Y-18120000D02*
X24744425Y-19520000D01*
X30811250Y-18120000D02*
X30811250Y-19420000D01*
X27556250Y-18070000D02*
X28856250Y-18070000D01*
X29461250Y-19470000D02*
X30761250Y-19470000D01*
X29461250Y-18070000D02*
X30761250Y-18070000D01*
X28856250Y-18070000D02*
G75*
G02*
X28906250Y-18120000I0J-50000D01*
G01*
X28906250Y-18120000D02*
X28906250Y-19420000D01*
X26951250Y-18070000D02*
G75*
G02*
X27001250Y-18120000I0J-50000D01*
G01*
X25601250Y-18120000D02*
G75*
G02*
X25651250Y-18070000I50000J0D01*
G01*
X27001250Y-18120000D02*
X27001250Y-19420000D01*
X25651250Y-19470000D02*
X26951250Y-19470000D01*
X24094425Y-18070000D02*
X24694425Y-18070000D01*
X20045625Y-18070000D02*
G75*
G02*
X20095625Y-18120000I0J-50000D01*
G01*
X18695625Y-18120000D02*
G75*
G02*
X18745625Y-18070000I50000J0D01*
G01*
X25651250Y-18070000D02*
X26951250Y-18070000D01*
X22306825Y-18070000D02*
G75*
G02*
X22356825Y-18120000I0J-50000D01*
G01*
X21656825Y-18120000D02*
G75*
G02*
X21706825Y-18070000I50000J0D01*
G01*
X21706825Y-18070000D02*
X22306825Y-18070000D01*
X22356825Y-18120000D02*
X22356825Y-19520000D01*
X21706825Y-19570000D02*
X22306825Y-19570000D01*
X18745625Y-19470000D02*
G75*
G02*
X18695625Y-19420000I0J50000D01*
G01*
X24044425Y-18120000D02*
G75*
G02*
X24094425Y-18070000I50000J0D01*
G01*
X24094425Y-19570000D02*
G75*
G02*
X24044425Y-19520000I0J50000D01*
G01*
X25601250Y-18120000D02*
X25601250Y-19420000D01*
X22555625Y-18070000D02*
X23855625Y-18070000D01*
X20095625Y-18120000D02*
X20095625Y-19420000D01*
X21706825Y-19570000D02*
G75*
G02*
X21656825Y-19520000I0J50000D01*
G01*
X24094425Y-19570000D02*
X24694425Y-19570000D01*
X27001250Y-19420000D02*
G75*
G02*
X26951250Y-19470000I-50000J0D01*
G01*
X20095625Y-19420000D02*
G75*
G02*
X20045625Y-19470000I-50000J0D01*
G01*
X33221250Y-18120000D02*
X33221250Y-19420000D01*
X33271250Y-19470000D02*
X34571250Y-19470000D01*
X22505625Y-18120000D02*
X22505625Y-19420000D01*
X33271250Y-18070000D02*
X34571250Y-18070000D01*
X32716250Y-19420000D02*
G75*
G02*
X32666250Y-19470000I-50000J0D01*
G01*
X31366250Y-19470000D02*
G75*
G02*
X31316250Y-19420000I0J50000D01*
G01*
X24044425Y-18120000D02*
X24044425Y-19520000D01*
X32666250Y-18070000D02*
G75*
G02*
X32716250Y-18120000I0J-50000D01*
G01*
X31316250Y-18120000D02*
X31316250Y-19420000D01*
X30811250Y-19420000D02*
G75*
G02*
X30761250Y-19470000I-50000J0D01*
G01*
X23905625Y-18120000D02*
X23905625Y-19420000D01*
X29461250Y-19470000D02*
G75*
G02*
X29411250Y-19420000I0J50000D01*
G01*
X30761250Y-18070000D02*
G75*
G02*
X30811250Y-18120000I0J-50000D01*
G01*
X28906250Y-19420000D02*
G75*
G02*
X28856250Y-19470000I-50000J0D01*
G01*
X27506250Y-18120000D02*
X27506250Y-19420000D01*
X24694425Y-18070000D02*
G75*
G02*
X24744425Y-18120000I0J-50000D01*
G01*
X29411250Y-18120000D02*
X29411250Y-19420000D01*
X25651250Y-19470000D02*
G75*
G02*
X25601250Y-19420000I0J50000D01*
G01*
X23855625Y-18070000D02*
G75*
G02*
X23905625Y-18120000I0J-50000D01*
G01*
X22555625Y-19470000D02*
X23855625Y-19470000D01*
X31366250Y-19470000D02*
X32666250Y-19470000D01*
X22555625Y-19470000D02*
G75*
G02*
X22505625Y-19420000I0J50000D01*
G01*
X27556250Y-19470000D02*
X28856250Y-19470000D01*
X23905625Y-19420000D02*
G75*
G02*
X23855625Y-19470000I-50000J0D01*
G01*
X31316250Y-18120000D02*
G75*
G02*
X31366250Y-18070000I50000J0D01*
G01*
X27556250Y-19470000D02*
G75*
G02*
X27506250Y-19420000I0J50000D01*
G01*
X27506250Y-18120000D02*
G75*
G02*
X27556250Y-18070000I50000J0D01*
G01*
X20888750Y-12355000D02*
X22188750Y-12355000D01*
X20333750Y-13705000D02*
G75*
G02*
X20283750Y-13755000I-50000J0D01*
G01*
X15123750Y-12405000D02*
G75*
G02*
X15173750Y-12355000I50000J0D01*
G01*
X11363750Y-13755000D02*
G75*
G02*
X11313750Y-13705000I0J50000D01*
G01*
X18933750Y-12405000D02*
X18933750Y-13705000D01*
X18428750Y-12405000D02*
X18428750Y-13705000D01*
X18983750Y-13755000D02*
G75*
G02*
X18933750Y-13705000I0J50000D01*
G01*
X20283750Y-12355000D02*
G75*
G02*
X20333750Y-12405000I0J-50000D01*
G01*
X11313750Y-12405000D02*
G75*
G02*
X11363750Y-12355000I50000J0D01*
G01*
X18933750Y-12405000D02*
G75*
G02*
X18983750Y-12355000I50000J0D01*
G01*
X13268750Y-12355000D02*
X14568750Y-12355000D01*
X20333750Y-12405000D02*
X20333750Y-13705000D01*
X18983750Y-13755000D02*
X20283750Y-13755000D01*
X17078750Y-12355000D02*
X18378750Y-12355000D01*
X14568750Y-12355000D02*
G75*
G02*
X14618750Y-12405000I0J-50000D01*
G01*
X13218750Y-12405000D02*
G75*
G02*
X13268750Y-12355000I50000J0D01*
G01*
X11363750Y-12355000D02*
X12663750Y-12355000D01*
X18983750Y-12355000D02*
X20283750Y-12355000D01*
X17078750Y-13755000D02*
G75*
G02*
X17028750Y-13705000I0J50000D01*
G01*
X17028750Y-12405000D02*
G75*
G02*
X17078750Y-12355000I50000J0D01*
G01*
X13268750Y-13755000D02*
G75*
G02*
X13218750Y-13705000I0J50000D01*
G01*
X12713750Y-13705000D02*
G75*
G02*
X12663750Y-13755000I-50000J0D01*
G01*
X15173750Y-12355000D02*
X16473750Y-12355000D01*
X14618750Y-12405000D02*
X14618750Y-13705000D01*
X17078750Y-13755000D02*
X18378750Y-13755000D01*
X10808750Y-13705000D02*
G75*
G02*
X10758750Y-13755000I-50000J0D01*
G01*
X14618750Y-13705000D02*
G75*
G02*
X14568750Y-13755000I-50000J0D01*
G01*
X20838750Y-12405000D02*
G75*
G02*
X20888750Y-12355000I50000J0D01*
G01*
X15123750Y-12405000D02*
X15123750Y-13705000D01*
X22238750Y-12405000D02*
X22238750Y-13705000D01*
X18428750Y-13705000D02*
G75*
G02*
X18378750Y-13755000I-50000J0D01*
G01*
X17028750Y-12405000D02*
X17028750Y-13705000D01*
X16523750Y-12405000D02*
X16523750Y-13705000D01*
X13218750Y-12405000D02*
X13218750Y-13705000D01*
X12713750Y-12405000D02*
X12713750Y-13705000D01*
X18378750Y-12355000D02*
G75*
G02*
X18428750Y-12405000I0J-50000D01*
G01*
X16473750Y-12355000D02*
G75*
G02*
X16523750Y-12405000I0J-50000D01*
G01*
X11363750Y-13755000D02*
X12663750Y-13755000D01*
X13268750Y-13755000D02*
X14568750Y-13755000D01*
X15173750Y-13755000D02*
X16473750Y-13755000D01*
X12663750Y-12355000D02*
G75*
G02*
X12713750Y-12405000I0J-50000D01*
G01*
X15173750Y-13755000D02*
G75*
G02*
X15123750Y-13705000I0J50000D01*
G01*
X11313750Y-12405000D02*
X11313750Y-13705000D01*
X16523750Y-13705000D02*
G75*
G02*
X16473750Y-13755000I-50000J0D01*
G01*
X20838750Y-12405000D02*
X20838750Y-13705000D01*
X20888750Y-13755000D02*
X22188750Y-13755000D01*
X7951250Y-10500000D02*
X7951250Y-11800000D01*
X6601250Y-10450000D02*
X7901250Y-10450000D01*
X6551250Y-10500000D02*
G75*
G02*
X6601250Y-10450000I50000J0D01*
G01*
X6551250Y-10500000D02*
X6551250Y-11800000D01*
X6601250Y-11850000D02*
X7901250Y-11850000D01*
X9935000Y-15660000D02*
G75*
G02*
X9885000Y-15610000I0J50000D01*
G01*
X7265625Y-14310000D02*
X7265625Y-15610000D01*
X8665625Y-14310000D02*
X8665625Y-15610000D01*
X13745000Y-14260000D02*
X15045000Y-14260000D01*
X13190000Y-15610000D02*
G75*
G02*
X13140000Y-15660000I-50000J0D01*
G01*
X11840000Y-15660000D02*
X13140000Y-15660000D01*
X9885000Y-14310000D02*
G75*
G02*
X9935000Y-14260000I50000J0D01*
G01*
X11840000Y-14260000D02*
X13140000Y-14260000D01*
X8615625Y-14260000D02*
G75*
G02*
X8665625Y-14310000I0J-50000D01*
G01*
X7265625Y-14310000D02*
G75*
G02*
X7315625Y-14260000I50000J0D01*
G01*
X11285000Y-14310000D02*
X11285000Y-15610000D01*
X9885000Y-14310000D02*
X9885000Y-15610000D01*
X8665625Y-15610000D02*
G75*
G02*
X8615625Y-15660000I-50000J0D01*
G01*
X7315625Y-15660000D02*
G75*
G02*
X7265625Y-15610000I0J50000D01*
G01*
X11840000Y-15660000D02*
G75*
G02*
X11790000Y-15610000I0J50000D01*
G01*
X13140000Y-14260000D02*
G75*
G02*
X13190000Y-14310000I0J-50000D01*
G01*
X11285000Y-15610000D02*
G75*
G02*
X11235000Y-15660000I-50000J0D01*
G01*
X13190000Y-14310000D02*
X13190000Y-15610000D01*
X11790000Y-14310000D02*
G75*
G02*
X11840000Y-14260000I50000J0D01*
G01*
X9935000Y-14260000D02*
X11235000Y-14260000D01*
X7315625Y-15660000D02*
X8615625Y-15660000D01*
X7315625Y-14260000D02*
X8615625Y-14260000D01*
X11790000Y-14310000D02*
X11790000Y-15610000D01*
X11235000Y-14260000D02*
G75*
G02*
X11285000Y-14310000I0J-50000D01*
G01*
X34338125Y-12463700D02*
G75*
G02*
X34388125Y-12513700I0J-50000D01*
G01*
X9935000Y-15660000D02*
X11235000Y-15660000D01*
X30811250Y-10500000D02*
X30811250Y-11800000D01*
X32268750Y-10500000D02*
X32268750Y-11800000D01*
X32268750Y-10500000D02*
G75*
G02*
X32318750Y-10450000I50000J0D01*
G01*
X33668750Y-11800000D02*
G75*
G02*
X33618750Y-11850000I-50000J0D01*
G01*
X32318750Y-11850000D02*
G75*
G02*
X32268750Y-11800000I0J50000D01*
G01*
X30811250Y-11800000D02*
G75*
G02*
X30761250Y-11850000I-50000J0D01*
G01*
X29411250Y-10500000D02*
G75*
G02*
X29461250Y-10450000I50000J0D01*
G01*
X29411250Y-10500000D02*
X29411250Y-11800000D01*
X29461250Y-11850000D02*
X30761250Y-11850000D01*
X34512550Y-12000000D02*
G75*
G02*
X34462550Y-12050000I-50000J0D01*
G01*
X32318750Y-10450000D02*
X33618750Y-10450000D01*
X33862550Y-10550000D02*
X34462550Y-10550000D01*
X33862550Y-12050000D02*
G75*
G02*
X33812550Y-12000000I0J50000D01*
G01*
X34462550Y-10550000D02*
G75*
G02*
X34512550Y-10600000I0J-50000D01*
G01*
X33812550Y-10600000D02*
G75*
G02*
X33862550Y-10550000I50000J0D01*
G01*
X33668750Y-10500000D02*
X33668750Y-11800000D01*
X29461250Y-11850000D02*
G75*
G02*
X29411250Y-11800000I0J50000D01*
G01*
X33618750Y-10450000D02*
G75*
G02*
X33668750Y-10500000I0J-50000D01*
G01*
X34512550Y-10600000D02*
X34512550Y-12000000D01*
X32318750Y-11850000D02*
X33618750Y-11850000D01*
X30761250Y-10450000D02*
G75*
G02*
X30811250Y-10500000I0J-50000D01*
G01*
X33812550Y-10600000D02*
X33812550Y-12000000D01*
X33862550Y-12050000D02*
X34462550Y-12050000D01*
X28906250Y-11800000D02*
G75*
G02*
X28856250Y-11850000I-50000J0D01*
G01*
X28856250Y-10450000D02*
G75*
G02*
X28906250Y-10500000I0J-50000D01*
G01*
X27506250Y-10500000D02*
X27506250Y-11800000D01*
X25651250Y-11850000D02*
G75*
G02*
X25601250Y-11800000I0J50000D01*
G01*
X26951250Y-10450000D02*
G75*
G02*
X27001250Y-10500000I0J-50000D01*
G01*
X23746250Y-11850000D02*
G75*
G02*
X23696250Y-11800000I0J50000D01*
G01*
X23696250Y-10500000D02*
X23696250Y-11800000D01*
X27556250Y-11850000D02*
G75*
G02*
X27506250Y-11800000I0J50000D01*
G01*
X27506250Y-10500000D02*
G75*
G02*
X27556250Y-10450000I50000J0D01*
G01*
X28906250Y-10500000D02*
X28906250Y-11800000D01*
X25096250Y-11800000D02*
G75*
G02*
X25046250Y-11850000I-50000J0D01*
G01*
X25096250Y-10500000D02*
X25096250Y-11800000D01*
X27556250Y-11850000D02*
X28856250Y-11850000D01*
X25651250Y-11850000D02*
X26951250Y-11850000D01*
X27556250Y-10450000D02*
X28856250Y-10450000D01*
X25601250Y-10500000D02*
G75*
G02*
X25651250Y-10450000I50000J0D01*
G01*
X27001250Y-10500000D02*
X27001250Y-11800000D01*
X25046250Y-10450000D02*
G75*
G02*
X25096250Y-10500000I0J-50000D01*
G01*
X23696250Y-10500000D02*
G75*
G02*
X23746250Y-10450000I50000J0D01*
G01*
X25651250Y-10450000D02*
X26951250Y-10450000D01*
X25601250Y-10500000D02*
X25601250Y-11800000D01*
X27001250Y-11800000D02*
G75*
G02*
X26951250Y-11850000I-50000J0D01*
G01*
X29461250Y-10450000D02*
X30761250Y-10450000D01*
X19331250Y-10450000D02*
G75*
G02*
X19381250Y-10500000I0J-50000D01*
G01*
X19886250Y-10500000D02*
X19886250Y-11800000D01*
X21841250Y-11850000D02*
G75*
G02*
X21791250Y-11800000I0J50000D01*
G01*
X23746250Y-11850000D02*
X25046250Y-11850000D01*
X19381250Y-11800000D02*
G75*
G02*
X19331250Y-11850000I-50000J0D01*
G01*
X21841250Y-10450000D02*
X23141250Y-10450000D01*
X23746250Y-10450000D02*
X25046250Y-10450000D01*
X23191250Y-11800000D02*
G75*
G02*
X23141250Y-11850000I-50000J0D01*
G01*
X21791250Y-10500000D02*
G75*
G02*
X21841250Y-10450000I50000J0D01*
G01*
X19936250Y-11850000D02*
X21236250Y-11850000D01*
X21286250Y-11800000D02*
G75*
G02*
X21236250Y-11850000I-50000J0D01*
G01*
X17981250Y-10500000D02*
G75*
G02*
X18031250Y-10450000I50000J0D01*
G01*
X19381250Y-10500000D02*
X19381250Y-11800000D01*
X23141250Y-10450000D02*
G75*
G02*
X23191250Y-10500000I0J-50000D01*
G01*
X23191250Y-10500000D02*
X23191250Y-11800000D01*
X21791250Y-10500000D02*
X21791250Y-11800000D01*
X19936250Y-10450000D02*
X21236250Y-10450000D01*
X21841250Y-11850000D02*
X23141250Y-11850000D01*
X19936250Y-11850000D02*
G75*
G02*
X19886250Y-11800000I0J50000D01*
G01*
X21236250Y-10450000D02*
G75*
G02*
X21286250Y-10500000I0J-50000D01*
G01*
X19886250Y-10500000D02*
G75*
G02*
X19936250Y-10450000I50000J0D01*
G01*
X21286250Y-10500000D02*
X21286250Y-11800000D01*
X18031250Y-11850000D02*
G75*
G02*
X17981250Y-11800000I0J50000D01*
G01*
X14221250Y-11850000D02*
X15521250Y-11850000D01*
X17981250Y-10500000D02*
X17981250Y-11800000D01*
X17426250Y-10450000D02*
G75*
G02*
X17476250Y-10500000I0J-50000D01*
G01*
X16076250Y-10500000D02*
G75*
G02*
X16126250Y-10450000I50000J0D01*
G01*
X14171250Y-10500000D02*
G75*
G02*
X14221250Y-10450000I50000J0D01*
G01*
X13666250Y-11800000D02*
G75*
G02*
X13616250Y-11850000I-50000J0D01*
G01*
X18031250Y-11850000D02*
X19331250Y-11850000D01*
X18031250Y-10450000D02*
X19331250Y-10450000D01*
X16126250Y-11850000D02*
G75*
G02*
X16076250Y-11800000I0J50000D01*
G01*
X12266250Y-10500000D02*
G75*
G02*
X12316250Y-10450000I50000J0D01*
G01*
X15571250Y-10500000D02*
X15571250Y-11800000D01*
X17476250Y-11800000D02*
G75*
G02*
X17426250Y-11850000I-50000J0D01*
G01*
X17476250Y-10500000D02*
X17476250Y-11800000D01*
X16076250Y-10500000D02*
X16076250Y-11800000D01*
X15571250Y-11800000D02*
G75*
G02*
X15521250Y-11850000I-50000J0D01*
G01*
X13616250Y-10450000D02*
G75*
G02*
X13666250Y-10500000I0J-50000D01*
G01*
X14221250Y-11850000D02*
G75*
G02*
X14171250Y-11800000I0J50000D01*
G01*
X16126250Y-11850000D02*
X17426250Y-11850000D01*
X14221250Y-10450000D02*
X15521250Y-10450000D01*
X16126250Y-10450000D02*
X17426250Y-10450000D01*
X12316250Y-11850000D02*
G75*
G02*
X12266250Y-11800000I0J50000D01*
G01*
X14171250Y-10500000D02*
X14171250Y-11800000D01*
X15521250Y-10450000D02*
G75*
G02*
X15571250Y-10500000I0J-50000D01*
G01*
X20412500Y-17565000D02*
X21712500Y-17565000D01*
X18507500Y-17565000D02*
G75*
G02*
X18457500Y-17515000I0J50000D01*
G01*
X14647500Y-16215000D02*
G75*
G02*
X14697500Y-16165000I50000J0D01*
G01*
X18507500Y-17565000D02*
X19807500Y-17565000D01*
X17952500Y-17515000D02*
G75*
G02*
X17902500Y-17565000I-50000J0D01*
G01*
X16047500Y-16215000D02*
X16047500Y-17515000D01*
X19807500Y-16165000D02*
G75*
G02*
X19857500Y-16215000I0J-50000D01*
G01*
X18457500Y-16215000D02*
G75*
G02*
X18507500Y-16165000I50000J0D01*
G01*
X14697500Y-17565000D02*
G75*
G02*
X14647500Y-17515000I0J50000D01*
G01*
X19857500Y-16215000D02*
X19857500Y-17515000D01*
X16602500Y-17565000D02*
G75*
G02*
X16552500Y-17515000I0J50000D01*
G01*
X16602500Y-16165000D02*
X17902500Y-16165000D01*
X16047500Y-17515000D02*
G75*
G02*
X15997500Y-17565000I-50000J0D01*
G01*
X19857500Y-17515000D02*
G75*
G02*
X19807500Y-17565000I-50000J0D01*
G01*
X17952500Y-16215000D02*
X17952500Y-17515000D01*
X18457500Y-16215000D02*
X18457500Y-17515000D01*
X14697500Y-16165000D02*
X15997500Y-16165000D01*
X16602500Y-17565000D02*
X17902500Y-17565000D01*
X16552500Y-16215000D02*
G75*
G02*
X16602500Y-16165000I50000J0D01*
G01*
X16552500Y-16215000D02*
X16552500Y-17515000D01*
X14142500Y-17515000D02*
G75*
G02*
X14092500Y-17565000I-50000J0D01*
G01*
X18507500Y-16165000D02*
X19807500Y-16165000D01*
X14647500Y-16215000D02*
X14647500Y-17515000D01*
X15997500Y-16165000D02*
G75*
G02*
X16047500Y-16215000I0J-50000D01*
G01*
X20412500Y-16165000D02*
X21712500Y-16165000D01*
X17902500Y-16165000D02*
G75*
G02*
X17952500Y-16215000I0J-50000D01*
G01*
X14697500Y-17565000D02*
X15997500Y-17565000D01*
X20362500Y-16215000D02*
X20362500Y-17515000D01*
X12237500Y-16215000D02*
X12237500Y-17515000D01*
X26525000Y-14310000D02*
X26525000Y-15610000D01*
X30335000Y-14310000D02*
X30335000Y-15610000D01*
X26525000Y-15610000D02*
G75*
G02*
X26475000Y-15660000I-50000J0D01*
G01*
X10887500Y-16165000D02*
X12187500Y-16165000D01*
X25175000Y-14260000D02*
X26475000Y-14260000D01*
X28985000Y-15660000D02*
X30285000Y-15660000D01*
X27030000Y-14310000D02*
G75*
G02*
X27080000Y-14260000I50000J0D01*
G01*
X28985000Y-15660000D02*
G75*
G02*
X28935000Y-15610000I0J50000D01*
G01*
X28935000Y-14310000D02*
X28935000Y-15610000D01*
X30285000Y-14260000D02*
G75*
G02*
X30335000Y-14310000I0J-50000D01*
G01*
X27080000Y-14260000D02*
X28380000Y-14260000D01*
X24620000Y-15610000D02*
G75*
G02*
X24570000Y-15660000I-50000J0D01*
G01*
X28935000Y-14310000D02*
G75*
G02*
X28985000Y-14260000I50000J0D01*
G01*
X28430000Y-15610000D02*
G75*
G02*
X28380000Y-15660000I-50000J0D01*
G01*
X27080000Y-15660000D02*
G75*
G02*
X27030000Y-15610000I0J50000D01*
G01*
X25175000Y-15660000D02*
G75*
G02*
X25125000Y-15610000I0J50000D01*
G01*
X30335000Y-15610000D02*
G75*
G02*
X30285000Y-15660000I-50000J0D01*
G01*
X12187500Y-16165000D02*
G75*
G02*
X12237500Y-16215000I0J-50000D01*
G01*
X28430000Y-14310000D02*
X28430000Y-15610000D01*
X12792500Y-17565000D02*
G75*
G02*
X12742500Y-17515000I0J50000D01*
G01*
X28985000Y-14260000D02*
X30285000Y-14260000D01*
X27030000Y-14310000D02*
X27030000Y-15610000D01*
X14092500Y-16165000D02*
G75*
G02*
X14142500Y-16215000I0J-50000D01*
G01*
X25125000Y-14310000D02*
G75*
G02*
X25175000Y-14260000I50000J0D01*
G01*
X26475000Y-14260000D02*
G75*
G02*
X26525000Y-14310000I0J-50000D01*
G01*
X25175000Y-15660000D02*
X26475000Y-15660000D01*
X12742500Y-16215000D02*
G75*
G02*
X12792500Y-16165000I50000J0D01*
G01*
X14142500Y-16215000D02*
X14142500Y-17515000D01*
X12237500Y-17515000D02*
G75*
G02*
X12187500Y-17565000I-50000J0D01*
G01*
X10837500Y-16215000D02*
X10837500Y-17515000D01*
X27080000Y-15660000D02*
X28380000Y-15660000D01*
X12742500Y-16215000D02*
X12742500Y-17515000D01*
X25125000Y-14310000D02*
X25125000Y-15610000D01*
X12792500Y-17565000D02*
X14092500Y-17565000D01*
X12792500Y-16165000D02*
X14092500Y-16165000D01*
X10887500Y-17565000D02*
X12187500Y-17565000D01*
X28380000Y-14260000D02*
G75*
G02*
X28430000Y-14310000I0J-50000D01*
G01*
X10887500Y-17565000D02*
G75*
G02*
X10837500Y-17515000I0J50000D01*
G01*
X10837500Y-16215000D02*
G75*
G02*
X10887500Y-16165000I50000J0D01*
G01*
X22188750Y-12355000D02*
G75*
G02*
X22238750Y-12405000I0J-50000D01*
G01*
X26603750Y-13755000D02*
G75*
G02*
X26553750Y-13705000I0J50000D01*
G01*
X24698750Y-13755000D02*
X25998750Y-13755000D01*
X24698750Y-12355000D02*
X25998750Y-12355000D01*
X24143750Y-13705000D02*
G75*
G02*
X24093750Y-13755000I-50000J0D01*
G01*
X22793750Y-13755000D02*
X24093750Y-13755000D01*
X27903750Y-12355000D02*
G75*
G02*
X27953750Y-12405000I0J-50000D01*
G01*
X22743750Y-12405000D02*
G75*
G02*
X22793750Y-12355000I50000J0D01*
G01*
X22793750Y-13755000D02*
G75*
G02*
X22743750Y-13705000I0J50000D01*
G01*
X28458750Y-12405000D02*
X28458750Y-13705000D01*
X28508750Y-12355000D02*
X29808750Y-12355000D01*
X26553750Y-12405000D02*
X26553750Y-13705000D01*
X25998750Y-12355000D02*
G75*
G02*
X26048750Y-12405000I0J-50000D01*
G01*
X26048750Y-13705000D02*
G75*
G02*
X25998750Y-13755000I-50000J0D01*
G01*
X24143750Y-12405000D02*
X24143750Y-13705000D01*
X24648750Y-12405000D02*
X24648750Y-13705000D01*
X28508750Y-13755000D02*
X29808750Y-13755000D01*
X26048750Y-12405000D02*
X26048750Y-13705000D01*
X31763750Y-13705000D02*
G75*
G02*
X31713750Y-13755000I-50000J0D01*
G01*
X24093750Y-12355000D02*
G75*
G02*
X24143750Y-12405000I0J-50000D01*
G01*
X27953750Y-13705000D02*
G75*
G02*
X27903750Y-13755000I-50000J0D01*
G01*
X30413750Y-13755000D02*
G75*
G02*
X30363750Y-13705000I0J50000D01*
G01*
X30363750Y-12405000D02*
X30363750Y-13705000D01*
X31713750Y-12355000D02*
G75*
G02*
X31763750Y-12405000I0J-50000D01*
G01*
X30363750Y-12405000D02*
G75*
G02*
X30413750Y-12355000I50000J0D01*
G01*
X29808750Y-12355000D02*
G75*
G02*
X29858750Y-12405000I0J-50000D01*
G01*
X22238750Y-13705000D02*
G75*
G02*
X22188750Y-13755000I-50000J0D01*
G01*
X22793750Y-12355000D02*
X24093750Y-12355000D01*
X31763750Y-12405000D02*
X31763750Y-13705000D01*
X30413750Y-13755000D02*
X31713750Y-13755000D01*
X26603750Y-13755000D02*
X27903750Y-13755000D01*
X30413750Y-12355000D02*
X31713750Y-12355000D01*
X22743750Y-12405000D02*
X22743750Y-13705000D01*
X29858750Y-13705000D02*
G75*
G02*
X29808750Y-13755000I-50000J0D01*
G01*
X28508750Y-13755000D02*
G75*
G02*
X28458750Y-13705000I0J50000D01*
G01*
X28458750Y-12405000D02*
G75*
G02*
X28508750Y-12355000I50000J0D01*
G01*
X27953750Y-12405000D02*
X27953750Y-13705000D01*
X29858750Y-12405000D02*
X29858750Y-13705000D01*
X26553750Y-12405000D02*
G75*
G02*
X26603750Y-12355000I50000J0D01*
G01*
X26603750Y-12355000D02*
X27903750Y-12355000D01*
X20888750Y-13755000D02*
G75*
G02*
X20838750Y-13705000I0J50000D01*
G01*
X24648750Y-12405000D02*
G75*
G02*
X24698750Y-12355000I50000J0D01*
G01*
X24698750Y-13755000D02*
G75*
G02*
X24648750Y-13705000I0J50000D01*
G01*
X15045000Y-14260000D02*
G75*
G02*
X15095000Y-14310000I0J-50000D01*
G01*
X13745000Y-15660000D02*
X15045000Y-15660000D01*
X24570000Y-14260000D02*
G75*
G02*
X24620000Y-14310000I0J-50000D01*
G01*
X23270000Y-15660000D02*
X24570000Y-15660000D01*
X23270000Y-14260000D02*
X24570000Y-14260000D01*
X15650000Y-14260000D02*
X16950000Y-14260000D01*
X21365000Y-14260000D02*
X22665000Y-14260000D01*
X17505000Y-14310000D02*
X17505000Y-15610000D01*
X16950000Y-14260000D02*
G75*
G02*
X17000000Y-14310000I0J-50000D01*
G01*
X15095000Y-15610000D02*
G75*
G02*
X15045000Y-15660000I-50000J0D01*
G01*
X17000000Y-15610000D02*
G75*
G02*
X16950000Y-15660000I-50000J0D01*
G01*
X19460000Y-15660000D02*
G75*
G02*
X19410000Y-15610000I0J50000D01*
G01*
X20760000Y-14260000D02*
G75*
G02*
X20810000Y-14310000I0J-50000D01*
G01*
X19410000Y-14310000D02*
G75*
G02*
X19460000Y-14260000I50000J0D01*
G01*
X17555000Y-15660000D02*
X18855000Y-15660000D01*
X15095000Y-14310000D02*
X15095000Y-15610000D01*
X17555000Y-15660000D02*
G75*
G02*
X17505000Y-15610000I0J50000D01*
G01*
X18855000Y-14260000D02*
G75*
G02*
X18905000Y-14310000I0J-50000D01*
G01*
X13745000Y-15660000D02*
G75*
G02*
X13695000Y-15610000I0J50000D01*
G01*
X23270000Y-15660000D02*
G75*
G02*
X23220000Y-15610000I0J50000D01*
G01*
X19460000Y-15660000D02*
X20760000Y-15660000D01*
X21315000Y-14310000D02*
X21315000Y-15610000D01*
X23220000Y-14310000D02*
X23220000Y-15610000D01*
X23220000Y-14310000D02*
G75*
G02*
X23270000Y-14260000I50000J0D01*
G01*
X21365000Y-15660000D02*
G75*
G02*
X21315000Y-15610000I0J50000D01*
G01*
X22715000Y-14310000D02*
X22715000Y-15610000D01*
X17000000Y-14310000D02*
X17000000Y-15610000D01*
X17505000Y-14310000D02*
G75*
G02*
X17555000Y-14260000I50000J0D01*
G01*
X22665000Y-14260000D02*
G75*
G02*
X22715000Y-14310000I0J-50000D01*
G01*
X19410000Y-14310000D02*
X19410000Y-15610000D01*
X15600000Y-14310000D02*
X15600000Y-15610000D01*
X15650000Y-15660000D02*
G75*
G02*
X15600000Y-15610000I0J50000D01*
G01*
X18905000Y-15610000D02*
G75*
G02*
X18855000Y-15660000I-50000J0D01*
G01*
X21365000Y-15660000D02*
X22665000Y-15660000D01*
X22715000Y-15610000D02*
G75*
G02*
X22665000Y-15660000I-50000J0D01*
G01*
X19460000Y-14260000D02*
X20760000Y-14260000D01*
X24620000Y-14310000D02*
X24620000Y-15610000D01*
X13695000Y-14310000D02*
X13695000Y-15610000D01*
X21315000Y-14310000D02*
G75*
G02*
X21365000Y-14260000I50000J0D01*
G01*
X15650000Y-15660000D02*
X16950000Y-15660000D01*
X20810000Y-14310000D02*
X20810000Y-15610000D01*
X15600000Y-14310000D02*
G75*
G02*
X15650000Y-14260000I50000J0D01*
G01*
X13695000Y-14310000D02*
G75*
G02*
X13745000Y-14260000I50000J0D01*
G01*
X20810000Y-15610000D02*
G75*
G02*
X20760000Y-15660000I-50000J0D01*
G01*
X18905000Y-14310000D02*
X18905000Y-15610000D01*
X17555000Y-14260000D02*
X18855000Y-14260000D01*
X6401250Y-19870000D02*
G75*
G02*
X6151250Y-19620000I0J250000D01*
G01*
X38831250Y-19620000D02*
G75*
G02*
X38581250Y-19870000I-250000J0D01*
G01*
X6151250Y-10015000D02*
G75*
G02*
X6401250Y-9765000I250000J0D01*
G01*
X6151250Y-19620000D02*
X6151250Y-10015000D01*
X6401250Y-19870000D02*
X38581250Y-19870000D01*
X38831250Y-19620000D02*
X38831250Y-16015000D01*
X35002500Y-9765000D02*
X6401250Y-9765000D01*
D11*
X6790025Y-9990000D02*
X7010025Y-10210000D01*
X7010025Y-9990000D02*
X6790025Y-10210000D01*
X8570025Y-18412000D02*
X8790025Y-18632000D01*
X8790025Y-18412000D02*
X8570025Y-18632000D01*
X22390025Y-12140000D02*
X22610025Y-12360000D01*
X22610025Y-12140000D02*
X22390025Y-12360000D01*
X23015025Y-17690000D02*
X23235025Y-17910000D01*
X23235025Y-17690000D02*
X23015025Y-17910000D01*
X36665025Y-17940000D02*
X36885025Y-18160000D01*
X36885025Y-17940000D02*
X36665025Y-18160000D01*
D12*
X6432678Y-20340714D02*
X6432678Y-20040714D01*
X6504107Y-20040714D01*
X6546964Y-20055000D01*
X6575536Y-20083572D01*
X6589821Y-20112143D01*
X6604107Y-20169286D01*
X6604107Y-20212143D01*
X6589821Y-20269286D01*
X6575536Y-20297857D01*
X6546964Y-20326429D01*
X6504107Y-20340714D01*
X6432678Y-20340714D01*
X6732678Y-20340714D02*
X6732678Y-20140714D01*
X6732678Y-20197857D02*
X6746964Y-20169286D01*
X6761250Y-20155000D01*
X6789821Y-20140714D01*
X6818393Y-20140714D01*
X6918393Y-20340714D02*
X6918393Y-20140714D01*
X6918393Y-20040714D02*
X6904107Y-20055000D01*
X6918393Y-20069286D01*
X6932678Y-20055000D01*
X6918393Y-20040714D01*
X6918393Y-20069286D01*
X7104107Y-20340714D02*
X7075536Y-20326429D01*
X7061250Y-20297857D01*
X7061250Y-20040714D01*
X7261250Y-20340714D02*
X7232678Y-20326429D01*
X7218393Y-20297857D01*
X7218393Y-20040714D01*
X7604107Y-20340714D02*
X7604107Y-20040714D01*
X7704107Y-20255000D01*
X7804107Y-20040714D01*
X7804107Y-20340714D01*
X8075536Y-20340714D02*
X8075536Y-20183572D01*
X8061250Y-20155000D01*
X8032678Y-20140714D01*
X7975536Y-20140714D01*
X7946964Y-20155000D01*
X8075536Y-20326429D02*
X8046964Y-20340714D01*
X7975536Y-20340714D01*
X7946964Y-20326429D01*
X7932678Y-20297857D01*
X7932678Y-20269286D01*
X7946964Y-20240714D01*
X7975536Y-20226429D01*
X8046964Y-20226429D01*
X8075536Y-20212143D01*
X8218393Y-20140714D02*
X8218393Y-20440714D01*
X8218393Y-20155000D02*
X8246964Y-20140714D01*
X8304107Y-20140714D01*
X8332678Y-20155000D01*
X8346964Y-20169286D01*
X8361250Y-20197857D01*
X8361250Y-20283572D01*
X8346964Y-20312143D01*
X8332678Y-20326429D01*
X8304107Y-20340714D01*
X8246964Y-20340714D01*
X8218393Y-20326429D01*
X8489821Y-20312143D02*
X8504107Y-20326429D01*
X8489821Y-20340714D01*
X8475536Y-20326429D01*
X8489821Y-20312143D01*
X8489821Y-20340714D01*
X8489821Y-20155000D02*
X8504107Y-20169286D01*
X8489821Y-20183572D01*
X8475536Y-20169286D01*
X8489821Y-20155000D01*
X8489821Y-20183572D01*
X5926250Y-20725000D02*
X6146250Y-20945000D01*
X6146250Y-20725000D02*
X5926250Y-20945000D01*
X6418393Y-20699286D02*
X6432678Y-20685000D01*
X6461250Y-20670714D01*
X6532678Y-20670714D01*
X6561250Y-20685000D01*
X6575536Y-20699286D01*
X6589821Y-20727857D01*
X6589821Y-20756429D01*
X6575536Y-20799286D01*
X6404107Y-20970714D01*
X6589821Y-20970714D01*
X6718393Y-20942143D02*
X6732678Y-20956429D01*
X6718393Y-20970714D01*
X6704107Y-20956429D01*
X6718393Y-20942143D01*
X6718393Y-20970714D01*
X6846964Y-20699286D02*
X6861250Y-20685000D01*
X6889821Y-20670714D01*
X6961250Y-20670714D01*
X6989821Y-20685000D01*
X7004107Y-20699286D01*
X7018393Y-20727857D01*
X7018393Y-20756429D01*
X7004107Y-20799286D01*
X6832678Y-20970714D01*
X7018393Y-20970714D01*
X7204107Y-20670714D02*
X7232678Y-20670714D01*
X7261250Y-20685000D01*
X7275536Y-20699286D01*
X7289821Y-20727857D01*
X7304107Y-20785000D01*
X7304107Y-20856429D01*
X7289821Y-20913572D01*
X7275536Y-20942143D01*
X7261250Y-20956429D01*
X7232678Y-20970714D01*
X7204107Y-20970714D01*
X7175536Y-20956429D01*
X7161250Y-20942143D01*
X7146964Y-20913572D01*
X7132678Y-20856429D01*
X7132678Y-20785000D01*
X7146964Y-20727857D01*
X7161250Y-20699286D01*
X7175536Y-20685000D01*
X7204107Y-20670714D01*
X7432678Y-20970714D02*
X7432678Y-20770714D01*
X7432678Y-20799286D02*
X7446964Y-20785000D01*
X7475536Y-20770714D01*
X7518393Y-20770714D01*
X7546964Y-20785000D01*
X7561250Y-20813572D01*
X7561250Y-20970714D01*
X7561250Y-20813572D02*
X7575536Y-20785000D01*
X7604107Y-20770714D01*
X7646964Y-20770714D01*
X7675536Y-20785000D01*
X7689821Y-20813572D01*
X7689821Y-20970714D01*
X7832678Y-20970714D02*
X7832678Y-20770714D01*
X7832678Y-20799286D02*
X7846964Y-20785000D01*
X7875536Y-20770714D01*
X7918393Y-20770714D01*
X7946964Y-20785000D01*
X7961250Y-20813572D01*
X7961250Y-20970714D01*
X7961250Y-20813572D02*
X7975536Y-20785000D01*
X8004107Y-20770714D01*
X8046964Y-20770714D01*
X8075536Y-20785000D01*
X8089821Y-20813572D01*
X8089821Y-20970714D01*
X8675536Y-20656429D02*
X8418393Y-21042143D01*
X9061250Y-20670714D02*
X9089821Y-20670714D01*
X9118393Y-20685000D01*
X9132678Y-20699286D01*
X9146964Y-20727857D01*
X9161250Y-20785000D01*
X9161250Y-20856429D01*
X9146964Y-20913572D01*
X9132678Y-20942143D01*
X9118393Y-20956429D01*
X9089821Y-20970714D01*
X9061250Y-20970714D01*
X9032678Y-20956429D01*
X9018393Y-20942143D01*
X9004107Y-20913572D01*
X8989821Y-20856429D01*
X8989821Y-20785000D01*
X9004107Y-20727857D01*
X9018393Y-20699286D01*
X9032678Y-20685000D01*
X9061250Y-20670714D01*
X9289821Y-20942143D02*
X9304107Y-20956429D01*
X9289821Y-20970714D01*
X9275536Y-20956429D01*
X9289821Y-20942143D01*
X9289821Y-20970714D01*
X9489821Y-20670714D02*
X9518393Y-20670714D01*
X9546964Y-20685000D01*
X9561250Y-20699286D01*
X9575536Y-20727857D01*
X9589821Y-20785000D01*
X9589821Y-20856429D01*
X9575536Y-20913572D01*
X9561250Y-20942143D01*
X9546964Y-20956429D01*
X9518393Y-20970714D01*
X9489821Y-20970714D01*
X9461250Y-20956429D01*
X9446964Y-20942143D01*
X9432678Y-20913572D01*
X9418393Y-20856429D01*
X9418393Y-20785000D01*
X9432678Y-20727857D01*
X9446964Y-20699286D01*
X9461250Y-20685000D01*
X9489821Y-20670714D01*
X9761250Y-20799286D02*
X9732678Y-20785000D01*
X9718393Y-20770714D01*
X9704107Y-20742143D01*
X9704107Y-20727857D01*
X9718393Y-20699286D01*
X9732678Y-20685000D01*
X9761250Y-20670714D01*
X9818393Y-20670714D01*
X9846964Y-20685000D01*
X9861250Y-20699286D01*
X9875536Y-20727857D01*
X9875536Y-20742143D01*
X9861250Y-20770714D01*
X9846964Y-20785000D01*
X9818393Y-20799286D01*
X9761250Y-20799286D01*
X9732678Y-20813572D01*
X9718393Y-20827857D01*
X9704107Y-20856429D01*
X9704107Y-20913572D01*
X9718393Y-20942143D01*
X9732678Y-20956429D01*
X9761250Y-20970714D01*
X9818393Y-20970714D01*
X9846964Y-20956429D01*
X9861250Y-20942143D01*
X9875536Y-20913572D01*
X9875536Y-20856429D01*
X9861250Y-20827857D01*
X9846964Y-20813572D01*
X9818393Y-20799286D01*
X9975536Y-20670714D02*
X10175536Y-20670714D01*
X10046964Y-20970714D01*
X10275536Y-20670714D02*
X10275536Y-20727857D01*
X10389821Y-20670714D02*
X10389821Y-20727857D01*
X10832678Y-21085000D02*
X10818393Y-21070714D01*
X10789821Y-21027857D01*
X10775536Y-20999286D01*
X10761250Y-20956429D01*
X10746964Y-20885000D01*
X10746964Y-20827857D01*
X10761250Y-20756429D01*
X10775536Y-20713572D01*
X10789821Y-20685000D01*
X10818393Y-20642143D01*
X10832678Y-20627857D01*
X11089821Y-20670714D02*
X10946964Y-20670714D01*
X10932678Y-20813572D01*
X10946964Y-20799286D01*
X10975536Y-20785000D01*
X11046964Y-20785000D01*
X11075536Y-20799286D01*
X11089821Y-20813572D01*
X11104107Y-20842143D01*
X11104107Y-20913572D01*
X11089821Y-20942143D01*
X11075536Y-20956429D01*
X11046964Y-20970714D01*
X10975536Y-20970714D01*
X10946964Y-20956429D01*
X10932678Y-20942143D01*
X11461250Y-20970714D02*
X11461250Y-20670714D01*
X11589821Y-20970714D02*
X11589821Y-20813572D01*
X11575536Y-20785000D01*
X11546964Y-20770714D01*
X11504107Y-20770714D01*
X11475536Y-20785000D01*
X11461250Y-20799286D01*
X11775536Y-20970714D02*
X11746964Y-20956429D01*
X11732678Y-20942143D01*
X11718393Y-20913572D01*
X11718393Y-20827857D01*
X11732678Y-20799286D01*
X11746964Y-20785000D01*
X11775536Y-20770714D01*
X11818393Y-20770714D01*
X11846964Y-20785000D01*
X11861250Y-20799286D01*
X11875536Y-20827857D01*
X11875536Y-20913572D01*
X11861250Y-20942143D01*
X11846964Y-20956429D01*
X11818393Y-20970714D01*
X11775536Y-20970714D01*
X12046964Y-20970714D02*
X12018393Y-20956429D01*
X12004107Y-20927857D01*
X12004107Y-20670714D01*
X12275536Y-20956429D02*
X12246964Y-20970714D01*
X12189821Y-20970714D01*
X12161250Y-20956429D01*
X12146964Y-20927857D01*
X12146964Y-20813572D01*
X12161250Y-20785000D01*
X12189821Y-20770714D01*
X12246964Y-20770714D01*
X12275536Y-20785000D01*
X12289821Y-20813572D01*
X12289821Y-20842143D01*
X12146964Y-20870714D01*
X12404107Y-20956429D02*
X12432678Y-20970714D01*
X12489821Y-20970714D01*
X12518393Y-20956429D01*
X12532678Y-20927857D01*
X12532678Y-20913572D01*
X12518393Y-20885000D01*
X12489821Y-20870714D01*
X12446964Y-20870714D01*
X12418393Y-20856429D01*
X12404107Y-20827857D01*
X12404107Y-20813572D01*
X12418393Y-20785000D01*
X12446964Y-20770714D01*
X12489821Y-20770714D01*
X12518393Y-20785000D01*
X12632678Y-21085000D02*
X12646964Y-21070714D01*
X12675536Y-21027857D01*
X12689821Y-20999286D01*
X12704107Y-20956429D01*
X12718393Y-20885000D01*
X12718393Y-20827857D01*
X12704107Y-20756429D01*
X12689821Y-20713572D01*
X12675536Y-20685000D01*
X12646964Y-20642143D01*
X12632678Y-20627857D01*
X13175536Y-21085000D02*
X13161250Y-21070714D01*
X13132678Y-21027857D01*
X13118393Y-20999286D01*
X13104107Y-20956429D01*
X13089821Y-20885000D01*
X13089821Y-20827857D01*
X13104107Y-20756429D01*
X13118393Y-20713572D01*
X13132678Y-20685000D01*
X13161250Y-20642143D01*
X13175536Y-20627857D01*
X13289821Y-20770714D02*
X13289821Y-20970714D01*
X13289821Y-20799286D02*
X13304107Y-20785000D01*
X13332678Y-20770714D01*
X13375536Y-20770714D01*
X13404107Y-20785000D01*
X13418393Y-20813572D01*
X13418393Y-20970714D01*
X13604107Y-20970714D02*
X13575536Y-20956429D01*
X13561250Y-20942143D01*
X13546964Y-20913572D01*
X13546964Y-20827857D01*
X13561250Y-20799286D01*
X13575536Y-20785000D01*
X13604107Y-20770714D01*
X13646964Y-20770714D01*
X13675536Y-20785000D01*
X13689821Y-20799286D01*
X13704107Y-20827857D01*
X13704107Y-20913572D01*
X13689821Y-20942143D01*
X13675536Y-20956429D01*
X13646964Y-20970714D01*
X13604107Y-20970714D01*
X13789821Y-20770714D02*
X13904107Y-20770714D01*
X13832678Y-20670714D02*
X13832678Y-20927857D01*
X13846964Y-20956429D01*
X13875536Y-20970714D01*
X13904107Y-20970714D01*
X14232678Y-20770714D02*
X14232678Y-21070714D01*
X14232678Y-20785000D02*
X14261250Y-20770714D01*
X14318393Y-20770714D01*
X14346964Y-20785000D01*
X14361250Y-20799286D01*
X14375536Y-20827857D01*
X14375536Y-20913572D01*
X14361250Y-20942143D01*
X14346964Y-20956429D01*
X14318393Y-20970714D01*
X14261250Y-20970714D01*
X14232678Y-20956429D01*
X14546964Y-20970714D02*
X14518393Y-20956429D01*
X14504107Y-20927857D01*
X14504107Y-20670714D01*
X14789821Y-20970714D02*
X14789821Y-20813572D01*
X14775536Y-20785000D01*
X14746964Y-20770714D01*
X14689821Y-20770714D01*
X14661250Y-20785000D01*
X14789821Y-20956429D02*
X14761250Y-20970714D01*
X14689821Y-20970714D01*
X14661250Y-20956429D01*
X14646964Y-20927857D01*
X14646964Y-20899286D01*
X14661250Y-20870714D01*
X14689821Y-20856429D01*
X14761250Y-20856429D01*
X14789821Y-20842143D01*
X14889821Y-20770714D02*
X15004107Y-20770714D01*
X14932678Y-20670714D02*
X14932678Y-20927857D01*
X14946964Y-20956429D01*
X14975536Y-20970714D01*
X15004107Y-20970714D01*
X15218393Y-20956429D02*
X15189821Y-20970714D01*
X15132678Y-20970714D01*
X15104107Y-20956429D01*
X15089821Y-20927857D01*
X15089821Y-20813572D01*
X15104107Y-20785000D01*
X15132678Y-20770714D01*
X15189821Y-20770714D01*
X15218393Y-20785000D01*
X15232678Y-20813572D01*
X15232678Y-20842143D01*
X15089821Y-20870714D01*
X15489821Y-20970714D02*
X15489821Y-20670714D01*
X15489821Y-20956429D02*
X15461250Y-20970714D01*
X15404107Y-20970714D01*
X15375536Y-20956429D01*
X15361250Y-20942143D01*
X15346964Y-20913572D01*
X15346964Y-20827857D01*
X15361250Y-20799286D01*
X15375536Y-20785000D01*
X15404107Y-20770714D01*
X15461250Y-20770714D01*
X15489821Y-20785000D01*
X15604107Y-21085000D02*
X15618393Y-21070714D01*
X15646964Y-21027857D01*
X15661250Y-20999286D01*
X15675536Y-20956429D01*
X15689821Y-20885000D01*
X15689821Y-20827857D01*
X15675536Y-20756429D01*
X15661250Y-20713572D01*
X15646964Y-20685000D01*
X15618393Y-20642143D01*
X15604107Y-20627857D01*
M02*
