G04 #@! TF.GenerationSoftware,KiCad,Pcbnew,(5.1.10)-1*
G04 #@! TF.CreationDate,2021-10-05T15:19:37+01:00*
G04 #@! TF.ProjectId,EnvKB65-SwitchPlate,456e764b-4236-4352-9d53-776974636850,rev?*
G04 #@! TF.SameCoordinates,Original*
G04 #@! TF.FileFunction,Soldermask,Top*
G04 #@! TF.FilePolarity,Negative*
%FSLAX46Y46*%
G04 Gerber Fmt 4.6, Leading zero omitted, Abs format (unit mm)*
G04 Created by KiCad (PCBNEW (5.1.10)-1) date 2021-10-05 15:19:37*
%MOMM*%
%LPD*%
G01*
G04 APERTURE LIST*
%ADD10C,0.200000*%
%ADD11C,4.300000*%
G04 APERTURE END LIST*
D10*
X325605499Y-101491666D02*
X325605499Y-99741666D01*
X326188833Y-100991666D01*
X326772166Y-99741666D01*
X326772166Y-101491666D01*
X328272166Y-101408333D02*
X328105499Y-101491666D01*
X327772166Y-101491666D01*
X327605499Y-101408333D01*
X327522166Y-101241666D01*
X327522166Y-100575000D01*
X327605499Y-100408333D01*
X327772166Y-100325000D01*
X328105499Y-100325000D01*
X328272166Y-100408333D01*
X328355499Y-100575000D01*
X328355499Y-100741666D01*
X327522166Y-100908333D01*
X329855499Y-101408333D02*
X329688833Y-101491666D01*
X329355499Y-101491666D01*
X329188833Y-101408333D01*
X329105499Y-101325000D01*
X329022166Y-101158333D01*
X329022166Y-100658333D01*
X329105499Y-100491666D01*
X329188833Y-100408333D01*
X329355499Y-100325000D01*
X329688833Y-100325000D01*
X329855499Y-100408333D01*
X330605499Y-101491666D02*
X330605499Y-99741666D01*
X331355499Y-101491666D02*
X331355499Y-100575000D01*
X331272166Y-100408333D01*
X331105499Y-100325000D01*
X330855499Y-100325000D01*
X330688833Y-100408333D01*
X330605499Y-100491666D01*
X332188833Y-101491666D02*
X332188833Y-99741666D01*
X332188833Y-100408333D02*
X332355499Y-100325000D01*
X332688833Y-100325000D01*
X332855499Y-100408333D01*
X332938833Y-100491666D01*
X333022166Y-100658333D01*
X333022166Y-101158333D01*
X332938833Y-101325000D01*
X332855499Y-101408333D01*
X332688833Y-101491666D01*
X332355499Y-101491666D01*
X332188833Y-101408333D01*
X334022166Y-101491666D02*
X333855499Y-101408333D01*
X333772166Y-101325000D01*
X333688833Y-101158333D01*
X333688833Y-100658333D01*
X333772166Y-100491666D01*
X333855499Y-100408333D01*
X334022166Y-100325000D01*
X334272166Y-100325000D01*
X334438833Y-100408333D01*
X334522166Y-100491666D01*
X334605499Y-100658333D01*
X334605499Y-101158333D01*
X334522166Y-101325000D01*
X334438833Y-101408333D01*
X334272166Y-101491666D01*
X334022166Y-101491666D01*
X336105499Y-101491666D02*
X336105499Y-100575000D01*
X336022166Y-100408333D01*
X335855499Y-100325000D01*
X335522166Y-100325000D01*
X335355499Y-100408333D01*
X336105499Y-101408333D02*
X335938833Y-101491666D01*
X335522166Y-101491666D01*
X335355499Y-101408333D01*
X335272166Y-101241666D01*
X335272166Y-101075000D01*
X335355499Y-100908333D01*
X335522166Y-100825000D01*
X335938833Y-100825000D01*
X336105499Y-100741666D01*
X336938833Y-101491666D02*
X336938833Y-100325000D01*
X336938833Y-100658333D02*
X337022166Y-100491666D01*
X337105499Y-100408333D01*
X337272166Y-100325000D01*
X337438833Y-100325000D01*
X338772166Y-101491666D02*
X338772166Y-99741666D01*
X338772166Y-101408333D02*
X338605499Y-101491666D01*
X338272166Y-101491666D01*
X338105499Y-101408333D01*
X338022166Y-101325000D01*
X337938833Y-101158333D01*
X337938833Y-100658333D01*
X338022166Y-100491666D01*
X338105499Y-100408333D01*
X338272166Y-100325000D01*
X338605499Y-100325000D01*
X338772166Y-100408333D01*
X339522166Y-101408333D02*
X339688833Y-101491666D01*
X340022166Y-101491666D01*
X340188833Y-101408333D01*
X340272166Y-101241666D01*
X340272166Y-101158333D01*
X340188833Y-100991666D01*
X340022166Y-100908333D01*
X339772166Y-100908333D01*
X339605499Y-100825000D01*
X339522166Y-100658333D01*
X339522166Y-100575000D01*
X339605499Y-100408333D01*
X339772166Y-100325000D01*
X340022166Y-100325000D01*
X340188833Y-100408333D01*
X341022166Y-101325000D02*
X341105499Y-101408333D01*
X341022166Y-101491666D01*
X340938833Y-101408333D01*
X341022166Y-101325000D01*
X341022166Y-101491666D01*
X342605499Y-101408333D02*
X342438833Y-101491666D01*
X342105499Y-101491666D01*
X341938833Y-101408333D01*
X341855499Y-101325000D01*
X341772166Y-101158333D01*
X341772166Y-100658333D01*
X341855499Y-100491666D01*
X341938833Y-100408333D01*
X342105499Y-100325000D01*
X342438833Y-100325000D01*
X342605499Y-100408333D01*
X343605499Y-101491666D02*
X343438833Y-101408333D01*
X343355499Y-101325000D01*
X343272166Y-101158333D01*
X343272166Y-100658333D01*
X343355499Y-100491666D01*
X343438833Y-100408333D01*
X343605499Y-100325000D01*
X343855499Y-100325000D01*
X344022166Y-100408333D01*
X344105499Y-100491666D01*
X344188833Y-100658333D01*
X344188833Y-101158333D01*
X344105499Y-101325000D01*
X344022166Y-101408333D01*
X343855499Y-101491666D01*
X343605499Y-101491666D01*
X344938833Y-101325000D02*
X345022166Y-101408333D01*
X344938833Y-101491666D01*
X344855499Y-101408333D01*
X344938833Y-101325000D01*
X344938833Y-101491666D01*
X346522166Y-100325000D02*
X346522166Y-101491666D01*
X345772166Y-100325000D02*
X345772166Y-101241666D01*
X345855499Y-101408333D01*
X346022166Y-101491666D01*
X346272166Y-101491666D01*
X346438833Y-101408333D01*
X346522166Y-101325000D01*
X347355499Y-101491666D02*
X347355499Y-99741666D01*
X347522166Y-100825000D02*
X348022166Y-101491666D01*
X348022166Y-100325000D02*
X347355499Y-100991666D01*
D11*
X251125250Y-183475000D03*
X251125500Y-183475000D03*
X224900250Y-121600000D03*
X224900500Y-121600000D03*
X367800250Y-178200000D03*
X367800500Y-178200000D03*
X86800250Y-185220000D03*
X86800500Y-185220000D03*
X69000250Y-101000000D03*
X69000500Y-101000000D03*
M02*
