G04 #@! TF.GenerationSoftware,KiCad,Pcbnew,(5.1.9)-1*
G04 #@! TF.CreationDate,2021-05-31T01:00:15+01:00*
G04 #@! TF.ProjectId,EnvKB65-SwitchPlate,456e764b-4236-4352-9d53-776974636850,rev?*
G04 #@! TF.SameCoordinates,Original*
G04 #@! TF.FileFunction,Copper,L1,Top*
G04 #@! TF.FilePolarity,Positive*
%FSLAX46Y46*%
G04 Gerber Fmt 4.6, Leading zero omitted, Abs format (unit mm)*
G04 Created by KiCad (PCBNEW (5.1.9)-1) date 2021-05-31 01:00:15*
%MOMM*%
%LPD*%
G01*
G04 APERTURE LIST*
G04 #@! TA.AperFunction,NonConductor*
%ADD10C,0.200000*%
G04 #@! TD*
G04 APERTURE END LIST*
D10*
X72487142Y-101678571D02*
X72487142Y-100178571D01*
X73130000Y-101678571D02*
X73130000Y-100892857D01*
X73058571Y-100750000D01*
X72915714Y-100678571D01*
X72701428Y-100678571D01*
X72558571Y-100750000D01*
X72487142Y-100821428D01*
X73630000Y-100678571D02*
X74201428Y-100678571D01*
X73844285Y-100178571D02*
X73844285Y-101464285D01*
X73915714Y-101607142D01*
X74058571Y-101678571D01*
X74201428Y-101678571D01*
X74487142Y-100678571D02*
X75058571Y-100678571D01*
X74701428Y-100178571D02*
X74701428Y-101464285D01*
X74772857Y-101607142D01*
X74915714Y-101678571D01*
X75058571Y-101678571D01*
X75558571Y-100678571D02*
X75558571Y-102178571D01*
X75558571Y-100750000D02*
X75701428Y-100678571D01*
X75987142Y-100678571D01*
X76130000Y-100750000D01*
X76201428Y-100821428D01*
X76272857Y-100964285D01*
X76272857Y-101392857D01*
X76201428Y-101535714D01*
X76130000Y-101607142D01*
X75987142Y-101678571D01*
X75701428Y-101678571D01*
X75558571Y-101607142D01*
X76915714Y-101535714D02*
X76987142Y-101607142D01*
X76915714Y-101678571D01*
X76844285Y-101607142D01*
X76915714Y-101535714D01*
X76915714Y-101678571D01*
X76915714Y-100750000D02*
X76987142Y-100821428D01*
X76915714Y-100892857D01*
X76844285Y-100821428D01*
X76915714Y-100750000D01*
X76915714Y-100892857D01*
X78701428Y-100107142D02*
X77415714Y-102035714D01*
X80272857Y-100107142D02*
X78987142Y-102035714D01*
X81415714Y-100678571D02*
X81415714Y-101892857D01*
X81344285Y-102035714D01*
X81272857Y-102107142D01*
X81130000Y-102178571D01*
X80915714Y-102178571D01*
X80772857Y-102107142D01*
X81415714Y-101607142D02*
X81272857Y-101678571D01*
X80987142Y-101678571D01*
X80844285Y-101607142D01*
X80772857Y-101535714D01*
X80701428Y-101392857D01*
X80701428Y-100964285D01*
X80772857Y-100821428D01*
X80844285Y-100750000D01*
X80987142Y-100678571D01*
X81272857Y-100678571D01*
X81415714Y-100750000D01*
X82130000Y-101678571D02*
X82130000Y-100678571D01*
X82130000Y-100178571D02*
X82058571Y-100250000D01*
X82130000Y-100321428D01*
X82201428Y-100250000D01*
X82130000Y-100178571D01*
X82130000Y-100321428D01*
X82630000Y-100678571D02*
X83201428Y-100678571D01*
X82844285Y-100178571D02*
X82844285Y-101464285D01*
X82915714Y-101607142D01*
X83058571Y-101678571D01*
X83201428Y-101678571D01*
X83701428Y-101678571D02*
X83701428Y-100178571D01*
X84344285Y-101678571D02*
X84344285Y-100892857D01*
X84272857Y-100750000D01*
X84130000Y-100678571D01*
X83915714Y-100678571D01*
X83772857Y-100750000D01*
X83701428Y-100821428D01*
X85701428Y-100678571D02*
X85701428Y-101678571D01*
X85058571Y-100678571D02*
X85058571Y-101464285D01*
X85130000Y-101607142D01*
X85272857Y-101678571D01*
X85487142Y-101678571D01*
X85630000Y-101607142D01*
X85701428Y-101535714D01*
X86415714Y-101678571D02*
X86415714Y-100178571D01*
X86415714Y-100750000D02*
X86558571Y-100678571D01*
X86844285Y-100678571D01*
X86987142Y-100750000D01*
X87058571Y-100821428D01*
X87130000Y-100964285D01*
X87130000Y-101392857D01*
X87058571Y-101535714D01*
X86987142Y-101607142D01*
X86844285Y-101678571D01*
X86558571Y-101678571D01*
X86415714Y-101607142D01*
X87772857Y-101535714D02*
X87844285Y-101607142D01*
X87772857Y-101678571D01*
X87701428Y-101607142D01*
X87772857Y-101535714D01*
X87772857Y-101678571D01*
X89130000Y-101607142D02*
X88987142Y-101678571D01*
X88701428Y-101678571D01*
X88558571Y-101607142D01*
X88487142Y-101535714D01*
X88415714Y-101392857D01*
X88415714Y-100964285D01*
X88487142Y-100821428D01*
X88558571Y-100750000D01*
X88701428Y-100678571D01*
X88987142Y-100678571D01*
X89130000Y-100750000D01*
X89987142Y-101678571D02*
X89844285Y-101607142D01*
X89772857Y-101535714D01*
X89701428Y-101392857D01*
X89701428Y-100964285D01*
X89772857Y-100821428D01*
X89844285Y-100750000D01*
X89987142Y-100678571D01*
X90201428Y-100678571D01*
X90344285Y-100750000D01*
X90415714Y-100821428D01*
X90487142Y-100964285D01*
X90487142Y-101392857D01*
X90415714Y-101535714D01*
X90344285Y-101607142D01*
X90201428Y-101678571D01*
X89987142Y-101678571D01*
X91130000Y-101678571D02*
X91130000Y-100678571D01*
X91130000Y-100821428D02*
X91201428Y-100750000D01*
X91344285Y-100678571D01*
X91558571Y-100678571D01*
X91701428Y-100750000D01*
X91772857Y-100892857D01*
X91772857Y-101678571D01*
X91772857Y-100892857D02*
X91844285Y-100750000D01*
X91987142Y-100678571D01*
X92201428Y-100678571D01*
X92344285Y-100750000D01*
X92415714Y-100892857D01*
X92415714Y-101678571D01*
X94201428Y-100107142D02*
X92915714Y-102035714D01*
X94701428Y-100892857D02*
X95201428Y-100892857D01*
X95415714Y-101678571D02*
X94701428Y-101678571D01*
X94701428Y-100178571D01*
X95415714Y-100178571D01*
X96058571Y-100678571D02*
X96058571Y-101678571D01*
X96058571Y-100821428D02*
X96130000Y-100750000D01*
X96272857Y-100678571D01*
X96487142Y-100678571D01*
X96630000Y-100750000D01*
X96701428Y-100892857D01*
X96701428Y-101678571D01*
X97272857Y-100678571D02*
X97630000Y-101678571D01*
X97987142Y-100678571D01*
X98558571Y-101678571D02*
X98558571Y-100678571D01*
X98558571Y-100178571D02*
X98487142Y-100250000D01*
X98558571Y-100321428D01*
X98630000Y-100250000D01*
X98558571Y-100178571D01*
X98558571Y-100321428D01*
X99487142Y-101678571D02*
X99344285Y-101607142D01*
X99272857Y-101535714D01*
X99201428Y-101392857D01*
X99201428Y-100964285D01*
X99272857Y-100821428D01*
X99344285Y-100750000D01*
X99487142Y-100678571D01*
X99701428Y-100678571D01*
X99844285Y-100750000D01*
X99915714Y-100821428D01*
X99987142Y-100964285D01*
X99987142Y-101392857D01*
X99915714Y-101535714D01*
X99844285Y-101607142D01*
X99701428Y-101678571D01*
X99487142Y-101678571D01*
X101272857Y-100678571D02*
X101272857Y-101678571D01*
X100630000Y-100678571D02*
X100630000Y-101464285D01*
X100701428Y-101607142D01*
X100844285Y-101678571D01*
X101058571Y-101678571D01*
X101201428Y-101607142D01*
X101272857Y-101535714D01*
X101915714Y-101607142D02*
X102058571Y-101678571D01*
X102344285Y-101678571D01*
X102487142Y-101607142D01*
X102558571Y-101464285D01*
X102558571Y-101392857D01*
X102487142Y-101250000D01*
X102344285Y-101178571D01*
X102130000Y-101178571D01*
X101987142Y-101107142D01*
X101915714Y-100964285D01*
X101915714Y-100892857D01*
X101987142Y-100750000D01*
X102130000Y-100678571D01*
X102344285Y-100678571D01*
X102487142Y-100750000D01*
X103201428Y-101107142D02*
X104344285Y-101107142D01*
X105058571Y-101678571D02*
X105058571Y-100178571D01*
X105415714Y-100178571D01*
X105630000Y-100250000D01*
X105772857Y-100392857D01*
X105844285Y-100535714D01*
X105915714Y-100821428D01*
X105915714Y-101035714D01*
X105844285Y-101321428D01*
X105772857Y-101464285D01*
X105630000Y-101607142D01*
X105415714Y-101678571D01*
X105058571Y-101678571D01*
X107201428Y-101678571D02*
X107201428Y-100892857D01*
X107130000Y-100750000D01*
X106987142Y-100678571D01*
X106701428Y-100678571D01*
X106558571Y-100750000D01*
X107201428Y-101607142D02*
X107058571Y-101678571D01*
X106701428Y-101678571D01*
X106558571Y-101607142D01*
X106487142Y-101464285D01*
X106487142Y-101321428D01*
X106558571Y-101178571D01*
X106701428Y-101107142D01*
X107058571Y-101107142D01*
X107201428Y-101035714D01*
X107701428Y-100678571D02*
X108272857Y-100678571D01*
X107915714Y-100178571D02*
X107915714Y-101464285D01*
X107987142Y-101607142D01*
X108130000Y-101678571D01*
X108272857Y-101678571D01*
X109415714Y-101678571D02*
X109415714Y-100892857D01*
X109344285Y-100750000D01*
X109201428Y-100678571D01*
X108915714Y-100678571D01*
X108772857Y-100750000D01*
X109415714Y-101607142D02*
X109272857Y-101678571D01*
X108915714Y-101678571D01*
X108772857Y-101607142D01*
X108701428Y-101464285D01*
X108701428Y-101321428D01*
X108772857Y-101178571D01*
X108915714Y-101107142D01*
X109272857Y-101107142D01*
X109415714Y-101035714D01*
X111201428Y-100107142D02*
X109915714Y-102035714D01*
X111701428Y-100892857D02*
X112201428Y-100892857D01*
X112415714Y-101678571D02*
X111701428Y-101678571D01*
X111701428Y-100178571D01*
X112415714Y-100178571D01*
X113058571Y-100678571D02*
X113058571Y-101678571D01*
X113058571Y-100821428D02*
X113130000Y-100750000D01*
X113272857Y-100678571D01*
X113487142Y-100678571D01*
X113630000Y-100750000D01*
X113701428Y-100892857D01*
X113701428Y-101678571D01*
X114272857Y-100678571D02*
X114630000Y-101678571D01*
X114987142Y-100678571D01*
X115558571Y-101107142D02*
X116701428Y-101107142D01*
X117415714Y-101678571D02*
X117415714Y-100178571D01*
X118272857Y-101678571D02*
X117630000Y-100821428D01*
X118272857Y-100178571D02*
X117415714Y-101035714D01*
X119415714Y-100892857D02*
X119630000Y-100964285D01*
X119701428Y-101035714D01*
X119772857Y-101178571D01*
X119772857Y-101392857D01*
X119701428Y-101535714D01*
X119630000Y-101607142D01*
X119487142Y-101678571D01*
X118915714Y-101678571D01*
X118915714Y-100178571D01*
X119415714Y-100178571D01*
X119558571Y-100250000D01*
X119630000Y-100321428D01*
X119701428Y-100464285D01*
X119701428Y-100607142D01*
X119630000Y-100750000D01*
X119558571Y-100821428D01*
X119415714Y-100892857D01*
X118915714Y-100892857D01*
X121058571Y-100178571D02*
X120772857Y-100178571D01*
X120630000Y-100250000D01*
X120558571Y-100321428D01*
X120415714Y-100535714D01*
X120344285Y-100821428D01*
X120344285Y-101392857D01*
X120415714Y-101535714D01*
X120487142Y-101607142D01*
X120630000Y-101678571D01*
X120915714Y-101678571D01*
X121058571Y-101607142D01*
X121130000Y-101535714D01*
X121201428Y-101392857D01*
X121201428Y-101035714D01*
X121130000Y-100892857D01*
X121058571Y-100821428D01*
X120915714Y-100750000D01*
X120630000Y-100750000D01*
X120487142Y-100821428D01*
X120415714Y-100892857D01*
X120344285Y-101035714D01*
X122558571Y-100178571D02*
X121844285Y-100178571D01*
X121772857Y-100892857D01*
X121844285Y-100821428D01*
X121987142Y-100750000D01*
X122344285Y-100750000D01*
X122487142Y-100821428D01*
X122558571Y-100892857D01*
X122630000Y-101035714D01*
X122630000Y-101392857D01*
X122558571Y-101535714D01*
X122487142Y-101607142D01*
X122344285Y-101678571D01*
X121987142Y-101678571D01*
X121844285Y-101607142D01*
X121772857Y-101535714D01*
X123272857Y-101678571D02*
X123272857Y-100178571D01*
X123772857Y-101250000D01*
X124272857Y-100178571D01*
X124272857Y-101678571D01*
M02*
