G04 #@! TF.GenerationSoftware,KiCad,Pcbnew,(5.1.10)-1*
G04 #@! TF.CreationDate,2021-10-05T15:19:37+01:00*
G04 #@! TF.ProjectId,EnvKB65-SwitchPlate,456e764b-4236-4352-9d53-776974636850,rev?*
G04 #@! TF.SameCoordinates,Original*
G04 #@! TF.FileFunction,Profile,NP*
%FSLAX46Y46*%
G04 Gerber Fmt 4.6, Leading zero omitted, Abs format (unit mm)*
G04 Created by KiCad (PCBNEW (5.1.10)-1) date 2021-10-05 15:19:37*
%MOMM*%
%LPD*%
G01*
G04 APERTURE LIST*
G04 #@! TA.AperFunction,Profile*
%ADD10C,0.100000*%
G04 #@! TD*
G04 APERTURE END LIST*
D10*
X350025000Y-97650000D02*
X64012500Y-97650000D01*
X341450000Y-124803800D02*
X341450000Y-123553900D01*
X342581000Y-147304400D02*
X342581000Y-147078200D01*
X342581000Y-147078200D02*
X343831000Y-147078200D01*
X342360000Y-124803800D02*
X341450000Y-124803800D01*
X343831000Y-147078200D02*
X343831000Y-133078900D01*
X341450000Y-133078900D02*
X341450000Y-131553501D01*
X342360000Y-131553501D02*
X342360000Y-124803800D01*
X341450000Y-123553900D02*
X327450000Y-123553900D01*
X343831000Y-133078900D02*
X341450000Y-133078900D01*
X343405000Y-147304400D02*
X342581000Y-147304400D01*
X341450000Y-131553501D02*
X342360000Y-131553501D01*
X317054000Y-156603200D02*
X334306000Y-156603200D01*
X317054000Y-157573400D02*
X317054000Y-156603200D01*
X308400000Y-156603200D02*
X313755000Y-156603200D01*
X329830000Y-137553200D02*
X329830000Y-142603900D01*
X313755000Y-157573400D02*
X317054000Y-157573400D01*
X313755000Y-156603200D02*
X313755000Y-157573400D01*
X327450000Y-123553900D02*
X327450000Y-137553200D01*
X327450000Y-137553200D02*
X329830000Y-137553200D01*
X329830000Y-142603900D02*
X308400000Y-142603900D01*
X308400000Y-142603900D02*
X308400000Y-156603200D01*
X343405000Y-150103300D02*
X343405000Y-147304400D01*
X342581000Y-150103300D02*
X343405000Y-150103300D01*
X342581000Y-156373200D02*
X342581000Y-150103300D01*
X334306000Y-155353300D02*
X335830000Y-155353300D01*
X340856000Y-156373200D02*
X342581000Y-156373200D01*
X340856000Y-157573400D02*
X340856000Y-156373200D01*
X337555000Y-157573400D02*
X340856000Y-157573400D01*
X335830000Y-156373200D02*
X337555000Y-156373200D01*
X337555000Y-156373200D02*
X337555000Y-157573400D01*
X335830000Y-155353300D02*
X335830000Y-156373200D01*
X334306000Y-156603200D02*
X334306000Y-155353300D01*
X322688000Y-104503900D02*
X322688000Y-109204400D01*
X314413000Y-109204400D02*
X313587000Y-109204400D01*
X314413000Y-105974300D02*
X314413000Y-109204400D01*
X321162000Y-105974300D02*
X314413000Y-105974300D01*
X322688000Y-109204400D02*
X321162000Y-109204400D01*
X321162000Y-109204400D02*
X321162000Y-105974300D01*
X140580000Y-185404400D02*
X139755900Y-185404400D01*
X171131000Y-194473230D02*
X171131000Y-190004270D01*
X145605600Y-194473230D02*
X147331100Y-194473230D01*
X140580000Y-188203160D02*
X140580000Y-194473230D01*
X169406000Y-194473230D02*
X171131000Y-194473230D01*
X169406000Y-195673500D02*
X169406000Y-194473230D01*
X166105000Y-195673500D02*
X169406000Y-195673500D01*
X162855800Y-190004270D02*
X164380000Y-190004270D01*
X166105000Y-194473230D02*
X166105000Y-195673500D01*
X148855100Y-190004270D02*
X148855100Y-194703360D01*
X164380000Y-194473230D02*
X166105000Y-194473230D01*
X164380000Y-190004270D02*
X164380000Y-194473230D01*
X147331100Y-190004270D02*
X148855100Y-190004270D01*
X147331100Y-194473230D02*
X147331100Y-190004270D01*
X140580000Y-194473230D02*
X142305000Y-194473230D01*
X142305000Y-194473230D02*
X142305000Y-195673500D01*
X139755900Y-188203160D02*
X140580000Y-188203160D01*
X147331100Y-182174200D02*
X140580000Y-182174200D01*
X148855100Y-180703900D02*
X148855100Y-185404400D01*
X140580000Y-182174200D02*
X140580000Y-185404400D01*
X145605600Y-195673500D02*
X145605600Y-194473230D01*
X139755900Y-185404400D02*
X139755900Y-188203160D01*
X147331100Y-185404400D02*
X147331100Y-182174200D01*
X148855100Y-185404400D02*
X147331100Y-185404400D01*
X162855800Y-194703360D02*
X162855800Y-190004270D01*
X148855100Y-194703360D02*
X162855800Y-194703360D01*
X142305000Y-195673500D02*
X145605600Y-195673500D01*
X338213000Y-109204400D02*
X336687000Y-109204400D01*
X344962000Y-109204400D02*
X344962000Y-105974300D01*
X336687000Y-104503900D02*
X322688000Y-104503900D01*
X338213000Y-105974300D02*
X338213000Y-109204400D01*
X336687000Y-109204400D02*
X336687000Y-104503900D01*
X344962000Y-105974300D02*
X338213000Y-105974300D01*
X319436999Y-118273200D02*
X321162000Y-118273200D01*
X319436999Y-119473400D02*
X319436999Y-118273200D01*
X314413000Y-112003300D02*
X314413000Y-118273200D01*
X313587000Y-112003300D02*
X314413000Y-112003300D01*
X345788000Y-109204400D02*
X344962000Y-109204400D01*
X345788000Y-112003300D02*
X345788000Y-109204400D01*
X344962000Y-112003300D02*
X345788000Y-112003300D01*
X344962000Y-118273200D02*
X344962000Y-112003300D01*
X343237000Y-118273200D02*
X344962000Y-118273200D01*
X322688000Y-118503200D02*
X336687000Y-118503200D01*
X322688000Y-113804200D02*
X322688000Y-118503200D01*
X321162000Y-118273200D02*
X321162000Y-113804200D01*
X313587000Y-109204400D02*
X313587000Y-112003300D01*
X343237000Y-119473400D02*
X343237000Y-118273200D01*
X339938000Y-119473400D02*
X343237000Y-119473400D01*
X339938000Y-118273200D02*
X339938000Y-119473400D01*
X314413000Y-118273200D02*
X316136000Y-118273200D01*
X338213000Y-113804200D02*
X338213000Y-118273200D01*
X316136000Y-119473400D02*
X319436999Y-119473400D01*
X316136000Y-118273200D02*
X316136000Y-119473400D01*
X338213000Y-118273200D02*
X339938000Y-118273200D01*
X336687000Y-113804200D02*
X338213000Y-113804200D01*
X336687000Y-118503200D02*
X336687000Y-113804200D01*
X321162000Y-113804200D02*
X322688000Y-113804200D01*
X186955000Y-180703900D02*
X186955000Y-185404400D01*
X225055000Y-180703900D02*
X225055000Y-185404400D01*
X162855800Y-185404400D02*
X162855800Y-180703900D01*
X225055000Y-185404400D02*
X223531000Y-185404400D01*
X200956000Y-180703900D02*
X186955000Y-180703900D01*
X164380000Y-185404400D02*
X162855800Y-185404400D01*
X223531000Y-185404400D02*
X223531000Y-182174200D01*
X216780000Y-182174200D02*
X216780000Y-185404400D01*
X200956000Y-185404400D02*
X200956000Y-180703900D01*
X186955000Y-185404400D02*
X171131000Y-185404400D01*
X223531000Y-182174200D02*
X216780000Y-182174200D01*
X239056000Y-180703900D02*
X225055000Y-180703900D01*
X216780000Y-185404400D02*
X200956000Y-185404400D01*
X171131000Y-182174200D02*
X164380000Y-182174200D01*
X239056000Y-185404400D02*
X239056000Y-180703900D01*
X164380000Y-182174200D02*
X164380000Y-185404400D01*
X171131000Y-185404400D02*
X171131000Y-182174200D01*
X240580000Y-185404400D02*
X239056000Y-185404400D01*
X162855800Y-180703900D02*
X148855100Y-180703900D01*
X223531000Y-190004270D02*
X225055000Y-190004270D01*
X221806000Y-194473230D02*
X223531000Y-194473230D01*
X216780000Y-194473230D02*
X218505000Y-194473230D01*
X186955000Y-190004270D02*
X186955000Y-194703360D01*
X216780000Y-190004270D02*
X216780000Y-194473230D01*
X186955000Y-194703360D02*
X200956000Y-194703360D01*
X240580000Y-190004270D02*
X240580000Y-194473230D01*
X240580000Y-182174200D02*
X240580000Y-185404400D01*
X247331000Y-182174200D02*
X240580000Y-182174200D01*
X218505000Y-195673500D02*
X221806000Y-195673500D01*
X247331000Y-185404400D02*
X247331000Y-182174200D01*
X248155000Y-185404400D02*
X247331000Y-185404400D01*
X248155000Y-188203160D02*
X248155000Y-185404400D01*
X240580000Y-194473230D02*
X242305000Y-194473230D01*
X225055000Y-194703360D02*
X239056000Y-194703360D01*
X200956000Y-190004270D02*
X216780000Y-190004270D01*
X218505000Y-194473230D02*
X218505000Y-195673500D01*
X239056000Y-194703360D02*
X239056000Y-190004270D01*
X200956000Y-194703360D02*
X200956000Y-190004270D01*
X247331000Y-188203160D02*
X248155000Y-188203160D01*
X247331000Y-194473230D02*
X247331000Y-188203160D01*
X245606000Y-194473230D02*
X247331000Y-194473230D01*
X245606000Y-195673500D02*
X245606000Y-194473230D01*
X242305000Y-195673500D02*
X245606000Y-195673500D01*
X242305000Y-194473230D02*
X242305000Y-195673500D01*
X239056000Y-190004270D02*
X240580000Y-190004270D01*
X223531000Y-194473230D02*
X223531000Y-190004270D01*
X221806000Y-195673500D02*
X221806000Y-194473230D01*
X225055000Y-190004270D02*
X225055000Y-194703360D01*
X171131000Y-190004270D02*
X186955000Y-190004270D01*
X103324500Y-161654000D02*
X67893910Y-161654000D01*
X70869090Y-176623500D02*
X74168100Y-176623500D01*
X70869090Y-175653400D02*
X70869090Y-176623500D01*
X97968200Y-176623500D02*
X97968200Y-175653400D01*
X74168100Y-176623500D02*
X74168100Y-175653400D01*
X67893910Y-175653400D02*
X70869090Y-175653400D01*
X67893910Y-161654000D02*
X67893910Y-175653400D01*
X103324500Y-175653400D02*
X103324500Y-161654000D01*
X94667800Y-175653400D02*
X94667800Y-176623500D01*
X74168100Y-175653400D02*
X94667800Y-175653400D01*
X94667800Y-176623500D02*
X97968200Y-176623500D01*
X97968200Y-175653400D02*
X103324500Y-175653400D01*
X350025000Y-97650000D02*
G75*
G02*
X352525000Y-100150000I0J-2500000D01*
G01*
X352525000Y-155150000D02*
X352525000Y-100150000D01*
X355025000Y-157650000D02*
G75*
G02*
X352525000Y-155150000I0J2500000D01*
G01*
X385812500Y-157650000D02*
X355025000Y-157650000D01*
X385812500Y-157650000D02*
G75*
G02*
X388312500Y-160150000I0J-2500000D01*
G01*
X384312500Y-181200000D02*
X384312500Y-194200000D01*
X351262500Y-181200000D02*
G75*
G02*
X351762500Y-180700000I500000J0D01*
G01*
X365262500Y-194200000D02*
G75*
G02*
X364762500Y-194700000I-500000J0D01*
G01*
X351762500Y-180700000D02*
X364762500Y-180700000D01*
X332212500Y-181200000D02*
G75*
G02*
X332712500Y-180700000I500000J0D01*
G01*
X346212500Y-194200000D02*
G75*
G02*
X345712500Y-194700000I-500000J0D01*
G01*
X383812500Y-180700000D02*
G75*
G02*
X384312500Y-181200000I0J-500000D01*
G01*
X370312500Y-181200000D02*
G75*
G02*
X370812500Y-180700000I500000J0D01*
G01*
X346212500Y-181200000D02*
X346212500Y-194200000D01*
X351762500Y-194700000D02*
X364762500Y-194700000D01*
X384312500Y-194200000D02*
G75*
G02*
X383812500Y-194700000I-500000J0D01*
G01*
X364762500Y-180700000D02*
G75*
G02*
X365262500Y-181200000I0J-500000D01*
G01*
X365262500Y-181200000D02*
X365262500Y-194200000D01*
X351262500Y-181200000D02*
X351262500Y-194200000D01*
X370812500Y-180700000D02*
X383812500Y-180700000D01*
X370812500Y-194700000D02*
G75*
G02*
X370312500Y-194200000I0J500000D01*
G01*
X370312500Y-181200000D02*
X370312500Y-194200000D01*
X351762500Y-194700000D02*
G75*
G02*
X351262500Y-194200000I0J500000D01*
G01*
X345712500Y-180700000D02*
G75*
G02*
X346212500Y-181200000I0J-500000D01*
G01*
X370812500Y-194700000D02*
X383812500Y-194700000D01*
X332712500Y-194700000D02*
G75*
G02*
X332212500Y-194200000I0J500000D01*
G01*
X105206250Y-180700000D02*
G75*
G02*
X105706250Y-181200000I0J-500000D01*
G01*
X115518750Y-181200000D02*
G75*
G02*
X116018750Y-180700000I500000J0D01*
G01*
X91706250Y-181200000D02*
G75*
G02*
X92206250Y-180700000I500000J0D01*
G01*
X67893750Y-181200000D02*
X67893750Y-194200000D01*
X68393750Y-194700000D02*
X81393750Y-194700000D01*
X67893750Y-181200000D02*
G75*
G02*
X68393750Y-180700000I500000J0D01*
G01*
X105706250Y-194200000D02*
G75*
G02*
X105206250Y-194700000I-500000J0D01*
G01*
X116018750Y-194700000D02*
X129018750Y-194700000D01*
X370312500Y-162150000D02*
G75*
G02*
X370812500Y-161650000I500000J0D01*
G01*
X116018750Y-180700000D02*
X129018750Y-180700000D01*
X81393750Y-180700000D02*
G75*
G02*
X81893750Y-181200000I0J-500000D01*
G01*
X370812500Y-175650000D02*
G75*
G02*
X370312500Y-175150000I0J500000D01*
G01*
X129518750Y-181200000D02*
X129518750Y-194200000D01*
X115518750Y-181200000D02*
X115518750Y-194200000D01*
X92206250Y-194700000D02*
X105206250Y-194700000D01*
X92206250Y-194700000D02*
G75*
G02*
X91706250Y-194200000I0J500000D01*
G01*
X105706250Y-181200000D02*
X105706250Y-194200000D01*
X92206250Y-180700000D02*
X105206250Y-180700000D01*
X81893750Y-194200000D02*
G75*
G02*
X81393750Y-194700000I-500000J0D01*
G01*
X68393750Y-194700000D02*
G75*
G02*
X67893750Y-194200000I0J500000D01*
G01*
X68393750Y-180700000D02*
X81393750Y-180700000D01*
X81893750Y-181200000D02*
X81893750Y-194200000D01*
X384312500Y-162150000D02*
X384312500Y-175150000D01*
X116018750Y-194700000D02*
G75*
G02*
X115518750Y-194200000I0J500000D01*
G01*
X91706250Y-181200000D02*
X91706250Y-194200000D01*
X129018750Y-180700000D02*
G75*
G02*
X129518750Y-181200000I0J-500000D01*
G01*
X384312500Y-175150000D02*
G75*
G02*
X383812500Y-175650000I-500000J0D01*
G01*
X383812500Y-161650000D02*
G75*
G02*
X384312500Y-162150000I0J-500000D01*
G01*
X260775000Y-162150000D02*
G75*
G02*
X261275000Y-161650000I500000J0D01*
G01*
X293325000Y-161650000D02*
G75*
G02*
X293825000Y-162150000I0J-500000D01*
G01*
X274775000Y-162150000D02*
X274775000Y-175150000D01*
X332712500Y-175650000D02*
G75*
G02*
X332212500Y-175150000I0J500000D01*
G01*
X345712500Y-161650000D02*
G75*
G02*
X346212500Y-162150000I0J-500000D01*
G01*
X306018750Y-162150000D02*
G75*
G02*
X306518750Y-161650000I500000J0D01*
G01*
X280325000Y-175650000D02*
X293325000Y-175650000D01*
X280325000Y-161650000D02*
X293325000Y-161650000D01*
X346212500Y-162150000D02*
X346212500Y-175150000D01*
X217625000Y-162150000D02*
X217625000Y-175150000D01*
X332712500Y-175650000D02*
X345712500Y-175650000D01*
X236675000Y-162150000D02*
X236675000Y-175150000D01*
X320018750Y-162150000D02*
X320018750Y-175150000D01*
X279825000Y-162150000D02*
X279825000Y-175150000D01*
X274275000Y-161650000D02*
G75*
G02*
X274775000Y-162150000I0J-500000D01*
G01*
X217125000Y-161650000D02*
G75*
G02*
X217625000Y-162150000I0J-500000D01*
G01*
X293825000Y-175150000D02*
G75*
G02*
X293325000Y-175650000I-500000J0D01*
G01*
X241725000Y-162150000D02*
G75*
G02*
X242225000Y-161650000I500000J0D01*
G01*
X203625000Y-162150000D02*
G75*
G02*
X204125000Y-161650000I500000J0D01*
G01*
X255725000Y-162150000D02*
X255725000Y-175150000D01*
X223175000Y-175650000D02*
G75*
G02*
X222675000Y-175150000I0J500000D01*
G01*
X351762500Y-175650000D02*
X364762500Y-175650000D01*
X261275000Y-161650000D02*
X274275000Y-161650000D01*
X217625000Y-175150000D02*
G75*
G02*
X217125000Y-175650000I-500000J0D01*
G01*
X365262500Y-162150000D02*
X365262500Y-175150000D01*
X306018750Y-162150000D02*
X306018750Y-175150000D01*
X351262500Y-162150000D02*
X351262500Y-175150000D01*
X255225000Y-161650000D02*
G75*
G02*
X255725000Y-162150000I0J-500000D01*
G01*
X293825000Y-162150000D02*
X293825000Y-175150000D01*
X274775000Y-175150000D02*
G75*
G02*
X274275000Y-175650000I-500000J0D01*
G01*
X260775000Y-162150000D02*
X260775000Y-175150000D01*
X255725000Y-175150000D02*
G75*
G02*
X255225000Y-175650000I-500000J0D01*
G01*
X241725000Y-162150000D02*
X241725000Y-175150000D01*
X261275000Y-175650000D02*
X274275000Y-175650000D01*
X320018750Y-175150000D02*
G75*
G02*
X319518750Y-175650000I-500000J0D01*
G01*
X204125000Y-175650000D02*
G75*
G02*
X203625000Y-175150000I0J500000D01*
G01*
X242225000Y-175650000D02*
G75*
G02*
X241725000Y-175150000I0J500000D01*
G01*
X370312500Y-162150000D02*
X370312500Y-175150000D01*
X370812500Y-175650000D02*
X383812500Y-175650000D01*
X370812500Y-161650000D02*
X383812500Y-161650000D01*
X365262500Y-175150000D02*
G75*
G02*
X364762500Y-175650000I-500000J0D01*
G01*
X351762500Y-175650000D02*
G75*
G02*
X351262500Y-175150000I0J500000D01*
G01*
X306518750Y-175650000D02*
G75*
G02*
X306018750Y-175150000I0J500000D01*
G01*
X332212500Y-162150000D02*
X332212500Y-175150000D01*
X279825000Y-162150000D02*
G75*
G02*
X280325000Y-161650000I500000J0D01*
G01*
X364762500Y-161650000D02*
G75*
G02*
X365262500Y-162150000I0J-500000D01*
G01*
X242225000Y-175650000D02*
X255225000Y-175650000D01*
X261275000Y-175650000D02*
G75*
G02*
X260775000Y-175150000I0J500000D01*
G01*
X222675000Y-162150000D02*
X222675000Y-175150000D01*
X351262500Y-162150000D02*
G75*
G02*
X351762500Y-161650000I500000J0D01*
G01*
X242225000Y-161650000D02*
X255225000Y-161650000D01*
X280325000Y-175650000D02*
G75*
G02*
X279825000Y-175150000I0J500000D01*
G01*
X223175000Y-161650000D02*
X236175000Y-161650000D01*
X351762500Y-161650000D02*
X364762500Y-161650000D01*
X332712500Y-161650000D02*
X345712500Y-161650000D01*
X319518750Y-161650000D02*
G75*
G02*
X320018750Y-162150000I0J-500000D01*
G01*
X222675000Y-162150000D02*
G75*
G02*
X223175000Y-161650000I500000J0D01*
G01*
X306518750Y-161650000D02*
X319518750Y-161650000D01*
X223175000Y-175650000D02*
X236175000Y-175650000D01*
X236675000Y-175150000D02*
G75*
G02*
X236175000Y-175650000I-500000J0D01*
G01*
X346212500Y-175150000D02*
G75*
G02*
X345712500Y-175650000I-500000J0D01*
G01*
X332212500Y-162150000D02*
G75*
G02*
X332712500Y-161650000I500000J0D01*
G01*
X306518750Y-175650000D02*
X319518750Y-175650000D01*
X236175000Y-161650000D02*
G75*
G02*
X236675000Y-162150000I0J-500000D01*
G01*
X108087500Y-124050000D02*
X108087500Y-137050000D01*
X94087500Y-124050000D02*
X94087500Y-137050000D01*
X70275000Y-124050000D02*
X70275000Y-137050000D01*
X70775000Y-123550000D02*
X83775000Y-123550000D01*
X84275000Y-137050000D02*
G75*
G02*
X83775000Y-137550000I-500000J0D01*
G01*
X70775000Y-137550000D02*
G75*
G02*
X70275000Y-137050000I0J500000D01*
G01*
X83775000Y-123550000D02*
G75*
G02*
X84275000Y-124050000I0J-500000D01*
G01*
X70275000Y-124050000D02*
G75*
G02*
X70775000Y-123550000I500000J0D01*
G01*
X94587500Y-123550000D02*
X107587500Y-123550000D01*
X84275000Y-124050000D02*
X84275000Y-137050000D01*
X94587500Y-137550000D02*
G75*
G02*
X94087500Y-137050000I0J500000D01*
G01*
X70775000Y-137550000D02*
X83775000Y-137550000D01*
X94587500Y-137550000D02*
X107587500Y-137550000D01*
X107587500Y-123550000D02*
G75*
G02*
X108087500Y-124050000I0J-500000D01*
G01*
X94087500Y-124050000D02*
G75*
G02*
X94587500Y-123550000I500000J0D01*
G01*
X122662500Y-105000000D02*
X122662500Y-117999999D01*
X117612500Y-117999999D02*
G75*
G02*
X117112500Y-118499999I-500000J0D01*
G01*
X104112500Y-104500000D02*
X117112500Y-104500000D01*
X66012500Y-118499999D02*
G75*
G02*
X65512500Y-117999999I0J500000D01*
G01*
X117612500Y-105000000D02*
X117612500Y-117999999D01*
X136662500Y-105000000D02*
X136662500Y-117999999D01*
X104112500Y-118499999D02*
G75*
G02*
X103612500Y-117999999I0J500000D01*
G01*
X84562500Y-105000000D02*
X84562500Y-117999999D01*
X117112500Y-104500000D02*
G75*
G02*
X117612500Y-105000000I0J-500000D01*
G01*
X84562500Y-105000000D02*
G75*
G02*
X85062500Y-104500000I500000J0D01*
G01*
X85062500Y-118499999D02*
X98062500Y-118499999D01*
X79012499Y-104500000D02*
G75*
G02*
X79512499Y-105000000I0J-500000D01*
G01*
X79512499Y-117999999D02*
G75*
G02*
X79012499Y-118499999I-500000J0D01*
G01*
X123162500Y-118499999D02*
X136162500Y-118499999D01*
X123162500Y-104500000D02*
X136162500Y-104500000D01*
X98562500Y-117999999D02*
G75*
G02*
X98062500Y-118499999I-500000J0D01*
G01*
X103612500Y-105000000D02*
G75*
G02*
X104112500Y-104500000I500000J0D01*
G01*
X104112500Y-118499999D02*
X117112500Y-118499999D01*
X85062500Y-118499999D02*
G75*
G02*
X84562500Y-117999999I0J500000D01*
G01*
X85062500Y-104500000D02*
X98062500Y-104500000D01*
X103612500Y-105000000D02*
X103612500Y-117999999D01*
X98062500Y-104500000D02*
G75*
G02*
X98562500Y-105000000I0J-500000D01*
G01*
X98562500Y-105000000D02*
X98562500Y-117999999D01*
X129518750Y-194200000D02*
G75*
G02*
X129018750Y-194700000I-500000J0D01*
G01*
X327162500Y-181200000D02*
X327162500Y-194200000D01*
X313662500Y-180700000D02*
X326662500Y-180700000D01*
X294112500Y-181200000D02*
G75*
G02*
X294612500Y-180700000I500000J0D01*
G01*
X308112500Y-181200000D02*
X308112500Y-194200000D01*
X275562500Y-180700000D02*
X288562500Y-180700000D01*
X294612500Y-194700000D02*
X307612500Y-194700000D01*
X294612500Y-180700000D02*
X307612500Y-180700000D01*
X288562500Y-180700000D02*
G75*
G02*
X289062500Y-181200000I0J-500000D01*
G01*
X289062500Y-181200000D02*
X289062500Y-194200000D01*
X269512500Y-180700000D02*
G75*
G02*
X270012500Y-181200000I0J-500000D01*
G01*
X256012500Y-181200000D02*
G75*
G02*
X256512500Y-180700000I500000J0D01*
G01*
X270012500Y-181200000D02*
X270012500Y-194200000D01*
X256512500Y-194700000D02*
X269512500Y-194700000D01*
X256512500Y-180700000D02*
X269512500Y-180700000D01*
X256012500Y-181200000D02*
X256012500Y-194200000D01*
X270012500Y-194200000D02*
G75*
G02*
X269512500Y-194700000I-500000J0D01*
G01*
X332212500Y-181200000D02*
X332212500Y-194200000D01*
X332712500Y-194700000D02*
X345712500Y-194700000D01*
X332712500Y-180700000D02*
X345712500Y-180700000D01*
X327162500Y-194200000D02*
G75*
G02*
X326662500Y-194700000I-500000J0D01*
G01*
X313662500Y-194700000D02*
G75*
G02*
X313162500Y-194200000I0J500000D01*
G01*
X326662500Y-180700000D02*
G75*
G02*
X327162500Y-181200000I0J-500000D01*
G01*
X313162500Y-181200000D02*
X313162500Y-194200000D01*
X308112500Y-194200000D02*
G75*
G02*
X307612500Y-194700000I-500000J0D01*
G01*
X294612500Y-194700000D02*
G75*
G02*
X294112500Y-194200000I0J500000D01*
G01*
X307612500Y-180700000D02*
G75*
G02*
X308112500Y-181200000I0J-500000D01*
G01*
X289062500Y-194200000D02*
G75*
G02*
X288562500Y-194700000I-500000J0D01*
G01*
X275062500Y-181200000D02*
X275062500Y-194200000D01*
X294112500Y-181200000D02*
X294112500Y-194200000D01*
X256512500Y-194700000D02*
G75*
G02*
X256012500Y-194200000I0J500000D01*
G01*
X313662500Y-194700000D02*
X326662500Y-194700000D01*
X275562500Y-194700000D02*
X288562500Y-194700000D01*
X313162500Y-181200000D02*
G75*
G02*
X313662500Y-180700000I500000J0D01*
G01*
X275562500Y-194700000D02*
G75*
G02*
X275062500Y-194200000I0J500000D01*
G01*
X275062500Y-181200000D02*
G75*
G02*
X275562500Y-180700000I500000J0D01*
G01*
X208887500Y-123550000D02*
X221887500Y-123550000D01*
X203337500Y-137050000D02*
G75*
G02*
X202837500Y-137550000I-500000J0D01*
G01*
X151237500Y-124050000D02*
G75*
G02*
X151737500Y-123550000I500000J0D01*
G01*
X113637500Y-137550000D02*
G75*
G02*
X113137500Y-137050000I0J500000D01*
G01*
X189337500Y-124050000D02*
X189337500Y-137050000D01*
X184287500Y-124050000D02*
X184287500Y-137050000D01*
X189837500Y-137550000D02*
G75*
G02*
X189337500Y-137050000I0J500000D01*
G01*
X202837500Y-123550000D02*
G75*
G02*
X203337500Y-124050000I0J-500000D01*
G01*
X113137500Y-124050000D02*
G75*
G02*
X113637500Y-123550000I500000J0D01*
G01*
X189337500Y-124050000D02*
G75*
G02*
X189837500Y-123550000I500000J0D01*
G01*
X132687500Y-123550000D02*
X145687500Y-123550000D01*
X203337500Y-124050000D02*
X203337500Y-137050000D01*
X189837500Y-137550000D02*
X202837500Y-137550000D01*
X170787500Y-123550000D02*
X183787500Y-123550000D01*
X145687500Y-123550000D02*
G75*
G02*
X146187500Y-124050000I0J-500000D01*
G01*
X132187500Y-124050000D02*
G75*
G02*
X132687500Y-123550000I500000J0D01*
G01*
X113637500Y-123550000D02*
X126637500Y-123550000D01*
X189837500Y-123550000D02*
X202837500Y-123550000D01*
X170787500Y-137550000D02*
G75*
G02*
X170287500Y-137050000I0J500000D01*
G01*
X170287500Y-124050000D02*
G75*
G02*
X170787500Y-123550000I500000J0D01*
G01*
X132687500Y-137550000D02*
G75*
G02*
X132187500Y-137050000I0J500000D01*
G01*
X127137500Y-137050000D02*
G75*
G02*
X126637500Y-137550000I-500000J0D01*
G01*
X151737500Y-123550000D02*
X164737500Y-123550000D01*
X146187500Y-124050000D02*
X146187500Y-137050000D01*
X170787500Y-137550000D02*
X183787500Y-137550000D01*
X108087500Y-137050000D02*
G75*
G02*
X107587500Y-137550000I-500000J0D01*
G01*
X146187500Y-137050000D02*
G75*
G02*
X145687500Y-137550000I-500000J0D01*
G01*
X208387500Y-124050000D02*
G75*
G02*
X208887500Y-123550000I500000J0D01*
G01*
X151237500Y-124050000D02*
X151237500Y-137050000D01*
X222387500Y-124050000D02*
X222387500Y-137050000D01*
X184287500Y-137050000D02*
G75*
G02*
X183787500Y-137550000I-500000J0D01*
G01*
X170287500Y-124050000D02*
X170287500Y-137050000D01*
X165237500Y-124050000D02*
X165237500Y-137050000D01*
X132187500Y-124050000D02*
X132187500Y-137050000D01*
X127137500Y-124050000D02*
X127137500Y-137050000D01*
X183787500Y-123550000D02*
G75*
G02*
X184287500Y-124050000I0J-500000D01*
G01*
X164737500Y-123550000D02*
G75*
G02*
X165237500Y-124050000I0J-500000D01*
G01*
X113637500Y-137550000D02*
X126637500Y-137550000D01*
X132687500Y-137550000D02*
X145687500Y-137550000D01*
X151737500Y-137550000D02*
X164737500Y-137550000D01*
X126637500Y-123550000D02*
G75*
G02*
X127137500Y-124050000I0J-500000D01*
G01*
X151737500Y-137550000D02*
G75*
G02*
X151237500Y-137050000I0J500000D01*
G01*
X113137500Y-124050000D02*
X113137500Y-137050000D01*
X165237500Y-137050000D02*
G75*
G02*
X164737500Y-137550000I-500000J0D01*
G01*
X208387500Y-124050000D02*
X208387500Y-137050000D01*
X208887500Y-137550000D02*
X221887500Y-137550000D01*
X79512499Y-105000000D02*
X79512499Y-117999999D01*
X66012500Y-104500000D02*
X79012499Y-104500000D01*
X65512500Y-105000000D02*
G75*
G02*
X66012500Y-104500000I500000J0D01*
G01*
X65512500Y-105000000D02*
X65512500Y-117999999D01*
X66012500Y-118499999D02*
X79012499Y-118499999D01*
X99350000Y-156600000D02*
G75*
G02*
X98850000Y-156100000I0J500000D01*
G01*
X72656250Y-143100000D02*
X72656250Y-156100000D01*
X86656250Y-143100000D02*
X86656250Y-156100000D01*
X137450000Y-142600000D02*
X150450000Y-142600000D01*
X131900000Y-156100000D02*
G75*
G02*
X131400000Y-156600000I-500000J0D01*
G01*
X118400000Y-156600000D02*
X131400000Y-156600000D01*
X98850000Y-143100000D02*
G75*
G02*
X99350000Y-142600000I500000J0D01*
G01*
X118400000Y-142600000D02*
X131400000Y-142600000D01*
X86156250Y-142600000D02*
G75*
G02*
X86656250Y-143100000I0J-500000D01*
G01*
X72656250Y-143100000D02*
G75*
G02*
X73156250Y-142600000I500000J0D01*
G01*
X112850000Y-143100000D02*
X112850000Y-156100000D01*
X98850000Y-143100000D02*
X98850000Y-156100000D01*
X86656250Y-156100000D02*
G75*
G02*
X86156250Y-156600000I-500000J0D01*
G01*
X73156250Y-156600000D02*
G75*
G02*
X72656250Y-156100000I0J500000D01*
G01*
X118400000Y-156600000D02*
G75*
G02*
X117900000Y-156100000I0J500000D01*
G01*
X131400000Y-142600000D02*
G75*
G02*
X131900000Y-143100000I0J-500000D01*
G01*
X112850000Y-156100000D02*
G75*
G02*
X112350000Y-156600000I-500000J0D01*
G01*
X131900000Y-143100000D02*
X131900000Y-156100000D01*
X117900000Y-143100000D02*
G75*
G02*
X118400000Y-142600000I500000J0D01*
G01*
X99350000Y-142600000D02*
X112350000Y-142600000D01*
X73156250Y-156600000D02*
X86156250Y-156600000D01*
X73156250Y-142600000D02*
X86156250Y-142600000D01*
X117900000Y-143100000D02*
X117900000Y-156100000D01*
X112350000Y-142600000D02*
G75*
G02*
X112850000Y-143100000I0J-500000D01*
G01*
X99350000Y-156600000D02*
X112350000Y-156600000D01*
X308112500Y-105000000D02*
X308112500Y-117999999D01*
X308112500Y-117999999D02*
G75*
G02*
X307612500Y-118499999I-500000J0D01*
G01*
X294112500Y-105000000D02*
G75*
G02*
X294612500Y-104500000I500000J0D01*
G01*
X294112500Y-105000000D02*
X294112500Y-117999999D01*
X294612500Y-118499999D02*
X307612500Y-118499999D01*
X294612500Y-118499999D02*
G75*
G02*
X294112500Y-117999999I0J500000D01*
G01*
X307612500Y-104500000D02*
G75*
G02*
X308112500Y-105000000I0J-500000D01*
G01*
X289062500Y-117999999D02*
G75*
G02*
X288562500Y-118499999I-500000J0D01*
G01*
X288562500Y-104500000D02*
G75*
G02*
X289062500Y-105000000I0J-500000D01*
G01*
X275062500Y-105000000D02*
X275062500Y-117999999D01*
X256512500Y-118499999D02*
G75*
G02*
X256012500Y-117999999I0J500000D01*
G01*
X269512500Y-104500000D02*
G75*
G02*
X270012500Y-105000000I0J-500000D01*
G01*
X237462500Y-118499999D02*
G75*
G02*
X236962500Y-117999999I0J500000D01*
G01*
X236962500Y-105000000D02*
X236962500Y-117999999D01*
X275562500Y-118499999D02*
G75*
G02*
X275062500Y-117999999I0J500000D01*
G01*
X275062500Y-105000000D02*
G75*
G02*
X275562500Y-104500000I500000J0D01*
G01*
X289062500Y-105000000D02*
X289062500Y-117999999D01*
X250962500Y-117999999D02*
G75*
G02*
X250462500Y-118499999I-500000J0D01*
G01*
X250962500Y-105000000D02*
X250962500Y-117999999D01*
X275562500Y-118499999D02*
X288562500Y-118499999D01*
X256512500Y-118499999D02*
X269512500Y-118499999D01*
X275562500Y-104500000D02*
X288562500Y-104500000D01*
X256012500Y-105000000D02*
G75*
G02*
X256512500Y-104500000I500000J0D01*
G01*
X270012500Y-105000000D02*
X270012500Y-117999999D01*
X250462500Y-104500000D02*
G75*
G02*
X250962500Y-105000000I0J-500000D01*
G01*
X236962500Y-105000000D02*
G75*
G02*
X237462500Y-104500000I500000J0D01*
G01*
X256512500Y-104500000D02*
X269512500Y-104500000D01*
X256012500Y-105000000D02*
X256012500Y-117999999D01*
X270012500Y-117999999D02*
G75*
G02*
X269512500Y-118499999I-500000J0D01*
G01*
X294612500Y-104500000D02*
X307612500Y-104500000D01*
X193312499Y-104500000D02*
G75*
G02*
X193812499Y-105000000I0J-500000D01*
G01*
X198862500Y-105000000D02*
X198862500Y-117999999D01*
X218412500Y-118499999D02*
G75*
G02*
X217912500Y-117999999I0J500000D01*
G01*
X237462500Y-118499999D02*
X250462500Y-118499999D01*
X193812499Y-117999999D02*
G75*
G02*
X193312499Y-118499999I-500000J0D01*
G01*
X218412500Y-104500000D02*
X231412500Y-104500000D01*
X237462500Y-104500000D02*
X250462500Y-104500000D01*
X231912500Y-117999999D02*
G75*
G02*
X231412500Y-118499999I-500000J0D01*
G01*
X217912500Y-105000000D02*
G75*
G02*
X218412500Y-104500000I500000J0D01*
G01*
X199362500Y-118499999D02*
X212362500Y-118499999D01*
X212862500Y-117999999D02*
G75*
G02*
X212362500Y-118499999I-500000J0D01*
G01*
X179812500Y-105000000D02*
G75*
G02*
X180312500Y-104500000I500000J0D01*
G01*
X193812499Y-105000000D02*
X193812499Y-117999999D01*
X231412500Y-104500000D02*
G75*
G02*
X231912500Y-105000000I0J-500000D01*
G01*
X231912500Y-105000000D02*
X231912500Y-117999999D01*
X217912500Y-105000000D02*
X217912500Y-117999999D01*
X199362500Y-104500000D02*
X212362500Y-104500000D01*
X218412500Y-118499999D02*
X231412500Y-118499999D01*
X199362500Y-118499999D02*
G75*
G02*
X198862500Y-117999999I0J500000D01*
G01*
X212362500Y-104500000D02*
G75*
G02*
X212862500Y-105000000I0J-500000D01*
G01*
X198862500Y-105000000D02*
G75*
G02*
X199362500Y-104500000I500000J0D01*
G01*
X212862500Y-105000000D02*
X212862500Y-117999999D01*
X180312500Y-118499999D02*
G75*
G02*
X179812500Y-117999999I0J500000D01*
G01*
X142212500Y-118499999D02*
X155212500Y-118499999D01*
X179812500Y-105000000D02*
X179812500Y-117999999D01*
X174262500Y-104500000D02*
G75*
G02*
X174762500Y-105000000I0J-500000D01*
G01*
X160762500Y-105000000D02*
G75*
G02*
X161262500Y-104500000I500000J0D01*
G01*
X141712500Y-105000000D02*
G75*
G02*
X142212500Y-104500000I500000J0D01*
G01*
X136662500Y-117999999D02*
G75*
G02*
X136162500Y-118499999I-500000J0D01*
G01*
X180312500Y-118499999D02*
X193312499Y-118499999D01*
X180312500Y-104500000D02*
X193312499Y-104500000D01*
X161262500Y-118499999D02*
G75*
G02*
X160762500Y-117999999I0J500000D01*
G01*
X122662500Y-105000000D02*
G75*
G02*
X123162500Y-104500000I500000J0D01*
G01*
X155712500Y-105000000D02*
X155712500Y-117999999D01*
X174762500Y-117999999D02*
G75*
G02*
X174262500Y-118499999I-500000J0D01*
G01*
X174762500Y-105000000D02*
X174762500Y-117999999D01*
X160762500Y-105000000D02*
X160762500Y-117999999D01*
X155712500Y-117999999D02*
G75*
G02*
X155212500Y-118499999I-500000J0D01*
G01*
X136162500Y-104500000D02*
G75*
G02*
X136662500Y-105000000I0J-500000D01*
G01*
X142212500Y-118499999D02*
G75*
G02*
X141712500Y-117999999I0J500000D01*
G01*
X161262500Y-118499999D02*
X174262500Y-118499999D01*
X142212500Y-104500000D02*
X155212500Y-104500000D01*
X161262500Y-104500000D02*
X174262500Y-104500000D01*
X123162500Y-118499999D02*
G75*
G02*
X122662500Y-117999999I0J500000D01*
G01*
X141712500Y-105000000D02*
X141712500Y-117999999D01*
X155212500Y-104500000D02*
G75*
G02*
X155712500Y-105000000I0J-500000D01*
G01*
X204125000Y-175650000D02*
X217125000Y-175650000D01*
X185075000Y-175650000D02*
G75*
G02*
X184575000Y-175150000I0J500000D01*
G01*
X146475000Y-162150000D02*
G75*
G02*
X146975000Y-161650000I500000J0D01*
G01*
X185075000Y-175650000D02*
X198075000Y-175650000D01*
X179525000Y-175150000D02*
G75*
G02*
X179025000Y-175650000I-500000J0D01*
G01*
X160475000Y-162150000D02*
X160475000Y-175150000D01*
X198075000Y-161650000D02*
G75*
G02*
X198575000Y-162150000I0J-500000D01*
G01*
X184575000Y-162150000D02*
G75*
G02*
X185075000Y-161650000I500000J0D01*
G01*
X146975000Y-175650000D02*
G75*
G02*
X146475000Y-175150000I0J500000D01*
G01*
X198575000Y-162150000D02*
X198575000Y-175150000D01*
X166025000Y-175650000D02*
G75*
G02*
X165525000Y-175150000I0J500000D01*
G01*
X166025000Y-161650000D02*
X179025000Y-161650000D01*
X160475000Y-175150000D02*
G75*
G02*
X159975000Y-175650000I-500000J0D01*
G01*
X198575000Y-175150000D02*
G75*
G02*
X198075000Y-175650000I-500000J0D01*
G01*
X179525000Y-162150000D02*
X179525000Y-175150000D01*
X184575000Y-162150000D02*
X184575000Y-175150000D01*
X146975000Y-161650000D02*
X159975000Y-161650000D01*
X166025000Y-175650000D02*
X179025000Y-175650000D01*
X165525000Y-162150000D02*
G75*
G02*
X166025000Y-161650000I500000J0D01*
G01*
X165525000Y-162150000D02*
X165525000Y-175150000D01*
X141425000Y-175150000D02*
G75*
G02*
X140925000Y-175650000I-500000J0D01*
G01*
X185075000Y-161650000D02*
X198075000Y-161650000D01*
X146475000Y-162150000D02*
X146475000Y-175150000D01*
X159975000Y-161650000D02*
G75*
G02*
X160475000Y-162150000I0J-500000D01*
G01*
X204125000Y-161650000D02*
X217125000Y-161650000D01*
X179025000Y-161650000D02*
G75*
G02*
X179525000Y-162150000I0J-500000D01*
G01*
X146975000Y-175650000D02*
X159975000Y-175650000D01*
X203625000Y-162150000D02*
X203625000Y-175150000D01*
X122375000Y-162150000D02*
X122375000Y-175150000D01*
X265250000Y-143100000D02*
X265250000Y-156100000D01*
X303350000Y-143100000D02*
X303350000Y-156100000D01*
X265250000Y-156100000D02*
G75*
G02*
X264750000Y-156600000I-500000J0D01*
G01*
X108875000Y-161650000D02*
X121875000Y-161650000D01*
X251750000Y-142600000D02*
X264750000Y-142600000D01*
X289850000Y-156600000D02*
X302850000Y-156600000D01*
X270300000Y-143100000D02*
G75*
G02*
X270800000Y-142600000I500000J0D01*
G01*
X289850000Y-156600000D02*
G75*
G02*
X289350000Y-156100000I0J500000D01*
G01*
X289350000Y-143100000D02*
X289350000Y-156100000D01*
X302850000Y-142600000D02*
G75*
G02*
X303350000Y-143100000I0J-500000D01*
G01*
X270800000Y-142600000D02*
X283800000Y-142600000D01*
X246200000Y-156100000D02*
G75*
G02*
X245700000Y-156600000I-500000J0D01*
G01*
X289350000Y-143100000D02*
G75*
G02*
X289850000Y-142600000I500000J0D01*
G01*
X284300000Y-156100000D02*
G75*
G02*
X283800000Y-156600000I-500000J0D01*
G01*
X270800000Y-156600000D02*
G75*
G02*
X270300000Y-156100000I0J500000D01*
G01*
X251750000Y-156600000D02*
G75*
G02*
X251250000Y-156100000I0J500000D01*
G01*
X303350000Y-156100000D02*
G75*
G02*
X302850000Y-156600000I-500000J0D01*
G01*
X121875000Y-161650000D02*
G75*
G02*
X122375000Y-162150000I0J-500000D01*
G01*
X284300000Y-143100000D02*
X284300000Y-156100000D01*
X127925000Y-175650000D02*
G75*
G02*
X127425000Y-175150000I0J500000D01*
G01*
X289850000Y-142600000D02*
X302850000Y-142600000D01*
X270300000Y-143100000D02*
X270300000Y-156100000D01*
X140925000Y-161650000D02*
G75*
G02*
X141425000Y-162150000I0J-500000D01*
G01*
X251250000Y-143100000D02*
G75*
G02*
X251750000Y-142600000I500000J0D01*
G01*
X264750000Y-142600000D02*
G75*
G02*
X265250000Y-143100000I0J-500000D01*
G01*
X251750000Y-156600000D02*
X264750000Y-156600000D01*
X127425000Y-162150000D02*
G75*
G02*
X127925000Y-161650000I500000J0D01*
G01*
X141425000Y-162150000D02*
X141425000Y-175150000D01*
X122375000Y-175150000D02*
G75*
G02*
X121875000Y-175650000I-500000J0D01*
G01*
X108375000Y-162150000D02*
X108375000Y-175150000D01*
X270800000Y-156600000D02*
X283800000Y-156600000D01*
X127425000Y-162150000D02*
X127425000Y-175150000D01*
X251250000Y-143100000D02*
X251250000Y-156100000D01*
X127925000Y-175650000D02*
X140925000Y-175650000D01*
X127925000Y-161650000D02*
X140925000Y-161650000D01*
X108875000Y-175650000D02*
X121875000Y-175650000D01*
X283800000Y-142600000D02*
G75*
G02*
X284300000Y-143100000I0J-500000D01*
G01*
X108875000Y-175650000D02*
G75*
G02*
X108375000Y-175150000I0J500000D01*
G01*
X108375000Y-162150000D02*
G75*
G02*
X108875000Y-161650000I500000J0D01*
G01*
X221887500Y-123550000D02*
G75*
G02*
X222387500Y-124050000I0J-500000D01*
G01*
X266037500Y-137550000D02*
G75*
G02*
X265537500Y-137050000I0J500000D01*
G01*
X246987500Y-137550000D02*
X259987500Y-137550000D01*
X246987500Y-123550000D02*
X259987500Y-123550000D01*
X241437500Y-137050000D02*
G75*
G02*
X240937500Y-137550000I-500000J0D01*
G01*
X227937500Y-137550000D02*
X240937500Y-137550000D01*
X279037500Y-123550000D02*
G75*
G02*
X279537500Y-124050000I0J-500000D01*
G01*
X227437500Y-124050000D02*
G75*
G02*
X227937500Y-123550000I500000J0D01*
G01*
X227937500Y-137550000D02*
G75*
G02*
X227437500Y-137050000I0J500000D01*
G01*
X284587500Y-124050000D02*
X284587500Y-137050000D01*
X285087500Y-123550000D02*
X298087500Y-123550000D01*
X265537500Y-124050000D02*
X265537500Y-137050000D01*
X259987500Y-123550000D02*
G75*
G02*
X260487500Y-124050000I0J-500000D01*
G01*
X260487500Y-137050000D02*
G75*
G02*
X259987500Y-137550000I-500000J0D01*
G01*
X241437500Y-124050000D02*
X241437500Y-137050000D01*
X246487500Y-124050000D02*
X246487500Y-137050000D01*
X285087500Y-137550000D02*
X298087500Y-137550000D01*
X260487500Y-124050000D02*
X260487500Y-137050000D01*
X317637500Y-137050000D02*
G75*
G02*
X317137500Y-137550000I-500000J0D01*
G01*
X240937500Y-123550000D02*
G75*
G02*
X241437500Y-124050000I0J-500000D01*
G01*
X279537500Y-137050000D02*
G75*
G02*
X279037500Y-137550000I-500000J0D01*
G01*
X304137500Y-137550000D02*
G75*
G02*
X303637500Y-137050000I0J500000D01*
G01*
X303637500Y-124050000D02*
X303637500Y-137050000D01*
X317137500Y-123550000D02*
G75*
G02*
X317637500Y-124050000I0J-500000D01*
G01*
X303637500Y-124050000D02*
G75*
G02*
X304137500Y-123550000I500000J0D01*
G01*
X298087500Y-123550000D02*
G75*
G02*
X298587500Y-124050000I0J-500000D01*
G01*
X222387500Y-137050000D02*
G75*
G02*
X221887500Y-137550000I-500000J0D01*
G01*
X227937500Y-123550000D02*
X240937500Y-123550000D01*
X317637500Y-124050000D02*
X317637500Y-137050000D01*
X304137500Y-137550000D02*
X317137500Y-137550000D01*
X266037500Y-137550000D02*
X279037500Y-137550000D01*
X304137500Y-123550000D02*
X317137500Y-123550000D01*
X227437500Y-124050000D02*
X227437500Y-137050000D01*
X298587500Y-137050000D02*
G75*
G02*
X298087500Y-137550000I-500000J0D01*
G01*
X285087500Y-137550000D02*
G75*
G02*
X284587500Y-137050000I0J500000D01*
G01*
X284587500Y-124050000D02*
G75*
G02*
X285087500Y-123550000I500000J0D01*
G01*
X279537500Y-124050000D02*
X279537500Y-137050000D01*
X298587500Y-124050000D02*
X298587500Y-137050000D01*
X265537500Y-124050000D02*
G75*
G02*
X266037500Y-123550000I500000J0D01*
G01*
X266037500Y-123550000D02*
X279037500Y-123550000D01*
X208887500Y-137550000D02*
G75*
G02*
X208387500Y-137050000I0J500000D01*
G01*
X246487500Y-124050000D02*
G75*
G02*
X246987500Y-123550000I500000J0D01*
G01*
X246987500Y-137550000D02*
G75*
G02*
X246487500Y-137050000I0J500000D01*
G01*
X150450000Y-142600000D02*
G75*
G02*
X150950000Y-143100000I0J-500000D01*
G01*
X137450000Y-156600000D02*
X150450000Y-156600000D01*
X245700000Y-142600000D02*
G75*
G02*
X246200000Y-143100000I0J-500000D01*
G01*
X232700000Y-156600000D02*
X245700000Y-156600000D01*
X232700000Y-142600000D02*
X245700000Y-142600000D01*
X156500000Y-142600000D02*
X169500000Y-142600000D01*
X213650000Y-142600000D02*
X226650000Y-142600000D01*
X175050000Y-143100000D02*
X175050000Y-156100000D01*
X169500000Y-142600000D02*
G75*
G02*
X170000000Y-143100000I0J-500000D01*
G01*
X150950000Y-156100000D02*
G75*
G02*
X150450000Y-156600000I-500000J0D01*
G01*
X170000000Y-156100000D02*
G75*
G02*
X169500000Y-156600000I-500000J0D01*
G01*
X194600000Y-156600000D02*
G75*
G02*
X194100000Y-156100000I0J500000D01*
G01*
X207600000Y-142600000D02*
G75*
G02*
X208100000Y-143100000I0J-500000D01*
G01*
X194100000Y-143100000D02*
G75*
G02*
X194600000Y-142600000I500000J0D01*
G01*
X175550000Y-156600000D02*
X188550000Y-156600000D01*
X150950000Y-143100000D02*
X150950000Y-156100000D01*
X175550000Y-156600000D02*
G75*
G02*
X175050000Y-156100000I0J500000D01*
G01*
X188550000Y-142600000D02*
G75*
G02*
X189050000Y-143100000I0J-500000D01*
G01*
X137450000Y-156600000D02*
G75*
G02*
X136950000Y-156100000I0J500000D01*
G01*
X232700000Y-156600000D02*
G75*
G02*
X232200000Y-156100000I0J500000D01*
G01*
X194600000Y-156600000D02*
X207600000Y-156600000D01*
X213150000Y-143100000D02*
X213150000Y-156100000D01*
X232200000Y-143100000D02*
X232200000Y-156100000D01*
X232200000Y-143100000D02*
G75*
G02*
X232700000Y-142600000I500000J0D01*
G01*
X213650000Y-156600000D02*
G75*
G02*
X213150000Y-156100000I0J500000D01*
G01*
X227150000Y-143100000D02*
X227150000Y-156100000D01*
X170000000Y-143100000D02*
X170000000Y-156100000D01*
X175050000Y-143100000D02*
G75*
G02*
X175550000Y-142600000I500000J0D01*
G01*
X226650000Y-142600000D02*
G75*
G02*
X227150000Y-143100000I0J-500000D01*
G01*
X194100000Y-143100000D02*
X194100000Y-156100000D01*
X156000000Y-143100000D02*
X156000000Y-156100000D01*
X156500000Y-156600000D02*
G75*
G02*
X156000000Y-156100000I0J500000D01*
G01*
X189050000Y-156100000D02*
G75*
G02*
X188550000Y-156600000I-500000J0D01*
G01*
X213650000Y-156600000D02*
X226650000Y-156600000D01*
X227150000Y-156100000D02*
G75*
G02*
X226650000Y-156600000I-500000J0D01*
G01*
X194600000Y-142600000D02*
X207600000Y-142600000D01*
X246200000Y-143100000D02*
X246200000Y-156100000D01*
X136950000Y-143100000D02*
X136950000Y-156100000D01*
X213150000Y-143100000D02*
G75*
G02*
X213650000Y-142600000I500000J0D01*
G01*
X156500000Y-156600000D02*
X169500000Y-156600000D01*
X208100000Y-143100000D02*
X208100000Y-156100000D01*
X156000000Y-143100000D02*
G75*
G02*
X156500000Y-142600000I500000J0D01*
G01*
X136950000Y-143100000D02*
G75*
G02*
X137450000Y-142600000I500000J0D01*
G01*
X208100000Y-156100000D02*
G75*
G02*
X207600000Y-156600000I-500000J0D01*
G01*
X189050000Y-143100000D02*
X189050000Y-156100000D01*
X175550000Y-142600000D02*
X188550000Y-142600000D01*
X64012500Y-198700000D02*
G75*
G02*
X61512500Y-196200000I0J2500000D01*
G01*
X388312500Y-196200000D02*
G75*
G02*
X385812500Y-198700000I-2500000J0D01*
G01*
X61512500Y-100150000D02*
G75*
G02*
X64012500Y-97650000I2500000J0D01*
G01*
X61512500Y-196200000D02*
X61512500Y-100150000D01*
X64012500Y-198700000D02*
X385812500Y-198700000D01*
X388312500Y-196200000D02*
X388312500Y-160150000D01*
M02*
