%FSLAX45Y45*%
G04 Gerber Fmt 4.5, Leading zero omitted, Abs format (unit mm)*
G04 Created by KiCad (PCBNEW (5.1.9)-1) date 2021-05-17 17:20:40*
%MOMM*%
%LPD*%
G01*
G04 APERTURE LIST*
%TA.AperFunction,Profile*%
%ADD10C,0.100000*%
%TD*%
%ADD11C,0.200000*%
%ADD12C,0.300000*%
G04 APERTURE END LIST*
D10*
X38225000Y-9765000D02*
G75*
G02*
X38475000Y-10015000I0J-250000D01*
G01*
X6790000Y-19695000D02*
G75*
G02*
X6540000Y-19445000I0J250000D01*
G01*
X38475000Y-19445000D02*
G75*
G02*
X38225000Y-19695000I-250000J0D01*
G01*
X6540000Y-19445000D02*
X6540000Y-10015000D01*
X6790000Y-19695000D02*
X38225000Y-19695000D01*
X38475000Y-19445000D02*
X38475000Y-10015000D01*
X38225000Y-9765000D02*
X6790000Y-9765000D01*
X6540000Y-10015000D02*
G75*
G02*
X6790000Y-9765000I250000J0D01*
G01*
D11*
X6790000Y-9990000D02*
X7010000Y-10210000D01*
X7010000Y-9990000D02*
X6790000Y-10210000D01*
X6950000Y-17710000D02*
X7170000Y-17930000D01*
X7170000Y-17710000D02*
X6950000Y-17930000D01*
X22390000Y-12140000D02*
X22610000Y-12360000D01*
X22610000Y-12140000D02*
X22390000Y-12360000D01*
X23015000Y-17690000D02*
X23235000Y-17910000D01*
X23235000Y-17690000D02*
X23015000Y-17910000D01*
X36665000Y-17940000D02*
X36885000Y-18160000D01*
X36885000Y-17940000D02*
X36665000Y-18160000D01*
X38110000Y-9990000D02*
X38330000Y-10210000D01*
X38330000Y-9990000D02*
X38110000Y-10210000D01*
D12*
X6821428Y-20165714D02*
X6821428Y-19865714D01*
X6892857Y-19865714D01*
X6935714Y-19880000D01*
X6964286Y-19908572D01*
X6978571Y-19937143D01*
X6992857Y-19994286D01*
X6992857Y-20037143D01*
X6978571Y-20094286D01*
X6964286Y-20122857D01*
X6935714Y-20151429D01*
X6892857Y-20165714D01*
X6821428Y-20165714D01*
X7121428Y-20165714D02*
X7121428Y-19965714D01*
X7121428Y-20022857D02*
X7135714Y-19994286D01*
X7150000Y-19980000D01*
X7178571Y-19965714D01*
X7207143Y-19965714D01*
X7307143Y-20165714D02*
X7307143Y-19965714D01*
X7307143Y-19865714D02*
X7292857Y-19880000D01*
X7307143Y-19894286D01*
X7321428Y-19880000D01*
X7307143Y-19865714D01*
X7307143Y-19894286D01*
X7492857Y-20165714D02*
X7464286Y-20151429D01*
X7450000Y-20122857D01*
X7450000Y-19865714D01*
X7650000Y-20165714D02*
X7621428Y-20151429D01*
X7607143Y-20122857D01*
X7607143Y-19865714D01*
X7992857Y-20165714D02*
X7992857Y-19865714D01*
X8092857Y-20080000D01*
X8192857Y-19865714D01*
X8192857Y-20165714D01*
X8464286Y-20165714D02*
X8464286Y-20008572D01*
X8450000Y-19980000D01*
X8421428Y-19965714D01*
X8364286Y-19965714D01*
X8335714Y-19980000D01*
X8464286Y-20151429D02*
X8435714Y-20165714D01*
X8364286Y-20165714D01*
X8335714Y-20151429D01*
X8321428Y-20122857D01*
X8321428Y-20094286D01*
X8335714Y-20065714D01*
X8364286Y-20051429D01*
X8435714Y-20051429D01*
X8464286Y-20037143D01*
X8607143Y-19965714D02*
X8607143Y-20265714D01*
X8607143Y-19980000D02*
X8635714Y-19965714D01*
X8692857Y-19965714D01*
X8721428Y-19980000D01*
X8735714Y-19994286D01*
X8750000Y-20022857D01*
X8750000Y-20108572D01*
X8735714Y-20137143D01*
X8721428Y-20151429D01*
X8692857Y-20165714D01*
X8635714Y-20165714D01*
X8607143Y-20151429D01*
X8878571Y-20137143D02*
X8892857Y-20151429D01*
X8878571Y-20165714D01*
X8864286Y-20151429D01*
X8878571Y-20137143D01*
X8878571Y-20165714D01*
X8878571Y-19980000D02*
X8892857Y-19994286D01*
X8878571Y-20008572D01*
X8864286Y-19994286D01*
X8878571Y-19980000D01*
X8878571Y-20008572D01*
X6315000Y-20550000D02*
X6535000Y-20770000D01*
X6535000Y-20550000D02*
X6315000Y-20770000D01*
X6807143Y-20524286D02*
X6821428Y-20510000D01*
X6850000Y-20495714D01*
X6921428Y-20495714D01*
X6950000Y-20510000D01*
X6964286Y-20524286D01*
X6978571Y-20552857D01*
X6978571Y-20581429D01*
X6964286Y-20624286D01*
X6792857Y-20795714D01*
X6978571Y-20795714D01*
X7107143Y-20767143D02*
X7121428Y-20781429D01*
X7107143Y-20795714D01*
X7092857Y-20781429D01*
X7107143Y-20767143D01*
X7107143Y-20795714D01*
X7235714Y-20524286D02*
X7250000Y-20510000D01*
X7278571Y-20495714D01*
X7350000Y-20495714D01*
X7378571Y-20510000D01*
X7392857Y-20524286D01*
X7407143Y-20552857D01*
X7407143Y-20581429D01*
X7392857Y-20624286D01*
X7221428Y-20795714D01*
X7407143Y-20795714D01*
X7592857Y-20495714D02*
X7621428Y-20495714D01*
X7650000Y-20510000D01*
X7664286Y-20524286D01*
X7678571Y-20552857D01*
X7692857Y-20610000D01*
X7692857Y-20681429D01*
X7678571Y-20738572D01*
X7664286Y-20767143D01*
X7650000Y-20781429D01*
X7621428Y-20795714D01*
X7592857Y-20795714D01*
X7564286Y-20781429D01*
X7550000Y-20767143D01*
X7535714Y-20738572D01*
X7521428Y-20681429D01*
X7521428Y-20610000D01*
X7535714Y-20552857D01*
X7550000Y-20524286D01*
X7564286Y-20510000D01*
X7592857Y-20495714D01*
X7821428Y-20795714D02*
X7821428Y-20595714D01*
X7821428Y-20624286D02*
X7835714Y-20610000D01*
X7864286Y-20595714D01*
X7907143Y-20595714D01*
X7935714Y-20610000D01*
X7950000Y-20638572D01*
X7950000Y-20795714D01*
X7950000Y-20638572D02*
X7964286Y-20610000D01*
X7992857Y-20595714D01*
X8035714Y-20595714D01*
X8064286Y-20610000D01*
X8078571Y-20638572D01*
X8078571Y-20795714D01*
X8221428Y-20795714D02*
X8221428Y-20595714D01*
X8221428Y-20624286D02*
X8235714Y-20610000D01*
X8264286Y-20595714D01*
X8307143Y-20595714D01*
X8335714Y-20610000D01*
X8350000Y-20638572D01*
X8350000Y-20795714D01*
X8350000Y-20638572D02*
X8364286Y-20610000D01*
X8392857Y-20595714D01*
X8435714Y-20595714D01*
X8464286Y-20610000D01*
X8478571Y-20638572D01*
X8478571Y-20795714D01*
X9064286Y-20481429D02*
X8807143Y-20867143D01*
X9450000Y-20495714D02*
X9478571Y-20495714D01*
X9507143Y-20510000D01*
X9521428Y-20524286D01*
X9535714Y-20552857D01*
X9550000Y-20610000D01*
X9550000Y-20681429D01*
X9535714Y-20738572D01*
X9521428Y-20767143D01*
X9507143Y-20781429D01*
X9478571Y-20795714D01*
X9450000Y-20795714D01*
X9421428Y-20781429D01*
X9407143Y-20767143D01*
X9392857Y-20738572D01*
X9378571Y-20681429D01*
X9378571Y-20610000D01*
X9392857Y-20552857D01*
X9407143Y-20524286D01*
X9421428Y-20510000D01*
X9450000Y-20495714D01*
X9678571Y-20767143D02*
X9692857Y-20781429D01*
X9678571Y-20795714D01*
X9664286Y-20781429D01*
X9678571Y-20767143D01*
X9678571Y-20795714D01*
X9878571Y-20495714D02*
X9907143Y-20495714D01*
X9935714Y-20510000D01*
X9950000Y-20524286D01*
X9964286Y-20552857D01*
X9978571Y-20610000D01*
X9978571Y-20681429D01*
X9964286Y-20738572D01*
X9950000Y-20767143D01*
X9935714Y-20781429D01*
X9907143Y-20795714D01*
X9878571Y-20795714D01*
X9850000Y-20781429D01*
X9835714Y-20767143D01*
X9821428Y-20738572D01*
X9807143Y-20681429D01*
X9807143Y-20610000D01*
X9821428Y-20552857D01*
X9835714Y-20524286D01*
X9850000Y-20510000D01*
X9878571Y-20495714D01*
X10150000Y-20624286D02*
X10121428Y-20610000D01*
X10107143Y-20595714D01*
X10092857Y-20567143D01*
X10092857Y-20552857D01*
X10107143Y-20524286D01*
X10121428Y-20510000D01*
X10150000Y-20495714D01*
X10207143Y-20495714D01*
X10235714Y-20510000D01*
X10250000Y-20524286D01*
X10264286Y-20552857D01*
X10264286Y-20567143D01*
X10250000Y-20595714D01*
X10235714Y-20610000D01*
X10207143Y-20624286D01*
X10150000Y-20624286D01*
X10121428Y-20638572D01*
X10107143Y-20652857D01*
X10092857Y-20681429D01*
X10092857Y-20738572D01*
X10107143Y-20767143D01*
X10121428Y-20781429D01*
X10150000Y-20795714D01*
X10207143Y-20795714D01*
X10235714Y-20781429D01*
X10250000Y-20767143D01*
X10264286Y-20738572D01*
X10264286Y-20681429D01*
X10250000Y-20652857D01*
X10235714Y-20638572D01*
X10207143Y-20624286D01*
X10364286Y-20495714D02*
X10564286Y-20495714D01*
X10435714Y-20795714D01*
X10664286Y-20495714D02*
X10664286Y-20552857D01*
X10778571Y-20495714D02*
X10778571Y-20552857D01*
X11221428Y-20910000D02*
X11207143Y-20895714D01*
X11178571Y-20852857D01*
X11164286Y-20824286D01*
X11150000Y-20781429D01*
X11135714Y-20710000D01*
X11135714Y-20652857D01*
X11150000Y-20581429D01*
X11164286Y-20538572D01*
X11178571Y-20510000D01*
X11207143Y-20467143D01*
X11221428Y-20452857D01*
X11464286Y-20495714D02*
X11407143Y-20495714D01*
X11378571Y-20510000D01*
X11364286Y-20524286D01*
X11335714Y-20567143D01*
X11321428Y-20624286D01*
X11321428Y-20738572D01*
X11335714Y-20767143D01*
X11350000Y-20781429D01*
X11378571Y-20795714D01*
X11435714Y-20795714D01*
X11464286Y-20781429D01*
X11478571Y-20767143D01*
X11492857Y-20738572D01*
X11492857Y-20667143D01*
X11478571Y-20638572D01*
X11464286Y-20624286D01*
X11435714Y-20610000D01*
X11378571Y-20610000D01*
X11350000Y-20624286D01*
X11335714Y-20638572D01*
X11321428Y-20667143D01*
X11850000Y-20795714D02*
X11850000Y-20495714D01*
X11978571Y-20795714D02*
X11978571Y-20638572D01*
X11964286Y-20610000D01*
X11935714Y-20595714D01*
X11892857Y-20595714D01*
X11864286Y-20610000D01*
X11850000Y-20624286D01*
X12164286Y-20795714D02*
X12135714Y-20781429D01*
X12121428Y-20767143D01*
X12107143Y-20738572D01*
X12107143Y-20652857D01*
X12121428Y-20624286D01*
X12135714Y-20610000D01*
X12164286Y-20595714D01*
X12207143Y-20595714D01*
X12235714Y-20610000D01*
X12250000Y-20624286D01*
X12264286Y-20652857D01*
X12264286Y-20738572D01*
X12250000Y-20767143D01*
X12235714Y-20781429D01*
X12207143Y-20795714D01*
X12164286Y-20795714D01*
X12435714Y-20795714D02*
X12407143Y-20781429D01*
X12392857Y-20752857D01*
X12392857Y-20495714D01*
X12664286Y-20781429D02*
X12635714Y-20795714D01*
X12578571Y-20795714D01*
X12550000Y-20781429D01*
X12535714Y-20752857D01*
X12535714Y-20638572D01*
X12550000Y-20610000D01*
X12578571Y-20595714D01*
X12635714Y-20595714D01*
X12664286Y-20610000D01*
X12678571Y-20638572D01*
X12678571Y-20667143D01*
X12535714Y-20695714D01*
X12792857Y-20781429D02*
X12821428Y-20795714D01*
X12878571Y-20795714D01*
X12907143Y-20781429D01*
X12921428Y-20752857D01*
X12921428Y-20738572D01*
X12907143Y-20710000D01*
X12878571Y-20695714D01*
X12835714Y-20695714D01*
X12807143Y-20681429D01*
X12792857Y-20652857D01*
X12792857Y-20638572D01*
X12807143Y-20610000D01*
X12835714Y-20595714D01*
X12878571Y-20595714D01*
X12907143Y-20610000D01*
X13021428Y-20910000D02*
X13035714Y-20895714D01*
X13064286Y-20852857D01*
X13078571Y-20824286D01*
X13092857Y-20781429D01*
X13107143Y-20710000D01*
X13107143Y-20652857D01*
X13092857Y-20581429D01*
X13078571Y-20538572D01*
X13064286Y-20510000D01*
X13035714Y-20467143D01*
X13021428Y-20452857D01*
X13564286Y-20910000D02*
X13550000Y-20895714D01*
X13521428Y-20852857D01*
X13507143Y-20824286D01*
X13492857Y-20781429D01*
X13478571Y-20710000D01*
X13478571Y-20652857D01*
X13492857Y-20581429D01*
X13507143Y-20538572D01*
X13521428Y-20510000D01*
X13550000Y-20467143D01*
X13564286Y-20452857D01*
X13678571Y-20595714D02*
X13678571Y-20795714D01*
X13678571Y-20624286D02*
X13692857Y-20610000D01*
X13721428Y-20595714D01*
X13764286Y-20595714D01*
X13792857Y-20610000D01*
X13807143Y-20638572D01*
X13807143Y-20795714D01*
X13992857Y-20795714D02*
X13964286Y-20781429D01*
X13950000Y-20767143D01*
X13935714Y-20738572D01*
X13935714Y-20652857D01*
X13950000Y-20624286D01*
X13964286Y-20610000D01*
X13992857Y-20595714D01*
X14035714Y-20595714D01*
X14064286Y-20610000D01*
X14078571Y-20624286D01*
X14092857Y-20652857D01*
X14092857Y-20738572D01*
X14078571Y-20767143D01*
X14064286Y-20781429D01*
X14035714Y-20795714D01*
X13992857Y-20795714D01*
X14178571Y-20595714D02*
X14292857Y-20595714D01*
X14221428Y-20495714D02*
X14221428Y-20752857D01*
X14235714Y-20781429D01*
X14264286Y-20795714D01*
X14292857Y-20795714D01*
X14621428Y-20595714D02*
X14621428Y-20895714D01*
X14621428Y-20610000D02*
X14650000Y-20595714D01*
X14707143Y-20595714D01*
X14735714Y-20610000D01*
X14750000Y-20624286D01*
X14764286Y-20652857D01*
X14764286Y-20738572D01*
X14750000Y-20767143D01*
X14735714Y-20781429D01*
X14707143Y-20795714D01*
X14650000Y-20795714D01*
X14621428Y-20781429D01*
X14935714Y-20795714D02*
X14907143Y-20781429D01*
X14892857Y-20752857D01*
X14892857Y-20495714D01*
X15178571Y-20795714D02*
X15178571Y-20638572D01*
X15164286Y-20610000D01*
X15135714Y-20595714D01*
X15078571Y-20595714D01*
X15050000Y-20610000D01*
X15178571Y-20781429D02*
X15150000Y-20795714D01*
X15078571Y-20795714D01*
X15050000Y-20781429D01*
X15035714Y-20752857D01*
X15035714Y-20724286D01*
X15050000Y-20695714D01*
X15078571Y-20681429D01*
X15150000Y-20681429D01*
X15178571Y-20667143D01*
X15278571Y-20595714D02*
X15392857Y-20595714D01*
X15321428Y-20495714D02*
X15321428Y-20752857D01*
X15335714Y-20781429D01*
X15364286Y-20795714D01*
X15392857Y-20795714D01*
X15607143Y-20781429D02*
X15578571Y-20795714D01*
X15521428Y-20795714D01*
X15492857Y-20781429D01*
X15478571Y-20752857D01*
X15478571Y-20638572D01*
X15492857Y-20610000D01*
X15521428Y-20595714D01*
X15578571Y-20595714D01*
X15607143Y-20610000D01*
X15621428Y-20638572D01*
X15621428Y-20667143D01*
X15478571Y-20695714D01*
X15878571Y-20795714D02*
X15878571Y-20495714D01*
X15878571Y-20781429D02*
X15850000Y-20795714D01*
X15792857Y-20795714D01*
X15764286Y-20781429D01*
X15750000Y-20767143D01*
X15735714Y-20738572D01*
X15735714Y-20652857D01*
X15750000Y-20624286D01*
X15764286Y-20610000D01*
X15792857Y-20595714D01*
X15850000Y-20595714D01*
X15878571Y-20610000D01*
X15992857Y-20910000D02*
X16007143Y-20895714D01*
X16035714Y-20852857D01*
X16050000Y-20824286D01*
X16064286Y-20781429D01*
X16078571Y-20710000D01*
X16078571Y-20652857D01*
X16064286Y-20581429D01*
X16050000Y-20538572D01*
X16035714Y-20510000D01*
X16007143Y-20467143D01*
X15992857Y-20452857D01*
M02*
