G04 #@! TF.GenerationSoftware,KiCad,Pcbnew,(5.1.9)-1*
G04 #@! TF.CreationDate,2021-05-17T17:20:41+01:00*
G04 #@! TF.ProjectId,EnvKB65_bottom,456e764b-4236-4355-9f62-6f74746f6d2e,rev?*
G04 #@! TF.SameCoordinates,Original*
G04 #@! TF.FileFunction,Legend,Bot*
G04 #@! TF.FilePolarity,Positive*
%FSLAX46Y46*%
G04 Gerber Fmt 4.6, Leading zero omitted, Abs format (unit mm)*
G04 Created by KiCad (PCBNEW (5.1.9)-1) date 2021-05-17 17:20:41*
%MOMM*%
%LPD*%
G01*
G04 APERTURE LIST*
%ADD10C,0.150000*%
%ADD11C,0.750000*%
%ADD12C,0.010000*%
G04 APERTURE END LIST*
D10*
X353466666Y-99452380D02*
X353466666Y-98452380D01*
X353038095Y-99452380D02*
X353038095Y-98928571D01*
X353085714Y-98833333D01*
X353180952Y-98785714D01*
X353323809Y-98785714D01*
X353419047Y-98833333D01*
X353466666Y-98880952D01*
X352704761Y-98785714D02*
X352323809Y-98785714D01*
X352561904Y-98452380D02*
X352561904Y-99309523D01*
X352514285Y-99404761D01*
X352419047Y-99452380D01*
X352323809Y-99452380D01*
X352133333Y-98785714D02*
X351752380Y-98785714D01*
X351990476Y-98452380D02*
X351990476Y-99309523D01*
X351942857Y-99404761D01*
X351847619Y-99452380D01*
X351752380Y-99452380D01*
X351419047Y-98785714D02*
X351419047Y-99785714D01*
X351419047Y-98833333D02*
X351323809Y-98785714D01*
X351133333Y-98785714D01*
X351038095Y-98833333D01*
X350990476Y-98880952D01*
X350942857Y-98976190D01*
X350942857Y-99261904D01*
X350990476Y-99357142D01*
X351038095Y-99404761D01*
X351133333Y-99452380D01*
X351323809Y-99452380D01*
X351419047Y-99404761D01*
X350561904Y-99404761D02*
X350466666Y-99452380D01*
X350276190Y-99452380D01*
X350180952Y-99404761D01*
X350133333Y-99309523D01*
X350133333Y-99261904D01*
X350180952Y-99166666D01*
X350276190Y-99119047D01*
X350419047Y-99119047D01*
X350514285Y-99071428D01*
X350561904Y-98976190D01*
X350561904Y-98928571D01*
X350514285Y-98833333D01*
X350419047Y-98785714D01*
X350276190Y-98785714D01*
X350180952Y-98833333D01*
X349704761Y-99357142D02*
X349657142Y-99404761D01*
X349704761Y-99452380D01*
X349752380Y-99404761D01*
X349704761Y-99357142D01*
X349704761Y-99452380D01*
X349704761Y-98833333D02*
X349657142Y-98880952D01*
X349704761Y-98928571D01*
X349752380Y-98880952D01*
X349704761Y-98833333D01*
X349704761Y-98928571D01*
X348514285Y-98404761D02*
X349371428Y-99690476D01*
X347466666Y-98404761D02*
X348323809Y-99690476D01*
X346704761Y-98785714D02*
X346704761Y-99595238D01*
X346752380Y-99690476D01*
X346800000Y-99738095D01*
X346895238Y-99785714D01*
X347038095Y-99785714D01*
X347133333Y-99738095D01*
X346704761Y-99404761D02*
X346800000Y-99452380D01*
X346990476Y-99452380D01*
X347085714Y-99404761D01*
X347133333Y-99357142D01*
X347180952Y-99261904D01*
X347180952Y-98976190D01*
X347133333Y-98880952D01*
X347085714Y-98833333D01*
X346990476Y-98785714D01*
X346800000Y-98785714D01*
X346704761Y-98833333D01*
X346228571Y-99452380D02*
X346228571Y-98785714D01*
X346228571Y-98452380D02*
X346276190Y-98500000D01*
X346228571Y-98547619D01*
X346180952Y-98500000D01*
X346228571Y-98452380D01*
X346228571Y-98547619D01*
X345895238Y-98785714D02*
X345514285Y-98785714D01*
X345752380Y-98452380D02*
X345752380Y-99309523D01*
X345704761Y-99404761D01*
X345609523Y-99452380D01*
X345514285Y-99452380D01*
X345180952Y-99452380D02*
X345180952Y-98452380D01*
X344752380Y-99452380D02*
X344752380Y-98928571D01*
X344800000Y-98833333D01*
X344895238Y-98785714D01*
X345038095Y-98785714D01*
X345133333Y-98833333D01*
X345180952Y-98880952D01*
X343847619Y-98785714D02*
X343847619Y-99452380D01*
X344276190Y-98785714D02*
X344276190Y-99309523D01*
X344228571Y-99404761D01*
X344133333Y-99452380D01*
X343990476Y-99452380D01*
X343895238Y-99404761D01*
X343847619Y-99357142D01*
X343371428Y-99452380D02*
X343371428Y-98452380D01*
X343371428Y-98833333D02*
X343276190Y-98785714D01*
X343085714Y-98785714D01*
X342990476Y-98833333D01*
X342942857Y-98880952D01*
X342895238Y-98976190D01*
X342895238Y-99261904D01*
X342942857Y-99357142D01*
X342990476Y-99404761D01*
X343085714Y-99452380D01*
X343276190Y-99452380D01*
X343371428Y-99404761D01*
X342466666Y-99357142D02*
X342419047Y-99404761D01*
X342466666Y-99452380D01*
X342514285Y-99404761D01*
X342466666Y-99357142D01*
X342466666Y-99452380D01*
X341561904Y-99404761D02*
X341657142Y-99452380D01*
X341847619Y-99452380D01*
X341942857Y-99404761D01*
X341990476Y-99357142D01*
X342038095Y-99261904D01*
X342038095Y-98976190D01*
X341990476Y-98880952D01*
X341942857Y-98833333D01*
X341847619Y-98785714D01*
X341657142Y-98785714D01*
X341561904Y-98833333D01*
X340990476Y-99452380D02*
X341085714Y-99404761D01*
X341133333Y-99357142D01*
X341180952Y-99261904D01*
X341180952Y-98976190D01*
X341133333Y-98880952D01*
X341085714Y-98833333D01*
X340990476Y-98785714D01*
X340847619Y-98785714D01*
X340752380Y-98833333D01*
X340704761Y-98880952D01*
X340657142Y-98976190D01*
X340657142Y-99261904D01*
X340704761Y-99357142D01*
X340752380Y-99404761D01*
X340847619Y-99452380D01*
X340990476Y-99452380D01*
X340228571Y-99452380D02*
X340228571Y-98785714D01*
X340228571Y-98880952D02*
X340180952Y-98833333D01*
X340085714Y-98785714D01*
X339942857Y-98785714D01*
X339847619Y-98833333D01*
X339800000Y-98928571D01*
X339800000Y-99452380D01*
X339800000Y-98928571D02*
X339752380Y-98833333D01*
X339657142Y-98785714D01*
X339514285Y-98785714D01*
X339419047Y-98833333D01*
X339371428Y-98928571D01*
X339371428Y-99452380D01*
X338180952Y-98404761D02*
X339038095Y-99690476D01*
X337847619Y-98928571D02*
X337514285Y-98928571D01*
X337371428Y-99452380D02*
X337847619Y-99452380D01*
X337847619Y-98452380D01*
X337371428Y-98452380D01*
X336942857Y-98785714D02*
X336942857Y-99452380D01*
X336942857Y-98880952D02*
X336895238Y-98833333D01*
X336800000Y-98785714D01*
X336657142Y-98785714D01*
X336561904Y-98833333D01*
X336514285Y-98928571D01*
X336514285Y-99452380D01*
X336133333Y-98785714D02*
X335895238Y-99452380D01*
X335657142Y-98785714D01*
X335276190Y-99452380D02*
X335276190Y-98785714D01*
X335276190Y-98452380D02*
X335323809Y-98500000D01*
X335276190Y-98547619D01*
X335228571Y-98500000D01*
X335276190Y-98452380D01*
X335276190Y-98547619D01*
X334657142Y-99452380D02*
X334752380Y-99404761D01*
X334800000Y-99357142D01*
X334847619Y-99261904D01*
X334847619Y-98976190D01*
X334800000Y-98880952D01*
X334752380Y-98833333D01*
X334657142Y-98785714D01*
X334514285Y-98785714D01*
X334419047Y-98833333D01*
X334371428Y-98880952D01*
X334323809Y-98976190D01*
X334323809Y-99261904D01*
X334371428Y-99357142D01*
X334419047Y-99404761D01*
X334514285Y-99452380D01*
X334657142Y-99452380D01*
X333466666Y-98785714D02*
X333466666Y-99452380D01*
X333895238Y-98785714D02*
X333895238Y-99309523D01*
X333847619Y-99404761D01*
X333752380Y-99452380D01*
X333609523Y-99452380D01*
X333514285Y-99404761D01*
X333466666Y-99357142D01*
X333038095Y-99404761D02*
X332942857Y-99452380D01*
X332752380Y-99452380D01*
X332657142Y-99404761D01*
X332609523Y-99309523D01*
X332609523Y-99261904D01*
X332657142Y-99166666D01*
X332752380Y-99119047D01*
X332895238Y-99119047D01*
X332990476Y-99071428D01*
X333038095Y-98976190D01*
X333038095Y-98928571D01*
X332990476Y-98833333D01*
X332895238Y-98785714D01*
X332752380Y-98785714D01*
X332657142Y-98833333D01*
X332180952Y-99071428D02*
X331419047Y-99071428D01*
X330942857Y-99452380D02*
X330942857Y-98452380D01*
X330704761Y-98452380D01*
X330561904Y-98500000D01*
X330466666Y-98595238D01*
X330419047Y-98690476D01*
X330371428Y-98880952D01*
X330371428Y-99023809D01*
X330419047Y-99214285D01*
X330466666Y-99309523D01*
X330561904Y-99404761D01*
X330704761Y-99452380D01*
X330942857Y-99452380D01*
X329514285Y-99452380D02*
X329514285Y-98928571D01*
X329561904Y-98833333D01*
X329657142Y-98785714D01*
X329847619Y-98785714D01*
X329942857Y-98833333D01*
X329514285Y-99404761D02*
X329609523Y-99452380D01*
X329847619Y-99452380D01*
X329942857Y-99404761D01*
X329990476Y-99309523D01*
X329990476Y-99214285D01*
X329942857Y-99119047D01*
X329847619Y-99071428D01*
X329609523Y-99071428D01*
X329514285Y-99023809D01*
X329180952Y-98785714D02*
X328800000Y-98785714D01*
X329038095Y-98452380D02*
X329038095Y-99309523D01*
X328990476Y-99404761D01*
X328895238Y-99452380D01*
X328800000Y-99452380D01*
X328038095Y-99452380D02*
X328038095Y-98928571D01*
X328085714Y-98833333D01*
X328180952Y-98785714D01*
X328371428Y-98785714D01*
X328466666Y-98833333D01*
X328038095Y-99404761D02*
X328133333Y-99452380D01*
X328371428Y-99452380D01*
X328466666Y-99404761D01*
X328514285Y-99309523D01*
X328514285Y-99214285D01*
X328466666Y-99119047D01*
X328371428Y-99071428D01*
X328133333Y-99071428D01*
X328038095Y-99023809D01*
X326847619Y-98404761D02*
X327704761Y-99690476D01*
X326514285Y-98928571D02*
X326180952Y-98928571D01*
X326038095Y-99452380D02*
X326514285Y-99452380D01*
X326514285Y-98452380D01*
X326038095Y-98452380D01*
X325609523Y-98785714D02*
X325609523Y-99452380D01*
X325609523Y-98880952D02*
X325561904Y-98833333D01*
X325466666Y-98785714D01*
X325323809Y-98785714D01*
X325228571Y-98833333D01*
X325180952Y-98928571D01*
X325180952Y-99452380D01*
X324800000Y-98785714D02*
X324561904Y-99452380D01*
X324323809Y-98785714D01*
X323942857Y-99071428D02*
X323180952Y-99071428D01*
X322704761Y-99452380D02*
X322704761Y-98452380D01*
X322133333Y-99452380D02*
X322561904Y-98880952D01*
X322133333Y-98452380D02*
X322704761Y-99023809D01*
X321371428Y-98928571D02*
X321228571Y-98976190D01*
X321180952Y-99023809D01*
X321133333Y-99119047D01*
X321133333Y-99261904D01*
X321180952Y-99357142D01*
X321228571Y-99404761D01*
X321323809Y-99452380D01*
X321704761Y-99452380D01*
X321704761Y-98452380D01*
X321371428Y-98452380D01*
X321276190Y-98500000D01*
X321228571Y-98547619D01*
X321180952Y-98642857D01*
X321180952Y-98738095D01*
X321228571Y-98833333D01*
X321276190Y-98880952D01*
X321371428Y-98928571D01*
X321704761Y-98928571D01*
X320276190Y-98452380D02*
X320466666Y-98452380D01*
X320561904Y-98500000D01*
X320609523Y-98547619D01*
X320704761Y-98690476D01*
X320752380Y-98880952D01*
X320752380Y-99261904D01*
X320704761Y-99357142D01*
X320657142Y-99404761D01*
X320561904Y-99452380D01*
X320371428Y-99452380D01*
X320276190Y-99404761D01*
X320228571Y-99357142D01*
X320180952Y-99261904D01*
X320180952Y-99023809D01*
X320228571Y-98928571D01*
X320276190Y-98880952D01*
X320371428Y-98833333D01*
X320561904Y-98833333D01*
X320657142Y-98880952D01*
X320704761Y-98928571D01*
X320752380Y-99023809D01*
X319276190Y-98452380D02*
X319752380Y-98452380D01*
X319800000Y-98928571D01*
X319752380Y-98880952D01*
X319657142Y-98833333D01*
X319419047Y-98833333D01*
X319323809Y-98880952D01*
X319276190Y-98928571D01*
X319228571Y-99023809D01*
X319228571Y-99261904D01*
X319276190Y-99357142D01*
X319323809Y-99404761D01*
X319419047Y-99452380D01*
X319657142Y-99452380D01*
X319752380Y-99404761D01*
X319800000Y-99357142D01*
X318800000Y-99452380D02*
X318800000Y-98452380D01*
X318466666Y-99166666D01*
X318133333Y-98452380D01*
X318133333Y-99452380D01*
D11*
X270764285Y-161936904D02*
X270764285Y-156936904D01*
X268621428Y-161936904D02*
X268621428Y-159317857D01*
X268859523Y-158841666D01*
X269335714Y-158603571D01*
X270050000Y-158603571D01*
X270526190Y-158841666D01*
X270764285Y-159079761D01*
X266954761Y-158603571D02*
X265050000Y-158603571D01*
X266240476Y-156936904D02*
X266240476Y-161222619D01*
X266002380Y-161698809D01*
X265526190Y-161936904D01*
X265050000Y-161936904D01*
X264097619Y-158603571D02*
X262192857Y-158603571D01*
X263383333Y-156936904D02*
X263383333Y-161222619D01*
X263145238Y-161698809D01*
X262669047Y-161936904D01*
X262192857Y-161936904D01*
X260526190Y-158603571D02*
X260526190Y-163603571D01*
X260526190Y-158841666D02*
X260050000Y-158603571D01*
X259097619Y-158603571D01*
X258621428Y-158841666D01*
X258383333Y-159079761D01*
X258145238Y-159555952D01*
X258145238Y-160984523D01*
X258383333Y-161460714D01*
X258621428Y-161698809D01*
X259097619Y-161936904D01*
X260050000Y-161936904D01*
X260526190Y-161698809D01*
X256002380Y-161460714D02*
X255764285Y-161698809D01*
X256002380Y-161936904D01*
X256240476Y-161698809D01*
X256002380Y-161460714D01*
X256002380Y-161936904D01*
X256002380Y-158841666D02*
X255764285Y-159079761D01*
X256002380Y-159317857D01*
X256240476Y-159079761D01*
X256002380Y-158841666D01*
X256002380Y-159317857D01*
X250050000Y-156698809D02*
X254335714Y-163127380D01*
X244811904Y-156698809D02*
X249097619Y-163127380D01*
X243145238Y-161936904D02*
X243145238Y-156936904D01*
X241478571Y-160508333D01*
X239811904Y-156936904D01*
X239811904Y-161936904D01*
X235526190Y-161698809D02*
X236002380Y-161936904D01*
X236954761Y-161936904D01*
X237430952Y-161698809D01*
X237669047Y-161222619D01*
X237669047Y-159317857D01*
X237430952Y-158841666D01*
X236954761Y-158603571D01*
X236002380Y-158603571D01*
X235526190Y-158841666D01*
X235288095Y-159317857D01*
X235288095Y-159794047D01*
X237669047Y-160270238D01*
X231002380Y-161698809D02*
X231478571Y-161936904D01*
X232430952Y-161936904D01*
X232907142Y-161698809D01*
X233145238Y-161460714D01*
X233383333Y-160984523D01*
X233383333Y-159555952D01*
X233145238Y-159079761D01*
X232907142Y-158841666D01*
X232430952Y-158603571D01*
X231478571Y-158603571D01*
X231002380Y-158841666D01*
X228859523Y-161936904D02*
X228859523Y-156936904D01*
X226716666Y-161936904D02*
X226716666Y-159317857D01*
X226954761Y-158841666D01*
X227430952Y-158603571D01*
X228145238Y-158603571D01*
X228621428Y-158841666D01*
X228859523Y-159079761D01*
X224335714Y-161936904D02*
X224335714Y-156936904D01*
X224335714Y-158841666D02*
X223859523Y-158603571D01*
X222907142Y-158603571D01*
X222430952Y-158841666D01*
X222192857Y-159079761D01*
X221954761Y-159555952D01*
X221954761Y-160984523D01*
X222192857Y-161460714D01*
X222430952Y-161698809D01*
X222907142Y-161936904D01*
X223859523Y-161936904D01*
X224335714Y-161698809D01*
X219097619Y-161936904D02*
X219573809Y-161698809D01*
X219811904Y-161460714D01*
X220050000Y-160984523D01*
X220050000Y-159555952D01*
X219811904Y-159079761D01*
X219573809Y-158841666D01*
X219097619Y-158603571D01*
X218383333Y-158603571D01*
X217907142Y-158841666D01*
X217669047Y-159079761D01*
X217430952Y-159555952D01*
X217430952Y-160984523D01*
X217669047Y-161460714D01*
X217907142Y-161698809D01*
X218383333Y-161936904D01*
X219097619Y-161936904D01*
X213145238Y-161936904D02*
X213145238Y-159317857D01*
X213383333Y-158841666D01*
X213859523Y-158603571D01*
X214811904Y-158603571D01*
X215288095Y-158841666D01*
X213145238Y-161698809D02*
X213621428Y-161936904D01*
X214811904Y-161936904D01*
X215288095Y-161698809D01*
X215526190Y-161222619D01*
X215526190Y-160746428D01*
X215288095Y-160270238D01*
X214811904Y-160032142D01*
X213621428Y-160032142D01*
X213145238Y-159794047D01*
X210764285Y-161936904D02*
X210764285Y-158603571D01*
X210764285Y-159555952D02*
X210526190Y-159079761D01*
X210288095Y-158841666D01*
X209811904Y-158603571D01*
X209335714Y-158603571D01*
X205526190Y-161936904D02*
X205526190Y-156936904D01*
X205526190Y-161698809D02*
X206002380Y-161936904D01*
X206954761Y-161936904D01*
X207430952Y-161698809D01*
X207669047Y-161460714D01*
X207907142Y-160984523D01*
X207907142Y-159555952D01*
X207669047Y-159079761D01*
X207430952Y-158841666D01*
X206954761Y-158603571D01*
X206002380Y-158603571D01*
X205526190Y-158841666D01*
X203383333Y-161698809D02*
X202907142Y-161936904D01*
X201954761Y-161936904D01*
X201478571Y-161698809D01*
X201240476Y-161222619D01*
X201240476Y-160984523D01*
X201478571Y-160508333D01*
X201954761Y-160270238D01*
X202669047Y-160270238D01*
X203145238Y-160032142D01*
X203383333Y-159555952D01*
X203383333Y-159317857D01*
X203145238Y-158841666D01*
X202669047Y-158603571D01*
X201954761Y-158603571D01*
X201478571Y-158841666D01*
X199097619Y-161460714D02*
X198859523Y-161698809D01*
X199097619Y-161936904D01*
X199335714Y-161698809D01*
X199097619Y-161460714D01*
X199097619Y-161936904D01*
X194573809Y-161698809D02*
X195050000Y-161936904D01*
X196002380Y-161936904D01*
X196478571Y-161698809D01*
X196716666Y-161460714D01*
X196954761Y-160984523D01*
X196954761Y-159555952D01*
X196716666Y-159079761D01*
X196478571Y-158841666D01*
X196002380Y-158603571D01*
X195050000Y-158603571D01*
X194573809Y-158841666D01*
X191716666Y-161936904D02*
X192192857Y-161698809D01*
X192430952Y-161460714D01*
X192669047Y-160984523D01*
X192669047Y-159555952D01*
X192430952Y-159079761D01*
X192192857Y-158841666D01*
X191716666Y-158603571D01*
X191002380Y-158603571D01*
X190526190Y-158841666D01*
X190288095Y-159079761D01*
X190050000Y-159555952D01*
X190050000Y-160984523D01*
X190288095Y-161460714D01*
X190526190Y-161698809D01*
X191002380Y-161936904D01*
X191716666Y-161936904D01*
X187907142Y-161460714D02*
X187669047Y-161698809D01*
X187907142Y-161936904D01*
X188145238Y-161698809D01*
X187907142Y-161460714D01*
X187907142Y-161936904D01*
X183383333Y-158603571D02*
X183383333Y-161936904D01*
X185526190Y-158603571D02*
X185526190Y-161222619D01*
X185288095Y-161698809D01*
X184811904Y-161936904D01*
X184097619Y-161936904D01*
X183621428Y-161698809D01*
X183383333Y-161460714D01*
X181002380Y-161936904D02*
X181002380Y-156936904D01*
X180526190Y-160032142D02*
X179097619Y-161936904D01*
X179097619Y-158603571D02*
X181002380Y-160508333D01*
D12*
G36*
X222907290Y-136756458D02*
G01*
X221881348Y-136756559D01*
X220897052Y-136756713D01*
X219954173Y-136756920D01*
X219052483Y-136757180D01*
X218191752Y-136757494D01*
X217371751Y-136757863D01*
X216592251Y-136758285D01*
X215853023Y-136758763D01*
X215153838Y-136759295D01*
X214494467Y-136759883D01*
X213874682Y-136760526D01*
X213294252Y-136761226D01*
X212752949Y-136761981D01*
X212250545Y-136762793D01*
X211786809Y-136763663D01*
X211361513Y-136764589D01*
X210974428Y-136765572D01*
X210625325Y-136766614D01*
X210313974Y-136767714D01*
X210040148Y-136768872D01*
X209803616Y-136770089D01*
X209604151Y-136771365D01*
X209441522Y-136772700D01*
X209315500Y-136774095D01*
X209225858Y-136775550D01*
X209172365Y-136777065D01*
X209157112Y-136778052D01*
X208718885Y-136852668D01*
X208294919Y-136966186D01*
X207887313Y-137117121D01*
X207498164Y-137303991D01*
X207129572Y-137525311D01*
X206783634Y-137779597D01*
X206462449Y-138065365D01*
X206168116Y-138381132D01*
X205902732Y-138725413D01*
X205668398Y-139096725D01*
X205542428Y-139334181D01*
X205365895Y-139737994D01*
X205229461Y-140154929D01*
X205132804Y-140586045D01*
X205103173Y-140777666D01*
X205099594Y-140825851D01*
X205096218Y-140914033D01*
X205093045Y-141039876D01*
X205090075Y-141201047D01*
X205087309Y-141395208D01*
X205084745Y-141620024D01*
X205082384Y-141873161D01*
X205080226Y-142152281D01*
X205078272Y-142455051D01*
X205076520Y-142779134D01*
X205074972Y-143122196D01*
X205073626Y-143481899D01*
X205072484Y-143855910D01*
X205071545Y-144241892D01*
X205070808Y-144637510D01*
X205070275Y-145040429D01*
X205069945Y-145448313D01*
X205069818Y-145858826D01*
X205069894Y-146269633D01*
X205070173Y-146678399D01*
X205070655Y-147082788D01*
X205071340Y-147480465D01*
X205072228Y-147869094D01*
X205073320Y-148246339D01*
X205074614Y-148609865D01*
X205076111Y-148957338D01*
X205077812Y-149286420D01*
X205079715Y-149594777D01*
X205081822Y-149880073D01*
X205084131Y-150139973D01*
X205086644Y-150372141D01*
X205089360Y-150574241D01*
X205092278Y-150743939D01*
X205095400Y-150878899D01*
X205098725Y-150976785D01*
X205102253Y-151035262D01*
X205103173Y-151043500D01*
X205182513Y-151480936D01*
X205301168Y-151903391D01*
X205459445Y-152311603D01*
X205657650Y-152706305D01*
X205896089Y-153088235D01*
X206031611Y-153276123D01*
X206115593Y-153379375D01*
X206224167Y-153500974D01*
X206349031Y-153632621D01*
X206481885Y-153766015D01*
X206614427Y-153892853D01*
X206738357Y-154004835D01*
X206845373Y-154093661D01*
X206861544Y-154106056D01*
X207238142Y-154365054D01*
X207628757Y-154584111D01*
X208033470Y-154763261D01*
X208452361Y-154902536D01*
X208885510Y-155001968D01*
X209157112Y-155043114D01*
X209187959Y-155044312D01*
X209259854Y-155045472D01*
X209371525Y-155046594D01*
X209521698Y-155047679D01*
X209709102Y-155048726D01*
X209932464Y-155049735D01*
X210190510Y-155050707D01*
X210481969Y-155051641D01*
X210805567Y-155052537D01*
X211160032Y-155053396D01*
X211544090Y-155054217D01*
X211956471Y-155055001D01*
X212395899Y-155055747D01*
X212861104Y-155056457D01*
X213350812Y-155057128D01*
X213863751Y-155057763D01*
X214398647Y-155058360D01*
X214954229Y-155058920D01*
X215529223Y-155059442D01*
X216122357Y-155059928D01*
X216732357Y-155060376D01*
X217357953Y-155060788D01*
X217997870Y-155061162D01*
X218650836Y-155061499D01*
X219315578Y-155061800D01*
X219990824Y-155062063D01*
X220675300Y-155062290D01*
X221367735Y-155062479D01*
X222066855Y-155062632D01*
X222771388Y-155062748D01*
X223480062Y-155062828D01*
X224191602Y-155062870D01*
X224904737Y-155062876D01*
X225618195Y-155062846D01*
X226330701Y-155062779D01*
X227040984Y-155062675D01*
X227747771Y-155062535D01*
X228449789Y-155062358D01*
X229145766Y-155062145D01*
X229834429Y-155061896D01*
X230514504Y-155061610D01*
X231184720Y-155061288D01*
X231843804Y-155060930D01*
X232490482Y-155060535D01*
X233123483Y-155060105D01*
X233741534Y-155059638D01*
X234343362Y-155059135D01*
X234927693Y-155058596D01*
X235493257Y-155058021D01*
X236038779Y-155057410D01*
X236562987Y-155056763D01*
X237064608Y-155056080D01*
X237542371Y-155055361D01*
X237995001Y-155054606D01*
X238421227Y-155053816D01*
X238819775Y-155052989D01*
X239189373Y-155052127D01*
X239528749Y-155051230D01*
X239836628Y-155050297D01*
X240111740Y-155049328D01*
X240352811Y-155048323D01*
X240558568Y-155047283D01*
X240727740Y-155046208D01*
X240859052Y-155045097D01*
X240951232Y-155043951D01*
X241003008Y-155042769D01*
X241013500Y-155042146D01*
X241453817Y-154964595D01*
X241881626Y-154846700D01*
X242296048Y-154688824D01*
X242696206Y-154491328D01*
X243081222Y-154254571D01*
X243288457Y-154106056D01*
X243391709Y-154022073D01*
X243513309Y-153913500D01*
X243644956Y-153788635D01*
X243778349Y-153655782D01*
X243905187Y-153523239D01*
X244017170Y-153399310D01*
X244105995Y-153292294D01*
X244118390Y-153276123D01*
X244377223Y-152900352D01*
X244595668Y-152512180D01*
X244774031Y-152110869D01*
X244912618Y-151695684D01*
X244926343Y-151636166D01*
X242399917Y-151636166D01*
X242399756Y-151850241D01*
X242399148Y-152026586D01*
X242397907Y-152169806D01*
X242395848Y-152284505D01*
X242392785Y-152375286D01*
X242388531Y-152446752D01*
X242382902Y-152503508D01*
X242375710Y-152550157D01*
X242366770Y-152591303D01*
X242360360Y-152615735D01*
X242296491Y-152780324D01*
X242201269Y-152936496D01*
X242082324Y-153074599D01*
X241947289Y-153184979D01*
X241878146Y-153225719D01*
X241821504Y-153254499D01*
X241770421Y-153278420D01*
X241720460Y-153297908D01*
X241667179Y-153313391D01*
X241606140Y-153325297D01*
X241532903Y-153334054D01*
X241443027Y-153340088D01*
X241332075Y-153343828D01*
X241195604Y-153345702D01*
X241029178Y-153346136D01*
X240828354Y-153345559D01*
X240643084Y-153344672D01*
X240422958Y-153343517D01*
X240240925Y-153342328D01*
X240092744Y-153340885D01*
X239974176Y-153338962D01*
X239880980Y-153336338D01*
X239808915Y-153332789D01*
X239753743Y-153328093D01*
X239711222Y-153322027D01*
X239677112Y-153314368D01*
X239647174Y-153304892D01*
X239617166Y-153293378D01*
X239609638Y-153290349D01*
X239445974Y-153204651D01*
X239295906Y-153088320D01*
X239166879Y-152949202D01*
X239066336Y-152795141D01*
X239008301Y-152656600D01*
X238999065Y-152623056D01*
X238991467Y-152584931D01*
X238985350Y-152537967D01*
X238980559Y-152477910D01*
X238976937Y-152400503D01*
X238974330Y-152301492D01*
X238972580Y-152176619D01*
X238971532Y-152021629D01*
X238971031Y-151832267D01*
X238971024Y-151819239D01*
X234682222Y-151819239D01*
X234682069Y-152035582D01*
X234680311Y-152212602D01*
X234676920Y-152351791D01*
X234671869Y-152454642D01*
X234665131Y-152522643D01*
X234662918Y-152535750D01*
X234604255Y-152731557D01*
X234509645Y-152907917D01*
X234382523Y-153060921D01*
X234226323Y-153186657D01*
X234044477Y-153281214D01*
X233990999Y-153301038D01*
X233954651Y-153313042D01*
X233919842Y-153322887D01*
X233882105Y-153330787D01*
X233836976Y-153336958D01*
X233779990Y-153341616D01*
X233706682Y-153344978D01*
X233612586Y-153347258D01*
X233493238Y-153348672D01*
X233344172Y-153349437D01*
X233160924Y-153349769D01*
X232980750Y-153349868D01*
X232746411Y-153349590D01*
X232550929Y-153348514D01*
X232390836Y-153346540D01*
X232262662Y-153343570D01*
X232162938Y-153339502D01*
X232088194Y-153334238D01*
X232034961Y-153327677D01*
X232007084Y-153321851D01*
X231818165Y-153250586D01*
X231648354Y-153145295D01*
X231502537Y-153010753D01*
X231385600Y-152851736D01*
X231302427Y-152673018D01*
X231284641Y-152615735D01*
X231274541Y-152575687D01*
X231266302Y-152532951D01*
X231259738Y-152482925D01*
X231254665Y-152421004D01*
X231250895Y-152342585D01*
X231248244Y-152243064D01*
X231246525Y-152117838D01*
X231245552Y-151962302D01*
X231245140Y-151771855D01*
X231245084Y-151636166D01*
X226905917Y-151636166D01*
X226905756Y-151850241D01*
X226905148Y-152026586D01*
X226903907Y-152169806D01*
X226901848Y-152284505D01*
X226898785Y-152375286D01*
X226894531Y-152446752D01*
X226888902Y-152503508D01*
X226881710Y-152550157D01*
X226872770Y-152591303D01*
X226866360Y-152615735D01*
X226794686Y-152798377D01*
X226687660Y-152963693D01*
X226550472Y-153106548D01*
X226388309Y-153221804D01*
X226206362Y-153304327D01*
X226154500Y-153320335D01*
X226113372Y-153327738D01*
X226046015Y-153333894D01*
X225949806Y-153338882D01*
X225822123Y-153342778D01*
X225660342Y-153345659D01*
X225461839Y-153347604D01*
X225223991Y-153348688D01*
X225188355Y-153348773D01*
X224971703Y-153349136D01*
X224792927Y-153349074D01*
X224647573Y-153348407D01*
X224531183Y-153346955D01*
X224439302Y-153344541D01*
X224367475Y-153340983D01*
X224311244Y-153336102D01*
X224266155Y-153329719D01*
X224227751Y-153321655D01*
X224191577Y-153311729D01*
X224179765Y-153308137D01*
X223995388Y-153229733D01*
X223831750Y-153117208D01*
X223693279Y-152975506D01*
X223584401Y-152809568D01*
X223509542Y-152624339D01*
X223488083Y-152535750D01*
X223480863Y-152477324D01*
X223475339Y-152384472D01*
X223471482Y-152255702D01*
X223469265Y-152089523D01*
X223468661Y-151884443D01*
X223468921Y-151819239D01*
X219124722Y-151819239D01*
X219124569Y-152035582D01*
X219122811Y-152212602D01*
X219119420Y-152351791D01*
X219114369Y-152454642D01*
X219107631Y-152522643D01*
X219105418Y-152535750D01*
X219046755Y-152731557D01*
X218952145Y-152907917D01*
X218825023Y-153060921D01*
X218668823Y-153186657D01*
X218486977Y-153281214D01*
X218433499Y-153301038D01*
X218397151Y-153313042D01*
X218362342Y-153322887D01*
X218324605Y-153330787D01*
X218279476Y-153336958D01*
X218222490Y-153341616D01*
X218149182Y-153344978D01*
X218055086Y-153347258D01*
X217935738Y-153348672D01*
X217786672Y-153349437D01*
X217603424Y-153349769D01*
X217423250Y-153349868D01*
X217188911Y-153349590D01*
X216993429Y-153348514D01*
X216833336Y-153346540D01*
X216705162Y-153343570D01*
X216605438Y-153339502D01*
X216530694Y-153334238D01*
X216477461Y-153327677D01*
X216449584Y-153321851D01*
X216260665Y-153250586D01*
X216090854Y-153145295D01*
X215945037Y-153010753D01*
X215828100Y-152851736D01*
X215744927Y-152673018D01*
X215727141Y-152615735D01*
X215717041Y-152575687D01*
X215708802Y-152532951D01*
X215702238Y-152482925D01*
X215697165Y-152421004D01*
X215693395Y-152342585D01*
X215690744Y-152243064D01*
X215689025Y-152117838D01*
X215688052Y-151962302D01*
X215687640Y-151771855D01*
X215687584Y-151636166D01*
X215232500Y-151636166D01*
X215232349Y-151862998D01*
X215231585Y-152052088D01*
X215229742Y-152208028D01*
X215226355Y-152335409D01*
X215220956Y-152438824D01*
X215213081Y-152522863D01*
X215202264Y-152592118D01*
X215188038Y-152651181D01*
X215169937Y-152704643D01*
X215147497Y-152757095D01*
X215120250Y-152813130D01*
X215111261Y-152830947D01*
X215052641Y-152922396D01*
X214969689Y-153021004D01*
X214874486Y-153114504D01*
X214779116Y-153190630D01*
X214723544Y-153224581D01*
X214665745Y-153253837D01*
X214613343Y-153278081D01*
X214561766Y-153297788D01*
X214506440Y-153313437D01*
X214442796Y-153325503D01*
X214366261Y-153334464D01*
X214272262Y-153340796D01*
X214156229Y-153344976D01*
X214013589Y-153347482D01*
X213839770Y-153348790D01*
X213630201Y-153349376D01*
X213525522Y-153349528D01*
X213308648Y-153349697D01*
X213129659Y-153349464D01*
X212984105Y-153348648D01*
X212867539Y-153347069D01*
X212775513Y-153344546D01*
X212703577Y-153340898D01*
X212647283Y-153335945D01*
X212602183Y-153329506D01*
X212563829Y-153321401D01*
X212527771Y-153311448D01*
X212518578Y-153308645D01*
X212340487Y-153234126D01*
X212178552Y-153128195D01*
X212040557Y-152997190D01*
X211934282Y-152847447D01*
X211920397Y-152821500D01*
X211892669Y-152765884D01*
X211869709Y-152714434D01*
X211851067Y-152662597D01*
X211836294Y-152605819D01*
X211824942Y-152539545D01*
X211816561Y-152459222D01*
X211810702Y-152360296D01*
X211806916Y-152238214D01*
X211804754Y-152088421D01*
X211803767Y-151906364D01*
X211803505Y-151687489D01*
X211803500Y-151636166D01*
X211390750Y-151636166D01*
X211390715Y-151860296D01*
X211390481Y-152046238D01*
X211389854Y-152198137D01*
X211388641Y-152320140D01*
X211386648Y-152416391D01*
X211383681Y-152491036D01*
X211379547Y-152548220D01*
X211374053Y-152592088D01*
X211367005Y-152626787D01*
X211358209Y-152656462D01*
X211347473Y-152685258D01*
X211341017Y-152701362D01*
X211249500Y-152875481D01*
X211125639Y-153031378D01*
X210976320Y-153162588D01*
X210808427Y-153262648D01*
X210696118Y-153306813D01*
X210660934Y-153317149D01*
X210623902Y-153325632D01*
X210580595Y-153332450D01*
X210526586Y-153337792D01*
X210457447Y-153341847D01*
X210368753Y-153344804D01*
X210256074Y-153346852D01*
X210114985Y-153348180D01*
X209941057Y-153348976D01*
X209729864Y-153349429D01*
X209695967Y-153349477D01*
X209474425Y-153349574D01*
X209290975Y-153349109D01*
X209141380Y-153347940D01*
X209021400Y-153345924D01*
X208926799Y-153342922D01*
X208853336Y-153338789D01*
X208796774Y-153333386D01*
X208752875Y-153326569D01*
X208717400Y-153318198D01*
X208711717Y-153316556D01*
X208513370Y-153237294D01*
X208341958Y-153125509D01*
X208198319Y-152981912D01*
X208083290Y-152807212D01*
X208061837Y-152764529D01*
X207982917Y-152599250D01*
X207982917Y-150673083D01*
X208061837Y-150507803D01*
X208169142Y-150329688D01*
X208306279Y-150178602D01*
X208468798Y-150058295D01*
X208652249Y-149972510D01*
X208723750Y-149950481D01*
X208763531Y-149942829D01*
X208822583Y-149936547D01*
X208904361Y-149931534D01*
X209012320Y-149927688D01*
X209149913Y-149924907D01*
X209320597Y-149923088D01*
X209527825Y-149922129D01*
X209689896Y-149921917D01*
X209905211Y-149921967D01*
X210082690Y-149922381D01*
X210226830Y-149923350D01*
X210342127Y-149925067D01*
X210433079Y-149927723D01*
X210504181Y-149931510D01*
X210559931Y-149936619D01*
X210604826Y-149943242D01*
X210643362Y-149951571D01*
X210680037Y-149961796D01*
X210688821Y-149964479D01*
X210868207Y-150041285D01*
X211032137Y-150153423D01*
X211174114Y-150294854D01*
X211287643Y-150459536D01*
X211341017Y-150570970D01*
X211352846Y-150600958D01*
X211362634Y-150629655D01*
X211370572Y-150661208D01*
X211376855Y-150699763D01*
X211381676Y-150749463D01*
X211385229Y-150814456D01*
X211387707Y-150898885D01*
X211389305Y-151006898D01*
X211390214Y-151142638D01*
X211390630Y-151310252D01*
X211390745Y-151513886D01*
X211390750Y-151636166D01*
X211803500Y-151636166D01*
X211803652Y-151409335D01*
X211804416Y-151220245D01*
X211806259Y-151064305D01*
X211809646Y-150936923D01*
X211815045Y-150833509D01*
X211822920Y-150749470D01*
X211833737Y-150680214D01*
X211847963Y-150621152D01*
X211866064Y-150567690D01*
X211888504Y-150515237D01*
X211915751Y-150459202D01*
X211924740Y-150441385D01*
X211987136Y-150344567D01*
X212075069Y-150241932D01*
X212175952Y-150146067D01*
X212277199Y-150069560D01*
X212323220Y-150042906D01*
X212381180Y-150014158D01*
X212434209Y-149990353D01*
X212486898Y-149971026D01*
X212543839Y-149955709D01*
X212609622Y-149943938D01*
X212688840Y-149935247D01*
X212786084Y-149929169D01*
X212905945Y-149925239D01*
X213053016Y-149922990D01*
X213231887Y-149921957D01*
X213447150Y-149921674D01*
X213518001Y-149921666D01*
X213744832Y-149921817D01*
X213933922Y-149922581D01*
X214089862Y-149924424D01*
X214217243Y-149927812D01*
X214320658Y-149933210D01*
X214404697Y-149941085D01*
X214473952Y-149951903D01*
X214533015Y-149966129D01*
X214586477Y-149984229D01*
X214638930Y-150006670D01*
X214694965Y-150033917D01*
X214712781Y-150042906D01*
X214809600Y-150105302D01*
X214912235Y-150193234D01*
X215008099Y-150294118D01*
X215084607Y-150395365D01*
X215111261Y-150441385D01*
X215140009Y-150499346D01*
X215163814Y-150552375D01*
X215183141Y-150605064D01*
X215198457Y-150662004D01*
X215210228Y-150727788D01*
X215218920Y-150807006D01*
X215224998Y-150904249D01*
X215228928Y-151024111D01*
X215231176Y-151171181D01*
X215232209Y-151350052D01*
X215232492Y-151565316D01*
X215232500Y-151636166D01*
X215687584Y-151636166D01*
X215687745Y-151422092D01*
X215688353Y-151245746D01*
X215689594Y-151102526D01*
X215691653Y-150987827D01*
X215694716Y-150897047D01*
X215698970Y-150825580D01*
X215704599Y-150768824D01*
X215711791Y-150722175D01*
X215720731Y-150681029D01*
X215727141Y-150656597D01*
X215798541Y-150474754D01*
X215904980Y-150310149D01*
X216040896Y-150168037D01*
X216200726Y-150053677D01*
X216378907Y-149972326D01*
X216481334Y-149943856D01*
X216530547Y-149936851D01*
X216607921Y-149931386D01*
X216715852Y-149927419D01*
X216856735Y-149924904D01*
X217032965Y-149923796D01*
X217246937Y-149924053D01*
X217476167Y-149925432D01*
X217692186Y-149927162D01*
X217870212Y-149928846D01*
X218014584Y-149930727D01*
X218129640Y-149933053D01*
X218219721Y-149936066D01*
X218289164Y-149940012D01*
X218342309Y-149945137D01*
X218383495Y-149951685D01*
X218417061Y-149959901D01*
X218447346Y-149970029D01*
X218477863Y-149981983D01*
X218655035Y-150075607D01*
X218812887Y-150203222D01*
X218945411Y-150358631D01*
X219046599Y-150535638D01*
X219070270Y-150592880D01*
X219081892Y-150625230D01*
X219091441Y-150657841D01*
X219099163Y-150695169D01*
X219105299Y-150741667D01*
X219110096Y-150801791D01*
X219113795Y-150879994D01*
X219116641Y-150980733D01*
X219118877Y-151108460D01*
X219120747Y-151267631D01*
X219122495Y-151462701D01*
X219123297Y-151562083D01*
X219124722Y-151819239D01*
X223468921Y-151819239D01*
X223469643Y-151638970D01*
X223470204Y-151562083D01*
X223471976Y-151349629D01*
X223473762Y-151175054D01*
X223475806Y-151033902D01*
X223478351Y-150921719D01*
X223481640Y-150834050D01*
X223485919Y-150766441D01*
X223491430Y-150714437D01*
X223498417Y-150673584D01*
X223507124Y-150639426D01*
X223517795Y-150607510D01*
X223523231Y-150592880D01*
X223613684Y-150410527D01*
X223737302Y-150247886D01*
X223888078Y-150111152D01*
X224060003Y-150006521D01*
X224115638Y-149981983D01*
X224146902Y-149969753D01*
X224177216Y-149959675D01*
X224210918Y-149951503D01*
X224252349Y-149944994D01*
X224305846Y-149939901D01*
X224375749Y-149935981D01*
X224466396Y-149932988D01*
X224582128Y-149930676D01*
X224727282Y-149928802D01*
X224906199Y-149927121D01*
X225117334Y-149925432D01*
X225367687Y-149923974D01*
X225578120Y-149923840D01*
X225751030Y-149925074D01*
X225888812Y-149927720D01*
X225993859Y-149931822D01*
X226068569Y-149937424D01*
X226112167Y-149943856D01*
X226297980Y-150005089D01*
X226468461Y-150102184D01*
X226618048Y-150229884D01*
X226741178Y-150382932D01*
X226832287Y-150556070D01*
X226866360Y-150656597D01*
X226876460Y-150696645D01*
X226884699Y-150739381D01*
X226891263Y-150789408D01*
X226896336Y-150851329D01*
X226900106Y-150929748D01*
X226902757Y-151029268D01*
X226904476Y-151154495D01*
X226905449Y-151310030D01*
X226905861Y-151500478D01*
X226905917Y-151636166D01*
X231245084Y-151636166D01*
X231245245Y-151422092D01*
X231245853Y-151245746D01*
X231247094Y-151102526D01*
X231249153Y-150987827D01*
X231252216Y-150897047D01*
X231256470Y-150825580D01*
X231262099Y-150768824D01*
X231269291Y-150722175D01*
X231278231Y-150681029D01*
X231284641Y-150656597D01*
X231356041Y-150474754D01*
X231462480Y-150310149D01*
X231598396Y-150168037D01*
X231758226Y-150053677D01*
X231936407Y-149972326D01*
X232038834Y-149943856D01*
X232088047Y-149936851D01*
X232165421Y-149931386D01*
X232273352Y-149927419D01*
X232414235Y-149924904D01*
X232590465Y-149923796D01*
X232804437Y-149924053D01*
X233033667Y-149925432D01*
X233249686Y-149927162D01*
X233427712Y-149928846D01*
X233572084Y-149930727D01*
X233687140Y-149933053D01*
X233777221Y-149936066D01*
X233846664Y-149940012D01*
X233899809Y-149945137D01*
X233940995Y-149951685D01*
X233974561Y-149959901D01*
X234004846Y-149970029D01*
X234035363Y-149981983D01*
X234212535Y-150075607D01*
X234370387Y-150203222D01*
X234502911Y-150358631D01*
X234604099Y-150535638D01*
X234627770Y-150592880D01*
X234639392Y-150625230D01*
X234648941Y-150657841D01*
X234656663Y-150695169D01*
X234662799Y-150741667D01*
X234667596Y-150801791D01*
X234671295Y-150879994D01*
X234674141Y-150980733D01*
X234676377Y-151108460D01*
X234678247Y-151267631D01*
X234679995Y-151462701D01*
X234680797Y-151562083D01*
X234682222Y-151819239D01*
X238971024Y-151819239D01*
X238970917Y-151636166D01*
X238971070Y-151413424D01*
X238971634Y-151228758D01*
X238972764Y-151077914D01*
X238974616Y-150956634D01*
X238977346Y-150860664D01*
X238981111Y-150785747D01*
X238986065Y-150727628D01*
X238992365Y-150682050D01*
X239000167Y-150644758D01*
X239008301Y-150615732D01*
X239078376Y-150455092D01*
X239183341Y-150302645D01*
X239315750Y-150166235D01*
X239468161Y-150053708D01*
X239609638Y-149981983D01*
X239640902Y-149969753D01*
X239671216Y-149959675D01*
X239704918Y-149951503D01*
X239746349Y-149944994D01*
X239799846Y-149939901D01*
X239869749Y-149935981D01*
X239960396Y-149932988D01*
X240076128Y-149930676D01*
X240221282Y-149928802D01*
X240400199Y-149927121D01*
X240611334Y-149925432D01*
X240861687Y-149923974D01*
X241072120Y-149923840D01*
X241245030Y-149925074D01*
X241382812Y-149927720D01*
X241487859Y-149931822D01*
X241562569Y-149937424D01*
X241606167Y-149943856D01*
X241791980Y-150005089D01*
X241962461Y-150102184D01*
X242112048Y-150229884D01*
X242235178Y-150382932D01*
X242326287Y-150556070D01*
X242360360Y-150656597D01*
X242370460Y-150696645D01*
X242378699Y-150739381D01*
X242385263Y-150789408D01*
X242390336Y-150851329D01*
X242394106Y-150929748D01*
X242396757Y-151029268D01*
X242398476Y-151154495D01*
X242399449Y-151310030D01*
X242399861Y-151500478D01*
X242399917Y-151636166D01*
X244926343Y-151636166D01*
X245011735Y-151265890D01*
X245046828Y-151043500D01*
X245050407Y-150995315D01*
X245053783Y-150907133D01*
X245056956Y-150781289D01*
X245059926Y-150620119D01*
X245062692Y-150425958D01*
X245065256Y-150201141D01*
X245067617Y-149948005D01*
X245069775Y-149668884D01*
X245071729Y-149366114D01*
X245073481Y-149042031D01*
X245075029Y-148698970D01*
X245076375Y-148339266D01*
X245077516Y-147965256D01*
X245078034Y-147752083D01*
X242399900Y-147752083D01*
X242399841Y-147966718D01*
X242399529Y-148143456D01*
X242398745Y-148286735D01*
X242397273Y-148400991D01*
X242394896Y-148490660D01*
X242391395Y-148560181D01*
X242386554Y-148613989D01*
X242380154Y-148656522D01*
X242371979Y-148692216D01*
X242361812Y-148725508D01*
X242350628Y-148757500D01*
X242260136Y-148952559D01*
X242139425Y-149119479D01*
X241990831Y-149256063D01*
X241816685Y-149360117D01*
X241642901Y-149423369D01*
X241586907Y-149432339D01*
X241494559Y-149439949D01*
X241371815Y-149446199D01*
X241224631Y-149451089D01*
X241058965Y-149454619D01*
X240880774Y-149456787D01*
X240696016Y-149457595D01*
X240510649Y-149457042D01*
X240330629Y-149455127D01*
X240161914Y-149451850D01*
X240010461Y-149447212D01*
X239882228Y-149441212D01*
X239783172Y-149433849D01*
X239719250Y-149425123D01*
X239712076Y-149423445D01*
X239530981Y-149355113D01*
X239365919Y-149251475D01*
X239222263Y-149118192D01*
X239105388Y-148960927D01*
X239020668Y-148785344D01*
X238983653Y-148655916D01*
X238976171Y-148596654D01*
X238970065Y-148501620D01*
X238965307Y-148376902D01*
X238961869Y-148228593D01*
X238959722Y-148062782D01*
X238958999Y-147917640D01*
X234686097Y-147917640D01*
X234684991Y-148093277D01*
X234682616Y-148256421D01*
X234678945Y-148400980D01*
X234673949Y-148520864D01*
X234667601Y-148609983D01*
X234661348Y-148655916D01*
X234602646Y-148838843D01*
X234508264Y-149008529D01*
X234383804Y-149159000D01*
X234234871Y-149284287D01*
X234067068Y-149378417D01*
X233942083Y-149422384D01*
X233885874Y-149431416D01*
X233793317Y-149439123D01*
X233670373Y-149445500D01*
X233523007Y-149450541D01*
X233357181Y-149454238D01*
X233178861Y-149456586D01*
X232994008Y-149457579D01*
X232808586Y-149457210D01*
X232628559Y-149455472D01*
X232459890Y-149452361D01*
X232308543Y-149447868D01*
X232180481Y-149441988D01*
X232081667Y-149434715D01*
X232018066Y-149426042D01*
X232011175Y-149424426D01*
X231819694Y-149353986D01*
X231648623Y-149249827D01*
X231502403Y-149116246D01*
X231385471Y-148957540D01*
X231302268Y-148778009D01*
X231284641Y-148721069D01*
X231274602Y-148681282D01*
X231266401Y-148638818D01*
X231259856Y-148589113D01*
X231254785Y-148527603D01*
X231251006Y-148449720D01*
X231248335Y-148350901D01*
X231246591Y-148226580D01*
X231245591Y-148072193D01*
X231245154Y-147883173D01*
X231245084Y-147730916D01*
X226905917Y-147730916D01*
X226905760Y-147946367D01*
X226905166Y-148124050D01*
X226903952Y-148268531D01*
X226901938Y-148384375D01*
X226898940Y-148476146D01*
X226894775Y-148548411D01*
X226889262Y-148605734D01*
X226882219Y-148652680D01*
X226873461Y-148693814D01*
X226866360Y-148721069D01*
X226794361Y-148904870D01*
X226687162Y-149070095D01*
X226549554Y-149212053D01*
X226386328Y-149326055D01*
X226202274Y-149407412D01*
X226148901Y-149423369D01*
X226092907Y-149432339D01*
X226000559Y-149439949D01*
X225877815Y-149446199D01*
X225730631Y-149451089D01*
X225564965Y-149454619D01*
X225386774Y-149456787D01*
X225202016Y-149457595D01*
X225016649Y-149457042D01*
X224836629Y-149455127D01*
X224667914Y-149451850D01*
X224516461Y-149447212D01*
X224388228Y-149441212D01*
X224289172Y-149433849D01*
X224225250Y-149425123D01*
X224218076Y-149423445D01*
X224036981Y-149355113D01*
X223871919Y-149251475D01*
X223728263Y-149118192D01*
X223611388Y-148960927D01*
X223526668Y-148785344D01*
X223489653Y-148655916D01*
X223482171Y-148596654D01*
X223476065Y-148501620D01*
X223471307Y-148376902D01*
X223467869Y-148228593D01*
X223465722Y-148062782D01*
X223464999Y-147917640D01*
X219128597Y-147917640D01*
X219127491Y-148093277D01*
X219125116Y-148256421D01*
X219121445Y-148400980D01*
X219116449Y-148520864D01*
X219110101Y-148609983D01*
X219103848Y-148655916D01*
X219045146Y-148838843D01*
X218950764Y-149008529D01*
X218826304Y-149159000D01*
X218677371Y-149284287D01*
X218509568Y-149378417D01*
X218384583Y-149422384D01*
X218328374Y-149431416D01*
X218235817Y-149439123D01*
X218112873Y-149445500D01*
X217965507Y-149450541D01*
X217799681Y-149454238D01*
X217621361Y-149456586D01*
X217436508Y-149457579D01*
X217251086Y-149457210D01*
X217071059Y-149455472D01*
X216902390Y-149452361D01*
X216751043Y-149447868D01*
X216622981Y-149441988D01*
X216524167Y-149434715D01*
X216460566Y-149426042D01*
X216453675Y-149424426D01*
X216262194Y-149353986D01*
X216091123Y-149249827D01*
X215944903Y-149116246D01*
X215827971Y-148957540D01*
X215744768Y-148778009D01*
X215727141Y-148721069D01*
X215717102Y-148681282D01*
X215708901Y-148638818D01*
X215702356Y-148589113D01*
X215697285Y-148527603D01*
X215693506Y-148449720D01*
X215690835Y-148350901D01*
X215689091Y-148226580D01*
X215688091Y-148072193D01*
X215687654Y-147883173D01*
X215687589Y-147741500D01*
X211401334Y-147741500D01*
X211401063Y-147962956D01*
X211400153Y-148146339D01*
X211398461Y-148295905D01*
X211395844Y-148415913D01*
X211392159Y-148510619D01*
X211387260Y-148584280D01*
X211381006Y-148641153D01*
X211373252Y-148685496D01*
X211368887Y-148703843D01*
X211299357Y-148889794D01*
X211194810Y-149057842D01*
X211060362Y-149202815D01*
X210901128Y-149319538D01*
X210722224Y-149402838D01*
X210658286Y-149422503D01*
X210601595Y-149431644D01*
X210508564Y-149439420D01*
X210385160Y-149445826D01*
X210237356Y-149450861D01*
X210071119Y-149454519D01*
X209892421Y-149456799D01*
X209707231Y-149457696D01*
X209521520Y-149457209D01*
X209341257Y-149455332D01*
X209172412Y-149452064D01*
X209020955Y-149447401D01*
X208892856Y-149441339D01*
X208794085Y-149433876D01*
X208730613Y-149425008D01*
X208724491Y-149423553D01*
X208533832Y-149352590D01*
X208363051Y-149245782D01*
X208216276Y-149106580D01*
X208097638Y-148938435D01*
X208061837Y-148869862D01*
X207982917Y-148704583D01*
X207976791Y-147780351D01*
X207975384Y-147557785D01*
X207974487Y-147373290D01*
X207974258Y-147222606D01*
X207974851Y-147101473D01*
X207976422Y-147005632D01*
X207979127Y-146930820D01*
X207983122Y-146872779D01*
X207988563Y-146827248D01*
X207995604Y-146789967D01*
X208004403Y-146756675D01*
X208015114Y-146723112D01*
X208015479Y-146722018D01*
X208097314Y-146539485D01*
X208211641Y-146377045D01*
X208353101Y-146239677D01*
X208516334Y-146132361D01*
X208695983Y-146060073D01*
X208740298Y-146048639D01*
X208781339Y-146044008D01*
X208859823Y-146039736D01*
X208970863Y-146035931D01*
X209109568Y-146032704D01*
X209271052Y-146030162D01*
X209450424Y-146028415D01*
X209642796Y-146027572D01*
X209688284Y-146027517D01*
X209914906Y-146027531D01*
X210103793Y-146028183D01*
X210259541Y-146029936D01*
X210386746Y-146033256D01*
X210490007Y-146038607D01*
X210573920Y-146046456D01*
X210643081Y-146057267D01*
X210702089Y-146071504D01*
X210755539Y-146089634D01*
X210808029Y-146112121D01*
X210864157Y-146139430D01*
X210881615Y-146148239D01*
X210977567Y-146210331D01*
X211079649Y-146298527D01*
X211175787Y-146400709D01*
X211253910Y-146504760D01*
X211279017Y-146547167D01*
X211308030Y-146603393D01*
X211332066Y-146656666D01*
X211351590Y-146711541D01*
X211367071Y-146772567D01*
X211378972Y-146844297D01*
X211387761Y-146931282D01*
X211393903Y-147038074D01*
X211397866Y-147169225D01*
X211400114Y-147329286D01*
X211401115Y-147522808D01*
X211401334Y-147741500D01*
X215687589Y-147741500D01*
X215687584Y-147730916D01*
X215687741Y-147515648D01*
X215688330Y-147338242D01*
X215689530Y-147194227D01*
X215691517Y-147079133D01*
X215694470Y-146988489D01*
X215698566Y-146917825D01*
X215703984Y-146862671D01*
X215710900Y-146818555D01*
X215719492Y-146781007D01*
X215726291Y-146757250D01*
X215804701Y-146568022D01*
X215916136Y-146399496D01*
X216055925Y-146256467D01*
X216219396Y-146143732D01*
X216398592Y-146067101D01*
X216433560Y-146057117D01*
X216471089Y-146048929D01*
X216515577Y-146042362D01*
X216571420Y-146037240D01*
X216643018Y-146033386D01*
X216734766Y-146030626D01*
X216851063Y-146028783D01*
X216996305Y-146027681D01*
X217174891Y-146027145D01*
X217391218Y-146027000D01*
X217401740Y-146027000D01*
X217619157Y-146027115D01*
X217798677Y-146027586D01*
X217944739Y-146028596D01*
X218061780Y-146030330D01*
X218154237Y-146032972D01*
X218226546Y-146036707D01*
X218283146Y-146041719D01*
X218328473Y-146048194D01*
X218366965Y-146056315D01*
X218403058Y-146066267D01*
X218412089Y-146069020D01*
X218600661Y-146148322D01*
X218766108Y-146260677D01*
X218904599Y-146402022D01*
X219012303Y-146568293D01*
X219085391Y-146755427D01*
X219095195Y-146793625D01*
X219103214Y-146849953D01*
X219110192Y-146942513D01*
X219116099Y-147065212D01*
X219120909Y-147211961D01*
X219124591Y-147376669D01*
X219127119Y-147553245D01*
X219128464Y-147735599D01*
X219128597Y-147917640D01*
X223464999Y-147917640D01*
X223464838Y-147885561D01*
X223465188Y-147703019D01*
X223466746Y-147521247D01*
X223469481Y-147346336D01*
X223473366Y-147184377D01*
X223478373Y-147041460D01*
X223484473Y-146923675D01*
X223491638Y-146837113D01*
X223498306Y-146793625D01*
X223564268Y-146602929D01*
X223665587Y-146432313D01*
X223798431Y-146285838D01*
X223958971Y-146167569D01*
X224143376Y-146081568D01*
X224181412Y-146069020D01*
X224217542Y-146058603D01*
X224254978Y-146050057D01*
X224298147Y-146043199D01*
X224351479Y-146037844D01*
X224419402Y-146033810D01*
X224506344Y-146030911D01*
X224616736Y-146028965D01*
X224755005Y-146027788D01*
X224925581Y-146027196D01*
X225132891Y-146027006D01*
X225194314Y-146027000D01*
X225411232Y-146027093D01*
X225590219Y-146027503D01*
X225735680Y-146028420D01*
X225852019Y-146030038D01*
X225943638Y-146032547D01*
X226014941Y-146036139D01*
X226070332Y-146041008D01*
X226114214Y-146047345D01*
X226150990Y-146055342D01*
X226185064Y-146065191D01*
X226202793Y-146070980D01*
X226392188Y-146155835D01*
X226557923Y-146274290D01*
X226696478Y-146422706D01*
X226804328Y-146597444D01*
X226867210Y-146757250D01*
X226877028Y-146792896D01*
X226885050Y-146832109D01*
X226891454Y-146879360D01*
X226896418Y-146939118D01*
X226900119Y-147015854D01*
X226902735Y-147114039D01*
X226904444Y-147238144D01*
X226905423Y-147392639D01*
X226905851Y-147581994D01*
X226905917Y-147730916D01*
X231245084Y-147730916D01*
X231245241Y-147515648D01*
X231245830Y-147338242D01*
X231247030Y-147194227D01*
X231249017Y-147079133D01*
X231251970Y-146988489D01*
X231256066Y-146917825D01*
X231261484Y-146862671D01*
X231268400Y-146818555D01*
X231276992Y-146781007D01*
X231283791Y-146757250D01*
X231362201Y-146568022D01*
X231473636Y-146399496D01*
X231613425Y-146256467D01*
X231776896Y-146143732D01*
X231956092Y-146067101D01*
X231991060Y-146057117D01*
X232028589Y-146048929D01*
X232073077Y-146042362D01*
X232128920Y-146037240D01*
X232200518Y-146033386D01*
X232292266Y-146030626D01*
X232408563Y-146028783D01*
X232553805Y-146027681D01*
X232732391Y-146027145D01*
X232948718Y-146027000D01*
X232959240Y-146027000D01*
X233176657Y-146027115D01*
X233356177Y-146027586D01*
X233502239Y-146028596D01*
X233619280Y-146030330D01*
X233711737Y-146032972D01*
X233784046Y-146036707D01*
X233840646Y-146041719D01*
X233885973Y-146048194D01*
X233924465Y-146056315D01*
X233960558Y-146066267D01*
X233969589Y-146069020D01*
X234158161Y-146148322D01*
X234323608Y-146260677D01*
X234462099Y-146402022D01*
X234569803Y-146568293D01*
X234642891Y-146755427D01*
X234652695Y-146793625D01*
X234660714Y-146849953D01*
X234667692Y-146942513D01*
X234673599Y-147065212D01*
X234678409Y-147211961D01*
X234682091Y-147376669D01*
X234684619Y-147553245D01*
X234685964Y-147735599D01*
X234686097Y-147917640D01*
X238958999Y-147917640D01*
X238958838Y-147885561D01*
X238959188Y-147703019D01*
X238960746Y-147521247D01*
X238963481Y-147346336D01*
X238967366Y-147184377D01*
X238972373Y-147041460D01*
X238978473Y-146923675D01*
X238985638Y-146837113D01*
X238992306Y-146793625D01*
X239058268Y-146602929D01*
X239159587Y-146432313D01*
X239292431Y-146285838D01*
X239452971Y-146167569D01*
X239637376Y-146081568D01*
X239675412Y-146069020D01*
X239711542Y-146058603D01*
X239748978Y-146050057D01*
X239792147Y-146043199D01*
X239845479Y-146037844D01*
X239913402Y-146033810D01*
X240000344Y-146030911D01*
X240110736Y-146028965D01*
X240249005Y-146027788D01*
X240419581Y-146027196D01*
X240626891Y-146027006D01*
X240688314Y-146027000D01*
X240905232Y-146027093D01*
X241084219Y-146027503D01*
X241229680Y-146028420D01*
X241346019Y-146030038D01*
X241437638Y-146032547D01*
X241508941Y-146036139D01*
X241564332Y-146041008D01*
X241608214Y-146047345D01*
X241644990Y-146055342D01*
X241679064Y-146065191D01*
X241696793Y-146070980D01*
X241886188Y-146155835D01*
X242051923Y-146274290D01*
X242190478Y-146422706D01*
X242298328Y-146597444D01*
X242361210Y-146757250D01*
X242370912Y-146792445D01*
X242378862Y-146831174D01*
X242385229Y-146877838D01*
X242390187Y-146936836D01*
X242393905Y-147012567D01*
X242396555Y-147109433D01*
X242398308Y-147231834D01*
X242399335Y-147384168D01*
X242399807Y-147570837D01*
X242399900Y-147752083D01*
X245078034Y-147752083D01*
X245078455Y-147579274D01*
X245079192Y-147183655D01*
X245079725Y-146780737D01*
X245080055Y-146372853D01*
X245080182Y-145962340D01*
X245080106Y-145551532D01*
X245079827Y-145142766D01*
X245079345Y-144738377D01*
X245078660Y-144340701D01*
X245078227Y-144151018D01*
X242408181Y-144151018D01*
X242406207Y-144324957D01*
X242401493Y-144470057D01*
X242393654Y-144590804D01*
X242382305Y-144691687D01*
X242367061Y-144777193D01*
X242347538Y-144851810D01*
X242323350Y-144920026D01*
X242295215Y-144984013D01*
X242191503Y-145154894D01*
X242056298Y-145302333D01*
X241895816Y-145421121D01*
X241716276Y-145506046D01*
X241646286Y-145527836D01*
X241595433Y-145535624D01*
X241508157Y-145542467D01*
X241390358Y-145548334D01*
X241247937Y-145553194D01*
X241086794Y-145557014D01*
X240912830Y-145559763D01*
X240731945Y-145561408D01*
X240550039Y-145561918D01*
X240373013Y-145561261D01*
X240206767Y-145559405D01*
X240057202Y-145556319D01*
X239930218Y-145551970D01*
X239831716Y-145546327D01*
X239767596Y-145539358D01*
X239760417Y-145538013D01*
X239575524Y-145478576D01*
X239404516Y-145382511D01*
X239252983Y-145254705D01*
X239126511Y-145100041D01*
X239030689Y-144923405D01*
X239016329Y-144887552D01*
X239005036Y-144856015D01*
X238995735Y-144823819D01*
X238988197Y-144786580D01*
X238982189Y-144739912D01*
X238977482Y-144679431D01*
X238973845Y-144600750D01*
X238971047Y-144499484D01*
X238968857Y-144371248D01*
X238967044Y-144211657D01*
X238965378Y-144016326D01*
X238964522Y-143903128D01*
X238963215Y-143635753D01*
X238963330Y-143561727D01*
X238598199Y-143561727D01*
X238597506Y-143775221D01*
X238595677Y-143970266D01*
X238593268Y-144171521D01*
X238590817Y-144335313D01*
X238588035Y-144466509D01*
X238584634Y-144569980D01*
X238580326Y-144650593D01*
X238574823Y-144713217D01*
X238567836Y-144762722D01*
X238559079Y-144803975D01*
X238548262Y-144841847D01*
X238543173Y-144857502D01*
X238458711Y-145046571D01*
X238340913Y-145212180D01*
X238193824Y-145350507D01*
X238021489Y-145457729D01*
X237832901Y-145528702D01*
X237782326Y-145536414D01*
X237695329Y-145543159D01*
X237577810Y-145548909D01*
X237435670Y-145553638D01*
X237274810Y-145557319D01*
X237101129Y-145559925D01*
X236920530Y-145561428D01*
X236738912Y-145561802D01*
X236562175Y-145561020D01*
X236396222Y-145559054D01*
X236246951Y-145555878D01*
X236120264Y-145551464D01*
X236022062Y-145545786D01*
X235958244Y-145538816D01*
X235950417Y-145537328D01*
X235765210Y-145476696D01*
X235595324Y-145379900D01*
X235445777Y-145251838D01*
X235321582Y-145097405D01*
X235227756Y-144921499D01*
X235182744Y-144787870D01*
X235173209Y-144728244D01*
X235165177Y-144632428D01*
X235158647Y-144506537D01*
X235153618Y-144356689D01*
X235150089Y-144188998D01*
X235148061Y-144009582D01*
X235147547Y-143829916D01*
X234683447Y-143829916D01*
X234683420Y-144070255D01*
X234682094Y-144272745D01*
X234678766Y-144441867D01*
X234672733Y-144582101D01*
X234663292Y-144697929D01*
X234649740Y-144793830D01*
X234631374Y-144874286D01*
X234607492Y-144943776D01*
X234577390Y-145006782D01*
X234540366Y-145067784D01*
X234495716Y-145131263D01*
X234474904Y-145159230D01*
X234336879Y-145308322D01*
X234171785Y-145425956D01*
X233983466Y-145509594D01*
X233912084Y-145530546D01*
X233856346Y-145539022D01*
X233764324Y-145546167D01*
X233642013Y-145551985D01*
X233495408Y-145556481D01*
X233330502Y-145559661D01*
X233153293Y-145561529D01*
X232969773Y-145562092D01*
X232785937Y-145561354D01*
X232607782Y-145559320D01*
X232441300Y-145555996D01*
X232292488Y-145551387D01*
X232167339Y-145545498D01*
X232071849Y-145538335D01*
X232012012Y-145529902D01*
X232007824Y-145528886D01*
X231814727Y-145457515D01*
X231643429Y-145350975D01*
X231496827Y-145211973D01*
X231377819Y-145043221D01*
X231294349Y-144861691D01*
X231282182Y-144827012D01*
X231272205Y-144793933D01*
X231264201Y-144758023D01*
X231257952Y-144714849D01*
X231253240Y-144659980D01*
X231249850Y-144588985D01*
X231247563Y-144497433D01*
X231246161Y-144380891D01*
X231245429Y-144234929D01*
X231245148Y-144055115D01*
X231245101Y-143857416D01*
X231245107Y-143848445D01*
X230726500Y-143848445D01*
X230726283Y-144082400D01*
X230725223Y-144278514D01*
X230722710Y-144441279D01*
X230718131Y-144575188D01*
X230710877Y-144684732D01*
X230700336Y-144774403D01*
X230685897Y-144848694D01*
X230666948Y-144912096D01*
X230642878Y-144969101D01*
X230613077Y-145024202D01*
X230576933Y-145081890D01*
X230553958Y-145116604D01*
X230424763Y-145274424D01*
X230269905Y-145398832D01*
X230088338Y-145490589D01*
X229996250Y-145521839D01*
X229961268Y-145531089D01*
X229922434Y-145538635D01*
X229875422Y-145544615D01*
X229815905Y-145549170D01*
X229739553Y-145552436D01*
X229642040Y-145554555D01*
X229519038Y-145555664D01*
X229366218Y-145555903D01*
X229179255Y-145555411D01*
X228980250Y-145554468D01*
X228758656Y-145553127D01*
X228575169Y-145551559D01*
X228425565Y-145549589D01*
X228305617Y-145547038D01*
X228211101Y-145543728D01*
X228137791Y-145539483D01*
X228081461Y-145534124D01*
X228037886Y-145527475D01*
X228002841Y-145519357D01*
X227980406Y-145512466D01*
X227819544Y-145437990D01*
X227667272Y-145329054D01*
X227531753Y-145193529D01*
X227421148Y-145039286D01*
X227357817Y-144912029D01*
X227345587Y-144880765D01*
X227335509Y-144850451D01*
X227327337Y-144816748D01*
X227320828Y-144775318D01*
X227315736Y-144721821D01*
X227311815Y-144651918D01*
X227308822Y-144561270D01*
X227306511Y-144445539D01*
X227304637Y-144300384D01*
X227303213Y-144148845D01*
X226914482Y-144148845D01*
X226912830Y-144321306D01*
X226908523Y-144464996D01*
X226901171Y-144584427D01*
X226890387Y-144684111D01*
X226875783Y-144768560D01*
X226856969Y-144842287D01*
X226833558Y-144909803D01*
X226805162Y-144975621D01*
X226800758Y-144984976D01*
X226697277Y-145155292D01*
X226562151Y-145302445D01*
X226401726Y-145421123D01*
X226222349Y-145506012D01*
X226152286Y-145527836D01*
X226101018Y-145535721D01*
X226013340Y-145542632D01*
X225895167Y-145548539D01*
X225752411Y-145553413D01*
X225590985Y-145557224D01*
X225416803Y-145559941D01*
X225235779Y-145561535D01*
X225053825Y-145561975D01*
X224876855Y-145561231D01*
X224710783Y-145559274D01*
X224561522Y-145556074D01*
X224434984Y-145551599D01*
X224337084Y-145545821D01*
X224273735Y-145538709D01*
X224267032Y-145537409D01*
X224076007Y-145475531D01*
X223903089Y-145378091D01*
X223752800Y-145249619D01*
X223629661Y-145094648D01*
X223538193Y-144917708D01*
X223489785Y-144758431D01*
X223483042Y-144703795D01*
X223477377Y-144609144D01*
X223472846Y-144476784D01*
X223469509Y-144309021D01*
X223467423Y-144108163D01*
X223466647Y-143876514D01*
X223466647Y-143840499D01*
X223466667Y-143829916D01*
X219125947Y-143829916D01*
X219125920Y-144070255D01*
X219124594Y-144272745D01*
X219121266Y-144441867D01*
X219115233Y-144582101D01*
X219105792Y-144697929D01*
X219092240Y-144793830D01*
X219073874Y-144874286D01*
X219049992Y-144943776D01*
X219019890Y-145006782D01*
X218982866Y-145067784D01*
X218938216Y-145131263D01*
X218917404Y-145159230D01*
X218779379Y-145308322D01*
X218614285Y-145425956D01*
X218425966Y-145509594D01*
X218354584Y-145530546D01*
X218298846Y-145539022D01*
X218206824Y-145546167D01*
X218084513Y-145551985D01*
X217937908Y-145556481D01*
X217773002Y-145559661D01*
X217595793Y-145561529D01*
X217412273Y-145562092D01*
X217228437Y-145561354D01*
X217050282Y-145559320D01*
X216883800Y-145555996D01*
X216734988Y-145551387D01*
X216609839Y-145545498D01*
X216514349Y-145538335D01*
X216454512Y-145529902D01*
X216450324Y-145528886D01*
X216257227Y-145457515D01*
X216085929Y-145350975D01*
X215939327Y-145211973D01*
X215820319Y-145043221D01*
X215736849Y-144861691D01*
X215724682Y-144827012D01*
X215714705Y-144793933D01*
X215706701Y-144758023D01*
X215700452Y-144714849D01*
X215695740Y-144659980D01*
X215692350Y-144588985D01*
X215690063Y-144497433D01*
X215688661Y-144380891D01*
X215687929Y-144234929D01*
X215687648Y-144055115D01*
X215687601Y-143857416D01*
X215687606Y-143849895D01*
X215232249Y-143849895D01*
X215232099Y-144083666D01*
X215231092Y-144279601D01*
X215228617Y-144442199D01*
X215224062Y-144575955D01*
X215216815Y-144685368D01*
X215206265Y-144774934D01*
X215191799Y-144849151D01*
X215172807Y-144912516D01*
X215148677Y-144969526D01*
X215118796Y-145024678D01*
X215082553Y-145082470D01*
X215059958Y-145116604D01*
X214930763Y-145274424D01*
X214775905Y-145398832D01*
X214594338Y-145490589D01*
X214502250Y-145521839D01*
X214467268Y-145531089D01*
X214428434Y-145538635D01*
X214381422Y-145544615D01*
X214321905Y-145549170D01*
X214245553Y-145552436D01*
X214148040Y-145554555D01*
X214025038Y-145555664D01*
X213872218Y-145555903D01*
X213685255Y-145555411D01*
X213486250Y-145554468D01*
X213264656Y-145553127D01*
X213081169Y-145551559D01*
X212931565Y-145549589D01*
X212811617Y-145547038D01*
X212717101Y-145543728D01*
X212643791Y-145539483D01*
X212587461Y-145534124D01*
X212543886Y-145527475D01*
X212508841Y-145519357D01*
X212486406Y-145512466D01*
X212325544Y-145437990D01*
X212173272Y-145329054D01*
X212037753Y-145193529D01*
X211927148Y-145039286D01*
X211863817Y-144912029D01*
X211851587Y-144880765D01*
X211841509Y-144850451D01*
X211833337Y-144816748D01*
X211826828Y-144775318D01*
X211821736Y-144721821D01*
X211817815Y-144651918D01*
X211814822Y-144561270D01*
X211812511Y-144445539D01*
X211810637Y-144300384D01*
X211808955Y-144121468D01*
X211807266Y-143910333D01*
X211806917Y-143850328D01*
X211404652Y-143850328D01*
X211403881Y-144036353D01*
X211401641Y-144216213D01*
X211397932Y-144383848D01*
X211392754Y-144533200D01*
X211386109Y-144658209D01*
X211377995Y-144752815D01*
X211368779Y-144809590D01*
X211300150Y-144991738D01*
X211196153Y-145157544D01*
X211062319Y-145301586D01*
X210904182Y-145418446D01*
X210727272Y-145502703D01*
X210632235Y-145531221D01*
X210575140Y-145539551D01*
X210482017Y-145546556D01*
X210358840Y-145552243D01*
X210211583Y-145556620D01*
X210046218Y-145559694D01*
X209868721Y-145561472D01*
X209685063Y-145561961D01*
X209501220Y-145561169D01*
X209323164Y-145559103D01*
X209156870Y-145555771D01*
X209008310Y-145551179D01*
X208883458Y-145545336D01*
X208788289Y-145538247D01*
X208728775Y-145529922D01*
X208724491Y-145528886D01*
X208533832Y-145457923D01*
X208363051Y-145351116D01*
X208216276Y-145211914D01*
X208097638Y-145043769D01*
X208061837Y-144975196D01*
X207982917Y-144809916D01*
X207976578Y-143892896D01*
X207975183Y-143666379D01*
X207974491Y-143478026D01*
X207974614Y-143323674D01*
X207975665Y-143199157D01*
X207977757Y-143100311D01*
X207981002Y-143022971D01*
X207985514Y-142962974D01*
X207991406Y-142916153D01*
X207998790Y-142878346D01*
X208004701Y-142855729D01*
X208075869Y-142679327D01*
X208180970Y-142517683D01*
X208313758Y-142377028D01*
X208467988Y-142263592D01*
X208637416Y-142183606D01*
X208696681Y-142165323D01*
X208733598Y-142156582D01*
X208775452Y-142149465D01*
X208826512Y-142143855D01*
X208891047Y-142139632D01*
X208973327Y-142136679D01*
X209077621Y-142134875D01*
X209208198Y-142134104D01*
X209369327Y-142134245D01*
X209565278Y-142135181D01*
X209739750Y-142136349D01*
X210649917Y-142142916D01*
X210815197Y-142221836D01*
X210993138Y-142329064D01*
X211143407Y-142465951D01*
X211262553Y-142628366D01*
X211347126Y-142812180D01*
X211368887Y-142884490D01*
X211378409Y-142944016D01*
X211386460Y-143039792D01*
X211393039Y-143165757D01*
X211398148Y-143315852D01*
X211401786Y-143484019D01*
X211403954Y-143664197D01*
X211404652Y-143850328D01*
X211806917Y-143850328D01*
X211805809Y-143659980D01*
X211805675Y-143449546D01*
X211806908Y-143276636D01*
X211809554Y-143138855D01*
X211813656Y-143033807D01*
X211819259Y-142959098D01*
X211825690Y-142915500D01*
X211887422Y-142727799D01*
X211985295Y-142556616D01*
X212114686Y-142407048D01*
X212270972Y-142284194D01*
X212449529Y-142193150D01*
X212496041Y-142176313D01*
X212530169Y-142165524D01*
X212564761Y-142156657D01*
X212604175Y-142149523D01*
X212652773Y-142143935D01*
X212714914Y-142139705D01*
X212794960Y-142136646D01*
X212897269Y-142134569D01*
X213026202Y-142133288D01*
X213186120Y-142132615D01*
X213381381Y-142132361D01*
X213518000Y-142132333D01*
X213736677Y-142132424D01*
X213917380Y-142132822D01*
X214064470Y-142133714D01*
X214182308Y-142135288D01*
X214275253Y-142137733D01*
X214347666Y-142141234D01*
X214403907Y-142145981D01*
X214448335Y-142152161D01*
X214485312Y-142159961D01*
X214519198Y-142169568D01*
X214539960Y-142176313D01*
X214727995Y-142260682D01*
X214892261Y-142378418D01*
X215029129Y-142525655D01*
X215134970Y-142698525D01*
X215203685Y-142883750D01*
X215211338Y-142923530D01*
X215217620Y-142982582D01*
X215222633Y-143064360D01*
X215226479Y-143172319D01*
X215229260Y-143309912D01*
X215231079Y-143480596D01*
X215232037Y-143687824D01*
X215232249Y-143849895D01*
X215687606Y-143849895D01*
X215687747Y-143639399D01*
X215688307Y-143459314D01*
X215689454Y-143312762D01*
X215691357Y-143195343D01*
X215694189Y-143102656D01*
X215698120Y-143030301D01*
X215703322Y-142973879D01*
X215709965Y-142928989D01*
X215718221Y-142891231D01*
X215726291Y-142862583D01*
X215807118Y-142667878D01*
X215923379Y-142495780D01*
X216073450Y-142348430D01*
X216168515Y-142279554D01*
X216222387Y-142245477D01*
X216272862Y-142216994D01*
X216324180Y-142193636D01*
X216380582Y-142174934D01*
X216446311Y-142160422D01*
X216525608Y-142149629D01*
X216622715Y-142142088D01*
X216741872Y-142137331D01*
X216887322Y-142134890D01*
X217063306Y-142134295D01*
X217274066Y-142135079D01*
X217465584Y-142136349D01*
X218375750Y-142142916D01*
X218534500Y-142219081D01*
X218716943Y-142327945D01*
X218868120Y-142463560D01*
X218986069Y-142623617D01*
X219068831Y-142805806D01*
X219088363Y-142871448D01*
X219097867Y-142912792D01*
X219105620Y-142959895D01*
X219111802Y-143017344D01*
X219116591Y-143089725D01*
X219120169Y-143181625D01*
X219122714Y-143297631D01*
X219124407Y-143442330D01*
X219125428Y-143620309D01*
X219125947Y-143829916D01*
X223466667Y-143829916D01*
X223467083Y-143609908D01*
X223468509Y-143417075D01*
X223471396Y-143257430D01*
X223476214Y-143126402D01*
X223483431Y-143019419D01*
X223493518Y-142931911D01*
X223506943Y-142859305D01*
X223524178Y-142797031D01*
X223545692Y-142740518D01*
X223571954Y-142685194D01*
X223588603Y-142653595D01*
X223688362Y-142507773D01*
X223819721Y-142374939D01*
X223972057Y-142264990D01*
X224051501Y-142222296D01*
X224217750Y-142142916D01*
X225135436Y-142136770D01*
X225362238Y-142135426D01*
X225550864Y-142134780D01*
X225705467Y-142134946D01*
X225830201Y-142136036D01*
X225929219Y-142138162D01*
X226006674Y-142141437D01*
X226066720Y-142145975D01*
X226113511Y-142151886D01*
X226151199Y-142159285D01*
X226172603Y-142164894D01*
X226358867Y-142239789D01*
X226525288Y-142350329D01*
X226668316Y-142493086D01*
X226784402Y-142664632D01*
X226857801Y-142826565D01*
X226869573Y-142861219D01*
X226879167Y-142897537D01*
X226886878Y-142940326D01*
X226893002Y-142994391D01*
X226897832Y-143064539D01*
X226901665Y-143155577D01*
X226904794Y-143272310D01*
X226907516Y-143419545D01*
X226910124Y-143602087D01*
X226911371Y-143699562D01*
X226913866Y-143943101D01*
X226914482Y-144148845D01*
X227303213Y-144148845D01*
X227302955Y-144121468D01*
X227301266Y-143910333D01*
X227299657Y-143675584D01*
X227299045Y-143478764D01*
X227299807Y-143315473D01*
X227302321Y-143181310D01*
X227306967Y-143071876D01*
X227314123Y-142982771D01*
X227324168Y-142909595D01*
X227337479Y-142847947D01*
X227354435Y-142793428D01*
X227375414Y-142741638D01*
X227400796Y-142688177D01*
X227407539Y-142674697D01*
X227515742Y-142505819D01*
X227655709Y-142362698D01*
X227823031Y-142249093D01*
X227992519Y-142175478D01*
X228026129Y-142164714D01*
X228059338Y-142155864D01*
X228096401Y-142148773D01*
X228141573Y-142143285D01*
X228199110Y-142139245D01*
X228273267Y-142136499D01*
X228368299Y-142134889D01*
X228488463Y-142134263D01*
X228638013Y-142134463D01*
X228821205Y-142135334D01*
X229042295Y-142136722D01*
X229052498Y-142136790D01*
X229978376Y-142142916D01*
X230159769Y-142232825D01*
X230337444Y-142341251D01*
X230481774Y-142474759D01*
X230594657Y-142635626D01*
X230677989Y-142826126D01*
X230692390Y-142871716D01*
X230701103Y-142906466D01*
X230708239Y-142949166D01*
X230713946Y-143004068D01*
X230718373Y-143075424D01*
X230721668Y-143167486D01*
X230723980Y-143284505D01*
X230725456Y-143430734D01*
X230726247Y-143610424D01*
X230726499Y-143827829D01*
X230726500Y-143848445D01*
X231245107Y-143848445D01*
X231245247Y-143639399D01*
X231245807Y-143459314D01*
X231246954Y-143312762D01*
X231248857Y-143195343D01*
X231251689Y-143102656D01*
X231255620Y-143030301D01*
X231260822Y-142973879D01*
X231267465Y-142928989D01*
X231275721Y-142891231D01*
X231283791Y-142862583D01*
X231364618Y-142667878D01*
X231480879Y-142495780D01*
X231630950Y-142348430D01*
X231726015Y-142279554D01*
X231779887Y-142245477D01*
X231830362Y-142216994D01*
X231881680Y-142193636D01*
X231938082Y-142174934D01*
X232003811Y-142160422D01*
X232083108Y-142149629D01*
X232180215Y-142142088D01*
X232299372Y-142137331D01*
X232444822Y-142134890D01*
X232620806Y-142134295D01*
X232831566Y-142135079D01*
X233023084Y-142136349D01*
X233933250Y-142142916D01*
X234092000Y-142219081D01*
X234274443Y-142327945D01*
X234425620Y-142463560D01*
X234543569Y-142623617D01*
X234626331Y-142805806D01*
X234645863Y-142871448D01*
X234655367Y-142912792D01*
X234663120Y-142959895D01*
X234669302Y-143017344D01*
X234674091Y-143089725D01*
X234677669Y-143181625D01*
X234680214Y-143297631D01*
X234681907Y-143442330D01*
X234682928Y-143620309D01*
X234683447Y-143829916D01*
X235147547Y-143829916D01*
X235147531Y-143824556D01*
X235148500Y-143640036D01*
X235150967Y-143462140D01*
X235154930Y-143296982D01*
X235160390Y-143150679D01*
X235167346Y-143029348D01*
X235175797Y-142939104D01*
X235182958Y-142896167D01*
X235248788Y-142706754D01*
X235350923Y-142536070D01*
X235485891Y-142388347D01*
X235650222Y-142267817D01*
X235735501Y-142222296D01*
X235901750Y-142142916D01*
X236819436Y-142136770D01*
X237056064Y-142135331D01*
X237254667Y-142134737D01*
X237419550Y-142135411D01*
X237555020Y-142137773D01*
X237665382Y-142142247D01*
X237754944Y-142149252D01*
X237828010Y-142159212D01*
X237888886Y-142172546D01*
X237941879Y-142189678D01*
X237991295Y-142211029D01*
X238041440Y-142237020D01*
X238083378Y-142260529D01*
X238201591Y-142344466D01*
X238317520Y-142456190D01*
X238419016Y-142582323D01*
X238493926Y-142709486D01*
X238496812Y-142715755D01*
X238523160Y-142779293D01*
X238544899Y-142845977D01*
X238562379Y-142920265D01*
X238575952Y-143006612D01*
X238585970Y-143109475D01*
X238592783Y-143233311D01*
X238596742Y-143382576D01*
X238598199Y-143561727D01*
X238963330Y-143561727D01*
X238963566Y-143410453D01*
X238965578Y-143227004D01*
X238969255Y-143085181D01*
X238974601Y-142984757D01*
X238981621Y-142925509D01*
X238981763Y-142924816D01*
X239040924Y-142741039D01*
X239136949Y-142570549D01*
X239264998Y-142419372D01*
X239420230Y-142293536D01*
X239546471Y-142221836D01*
X239711750Y-142142916D01*
X240629436Y-142136770D01*
X240856238Y-142135426D01*
X241044864Y-142134780D01*
X241199467Y-142134946D01*
X241324201Y-142136036D01*
X241423219Y-142138162D01*
X241500674Y-142141437D01*
X241560720Y-142145975D01*
X241607511Y-142151886D01*
X241645199Y-142159285D01*
X241666603Y-142164894D01*
X241849513Y-142238785D01*
X242014780Y-142348128D01*
X242157316Y-142487948D01*
X242272034Y-142653268D01*
X242352876Y-142836164D01*
X242364743Y-142874882D01*
X242374384Y-142915261D01*
X242382100Y-142962280D01*
X242388197Y-143020919D01*
X242392978Y-143096158D01*
X242396746Y-143192977D01*
X242399805Y-143316355D01*
X242402458Y-143471273D01*
X242405009Y-143662711D01*
X242405448Y-143698666D01*
X242407799Y-143943750D01*
X242408181Y-144151018D01*
X245078227Y-144151018D01*
X245077772Y-143952072D01*
X245076681Y-143574827D01*
X245075387Y-143211300D01*
X245073890Y-142863828D01*
X245072189Y-142534746D01*
X245070286Y-142226389D01*
X245068179Y-141941093D01*
X245065870Y-141681193D01*
X245063357Y-141449025D01*
X245060641Y-141246924D01*
X245057723Y-141077226D01*
X245054601Y-140942267D01*
X245051276Y-140844381D01*
X245047748Y-140785904D01*
X245046828Y-140777666D01*
X244967320Y-140340074D01*
X244857551Y-139950406D01*
X219130333Y-139950406D01*
X219129608Y-140134972D01*
X219127422Y-140313101D01*
X219123771Y-140478702D01*
X219118653Y-140625685D01*
X219112065Y-140747960D01*
X219104004Y-140839435D01*
X219095594Y-140889991D01*
X219024219Y-141083580D01*
X218918340Y-141256714D01*
X218782180Y-141405113D01*
X218619960Y-141524493D01*
X218435904Y-141610572D01*
X218362790Y-141633211D01*
X218323935Y-141641393D01*
X218271427Y-141648076D01*
X218201243Y-141653393D01*
X218109364Y-141657474D01*
X217991767Y-141660448D01*
X217844432Y-141662447D01*
X217663338Y-141663602D01*
X217444464Y-141664041D01*
X217412667Y-141664053D01*
X217196057Y-141663892D01*
X217017245Y-141663200D01*
X216871697Y-141661808D01*
X216754878Y-141659548D01*
X216662255Y-141656252D01*
X216589292Y-141651751D01*
X216531458Y-141645878D01*
X216484216Y-141638464D01*
X216443034Y-141629340D01*
X216437282Y-141627862D01*
X216248647Y-141557716D01*
X216082237Y-141453403D01*
X215941025Y-141318460D01*
X215827984Y-141156421D01*
X215746087Y-140970824D01*
X215698307Y-140765203D01*
X215695803Y-140746009D01*
X215689036Y-140662880D01*
X215684066Y-140540810D01*
X215680943Y-140383158D01*
X215679715Y-140193280D01*
X215680431Y-139974534D01*
X215682130Y-139804895D01*
X215684765Y-139604878D01*
X215687355Y-139442360D01*
X215690203Y-139312507D01*
X215693613Y-139210486D01*
X215697888Y-139131463D01*
X215703333Y-139070605D01*
X215710251Y-139023078D01*
X215718945Y-138984050D01*
X215729721Y-138948686D01*
X215737291Y-138927274D01*
X215802117Y-138775944D01*
X215879512Y-138650484D01*
X215979715Y-138534496D01*
X215987328Y-138526827D01*
X216102701Y-138425203D01*
X216226465Y-138346765D01*
X216374943Y-138281312D01*
X216387775Y-138276552D01*
X216423131Y-138264341D01*
X216459105Y-138254405D01*
X216500525Y-138246443D01*
X216552216Y-138240151D01*
X216619007Y-138235228D01*
X216705724Y-138231373D01*
X216817194Y-138228282D01*
X216958245Y-138225655D01*
X217133702Y-138223187D01*
X217266683Y-138221549D01*
X217510080Y-138219181D01*
X217715677Y-138218658D01*
X217887984Y-138220368D01*
X218031508Y-138224699D01*
X218150760Y-138232040D01*
X218250248Y-138242780D01*
X218334480Y-138257308D01*
X218407966Y-138276011D01*
X218475214Y-138299279D01*
X218540733Y-138327501D01*
X218550810Y-138332242D01*
X218723327Y-138437005D01*
X218870974Y-138573384D01*
X218989170Y-138735841D01*
X219073336Y-138918840D01*
X219094721Y-138989823D01*
X219104148Y-139048910D01*
X219112133Y-139144195D01*
X219118674Y-139269587D01*
X219123767Y-139418994D01*
X219127410Y-139586327D01*
X219129600Y-139765494D01*
X219130333Y-139950406D01*
X244857551Y-139950406D01*
X244848174Y-139917119D01*
X244689069Y-139507746D01*
X244607573Y-139334181D01*
X244393032Y-138947176D01*
X244146094Y-138586189D01*
X243868893Y-138252753D01*
X243563563Y-137948398D01*
X243232239Y-137674655D01*
X242877055Y-137433054D01*
X242500145Y-137225127D01*
X242103645Y-137052404D01*
X241689687Y-136916417D01*
X241260406Y-136818696D01*
X241055834Y-136786672D01*
X241037216Y-136784785D01*
X241009485Y-136782977D01*
X240971783Y-136781245D01*
X240923248Y-136779589D01*
X240863020Y-136778007D01*
X240790241Y-136776497D01*
X240704050Y-136775057D01*
X240603586Y-136773686D01*
X240487991Y-136772382D01*
X240356403Y-136771144D01*
X240207964Y-136769969D01*
X240041812Y-136768857D01*
X239857089Y-136767806D01*
X239652934Y-136766814D01*
X239428488Y-136765879D01*
X239182889Y-136765000D01*
X238915279Y-136764175D01*
X238624798Y-136763402D01*
X238310585Y-136762681D01*
X237971780Y-136762009D01*
X237607524Y-136761384D01*
X237216957Y-136760806D01*
X236799218Y-136760272D01*
X236353448Y-136759780D01*
X235878787Y-136759330D01*
X235374374Y-136758919D01*
X234839350Y-136758546D01*
X234272856Y-136758210D01*
X233674030Y-136757908D01*
X233042013Y-136757639D01*
X232375945Y-136757401D01*
X231674966Y-136757193D01*
X230938216Y-136757013D01*
X230164836Y-136756860D01*
X229353965Y-136756731D01*
X228504743Y-136756626D01*
X227616310Y-136756542D01*
X226687806Y-136756478D01*
X225718372Y-136756433D01*
X225085029Y-136756413D01*
X223975107Y-136756409D01*
X222907290Y-136756458D01*
G37*
X222907290Y-136756458D02*
X221881348Y-136756559D01*
X220897052Y-136756713D01*
X219954173Y-136756920D01*
X219052483Y-136757180D01*
X218191752Y-136757494D01*
X217371751Y-136757863D01*
X216592251Y-136758285D01*
X215853023Y-136758763D01*
X215153838Y-136759295D01*
X214494467Y-136759883D01*
X213874682Y-136760526D01*
X213294252Y-136761226D01*
X212752949Y-136761981D01*
X212250545Y-136762793D01*
X211786809Y-136763663D01*
X211361513Y-136764589D01*
X210974428Y-136765572D01*
X210625325Y-136766614D01*
X210313974Y-136767714D01*
X210040148Y-136768872D01*
X209803616Y-136770089D01*
X209604151Y-136771365D01*
X209441522Y-136772700D01*
X209315500Y-136774095D01*
X209225858Y-136775550D01*
X209172365Y-136777065D01*
X209157112Y-136778052D01*
X208718885Y-136852668D01*
X208294919Y-136966186D01*
X207887313Y-137117121D01*
X207498164Y-137303991D01*
X207129572Y-137525311D01*
X206783634Y-137779597D01*
X206462449Y-138065365D01*
X206168116Y-138381132D01*
X205902732Y-138725413D01*
X205668398Y-139096725D01*
X205542428Y-139334181D01*
X205365895Y-139737994D01*
X205229461Y-140154929D01*
X205132804Y-140586045D01*
X205103173Y-140777666D01*
X205099594Y-140825851D01*
X205096218Y-140914033D01*
X205093045Y-141039876D01*
X205090075Y-141201047D01*
X205087309Y-141395208D01*
X205084745Y-141620024D01*
X205082384Y-141873161D01*
X205080226Y-142152281D01*
X205078272Y-142455051D01*
X205076520Y-142779134D01*
X205074972Y-143122196D01*
X205073626Y-143481899D01*
X205072484Y-143855910D01*
X205071545Y-144241892D01*
X205070808Y-144637510D01*
X205070275Y-145040429D01*
X205069945Y-145448313D01*
X205069818Y-145858826D01*
X205069894Y-146269633D01*
X205070173Y-146678399D01*
X205070655Y-147082788D01*
X205071340Y-147480465D01*
X205072228Y-147869094D01*
X205073320Y-148246339D01*
X205074614Y-148609865D01*
X205076111Y-148957338D01*
X205077812Y-149286420D01*
X205079715Y-149594777D01*
X205081822Y-149880073D01*
X205084131Y-150139973D01*
X205086644Y-150372141D01*
X205089360Y-150574241D01*
X205092278Y-150743939D01*
X205095400Y-150878899D01*
X205098725Y-150976785D01*
X205102253Y-151035262D01*
X205103173Y-151043500D01*
X205182513Y-151480936D01*
X205301168Y-151903391D01*
X205459445Y-152311603D01*
X205657650Y-152706305D01*
X205896089Y-153088235D01*
X206031611Y-153276123D01*
X206115593Y-153379375D01*
X206224167Y-153500974D01*
X206349031Y-153632621D01*
X206481885Y-153766015D01*
X206614427Y-153892853D01*
X206738357Y-154004835D01*
X206845373Y-154093661D01*
X206861544Y-154106056D01*
X207238142Y-154365054D01*
X207628757Y-154584111D01*
X208033470Y-154763261D01*
X208452361Y-154902536D01*
X208885510Y-155001968D01*
X209157112Y-155043114D01*
X209187959Y-155044312D01*
X209259854Y-155045472D01*
X209371525Y-155046594D01*
X209521698Y-155047679D01*
X209709102Y-155048726D01*
X209932464Y-155049735D01*
X210190510Y-155050707D01*
X210481969Y-155051641D01*
X210805567Y-155052537D01*
X211160032Y-155053396D01*
X211544090Y-155054217D01*
X211956471Y-155055001D01*
X212395899Y-155055747D01*
X212861104Y-155056457D01*
X213350812Y-155057128D01*
X213863751Y-155057763D01*
X214398647Y-155058360D01*
X214954229Y-155058920D01*
X215529223Y-155059442D01*
X216122357Y-155059928D01*
X216732357Y-155060376D01*
X217357953Y-155060788D01*
X217997870Y-155061162D01*
X218650836Y-155061499D01*
X219315578Y-155061800D01*
X219990824Y-155062063D01*
X220675300Y-155062290D01*
X221367735Y-155062479D01*
X222066855Y-155062632D01*
X222771388Y-155062748D01*
X223480062Y-155062828D01*
X224191602Y-155062870D01*
X224904737Y-155062876D01*
X225618195Y-155062846D01*
X226330701Y-155062779D01*
X227040984Y-155062675D01*
X227747771Y-155062535D01*
X228449789Y-155062358D01*
X229145766Y-155062145D01*
X229834429Y-155061896D01*
X230514504Y-155061610D01*
X231184720Y-155061288D01*
X231843804Y-155060930D01*
X232490482Y-155060535D01*
X233123483Y-155060105D01*
X233741534Y-155059638D01*
X234343362Y-155059135D01*
X234927693Y-155058596D01*
X235493257Y-155058021D01*
X236038779Y-155057410D01*
X236562987Y-155056763D01*
X237064608Y-155056080D01*
X237542371Y-155055361D01*
X237995001Y-155054606D01*
X238421227Y-155053816D01*
X238819775Y-155052989D01*
X239189373Y-155052127D01*
X239528749Y-155051230D01*
X239836628Y-155050297D01*
X240111740Y-155049328D01*
X240352811Y-155048323D01*
X240558568Y-155047283D01*
X240727740Y-155046208D01*
X240859052Y-155045097D01*
X240951232Y-155043951D01*
X241003008Y-155042769D01*
X241013500Y-155042146D01*
X241453817Y-154964595D01*
X241881626Y-154846700D01*
X242296048Y-154688824D01*
X242696206Y-154491328D01*
X243081222Y-154254571D01*
X243288457Y-154106056D01*
X243391709Y-154022073D01*
X243513309Y-153913500D01*
X243644956Y-153788635D01*
X243778349Y-153655782D01*
X243905187Y-153523239D01*
X244017170Y-153399310D01*
X244105995Y-153292294D01*
X244118390Y-153276123D01*
X244377223Y-152900352D01*
X244595668Y-152512180D01*
X244774031Y-152110869D01*
X244912618Y-151695684D01*
X244926343Y-151636166D01*
X242399917Y-151636166D01*
X242399756Y-151850241D01*
X242399148Y-152026586D01*
X242397907Y-152169806D01*
X242395848Y-152284505D01*
X242392785Y-152375286D01*
X242388531Y-152446752D01*
X242382902Y-152503508D01*
X242375710Y-152550157D01*
X242366770Y-152591303D01*
X242360360Y-152615735D01*
X242296491Y-152780324D01*
X242201269Y-152936496D01*
X242082324Y-153074599D01*
X241947289Y-153184979D01*
X241878146Y-153225719D01*
X241821504Y-153254499D01*
X241770421Y-153278420D01*
X241720460Y-153297908D01*
X241667179Y-153313391D01*
X241606140Y-153325297D01*
X241532903Y-153334054D01*
X241443027Y-153340088D01*
X241332075Y-153343828D01*
X241195604Y-153345702D01*
X241029178Y-153346136D01*
X240828354Y-153345559D01*
X240643084Y-153344672D01*
X240422958Y-153343517D01*
X240240925Y-153342328D01*
X240092744Y-153340885D01*
X239974176Y-153338962D01*
X239880980Y-153336338D01*
X239808915Y-153332789D01*
X239753743Y-153328093D01*
X239711222Y-153322027D01*
X239677112Y-153314368D01*
X239647174Y-153304892D01*
X239617166Y-153293378D01*
X239609638Y-153290349D01*
X239445974Y-153204651D01*
X239295906Y-153088320D01*
X239166879Y-152949202D01*
X239066336Y-152795141D01*
X239008301Y-152656600D01*
X238999065Y-152623056D01*
X238991467Y-152584931D01*
X238985350Y-152537967D01*
X238980559Y-152477910D01*
X238976937Y-152400503D01*
X238974330Y-152301492D01*
X238972580Y-152176619D01*
X238971532Y-152021629D01*
X238971031Y-151832267D01*
X238971024Y-151819239D01*
X234682222Y-151819239D01*
X234682069Y-152035582D01*
X234680311Y-152212602D01*
X234676920Y-152351791D01*
X234671869Y-152454642D01*
X234665131Y-152522643D01*
X234662918Y-152535750D01*
X234604255Y-152731557D01*
X234509645Y-152907917D01*
X234382523Y-153060921D01*
X234226323Y-153186657D01*
X234044477Y-153281214D01*
X233990999Y-153301038D01*
X233954651Y-153313042D01*
X233919842Y-153322887D01*
X233882105Y-153330787D01*
X233836976Y-153336958D01*
X233779990Y-153341616D01*
X233706682Y-153344978D01*
X233612586Y-153347258D01*
X233493238Y-153348672D01*
X233344172Y-153349437D01*
X233160924Y-153349769D01*
X232980750Y-153349868D01*
X232746411Y-153349590D01*
X232550929Y-153348514D01*
X232390836Y-153346540D01*
X232262662Y-153343570D01*
X232162938Y-153339502D01*
X232088194Y-153334238D01*
X232034961Y-153327677D01*
X232007084Y-153321851D01*
X231818165Y-153250586D01*
X231648354Y-153145295D01*
X231502537Y-153010753D01*
X231385600Y-152851736D01*
X231302427Y-152673018D01*
X231284641Y-152615735D01*
X231274541Y-152575687D01*
X231266302Y-152532951D01*
X231259738Y-152482925D01*
X231254665Y-152421004D01*
X231250895Y-152342585D01*
X231248244Y-152243064D01*
X231246525Y-152117838D01*
X231245552Y-151962302D01*
X231245140Y-151771855D01*
X231245084Y-151636166D01*
X226905917Y-151636166D01*
X226905756Y-151850241D01*
X226905148Y-152026586D01*
X226903907Y-152169806D01*
X226901848Y-152284505D01*
X226898785Y-152375286D01*
X226894531Y-152446752D01*
X226888902Y-152503508D01*
X226881710Y-152550157D01*
X226872770Y-152591303D01*
X226866360Y-152615735D01*
X226794686Y-152798377D01*
X226687660Y-152963693D01*
X226550472Y-153106548D01*
X226388309Y-153221804D01*
X226206362Y-153304327D01*
X226154500Y-153320335D01*
X226113372Y-153327738D01*
X226046015Y-153333894D01*
X225949806Y-153338882D01*
X225822123Y-153342778D01*
X225660342Y-153345659D01*
X225461839Y-153347604D01*
X225223991Y-153348688D01*
X225188355Y-153348773D01*
X224971703Y-153349136D01*
X224792927Y-153349074D01*
X224647573Y-153348407D01*
X224531183Y-153346955D01*
X224439302Y-153344541D01*
X224367475Y-153340983D01*
X224311244Y-153336102D01*
X224266155Y-153329719D01*
X224227751Y-153321655D01*
X224191577Y-153311729D01*
X224179765Y-153308137D01*
X223995388Y-153229733D01*
X223831750Y-153117208D01*
X223693279Y-152975506D01*
X223584401Y-152809568D01*
X223509542Y-152624339D01*
X223488083Y-152535750D01*
X223480863Y-152477324D01*
X223475339Y-152384472D01*
X223471482Y-152255702D01*
X223469265Y-152089523D01*
X223468661Y-151884443D01*
X223468921Y-151819239D01*
X219124722Y-151819239D01*
X219124569Y-152035582D01*
X219122811Y-152212602D01*
X219119420Y-152351791D01*
X219114369Y-152454642D01*
X219107631Y-152522643D01*
X219105418Y-152535750D01*
X219046755Y-152731557D01*
X218952145Y-152907917D01*
X218825023Y-153060921D01*
X218668823Y-153186657D01*
X218486977Y-153281214D01*
X218433499Y-153301038D01*
X218397151Y-153313042D01*
X218362342Y-153322887D01*
X218324605Y-153330787D01*
X218279476Y-153336958D01*
X218222490Y-153341616D01*
X218149182Y-153344978D01*
X218055086Y-153347258D01*
X217935738Y-153348672D01*
X217786672Y-153349437D01*
X217603424Y-153349769D01*
X217423250Y-153349868D01*
X217188911Y-153349590D01*
X216993429Y-153348514D01*
X216833336Y-153346540D01*
X216705162Y-153343570D01*
X216605438Y-153339502D01*
X216530694Y-153334238D01*
X216477461Y-153327677D01*
X216449584Y-153321851D01*
X216260665Y-153250586D01*
X216090854Y-153145295D01*
X215945037Y-153010753D01*
X215828100Y-152851736D01*
X215744927Y-152673018D01*
X215727141Y-152615735D01*
X215717041Y-152575687D01*
X215708802Y-152532951D01*
X215702238Y-152482925D01*
X215697165Y-152421004D01*
X215693395Y-152342585D01*
X215690744Y-152243064D01*
X215689025Y-152117838D01*
X215688052Y-151962302D01*
X215687640Y-151771855D01*
X215687584Y-151636166D01*
X215232500Y-151636166D01*
X215232349Y-151862998D01*
X215231585Y-152052088D01*
X215229742Y-152208028D01*
X215226355Y-152335409D01*
X215220956Y-152438824D01*
X215213081Y-152522863D01*
X215202264Y-152592118D01*
X215188038Y-152651181D01*
X215169937Y-152704643D01*
X215147497Y-152757095D01*
X215120250Y-152813130D01*
X215111261Y-152830947D01*
X215052641Y-152922396D01*
X214969689Y-153021004D01*
X214874486Y-153114504D01*
X214779116Y-153190630D01*
X214723544Y-153224581D01*
X214665745Y-153253837D01*
X214613343Y-153278081D01*
X214561766Y-153297788D01*
X214506440Y-153313437D01*
X214442796Y-153325503D01*
X214366261Y-153334464D01*
X214272262Y-153340796D01*
X214156229Y-153344976D01*
X214013589Y-153347482D01*
X213839770Y-153348790D01*
X213630201Y-153349376D01*
X213525522Y-153349528D01*
X213308648Y-153349697D01*
X213129659Y-153349464D01*
X212984105Y-153348648D01*
X212867539Y-153347069D01*
X212775513Y-153344546D01*
X212703577Y-153340898D01*
X212647283Y-153335945D01*
X212602183Y-153329506D01*
X212563829Y-153321401D01*
X212527771Y-153311448D01*
X212518578Y-153308645D01*
X212340487Y-153234126D01*
X212178552Y-153128195D01*
X212040557Y-152997190D01*
X211934282Y-152847447D01*
X211920397Y-152821500D01*
X211892669Y-152765884D01*
X211869709Y-152714434D01*
X211851067Y-152662597D01*
X211836294Y-152605819D01*
X211824942Y-152539545D01*
X211816561Y-152459222D01*
X211810702Y-152360296D01*
X211806916Y-152238214D01*
X211804754Y-152088421D01*
X211803767Y-151906364D01*
X211803505Y-151687489D01*
X211803500Y-151636166D01*
X211390750Y-151636166D01*
X211390715Y-151860296D01*
X211390481Y-152046238D01*
X211389854Y-152198137D01*
X211388641Y-152320140D01*
X211386648Y-152416391D01*
X211383681Y-152491036D01*
X211379547Y-152548220D01*
X211374053Y-152592088D01*
X211367005Y-152626787D01*
X211358209Y-152656462D01*
X211347473Y-152685258D01*
X211341017Y-152701362D01*
X211249500Y-152875481D01*
X211125639Y-153031378D01*
X210976320Y-153162588D01*
X210808427Y-153262648D01*
X210696118Y-153306813D01*
X210660934Y-153317149D01*
X210623902Y-153325632D01*
X210580595Y-153332450D01*
X210526586Y-153337792D01*
X210457447Y-153341847D01*
X210368753Y-153344804D01*
X210256074Y-153346852D01*
X210114985Y-153348180D01*
X209941057Y-153348976D01*
X209729864Y-153349429D01*
X209695967Y-153349477D01*
X209474425Y-153349574D01*
X209290975Y-153349109D01*
X209141380Y-153347940D01*
X209021400Y-153345924D01*
X208926799Y-153342922D01*
X208853336Y-153338789D01*
X208796774Y-153333386D01*
X208752875Y-153326569D01*
X208717400Y-153318198D01*
X208711717Y-153316556D01*
X208513370Y-153237294D01*
X208341958Y-153125509D01*
X208198319Y-152981912D01*
X208083290Y-152807212D01*
X208061837Y-152764529D01*
X207982917Y-152599250D01*
X207982917Y-150673083D01*
X208061837Y-150507803D01*
X208169142Y-150329688D01*
X208306279Y-150178602D01*
X208468798Y-150058295D01*
X208652249Y-149972510D01*
X208723750Y-149950481D01*
X208763531Y-149942829D01*
X208822583Y-149936547D01*
X208904361Y-149931534D01*
X209012320Y-149927688D01*
X209149913Y-149924907D01*
X209320597Y-149923088D01*
X209527825Y-149922129D01*
X209689896Y-149921917D01*
X209905211Y-149921967D01*
X210082690Y-149922381D01*
X210226830Y-149923350D01*
X210342127Y-149925067D01*
X210433079Y-149927723D01*
X210504181Y-149931510D01*
X210559931Y-149936619D01*
X210604826Y-149943242D01*
X210643362Y-149951571D01*
X210680037Y-149961796D01*
X210688821Y-149964479D01*
X210868207Y-150041285D01*
X211032137Y-150153423D01*
X211174114Y-150294854D01*
X211287643Y-150459536D01*
X211341017Y-150570970D01*
X211352846Y-150600958D01*
X211362634Y-150629655D01*
X211370572Y-150661208D01*
X211376855Y-150699763D01*
X211381676Y-150749463D01*
X211385229Y-150814456D01*
X211387707Y-150898885D01*
X211389305Y-151006898D01*
X211390214Y-151142638D01*
X211390630Y-151310252D01*
X211390745Y-151513886D01*
X211390750Y-151636166D01*
X211803500Y-151636166D01*
X211803652Y-151409335D01*
X211804416Y-151220245D01*
X211806259Y-151064305D01*
X211809646Y-150936923D01*
X211815045Y-150833509D01*
X211822920Y-150749470D01*
X211833737Y-150680214D01*
X211847963Y-150621152D01*
X211866064Y-150567690D01*
X211888504Y-150515237D01*
X211915751Y-150459202D01*
X211924740Y-150441385D01*
X211987136Y-150344567D01*
X212075069Y-150241932D01*
X212175952Y-150146067D01*
X212277199Y-150069560D01*
X212323220Y-150042906D01*
X212381180Y-150014158D01*
X212434209Y-149990353D01*
X212486898Y-149971026D01*
X212543839Y-149955709D01*
X212609622Y-149943938D01*
X212688840Y-149935247D01*
X212786084Y-149929169D01*
X212905945Y-149925239D01*
X213053016Y-149922990D01*
X213231887Y-149921957D01*
X213447150Y-149921674D01*
X213518001Y-149921666D01*
X213744832Y-149921817D01*
X213933922Y-149922581D01*
X214089862Y-149924424D01*
X214217243Y-149927812D01*
X214320658Y-149933210D01*
X214404697Y-149941085D01*
X214473952Y-149951903D01*
X214533015Y-149966129D01*
X214586477Y-149984229D01*
X214638930Y-150006670D01*
X214694965Y-150033917D01*
X214712781Y-150042906D01*
X214809600Y-150105302D01*
X214912235Y-150193234D01*
X215008099Y-150294118D01*
X215084607Y-150395365D01*
X215111261Y-150441385D01*
X215140009Y-150499346D01*
X215163814Y-150552375D01*
X215183141Y-150605064D01*
X215198457Y-150662004D01*
X215210228Y-150727788D01*
X215218920Y-150807006D01*
X215224998Y-150904249D01*
X215228928Y-151024111D01*
X215231176Y-151171181D01*
X215232209Y-151350052D01*
X215232492Y-151565316D01*
X215232500Y-151636166D01*
X215687584Y-151636166D01*
X215687745Y-151422092D01*
X215688353Y-151245746D01*
X215689594Y-151102526D01*
X215691653Y-150987827D01*
X215694716Y-150897047D01*
X215698970Y-150825580D01*
X215704599Y-150768824D01*
X215711791Y-150722175D01*
X215720731Y-150681029D01*
X215727141Y-150656597D01*
X215798541Y-150474754D01*
X215904980Y-150310149D01*
X216040896Y-150168037D01*
X216200726Y-150053677D01*
X216378907Y-149972326D01*
X216481334Y-149943856D01*
X216530547Y-149936851D01*
X216607921Y-149931386D01*
X216715852Y-149927419D01*
X216856735Y-149924904D01*
X217032965Y-149923796D01*
X217246937Y-149924053D01*
X217476167Y-149925432D01*
X217692186Y-149927162D01*
X217870212Y-149928846D01*
X218014584Y-149930727D01*
X218129640Y-149933053D01*
X218219721Y-149936066D01*
X218289164Y-149940012D01*
X218342309Y-149945137D01*
X218383495Y-149951685D01*
X218417061Y-149959901D01*
X218447346Y-149970029D01*
X218477863Y-149981983D01*
X218655035Y-150075607D01*
X218812887Y-150203222D01*
X218945411Y-150358631D01*
X219046599Y-150535638D01*
X219070270Y-150592880D01*
X219081892Y-150625230D01*
X219091441Y-150657841D01*
X219099163Y-150695169D01*
X219105299Y-150741667D01*
X219110096Y-150801791D01*
X219113795Y-150879994D01*
X219116641Y-150980733D01*
X219118877Y-151108460D01*
X219120747Y-151267631D01*
X219122495Y-151462701D01*
X219123297Y-151562083D01*
X219124722Y-151819239D01*
X223468921Y-151819239D01*
X223469643Y-151638970D01*
X223470204Y-151562083D01*
X223471976Y-151349629D01*
X223473762Y-151175054D01*
X223475806Y-151033902D01*
X223478351Y-150921719D01*
X223481640Y-150834050D01*
X223485919Y-150766441D01*
X223491430Y-150714437D01*
X223498417Y-150673584D01*
X223507124Y-150639426D01*
X223517795Y-150607510D01*
X223523231Y-150592880D01*
X223613684Y-150410527D01*
X223737302Y-150247886D01*
X223888078Y-150111152D01*
X224060003Y-150006521D01*
X224115638Y-149981983D01*
X224146902Y-149969753D01*
X224177216Y-149959675D01*
X224210918Y-149951503D01*
X224252349Y-149944994D01*
X224305846Y-149939901D01*
X224375749Y-149935981D01*
X224466396Y-149932988D01*
X224582128Y-149930676D01*
X224727282Y-149928802D01*
X224906199Y-149927121D01*
X225117334Y-149925432D01*
X225367687Y-149923974D01*
X225578120Y-149923840D01*
X225751030Y-149925074D01*
X225888812Y-149927720D01*
X225993859Y-149931822D01*
X226068569Y-149937424D01*
X226112167Y-149943856D01*
X226297980Y-150005089D01*
X226468461Y-150102184D01*
X226618048Y-150229884D01*
X226741178Y-150382932D01*
X226832287Y-150556070D01*
X226866360Y-150656597D01*
X226876460Y-150696645D01*
X226884699Y-150739381D01*
X226891263Y-150789408D01*
X226896336Y-150851329D01*
X226900106Y-150929748D01*
X226902757Y-151029268D01*
X226904476Y-151154495D01*
X226905449Y-151310030D01*
X226905861Y-151500478D01*
X226905917Y-151636166D01*
X231245084Y-151636166D01*
X231245245Y-151422092D01*
X231245853Y-151245746D01*
X231247094Y-151102526D01*
X231249153Y-150987827D01*
X231252216Y-150897047D01*
X231256470Y-150825580D01*
X231262099Y-150768824D01*
X231269291Y-150722175D01*
X231278231Y-150681029D01*
X231284641Y-150656597D01*
X231356041Y-150474754D01*
X231462480Y-150310149D01*
X231598396Y-150168037D01*
X231758226Y-150053677D01*
X231936407Y-149972326D01*
X232038834Y-149943856D01*
X232088047Y-149936851D01*
X232165421Y-149931386D01*
X232273352Y-149927419D01*
X232414235Y-149924904D01*
X232590465Y-149923796D01*
X232804437Y-149924053D01*
X233033667Y-149925432D01*
X233249686Y-149927162D01*
X233427712Y-149928846D01*
X233572084Y-149930727D01*
X233687140Y-149933053D01*
X233777221Y-149936066D01*
X233846664Y-149940012D01*
X233899809Y-149945137D01*
X233940995Y-149951685D01*
X233974561Y-149959901D01*
X234004846Y-149970029D01*
X234035363Y-149981983D01*
X234212535Y-150075607D01*
X234370387Y-150203222D01*
X234502911Y-150358631D01*
X234604099Y-150535638D01*
X234627770Y-150592880D01*
X234639392Y-150625230D01*
X234648941Y-150657841D01*
X234656663Y-150695169D01*
X234662799Y-150741667D01*
X234667596Y-150801791D01*
X234671295Y-150879994D01*
X234674141Y-150980733D01*
X234676377Y-151108460D01*
X234678247Y-151267631D01*
X234679995Y-151462701D01*
X234680797Y-151562083D01*
X234682222Y-151819239D01*
X238971024Y-151819239D01*
X238970917Y-151636166D01*
X238971070Y-151413424D01*
X238971634Y-151228758D01*
X238972764Y-151077914D01*
X238974616Y-150956634D01*
X238977346Y-150860664D01*
X238981111Y-150785747D01*
X238986065Y-150727628D01*
X238992365Y-150682050D01*
X239000167Y-150644758D01*
X239008301Y-150615732D01*
X239078376Y-150455092D01*
X239183341Y-150302645D01*
X239315750Y-150166235D01*
X239468161Y-150053708D01*
X239609638Y-149981983D01*
X239640902Y-149969753D01*
X239671216Y-149959675D01*
X239704918Y-149951503D01*
X239746349Y-149944994D01*
X239799846Y-149939901D01*
X239869749Y-149935981D01*
X239960396Y-149932988D01*
X240076128Y-149930676D01*
X240221282Y-149928802D01*
X240400199Y-149927121D01*
X240611334Y-149925432D01*
X240861687Y-149923974D01*
X241072120Y-149923840D01*
X241245030Y-149925074D01*
X241382812Y-149927720D01*
X241487859Y-149931822D01*
X241562569Y-149937424D01*
X241606167Y-149943856D01*
X241791980Y-150005089D01*
X241962461Y-150102184D01*
X242112048Y-150229884D01*
X242235178Y-150382932D01*
X242326287Y-150556070D01*
X242360360Y-150656597D01*
X242370460Y-150696645D01*
X242378699Y-150739381D01*
X242385263Y-150789408D01*
X242390336Y-150851329D01*
X242394106Y-150929748D01*
X242396757Y-151029268D01*
X242398476Y-151154495D01*
X242399449Y-151310030D01*
X242399861Y-151500478D01*
X242399917Y-151636166D01*
X244926343Y-151636166D01*
X245011735Y-151265890D01*
X245046828Y-151043500D01*
X245050407Y-150995315D01*
X245053783Y-150907133D01*
X245056956Y-150781289D01*
X245059926Y-150620119D01*
X245062692Y-150425958D01*
X245065256Y-150201141D01*
X245067617Y-149948005D01*
X245069775Y-149668884D01*
X245071729Y-149366114D01*
X245073481Y-149042031D01*
X245075029Y-148698970D01*
X245076375Y-148339266D01*
X245077516Y-147965256D01*
X245078034Y-147752083D01*
X242399900Y-147752083D01*
X242399841Y-147966718D01*
X242399529Y-148143456D01*
X242398745Y-148286735D01*
X242397273Y-148400991D01*
X242394896Y-148490660D01*
X242391395Y-148560181D01*
X242386554Y-148613989D01*
X242380154Y-148656522D01*
X242371979Y-148692216D01*
X242361812Y-148725508D01*
X242350628Y-148757500D01*
X242260136Y-148952559D01*
X242139425Y-149119479D01*
X241990831Y-149256063D01*
X241816685Y-149360117D01*
X241642901Y-149423369D01*
X241586907Y-149432339D01*
X241494559Y-149439949D01*
X241371815Y-149446199D01*
X241224631Y-149451089D01*
X241058965Y-149454619D01*
X240880774Y-149456787D01*
X240696016Y-149457595D01*
X240510649Y-149457042D01*
X240330629Y-149455127D01*
X240161914Y-149451850D01*
X240010461Y-149447212D01*
X239882228Y-149441212D01*
X239783172Y-149433849D01*
X239719250Y-149425123D01*
X239712076Y-149423445D01*
X239530981Y-149355113D01*
X239365919Y-149251475D01*
X239222263Y-149118192D01*
X239105388Y-148960927D01*
X239020668Y-148785344D01*
X238983653Y-148655916D01*
X238976171Y-148596654D01*
X238970065Y-148501620D01*
X238965307Y-148376902D01*
X238961869Y-148228593D01*
X238959722Y-148062782D01*
X238958999Y-147917640D01*
X234686097Y-147917640D01*
X234684991Y-148093277D01*
X234682616Y-148256421D01*
X234678945Y-148400980D01*
X234673949Y-148520864D01*
X234667601Y-148609983D01*
X234661348Y-148655916D01*
X234602646Y-148838843D01*
X234508264Y-149008529D01*
X234383804Y-149159000D01*
X234234871Y-149284287D01*
X234067068Y-149378417D01*
X233942083Y-149422384D01*
X233885874Y-149431416D01*
X233793317Y-149439123D01*
X233670373Y-149445500D01*
X233523007Y-149450541D01*
X233357181Y-149454238D01*
X233178861Y-149456586D01*
X232994008Y-149457579D01*
X232808586Y-149457210D01*
X232628559Y-149455472D01*
X232459890Y-149452361D01*
X232308543Y-149447868D01*
X232180481Y-149441988D01*
X232081667Y-149434715D01*
X232018066Y-149426042D01*
X232011175Y-149424426D01*
X231819694Y-149353986D01*
X231648623Y-149249827D01*
X231502403Y-149116246D01*
X231385471Y-148957540D01*
X231302268Y-148778009D01*
X231284641Y-148721069D01*
X231274602Y-148681282D01*
X231266401Y-148638818D01*
X231259856Y-148589113D01*
X231254785Y-148527603D01*
X231251006Y-148449720D01*
X231248335Y-148350901D01*
X231246591Y-148226580D01*
X231245591Y-148072193D01*
X231245154Y-147883173D01*
X231245084Y-147730916D01*
X226905917Y-147730916D01*
X226905760Y-147946367D01*
X226905166Y-148124050D01*
X226903952Y-148268531D01*
X226901938Y-148384375D01*
X226898940Y-148476146D01*
X226894775Y-148548411D01*
X226889262Y-148605734D01*
X226882219Y-148652680D01*
X226873461Y-148693814D01*
X226866360Y-148721069D01*
X226794361Y-148904870D01*
X226687162Y-149070095D01*
X226549554Y-149212053D01*
X226386328Y-149326055D01*
X226202274Y-149407412D01*
X226148901Y-149423369D01*
X226092907Y-149432339D01*
X226000559Y-149439949D01*
X225877815Y-149446199D01*
X225730631Y-149451089D01*
X225564965Y-149454619D01*
X225386774Y-149456787D01*
X225202016Y-149457595D01*
X225016649Y-149457042D01*
X224836629Y-149455127D01*
X224667914Y-149451850D01*
X224516461Y-149447212D01*
X224388228Y-149441212D01*
X224289172Y-149433849D01*
X224225250Y-149425123D01*
X224218076Y-149423445D01*
X224036981Y-149355113D01*
X223871919Y-149251475D01*
X223728263Y-149118192D01*
X223611388Y-148960927D01*
X223526668Y-148785344D01*
X223489653Y-148655916D01*
X223482171Y-148596654D01*
X223476065Y-148501620D01*
X223471307Y-148376902D01*
X223467869Y-148228593D01*
X223465722Y-148062782D01*
X223464999Y-147917640D01*
X219128597Y-147917640D01*
X219127491Y-148093277D01*
X219125116Y-148256421D01*
X219121445Y-148400980D01*
X219116449Y-148520864D01*
X219110101Y-148609983D01*
X219103848Y-148655916D01*
X219045146Y-148838843D01*
X218950764Y-149008529D01*
X218826304Y-149159000D01*
X218677371Y-149284287D01*
X218509568Y-149378417D01*
X218384583Y-149422384D01*
X218328374Y-149431416D01*
X218235817Y-149439123D01*
X218112873Y-149445500D01*
X217965507Y-149450541D01*
X217799681Y-149454238D01*
X217621361Y-149456586D01*
X217436508Y-149457579D01*
X217251086Y-149457210D01*
X217071059Y-149455472D01*
X216902390Y-149452361D01*
X216751043Y-149447868D01*
X216622981Y-149441988D01*
X216524167Y-149434715D01*
X216460566Y-149426042D01*
X216453675Y-149424426D01*
X216262194Y-149353986D01*
X216091123Y-149249827D01*
X215944903Y-149116246D01*
X215827971Y-148957540D01*
X215744768Y-148778009D01*
X215727141Y-148721069D01*
X215717102Y-148681282D01*
X215708901Y-148638818D01*
X215702356Y-148589113D01*
X215697285Y-148527603D01*
X215693506Y-148449720D01*
X215690835Y-148350901D01*
X215689091Y-148226580D01*
X215688091Y-148072193D01*
X215687654Y-147883173D01*
X215687589Y-147741500D01*
X211401334Y-147741500D01*
X211401063Y-147962956D01*
X211400153Y-148146339D01*
X211398461Y-148295905D01*
X211395844Y-148415913D01*
X211392159Y-148510619D01*
X211387260Y-148584280D01*
X211381006Y-148641153D01*
X211373252Y-148685496D01*
X211368887Y-148703843D01*
X211299357Y-148889794D01*
X211194810Y-149057842D01*
X211060362Y-149202815D01*
X210901128Y-149319538D01*
X210722224Y-149402838D01*
X210658286Y-149422503D01*
X210601595Y-149431644D01*
X210508564Y-149439420D01*
X210385160Y-149445826D01*
X210237356Y-149450861D01*
X210071119Y-149454519D01*
X209892421Y-149456799D01*
X209707231Y-149457696D01*
X209521520Y-149457209D01*
X209341257Y-149455332D01*
X209172412Y-149452064D01*
X209020955Y-149447401D01*
X208892856Y-149441339D01*
X208794085Y-149433876D01*
X208730613Y-149425008D01*
X208724491Y-149423553D01*
X208533832Y-149352590D01*
X208363051Y-149245782D01*
X208216276Y-149106580D01*
X208097638Y-148938435D01*
X208061837Y-148869862D01*
X207982917Y-148704583D01*
X207976791Y-147780351D01*
X207975384Y-147557785D01*
X207974487Y-147373290D01*
X207974258Y-147222606D01*
X207974851Y-147101473D01*
X207976422Y-147005632D01*
X207979127Y-146930820D01*
X207983122Y-146872779D01*
X207988563Y-146827248D01*
X207995604Y-146789967D01*
X208004403Y-146756675D01*
X208015114Y-146723112D01*
X208015479Y-146722018D01*
X208097314Y-146539485D01*
X208211641Y-146377045D01*
X208353101Y-146239677D01*
X208516334Y-146132361D01*
X208695983Y-146060073D01*
X208740298Y-146048639D01*
X208781339Y-146044008D01*
X208859823Y-146039736D01*
X208970863Y-146035931D01*
X209109568Y-146032704D01*
X209271052Y-146030162D01*
X209450424Y-146028415D01*
X209642796Y-146027572D01*
X209688284Y-146027517D01*
X209914906Y-146027531D01*
X210103793Y-146028183D01*
X210259541Y-146029936D01*
X210386746Y-146033256D01*
X210490007Y-146038607D01*
X210573920Y-146046456D01*
X210643081Y-146057267D01*
X210702089Y-146071504D01*
X210755539Y-146089634D01*
X210808029Y-146112121D01*
X210864157Y-146139430D01*
X210881615Y-146148239D01*
X210977567Y-146210331D01*
X211079649Y-146298527D01*
X211175787Y-146400709D01*
X211253910Y-146504760D01*
X211279017Y-146547167D01*
X211308030Y-146603393D01*
X211332066Y-146656666D01*
X211351590Y-146711541D01*
X211367071Y-146772567D01*
X211378972Y-146844297D01*
X211387761Y-146931282D01*
X211393903Y-147038074D01*
X211397866Y-147169225D01*
X211400114Y-147329286D01*
X211401115Y-147522808D01*
X211401334Y-147741500D01*
X215687589Y-147741500D01*
X215687584Y-147730916D01*
X215687741Y-147515648D01*
X215688330Y-147338242D01*
X215689530Y-147194227D01*
X215691517Y-147079133D01*
X215694470Y-146988489D01*
X215698566Y-146917825D01*
X215703984Y-146862671D01*
X215710900Y-146818555D01*
X215719492Y-146781007D01*
X215726291Y-146757250D01*
X215804701Y-146568022D01*
X215916136Y-146399496D01*
X216055925Y-146256467D01*
X216219396Y-146143732D01*
X216398592Y-146067101D01*
X216433560Y-146057117D01*
X216471089Y-146048929D01*
X216515577Y-146042362D01*
X216571420Y-146037240D01*
X216643018Y-146033386D01*
X216734766Y-146030626D01*
X216851063Y-146028783D01*
X216996305Y-146027681D01*
X217174891Y-146027145D01*
X217391218Y-146027000D01*
X217401740Y-146027000D01*
X217619157Y-146027115D01*
X217798677Y-146027586D01*
X217944739Y-146028596D01*
X218061780Y-146030330D01*
X218154237Y-146032972D01*
X218226546Y-146036707D01*
X218283146Y-146041719D01*
X218328473Y-146048194D01*
X218366965Y-146056315D01*
X218403058Y-146066267D01*
X218412089Y-146069020D01*
X218600661Y-146148322D01*
X218766108Y-146260677D01*
X218904599Y-146402022D01*
X219012303Y-146568293D01*
X219085391Y-146755427D01*
X219095195Y-146793625D01*
X219103214Y-146849953D01*
X219110192Y-146942513D01*
X219116099Y-147065212D01*
X219120909Y-147211961D01*
X219124591Y-147376669D01*
X219127119Y-147553245D01*
X219128464Y-147735599D01*
X219128597Y-147917640D01*
X223464999Y-147917640D01*
X223464838Y-147885561D01*
X223465188Y-147703019D01*
X223466746Y-147521247D01*
X223469481Y-147346336D01*
X223473366Y-147184377D01*
X223478373Y-147041460D01*
X223484473Y-146923675D01*
X223491638Y-146837113D01*
X223498306Y-146793625D01*
X223564268Y-146602929D01*
X223665587Y-146432313D01*
X223798431Y-146285838D01*
X223958971Y-146167569D01*
X224143376Y-146081568D01*
X224181412Y-146069020D01*
X224217542Y-146058603D01*
X224254978Y-146050057D01*
X224298147Y-146043199D01*
X224351479Y-146037844D01*
X224419402Y-146033810D01*
X224506344Y-146030911D01*
X224616736Y-146028965D01*
X224755005Y-146027788D01*
X224925581Y-146027196D01*
X225132891Y-146027006D01*
X225194314Y-146027000D01*
X225411232Y-146027093D01*
X225590219Y-146027503D01*
X225735680Y-146028420D01*
X225852019Y-146030038D01*
X225943638Y-146032547D01*
X226014941Y-146036139D01*
X226070332Y-146041008D01*
X226114214Y-146047345D01*
X226150990Y-146055342D01*
X226185064Y-146065191D01*
X226202793Y-146070980D01*
X226392188Y-146155835D01*
X226557923Y-146274290D01*
X226696478Y-146422706D01*
X226804328Y-146597444D01*
X226867210Y-146757250D01*
X226877028Y-146792896D01*
X226885050Y-146832109D01*
X226891454Y-146879360D01*
X226896418Y-146939118D01*
X226900119Y-147015854D01*
X226902735Y-147114039D01*
X226904444Y-147238144D01*
X226905423Y-147392639D01*
X226905851Y-147581994D01*
X226905917Y-147730916D01*
X231245084Y-147730916D01*
X231245241Y-147515648D01*
X231245830Y-147338242D01*
X231247030Y-147194227D01*
X231249017Y-147079133D01*
X231251970Y-146988489D01*
X231256066Y-146917825D01*
X231261484Y-146862671D01*
X231268400Y-146818555D01*
X231276992Y-146781007D01*
X231283791Y-146757250D01*
X231362201Y-146568022D01*
X231473636Y-146399496D01*
X231613425Y-146256467D01*
X231776896Y-146143732D01*
X231956092Y-146067101D01*
X231991060Y-146057117D01*
X232028589Y-146048929D01*
X232073077Y-146042362D01*
X232128920Y-146037240D01*
X232200518Y-146033386D01*
X232292266Y-146030626D01*
X232408563Y-146028783D01*
X232553805Y-146027681D01*
X232732391Y-146027145D01*
X232948718Y-146027000D01*
X232959240Y-146027000D01*
X233176657Y-146027115D01*
X233356177Y-146027586D01*
X233502239Y-146028596D01*
X233619280Y-146030330D01*
X233711737Y-146032972D01*
X233784046Y-146036707D01*
X233840646Y-146041719D01*
X233885973Y-146048194D01*
X233924465Y-146056315D01*
X233960558Y-146066267D01*
X233969589Y-146069020D01*
X234158161Y-146148322D01*
X234323608Y-146260677D01*
X234462099Y-146402022D01*
X234569803Y-146568293D01*
X234642891Y-146755427D01*
X234652695Y-146793625D01*
X234660714Y-146849953D01*
X234667692Y-146942513D01*
X234673599Y-147065212D01*
X234678409Y-147211961D01*
X234682091Y-147376669D01*
X234684619Y-147553245D01*
X234685964Y-147735599D01*
X234686097Y-147917640D01*
X238958999Y-147917640D01*
X238958838Y-147885561D01*
X238959188Y-147703019D01*
X238960746Y-147521247D01*
X238963481Y-147346336D01*
X238967366Y-147184377D01*
X238972373Y-147041460D01*
X238978473Y-146923675D01*
X238985638Y-146837113D01*
X238992306Y-146793625D01*
X239058268Y-146602929D01*
X239159587Y-146432313D01*
X239292431Y-146285838D01*
X239452971Y-146167569D01*
X239637376Y-146081568D01*
X239675412Y-146069020D01*
X239711542Y-146058603D01*
X239748978Y-146050057D01*
X239792147Y-146043199D01*
X239845479Y-146037844D01*
X239913402Y-146033810D01*
X240000344Y-146030911D01*
X240110736Y-146028965D01*
X240249005Y-146027788D01*
X240419581Y-146027196D01*
X240626891Y-146027006D01*
X240688314Y-146027000D01*
X240905232Y-146027093D01*
X241084219Y-146027503D01*
X241229680Y-146028420D01*
X241346019Y-146030038D01*
X241437638Y-146032547D01*
X241508941Y-146036139D01*
X241564332Y-146041008D01*
X241608214Y-146047345D01*
X241644990Y-146055342D01*
X241679064Y-146065191D01*
X241696793Y-146070980D01*
X241886188Y-146155835D01*
X242051923Y-146274290D01*
X242190478Y-146422706D01*
X242298328Y-146597444D01*
X242361210Y-146757250D01*
X242370912Y-146792445D01*
X242378862Y-146831174D01*
X242385229Y-146877838D01*
X242390187Y-146936836D01*
X242393905Y-147012567D01*
X242396555Y-147109433D01*
X242398308Y-147231834D01*
X242399335Y-147384168D01*
X242399807Y-147570837D01*
X242399900Y-147752083D01*
X245078034Y-147752083D01*
X245078455Y-147579274D01*
X245079192Y-147183655D01*
X245079725Y-146780737D01*
X245080055Y-146372853D01*
X245080182Y-145962340D01*
X245080106Y-145551532D01*
X245079827Y-145142766D01*
X245079345Y-144738377D01*
X245078660Y-144340701D01*
X245078227Y-144151018D01*
X242408181Y-144151018D01*
X242406207Y-144324957D01*
X242401493Y-144470057D01*
X242393654Y-144590804D01*
X242382305Y-144691687D01*
X242367061Y-144777193D01*
X242347538Y-144851810D01*
X242323350Y-144920026D01*
X242295215Y-144984013D01*
X242191503Y-145154894D01*
X242056298Y-145302333D01*
X241895816Y-145421121D01*
X241716276Y-145506046D01*
X241646286Y-145527836D01*
X241595433Y-145535624D01*
X241508157Y-145542467D01*
X241390358Y-145548334D01*
X241247937Y-145553194D01*
X241086794Y-145557014D01*
X240912830Y-145559763D01*
X240731945Y-145561408D01*
X240550039Y-145561918D01*
X240373013Y-145561261D01*
X240206767Y-145559405D01*
X240057202Y-145556319D01*
X239930218Y-145551970D01*
X239831716Y-145546327D01*
X239767596Y-145539358D01*
X239760417Y-145538013D01*
X239575524Y-145478576D01*
X239404516Y-145382511D01*
X239252983Y-145254705D01*
X239126511Y-145100041D01*
X239030689Y-144923405D01*
X239016329Y-144887552D01*
X239005036Y-144856015D01*
X238995735Y-144823819D01*
X238988197Y-144786580D01*
X238982189Y-144739912D01*
X238977482Y-144679431D01*
X238973845Y-144600750D01*
X238971047Y-144499484D01*
X238968857Y-144371248D01*
X238967044Y-144211657D01*
X238965378Y-144016326D01*
X238964522Y-143903128D01*
X238963215Y-143635753D01*
X238963330Y-143561727D01*
X238598199Y-143561727D01*
X238597506Y-143775221D01*
X238595677Y-143970266D01*
X238593268Y-144171521D01*
X238590817Y-144335313D01*
X238588035Y-144466509D01*
X238584634Y-144569980D01*
X238580326Y-144650593D01*
X238574823Y-144713217D01*
X238567836Y-144762722D01*
X238559079Y-144803975D01*
X238548262Y-144841847D01*
X238543173Y-144857502D01*
X238458711Y-145046571D01*
X238340913Y-145212180D01*
X238193824Y-145350507D01*
X238021489Y-145457729D01*
X237832901Y-145528702D01*
X237782326Y-145536414D01*
X237695329Y-145543159D01*
X237577810Y-145548909D01*
X237435670Y-145553638D01*
X237274810Y-145557319D01*
X237101129Y-145559925D01*
X236920530Y-145561428D01*
X236738912Y-145561802D01*
X236562175Y-145561020D01*
X236396222Y-145559054D01*
X236246951Y-145555878D01*
X236120264Y-145551464D01*
X236022062Y-145545786D01*
X235958244Y-145538816D01*
X235950417Y-145537328D01*
X235765210Y-145476696D01*
X235595324Y-145379900D01*
X235445777Y-145251838D01*
X235321582Y-145097405D01*
X235227756Y-144921499D01*
X235182744Y-144787870D01*
X235173209Y-144728244D01*
X235165177Y-144632428D01*
X235158647Y-144506537D01*
X235153618Y-144356689D01*
X235150089Y-144188998D01*
X235148061Y-144009582D01*
X235147547Y-143829916D01*
X234683447Y-143829916D01*
X234683420Y-144070255D01*
X234682094Y-144272745D01*
X234678766Y-144441867D01*
X234672733Y-144582101D01*
X234663292Y-144697929D01*
X234649740Y-144793830D01*
X234631374Y-144874286D01*
X234607492Y-144943776D01*
X234577390Y-145006782D01*
X234540366Y-145067784D01*
X234495716Y-145131263D01*
X234474904Y-145159230D01*
X234336879Y-145308322D01*
X234171785Y-145425956D01*
X233983466Y-145509594D01*
X233912084Y-145530546D01*
X233856346Y-145539022D01*
X233764324Y-145546167D01*
X233642013Y-145551985D01*
X233495408Y-145556481D01*
X233330502Y-145559661D01*
X233153293Y-145561529D01*
X232969773Y-145562092D01*
X232785937Y-145561354D01*
X232607782Y-145559320D01*
X232441300Y-145555996D01*
X232292488Y-145551387D01*
X232167339Y-145545498D01*
X232071849Y-145538335D01*
X232012012Y-145529902D01*
X232007824Y-145528886D01*
X231814727Y-145457515D01*
X231643429Y-145350975D01*
X231496827Y-145211973D01*
X231377819Y-145043221D01*
X231294349Y-144861691D01*
X231282182Y-144827012D01*
X231272205Y-144793933D01*
X231264201Y-144758023D01*
X231257952Y-144714849D01*
X231253240Y-144659980D01*
X231249850Y-144588985D01*
X231247563Y-144497433D01*
X231246161Y-144380891D01*
X231245429Y-144234929D01*
X231245148Y-144055115D01*
X231245101Y-143857416D01*
X231245107Y-143848445D01*
X230726500Y-143848445D01*
X230726283Y-144082400D01*
X230725223Y-144278514D01*
X230722710Y-144441279D01*
X230718131Y-144575188D01*
X230710877Y-144684732D01*
X230700336Y-144774403D01*
X230685897Y-144848694D01*
X230666948Y-144912096D01*
X230642878Y-144969101D01*
X230613077Y-145024202D01*
X230576933Y-145081890D01*
X230553958Y-145116604D01*
X230424763Y-145274424D01*
X230269905Y-145398832D01*
X230088338Y-145490589D01*
X229996250Y-145521839D01*
X229961268Y-145531089D01*
X229922434Y-145538635D01*
X229875422Y-145544615D01*
X229815905Y-145549170D01*
X229739553Y-145552436D01*
X229642040Y-145554555D01*
X229519038Y-145555664D01*
X229366218Y-145555903D01*
X229179255Y-145555411D01*
X228980250Y-145554468D01*
X228758656Y-145553127D01*
X228575169Y-145551559D01*
X228425565Y-145549589D01*
X228305617Y-145547038D01*
X228211101Y-145543728D01*
X228137791Y-145539483D01*
X228081461Y-145534124D01*
X228037886Y-145527475D01*
X228002841Y-145519357D01*
X227980406Y-145512466D01*
X227819544Y-145437990D01*
X227667272Y-145329054D01*
X227531753Y-145193529D01*
X227421148Y-145039286D01*
X227357817Y-144912029D01*
X227345587Y-144880765D01*
X227335509Y-144850451D01*
X227327337Y-144816748D01*
X227320828Y-144775318D01*
X227315736Y-144721821D01*
X227311815Y-144651918D01*
X227308822Y-144561270D01*
X227306511Y-144445539D01*
X227304637Y-144300384D01*
X227303213Y-144148845D01*
X226914482Y-144148845D01*
X226912830Y-144321306D01*
X226908523Y-144464996D01*
X226901171Y-144584427D01*
X226890387Y-144684111D01*
X226875783Y-144768560D01*
X226856969Y-144842287D01*
X226833558Y-144909803D01*
X226805162Y-144975621D01*
X226800758Y-144984976D01*
X226697277Y-145155292D01*
X226562151Y-145302445D01*
X226401726Y-145421123D01*
X226222349Y-145506012D01*
X226152286Y-145527836D01*
X226101018Y-145535721D01*
X226013340Y-145542632D01*
X225895167Y-145548539D01*
X225752411Y-145553413D01*
X225590985Y-145557224D01*
X225416803Y-145559941D01*
X225235779Y-145561535D01*
X225053825Y-145561975D01*
X224876855Y-145561231D01*
X224710783Y-145559274D01*
X224561522Y-145556074D01*
X224434984Y-145551599D01*
X224337084Y-145545821D01*
X224273735Y-145538709D01*
X224267032Y-145537409D01*
X224076007Y-145475531D01*
X223903089Y-145378091D01*
X223752800Y-145249619D01*
X223629661Y-145094648D01*
X223538193Y-144917708D01*
X223489785Y-144758431D01*
X223483042Y-144703795D01*
X223477377Y-144609144D01*
X223472846Y-144476784D01*
X223469509Y-144309021D01*
X223467423Y-144108163D01*
X223466647Y-143876514D01*
X223466647Y-143840499D01*
X223466667Y-143829916D01*
X219125947Y-143829916D01*
X219125920Y-144070255D01*
X219124594Y-144272745D01*
X219121266Y-144441867D01*
X219115233Y-144582101D01*
X219105792Y-144697929D01*
X219092240Y-144793830D01*
X219073874Y-144874286D01*
X219049992Y-144943776D01*
X219019890Y-145006782D01*
X218982866Y-145067784D01*
X218938216Y-145131263D01*
X218917404Y-145159230D01*
X218779379Y-145308322D01*
X218614285Y-145425956D01*
X218425966Y-145509594D01*
X218354584Y-145530546D01*
X218298846Y-145539022D01*
X218206824Y-145546167D01*
X218084513Y-145551985D01*
X217937908Y-145556481D01*
X217773002Y-145559661D01*
X217595793Y-145561529D01*
X217412273Y-145562092D01*
X217228437Y-145561354D01*
X217050282Y-145559320D01*
X216883800Y-145555996D01*
X216734988Y-145551387D01*
X216609839Y-145545498D01*
X216514349Y-145538335D01*
X216454512Y-145529902D01*
X216450324Y-145528886D01*
X216257227Y-145457515D01*
X216085929Y-145350975D01*
X215939327Y-145211973D01*
X215820319Y-145043221D01*
X215736849Y-144861691D01*
X215724682Y-144827012D01*
X215714705Y-144793933D01*
X215706701Y-144758023D01*
X215700452Y-144714849D01*
X215695740Y-144659980D01*
X215692350Y-144588985D01*
X215690063Y-144497433D01*
X215688661Y-144380891D01*
X215687929Y-144234929D01*
X215687648Y-144055115D01*
X215687601Y-143857416D01*
X215687606Y-143849895D01*
X215232249Y-143849895D01*
X215232099Y-144083666D01*
X215231092Y-144279601D01*
X215228617Y-144442199D01*
X215224062Y-144575955D01*
X215216815Y-144685368D01*
X215206265Y-144774934D01*
X215191799Y-144849151D01*
X215172807Y-144912516D01*
X215148677Y-144969526D01*
X215118796Y-145024678D01*
X215082553Y-145082470D01*
X215059958Y-145116604D01*
X214930763Y-145274424D01*
X214775905Y-145398832D01*
X214594338Y-145490589D01*
X214502250Y-145521839D01*
X214467268Y-145531089D01*
X214428434Y-145538635D01*
X214381422Y-145544615D01*
X214321905Y-145549170D01*
X214245553Y-145552436D01*
X214148040Y-145554555D01*
X214025038Y-145555664D01*
X213872218Y-145555903D01*
X213685255Y-145555411D01*
X213486250Y-145554468D01*
X213264656Y-145553127D01*
X213081169Y-145551559D01*
X212931565Y-145549589D01*
X212811617Y-145547038D01*
X212717101Y-145543728D01*
X212643791Y-145539483D01*
X212587461Y-145534124D01*
X212543886Y-145527475D01*
X212508841Y-145519357D01*
X212486406Y-145512466D01*
X212325544Y-145437990D01*
X212173272Y-145329054D01*
X212037753Y-145193529D01*
X211927148Y-145039286D01*
X211863817Y-144912029D01*
X211851587Y-144880765D01*
X211841509Y-144850451D01*
X211833337Y-144816748D01*
X211826828Y-144775318D01*
X211821736Y-144721821D01*
X211817815Y-144651918D01*
X211814822Y-144561270D01*
X211812511Y-144445539D01*
X211810637Y-144300384D01*
X211808955Y-144121468D01*
X211807266Y-143910333D01*
X211806917Y-143850328D01*
X211404652Y-143850328D01*
X211403881Y-144036353D01*
X211401641Y-144216213D01*
X211397932Y-144383848D01*
X211392754Y-144533200D01*
X211386109Y-144658209D01*
X211377995Y-144752815D01*
X211368779Y-144809590D01*
X211300150Y-144991738D01*
X211196153Y-145157544D01*
X211062319Y-145301586D01*
X210904182Y-145418446D01*
X210727272Y-145502703D01*
X210632235Y-145531221D01*
X210575140Y-145539551D01*
X210482017Y-145546556D01*
X210358840Y-145552243D01*
X210211583Y-145556620D01*
X210046218Y-145559694D01*
X209868721Y-145561472D01*
X209685063Y-145561961D01*
X209501220Y-145561169D01*
X209323164Y-145559103D01*
X209156870Y-145555771D01*
X209008310Y-145551179D01*
X208883458Y-145545336D01*
X208788289Y-145538247D01*
X208728775Y-145529922D01*
X208724491Y-145528886D01*
X208533832Y-145457923D01*
X208363051Y-145351116D01*
X208216276Y-145211914D01*
X208097638Y-145043769D01*
X208061837Y-144975196D01*
X207982917Y-144809916D01*
X207976578Y-143892896D01*
X207975183Y-143666379D01*
X207974491Y-143478026D01*
X207974614Y-143323674D01*
X207975665Y-143199157D01*
X207977757Y-143100311D01*
X207981002Y-143022971D01*
X207985514Y-142962974D01*
X207991406Y-142916153D01*
X207998790Y-142878346D01*
X208004701Y-142855729D01*
X208075869Y-142679327D01*
X208180970Y-142517683D01*
X208313758Y-142377028D01*
X208467988Y-142263592D01*
X208637416Y-142183606D01*
X208696681Y-142165323D01*
X208733598Y-142156582D01*
X208775452Y-142149465D01*
X208826512Y-142143855D01*
X208891047Y-142139632D01*
X208973327Y-142136679D01*
X209077621Y-142134875D01*
X209208198Y-142134104D01*
X209369327Y-142134245D01*
X209565278Y-142135181D01*
X209739750Y-142136349D01*
X210649917Y-142142916D01*
X210815197Y-142221836D01*
X210993138Y-142329064D01*
X211143407Y-142465951D01*
X211262553Y-142628366D01*
X211347126Y-142812180D01*
X211368887Y-142884490D01*
X211378409Y-142944016D01*
X211386460Y-143039792D01*
X211393039Y-143165757D01*
X211398148Y-143315852D01*
X211401786Y-143484019D01*
X211403954Y-143664197D01*
X211404652Y-143850328D01*
X211806917Y-143850328D01*
X211805809Y-143659980D01*
X211805675Y-143449546D01*
X211806908Y-143276636D01*
X211809554Y-143138855D01*
X211813656Y-143033807D01*
X211819259Y-142959098D01*
X211825690Y-142915500D01*
X211887422Y-142727799D01*
X211985295Y-142556616D01*
X212114686Y-142407048D01*
X212270972Y-142284194D01*
X212449529Y-142193150D01*
X212496041Y-142176313D01*
X212530169Y-142165524D01*
X212564761Y-142156657D01*
X212604175Y-142149523D01*
X212652773Y-142143935D01*
X212714914Y-142139705D01*
X212794960Y-142136646D01*
X212897269Y-142134569D01*
X213026202Y-142133288D01*
X213186120Y-142132615D01*
X213381381Y-142132361D01*
X213518000Y-142132333D01*
X213736677Y-142132424D01*
X213917380Y-142132822D01*
X214064470Y-142133714D01*
X214182308Y-142135288D01*
X214275253Y-142137733D01*
X214347666Y-142141234D01*
X214403907Y-142145981D01*
X214448335Y-142152161D01*
X214485312Y-142159961D01*
X214519198Y-142169568D01*
X214539960Y-142176313D01*
X214727995Y-142260682D01*
X214892261Y-142378418D01*
X215029129Y-142525655D01*
X215134970Y-142698525D01*
X215203685Y-142883750D01*
X215211338Y-142923530D01*
X215217620Y-142982582D01*
X215222633Y-143064360D01*
X215226479Y-143172319D01*
X215229260Y-143309912D01*
X215231079Y-143480596D01*
X215232037Y-143687824D01*
X215232249Y-143849895D01*
X215687606Y-143849895D01*
X215687747Y-143639399D01*
X215688307Y-143459314D01*
X215689454Y-143312762D01*
X215691357Y-143195343D01*
X215694189Y-143102656D01*
X215698120Y-143030301D01*
X215703322Y-142973879D01*
X215709965Y-142928989D01*
X215718221Y-142891231D01*
X215726291Y-142862583D01*
X215807118Y-142667878D01*
X215923379Y-142495780D01*
X216073450Y-142348430D01*
X216168515Y-142279554D01*
X216222387Y-142245477D01*
X216272862Y-142216994D01*
X216324180Y-142193636D01*
X216380582Y-142174934D01*
X216446311Y-142160422D01*
X216525608Y-142149629D01*
X216622715Y-142142088D01*
X216741872Y-142137331D01*
X216887322Y-142134890D01*
X217063306Y-142134295D01*
X217274066Y-142135079D01*
X217465584Y-142136349D01*
X218375750Y-142142916D01*
X218534500Y-142219081D01*
X218716943Y-142327945D01*
X218868120Y-142463560D01*
X218986069Y-142623617D01*
X219068831Y-142805806D01*
X219088363Y-142871448D01*
X219097867Y-142912792D01*
X219105620Y-142959895D01*
X219111802Y-143017344D01*
X219116591Y-143089725D01*
X219120169Y-143181625D01*
X219122714Y-143297631D01*
X219124407Y-143442330D01*
X219125428Y-143620309D01*
X219125947Y-143829916D01*
X223466667Y-143829916D01*
X223467083Y-143609908D01*
X223468509Y-143417075D01*
X223471396Y-143257430D01*
X223476214Y-143126402D01*
X223483431Y-143019419D01*
X223493518Y-142931911D01*
X223506943Y-142859305D01*
X223524178Y-142797031D01*
X223545692Y-142740518D01*
X223571954Y-142685194D01*
X223588603Y-142653595D01*
X223688362Y-142507773D01*
X223819721Y-142374939D01*
X223972057Y-142264990D01*
X224051501Y-142222296D01*
X224217750Y-142142916D01*
X225135436Y-142136770D01*
X225362238Y-142135426D01*
X225550864Y-142134780D01*
X225705467Y-142134946D01*
X225830201Y-142136036D01*
X225929219Y-142138162D01*
X226006674Y-142141437D01*
X226066720Y-142145975D01*
X226113511Y-142151886D01*
X226151199Y-142159285D01*
X226172603Y-142164894D01*
X226358867Y-142239789D01*
X226525288Y-142350329D01*
X226668316Y-142493086D01*
X226784402Y-142664632D01*
X226857801Y-142826565D01*
X226869573Y-142861219D01*
X226879167Y-142897537D01*
X226886878Y-142940326D01*
X226893002Y-142994391D01*
X226897832Y-143064539D01*
X226901665Y-143155577D01*
X226904794Y-143272310D01*
X226907516Y-143419545D01*
X226910124Y-143602087D01*
X226911371Y-143699562D01*
X226913866Y-143943101D01*
X226914482Y-144148845D01*
X227303213Y-144148845D01*
X227302955Y-144121468D01*
X227301266Y-143910333D01*
X227299657Y-143675584D01*
X227299045Y-143478764D01*
X227299807Y-143315473D01*
X227302321Y-143181310D01*
X227306967Y-143071876D01*
X227314123Y-142982771D01*
X227324168Y-142909595D01*
X227337479Y-142847947D01*
X227354435Y-142793428D01*
X227375414Y-142741638D01*
X227400796Y-142688177D01*
X227407539Y-142674697D01*
X227515742Y-142505819D01*
X227655709Y-142362698D01*
X227823031Y-142249093D01*
X227992519Y-142175478D01*
X228026129Y-142164714D01*
X228059338Y-142155864D01*
X228096401Y-142148773D01*
X228141573Y-142143285D01*
X228199110Y-142139245D01*
X228273267Y-142136499D01*
X228368299Y-142134889D01*
X228488463Y-142134263D01*
X228638013Y-142134463D01*
X228821205Y-142135334D01*
X229042295Y-142136722D01*
X229052498Y-142136790D01*
X229978376Y-142142916D01*
X230159769Y-142232825D01*
X230337444Y-142341251D01*
X230481774Y-142474759D01*
X230594657Y-142635626D01*
X230677989Y-142826126D01*
X230692390Y-142871716D01*
X230701103Y-142906466D01*
X230708239Y-142949166D01*
X230713946Y-143004068D01*
X230718373Y-143075424D01*
X230721668Y-143167486D01*
X230723980Y-143284505D01*
X230725456Y-143430734D01*
X230726247Y-143610424D01*
X230726499Y-143827829D01*
X230726500Y-143848445D01*
X231245107Y-143848445D01*
X231245247Y-143639399D01*
X231245807Y-143459314D01*
X231246954Y-143312762D01*
X231248857Y-143195343D01*
X231251689Y-143102656D01*
X231255620Y-143030301D01*
X231260822Y-142973879D01*
X231267465Y-142928989D01*
X231275721Y-142891231D01*
X231283791Y-142862583D01*
X231364618Y-142667878D01*
X231480879Y-142495780D01*
X231630950Y-142348430D01*
X231726015Y-142279554D01*
X231779887Y-142245477D01*
X231830362Y-142216994D01*
X231881680Y-142193636D01*
X231938082Y-142174934D01*
X232003811Y-142160422D01*
X232083108Y-142149629D01*
X232180215Y-142142088D01*
X232299372Y-142137331D01*
X232444822Y-142134890D01*
X232620806Y-142134295D01*
X232831566Y-142135079D01*
X233023084Y-142136349D01*
X233933250Y-142142916D01*
X234092000Y-142219081D01*
X234274443Y-142327945D01*
X234425620Y-142463560D01*
X234543569Y-142623617D01*
X234626331Y-142805806D01*
X234645863Y-142871448D01*
X234655367Y-142912792D01*
X234663120Y-142959895D01*
X234669302Y-143017344D01*
X234674091Y-143089725D01*
X234677669Y-143181625D01*
X234680214Y-143297631D01*
X234681907Y-143442330D01*
X234682928Y-143620309D01*
X234683447Y-143829916D01*
X235147547Y-143829916D01*
X235147531Y-143824556D01*
X235148500Y-143640036D01*
X235150967Y-143462140D01*
X235154930Y-143296982D01*
X235160390Y-143150679D01*
X235167346Y-143029348D01*
X235175797Y-142939104D01*
X235182958Y-142896167D01*
X235248788Y-142706754D01*
X235350923Y-142536070D01*
X235485891Y-142388347D01*
X235650222Y-142267817D01*
X235735501Y-142222296D01*
X235901750Y-142142916D01*
X236819436Y-142136770D01*
X237056064Y-142135331D01*
X237254667Y-142134737D01*
X237419550Y-142135411D01*
X237555020Y-142137773D01*
X237665382Y-142142247D01*
X237754944Y-142149252D01*
X237828010Y-142159212D01*
X237888886Y-142172546D01*
X237941879Y-142189678D01*
X237991295Y-142211029D01*
X238041440Y-142237020D01*
X238083378Y-142260529D01*
X238201591Y-142344466D01*
X238317520Y-142456190D01*
X238419016Y-142582323D01*
X238493926Y-142709486D01*
X238496812Y-142715755D01*
X238523160Y-142779293D01*
X238544899Y-142845977D01*
X238562379Y-142920265D01*
X238575952Y-143006612D01*
X238585970Y-143109475D01*
X238592783Y-143233311D01*
X238596742Y-143382576D01*
X238598199Y-143561727D01*
X238963330Y-143561727D01*
X238963566Y-143410453D01*
X238965578Y-143227004D01*
X238969255Y-143085181D01*
X238974601Y-142984757D01*
X238981621Y-142925509D01*
X238981763Y-142924816D01*
X239040924Y-142741039D01*
X239136949Y-142570549D01*
X239264998Y-142419372D01*
X239420230Y-142293536D01*
X239546471Y-142221836D01*
X239711750Y-142142916D01*
X240629436Y-142136770D01*
X240856238Y-142135426D01*
X241044864Y-142134780D01*
X241199467Y-142134946D01*
X241324201Y-142136036D01*
X241423219Y-142138162D01*
X241500674Y-142141437D01*
X241560720Y-142145975D01*
X241607511Y-142151886D01*
X241645199Y-142159285D01*
X241666603Y-142164894D01*
X241849513Y-142238785D01*
X242014780Y-142348128D01*
X242157316Y-142487948D01*
X242272034Y-142653268D01*
X242352876Y-142836164D01*
X242364743Y-142874882D01*
X242374384Y-142915261D01*
X242382100Y-142962280D01*
X242388197Y-143020919D01*
X242392978Y-143096158D01*
X242396746Y-143192977D01*
X242399805Y-143316355D01*
X242402458Y-143471273D01*
X242405009Y-143662711D01*
X242405448Y-143698666D01*
X242407799Y-143943750D01*
X242408181Y-144151018D01*
X245078227Y-144151018D01*
X245077772Y-143952072D01*
X245076681Y-143574827D01*
X245075387Y-143211300D01*
X245073890Y-142863828D01*
X245072189Y-142534746D01*
X245070286Y-142226389D01*
X245068179Y-141941093D01*
X245065870Y-141681193D01*
X245063357Y-141449025D01*
X245060641Y-141246924D01*
X245057723Y-141077226D01*
X245054601Y-140942267D01*
X245051276Y-140844381D01*
X245047748Y-140785904D01*
X245046828Y-140777666D01*
X244967320Y-140340074D01*
X244857551Y-139950406D01*
X219130333Y-139950406D01*
X219129608Y-140134972D01*
X219127422Y-140313101D01*
X219123771Y-140478702D01*
X219118653Y-140625685D01*
X219112065Y-140747960D01*
X219104004Y-140839435D01*
X219095594Y-140889991D01*
X219024219Y-141083580D01*
X218918340Y-141256714D01*
X218782180Y-141405113D01*
X218619960Y-141524493D01*
X218435904Y-141610572D01*
X218362790Y-141633211D01*
X218323935Y-141641393D01*
X218271427Y-141648076D01*
X218201243Y-141653393D01*
X218109364Y-141657474D01*
X217991767Y-141660448D01*
X217844432Y-141662447D01*
X217663338Y-141663602D01*
X217444464Y-141664041D01*
X217412667Y-141664053D01*
X217196057Y-141663892D01*
X217017245Y-141663200D01*
X216871697Y-141661808D01*
X216754878Y-141659548D01*
X216662255Y-141656252D01*
X216589292Y-141651751D01*
X216531458Y-141645878D01*
X216484216Y-141638464D01*
X216443034Y-141629340D01*
X216437282Y-141627862D01*
X216248647Y-141557716D01*
X216082237Y-141453403D01*
X215941025Y-141318460D01*
X215827984Y-141156421D01*
X215746087Y-140970824D01*
X215698307Y-140765203D01*
X215695803Y-140746009D01*
X215689036Y-140662880D01*
X215684066Y-140540810D01*
X215680943Y-140383158D01*
X215679715Y-140193280D01*
X215680431Y-139974534D01*
X215682130Y-139804895D01*
X215684765Y-139604878D01*
X215687355Y-139442360D01*
X215690203Y-139312507D01*
X215693613Y-139210486D01*
X215697888Y-139131463D01*
X215703333Y-139070605D01*
X215710251Y-139023078D01*
X215718945Y-138984050D01*
X215729721Y-138948686D01*
X215737291Y-138927274D01*
X215802117Y-138775944D01*
X215879512Y-138650484D01*
X215979715Y-138534496D01*
X215987328Y-138526827D01*
X216102701Y-138425203D01*
X216226465Y-138346765D01*
X216374943Y-138281312D01*
X216387775Y-138276552D01*
X216423131Y-138264341D01*
X216459105Y-138254405D01*
X216500525Y-138246443D01*
X216552216Y-138240151D01*
X216619007Y-138235228D01*
X216705724Y-138231373D01*
X216817194Y-138228282D01*
X216958245Y-138225655D01*
X217133702Y-138223187D01*
X217266683Y-138221549D01*
X217510080Y-138219181D01*
X217715677Y-138218658D01*
X217887984Y-138220368D01*
X218031508Y-138224699D01*
X218150760Y-138232040D01*
X218250248Y-138242780D01*
X218334480Y-138257308D01*
X218407966Y-138276011D01*
X218475214Y-138299279D01*
X218540733Y-138327501D01*
X218550810Y-138332242D01*
X218723327Y-138437005D01*
X218870974Y-138573384D01*
X218989170Y-138735841D01*
X219073336Y-138918840D01*
X219094721Y-138989823D01*
X219104148Y-139048910D01*
X219112133Y-139144195D01*
X219118674Y-139269587D01*
X219123767Y-139418994D01*
X219127410Y-139586327D01*
X219129600Y-139765494D01*
X219130333Y-139950406D01*
X244857551Y-139950406D01*
X244848174Y-139917119D01*
X244689069Y-139507746D01*
X244607573Y-139334181D01*
X244393032Y-138947176D01*
X244146094Y-138586189D01*
X243868893Y-138252753D01*
X243563563Y-137948398D01*
X243232239Y-137674655D01*
X242877055Y-137433054D01*
X242500145Y-137225127D01*
X242103645Y-137052404D01*
X241689687Y-136916417D01*
X241260406Y-136818696D01*
X241055834Y-136786672D01*
X241037216Y-136784785D01*
X241009485Y-136782977D01*
X240971783Y-136781245D01*
X240923248Y-136779589D01*
X240863020Y-136778007D01*
X240790241Y-136776497D01*
X240704050Y-136775057D01*
X240603586Y-136773686D01*
X240487991Y-136772382D01*
X240356403Y-136771144D01*
X240207964Y-136769969D01*
X240041812Y-136768857D01*
X239857089Y-136767806D01*
X239652934Y-136766814D01*
X239428488Y-136765879D01*
X239182889Y-136765000D01*
X238915279Y-136764175D01*
X238624798Y-136763402D01*
X238310585Y-136762681D01*
X237971780Y-136762009D01*
X237607524Y-136761384D01*
X237216957Y-136760806D01*
X236799218Y-136760272D01*
X236353448Y-136759780D01*
X235878787Y-136759330D01*
X235374374Y-136758919D01*
X234839350Y-136758546D01*
X234272856Y-136758210D01*
X233674030Y-136757908D01*
X233042013Y-136757639D01*
X232375945Y-136757401D01*
X231674966Y-136757193D01*
X230938216Y-136757013D01*
X230164836Y-136756860D01*
X229353965Y-136756731D01*
X228504743Y-136756626D01*
X227616310Y-136756542D01*
X226687806Y-136756478D01*
X225718372Y-136756433D01*
X225085029Y-136756413D01*
X223975107Y-136756409D01*
X222907290Y-136756458D01*
M02*
