%FSLAX45Y45*%
G04 Gerber Fmt 4.5, Leading zero omitted, Abs format (unit mm)*
G04 Created by KiCad (PCBNEW (5.1.9)-1) date 2021-05-17 17:20:40*
%MOMM*%
%LPD*%
G01*
G04 APERTURE LIST*
%TA.AperFunction,Profile*%
%ADD10C,0.100000*%
%TD*%
%ADD11C,0.200000*%
%ADD12C,0.300000*%
G04 APERTURE END LIST*
D10*
X38225000Y-9765000D02*
G75*
G02*
X38475000Y-10015000I0J-250000D01*
G01*
X6790000Y-19695000D02*
G75*
G02*
X6540000Y-19445000I0J250000D01*
G01*
X38475000Y-19445000D02*
G75*
G02*
X38225000Y-19695000I-250000J0D01*
G01*
X6540000Y-19445000D02*
X6540000Y-10015000D01*
X6790000Y-19695000D02*
X38225000Y-19695000D01*
X38475000Y-19445000D02*
X38475000Y-10015000D01*
X38225000Y-9765000D02*
X6790000Y-9765000D01*
X6540000Y-10015000D02*
G75*
G02*
X6790000Y-9765000I250000J0D01*
G01*
D11*
D12*
X6821428Y-20165714D02*
X6821428Y-19865714D01*
X6892857Y-19865714D01*
X6935714Y-19880000D01*
X6964286Y-19908572D01*
X6978571Y-19937143D01*
X6992857Y-19994286D01*
X6992857Y-20037143D01*
X6978571Y-20094286D01*
X6964286Y-20122857D01*
X6935714Y-20151429D01*
X6892857Y-20165714D01*
X6821428Y-20165714D01*
X7121428Y-20165714D02*
X7121428Y-19965714D01*
X7121428Y-20022857D02*
X7135714Y-19994286D01*
X7150000Y-19980000D01*
X7178571Y-19965714D01*
X7207143Y-19965714D01*
X7307143Y-20165714D02*
X7307143Y-19965714D01*
X7307143Y-19865714D02*
X7292857Y-19880000D01*
X7307143Y-19894286D01*
X7321428Y-19880000D01*
X7307143Y-19865714D01*
X7307143Y-19894286D01*
X7492857Y-20165714D02*
X7464286Y-20151429D01*
X7450000Y-20122857D01*
X7450000Y-19865714D01*
X7650000Y-20165714D02*
X7621428Y-20151429D01*
X7607143Y-20122857D01*
X7607143Y-19865714D01*
X7992857Y-20165714D02*
X7992857Y-19865714D01*
X8092857Y-20080000D01*
X8192857Y-19865714D01*
X8192857Y-20165714D01*
X8464286Y-20165714D02*
X8464286Y-20008572D01*
X8450000Y-19980000D01*
X8421428Y-19965714D01*
X8364286Y-19965714D01*
X8335714Y-19980000D01*
X8464286Y-20151429D02*
X8435714Y-20165714D01*
X8364286Y-20165714D01*
X8335714Y-20151429D01*
X8321428Y-20122857D01*
X8321428Y-20094286D01*
X8335714Y-20065714D01*
X8364286Y-20051429D01*
X8435714Y-20051429D01*
X8464286Y-20037143D01*
X8607143Y-19965714D02*
X8607143Y-20265714D01*
X8607143Y-19980000D02*
X8635714Y-19965714D01*
X8692857Y-19965714D01*
X8721428Y-19980000D01*
X8735714Y-19994286D01*
X8750000Y-20022857D01*
X8750000Y-20108572D01*
X8735714Y-20137143D01*
X8721428Y-20151429D01*
X8692857Y-20165714D01*
X8635714Y-20165714D01*
X8607143Y-20151429D01*
X8878571Y-20137143D02*
X8892857Y-20151429D01*
X8878571Y-20165714D01*
X8864286Y-20151429D01*
X8878571Y-20137143D01*
X8878571Y-20165714D01*
X8878571Y-19980000D02*
X8892857Y-19994286D01*
X8878571Y-20008572D01*
X8864286Y-19994286D01*
X8878571Y-19980000D01*
X8878571Y-20008572D01*
M02*
