  0
SECTION
  2
HEADER
  9
$ANGBASE
  50
0.0
  9
$ANGDIR
  70
1
  9
$MEASUREMENT
  70
1
  0
ENDSEC
  0
SECTION
  2
TABLES
  0
TABLE
  2
LTYPE
  70
4
  0
LTYPE
  5
40F
  2
CONTINUOUS
  70
0
  3
Solid line
  72
65
  73
0
  40
0.0
  0
LTYPE
  5
410
  2
DASHDOT
 70
0
  3
Dash Dot ____ _ ____ _
 72
65
 73
4
 40
2.0
 49
1.25
 49
-0.25
 49
0.25
 49
-0.25
  0
LTYPE
  5
411
  2
DASHED
 70
0
  3
Dashed __ __ __ __ __
 72
65
 73
2
 40
0.75
 49
0.5
 49
-0.25
  0
LTYPE
  5
43B
  2
DOTTED
 70
0
  3
Dotted .  .  .  .
 72
65
 73
2
 40
0.2
 49
0.0
 49
-0.2
  0
ENDTAB
  0
TABLE
  2
STYLE
  70
4
  0
STYLE
  2
KICAD
  70
0
  40
0
  41
1
  42
1
  50
0
  71
0
  3
isocp.shx
  0
STYLE
  2
KICADB
  70
0
  40
0
  41
1
  42
1
  50
0
  71
0
  3
isocp.shx
  0
STYLE
  2
KICADI
  70
0
  40
0
  41
1
  42
1
  50
15
  71
0
  3
isocp.shx
  0
STYLE
  2
KICADBI
  70
0
  40
0
  41
1
  42
1
  50
15
  71
0
  3
isocp.shx
  0
ENDTAB
  0
TABLE
  2
LAYER
  70
1
  0
LAYER
  2
BLACK
  70
0
  62
7
  6
CONTINUOUS
  0
ENDTAB
  0
ENDSEC
  0
SECTION
  2
ENTITIES
0
CIRCLE
8
BLACK
10
382.2
20
-101
40
1.15
0
CIRCLE
8
BLACK
10
224.9
20
-121.6
40
1.15
0
CIRCLE
8
BLACK
10
69
20
-101
40
1.15
0
CIRCLE
8
BLACK
10
86.8
20
-185.225
40
1.15
0
CIRCLE
8
BLACK
10
251.125
20
-183.475
40
1.15
0
CIRCLE
8
BLACK
10
367.8
20
-178.2
40
1.15
0
LINE
8
BLACK
6
CONTINUOUS
10
65.5099
20
-118.508
11
65.5099
21
-104.509
0
LINE
8
BLACK
6
CONTINUOUS
10
79.5094
20
-118.508
11
65.5099
21
-118.508
0
LINE
8
BLACK
6
CONTINUOUS
10
79.5094
20
-104.509
11
79.5094
21
-118.508
0
LINE
8
BLACK
6
CONTINUOUS
10
65.5099
20
-104.509
11
79.5094
21
-104.509
0
LINE
8
BLACK
6
CONTINUOUS
10
84.5599
20
-118.508
11
84.5599
21
-104.509
0
LINE
8
BLACK
6
CONTINUOUS
10
98.5592
20
-118.508
11
84.5599
21
-118.508
0
LINE
8
BLACK
6
CONTINUOUS
10
98.5592
20
-104.509
11
98.5592
21
-118.508
0
LINE
8
BLACK
6
CONTINUOUS
10
84.5599
20
-104.509
11
98.5592
21
-104.509
0
LINE
8
BLACK
6
CONTINUOUS
10
103.61
20
-118.508
11
103.61
21
-104.509
0
LINE
8
BLACK
6
CONTINUOUS
10
117.609
20
-118.508
11
103.61
21
-118.508
0
LINE
8
BLACK
6
CONTINUOUS
10
117.609
20
-104.509
11
117.609
21
-118.508
0
LINE
8
BLACK
6
CONTINUOUS
10
103.61
20
-104.509
11
117.609
21
-104.509
0
LINE
8
BLACK
6
CONTINUOUS
10
122.66
20
-118.508
11
122.66
21
-104.509
0
LINE
8
BLACK
6
CONTINUOUS
10
136.659
20
-118.508
11
122.66
21
-118.508
0
LINE
8
BLACK
6
CONTINUOUS
10
136.659
20
-104.509
11
136.659
21
-118.508
0
LINE
8
BLACK
6
CONTINUOUS
10
122.66
20
-104.509
11
136.659
21
-104.509
0
LINE
8
BLACK
6
CONTINUOUS
10
141.71
20
-118.508
11
141.71
21
-104.509
0
LINE
8
BLACK
6
CONTINUOUS
10
155.709
20
-118.508
11
141.71
21
-118.508
0
LINE
8
BLACK
6
CONTINUOUS
10
155.709
20
-104.509
11
155.709
21
-118.508
0
LINE
8
BLACK
6
CONTINUOUS
10
141.71
20
-104.509
11
155.709
21
-104.509
0
LINE
8
BLACK
6
CONTINUOUS
10
160.758
20
-118.508
11
160.758
21
-104.509
0
LINE
8
BLACK
6
CONTINUOUS
10
174.759
20
-118.508
11
160.758
21
-118.508
0
LINE
8
BLACK
6
CONTINUOUS
10
174.759
20
-104.509
11
174.759
21
-118.508
0
LINE
8
BLACK
6
CONTINUOUS
10
160.758
20
-104.509
11
174.759
21
-104.509
0
LINE
8
BLACK
6
CONTINUOUS
10
179.808
20
-118.508
11
179.808
21
-104.509
0
LINE
8
BLACK
6
CONTINUOUS
10
193.809
20
-118.508
11
179.808
21
-118.508
0
LINE
8
BLACK
6
CONTINUOUS
10
193.809
20
-104.509
11
193.809
21
-118.508
0
LINE
8
BLACK
6
CONTINUOUS
10
179.808
20
-104.509
11
193.809
21
-104.509
0
LINE
8
BLACK
6
CONTINUOUS
10
198.86
20
-118.508
11
198.86
21
-104.509
0
LINE
8
BLACK
6
CONTINUOUS
10
212.859
20
-118.508
11
198.86
21
-118.508
0
LINE
8
BLACK
6
CONTINUOUS
10
212.859
20
-104.509
11
212.859
21
-118.508
0
LINE
8
BLACK
6
CONTINUOUS
10
198.86
20
-104.509
11
212.859
21
-104.509
0
LINE
8
BLACK
6
CONTINUOUS
10
217.91
20
-118.508
11
217.91
21
-104.509
0
LINE
8
BLACK
6
CONTINUOUS
10
231.909
20
-118.508
11
217.91
21
-118.508
0
LINE
8
BLACK
6
CONTINUOUS
10
231.909
20
-104.509
11
231.909
21
-118.508
0
LINE
8
BLACK
6
CONTINUOUS
10
217.91
20
-104.509
11
231.909
21
-104.509
0
LINE
8
BLACK
6
CONTINUOUS
10
236.96
20
-118.508
11
236.96
21
-104.509
0
LINE
8
BLACK
6
CONTINUOUS
10
250.959
20
-118.508
11
236.96
21
-118.508
0
LINE
8
BLACK
6
CONTINUOUS
10
250.959
20
-104.509
11
250.959
21
-118.508
0
LINE
8
BLACK
6
CONTINUOUS
10
236.96
20
-104.509
11
250.959
21
-104.509
0
LINE
8
BLACK
6
CONTINUOUS
10
256.01
20
-118.508
11
256.01
21
-104.509
0
LINE
8
BLACK
6
CONTINUOUS
10
270.009
20
-118.508
11
256.01
21
-118.508
0
LINE
8
BLACK
6
CONTINUOUS
10
270.009
20
-104.509
11
270.009
21
-118.508
0
LINE
8
BLACK
6
CONTINUOUS
10
256.01
20
-104.509
11
270.009
21
-104.509
0
LINE
8
BLACK
6
CONTINUOUS
10
275.06
20
-118.508
11
275.06
21
-104.509
0
LINE
8
BLACK
6
CONTINUOUS
10
289.059
20
-118.508
11
275.06
21
-118.508
0
LINE
8
BLACK
6
CONTINUOUS
10
289.059
20
-104.509
11
289.059
21
-118.508
0
LINE
8
BLACK
6
CONTINUOUS
10
275.06
20
-104.509
11
289.059
21
-104.509
0
LINE
8
BLACK
6
CONTINUOUS
10
294.11
20
-118.508
11
294.11
21
-104.509
0
LINE
8
BLACK
6
CONTINUOUS
10
308.109
20
-118.508
11
294.11
21
-118.508
0
LINE
8
BLACK
6
CONTINUOUS
10
308.109
20
-104.509
11
308.109
21
-118.508
0
LINE
8
BLACK
6
CONTINUOUS
10
294.11
20
-104.509
11
308.109
21
-104.509
0
LINE
8
BLACK
6
CONTINUOUS
10
336.684
20
-104.509
11
322.685
21
-104.509
0
LINE
8
BLACK
6
CONTINUOUS
10
336.684
20
-109.21
11
336.684
21
-104.509
0
LINE
8
BLACK
6
CONTINUOUS
10
338.21
20
-109.21
11
336.684
21
-109.21
0
LINE
8
BLACK
6
CONTINUOUS
10
338.21
20
-105.98
11
338.21
21
-109.21
0
LINE
8
BLACK
6
CONTINUOUS
10
344.959
20
-105.98
11
338.21
21
-105.98
0
LINE
8
BLACK
6
CONTINUOUS
10
344.959
20
-109.21
11
344.959
21
-105.98
0
LINE
8
BLACK
6
CONTINUOUS
10
345.785
20
-109.21
11
344.959
21
-109.21
0
LINE
8
BLACK
6
CONTINUOUS
10
345.785
20
-112.008
11
345.785
21
-109.21
0
LINE
8
BLACK
6
CONTINUOUS
10
344.959
20
-112.008
11
345.785
21
-112.008
0
LINE
8
BLACK
6
CONTINUOUS
10
344.959
20
-118.278
11
344.959
21
-112.008
0
LINE
8
BLACK
6
CONTINUOUS
10
343.234
20
-118.278
11
344.959
21
-118.278
0
LINE
8
BLACK
6
CONTINUOUS
10
343.234
20
-119.479
11
343.234
21
-118.278
0
LINE
8
BLACK
6
CONTINUOUS
10
339.935
20
-119.479
11
343.234
21
-119.479
0
LINE
8
BLACK
6
CONTINUOUS
10
339.935
20
-118.278
11
339.935
21
-119.479
0
LINE
8
BLACK
6
CONTINUOUS
10
338.21
20
-118.278
11
339.935
21
-118.278
0
LINE
8
BLACK
6
CONTINUOUS
10
338.21
20
-113.809
11
338.21
21
-118.278
0
LINE
8
BLACK
6
CONTINUOUS
10
336.684
20
-113.809
11
338.21
21
-113.809
0
LINE
8
BLACK
6
CONTINUOUS
10
336.684
20
-118.508
11
336.684
21
-113.809
0
LINE
8
BLACK
6
CONTINUOUS
10
322.685
20
-118.508
11
336.684
21
-118.508
0
LINE
8
BLACK
6
CONTINUOUS
10
322.685
20
-113.809
11
322.685
21
-118.508
0
LINE
8
BLACK
6
CONTINUOUS
10
321.159
20
-113.809
11
322.685
21
-113.809
0
LINE
8
BLACK
6
CONTINUOUS
10
321.159
20
-118.278
11
321.159
21
-113.809
0
LINE
8
BLACK
6
CONTINUOUS
10
319.434
20
-118.278
11
321.159
21
-118.278
0
LINE
8
BLACK
6
CONTINUOUS
10
319.434
20
-119.479
11
319.434
21
-118.278
0
LINE
8
BLACK
6
CONTINUOUS
10
316.133
20
-119.479
11
319.434
21
-119.479
0
LINE
8
BLACK
6
CONTINUOUS
10
316.133
20
-118.278
11
316.133
21
-119.479
0
LINE
8
BLACK
6
CONTINUOUS
10
314.41
20
-118.278
11
316.133
21
-118.278
0
LINE
8
BLACK
6
CONTINUOUS
10
314.41
20
-112.008
11
314.41
21
-118.278
0
LINE
8
BLACK
6
CONTINUOUS
10
313.584
20
-112.008
11
314.41
21
-112.008
0
LINE
8
BLACK
6
CONTINUOUS
10
313.584
20
-109.21
11
313.584
21
-112.008
0
LINE
8
BLACK
6
CONTINUOUS
10
314.41
20
-109.21
11
313.584
21
-109.21
0
LINE
8
BLACK
6
CONTINUOUS
10
314.41
20
-105.98
11
314.41
21
-109.21
0
LINE
8
BLACK
6
CONTINUOUS
10
321.159
20
-105.98
11
314.41
21
-105.98
0
LINE
8
BLACK
6
CONTINUOUS
10
321.159
20
-109.21
11
321.159
21
-105.98
0
LINE
8
BLACK
6
CONTINUOUS
10
322.685
20
-109.21
11
321.159
21
-109.21
0
LINE
8
BLACK
6
CONTINUOUS
10
322.685
20
-104.509
11
322.685
21
-109.21
0
LINE
8
BLACK
6
CONTINUOUS
10
70.2724
20
-137.558
11
70.2724
21
-123.559
0
LINE
8
BLACK
6
CONTINUOUS
10
84.2719
20
-137.558
11
70.2724
21
-137.558
0
LINE
8
BLACK
6
CONTINUOUS
10
84.2719
20
-123.559
11
84.2719
21
-137.558
0
LINE
8
BLACK
6
CONTINUOUS
10
70.2724
20
-123.559
11
84.2719
21
-123.559
0
LINE
8
BLACK
6
CONTINUOUS
10
94.0849
20
-137.558
11
94.0849
21
-123.559
0
LINE
8
BLACK
6
CONTINUOUS
10
108.084
20
-137.558
11
94.0849
21
-137.558
0
LINE
8
BLACK
6
CONTINUOUS
10
108.084
20
-123.559
11
108.084
21
-137.558
0
LINE
8
BLACK
6
CONTINUOUS
10
94.0849
20
-123.559
11
108.084
21
-123.559
0
LINE
8
BLACK
6
CONTINUOUS
10
113.135
20
-137.558
11
113.135
21
-123.559
0
LINE
8
BLACK
6
CONTINUOUS
10
127.134
20
-137.558
11
113.135
21
-137.558
0
LINE
8
BLACK
6
CONTINUOUS
10
127.134
20
-123.559
11
127.134
21
-137.558
0
LINE
8
BLACK
6
CONTINUOUS
10
113.135
20
-123.559
11
127.134
21
-123.559
0
LINE
8
BLACK
6
CONTINUOUS
10
132.185
20
-137.558
11
132.185
21
-123.559
0
LINE
8
BLACK
6
CONTINUOUS
10
146.184
20
-137.558
11
132.185
21
-137.558
0
LINE
8
BLACK
6
CONTINUOUS
10
146.184
20
-123.559
11
146.184
21
-137.558
0
LINE
8
BLACK
6
CONTINUOUS
10
132.185
20
-123.559
11
146.184
21
-123.559
0
LINE
8
BLACK
6
CONTINUOUS
10
151.235
20
-137.558
11
151.235
21
-123.559
0
LINE
8
BLACK
6
CONTINUOUS
10
165.234
20
-137.558
11
151.235
21
-137.558
0
LINE
8
BLACK
6
CONTINUOUS
10
165.234
20
-123.559
11
165.234
21
-137.558
0
LINE
8
BLACK
6
CONTINUOUS
10
151.235
20
-123.559
11
165.234
21
-123.559
0
LINE
8
BLACK
6
CONTINUOUS
10
170.285
20
-137.558
11
170.285
21
-123.559
0
LINE
8
BLACK
6
CONTINUOUS
10
184.284
20
-137.558
11
170.285
21
-137.558
0
LINE
8
BLACK
6
CONTINUOUS
10
184.284
20
-123.559
11
184.284
21
-137.558
0
LINE
8
BLACK
6
CONTINUOUS
10
170.285
20
-123.559
11
184.284
21
-123.559
0
LINE
8
BLACK
6
CONTINUOUS
10
189.335
20
-137.558
11
189.335
21
-123.559
0
LINE
8
BLACK
6
CONTINUOUS
10
203.334
20
-137.558
11
189.335
21
-137.558
0
LINE
8
BLACK
6
CONTINUOUS
10
203.334
20
-123.559
11
203.334
21
-137.558
0
LINE
8
BLACK
6
CONTINUOUS
10
189.335
20
-123.559
11
203.334
21
-123.559
0
LINE
8
BLACK
6
CONTINUOUS
10
208.385
20
-137.558
11
208.385
21
-123.559
0
LINE
8
BLACK
6
CONTINUOUS
10
222.384
20
-137.558
11
208.385
21
-137.558
0
LINE
8
BLACK
6
CONTINUOUS
10
222.384
20
-123.559
11
222.384
21
-137.558
0
LINE
8
BLACK
6
CONTINUOUS
10
208.385
20
-123.559
11
222.384
21
-123.559
0
LINE
8
BLACK
6
CONTINUOUS
10
227.435
20
-137.558
11
227.435
21
-123.559
0
LINE
8
BLACK
6
CONTINUOUS
10
241.434
20
-137.558
11
227.435
21
-137.558
0
LINE
8
BLACK
6
CONTINUOUS
10
241.434
20
-123.559
11
241.434
21
-137.558
0
LINE
8
BLACK
6
CONTINUOUS
10
227.435
20
-123.559
11
241.434
21
-123.559
0
LINE
8
BLACK
6
CONTINUOUS
10
246.485
20
-137.558
11
246.485
21
-123.559
0
LINE
8
BLACK
6
CONTINUOUS
10
260.484
20
-137.558
11
246.485
21
-137.558
0
LINE
8
BLACK
6
CONTINUOUS
10
260.484
20
-123.559
11
260.484
21
-137.558
0
LINE
8
BLACK
6
CONTINUOUS
10
246.485
20
-123.559
11
260.484
21
-123.559
0
LINE
8
BLACK
6
CONTINUOUS
10
265.535
20
-137.558
11
265.535
21
-123.559
0
LINE
8
BLACK
6
CONTINUOUS
10
279.534
20
-137.558
11
265.535
21
-137.558
0
LINE
8
BLACK
6
CONTINUOUS
10
279.534
20
-123.559
11
279.534
21
-137.558
0
LINE
8
BLACK
6
CONTINUOUS
10
265.535
20
-123.559
11
279.534
21
-123.559
0
LINE
8
BLACK
6
CONTINUOUS
10
284.585
20
-137.558
11
284.585
21
-123.559
0
LINE
8
BLACK
6
CONTINUOUS
10
298.584
20
-137.558
11
284.585
21
-137.558
0
LINE
8
BLACK
6
CONTINUOUS
10
298.584
20
-123.559
11
298.584
21
-137.558
0
LINE
8
BLACK
6
CONTINUOUS
10
284.585
20
-123.559
11
298.584
21
-123.559
0
LINE
8
BLACK
6
CONTINUOUS
10
303.635
20
-137.558
11
303.635
21
-123.559
0
LINE
8
BLACK
6
CONTINUOUS
10
317.634
20
-137.558
11
303.635
21
-137.558
0
LINE
8
BLACK
6
CONTINUOUS
10
317.634
20
-123.559
11
317.634
21
-137.558
0
LINE
8
BLACK
6
CONTINUOUS
10
303.635
20
-123.559
11
317.634
21
-123.559
0
LINE
8
BLACK
6
CONTINUOUS
10
72.6522
20
-156.608
11
72.6522
21
-142.609
0
LINE
8
BLACK
6
CONTINUOUS
10
86.6531
20
-156.608
11
72.6522
21
-156.608
0
LINE
8
BLACK
6
CONTINUOUS
10
86.6531
20
-142.609
11
86.6531
21
-156.608
0
LINE
8
BLACK
6
CONTINUOUS
10
72.6522
20
-142.609
11
86.6531
21
-142.609
0
LINE
8
BLACK
6
CONTINUOUS
10
98.8474
20
-156.608
11
98.8474
21
-142.609
0
LINE
8
BLACK
6
CONTINUOUS
10
112.847
20
-156.608
11
98.8474
21
-156.608
0
LINE
8
BLACK
6
CONTINUOUS
10
112.847
20
-142.609
11
112.847
21
-156.608
0
LINE
8
BLACK
6
CONTINUOUS
10
98.8474
20
-142.609
11
112.847
21
-142.609
0
LINE
8
BLACK
6
CONTINUOUS
10
117.897
20
-156.608
11
117.897
21
-142.609
0
LINE
8
BLACK
6
CONTINUOUS
10
131.897
20
-156.608
11
117.897
21
-156.608
0
LINE
8
BLACK
6
CONTINUOUS
10
131.897
20
-142.609
11
131.897
21
-156.608
0
LINE
8
BLACK
6
CONTINUOUS
10
117.897
20
-142.609
11
131.897
21
-142.609
0
LINE
8
BLACK
6
CONTINUOUS
10
136.947
20
-156.608
11
136.947
21
-142.609
0
LINE
8
BLACK
6
CONTINUOUS
10
150.947
20
-156.608
11
136.947
21
-156.608
0
LINE
8
BLACK
6
CONTINUOUS
10
150.947
20
-142.609
11
150.947
21
-156.608
0
LINE
8
BLACK
6
CONTINUOUS
10
136.947
20
-142.609
11
150.947
21
-142.609
0
LINE
8
BLACK
6
CONTINUOUS
10
155.997
20
-156.608
11
155.997
21
-142.609
0
LINE
8
BLACK
6
CONTINUOUS
10
169.997
20
-156.608
11
155.997
21
-156.608
0
LINE
8
BLACK
6
CONTINUOUS
10
169.997
20
-142.609
11
169.997
21
-156.608
0
LINE
8
BLACK
6
CONTINUOUS
10
155.997
20
-142.609
11
169.997
21
-142.609
0
LINE
8
BLACK
6
CONTINUOUS
10
175.047
20
-156.608
11
175.047
21
-142.609
0
LINE
8
BLACK
6
CONTINUOUS
10
189.047
20
-156.608
11
175.047
21
-156.608
0
LINE
8
BLACK
6
CONTINUOUS
10
189.047
20
-142.609
11
189.047
21
-156.608
0
LINE
8
BLACK
6
CONTINUOUS
10
175.047
20
-142.609
11
189.047
21
-142.609
0
LINE
8
BLACK
6
CONTINUOUS
10
194.097
20
-156.608
11
194.097
21
-142.609
0
LINE
8
BLACK
6
CONTINUOUS
10
208.097
20
-156.608
11
194.097
21
-156.608
0
LINE
8
BLACK
6
CONTINUOUS
10
208.097
20
-142.609
11
208.097
21
-156.608
0
LINE
8
BLACK
6
CONTINUOUS
10
194.097
20
-142.609
11
208.097
21
-142.609
0
LINE
8
BLACK
6
CONTINUOUS
10
213.147
20
-156.608
11
213.147
21
-142.609
0
LINE
8
BLACK
6
CONTINUOUS
10
227.147
20
-156.608
11
213.147
21
-156.608
0
LINE
8
BLACK
6
CONTINUOUS
10
227.147
20
-142.609
11
227.147
21
-156.608
0
LINE
8
BLACK
6
CONTINUOUS
10
213.147
20
-142.609
11
227.147
21
-142.609
0
LINE
8
BLACK
6
CONTINUOUS
10
232.197
20
-156.608
11
232.197
21
-142.609
0
LINE
8
BLACK
6
CONTINUOUS
10
246.197
20
-156.608
11
232.197
21
-156.608
0
LINE
8
BLACK
6
CONTINUOUS
10
246.197
20
-142.609
11
246.197
21
-156.608
0
LINE
8
BLACK
6
CONTINUOUS
10
232.197
20
-142.609
11
246.197
21
-142.609
0
LINE
8
BLACK
6
CONTINUOUS
10
251.247
20
-156.608
11
251.247
21
-142.609
0
LINE
8
BLACK
6
CONTINUOUS
10
265.247
20
-156.608
11
251.247
21
-156.608
0
LINE
8
BLACK
6
CONTINUOUS
10
265.247
20
-142.609
11
265.247
21
-156.608
0
LINE
8
BLACK
6
CONTINUOUS
10
251.247
20
-142.609
11
265.247
21
-142.609
0
LINE
8
BLACK
6
CONTINUOUS
10
270.297
20
-156.608
11
270.297
21
-142.609
0
LINE
8
BLACK
6
CONTINUOUS
10
284.297
20
-156.608
11
270.297
21
-156.608
0
LINE
8
BLACK
6
CONTINUOUS
10
284.297
20
-142.609
11
284.297
21
-156.608
0
LINE
8
BLACK
6
CONTINUOUS
10
270.297
20
-142.609
11
284.297
21
-142.609
0
LINE
8
BLACK
6
CONTINUOUS
10
289.347
20
-156.608
11
289.347
21
-142.609
0
LINE
8
BLACK
6
CONTINUOUS
10
303.347
20
-156.608
11
289.347
21
-156.608
0
LINE
8
BLACK
6
CONTINUOUS
10
303.347
20
-142.609
11
303.347
21
-156.608
0
LINE
8
BLACK
6
CONTINUOUS
10
289.347
20
-142.609
11
303.347
21
-142.609
0
LINE
8
BLACK
6
CONTINUOUS
10
341.447
20
-123.559
11
327.447
21
-123.559
0
LINE
8
BLACK
6
CONTINUOUS
10
341.447
20
-124.809
11
341.447
21
-123.559
0
LINE
8
BLACK
6
CONTINUOUS
10
342.357
20
-124.809
11
341.447
21
-124.809
0
LINE
8
BLACK
6
CONTINUOUS
10
342.357
20
-131.559
11
342.357
21
-124.809
0
LINE
8
BLACK
6
CONTINUOUS
10
341.447
20
-131.559
11
342.357
21
-131.559
0
LINE
8
BLACK
6
CONTINUOUS
10
341.447
20
-133.084
11
341.447
21
-131.559
0
LINE
8
BLACK
6
CONTINUOUS
10
343.828
20
-133.084
11
341.447
21
-133.084
0
LINE
8
BLACK
6
CONTINUOUS
10
343.828
20
-147.083
11
343.828
21
-133.084
0
LINE
8
BLACK
6
CONTINUOUS
10
342.578
20
-147.083
11
343.828
21
-147.083
0
LINE
8
BLACK
6
CONTINUOUS
10
342.578
20
-147.31
11
342.578
21
-147.083
0
LINE
8
BLACK
6
CONTINUOUS
10
343.402
20
-147.31
11
342.578
21
-147.31
0
LINE
8
BLACK
6
CONTINUOUS
10
343.402
20
-150.108
11
343.402
21
-147.31
0
LINE
8
BLACK
6
CONTINUOUS
10
342.578
20
-150.108
11
343.402
21
-150.108
0
LINE
8
BLACK
6
CONTINUOUS
10
342.578
20
-156.378
11
342.578
21
-150.108
0
LINE
8
BLACK
6
CONTINUOUS
10
340.853
20
-156.378
11
342.578
21
-156.378
0
LINE
8
BLACK
6
CONTINUOUS
10
340.853
20
-157.579
11
340.853
21
-156.378
0
LINE
8
BLACK
6
CONTINUOUS
10
337.552
20
-157.579
11
340.853
21
-157.579
0
LINE
8
BLACK
6
CONTINUOUS
10
337.552
20
-156.378
11
337.552
21
-157.579
0
LINE
8
BLACK
6
CONTINUOUS
10
335.827
20
-156.378
11
337.552
21
-156.378
0
LINE
8
BLACK
6
CONTINUOUS
10
335.827
20
-155.358
11
335.827
21
-156.378
0
LINE
8
BLACK
6
CONTINUOUS
10
334.303
20
-155.358
11
335.827
21
-155.358
0
LINE
8
BLACK
6
CONTINUOUS
10
334.303
20
-156.608
11
334.303
21
-155.358
0
LINE
8
BLACK
6
CONTINUOUS
10
317.051
20
-156.608
11
334.303
21
-156.608
0
LINE
8
BLACK
6
CONTINUOUS
10
317.051
20
-157.579
11
317.051
21
-156.608
0
LINE
8
BLACK
6
CONTINUOUS
10
313.752
20
-157.579
11
317.051
21
-157.579
0
LINE
8
BLACK
6
CONTINUOUS
10
313.752
20
-156.608
11
313.752
21
-157.579
0
LINE
8
BLACK
6
CONTINUOUS
10
308.397
20
-156.608
11
313.752
21
-156.608
0
LINE
8
BLACK
6
CONTINUOUS
10
308.397
20
-142.609
11
308.397
21
-156.608
0
LINE
8
BLACK
6
CONTINUOUS
10
329.827
20
-142.609
11
308.397
21
-142.609
0
LINE
8
BLACK
6
CONTINUOUS
10
329.827
20
-137.558
11
329.827
21
-142.609
0
LINE
8
BLACK
6
CONTINUOUS
10
327.447
20
-137.558
11
329.827
21
-137.558
0
LINE
8
BLACK
6
CONTINUOUS
10
327.447
20
-123.559
11
327.447
21
-137.558
0
LINE
8
BLACK
6
CONTINUOUS
10
108.372
20
-175.659
11
108.372
21
-161.659
0
LINE
8
BLACK
6
CONTINUOUS
10
122.372
20
-175.659
11
108.372
21
-175.659
0
LINE
8
BLACK
6
CONTINUOUS
10
122.372
20
-161.659
11
122.372
21
-175.659
0
LINE
8
BLACK
6
CONTINUOUS
10
108.372
20
-161.659
11
122.372
21
-161.659
0
LINE
8
BLACK
6
CONTINUOUS
10
127.422
20
-175.659
11
127.422
21
-161.659
0
LINE
8
BLACK
6
CONTINUOUS
10
141.422
20
-175.659
11
127.422
21
-175.659
0
LINE
8
BLACK
6
CONTINUOUS
10
141.422
20
-161.659
11
141.422
21
-175.659
0
LINE
8
BLACK
6
CONTINUOUS
10
127.422
20
-161.659
11
141.422
21
-161.659
0
LINE
8
BLACK
6
CONTINUOUS
10
146.472
20
-175.659
11
146.472
21
-161.659
0
LINE
8
BLACK
6
CONTINUOUS
10
160.472
20
-175.659
11
146.472
21
-175.659
0
LINE
8
BLACK
6
CONTINUOUS
10
160.472
20
-161.659
11
160.472
21
-175.659
0
LINE
8
BLACK
6
CONTINUOUS
10
146.472
20
-161.659
11
160.472
21
-161.659
0
LINE
8
BLACK
6
CONTINUOUS
10
165.522
20
-175.659
11
165.522
21
-161.659
0
LINE
8
BLACK
6
CONTINUOUS
10
179.522
20
-175.659
11
165.522
21
-175.659
0
LINE
8
BLACK
6
CONTINUOUS
10
179.522
20
-161.659
11
179.522
21
-175.659
0
LINE
8
BLACK
6
CONTINUOUS
10
165.522
20
-161.659
11
179.522
21
-161.659
0
LINE
8
BLACK
6
CONTINUOUS
10
184.572
20
-175.659
11
184.572
21
-161.659
0
LINE
8
BLACK
6
CONTINUOUS
10
198.572
20
-175.659
11
184.572
21
-175.659
0
LINE
8
BLACK
6
CONTINUOUS
10
198.572
20
-161.659
11
198.572
21
-175.659
0
LINE
8
BLACK
6
CONTINUOUS
10
184.572
20
-161.659
11
198.572
21
-161.659
0
LINE
8
BLACK
6
CONTINUOUS
10
203.622
20
-175.659
11
203.622
21
-161.659
0
LINE
8
BLACK
6
CONTINUOUS
10
217.622
20
-175.659
11
203.622
21
-175.659
0
LINE
8
BLACK
6
CONTINUOUS
10
217.622
20
-161.659
11
217.622
21
-175.659
0
LINE
8
BLACK
6
CONTINUOUS
10
203.622
20
-161.659
11
217.622
21
-161.659
0
LINE
8
BLACK
6
CONTINUOUS
10
222.672
20
-175.659
11
222.672
21
-161.659
0
LINE
8
BLACK
6
CONTINUOUS
10
236.672
20
-175.659
11
222.672
21
-175.659
0
LINE
8
BLACK
6
CONTINUOUS
10
236.672
20
-161.659
11
236.672
21
-175.659
0
LINE
8
BLACK
6
CONTINUOUS
10
222.672
20
-161.659
11
236.672
21
-161.659
0
LINE
8
BLACK
6
CONTINUOUS
10
241.722
20
-175.659
11
241.722
21
-161.659
0
LINE
8
BLACK
6
CONTINUOUS
10
255.722
20
-175.659
11
241.722
21
-175.659
0
LINE
8
BLACK
6
CONTINUOUS
10
255.722
20
-161.659
11
255.722
21
-175.659
0
LINE
8
BLACK
6
CONTINUOUS
10
241.722
20
-161.659
11
255.722
21
-161.659
0
LINE
8
BLACK
6
CONTINUOUS
10
260.772
20
-175.659
11
260.772
21
-161.659
0
LINE
8
BLACK
6
CONTINUOUS
10
274.772
20
-175.659
11
260.772
21
-175.659
0
LINE
8
BLACK
6
CONTINUOUS
10
274.772
20
-161.659
11
274.772
21
-175.659
0
LINE
8
BLACK
6
CONTINUOUS
10
260.772
20
-161.659
11
274.772
21
-161.659
0
LINE
8
BLACK
6
CONTINUOUS
10
279.822
20
-175.659
11
279.822
21
-161.659
0
LINE
8
BLACK
6
CONTINUOUS
10
293.822
20
-175.659
11
279.822
21
-175.659
0
LINE
8
BLACK
6
CONTINUOUS
10
293.822
20
-161.659
11
293.822
21
-175.659
0
LINE
8
BLACK
6
CONTINUOUS
10
279.822
20
-161.659
11
293.822
21
-161.659
0
LINE
8
BLACK
6
CONTINUOUS
10
306.016
20
-175.659
11
306.016
21
-161.659
0
LINE
8
BLACK
6
CONTINUOUS
10
320.015
20
-175.659
11
306.016
21
-175.659
0
LINE
8
BLACK
6
CONTINUOUS
10
320.015
20
-161.659
11
320.015
21
-175.659
0
LINE
8
BLACK
6
CONTINUOUS
10
306.016
20
-161.659
11
320.015
21
-161.659
0
LINE
8
BLACK
6
CONTINUOUS
10
332.21
20
-175.659
11
332.21
21
-161.659
0
LINE
8
BLACK
6
CONTINUOUS
10
346.209
20
-175.659
11
332.21
21
-175.659
0
LINE
8
BLACK
6
CONTINUOUS
10
346.209
20
-161.659
11
346.209
21
-175.659
0
LINE
8
BLACK
6
CONTINUOUS
10
332.21
20
-161.659
11
346.209
21
-161.659
0
LINE
8
BLACK
6
CONTINUOUS
10
351.26
20
-175.659
11
351.26
21
-161.659
0
LINE
8
BLACK
6
CONTINUOUS
10
365.259
20
-175.659
11
351.26
21
-175.659
0
LINE
8
BLACK
6
CONTINUOUS
10
365.259
20
-161.659
11
365.259
21
-175.659
0
LINE
8
BLACK
6
CONTINUOUS
10
351.26
20
-161.659
11
365.259
21
-161.659
0
LINE
8
BLACK
6
CONTINUOUS
10
370.31
20
-175.659
11
370.31
21
-161.659
0
LINE
8
BLACK
6
CONTINUOUS
10
384.309
20
-175.659
11
370.31
21
-175.659
0
LINE
8
BLACK
6
CONTINUOUS
10
384.309
20
-161.659
11
384.309
21
-175.659
0
LINE
8
BLACK
6
CONTINUOUS
10
370.31
20
-161.659
11
384.309
21
-161.659
0
LINE
8
BLACK
6
CONTINUOUS
10
103.322
20
-161.659
11
67.8911
21
-161.659
0
LINE
8
BLACK
6
CONTINUOUS
10
103.322
20
-175.659
11
103.322
21
-161.659
0
LINE
8
BLACK
6
CONTINUOUS
10
97.9654
20
-175.659
11
103.322
21
-175.659
0
LINE
8
BLACK
6
CONTINUOUS
10
97.9654
20
-176.629
11
97.9654
21
-175.659
0
LINE
8
BLACK
6
CONTINUOUS
10
94.665
20
-176.629
11
97.9654
21
-176.629
0
LINE
8
BLACK
6
CONTINUOUS
10
94.665
20
-175.659
11
94.665
21
-176.629
0
LINE
8
BLACK
6
CONTINUOUS
10
74.1653
20
-175.659
11
94.665
21
-175.659
0
LINE
8
BLACK
6
CONTINUOUS
10
74.1653
20
-176.629
11
74.1653
21
-175.659
0
LINE
8
BLACK
6
CONTINUOUS
10
70.8663
20
-176.629
11
74.1653
21
-176.629
0
LINE
8
BLACK
6
CONTINUOUS
10
70.8663
20
-175.659
11
70.8663
21
-176.629
0
LINE
8
BLACK
6
CONTINUOUS
10
67.8911
20
-175.659
11
70.8663
21
-175.659
0
LINE
8
BLACK
6
CONTINUOUS
10
67.8911
20
-161.659
11
67.8911
21
-175.659
0
LINE
8
BLACK
6
CONTINUOUS
10
67.8911
20
-194.709
11
67.8911
21
-180.709
0
LINE
8
BLACK
6
CONTINUOUS
10
81.8906
20
-194.709
11
67.8911
21
-194.709
0
LINE
8
BLACK
6
CONTINUOUS
10
81.8906
20
-180.709
11
81.8906
21
-194.709
0
LINE
8
BLACK
6
CONTINUOUS
10
67.8911
20
-180.709
11
81.8906
21
-180.709
0
LINE
8
BLACK
6
CONTINUOUS
10
91.7022
20
-194.709
11
91.7022
21
-180.709
0
LINE
8
BLACK
6
CONTINUOUS
10
105.703
20
-194.709
11
91.7022
21
-194.709
0
LINE
8
BLACK
6
CONTINUOUS
10
105.703
20
-180.709
11
105.703
21
-194.709
0
LINE
8
BLACK
6
CONTINUOUS
10
91.7022
20
-180.709
11
105.703
21
-180.709
0
LINE
8
BLACK
6
CONTINUOUS
10
115.516
20
-194.709
11
115.516
21
-180.709
0
LINE
8
BLACK
6
CONTINUOUS
10
129.515
20
-194.709
11
115.516
21
-194.709
0
LINE
8
BLACK
6
CONTINUOUS
10
129.515
20
-180.709
11
129.515
21
-194.709
0
LINE
8
BLACK
6
CONTINUOUS
10
115.516
20
-180.709
11
129.515
21
-180.709
0
LINE
8
BLACK
6
CONTINUOUS
10
256.01
20
-194.709
11
256.01
21
-180.709
0
LINE
8
BLACK
6
CONTINUOUS
10
270.009
20
-194.709
11
256.01
21
-194.709
0
LINE
8
BLACK
6
CONTINUOUS
10
270.009
20
-180.709
11
270.009
21
-194.709
0
LINE
8
BLACK
6
CONTINUOUS
10
256.01
20
-180.709
11
270.009
21
-180.709
0
LINE
8
BLACK
6
CONTINUOUS
10
275.06
20
-194.709
11
275.06
21
-180.709
0
LINE
8
BLACK
6
CONTINUOUS
10
289.059
20
-194.709
11
275.06
21
-194.709
0
LINE
8
BLACK
6
CONTINUOUS
10
289.059
20
-180.709
11
289.059
21
-194.709
0
LINE
8
BLACK
6
CONTINUOUS
10
275.06
20
-180.709
11
289.059
21
-180.709
0
LINE
8
BLACK
6
CONTINUOUS
10
294.11
20
-194.709
11
294.11
21
-180.709
0
LINE
8
BLACK
6
CONTINUOUS
10
308.109
20
-194.709
11
294.11
21
-194.709
0
LINE
8
BLACK
6
CONTINUOUS
10
308.109
20
-180.709
11
308.109
21
-194.709
0
LINE
8
BLACK
6
CONTINUOUS
10
294.11
20
-180.709
11
308.109
21
-180.709
0
LINE
8
BLACK
6
CONTINUOUS
10
313.16
20
-194.709
11
313.16
21
-180.709
0
LINE
8
BLACK
6
CONTINUOUS
10
327.159
20
-194.709
11
313.16
21
-194.709
0
LINE
8
BLACK
6
CONTINUOUS
10
327.159
20
-180.709
11
327.159
21
-194.709
0
LINE
8
BLACK
6
CONTINUOUS
10
313.16
20
-180.709
11
327.159
21
-180.709
0
LINE
8
BLACK
6
CONTINUOUS
10
332.21
20
-194.709
11
332.21
21
-180.709
0
LINE
8
BLACK
6
CONTINUOUS
10
346.209
20
-194.709
11
332.21
21
-194.709
0
LINE
8
BLACK
6
CONTINUOUS
10
346.209
20
-180.709
11
346.209
21
-194.709
0
LINE
8
BLACK
6
CONTINUOUS
10
332.21
20
-180.709
11
346.209
21
-180.709
0
LINE
8
BLACK
6
CONTINUOUS
10
351.26
20
-194.709
11
351.26
21
-180.709
0
LINE
8
BLACK
6
CONTINUOUS
10
365.259
20
-194.709
11
351.26
21
-194.709
0
LINE
8
BLACK
6
CONTINUOUS
10
365.259
20
-180.709
11
365.259
21
-194.709
0
LINE
8
BLACK
6
CONTINUOUS
10
351.26
20
-180.709
11
365.259
21
-180.709
0
LINE
8
BLACK
6
CONTINUOUS
10
370.31
20
-194.709
11
370.31
21
-180.709
0
LINE
8
BLACK
6
CONTINUOUS
10
384.309
20
-194.709
11
370.31
21
-194.709
0
LINE
8
BLACK
6
CONTINUOUS
10
384.309
20
-180.709
11
384.309
21
-194.709
0
LINE
8
BLACK
6
CONTINUOUS
10
370.31
20
-180.709
11
384.309
21
-180.709
0
LINE
8
BLACK
6
CONTINUOUS
10
162.853
20
-180.709
11
148.852
21
-180.709
0
LINE
8
BLACK
6
CONTINUOUS
10
162.853
20
-185.41
11
162.853
21
-180.709
0
LINE
8
BLACK
6
CONTINUOUS
10
164.377
20
-185.41
11
162.853
21
-185.41
0
LINE
8
BLACK
6
CONTINUOUS
10
164.377
20
-182.179
11
164.377
21
-185.41
0
LINE
8
BLACK
6
CONTINUOUS
10
171.128
20
-182.179
11
164.377
21
-182.179
0
LINE
8
BLACK
6
CONTINUOUS
10
171.128
20
-185.41
11
171.128
21
-182.179
0
LINE
8
BLACK
6
CONTINUOUS
10
186.952
20
-185.41
11
171.128
21
-185.41
0
LINE
8
BLACK
6
CONTINUOUS
10
186.952
20
-180.709
11
186.952
21
-185.41
0
LINE
8
BLACK
6
CONTINUOUS
10
200.953
20
-180.709
11
186.952
21
-180.709
0
LINE
8
BLACK
6
CONTINUOUS
10
200.953
20
-185.41
11
200.953
21
-180.709
0
LINE
8
BLACK
6
CONTINUOUS
10
216.777
20
-185.41
11
200.953
21
-185.41
0
LINE
8
BLACK
6
CONTINUOUS
10
216.777
20
-182.179
11
216.777
21
-185.41
0
LINE
8
BLACK
6
CONTINUOUS
10
223.528
20
-182.179
11
216.777
21
-182.179
0
LINE
8
BLACK
6
CONTINUOUS
10
223.528
20
-185.41
11
223.528
21
-182.179
0
LINE
8
BLACK
6
CONTINUOUS
10
225.052
20
-185.41
11
223.528
21
-185.41
0
LINE
8
BLACK
6
CONTINUOUS
10
225.052
20
-180.709
11
225.052
21
-185.41
0
LINE
8
BLACK
6
CONTINUOUS
10
239.053
20
-180.709
11
225.052
21
-180.709
0
LINE
8
BLACK
6
CONTINUOUS
10
239.053
20
-185.41
11
239.053
21
-180.709
0
LINE
8
BLACK
6
CONTINUOUS
10
240.577
20
-185.41
11
239.053
21
-185.41
0
LINE
8
BLACK
6
CONTINUOUS
10
240.577
20
-182.179
11
240.577
21
-185.41
0
LINE
8
BLACK
6
CONTINUOUS
10
247.328
20
-182.179
11
240.577
21
-182.179
0
LINE
8
BLACK
6
CONTINUOUS
10
247.328
20
-185.41
11
247.328
21
-182.179
0
LINE
8
BLACK
6
CONTINUOUS
10
248.152
20
-185.41
11
247.328
21
-185.41
0
LINE
8
BLACK
6
CONTINUOUS
10
248.152
20
-188.208
11
248.152
21
-185.41
0
LINE
8
BLACK
6
CONTINUOUS
10
247.328
20
-188.208
11
248.152
21
-188.208
0
LINE
8
BLACK
6
CONTINUOUS
10
247.328
20
-194.478
11
247.328
21
-188.208
0
LINE
8
BLACK
6
CONTINUOUS
10
245.603
20
-194.478
11
247.328
21
-194.478
0
LINE
8
BLACK
6
CONTINUOUS
10
245.603
20
-195.679
11
245.603
21
-194.478
0
LINE
8
BLACK
6
CONTINUOUS
10
242.302
20
-195.679
11
245.603
21
-195.679
0
LINE
8
BLACK
6
CONTINUOUS
10
242.302
20
-194.478
11
242.302
21
-195.679
0
LINE
8
BLACK
6
CONTINUOUS
10
240.577
20
-194.478
11
242.302
21
-194.478
0
LINE
8
BLACK
6
CONTINUOUS
10
240.577
20
-190.009
11
240.577
21
-194.478
0
LINE
8
BLACK
6
CONTINUOUS
10
239.053
20
-190.009
11
240.577
21
-190.009
0
LINE
8
BLACK
6
CONTINUOUS
10
239.053
20
-194.709
11
239.053
21
-190.009
0
LINE
8
BLACK
6
CONTINUOUS
10
225.052
20
-194.709
11
239.053
21
-194.709
0
LINE
8
BLACK
6
CONTINUOUS
10
225.052
20
-190.009
11
225.052
21
-194.709
0
LINE
8
BLACK
6
CONTINUOUS
10
223.528
20
-190.009
11
225.052
21
-190.009
0
LINE
8
BLACK
6
CONTINUOUS
10
223.528
20
-194.478
11
223.528
21
-190.009
0
LINE
8
BLACK
6
CONTINUOUS
10
221.803
20
-194.478
11
223.528
21
-194.478
0
LINE
8
BLACK
6
CONTINUOUS
10
221.803
20
-195.679
11
221.803
21
-194.478
0
LINE
8
BLACK
6
CONTINUOUS
10
218.502
20
-195.679
11
221.803
21
-195.679
0
LINE
8
BLACK
6
CONTINUOUS
10
218.502
20
-194.478
11
218.502
21
-195.679
0
LINE
8
BLACK
6
CONTINUOUS
10
216.777
20
-194.478
11
218.502
21
-194.478
0
LINE
8
BLACK
6
CONTINUOUS
10
216.777
20
-190.009
11
216.777
21
-194.478
0
LINE
8
BLACK
6
CONTINUOUS
10
200.953
20
-190.009
11
216.777
21
-190.009
0
LINE
8
BLACK
6
CONTINUOUS
10
200.953
20
-194.709
11
200.953
21
-190.009
0
LINE
8
BLACK
6
CONTINUOUS
10
186.952
20
-194.709
11
200.953
21
-194.709
0
LINE
8
BLACK
6
CONTINUOUS
10
186.952
20
-190.009
11
186.952
21
-194.709
0
LINE
8
BLACK
6
CONTINUOUS
10
171.128
20
-190.009
11
186.952
21
-190.009
0
LINE
8
BLACK
6
CONTINUOUS
10
171.128
20
-194.478
11
171.128
21
-190.009
0
LINE
8
BLACK
6
CONTINUOUS
10
169.403
20
-194.478
11
171.128
21
-194.478
0
LINE
8
BLACK
6
CONTINUOUS
10
169.403
20
-195.679
11
169.403
21
-194.478
0
LINE
8
BLACK
6
CONTINUOUS
10
166.102
20
-195.679
11
169.403
21
-195.679
0
LINE
8
BLACK
6
CONTINUOUS
10
166.102
20
-194.478
11
166.102
21
-195.679
0
LINE
8
BLACK
6
CONTINUOUS
10
164.377
20
-194.478
11
166.102
21
-194.478
0
LINE
8
BLACK
6
CONTINUOUS
10
164.377
20
-190.009
11
164.377
21
-194.478
0
LINE
8
BLACK
6
CONTINUOUS
10
162.853
20
-190.009
11
164.377
21
-190.009
0
LINE
8
BLACK
6
CONTINUOUS
10
162.853
20
-194.709
11
162.853
21
-190.009
0
LINE
8
BLACK
6
CONTINUOUS
10
148.852
20
-194.709
11
162.853
21
-194.709
0
LINE
8
BLACK
6
CONTINUOUS
10
148.852
20
-190.009
11
148.852
21
-194.709
0
LINE
8
BLACK
6
CONTINUOUS
10
147.328
20
-190.009
11
148.852
21
-190.009
0
LINE
8
BLACK
6
CONTINUOUS
10
147.328
20
-194.478
11
147.328
21
-190.009
0
LINE
8
BLACK
6
CONTINUOUS
10
145.603
20
-194.478
11
147.328
21
-194.478
0
LINE
8
BLACK
6
CONTINUOUS
10
145.603
20
-195.679
11
145.603
21
-194.478
0
LINE
8
BLACK
6
CONTINUOUS
10
142.302
20
-195.679
11
145.603
21
-195.679
0
LINE
8
BLACK
6
CONTINUOUS
10
142.302
20
-194.478
11
142.302
21
-195.679
0
LINE
8
BLACK
6
CONTINUOUS
10
140.577
20
-194.478
11
142.302
21
-194.478
0
LINE
8
BLACK
6
CONTINUOUS
10
140.577
20
-188.208
11
140.577
21
-194.478
0
LINE
8
BLACK
6
CONTINUOUS
10
139.753
20
-188.208
11
140.577
21
-188.208
0
LINE
8
BLACK
6
CONTINUOUS
10
139.753
20
-185.41
11
139.753
21
-188.208
0
LINE
8
BLACK
6
CONTINUOUS
10
140.577
20
-185.41
11
139.753
21
-185.41
0
LINE
8
BLACK
6
CONTINUOUS
10
140.577
20
-182.179
11
140.577
21
-185.41
0
LINE
8
BLACK
6
CONTINUOUS
10
147.328
20
-182.179
11
140.577
21
-182.179
0
LINE
8
BLACK
6
CONTINUOUS
10
147.328
20
-185.41
11
147.328
21
-182.179
0
LINE
8
BLACK
6
CONTINUOUS
10
148.852
20
-185.41
11
147.328
21
-185.41
0
LINE
8
BLACK
6
CONTINUOUS
10
148.852
20
-180.709
11
148.852
21
-185.41
  0
ENDSEC
  0
EOF
