G04 #@! TF.GenerationSoftware,KiCad,Pcbnew,(5.1.9)-1*
G04 #@! TF.CreationDate,2021-05-31T01:01:48+01:00*
G04 #@! TF.ProjectId,EnvKB65,456e764b-4236-4352-9e6b-696361645f70,rev?*
G04 #@! TF.SameCoordinates,Original*
G04 #@! TF.FileFunction,Soldermask,Top*
G04 #@! TF.FilePolarity,Negative*
%FSLAX46Y46*%
G04 Gerber Fmt 4.6, Leading zero omitted, Abs format (unit mm)*
G04 Created by KiCad (PCBNEW (5.1.9)-1) date 2021-05-31 01:01:48*
%MOMM*%
%LPD*%
G01*
G04 APERTURE LIST*
%ADD10C,3.987800*%
%ADD11C,1.750000*%
%ADD12C,3.048000*%
%ADD13C,2.200000*%
%ADD14R,3.500000X1.700000*%
%ADD15O,1.700000X1.700000*%
%ADD16R,1.700000X1.700000*%
G04 APERTURE END LIST*
D10*
X84415000Y-168659000D03*
D11*
X79335000Y-168659000D03*
X89495000Y-168659000D03*
D12*
X72508750Y-161674000D03*
X96321250Y-161674000D03*
D10*
X72508750Y-176914000D03*
X96321250Y-176914000D03*
X327300000Y-149600000D03*
D11*
X322220000Y-149600000D03*
X332380000Y-149600000D03*
D12*
X315393750Y-142615000D03*
X339206250Y-142615000D03*
D10*
X315393750Y-157855000D03*
X339206250Y-157855000D03*
D11*
X339530000Y-130560000D03*
X329370000Y-130560000D03*
D10*
X334450000Y-130560000D03*
D13*
X231250000Y-178000000D03*
X225000000Y-122500000D03*
X367750000Y-180500000D03*
X86800000Y-185220000D03*
X69000000Y-101000000D03*
X382200000Y-101000000D03*
D14*
X377570000Y-147280000D03*
X377570000Y-144740000D03*
X377570000Y-142200000D03*
X377570000Y-139660000D03*
X377570000Y-137120000D03*
X377570000Y-134580000D03*
X377570000Y-132040000D03*
X377570000Y-129500000D03*
X377570000Y-126960000D03*
X377570000Y-124420000D03*
X377570000Y-121880000D03*
X377570000Y-119340000D03*
X377570000Y-116800000D03*
X377570000Y-114260000D03*
X377570000Y-111720000D03*
X377570000Y-109180000D03*
X377570000Y-106640000D03*
X377570000Y-104100000D03*
X377570000Y-101560000D03*
X377570000Y-99020000D03*
X357990000Y-147280000D03*
X357990000Y-144740000D03*
X357990000Y-142200000D03*
X357990000Y-139660000D03*
X357990000Y-137120000D03*
X357990000Y-134580000D03*
X357990000Y-132040000D03*
X357990000Y-129500000D03*
X357990000Y-126960000D03*
X357990000Y-124420000D03*
X357990000Y-121880000D03*
X357990000Y-119340000D03*
X357990000Y-116800000D03*
X357990000Y-114260000D03*
X357990000Y-111720000D03*
X357990000Y-109180000D03*
X357990000Y-106640000D03*
X357990000Y-104100000D03*
X357990000Y-101560000D03*
X357990000Y-99020000D03*
D15*
X376670000Y-99020000D03*
X376670000Y-101560000D03*
D16*
X376670000Y-104100000D03*
D15*
X376670000Y-106640000D03*
X376670000Y-109180000D03*
X376670000Y-111720000D03*
X376670000Y-114260000D03*
D16*
X376670000Y-116800000D03*
D15*
X376670000Y-119340000D03*
X376670000Y-121880000D03*
X376670000Y-124420000D03*
X376670000Y-126960000D03*
D16*
X376670000Y-129500000D03*
D15*
X376670000Y-132040000D03*
X376670000Y-134580000D03*
X376670000Y-137120000D03*
X376670000Y-139660000D03*
D16*
X376670000Y-142200000D03*
D15*
X376670000Y-144740000D03*
X376670000Y-147280000D03*
X358890000Y-147280000D03*
X358890000Y-144740000D03*
D16*
X358890000Y-142200000D03*
D15*
X358890000Y-139660000D03*
X358890000Y-137120000D03*
X358890000Y-134580000D03*
X358890000Y-132040000D03*
D16*
X358890000Y-129500000D03*
D15*
X358890000Y-126960000D03*
X358890000Y-124420000D03*
X358890000Y-121880000D03*
X358890000Y-119340000D03*
D16*
X358890000Y-116800000D03*
D15*
X358890000Y-114260000D03*
X358890000Y-111720000D03*
X358890000Y-109180000D03*
X358890000Y-106640000D03*
D16*
X358890000Y-104100000D03*
D15*
X358890000Y-101560000D03*
X358890000Y-99020000D03*
D10*
X336834200Y-140084120D03*
D11*
X336834200Y-135004120D03*
X336834200Y-145164120D03*
D12*
X343819200Y-152022120D03*
X343819200Y-128146120D03*
D10*
X328579200Y-152022120D03*
X328579200Y-128146120D03*
D11*
X199032950Y-187709120D03*
X188872950Y-187709120D03*
D10*
X193952950Y-187709120D03*
X243959200Y-179454120D03*
X220146700Y-179454120D03*
D12*
X243959200Y-194694120D03*
X220146700Y-194694120D03*
D11*
X237132950Y-187709120D03*
X226972950Y-187709120D03*
D10*
X232052950Y-187709120D03*
D11*
X363339200Y-187709120D03*
X353179200Y-187709120D03*
D10*
X358259200Y-187709120D03*
D11*
X268089200Y-187709120D03*
X257929200Y-187709120D03*
D10*
X263009200Y-187709120D03*
D11*
X84764200Y-149609120D03*
X74604200Y-149609120D03*
D10*
X79684200Y-149609120D03*
X167759200Y-179454120D03*
X143946700Y-179454120D03*
D12*
X167759200Y-194694120D03*
X143946700Y-194694120D03*
D11*
X160932950Y-187709120D03*
X150772950Y-187709120D03*
D10*
X155852950Y-187709120D03*
D11*
X318114200Y-168659120D03*
X307954200Y-168659120D03*
D10*
X313034200Y-168659120D03*
D11*
X382389200Y-187709120D03*
X372229200Y-187709120D03*
D10*
X377309200Y-187709120D03*
D11*
X344289200Y-187709120D03*
X334129200Y-187709120D03*
D10*
X339209200Y-187709120D03*
D11*
X325239200Y-187709120D03*
X315079200Y-187709120D03*
D10*
X320159200Y-187709120D03*
D11*
X306189200Y-187709120D03*
X296029200Y-187709120D03*
D10*
X301109200Y-187709120D03*
D11*
X287139200Y-187709120D03*
X276979200Y-187709120D03*
D10*
X282059200Y-187709120D03*
D11*
X127595450Y-187709120D03*
X117435450Y-187709120D03*
D10*
X122515450Y-187709120D03*
D11*
X103782950Y-187709120D03*
X93622950Y-187709120D03*
D10*
X98702950Y-187709120D03*
D11*
X79970450Y-187709120D03*
X69810450Y-187709120D03*
D10*
X74890450Y-187709120D03*
D11*
X382389200Y-168659120D03*
X372229200Y-168659120D03*
D10*
X377309200Y-168659120D03*
D11*
X363339200Y-168659120D03*
X353179200Y-168659120D03*
D10*
X358259200Y-168659120D03*
D11*
X344289200Y-168659120D03*
X334129200Y-168659120D03*
D10*
X339209200Y-168659120D03*
D11*
X291901700Y-168659120D03*
X281741700Y-168659120D03*
D10*
X286821700Y-168659120D03*
D11*
X272851700Y-168659120D03*
X262691700Y-168659120D03*
D10*
X267771700Y-168659120D03*
D11*
X253801700Y-168659120D03*
X243641700Y-168659120D03*
D10*
X248721700Y-168659120D03*
D11*
X234751700Y-168659120D03*
X224591700Y-168659120D03*
D10*
X229671700Y-168659120D03*
D11*
X215701700Y-168659120D03*
X205541700Y-168659120D03*
D10*
X210621700Y-168659120D03*
D11*
X196651700Y-168659120D03*
X186491700Y-168659120D03*
D10*
X191571700Y-168659120D03*
D11*
X177601700Y-168659120D03*
X167441700Y-168659120D03*
D10*
X172521700Y-168659120D03*
D11*
X158551700Y-168659120D03*
X148391700Y-168659120D03*
D10*
X153471700Y-168659120D03*
D11*
X139501700Y-168659120D03*
X129341700Y-168659120D03*
D10*
X134421700Y-168659120D03*
D11*
X120451700Y-168659120D03*
X110291700Y-168659120D03*
D10*
X115371700Y-168659120D03*
D11*
X101401700Y-168659120D03*
X91241700Y-168659120D03*
D10*
X96321700Y-168659120D03*
D11*
X79970450Y-168659120D03*
X69810450Y-168659120D03*
D10*
X74890450Y-168659120D03*
D11*
X320476700Y-149609120D03*
X310316700Y-149609120D03*
D10*
X315396700Y-149609120D03*
D11*
X301426700Y-149609120D03*
X291266700Y-149609120D03*
D10*
X296346700Y-149609120D03*
D11*
X282376700Y-149609120D03*
X272216700Y-149609120D03*
D10*
X277296700Y-149609120D03*
D11*
X263326700Y-149609120D03*
X253166700Y-149609120D03*
D10*
X258246700Y-149609120D03*
D11*
X244276700Y-149609120D03*
X234116700Y-149609120D03*
D10*
X239196700Y-149609120D03*
D11*
X225226700Y-149609120D03*
X215066700Y-149609120D03*
D10*
X220146700Y-149609120D03*
D11*
X206176700Y-149609120D03*
X196016700Y-149609120D03*
D10*
X201096700Y-149609120D03*
D11*
X187126700Y-149609120D03*
X176966700Y-149609120D03*
D10*
X182046700Y-149609120D03*
D11*
X168076700Y-149609120D03*
X157916700Y-149609120D03*
D10*
X162996700Y-149609120D03*
D11*
X149026700Y-149609120D03*
X138866700Y-149609120D03*
D10*
X143946700Y-149609120D03*
D11*
X129976700Y-149609120D03*
X119816700Y-149609120D03*
D10*
X124896700Y-149609120D03*
D11*
X110926700Y-149609120D03*
X100766700Y-149609120D03*
D10*
X105846700Y-149609120D03*
D11*
X315714200Y-130559120D03*
X305554200Y-130559120D03*
D10*
X310634200Y-130559120D03*
D11*
X296664200Y-130559120D03*
X286504200Y-130559120D03*
D10*
X291584200Y-130559120D03*
D11*
X277614200Y-130559120D03*
X267454200Y-130559120D03*
D10*
X272534200Y-130559120D03*
D11*
X258564200Y-130559120D03*
X248404200Y-130559120D03*
D10*
X253484200Y-130559120D03*
D11*
X239514200Y-130559120D03*
X229354200Y-130559120D03*
D10*
X234434200Y-130559120D03*
D11*
X220464200Y-130559120D03*
X210304200Y-130559120D03*
D10*
X215384200Y-130559120D03*
D11*
X201414200Y-130559120D03*
X191254200Y-130559120D03*
D10*
X196334200Y-130559120D03*
D11*
X182364200Y-130559120D03*
X172204200Y-130559120D03*
D10*
X177284200Y-130559120D03*
D11*
X163314200Y-130559120D03*
X153154200Y-130559120D03*
D10*
X158234200Y-130559120D03*
D11*
X144264200Y-130559120D03*
X134104200Y-130559120D03*
D10*
X139184200Y-130559120D03*
D11*
X125214200Y-130559120D03*
X115054200Y-130559120D03*
D10*
X120134200Y-130559120D03*
D11*
X106164200Y-130559120D03*
X96004200Y-130559120D03*
D10*
X101084200Y-130559120D03*
D11*
X82351700Y-130559120D03*
X72191700Y-130559120D03*
D10*
X77271700Y-130559120D03*
X341590450Y-119764120D03*
X317777950Y-119764120D03*
D12*
X341590450Y-104524120D03*
X317777950Y-104524120D03*
D11*
X334764200Y-111509120D03*
X324604200Y-111509120D03*
D10*
X329684200Y-111509120D03*
D11*
X306189200Y-111509120D03*
X296029200Y-111509120D03*
D10*
X301109200Y-111509120D03*
D11*
X287139200Y-111509120D03*
X276979200Y-111509120D03*
D10*
X282059200Y-111509120D03*
D11*
X268089200Y-111509120D03*
X257929200Y-111509120D03*
D10*
X263009200Y-111509120D03*
D11*
X249039200Y-111509120D03*
X238879200Y-111509120D03*
D10*
X243959200Y-111509120D03*
D11*
X229989200Y-111509120D03*
X219829200Y-111509120D03*
D10*
X224909200Y-111509120D03*
D11*
X210939200Y-111509120D03*
X200779200Y-111509120D03*
D10*
X205859200Y-111509120D03*
D11*
X191889200Y-111509120D03*
X181729200Y-111509120D03*
D10*
X186809200Y-111509120D03*
D11*
X172839200Y-111509120D03*
X162679200Y-111509120D03*
D10*
X167759200Y-111509120D03*
D11*
X153789200Y-111509120D03*
X143629200Y-111509120D03*
D10*
X148709200Y-111509120D03*
D11*
X134739200Y-111509120D03*
X124579200Y-111509120D03*
D10*
X129659200Y-111509120D03*
D11*
X115689200Y-111509120D03*
X105529200Y-111509120D03*
D10*
X110609200Y-111509120D03*
D11*
X96639200Y-111509120D03*
X86479200Y-111509120D03*
D10*
X91559200Y-111509120D03*
D11*
X77589200Y-111509120D03*
X67429200Y-111509120D03*
D10*
X72509200Y-111509120D03*
M02*
