%FSLAX45Y45*%
G04 Gerber Fmt 4.5, Leading zero omitted, Abs format (unit mm)*
G04 Created by KiCad (PCBNEW (5.1.9)-1) date 2021-05-17 18:05:24*
%MOMM*%
%LPD*%
G01*
G04 APERTURE LIST*
%TA.AperFunction,Profile*%
%ADD10C,0.100000*%
%TD*%
%ADD11C,0.200000*%
%ADD12C,0.300000*%
G04 APERTURE END LIST*
D10*
X6700000Y-19695000D02*
X38280000Y-19695000D01*
X38280000Y-9765000D02*
X6700000Y-9765000D01*
X38280000Y-9765000D02*
G75*
G02*
X38530000Y-10015000I0J-250000D01*
G01*
X6450000Y-19445000D02*
X6450000Y-10015000D01*
X6700000Y-19695000D02*
G75*
G02*
X6450000Y-19445000I0J250000D01*
G01*
X38530000Y-19445000D02*
G75*
G02*
X38280000Y-19695000I-250000J0D01*
G01*
X6450000Y-10015000D02*
G75*
G02*
X6700000Y-9765000I250000J0D01*
G01*
X38530000Y-19445000D02*
X38530000Y-10015000D01*
D11*
X6655420Y-11063412D02*
X6830420Y-11238412D01*
X6830420Y-11063412D02*
X6655420Y-11238412D01*
X6893545Y-16778412D02*
X7068545Y-16953412D01*
X7068545Y-16778412D02*
X6893545Y-16953412D01*
X6893545Y-18683412D02*
X7068545Y-18858412D01*
X7068545Y-18683412D02*
X6893545Y-18858412D01*
X7131670Y-12968412D02*
X7306670Y-13143412D01*
X7306670Y-12968412D02*
X7131670Y-13143412D01*
X7372920Y-14873412D02*
X7547920Y-15048412D01*
X7547920Y-14873412D02*
X7372920Y-15048412D01*
X7671420Y-11063412D02*
X7846420Y-11238412D01*
X7846420Y-11063412D02*
X7671420Y-11238412D01*
X7909545Y-16778412D02*
X8084545Y-16953412D01*
X8084545Y-16778412D02*
X7909545Y-16953412D01*
X7909545Y-18683412D02*
X8084545Y-18858412D01*
X8084545Y-18683412D02*
X7909545Y-18858412D01*
X8147670Y-12968412D02*
X8322670Y-13143412D01*
X8322670Y-12968412D02*
X8147670Y-13143412D01*
X8388920Y-14873412D02*
X8563920Y-15048412D01*
X8563920Y-14873412D02*
X8388920Y-15048412D01*
X8560420Y-11063412D02*
X8735420Y-11238412D01*
X8735420Y-11063412D02*
X8560420Y-11238412D01*
X9036670Y-16778412D02*
X9211670Y-16953412D01*
X9211670Y-16778412D02*
X9036670Y-16953412D01*
X9274795Y-18683412D02*
X9449795Y-18858412D01*
X9449795Y-18683412D02*
X9274795Y-18858412D01*
X9512920Y-12968412D02*
X9687920Y-13143412D01*
X9687920Y-12968412D02*
X9512920Y-13143412D01*
X9576420Y-11063412D02*
X9751420Y-11238412D01*
X9751420Y-11063412D02*
X9576420Y-11238412D01*
X9989170Y-14873412D02*
X10164170Y-15048412D01*
X10164170Y-14873412D02*
X9989170Y-15048412D01*
X10052670Y-16778412D02*
X10227670Y-16953412D01*
X10227670Y-16778412D02*
X10052670Y-16953412D01*
X10290795Y-18683412D02*
X10465795Y-18858412D01*
X10465795Y-18683412D02*
X10290795Y-18858412D01*
X10465420Y-11063412D02*
X10640420Y-11238412D01*
X10640420Y-11063412D02*
X10465420Y-11238412D01*
X10528920Y-12968412D02*
X10703920Y-13143412D01*
X10703920Y-12968412D02*
X10528920Y-13143412D01*
X10941670Y-16778412D02*
X11116670Y-16953412D01*
X11116670Y-16778412D02*
X10941670Y-16953412D01*
X11005170Y-14873412D02*
X11180170Y-15048412D01*
X11180170Y-14873412D02*
X11005170Y-15048412D01*
X11417920Y-12968412D02*
X11592920Y-13143412D01*
X11592920Y-12968412D02*
X11417920Y-13143412D01*
X11481420Y-11063412D02*
X11656420Y-11238412D01*
X11656420Y-11063412D02*
X11481420Y-11238412D01*
X11656045Y-18683412D02*
X11831045Y-18858412D01*
X11831045Y-18683412D02*
X11656045Y-18858412D01*
X11894170Y-14873412D02*
X12069170Y-15048412D01*
X12069170Y-14873412D02*
X11894170Y-15048412D01*
X11957670Y-16778412D02*
X12132670Y-16953412D01*
X12132670Y-16778412D02*
X11957670Y-16953412D01*
X12370420Y-11063412D02*
X12545420Y-11238412D01*
X12545420Y-11063412D02*
X12370420Y-11238412D01*
X12433920Y-12968412D02*
X12608920Y-13143412D01*
X12608920Y-12968412D02*
X12433920Y-13143412D01*
X12672045Y-18683412D02*
X12847045Y-18858412D01*
X12847045Y-18683412D02*
X12672045Y-18858412D01*
X12846670Y-16778412D02*
X13021670Y-16953412D01*
X13021670Y-16778412D02*
X12846670Y-16953412D01*
X12910170Y-14873412D02*
X13085170Y-15048412D01*
X13085170Y-14873412D02*
X12910170Y-15048412D01*
X13322920Y-12968412D02*
X13497920Y-13143412D01*
X13497920Y-12968412D02*
X13322920Y-13143412D01*
X13386420Y-11063412D02*
X13561420Y-11238412D01*
X13561420Y-11063412D02*
X13386420Y-11238412D01*
X13799170Y-14873412D02*
X13974170Y-15048412D01*
X13974170Y-14873412D02*
X13799170Y-15048412D01*
X13862670Y-16778412D02*
X14037670Y-16953412D01*
X14037670Y-16778412D02*
X13862670Y-16953412D01*
X14275420Y-11063412D02*
X14450420Y-11238412D01*
X14450420Y-11063412D02*
X14275420Y-11238412D01*
X14338920Y-12968412D02*
X14513920Y-13143412D01*
X14513920Y-12968412D02*
X14338920Y-13143412D01*
X14751670Y-16778412D02*
X14926670Y-16953412D01*
X14926670Y-16778412D02*
X14751670Y-16953412D01*
X14815170Y-14873412D02*
X14990170Y-15048412D01*
X14990170Y-14873412D02*
X14815170Y-15048412D01*
X14989795Y-18683412D02*
X15164795Y-18858412D01*
X15164795Y-18683412D02*
X14989795Y-18858412D01*
X15227920Y-12968412D02*
X15402920Y-13143412D01*
X15402920Y-12968412D02*
X15227920Y-13143412D01*
X15291420Y-11063412D02*
X15466420Y-11238412D01*
X15466420Y-11063412D02*
X15291420Y-11238412D01*
X15704170Y-14873412D02*
X15879170Y-15048412D01*
X15879170Y-14873412D02*
X15704170Y-15048412D01*
X15767670Y-16778412D02*
X15942670Y-16953412D01*
X15942670Y-16778412D02*
X15767670Y-16953412D01*
X16005795Y-18683412D02*
X16180795Y-18858412D01*
X16180795Y-18683412D02*
X16005795Y-18858412D01*
X16180420Y-11063412D02*
X16355420Y-11238412D01*
X16355420Y-11063412D02*
X16180420Y-11238412D01*
X16243920Y-12968412D02*
X16418920Y-13143412D01*
X16418920Y-12968412D02*
X16243920Y-13143412D01*
X16656670Y-16778412D02*
X16831670Y-16953412D01*
X16831670Y-16778412D02*
X16656670Y-16953412D01*
X16720170Y-14873412D02*
X16895170Y-15048412D01*
X16895170Y-14873412D02*
X16720170Y-15048412D01*
X17132920Y-12968412D02*
X17307920Y-13143412D01*
X17307920Y-12968412D02*
X17132920Y-13143412D01*
X17196420Y-11063412D02*
X17371420Y-11238412D01*
X17371420Y-11063412D02*
X17196420Y-11238412D01*
X17609170Y-14873412D02*
X17784170Y-15048412D01*
X17784170Y-14873412D02*
X17609170Y-15048412D01*
X17672670Y-16778412D02*
X17847670Y-16953412D01*
X17847670Y-16778412D02*
X17672670Y-16953412D01*
X18085420Y-11063412D02*
X18260420Y-11238412D01*
X18260420Y-11063412D02*
X18085420Y-11238412D01*
X18148920Y-12968412D02*
X18323920Y-13143412D01*
X18323920Y-12968412D02*
X18148920Y-13143412D01*
X18561670Y-16778412D02*
X18736670Y-16953412D01*
X18736670Y-16778412D02*
X18561670Y-16953412D01*
X18625170Y-14873412D02*
X18800170Y-15048412D01*
X18800170Y-14873412D02*
X18625170Y-15048412D01*
X18799795Y-18683412D02*
X18974795Y-18858412D01*
X18974795Y-18683412D02*
X18799795Y-18858412D01*
X19037920Y-12968412D02*
X19212920Y-13143412D01*
X19212920Y-12968412D02*
X19037920Y-13143412D01*
X19101420Y-11063412D02*
X19276420Y-11238412D01*
X19276420Y-11063412D02*
X19101420Y-11238412D01*
X19514170Y-14873412D02*
X19689170Y-15048412D01*
X19689170Y-14873412D02*
X19514170Y-15048412D01*
X19577670Y-16778412D02*
X19752670Y-16953412D01*
X19752670Y-16778412D02*
X19577670Y-16953412D01*
X19815795Y-18683412D02*
X19990795Y-18858412D01*
X19990795Y-18683412D02*
X19815795Y-18858412D01*
X19990420Y-11063412D02*
X20165420Y-11238412D01*
X20165420Y-11063412D02*
X19990420Y-11238412D01*
X20053920Y-12968412D02*
X20228920Y-13143412D01*
X20228920Y-12968412D02*
X20053920Y-13143412D01*
X20466670Y-16778412D02*
X20641670Y-16953412D01*
X20641670Y-16778412D02*
X20466670Y-16953412D01*
X20530170Y-14873412D02*
X20705170Y-15048412D01*
X20705170Y-14873412D02*
X20530170Y-15048412D01*
X20942920Y-12968412D02*
X21117920Y-13143412D01*
X21117920Y-12968412D02*
X20942920Y-13143412D01*
X21006420Y-11063412D02*
X21181420Y-11238412D01*
X21181420Y-11063412D02*
X21006420Y-11238412D01*
X21419170Y-14873412D02*
X21594170Y-15048412D01*
X21594170Y-14873412D02*
X21419170Y-15048412D01*
X21482670Y-16778412D02*
X21657670Y-16953412D01*
X21657670Y-16778412D02*
X21482670Y-16953412D01*
X21895420Y-11063412D02*
X22070420Y-11238412D01*
X22070420Y-11063412D02*
X21895420Y-11238412D01*
X21958920Y-12968412D02*
X22133920Y-13143412D01*
X22133920Y-12968412D02*
X21958920Y-13143412D01*
X22371670Y-16778412D02*
X22546670Y-16953412D01*
X22546670Y-16778412D02*
X22371670Y-16953412D01*
X22435170Y-14873412D02*
X22610170Y-15048412D01*
X22610170Y-14873412D02*
X22435170Y-15048412D01*
X22609795Y-18683412D02*
X22784795Y-18858412D01*
X22784795Y-18683412D02*
X22609795Y-18858412D01*
X22847920Y-12968412D02*
X23022920Y-13143412D01*
X23022920Y-12968412D02*
X22847920Y-13143412D01*
X22911420Y-11063412D02*
X23086420Y-11238412D01*
X23086420Y-11063412D02*
X22911420Y-11238412D01*
X23324170Y-14873412D02*
X23499170Y-15048412D01*
X23499170Y-14873412D02*
X23324170Y-15048412D01*
X23387670Y-16778412D02*
X23562670Y-16953412D01*
X23562670Y-16778412D02*
X23387670Y-16953412D01*
X23625795Y-18683412D02*
X23800795Y-18858412D01*
X23800795Y-18683412D02*
X23625795Y-18858412D01*
X23800420Y-11063412D02*
X23975420Y-11238412D01*
X23975420Y-11063412D02*
X23800420Y-11238412D01*
X23863920Y-12968412D02*
X24038920Y-13143412D01*
X24038920Y-12968412D02*
X23863920Y-13143412D01*
X24276670Y-16778412D02*
X24451670Y-16953412D01*
X24451670Y-16778412D02*
X24276670Y-16953412D01*
X24340170Y-14873412D02*
X24515170Y-15048412D01*
X24515170Y-14873412D02*
X24340170Y-15048412D01*
X24752920Y-12968412D02*
X24927920Y-13143412D01*
X24927920Y-12968412D02*
X24752920Y-13143412D01*
X24816420Y-11063412D02*
X24991420Y-11238412D01*
X24991420Y-11063412D02*
X24816420Y-11238412D01*
X25229170Y-14873412D02*
X25404170Y-15048412D01*
X25404170Y-14873412D02*
X25229170Y-15048412D01*
X25292670Y-16778412D02*
X25467670Y-16953412D01*
X25467670Y-16778412D02*
X25292670Y-16953412D01*
X25705420Y-11063412D02*
X25880420Y-11238412D01*
X25880420Y-11063412D02*
X25705420Y-11238412D01*
X25705420Y-18683412D02*
X25880420Y-18858412D01*
X25880420Y-18683412D02*
X25705420Y-18858412D01*
X25768920Y-12968412D02*
X25943920Y-13143412D01*
X25943920Y-12968412D02*
X25768920Y-13143412D01*
X26181670Y-16778412D02*
X26356670Y-16953412D01*
X26356670Y-16778412D02*
X26181670Y-16953412D01*
X26245170Y-14873412D02*
X26420170Y-15048412D01*
X26420170Y-14873412D02*
X26245170Y-15048412D01*
X26657920Y-12968412D02*
X26832920Y-13143412D01*
X26832920Y-12968412D02*
X26657920Y-13143412D01*
X26721420Y-11063412D02*
X26896420Y-11238412D01*
X26896420Y-11063412D02*
X26721420Y-11238412D01*
X26721420Y-18683412D02*
X26896420Y-18858412D01*
X26896420Y-18683412D02*
X26721420Y-18858412D01*
X27134170Y-14873412D02*
X27309170Y-15048412D01*
X27309170Y-14873412D02*
X27134170Y-15048412D01*
X27197670Y-16778412D02*
X27372670Y-16953412D01*
X27372670Y-16778412D02*
X27197670Y-16953412D01*
X27610420Y-11063412D02*
X27785420Y-11238412D01*
X27785420Y-11063412D02*
X27610420Y-11238412D01*
X27610420Y-18683412D02*
X27785420Y-18858412D01*
X27785420Y-18683412D02*
X27610420Y-18858412D01*
X27673920Y-12968412D02*
X27848920Y-13143412D01*
X27848920Y-12968412D02*
X27673920Y-13143412D01*
X28086670Y-16778412D02*
X28261670Y-16953412D01*
X28261670Y-16778412D02*
X28086670Y-16953412D01*
X28150170Y-14873412D02*
X28325170Y-15048412D01*
X28325170Y-14873412D02*
X28150170Y-15048412D01*
X28562920Y-12968412D02*
X28737920Y-13143412D01*
X28737920Y-12968412D02*
X28562920Y-13143412D01*
X28626420Y-11063412D02*
X28801420Y-11238412D01*
X28801420Y-11063412D02*
X28626420Y-11238412D01*
X28626420Y-18683412D02*
X28801420Y-18858412D01*
X28801420Y-18683412D02*
X28626420Y-18858412D01*
X29039170Y-14873412D02*
X29214170Y-15048412D01*
X29214170Y-14873412D02*
X29039170Y-15048412D01*
X29102670Y-16778412D02*
X29277670Y-16953412D01*
X29277670Y-16778412D02*
X29102670Y-16953412D01*
X29515420Y-11063412D02*
X29690420Y-11238412D01*
X29690420Y-11063412D02*
X29515420Y-11238412D01*
X29515420Y-18683412D02*
X29690420Y-18858412D01*
X29690420Y-18683412D02*
X29515420Y-18858412D01*
X29578920Y-12968412D02*
X29753920Y-13143412D01*
X29753920Y-12968412D02*
X29578920Y-13143412D01*
X30055170Y-14873412D02*
X30230170Y-15048412D01*
X30230170Y-14873412D02*
X30055170Y-15048412D01*
X30467920Y-12968412D02*
X30642920Y-13143412D01*
X30642920Y-12968412D02*
X30467920Y-13143412D01*
X30531420Y-11063412D02*
X30706420Y-11238412D01*
X30706420Y-11063412D02*
X30531420Y-11238412D01*
X30531420Y-18683412D02*
X30706420Y-18858412D01*
X30706420Y-18683412D02*
X30531420Y-18858412D01*
X30707920Y-16778412D02*
X30882920Y-16953412D01*
X30882920Y-16778412D02*
X30707920Y-16953412D01*
X30944170Y-14873412D02*
X31119170Y-15048412D01*
X31119170Y-14873412D02*
X30944170Y-15048412D01*
X31420420Y-18683412D02*
X31595420Y-18858412D01*
X31595420Y-18683412D02*
X31420420Y-18858412D01*
X31483920Y-12968412D02*
X31658920Y-13143412D01*
X31658920Y-12968412D02*
X31483920Y-13143412D01*
X31723920Y-16778412D02*
X31898920Y-16953412D01*
X31898920Y-16778412D02*
X31723920Y-16953412D01*
X31960170Y-14873412D02*
X32135170Y-15048412D01*
X32135170Y-14873412D02*
X31960170Y-15048412D01*
X32372920Y-11063412D02*
X32547920Y-11238412D01*
X32547920Y-11063412D02*
X32372920Y-11238412D01*
X32436420Y-18683412D02*
X32611420Y-18858412D01*
X32611420Y-18683412D02*
X32436420Y-18858412D01*
X33325420Y-16778412D02*
X33500420Y-16953412D01*
X33500420Y-16778412D02*
X33325420Y-16953412D01*
X33325420Y-18683412D02*
X33500420Y-18858412D01*
X33500420Y-18683412D02*
X33325420Y-18858412D01*
X33388920Y-11063412D02*
X33563920Y-11238412D01*
X33563920Y-11063412D02*
X33388920Y-11238412D01*
X33595920Y-13412912D02*
X33770920Y-13587912D01*
X33770920Y-13412912D02*
X33595920Y-13587912D01*
X33595920Y-14428912D02*
X33770920Y-14603912D01*
X33770920Y-14428912D02*
X33595920Y-14603912D01*
X34341420Y-16778412D02*
X34516420Y-16953412D01*
X34516420Y-16778412D02*
X34341420Y-16953412D01*
X34341420Y-18683412D02*
X34516420Y-18858412D01*
X34516420Y-18683412D02*
X34341420Y-18858412D01*
X35230420Y-16778412D02*
X35405420Y-16953412D01*
X35405420Y-16778412D02*
X35230420Y-16953412D01*
X35230420Y-18683412D02*
X35405420Y-18858412D01*
X35405420Y-18683412D02*
X35230420Y-18858412D01*
X36246420Y-16778412D02*
X36421420Y-16953412D01*
X36421420Y-16778412D02*
X36246420Y-16953412D01*
X36246420Y-18683412D02*
X36421420Y-18858412D01*
X36421420Y-18683412D02*
X36246420Y-18858412D01*
X37135420Y-16778412D02*
X37310420Y-16953412D01*
X37310420Y-16778412D02*
X37135420Y-16953412D01*
X37135420Y-18683412D02*
X37310420Y-18858412D01*
X37310420Y-18683412D02*
X37135420Y-18858412D01*
X38151420Y-16778412D02*
X38326420Y-16953412D01*
X38326420Y-16778412D02*
X38151420Y-16953412D01*
X38151420Y-18683412D02*
X38326420Y-18858412D01*
X38326420Y-18683412D02*
X38151420Y-18858412D01*
X7010000Y-10100000D02*
G75*
G03*
X7010000Y-10100000I-110000J0D01*
G01*
X7170000Y-17820000D02*
G75*
G03*
X7170000Y-17820000I-110000J0D01*
G01*
X22610000Y-12250000D02*
G75*
G03*
X22610000Y-12250000I-110000J0D01*
G01*
X23235000Y-17800000D02*
G75*
G03*
X23235000Y-17800000I-110000J0D01*
G01*
X36885000Y-18050000D02*
G75*
G03*
X36885000Y-18050000I-110000J0D01*
G01*
X38330000Y-10100000D02*
G75*
G03*
X38330000Y-10100000I-110000J0D01*
G01*
X14394670Y-19317012D02*
X14394670Y-19621812D01*
X14242270Y-19469412D02*
X14547070Y-19469412D01*
X16775920Y-19317012D02*
X16775920Y-19621812D01*
X16623520Y-19469412D02*
X16928320Y-19469412D01*
X22014670Y-19317012D02*
X22014670Y-19621812D01*
X21862270Y-19469412D02*
X22167070Y-19469412D01*
X24395920Y-19317012D02*
X24395920Y-19621812D01*
X24243520Y-19469412D02*
X24548320Y-19469412D01*
X31777795Y-10300012D02*
X31777795Y-10604812D01*
X31625395Y-10452412D02*
X31930195Y-10452412D01*
X34159045Y-10300012D02*
X34159045Y-10604812D01*
X34006645Y-10452412D02*
X34311445Y-10452412D01*
X34381920Y-12662212D02*
X34381920Y-12967012D01*
X34229520Y-12814612D02*
X34534320Y-12814612D01*
X34381920Y-15049812D02*
X34381920Y-15354612D01*
X34229520Y-15202212D02*
X34534320Y-15202212D01*
X7391911Y-11291903D02*
X7391911Y-11009921D01*
X7109929Y-11009921D01*
X7109929Y-11291903D01*
X7391911Y-11291903D01*
X7630036Y-17006903D02*
X7630036Y-16724921D01*
X7348054Y-16724921D01*
X7348054Y-17006903D01*
X7630036Y-17006903D01*
X7630036Y-18911903D02*
X7630036Y-18629921D01*
X7348054Y-18629921D01*
X7348054Y-18911903D01*
X7630036Y-18911903D01*
X7868161Y-13196903D02*
X7868161Y-12914921D01*
X7586179Y-12914921D01*
X7586179Y-13196903D01*
X7868161Y-13196903D01*
X8109411Y-15101903D02*
X8109411Y-14819921D01*
X7827429Y-14819921D01*
X7827429Y-15101903D01*
X8109411Y-15101903D01*
X9296911Y-11291903D02*
X9296911Y-11009921D01*
X9014929Y-11009921D01*
X9014929Y-11291903D01*
X9296911Y-11291903D01*
X9773161Y-17006903D02*
X9773161Y-16724921D01*
X9491179Y-16724921D01*
X9491179Y-17006903D01*
X9773161Y-17006903D01*
X10011286Y-18911903D02*
X10011286Y-18629921D01*
X9729304Y-18629921D01*
X9729304Y-18911903D01*
X10011286Y-18911903D01*
X10249411Y-13196903D02*
X10249411Y-12914921D01*
X9967429Y-12914921D01*
X9967429Y-13196903D01*
X10249411Y-13196903D01*
X10725661Y-15101903D02*
X10725661Y-14819921D01*
X10443679Y-14819921D01*
X10443679Y-15101903D01*
X10725661Y-15101903D01*
X11201911Y-11291903D02*
X11201911Y-11009921D01*
X10919929Y-11009921D01*
X10919929Y-11291903D01*
X11201911Y-11291903D01*
X11678161Y-17006903D02*
X11678161Y-16724921D01*
X11396179Y-16724921D01*
X11396179Y-17006903D01*
X11678161Y-17006903D01*
X12154411Y-13196903D02*
X12154411Y-12914921D01*
X11872429Y-12914921D01*
X11872429Y-13196903D01*
X12154411Y-13196903D01*
X12392536Y-18911903D02*
X12392536Y-18629921D01*
X12110554Y-18629921D01*
X12110554Y-18911903D01*
X12392536Y-18911903D01*
X12630661Y-15101903D02*
X12630661Y-14819921D01*
X12348679Y-14819921D01*
X12348679Y-15101903D01*
X12630661Y-15101903D01*
X13106911Y-11291903D02*
X13106911Y-11009921D01*
X12824929Y-11009921D01*
X12824929Y-11291903D01*
X13106911Y-11291903D01*
X13583161Y-17006903D02*
X13583161Y-16724921D01*
X13301179Y-16724921D01*
X13301179Y-17006903D01*
X13583161Y-17006903D01*
X14059411Y-13196903D02*
X14059411Y-12914921D01*
X13777429Y-12914921D01*
X13777429Y-13196903D01*
X14059411Y-13196903D01*
X14535661Y-15101903D02*
X14535661Y-14819921D01*
X14253679Y-14819921D01*
X14253679Y-15101903D01*
X14535661Y-15101903D01*
X14535661Y-18086403D02*
X14535661Y-17804421D01*
X14253679Y-17804421D01*
X14253679Y-18086403D01*
X14535661Y-18086403D01*
X15011911Y-11291903D02*
X15011911Y-11009921D01*
X14729929Y-11009921D01*
X14729929Y-11291903D01*
X15011911Y-11291903D01*
X15488161Y-17006903D02*
X15488161Y-16724921D01*
X15206179Y-16724921D01*
X15206179Y-17006903D01*
X15488161Y-17006903D01*
X15726286Y-18911903D02*
X15726286Y-18629921D01*
X15444304Y-18629921D01*
X15444304Y-18911903D01*
X15726286Y-18911903D01*
X15964411Y-13196903D02*
X15964411Y-12914921D01*
X15682429Y-12914921D01*
X15682429Y-13196903D01*
X15964411Y-13196903D01*
X16440661Y-15101903D02*
X16440661Y-14819921D01*
X16158679Y-14819921D01*
X16158679Y-15101903D01*
X16440661Y-15101903D01*
X16916911Y-11291903D02*
X16916911Y-11009921D01*
X16634929Y-11009921D01*
X16634929Y-11291903D01*
X16916911Y-11291903D01*
X16916911Y-18086403D02*
X16916911Y-17804421D01*
X16634929Y-17804421D01*
X16634929Y-18086403D01*
X16916911Y-18086403D01*
X17393161Y-17006903D02*
X17393161Y-16724921D01*
X17111179Y-16724921D01*
X17111179Y-17006903D01*
X17393161Y-17006903D01*
X17869411Y-13196903D02*
X17869411Y-12914921D01*
X17587429Y-12914921D01*
X17587429Y-13196903D01*
X17869411Y-13196903D01*
X18345661Y-15101903D02*
X18345661Y-14819921D01*
X18063679Y-14819921D01*
X18063679Y-15101903D01*
X18345661Y-15101903D01*
X18821911Y-11291903D02*
X18821911Y-11009921D01*
X18539929Y-11009921D01*
X18539929Y-11291903D01*
X18821911Y-11291903D01*
X19298161Y-17006903D02*
X19298161Y-16724921D01*
X19016179Y-16724921D01*
X19016179Y-17006903D01*
X19298161Y-17006903D01*
X19536286Y-18911903D02*
X19536286Y-18629921D01*
X19254304Y-18629921D01*
X19254304Y-18911903D01*
X19536286Y-18911903D01*
X19774411Y-13196903D02*
X19774411Y-12914921D01*
X19492429Y-12914921D01*
X19492429Y-13196903D01*
X19774411Y-13196903D01*
X20250661Y-15101903D02*
X20250661Y-14819921D01*
X19968679Y-14819921D01*
X19968679Y-15101903D01*
X20250661Y-15101903D01*
X20726911Y-11291903D02*
X20726911Y-11009921D01*
X20444929Y-11009921D01*
X20444929Y-11291903D01*
X20726911Y-11291903D01*
X21203161Y-17006903D02*
X21203161Y-16724921D01*
X20921179Y-16724921D01*
X20921179Y-17006903D01*
X21203161Y-17006903D01*
X21679411Y-13196903D02*
X21679411Y-12914921D01*
X21397429Y-12914921D01*
X21397429Y-13196903D01*
X21679411Y-13196903D01*
X22155661Y-15101903D02*
X22155661Y-14819921D01*
X21873679Y-14819921D01*
X21873679Y-15101903D01*
X22155661Y-15101903D01*
X22155661Y-18086403D02*
X22155661Y-17804421D01*
X21873679Y-17804421D01*
X21873679Y-18086403D01*
X22155661Y-18086403D01*
X22631911Y-11291903D02*
X22631911Y-11009921D01*
X22349929Y-11009921D01*
X22349929Y-11291903D01*
X22631911Y-11291903D01*
X23108161Y-17006903D02*
X23108161Y-16724921D01*
X22826179Y-16724921D01*
X22826179Y-17006903D01*
X23108161Y-17006903D01*
X23346286Y-18911903D02*
X23346286Y-18629921D01*
X23064304Y-18629921D01*
X23064304Y-18911903D01*
X23346286Y-18911903D01*
X23584411Y-13196903D02*
X23584411Y-12914921D01*
X23302429Y-12914921D01*
X23302429Y-13196903D01*
X23584411Y-13196903D01*
X24060661Y-15101903D02*
X24060661Y-14819921D01*
X23778679Y-14819921D01*
X23778679Y-15101903D01*
X24060661Y-15101903D01*
X24536911Y-11291903D02*
X24536911Y-11009921D01*
X24254929Y-11009921D01*
X24254929Y-11291903D01*
X24536911Y-11291903D01*
X24536911Y-18086403D02*
X24536911Y-17804421D01*
X24254929Y-17804421D01*
X24254929Y-18086403D01*
X24536911Y-18086403D01*
X25013161Y-17006903D02*
X25013161Y-16724921D01*
X24731179Y-16724921D01*
X24731179Y-17006903D01*
X25013161Y-17006903D01*
X25489411Y-13196903D02*
X25489411Y-12914921D01*
X25207429Y-12914921D01*
X25207429Y-13196903D01*
X25489411Y-13196903D01*
X25965661Y-15101903D02*
X25965661Y-14819921D01*
X25683679Y-14819921D01*
X25683679Y-15101903D01*
X25965661Y-15101903D01*
X26441911Y-11291903D02*
X26441911Y-11009921D01*
X26159929Y-11009921D01*
X26159929Y-11291903D01*
X26441911Y-11291903D01*
X26441911Y-18911903D02*
X26441911Y-18629921D01*
X26159929Y-18629921D01*
X26159929Y-18911903D01*
X26441911Y-18911903D01*
X26918161Y-17006903D02*
X26918161Y-16724921D01*
X26636179Y-16724921D01*
X26636179Y-17006903D01*
X26918161Y-17006903D01*
X27394411Y-13196903D02*
X27394411Y-12914921D01*
X27112429Y-12914921D01*
X27112429Y-13196903D01*
X27394411Y-13196903D01*
X27870661Y-15101903D02*
X27870661Y-14819921D01*
X27588679Y-14819921D01*
X27588679Y-15101903D01*
X27870661Y-15101903D01*
X28346911Y-11291903D02*
X28346911Y-11009921D01*
X28064929Y-11009921D01*
X28064929Y-11291903D01*
X28346911Y-11291903D01*
X28346911Y-18911903D02*
X28346911Y-18629921D01*
X28064929Y-18629921D01*
X28064929Y-18911903D01*
X28346911Y-18911903D01*
X28823161Y-17006903D02*
X28823161Y-16724921D01*
X28541179Y-16724921D01*
X28541179Y-17006903D01*
X28823161Y-17006903D01*
X29299411Y-13196903D02*
X29299411Y-12914921D01*
X29017429Y-12914921D01*
X29017429Y-13196903D01*
X29299411Y-13196903D01*
X29775661Y-15101903D02*
X29775661Y-14819921D01*
X29493679Y-14819921D01*
X29493679Y-15101903D01*
X29775661Y-15101903D01*
X30251911Y-11291903D02*
X30251911Y-11009921D01*
X29969929Y-11009921D01*
X29969929Y-11291903D01*
X30251911Y-11291903D01*
X30251911Y-18911903D02*
X30251911Y-18629921D01*
X29969929Y-18629921D01*
X29969929Y-18911903D01*
X30251911Y-18911903D01*
X31204411Y-13196903D02*
X31204411Y-12914921D01*
X30922429Y-12914921D01*
X30922429Y-13196903D01*
X31204411Y-13196903D01*
X31444411Y-17006903D02*
X31444411Y-16724921D01*
X31162429Y-16724921D01*
X31162429Y-17006903D01*
X31444411Y-17006903D01*
X31680661Y-15101903D02*
X31680661Y-14819921D01*
X31398679Y-14819921D01*
X31398679Y-15101903D01*
X31680661Y-15101903D01*
X31918786Y-12117403D02*
X31918786Y-11835421D01*
X31636804Y-11835421D01*
X31636804Y-12117403D01*
X31918786Y-12117403D01*
X32156911Y-18911903D02*
X32156911Y-18629921D01*
X31874929Y-18629921D01*
X31874929Y-18911903D01*
X32156911Y-18911903D01*
X32998911Y-12955603D02*
X32998911Y-12673621D01*
X32716929Y-12673621D01*
X32716929Y-12955603D01*
X32998911Y-12955603D01*
X32998911Y-15343203D02*
X32998911Y-15061221D01*
X32716929Y-15061221D01*
X32716929Y-15343203D01*
X32998911Y-15343203D01*
X33109411Y-11291903D02*
X33109411Y-11009921D01*
X32827429Y-11009921D01*
X32827429Y-11291903D01*
X33109411Y-11291903D01*
X33824411Y-14149403D02*
X33824411Y-13867421D01*
X33542429Y-13867421D01*
X33542429Y-14149403D01*
X33824411Y-14149403D01*
X34061911Y-17006903D02*
X34061911Y-16724921D01*
X33779929Y-16724921D01*
X33779929Y-17006903D01*
X34061911Y-17006903D01*
X34061911Y-18911903D02*
X34061911Y-18629921D01*
X33779929Y-18629921D01*
X33779929Y-18911903D01*
X34061911Y-18911903D01*
X34300036Y-12117403D02*
X34300036Y-11835421D01*
X34018054Y-11835421D01*
X34018054Y-12117403D01*
X34300036Y-12117403D01*
X35966911Y-17006903D02*
X35966911Y-16724921D01*
X35684929Y-16724921D01*
X35684929Y-17006903D01*
X35966911Y-17006903D01*
X35966911Y-18911903D02*
X35966911Y-18629921D01*
X35684929Y-18629921D01*
X35684929Y-18911903D01*
X35966911Y-18911903D01*
X37871911Y-17006903D02*
X37871911Y-16724921D01*
X37589929Y-16724921D01*
X37589929Y-17006903D01*
X37871911Y-17006903D01*
X37871911Y-18911903D02*
X37871911Y-18629921D01*
X37589929Y-18629921D01*
X37589929Y-18911903D01*
X37871911Y-18911903D01*
D12*
X6731428Y-20165714D02*
X6731428Y-19865714D01*
X6802857Y-19865714D01*
X6845714Y-19880000D01*
X6874286Y-19908572D01*
X6888571Y-19937143D01*
X6902857Y-19994286D01*
X6902857Y-20037143D01*
X6888571Y-20094286D01*
X6874286Y-20122857D01*
X6845714Y-20151429D01*
X6802857Y-20165714D01*
X6731428Y-20165714D01*
X7031428Y-20165714D02*
X7031428Y-19965714D01*
X7031428Y-20022857D02*
X7045714Y-19994286D01*
X7060000Y-19980000D01*
X7088571Y-19965714D01*
X7117143Y-19965714D01*
X7217143Y-20165714D02*
X7217143Y-19965714D01*
X7217143Y-19865714D02*
X7202857Y-19880000D01*
X7217143Y-19894286D01*
X7231428Y-19880000D01*
X7217143Y-19865714D01*
X7217143Y-19894286D01*
X7402857Y-20165714D02*
X7374286Y-20151429D01*
X7360000Y-20122857D01*
X7360000Y-19865714D01*
X7560000Y-20165714D02*
X7531428Y-20151429D01*
X7517143Y-20122857D01*
X7517143Y-19865714D01*
X7902857Y-20165714D02*
X7902857Y-19865714D01*
X8002857Y-20080000D01*
X8102857Y-19865714D01*
X8102857Y-20165714D01*
X8374286Y-20165714D02*
X8374286Y-20008572D01*
X8360000Y-19980000D01*
X8331428Y-19965714D01*
X8274286Y-19965714D01*
X8245714Y-19980000D01*
X8374286Y-20151429D02*
X8345714Y-20165714D01*
X8274286Y-20165714D01*
X8245714Y-20151429D01*
X8231428Y-20122857D01*
X8231428Y-20094286D01*
X8245714Y-20065714D01*
X8274286Y-20051429D01*
X8345714Y-20051429D01*
X8374286Y-20037143D01*
X8517143Y-19965714D02*
X8517143Y-20265714D01*
X8517143Y-19980000D02*
X8545714Y-19965714D01*
X8602857Y-19965714D01*
X8631428Y-19980000D01*
X8645714Y-19994286D01*
X8660000Y-20022857D01*
X8660000Y-20108572D01*
X8645714Y-20137143D01*
X8631428Y-20151429D01*
X8602857Y-20165714D01*
X8545714Y-20165714D01*
X8517143Y-20151429D01*
X8788571Y-20137143D02*
X8802857Y-20151429D01*
X8788571Y-20165714D01*
X8774286Y-20151429D01*
X8788571Y-20137143D01*
X8788571Y-20165714D01*
X8788571Y-19980000D02*
X8802857Y-19994286D01*
X8788571Y-20008572D01*
X8774286Y-19994286D01*
X8788571Y-19980000D01*
X8788571Y-20008572D01*
X6270000Y-20572500D02*
X6445000Y-20747500D01*
X6445000Y-20572500D02*
X6270000Y-20747500D01*
X6888571Y-20795714D02*
X6717143Y-20795714D01*
X6802857Y-20795714D02*
X6802857Y-20495714D01*
X6774286Y-20538572D01*
X6745714Y-20567143D01*
X6717143Y-20581429D01*
X7017143Y-20767143D02*
X7031428Y-20781429D01*
X7017143Y-20795714D01*
X7002857Y-20781429D01*
X7017143Y-20767143D01*
X7017143Y-20795714D01*
X7131428Y-20495714D02*
X7331428Y-20495714D01*
X7202857Y-20795714D01*
X7588571Y-20495714D02*
X7445714Y-20495714D01*
X7431428Y-20638572D01*
X7445714Y-20624286D01*
X7474286Y-20610000D01*
X7545714Y-20610000D01*
X7574286Y-20624286D01*
X7588571Y-20638572D01*
X7602857Y-20667143D01*
X7602857Y-20738572D01*
X7588571Y-20767143D01*
X7574286Y-20781429D01*
X7545714Y-20795714D01*
X7474286Y-20795714D01*
X7445714Y-20781429D01*
X7431428Y-20767143D01*
X7731428Y-20795714D02*
X7731428Y-20595714D01*
X7731428Y-20624286D02*
X7745714Y-20610000D01*
X7774286Y-20595714D01*
X7817143Y-20595714D01*
X7845714Y-20610000D01*
X7860000Y-20638572D01*
X7860000Y-20795714D01*
X7860000Y-20638572D02*
X7874286Y-20610000D01*
X7902857Y-20595714D01*
X7945714Y-20595714D01*
X7974286Y-20610000D01*
X7988571Y-20638572D01*
X7988571Y-20795714D01*
X8131428Y-20795714D02*
X8131428Y-20595714D01*
X8131428Y-20624286D02*
X8145714Y-20610000D01*
X8174286Y-20595714D01*
X8217143Y-20595714D01*
X8245714Y-20610000D01*
X8260000Y-20638572D01*
X8260000Y-20795714D01*
X8260000Y-20638572D02*
X8274286Y-20610000D01*
X8302857Y-20595714D01*
X8345714Y-20595714D01*
X8374286Y-20610000D01*
X8388571Y-20638572D01*
X8388571Y-20795714D01*
X8974286Y-20481429D02*
X8717143Y-20867143D01*
X9360000Y-20495714D02*
X9388571Y-20495714D01*
X9417143Y-20510000D01*
X9431428Y-20524286D01*
X9445714Y-20552857D01*
X9460000Y-20610000D01*
X9460000Y-20681429D01*
X9445714Y-20738572D01*
X9431428Y-20767143D01*
X9417143Y-20781429D01*
X9388571Y-20795714D01*
X9360000Y-20795714D01*
X9331428Y-20781429D01*
X9317143Y-20767143D01*
X9302857Y-20738572D01*
X9288571Y-20681429D01*
X9288571Y-20610000D01*
X9302857Y-20552857D01*
X9317143Y-20524286D01*
X9331428Y-20510000D01*
X9360000Y-20495714D01*
X9588571Y-20767143D02*
X9602857Y-20781429D01*
X9588571Y-20795714D01*
X9574286Y-20781429D01*
X9588571Y-20767143D01*
X9588571Y-20795714D01*
X9788571Y-20495714D02*
X9817143Y-20495714D01*
X9845714Y-20510000D01*
X9860000Y-20524286D01*
X9874286Y-20552857D01*
X9888571Y-20610000D01*
X9888571Y-20681429D01*
X9874286Y-20738572D01*
X9860000Y-20767143D01*
X9845714Y-20781429D01*
X9817143Y-20795714D01*
X9788571Y-20795714D01*
X9760000Y-20781429D01*
X9745714Y-20767143D01*
X9731428Y-20738572D01*
X9717143Y-20681429D01*
X9717143Y-20610000D01*
X9731428Y-20552857D01*
X9745714Y-20524286D01*
X9760000Y-20510000D01*
X9788571Y-20495714D01*
X10145714Y-20495714D02*
X10088571Y-20495714D01*
X10060000Y-20510000D01*
X10045714Y-20524286D01*
X10017143Y-20567143D01*
X10002857Y-20624286D01*
X10002857Y-20738572D01*
X10017143Y-20767143D01*
X10031428Y-20781429D01*
X10060000Y-20795714D01*
X10117143Y-20795714D01*
X10145714Y-20781429D01*
X10160000Y-20767143D01*
X10174286Y-20738572D01*
X10174286Y-20667143D01*
X10160000Y-20638572D01*
X10145714Y-20624286D01*
X10117143Y-20610000D01*
X10060000Y-20610000D01*
X10031428Y-20624286D01*
X10017143Y-20638572D01*
X10002857Y-20667143D01*
X10317143Y-20795714D02*
X10374286Y-20795714D01*
X10402857Y-20781429D01*
X10417143Y-20767143D01*
X10445714Y-20724286D01*
X10460000Y-20667143D01*
X10460000Y-20552857D01*
X10445714Y-20524286D01*
X10431428Y-20510000D01*
X10402857Y-20495714D01*
X10345714Y-20495714D01*
X10317143Y-20510000D01*
X10302857Y-20524286D01*
X10288571Y-20552857D01*
X10288571Y-20624286D01*
X10302857Y-20652857D01*
X10317143Y-20667143D01*
X10345714Y-20681429D01*
X10402857Y-20681429D01*
X10431428Y-20667143D01*
X10445714Y-20652857D01*
X10460000Y-20624286D01*
X10574286Y-20495714D02*
X10574286Y-20552857D01*
X10688571Y-20495714D02*
X10688571Y-20552857D01*
X11131428Y-20910000D02*
X11117143Y-20895714D01*
X11088571Y-20852857D01*
X11074286Y-20824286D01*
X11060000Y-20781429D01*
X11045714Y-20710000D01*
X11045714Y-20652857D01*
X11060000Y-20581429D01*
X11074286Y-20538572D01*
X11088571Y-20510000D01*
X11117143Y-20467143D01*
X11131428Y-20452857D01*
X11402857Y-20795714D02*
X11231428Y-20795714D01*
X11317143Y-20795714D02*
X11317143Y-20495714D01*
X11288571Y-20538572D01*
X11260000Y-20567143D01*
X11231428Y-20581429D01*
X11660000Y-20595714D02*
X11660000Y-20795714D01*
X11588571Y-20481429D02*
X11517143Y-20695714D01*
X11702857Y-20695714D01*
X11874286Y-20495714D02*
X11902857Y-20495714D01*
X11931428Y-20510000D01*
X11945714Y-20524286D01*
X11960000Y-20552857D01*
X11974286Y-20610000D01*
X11974286Y-20681429D01*
X11960000Y-20738572D01*
X11945714Y-20767143D01*
X11931428Y-20781429D01*
X11902857Y-20795714D01*
X11874286Y-20795714D01*
X11845714Y-20781429D01*
X11831428Y-20767143D01*
X11817143Y-20738572D01*
X11802857Y-20681429D01*
X11802857Y-20610000D01*
X11817143Y-20552857D01*
X11831428Y-20524286D01*
X11845714Y-20510000D01*
X11874286Y-20495714D01*
X12331428Y-20795714D02*
X12331428Y-20495714D01*
X12460000Y-20795714D02*
X12460000Y-20638572D01*
X12445714Y-20610000D01*
X12417143Y-20595714D01*
X12374286Y-20595714D01*
X12345714Y-20610000D01*
X12331428Y-20624286D01*
X12645714Y-20795714D02*
X12617143Y-20781429D01*
X12602857Y-20767143D01*
X12588571Y-20738572D01*
X12588571Y-20652857D01*
X12602857Y-20624286D01*
X12617143Y-20610000D01*
X12645714Y-20595714D01*
X12688571Y-20595714D01*
X12717143Y-20610000D01*
X12731428Y-20624286D01*
X12745714Y-20652857D01*
X12745714Y-20738572D01*
X12731428Y-20767143D01*
X12717143Y-20781429D01*
X12688571Y-20795714D01*
X12645714Y-20795714D01*
X12917143Y-20795714D02*
X12888571Y-20781429D01*
X12874286Y-20752857D01*
X12874286Y-20495714D01*
X13145714Y-20781429D02*
X13117143Y-20795714D01*
X13060000Y-20795714D01*
X13031428Y-20781429D01*
X13017143Y-20752857D01*
X13017143Y-20638572D01*
X13031428Y-20610000D01*
X13060000Y-20595714D01*
X13117143Y-20595714D01*
X13145714Y-20610000D01*
X13160000Y-20638572D01*
X13160000Y-20667143D01*
X13017143Y-20695714D01*
X13274286Y-20781429D02*
X13302857Y-20795714D01*
X13360000Y-20795714D01*
X13388571Y-20781429D01*
X13402857Y-20752857D01*
X13402857Y-20738572D01*
X13388571Y-20710000D01*
X13360000Y-20695714D01*
X13317143Y-20695714D01*
X13288571Y-20681429D01*
X13274286Y-20652857D01*
X13274286Y-20638572D01*
X13288571Y-20610000D01*
X13317143Y-20595714D01*
X13360000Y-20595714D01*
X13388571Y-20610000D01*
X13502857Y-20910000D02*
X13517143Y-20895714D01*
X13545714Y-20852857D01*
X13560000Y-20824286D01*
X13574286Y-20781429D01*
X13588571Y-20710000D01*
X13588571Y-20652857D01*
X13574286Y-20581429D01*
X13560000Y-20538572D01*
X13545714Y-20510000D01*
X13517143Y-20467143D01*
X13502857Y-20452857D01*
X14045714Y-20910000D02*
X14031428Y-20895714D01*
X14002857Y-20852857D01*
X13988571Y-20824286D01*
X13974286Y-20781429D01*
X13960000Y-20710000D01*
X13960000Y-20652857D01*
X13974286Y-20581429D01*
X13988571Y-20538572D01*
X14002857Y-20510000D01*
X14031428Y-20467143D01*
X14045714Y-20452857D01*
X14160000Y-20595714D02*
X14160000Y-20795714D01*
X14160000Y-20624286D02*
X14174286Y-20610000D01*
X14202857Y-20595714D01*
X14245714Y-20595714D01*
X14274286Y-20610000D01*
X14288571Y-20638572D01*
X14288571Y-20795714D01*
X14474286Y-20795714D02*
X14445714Y-20781429D01*
X14431428Y-20767143D01*
X14417143Y-20738572D01*
X14417143Y-20652857D01*
X14431428Y-20624286D01*
X14445714Y-20610000D01*
X14474286Y-20595714D01*
X14517143Y-20595714D01*
X14545714Y-20610000D01*
X14560000Y-20624286D01*
X14574286Y-20652857D01*
X14574286Y-20738572D01*
X14560000Y-20767143D01*
X14545714Y-20781429D01*
X14517143Y-20795714D01*
X14474286Y-20795714D01*
X14660000Y-20595714D02*
X14774286Y-20595714D01*
X14702857Y-20495714D02*
X14702857Y-20752857D01*
X14717143Y-20781429D01*
X14745714Y-20795714D01*
X14774286Y-20795714D01*
X15102857Y-20595714D02*
X15102857Y-20895714D01*
X15102857Y-20610000D02*
X15131428Y-20595714D01*
X15188571Y-20595714D01*
X15217143Y-20610000D01*
X15231428Y-20624286D01*
X15245714Y-20652857D01*
X15245714Y-20738572D01*
X15231428Y-20767143D01*
X15217143Y-20781429D01*
X15188571Y-20795714D01*
X15131428Y-20795714D01*
X15102857Y-20781429D01*
X15417143Y-20795714D02*
X15388571Y-20781429D01*
X15374286Y-20752857D01*
X15374286Y-20495714D01*
X15660000Y-20795714D02*
X15660000Y-20638572D01*
X15645714Y-20610000D01*
X15617143Y-20595714D01*
X15560000Y-20595714D01*
X15531428Y-20610000D01*
X15660000Y-20781429D02*
X15631428Y-20795714D01*
X15560000Y-20795714D01*
X15531428Y-20781429D01*
X15517143Y-20752857D01*
X15517143Y-20724286D01*
X15531428Y-20695714D01*
X15560000Y-20681429D01*
X15631428Y-20681429D01*
X15660000Y-20667143D01*
X15760000Y-20595714D02*
X15874286Y-20595714D01*
X15802857Y-20495714D02*
X15802857Y-20752857D01*
X15817143Y-20781429D01*
X15845714Y-20795714D01*
X15874286Y-20795714D01*
X16088571Y-20781429D02*
X16060000Y-20795714D01*
X16002857Y-20795714D01*
X15974286Y-20781429D01*
X15960000Y-20752857D01*
X15960000Y-20638572D01*
X15974286Y-20610000D01*
X16002857Y-20595714D01*
X16060000Y-20595714D01*
X16088571Y-20610000D01*
X16102857Y-20638572D01*
X16102857Y-20667143D01*
X15960000Y-20695714D01*
X16360000Y-20795714D02*
X16360000Y-20495714D01*
X16360000Y-20781429D02*
X16331428Y-20795714D01*
X16274286Y-20795714D01*
X16245714Y-20781429D01*
X16231428Y-20767143D01*
X16217143Y-20738572D01*
X16217143Y-20652857D01*
X16231428Y-20624286D01*
X16245714Y-20610000D01*
X16274286Y-20595714D01*
X16331428Y-20595714D01*
X16360000Y-20610000D01*
X16474286Y-20910000D02*
X16488571Y-20895714D01*
X16517143Y-20852857D01*
X16531428Y-20824286D01*
X16545714Y-20781429D01*
X16560000Y-20710000D01*
X16560000Y-20652857D01*
X16545714Y-20581429D01*
X16531428Y-20538572D01*
X16517143Y-20510000D01*
X16488571Y-20467143D01*
X16474286Y-20452857D01*
X6445000Y-21056000D02*
G75*
G03*
X6445000Y-21056000I-110000J0D01*
G01*
X6717143Y-20920286D02*
X6731428Y-20906000D01*
X6760000Y-20891714D01*
X6831428Y-20891714D01*
X6860000Y-20906000D01*
X6874286Y-20920286D01*
X6888571Y-20948857D01*
X6888571Y-20977429D01*
X6874286Y-21020286D01*
X6702857Y-21191714D01*
X6888571Y-21191714D01*
X7017143Y-21163143D02*
X7031428Y-21177429D01*
X7017143Y-21191714D01*
X7002857Y-21177429D01*
X7017143Y-21163143D01*
X7017143Y-21191714D01*
X7145714Y-20920286D02*
X7160000Y-20906000D01*
X7188571Y-20891714D01*
X7260000Y-20891714D01*
X7288571Y-20906000D01*
X7302857Y-20920286D01*
X7317143Y-20948857D01*
X7317143Y-20977429D01*
X7302857Y-21020286D01*
X7131428Y-21191714D01*
X7317143Y-21191714D01*
X7502857Y-20891714D02*
X7531428Y-20891714D01*
X7560000Y-20906000D01*
X7574286Y-20920286D01*
X7588571Y-20948857D01*
X7602857Y-21006000D01*
X7602857Y-21077429D01*
X7588571Y-21134572D01*
X7574286Y-21163143D01*
X7560000Y-21177429D01*
X7531428Y-21191714D01*
X7502857Y-21191714D01*
X7474286Y-21177429D01*
X7460000Y-21163143D01*
X7445714Y-21134572D01*
X7431428Y-21077429D01*
X7431428Y-21006000D01*
X7445714Y-20948857D01*
X7460000Y-20920286D01*
X7474286Y-20906000D01*
X7502857Y-20891714D01*
X7731428Y-21191714D02*
X7731428Y-20991714D01*
X7731428Y-21020286D02*
X7745714Y-21006000D01*
X7774286Y-20991714D01*
X7817143Y-20991714D01*
X7845714Y-21006000D01*
X7860000Y-21034572D01*
X7860000Y-21191714D01*
X7860000Y-21034572D02*
X7874286Y-21006000D01*
X7902857Y-20991714D01*
X7945714Y-20991714D01*
X7974286Y-21006000D01*
X7988571Y-21034572D01*
X7988571Y-21191714D01*
X8131428Y-21191714D02*
X8131428Y-20991714D01*
X8131428Y-21020286D02*
X8145714Y-21006000D01*
X8174286Y-20991714D01*
X8217143Y-20991714D01*
X8245714Y-21006000D01*
X8260000Y-21034572D01*
X8260000Y-21191714D01*
X8260000Y-21034572D02*
X8274286Y-21006000D01*
X8302857Y-20991714D01*
X8345714Y-20991714D01*
X8374286Y-21006000D01*
X8388571Y-21034572D01*
X8388571Y-21191714D01*
X8974286Y-20877429D02*
X8717143Y-21263143D01*
X9360000Y-20891714D02*
X9388571Y-20891714D01*
X9417143Y-20906000D01*
X9431428Y-20920286D01*
X9445714Y-20948857D01*
X9460000Y-21006000D01*
X9460000Y-21077429D01*
X9445714Y-21134572D01*
X9431428Y-21163143D01*
X9417143Y-21177429D01*
X9388571Y-21191714D01*
X9360000Y-21191714D01*
X9331428Y-21177429D01*
X9317143Y-21163143D01*
X9302857Y-21134572D01*
X9288571Y-21077429D01*
X9288571Y-21006000D01*
X9302857Y-20948857D01*
X9317143Y-20920286D01*
X9331428Y-20906000D01*
X9360000Y-20891714D01*
X9588571Y-21163143D02*
X9602857Y-21177429D01*
X9588571Y-21191714D01*
X9574286Y-21177429D01*
X9588571Y-21163143D01*
X9588571Y-21191714D01*
X9788571Y-20891714D02*
X9817143Y-20891714D01*
X9845714Y-20906000D01*
X9860000Y-20920286D01*
X9874286Y-20948857D01*
X9888571Y-21006000D01*
X9888571Y-21077429D01*
X9874286Y-21134572D01*
X9860000Y-21163143D01*
X9845714Y-21177429D01*
X9817143Y-21191714D01*
X9788571Y-21191714D01*
X9760000Y-21177429D01*
X9745714Y-21163143D01*
X9731428Y-21134572D01*
X9717143Y-21077429D01*
X9717143Y-21006000D01*
X9731428Y-20948857D01*
X9745714Y-20920286D01*
X9760000Y-20906000D01*
X9788571Y-20891714D01*
X10060000Y-21020286D02*
X10031428Y-21006000D01*
X10017143Y-20991714D01*
X10002857Y-20963143D01*
X10002857Y-20948857D01*
X10017143Y-20920286D01*
X10031428Y-20906000D01*
X10060000Y-20891714D01*
X10117143Y-20891714D01*
X10145714Y-20906000D01*
X10160000Y-20920286D01*
X10174286Y-20948857D01*
X10174286Y-20963143D01*
X10160000Y-20991714D01*
X10145714Y-21006000D01*
X10117143Y-21020286D01*
X10060000Y-21020286D01*
X10031428Y-21034572D01*
X10017143Y-21048857D01*
X10002857Y-21077429D01*
X10002857Y-21134572D01*
X10017143Y-21163143D01*
X10031428Y-21177429D01*
X10060000Y-21191714D01*
X10117143Y-21191714D01*
X10145714Y-21177429D01*
X10160000Y-21163143D01*
X10174286Y-21134572D01*
X10174286Y-21077429D01*
X10160000Y-21048857D01*
X10145714Y-21034572D01*
X10117143Y-21020286D01*
X10274286Y-20891714D02*
X10474286Y-20891714D01*
X10345714Y-21191714D01*
X10574286Y-20891714D02*
X10574286Y-20948857D01*
X10688571Y-20891714D02*
X10688571Y-20948857D01*
X11131428Y-21306000D02*
X11117143Y-21291714D01*
X11088571Y-21248857D01*
X11074286Y-21220286D01*
X11060000Y-21177429D01*
X11045714Y-21106000D01*
X11045714Y-21048857D01*
X11060000Y-20977429D01*
X11074286Y-20934572D01*
X11088571Y-20906000D01*
X11117143Y-20863143D01*
X11131428Y-20848857D01*
X11374286Y-20891714D02*
X11317143Y-20891714D01*
X11288571Y-20906000D01*
X11274286Y-20920286D01*
X11245714Y-20963143D01*
X11231428Y-21020286D01*
X11231428Y-21134572D01*
X11245714Y-21163143D01*
X11260000Y-21177429D01*
X11288571Y-21191714D01*
X11345714Y-21191714D01*
X11374286Y-21177429D01*
X11388571Y-21163143D01*
X11402857Y-21134572D01*
X11402857Y-21063143D01*
X11388571Y-21034572D01*
X11374286Y-21020286D01*
X11345714Y-21006000D01*
X11288571Y-21006000D01*
X11260000Y-21020286D01*
X11245714Y-21034572D01*
X11231428Y-21063143D01*
X11760000Y-21191714D02*
X11760000Y-20891714D01*
X11888571Y-21191714D02*
X11888571Y-21034572D01*
X11874286Y-21006000D01*
X11845714Y-20991714D01*
X11802857Y-20991714D01*
X11774286Y-21006000D01*
X11760000Y-21020286D01*
X12074286Y-21191714D02*
X12045714Y-21177429D01*
X12031428Y-21163143D01*
X12017143Y-21134572D01*
X12017143Y-21048857D01*
X12031428Y-21020286D01*
X12045714Y-21006000D01*
X12074286Y-20991714D01*
X12117143Y-20991714D01*
X12145714Y-21006000D01*
X12160000Y-21020286D01*
X12174286Y-21048857D01*
X12174286Y-21134572D01*
X12160000Y-21163143D01*
X12145714Y-21177429D01*
X12117143Y-21191714D01*
X12074286Y-21191714D01*
X12345714Y-21191714D02*
X12317143Y-21177429D01*
X12302857Y-21148857D01*
X12302857Y-20891714D01*
X12574286Y-21177429D02*
X12545714Y-21191714D01*
X12488571Y-21191714D01*
X12460000Y-21177429D01*
X12445714Y-21148857D01*
X12445714Y-21034572D01*
X12460000Y-21006000D01*
X12488571Y-20991714D01*
X12545714Y-20991714D01*
X12574286Y-21006000D01*
X12588571Y-21034572D01*
X12588571Y-21063143D01*
X12445714Y-21091714D01*
X12702857Y-21177429D02*
X12731428Y-21191714D01*
X12788571Y-21191714D01*
X12817143Y-21177429D01*
X12831428Y-21148857D01*
X12831428Y-21134572D01*
X12817143Y-21106000D01*
X12788571Y-21091714D01*
X12745714Y-21091714D01*
X12717143Y-21077429D01*
X12702857Y-21048857D01*
X12702857Y-21034572D01*
X12717143Y-21006000D01*
X12745714Y-20991714D01*
X12788571Y-20991714D01*
X12817143Y-21006000D01*
X12931428Y-21306000D02*
X12945714Y-21291714D01*
X12974286Y-21248857D01*
X12988571Y-21220286D01*
X13002857Y-21177429D01*
X13017143Y-21106000D01*
X13017143Y-21048857D01*
X13002857Y-20977429D01*
X12988571Y-20934572D01*
X12974286Y-20906000D01*
X12945714Y-20863143D01*
X12931428Y-20848857D01*
X13474286Y-21306000D02*
X13460000Y-21291714D01*
X13431428Y-21248857D01*
X13417143Y-21220286D01*
X13402857Y-21177429D01*
X13388571Y-21106000D01*
X13388571Y-21048857D01*
X13402857Y-20977429D01*
X13417143Y-20934572D01*
X13431428Y-20906000D01*
X13460000Y-20863143D01*
X13474286Y-20848857D01*
X13588571Y-20991714D02*
X13588571Y-21191714D01*
X13588571Y-21020286D02*
X13602857Y-21006000D01*
X13631428Y-20991714D01*
X13674286Y-20991714D01*
X13702857Y-21006000D01*
X13717143Y-21034572D01*
X13717143Y-21191714D01*
X13902857Y-21191714D02*
X13874286Y-21177429D01*
X13860000Y-21163143D01*
X13845714Y-21134572D01*
X13845714Y-21048857D01*
X13860000Y-21020286D01*
X13874286Y-21006000D01*
X13902857Y-20991714D01*
X13945714Y-20991714D01*
X13974286Y-21006000D01*
X13988571Y-21020286D01*
X14002857Y-21048857D01*
X14002857Y-21134572D01*
X13988571Y-21163143D01*
X13974286Y-21177429D01*
X13945714Y-21191714D01*
X13902857Y-21191714D01*
X14088571Y-20991714D02*
X14202857Y-20991714D01*
X14131428Y-20891714D02*
X14131428Y-21148857D01*
X14145714Y-21177429D01*
X14174286Y-21191714D01*
X14202857Y-21191714D01*
X14531428Y-20991714D02*
X14531428Y-21291714D01*
X14531428Y-21006000D02*
X14560000Y-20991714D01*
X14617143Y-20991714D01*
X14645714Y-21006000D01*
X14660000Y-21020286D01*
X14674286Y-21048857D01*
X14674286Y-21134572D01*
X14660000Y-21163143D01*
X14645714Y-21177429D01*
X14617143Y-21191714D01*
X14560000Y-21191714D01*
X14531428Y-21177429D01*
X14845714Y-21191714D02*
X14817143Y-21177429D01*
X14802857Y-21148857D01*
X14802857Y-20891714D01*
X15088571Y-21191714D02*
X15088571Y-21034572D01*
X15074286Y-21006000D01*
X15045714Y-20991714D01*
X14988571Y-20991714D01*
X14960000Y-21006000D01*
X15088571Y-21177429D02*
X15060000Y-21191714D01*
X14988571Y-21191714D01*
X14960000Y-21177429D01*
X14945714Y-21148857D01*
X14945714Y-21120286D01*
X14960000Y-21091714D01*
X14988571Y-21077429D01*
X15060000Y-21077429D01*
X15088571Y-21063143D01*
X15188571Y-20991714D02*
X15302857Y-20991714D01*
X15231428Y-20891714D02*
X15231428Y-21148857D01*
X15245714Y-21177429D01*
X15274286Y-21191714D01*
X15302857Y-21191714D01*
X15517143Y-21177429D02*
X15488571Y-21191714D01*
X15431428Y-21191714D01*
X15402857Y-21177429D01*
X15388571Y-21148857D01*
X15388571Y-21034572D01*
X15402857Y-21006000D01*
X15431428Y-20991714D01*
X15488571Y-20991714D01*
X15517143Y-21006000D01*
X15531428Y-21034572D01*
X15531428Y-21063143D01*
X15388571Y-21091714D01*
X15788571Y-21191714D02*
X15788571Y-20891714D01*
X15788571Y-21177429D02*
X15760000Y-21191714D01*
X15702857Y-21191714D01*
X15674286Y-21177429D01*
X15660000Y-21163143D01*
X15645714Y-21134572D01*
X15645714Y-21048857D01*
X15660000Y-21020286D01*
X15674286Y-21006000D01*
X15702857Y-20991714D01*
X15760000Y-20991714D01*
X15788571Y-21006000D01*
X15902857Y-21306000D02*
X15917143Y-21291714D01*
X15945714Y-21248857D01*
X15960000Y-21220286D01*
X15974286Y-21177429D01*
X15988571Y-21106000D01*
X15988571Y-21048857D01*
X15974286Y-20977429D01*
X15960000Y-20934572D01*
X15945714Y-20906000D01*
X15917143Y-20863143D01*
X15902857Y-20848857D01*
X6292600Y-21299600D02*
X6292600Y-21604400D01*
X6140200Y-21452000D02*
X6445000Y-21452000D01*
X6702857Y-21287714D02*
X6888571Y-21287714D01*
X6788571Y-21402000D01*
X6831428Y-21402000D01*
X6860000Y-21416286D01*
X6874286Y-21430572D01*
X6888571Y-21459143D01*
X6888571Y-21530572D01*
X6874286Y-21559143D01*
X6860000Y-21573429D01*
X6831428Y-21587714D01*
X6745714Y-21587714D01*
X6717143Y-21573429D01*
X6702857Y-21559143D01*
X7017143Y-21559143D02*
X7031428Y-21573429D01*
X7017143Y-21587714D01*
X7002857Y-21573429D01*
X7017143Y-21559143D01*
X7017143Y-21587714D01*
X7217143Y-21287714D02*
X7245714Y-21287714D01*
X7274286Y-21302000D01*
X7288571Y-21316286D01*
X7302857Y-21344857D01*
X7317143Y-21402000D01*
X7317143Y-21473429D01*
X7302857Y-21530572D01*
X7288571Y-21559143D01*
X7274286Y-21573429D01*
X7245714Y-21587714D01*
X7217143Y-21587714D01*
X7188571Y-21573429D01*
X7174286Y-21559143D01*
X7160000Y-21530572D01*
X7145714Y-21473429D01*
X7145714Y-21402000D01*
X7160000Y-21344857D01*
X7174286Y-21316286D01*
X7188571Y-21302000D01*
X7217143Y-21287714D01*
X7588571Y-21287714D02*
X7445714Y-21287714D01*
X7431428Y-21430572D01*
X7445714Y-21416286D01*
X7474286Y-21402000D01*
X7545714Y-21402000D01*
X7574286Y-21416286D01*
X7588571Y-21430572D01*
X7602857Y-21459143D01*
X7602857Y-21530572D01*
X7588571Y-21559143D01*
X7574286Y-21573429D01*
X7545714Y-21587714D01*
X7474286Y-21587714D01*
X7445714Y-21573429D01*
X7431428Y-21559143D01*
X7731428Y-21587714D02*
X7731428Y-21387714D01*
X7731428Y-21416286D02*
X7745714Y-21402000D01*
X7774286Y-21387714D01*
X7817143Y-21387714D01*
X7845714Y-21402000D01*
X7860000Y-21430572D01*
X7860000Y-21587714D01*
X7860000Y-21430572D02*
X7874286Y-21402000D01*
X7902857Y-21387714D01*
X7945714Y-21387714D01*
X7974286Y-21402000D01*
X7988571Y-21430572D01*
X7988571Y-21587714D01*
X8131428Y-21587714D02*
X8131428Y-21387714D01*
X8131428Y-21416286D02*
X8145714Y-21402000D01*
X8174286Y-21387714D01*
X8217143Y-21387714D01*
X8245714Y-21402000D01*
X8260000Y-21430572D01*
X8260000Y-21587714D01*
X8260000Y-21430572D02*
X8274286Y-21402000D01*
X8302857Y-21387714D01*
X8345714Y-21387714D01*
X8374286Y-21402000D01*
X8388571Y-21430572D01*
X8388571Y-21587714D01*
X8974286Y-21273429D02*
X8717143Y-21659143D01*
X9360000Y-21287714D02*
X9388571Y-21287714D01*
X9417143Y-21302000D01*
X9431428Y-21316286D01*
X9445714Y-21344857D01*
X9460000Y-21402000D01*
X9460000Y-21473429D01*
X9445714Y-21530572D01*
X9431428Y-21559143D01*
X9417143Y-21573429D01*
X9388571Y-21587714D01*
X9360000Y-21587714D01*
X9331428Y-21573429D01*
X9317143Y-21559143D01*
X9302857Y-21530572D01*
X9288571Y-21473429D01*
X9288571Y-21402000D01*
X9302857Y-21344857D01*
X9317143Y-21316286D01*
X9331428Y-21302000D01*
X9360000Y-21287714D01*
X9588571Y-21559143D02*
X9602857Y-21573429D01*
X9588571Y-21587714D01*
X9574286Y-21573429D01*
X9588571Y-21559143D01*
X9588571Y-21587714D01*
X9888571Y-21587714D02*
X9717143Y-21587714D01*
X9802857Y-21587714D02*
X9802857Y-21287714D01*
X9774286Y-21330572D01*
X9745714Y-21359143D01*
X9717143Y-21373429D01*
X10002857Y-21316286D02*
X10017143Y-21302000D01*
X10045714Y-21287714D01*
X10117143Y-21287714D01*
X10145714Y-21302000D01*
X10160000Y-21316286D01*
X10174286Y-21344857D01*
X10174286Y-21373429D01*
X10160000Y-21416286D01*
X9988571Y-21587714D01*
X10174286Y-21587714D01*
X10360000Y-21287714D02*
X10388571Y-21287714D01*
X10417143Y-21302000D01*
X10431428Y-21316286D01*
X10445714Y-21344857D01*
X10460000Y-21402000D01*
X10460000Y-21473429D01*
X10445714Y-21530572D01*
X10431428Y-21559143D01*
X10417143Y-21573429D01*
X10388571Y-21587714D01*
X10360000Y-21587714D01*
X10331428Y-21573429D01*
X10317143Y-21559143D01*
X10302857Y-21530572D01*
X10288571Y-21473429D01*
X10288571Y-21402000D01*
X10302857Y-21344857D01*
X10317143Y-21316286D01*
X10331428Y-21302000D01*
X10360000Y-21287714D01*
X10574286Y-21287714D02*
X10574286Y-21344857D01*
X10688571Y-21287714D02*
X10688571Y-21344857D01*
X11131428Y-21702000D02*
X11117143Y-21687714D01*
X11088571Y-21644857D01*
X11074286Y-21616286D01*
X11060000Y-21573429D01*
X11045714Y-21502000D01*
X11045714Y-21444857D01*
X11060000Y-21373429D01*
X11074286Y-21330572D01*
X11088571Y-21302000D01*
X11117143Y-21259143D01*
X11131428Y-21244857D01*
X11288571Y-21416286D02*
X11260000Y-21402000D01*
X11245714Y-21387714D01*
X11231428Y-21359143D01*
X11231428Y-21344857D01*
X11245714Y-21316286D01*
X11260000Y-21302000D01*
X11288571Y-21287714D01*
X11345714Y-21287714D01*
X11374286Y-21302000D01*
X11388571Y-21316286D01*
X11402857Y-21344857D01*
X11402857Y-21359143D01*
X11388571Y-21387714D01*
X11374286Y-21402000D01*
X11345714Y-21416286D01*
X11288571Y-21416286D01*
X11260000Y-21430572D01*
X11245714Y-21444857D01*
X11231428Y-21473429D01*
X11231428Y-21530572D01*
X11245714Y-21559143D01*
X11260000Y-21573429D01*
X11288571Y-21587714D01*
X11345714Y-21587714D01*
X11374286Y-21573429D01*
X11388571Y-21559143D01*
X11402857Y-21530572D01*
X11402857Y-21473429D01*
X11388571Y-21444857D01*
X11374286Y-21430572D01*
X11345714Y-21416286D01*
X11760000Y-21587714D02*
X11760000Y-21287714D01*
X11888571Y-21587714D02*
X11888571Y-21430572D01*
X11874286Y-21402000D01*
X11845714Y-21387714D01*
X11802857Y-21387714D01*
X11774286Y-21402000D01*
X11760000Y-21416286D01*
X12074286Y-21587714D02*
X12045714Y-21573429D01*
X12031428Y-21559143D01*
X12017143Y-21530572D01*
X12017143Y-21444857D01*
X12031428Y-21416286D01*
X12045714Y-21402000D01*
X12074286Y-21387714D01*
X12117143Y-21387714D01*
X12145714Y-21402000D01*
X12160000Y-21416286D01*
X12174286Y-21444857D01*
X12174286Y-21530572D01*
X12160000Y-21559143D01*
X12145714Y-21573429D01*
X12117143Y-21587714D01*
X12074286Y-21587714D01*
X12345714Y-21587714D02*
X12317143Y-21573429D01*
X12302857Y-21544857D01*
X12302857Y-21287714D01*
X12574286Y-21573429D02*
X12545714Y-21587714D01*
X12488571Y-21587714D01*
X12460000Y-21573429D01*
X12445714Y-21544857D01*
X12445714Y-21430572D01*
X12460000Y-21402000D01*
X12488571Y-21387714D01*
X12545714Y-21387714D01*
X12574286Y-21402000D01*
X12588571Y-21430572D01*
X12588571Y-21459143D01*
X12445714Y-21487714D01*
X12702857Y-21573429D02*
X12731428Y-21587714D01*
X12788571Y-21587714D01*
X12817143Y-21573429D01*
X12831428Y-21544857D01*
X12831428Y-21530572D01*
X12817143Y-21502000D01*
X12788571Y-21487714D01*
X12745714Y-21487714D01*
X12717143Y-21473429D01*
X12702857Y-21444857D01*
X12702857Y-21430572D01*
X12717143Y-21402000D01*
X12745714Y-21387714D01*
X12788571Y-21387714D01*
X12817143Y-21402000D01*
X12931428Y-21702000D02*
X12945714Y-21687714D01*
X12974286Y-21644857D01*
X12988571Y-21616286D01*
X13002857Y-21573429D01*
X13017143Y-21502000D01*
X13017143Y-21444857D01*
X13002857Y-21373429D01*
X12988571Y-21330572D01*
X12974286Y-21302000D01*
X12945714Y-21259143D01*
X12931428Y-21244857D01*
X13474286Y-21702000D02*
X13460000Y-21687714D01*
X13431428Y-21644857D01*
X13417143Y-21616286D01*
X13402857Y-21573429D01*
X13388571Y-21502000D01*
X13388571Y-21444857D01*
X13402857Y-21373429D01*
X13417143Y-21330572D01*
X13431428Y-21302000D01*
X13460000Y-21259143D01*
X13474286Y-21244857D01*
X13588571Y-21387714D02*
X13588571Y-21587714D01*
X13588571Y-21416286D02*
X13602857Y-21402000D01*
X13631428Y-21387714D01*
X13674286Y-21387714D01*
X13702857Y-21402000D01*
X13717143Y-21430572D01*
X13717143Y-21587714D01*
X13902857Y-21587714D02*
X13874286Y-21573429D01*
X13860000Y-21559143D01*
X13845714Y-21530572D01*
X13845714Y-21444857D01*
X13860000Y-21416286D01*
X13874286Y-21402000D01*
X13902857Y-21387714D01*
X13945714Y-21387714D01*
X13974286Y-21402000D01*
X13988571Y-21416286D01*
X14002857Y-21444857D01*
X14002857Y-21530572D01*
X13988571Y-21559143D01*
X13974286Y-21573429D01*
X13945714Y-21587714D01*
X13902857Y-21587714D01*
X14088571Y-21387714D02*
X14202857Y-21387714D01*
X14131428Y-21287714D02*
X14131428Y-21544857D01*
X14145714Y-21573429D01*
X14174286Y-21587714D01*
X14202857Y-21587714D01*
X14531428Y-21387714D02*
X14531428Y-21687714D01*
X14531428Y-21402000D02*
X14560000Y-21387714D01*
X14617143Y-21387714D01*
X14645714Y-21402000D01*
X14660000Y-21416286D01*
X14674286Y-21444857D01*
X14674286Y-21530572D01*
X14660000Y-21559143D01*
X14645714Y-21573429D01*
X14617143Y-21587714D01*
X14560000Y-21587714D01*
X14531428Y-21573429D01*
X14845714Y-21587714D02*
X14817143Y-21573429D01*
X14802857Y-21544857D01*
X14802857Y-21287714D01*
X15088571Y-21587714D02*
X15088571Y-21430572D01*
X15074286Y-21402000D01*
X15045714Y-21387714D01*
X14988571Y-21387714D01*
X14960000Y-21402000D01*
X15088571Y-21573429D02*
X15060000Y-21587714D01*
X14988571Y-21587714D01*
X14960000Y-21573429D01*
X14945714Y-21544857D01*
X14945714Y-21516286D01*
X14960000Y-21487714D01*
X14988571Y-21473429D01*
X15060000Y-21473429D01*
X15088571Y-21459143D01*
X15188571Y-21387714D02*
X15302857Y-21387714D01*
X15231428Y-21287714D02*
X15231428Y-21544857D01*
X15245714Y-21573429D01*
X15274286Y-21587714D01*
X15302857Y-21587714D01*
X15517143Y-21573429D02*
X15488571Y-21587714D01*
X15431428Y-21587714D01*
X15402857Y-21573429D01*
X15388571Y-21544857D01*
X15388571Y-21430572D01*
X15402857Y-21402000D01*
X15431428Y-21387714D01*
X15488571Y-21387714D01*
X15517143Y-21402000D01*
X15531428Y-21430572D01*
X15531428Y-21459143D01*
X15388571Y-21487714D01*
X15788571Y-21587714D02*
X15788571Y-21287714D01*
X15788571Y-21573429D02*
X15760000Y-21587714D01*
X15702857Y-21587714D01*
X15674286Y-21573429D01*
X15660000Y-21559143D01*
X15645714Y-21530572D01*
X15645714Y-21444857D01*
X15660000Y-21416286D01*
X15674286Y-21402000D01*
X15702857Y-21387714D01*
X15760000Y-21387714D01*
X15788571Y-21402000D01*
X15902857Y-21702000D02*
X15917143Y-21687714D01*
X15945714Y-21644857D01*
X15960000Y-21616286D01*
X15974286Y-21573429D01*
X15988571Y-21502000D01*
X15988571Y-21444857D01*
X15974286Y-21373429D01*
X15960000Y-21330572D01*
X15945714Y-21302000D01*
X15917143Y-21259143D01*
X15902857Y-21244857D01*
X6386601Y-22027792D02*
X6386601Y-21745809D01*
X6104618Y-21745809D01*
X6104618Y-22027792D01*
X6386601Y-22027792D01*
X6702857Y-21722514D02*
X6888571Y-21722514D01*
X6788571Y-21836800D01*
X6831428Y-21836800D01*
X6860000Y-21851086D01*
X6874286Y-21865372D01*
X6888571Y-21893943D01*
X6888571Y-21965372D01*
X6874286Y-21993943D01*
X6860000Y-22008229D01*
X6831428Y-22022514D01*
X6745714Y-22022514D01*
X6717143Y-22008229D01*
X6702857Y-21993943D01*
X7017143Y-21993943D02*
X7031428Y-22008229D01*
X7017143Y-22022514D01*
X7002857Y-22008229D01*
X7017143Y-21993943D01*
X7017143Y-22022514D01*
X7174286Y-22022514D02*
X7231428Y-22022514D01*
X7260000Y-22008229D01*
X7274286Y-21993943D01*
X7302857Y-21951086D01*
X7317143Y-21893943D01*
X7317143Y-21779657D01*
X7302857Y-21751086D01*
X7288571Y-21736800D01*
X7260000Y-21722514D01*
X7202857Y-21722514D01*
X7174286Y-21736800D01*
X7160000Y-21751086D01*
X7145714Y-21779657D01*
X7145714Y-21851086D01*
X7160000Y-21879657D01*
X7174286Y-21893943D01*
X7202857Y-21908229D01*
X7260000Y-21908229D01*
X7288571Y-21893943D01*
X7302857Y-21879657D01*
X7317143Y-21851086D01*
X7460000Y-22022514D02*
X7517143Y-22022514D01*
X7545714Y-22008229D01*
X7560000Y-21993943D01*
X7588571Y-21951086D01*
X7602857Y-21893943D01*
X7602857Y-21779657D01*
X7588571Y-21751086D01*
X7574286Y-21736800D01*
X7545714Y-21722514D01*
X7488571Y-21722514D01*
X7460000Y-21736800D01*
X7445714Y-21751086D01*
X7431428Y-21779657D01*
X7431428Y-21851086D01*
X7445714Y-21879657D01*
X7460000Y-21893943D01*
X7488571Y-21908229D01*
X7545714Y-21908229D01*
X7574286Y-21893943D01*
X7588571Y-21879657D01*
X7602857Y-21851086D01*
X7731428Y-22022514D02*
X7731428Y-21822514D01*
X7731428Y-21851086D02*
X7745714Y-21836800D01*
X7774286Y-21822514D01*
X7817143Y-21822514D01*
X7845714Y-21836800D01*
X7860000Y-21865372D01*
X7860000Y-22022514D01*
X7860000Y-21865372D02*
X7874286Y-21836800D01*
X7902857Y-21822514D01*
X7945714Y-21822514D01*
X7974286Y-21836800D01*
X7988571Y-21865372D01*
X7988571Y-22022514D01*
X8131428Y-22022514D02*
X8131428Y-21822514D01*
X8131428Y-21851086D02*
X8145714Y-21836800D01*
X8174286Y-21822514D01*
X8217143Y-21822514D01*
X8245714Y-21836800D01*
X8260000Y-21865372D01*
X8260000Y-22022514D01*
X8260000Y-21865372D02*
X8274286Y-21836800D01*
X8302857Y-21822514D01*
X8345714Y-21822514D01*
X8374286Y-21836800D01*
X8388571Y-21865372D01*
X8388571Y-22022514D01*
X8974286Y-21708229D02*
X8717143Y-22093943D01*
X9360000Y-21722514D02*
X9388571Y-21722514D01*
X9417143Y-21736800D01*
X9431428Y-21751086D01*
X9445714Y-21779657D01*
X9460000Y-21836800D01*
X9460000Y-21908229D01*
X9445714Y-21965372D01*
X9431428Y-21993943D01*
X9417143Y-22008229D01*
X9388571Y-22022514D01*
X9360000Y-22022514D01*
X9331428Y-22008229D01*
X9317143Y-21993943D01*
X9302857Y-21965372D01*
X9288571Y-21908229D01*
X9288571Y-21836800D01*
X9302857Y-21779657D01*
X9317143Y-21751086D01*
X9331428Y-21736800D01*
X9360000Y-21722514D01*
X9588571Y-21993943D02*
X9602857Y-22008229D01*
X9588571Y-22022514D01*
X9574286Y-22008229D01*
X9588571Y-21993943D01*
X9588571Y-22022514D01*
X9888571Y-22022514D02*
X9717143Y-22022514D01*
X9802857Y-22022514D02*
X9802857Y-21722514D01*
X9774286Y-21765372D01*
X9745714Y-21793943D01*
X9717143Y-21808229D01*
X10160000Y-21722514D02*
X10017143Y-21722514D01*
X10002857Y-21865372D01*
X10017143Y-21851086D01*
X10045714Y-21836800D01*
X10117143Y-21836800D01*
X10145714Y-21851086D01*
X10160000Y-21865372D01*
X10174286Y-21893943D01*
X10174286Y-21965372D01*
X10160000Y-21993943D01*
X10145714Y-22008229D01*
X10117143Y-22022514D01*
X10045714Y-22022514D01*
X10017143Y-22008229D01*
X10002857Y-21993943D01*
X10274286Y-21722514D02*
X10474286Y-21722514D01*
X10345714Y-22022514D01*
X10574286Y-21722514D02*
X10574286Y-21779657D01*
X10688571Y-21722514D02*
X10688571Y-21779657D01*
X11131428Y-22136800D02*
X11117143Y-22122514D01*
X11088571Y-22079657D01*
X11074286Y-22051086D01*
X11060000Y-22008229D01*
X11045714Y-21936800D01*
X11045714Y-21879657D01*
X11060000Y-21808229D01*
X11074286Y-21765372D01*
X11088571Y-21736800D01*
X11117143Y-21693943D01*
X11131428Y-21679657D01*
X11217143Y-21722514D02*
X11417143Y-21722514D01*
X11288571Y-22022514D01*
X11574286Y-21851086D02*
X11545714Y-21836800D01*
X11531428Y-21822514D01*
X11517143Y-21793943D01*
X11517143Y-21779657D01*
X11531428Y-21751086D01*
X11545714Y-21736800D01*
X11574286Y-21722514D01*
X11631428Y-21722514D01*
X11660000Y-21736800D01*
X11674286Y-21751086D01*
X11688571Y-21779657D01*
X11688571Y-21793943D01*
X11674286Y-21822514D01*
X11660000Y-21836800D01*
X11631428Y-21851086D01*
X11574286Y-21851086D01*
X11545714Y-21865372D01*
X11531428Y-21879657D01*
X11517143Y-21908229D01*
X11517143Y-21965372D01*
X11531428Y-21993943D01*
X11545714Y-22008229D01*
X11574286Y-22022514D01*
X11631428Y-22022514D01*
X11660000Y-22008229D01*
X11674286Y-21993943D01*
X11688571Y-21965372D01*
X11688571Y-21908229D01*
X11674286Y-21879657D01*
X11660000Y-21865372D01*
X11631428Y-21851086D01*
X12045714Y-22022514D02*
X12045714Y-21722514D01*
X12174286Y-22022514D02*
X12174286Y-21865372D01*
X12160000Y-21836800D01*
X12131428Y-21822514D01*
X12088571Y-21822514D01*
X12060000Y-21836800D01*
X12045714Y-21851086D01*
X12360000Y-22022514D02*
X12331428Y-22008229D01*
X12317143Y-21993943D01*
X12302857Y-21965372D01*
X12302857Y-21879657D01*
X12317143Y-21851086D01*
X12331428Y-21836800D01*
X12360000Y-21822514D01*
X12402857Y-21822514D01*
X12431428Y-21836800D01*
X12445714Y-21851086D01*
X12460000Y-21879657D01*
X12460000Y-21965372D01*
X12445714Y-21993943D01*
X12431428Y-22008229D01*
X12402857Y-22022514D01*
X12360000Y-22022514D01*
X12631428Y-22022514D02*
X12602857Y-22008229D01*
X12588571Y-21979657D01*
X12588571Y-21722514D01*
X12860000Y-22008229D02*
X12831428Y-22022514D01*
X12774286Y-22022514D01*
X12745714Y-22008229D01*
X12731428Y-21979657D01*
X12731428Y-21865372D01*
X12745714Y-21836800D01*
X12774286Y-21822514D01*
X12831428Y-21822514D01*
X12860000Y-21836800D01*
X12874286Y-21865372D01*
X12874286Y-21893943D01*
X12731428Y-21922514D01*
X12988571Y-22008229D02*
X13017143Y-22022514D01*
X13074286Y-22022514D01*
X13102857Y-22008229D01*
X13117143Y-21979657D01*
X13117143Y-21965372D01*
X13102857Y-21936800D01*
X13074286Y-21922514D01*
X13031428Y-21922514D01*
X13002857Y-21908229D01*
X12988571Y-21879657D01*
X12988571Y-21865372D01*
X13002857Y-21836800D01*
X13031428Y-21822514D01*
X13074286Y-21822514D01*
X13102857Y-21836800D01*
X13217143Y-22136800D02*
X13231428Y-22122514D01*
X13260000Y-22079657D01*
X13274286Y-22051086D01*
X13288571Y-22008229D01*
X13302857Y-21936800D01*
X13302857Y-21879657D01*
X13288571Y-21808229D01*
X13274286Y-21765372D01*
X13260000Y-21736800D01*
X13231428Y-21693943D01*
X13217143Y-21679657D01*
X13760000Y-22136800D02*
X13745714Y-22122514D01*
X13717143Y-22079657D01*
X13702857Y-22051086D01*
X13688571Y-22008229D01*
X13674286Y-21936800D01*
X13674286Y-21879657D01*
X13688571Y-21808229D01*
X13702857Y-21765372D01*
X13717143Y-21736800D01*
X13745714Y-21693943D01*
X13760000Y-21679657D01*
X13874286Y-21822514D02*
X13874286Y-22022514D01*
X13874286Y-21851086D02*
X13888571Y-21836800D01*
X13917143Y-21822514D01*
X13960000Y-21822514D01*
X13988571Y-21836800D01*
X14002857Y-21865372D01*
X14002857Y-22022514D01*
X14188571Y-22022514D02*
X14160000Y-22008229D01*
X14145714Y-21993943D01*
X14131428Y-21965372D01*
X14131428Y-21879657D01*
X14145714Y-21851086D01*
X14160000Y-21836800D01*
X14188571Y-21822514D01*
X14231428Y-21822514D01*
X14260000Y-21836800D01*
X14274286Y-21851086D01*
X14288571Y-21879657D01*
X14288571Y-21965372D01*
X14274286Y-21993943D01*
X14260000Y-22008229D01*
X14231428Y-22022514D01*
X14188571Y-22022514D01*
X14374286Y-21822514D02*
X14488571Y-21822514D01*
X14417143Y-21722514D02*
X14417143Y-21979657D01*
X14431428Y-22008229D01*
X14460000Y-22022514D01*
X14488571Y-22022514D01*
X14817143Y-21822514D02*
X14817143Y-22122514D01*
X14817143Y-21836800D02*
X14845714Y-21822514D01*
X14902857Y-21822514D01*
X14931428Y-21836800D01*
X14945714Y-21851086D01*
X14960000Y-21879657D01*
X14960000Y-21965372D01*
X14945714Y-21993943D01*
X14931428Y-22008229D01*
X14902857Y-22022514D01*
X14845714Y-22022514D01*
X14817143Y-22008229D01*
X15131428Y-22022514D02*
X15102857Y-22008229D01*
X15088571Y-21979657D01*
X15088571Y-21722514D01*
X15374286Y-22022514D02*
X15374286Y-21865372D01*
X15360000Y-21836800D01*
X15331428Y-21822514D01*
X15274286Y-21822514D01*
X15245714Y-21836800D01*
X15374286Y-22008229D02*
X15345714Y-22022514D01*
X15274286Y-22022514D01*
X15245714Y-22008229D01*
X15231428Y-21979657D01*
X15231428Y-21951086D01*
X15245714Y-21922514D01*
X15274286Y-21908229D01*
X15345714Y-21908229D01*
X15374286Y-21893943D01*
X15474286Y-21822514D02*
X15588571Y-21822514D01*
X15517143Y-21722514D02*
X15517143Y-21979657D01*
X15531428Y-22008229D01*
X15560000Y-22022514D01*
X15588571Y-22022514D01*
X15802857Y-22008229D02*
X15774286Y-22022514D01*
X15717143Y-22022514D01*
X15688571Y-22008229D01*
X15674286Y-21979657D01*
X15674286Y-21865372D01*
X15688571Y-21836800D01*
X15717143Y-21822514D01*
X15774286Y-21822514D01*
X15802857Y-21836800D01*
X15817143Y-21865372D01*
X15817143Y-21893943D01*
X15674286Y-21922514D01*
X16074286Y-22022514D02*
X16074286Y-21722514D01*
X16074286Y-22008229D02*
X16045714Y-22022514D01*
X15988571Y-22022514D01*
X15960000Y-22008229D01*
X15945714Y-21993943D01*
X15931428Y-21965372D01*
X15931428Y-21879657D01*
X15945714Y-21851086D01*
X15960000Y-21836800D01*
X15988571Y-21822514D01*
X16045714Y-21822514D01*
X16074286Y-21836800D01*
X16188571Y-22136800D02*
X16202857Y-22122514D01*
X16231428Y-22079657D01*
X16245714Y-22051086D01*
X16260000Y-22008229D01*
X16274286Y-21936800D01*
X16274286Y-21879657D01*
X16260000Y-21808229D01*
X16245714Y-21765372D01*
X16231428Y-21736800D01*
X16202857Y-21693943D01*
X16188571Y-21679657D01*
M02*
