G04 #@! TF.GenerationSoftware,KiCad,Pcbnew,(5.1.9)-1*
G04 #@! TF.CreationDate,2021-05-27T03:15:51+01:00*
G04 #@! TF.ProjectId,EnvKB65,456e764b-4236-4352-9e6b-696361645f70,rev?*
G04 #@! TF.SameCoordinates,Original*
G04 #@! TF.FileFunction,Legend,Bot*
G04 #@! TF.FilePolarity,Positive*
%FSLAX46Y46*%
G04 Gerber Fmt 4.6, Leading zero omitted, Abs format (unit mm)*
G04 Created by KiCad (PCBNEW (5.1.9)-1) date 2021-05-27 03:15:51*
%MOMM*%
%LPD*%
G01*
G04 APERTURE LIST*
%ADD10C,0.150000*%
%ADD11C,0.120000*%
G04 APERTURE END LIST*
D10*
X353466666Y-99452380D02*
X353466666Y-98452380D01*
X353038095Y-99452380D02*
X353038095Y-98928571D01*
X353085714Y-98833333D01*
X353180952Y-98785714D01*
X353323809Y-98785714D01*
X353419047Y-98833333D01*
X353466666Y-98880952D01*
X352704761Y-98785714D02*
X352323809Y-98785714D01*
X352561904Y-98452380D02*
X352561904Y-99309523D01*
X352514285Y-99404761D01*
X352419047Y-99452380D01*
X352323809Y-99452380D01*
X352133333Y-98785714D02*
X351752380Y-98785714D01*
X351990476Y-98452380D02*
X351990476Y-99309523D01*
X351942857Y-99404761D01*
X351847619Y-99452380D01*
X351752380Y-99452380D01*
X351419047Y-98785714D02*
X351419047Y-99785714D01*
X351419047Y-98833333D02*
X351323809Y-98785714D01*
X351133333Y-98785714D01*
X351038095Y-98833333D01*
X350990476Y-98880952D01*
X350942857Y-98976190D01*
X350942857Y-99261904D01*
X350990476Y-99357142D01*
X351038095Y-99404761D01*
X351133333Y-99452380D01*
X351323809Y-99452380D01*
X351419047Y-99404761D01*
X350561904Y-99404761D02*
X350466666Y-99452380D01*
X350276190Y-99452380D01*
X350180952Y-99404761D01*
X350133333Y-99309523D01*
X350133333Y-99261904D01*
X350180952Y-99166666D01*
X350276190Y-99119047D01*
X350419047Y-99119047D01*
X350514285Y-99071428D01*
X350561904Y-98976190D01*
X350561904Y-98928571D01*
X350514285Y-98833333D01*
X350419047Y-98785714D01*
X350276190Y-98785714D01*
X350180952Y-98833333D01*
X349704761Y-99357142D02*
X349657142Y-99404761D01*
X349704761Y-99452380D01*
X349752380Y-99404761D01*
X349704761Y-99357142D01*
X349704761Y-99452380D01*
X349704761Y-98833333D02*
X349657142Y-98880952D01*
X349704761Y-98928571D01*
X349752380Y-98880952D01*
X349704761Y-98833333D01*
X349704761Y-98928571D01*
X348514285Y-98404761D02*
X349371428Y-99690476D01*
X347466666Y-98404761D02*
X348323809Y-99690476D01*
X346704761Y-98785714D02*
X346704761Y-99595238D01*
X346752380Y-99690476D01*
X346800000Y-99738095D01*
X346895238Y-99785714D01*
X347038095Y-99785714D01*
X347133333Y-99738095D01*
X346704761Y-99404761D02*
X346800000Y-99452380D01*
X346990476Y-99452380D01*
X347085714Y-99404761D01*
X347133333Y-99357142D01*
X347180952Y-99261904D01*
X347180952Y-98976190D01*
X347133333Y-98880952D01*
X347085714Y-98833333D01*
X346990476Y-98785714D01*
X346800000Y-98785714D01*
X346704761Y-98833333D01*
X346228571Y-99452380D02*
X346228571Y-98785714D01*
X346228571Y-98452380D02*
X346276190Y-98500000D01*
X346228571Y-98547619D01*
X346180952Y-98500000D01*
X346228571Y-98452380D01*
X346228571Y-98547619D01*
X345895238Y-98785714D02*
X345514285Y-98785714D01*
X345752380Y-98452380D02*
X345752380Y-99309523D01*
X345704761Y-99404761D01*
X345609523Y-99452380D01*
X345514285Y-99452380D01*
X345180952Y-99452380D02*
X345180952Y-98452380D01*
X344752380Y-99452380D02*
X344752380Y-98928571D01*
X344800000Y-98833333D01*
X344895238Y-98785714D01*
X345038095Y-98785714D01*
X345133333Y-98833333D01*
X345180952Y-98880952D01*
X343847619Y-98785714D02*
X343847619Y-99452380D01*
X344276190Y-98785714D02*
X344276190Y-99309523D01*
X344228571Y-99404761D01*
X344133333Y-99452380D01*
X343990476Y-99452380D01*
X343895238Y-99404761D01*
X343847619Y-99357142D01*
X343371428Y-99452380D02*
X343371428Y-98452380D01*
X343371428Y-98833333D02*
X343276190Y-98785714D01*
X343085714Y-98785714D01*
X342990476Y-98833333D01*
X342942857Y-98880952D01*
X342895238Y-98976190D01*
X342895238Y-99261904D01*
X342942857Y-99357142D01*
X342990476Y-99404761D01*
X343085714Y-99452380D01*
X343276190Y-99452380D01*
X343371428Y-99404761D01*
X342466666Y-99357142D02*
X342419047Y-99404761D01*
X342466666Y-99452380D01*
X342514285Y-99404761D01*
X342466666Y-99357142D01*
X342466666Y-99452380D01*
X341561904Y-99404761D02*
X341657142Y-99452380D01*
X341847619Y-99452380D01*
X341942857Y-99404761D01*
X341990476Y-99357142D01*
X342038095Y-99261904D01*
X342038095Y-98976190D01*
X341990476Y-98880952D01*
X341942857Y-98833333D01*
X341847619Y-98785714D01*
X341657142Y-98785714D01*
X341561904Y-98833333D01*
X340990476Y-99452380D02*
X341085714Y-99404761D01*
X341133333Y-99357142D01*
X341180952Y-99261904D01*
X341180952Y-98976190D01*
X341133333Y-98880952D01*
X341085714Y-98833333D01*
X340990476Y-98785714D01*
X340847619Y-98785714D01*
X340752380Y-98833333D01*
X340704761Y-98880952D01*
X340657142Y-98976190D01*
X340657142Y-99261904D01*
X340704761Y-99357142D01*
X340752380Y-99404761D01*
X340847619Y-99452380D01*
X340990476Y-99452380D01*
X340228571Y-99452380D02*
X340228571Y-98785714D01*
X340228571Y-98880952D02*
X340180952Y-98833333D01*
X340085714Y-98785714D01*
X339942857Y-98785714D01*
X339847619Y-98833333D01*
X339800000Y-98928571D01*
X339800000Y-99452380D01*
X339800000Y-98928571D02*
X339752380Y-98833333D01*
X339657142Y-98785714D01*
X339514285Y-98785714D01*
X339419047Y-98833333D01*
X339371428Y-98928571D01*
X339371428Y-99452380D01*
X338180952Y-98404761D02*
X339038095Y-99690476D01*
X337847619Y-98928571D02*
X337514285Y-98928571D01*
X337371428Y-99452380D02*
X337847619Y-99452380D01*
X337847619Y-98452380D01*
X337371428Y-98452380D01*
X336942857Y-98785714D02*
X336942857Y-99452380D01*
X336942857Y-98880952D02*
X336895238Y-98833333D01*
X336800000Y-98785714D01*
X336657142Y-98785714D01*
X336561904Y-98833333D01*
X336514285Y-98928571D01*
X336514285Y-99452380D01*
X336133333Y-98785714D02*
X335895238Y-99452380D01*
X335657142Y-98785714D01*
X335276190Y-99452380D02*
X335276190Y-98785714D01*
X335276190Y-98452380D02*
X335323809Y-98500000D01*
X335276190Y-98547619D01*
X335228571Y-98500000D01*
X335276190Y-98452380D01*
X335276190Y-98547619D01*
X334657142Y-99452380D02*
X334752380Y-99404761D01*
X334800000Y-99357142D01*
X334847619Y-99261904D01*
X334847619Y-98976190D01*
X334800000Y-98880952D01*
X334752380Y-98833333D01*
X334657142Y-98785714D01*
X334514285Y-98785714D01*
X334419047Y-98833333D01*
X334371428Y-98880952D01*
X334323809Y-98976190D01*
X334323809Y-99261904D01*
X334371428Y-99357142D01*
X334419047Y-99404761D01*
X334514285Y-99452380D01*
X334657142Y-99452380D01*
X333466666Y-98785714D02*
X333466666Y-99452380D01*
X333895238Y-98785714D02*
X333895238Y-99309523D01*
X333847619Y-99404761D01*
X333752380Y-99452380D01*
X333609523Y-99452380D01*
X333514285Y-99404761D01*
X333466666Y-99357142D01*
X333038095Y-99404761D02*
X332942857Y-99452380D01*
X332752380Y-99452380D01*
X332657142Y-99404761D01*
X332609523Y-99309523D01*
X332609523Y-99261904D01*
X332657142Y-99166666D01*
X332752380Y-99119047D01*
X332895238Y-99119047D01*
X332990476Y-99071428D01*
X333038095Y-98976190D01*
X333038095Y-98928571D01*
X332990476Y-98833333D01*
X332895238Y-98785714D01*
X332752380Y-98785714D01*
X332657142Y-98833333D01*
X332180952Y-99071428D02*
X331419047Y-99071428D01*
X330942857Y-99452380D02*
X330942857Y-98452380D01*
X330704761Y-98452380D01*
X330561904Y-98500000D01*
X330466666Y-98595238D01*
X330419047Y-98690476D01*
X330371428Y-98880952D01*
X330371428Y-99023809D01*
X330419047Y-99214285D01*
X330466666Y-99309523D01*
X330561904Y-99404761D01*
X330704761Y-99452380D01*
X330942857Y-99452380D01*
X329514285Y-99452380D02*
X329514285Y-98928571D01*
X329561904Y-98833333D01*
X329657142Y-98785714D01*
X329847619Y-98785714D01*
X329942857Y-98833333D01*
X329514285Y-99404761D02*
X329609523Y-99452380D01*
X329847619Y-99452380D01*
X329942857Y-99404761D01*
X329990476Y-99309523D01*
X329990476Y-99214285D01*
X329942857Y-99119047D01*
X329847619Y-99071428D01*
X329609523Y-99071428D01*
X329514285Y-99023809D01*
X329180952Y-98785714D02*
X328800000Y-98785714D01*
X329038095Y-98452380D02*
X329038095Y-99309523D01*
X328990476Y-99404761D01*
X328895238Y-99452380D01*
X328800000Y-99452380D01*
X328038095Y-99452380D02*
X328038095Y-98928571D01*
X328085714Y-98833333D01*
X328180952Y-98785714D01*
X328371428Y-98785714D01*
X328466666Y-98833333D01*
X328038095Y-99404761D02*
X328133333Y-99452380D01*
X328371428Y-99452380D01*
X328466666Y-99404761D01*
X328514285Y-99309523D01*
X328514285Y-99214285D01*
X328466666Y-99119047D01*
X328371428Y-99071428D01*
X328133333Y-99071428D01*
X328038095Y-99023809D01*
X326847619Y-98404761D02*
X327704761Y-99690476D01*
X326514285Y-98928571D02*
X326180952Y-98928571D01*
X326038095Y-99452380D02*
X326514285Y-99452380D01*
X326514285Y-98452380D01*
X326038095Y-98452380D01*
X325609523Y-98785714D02*
X325609523Y-99452380D01*
X325609523Y-98880952D02*
X325561904Y-98833333D01*
X325466666Y-98785714D01*
X325323809Y-98785714D01*
X325228571Y-98833333D01*
X325180952Y-98928571D01*
X325180952Y-99452380D01*
X324800000Y-98785714D02*
X324561904Y-99452380D01*
X324323809Y-98785714D01*
X323942857Y-99071428D02*
X323180952Y-99071428D01*
X322704761Y-99452380D02*
X322704761Y-98452380D01*
X322133333Y-99452380D02*
X322561904Y-98880952D01*
X322133333Y-98452380D02*
X322704761Y-99023809D01*
X321371428Y-98928571D02*
X321228571Y-98976190D01*
X321180952Y-99023809D01*
X321133333Y-99119047D01*
X321133333Y-99261904D01*
X321180952Y-99357142D01*
X321228571Y-99404761D01*
X321323809Y-99452380D01*
X321704761Y-99452380D01*
X321704761Y-98452380D01*
X321371428Y-98452380D01*
X321276190Y-98500000D01*
X321228571Y-98547619D01*
X321180952Y-98642857D01*
X321180952Y-98738095D01*
X321228571Y-98833333D01*
X321276190Y-98880952D01*
X321371428Y-98928571D01*
X321704761Y-98928571D01*
X320276190Y-98452380D02*
X320466666Y-98452380D01*
X320561904Y-98500000D01*
X320609523Y-98547619D01*
X320704761Y-98690476D01*
X320752380Y-98880952D01*
X320752380Y-99261904D01*
X320704761Y-99357142D01*
X320657142Y-99404761D01*
X320561904Y-99452380D01*
X320371428Y-99452380D01*
X320276190Y-99404761D01*
X320228571Y-99357142D01*
X320180952Y-99261904D01*
X320180952Y-99023809D01*
X320228571Y-98928571D01*
X320276190Y-98880952D01*
X320371428Y-98833333D01*
X320561904Y-98833333D01*
X320657142Y-98880952D01*
X320704761Y-98928571D01*
X320752380Y-99023809D01*
X319276190Y-98452380D02*
X319752380Y-98452380D01*
X319800000Y-98928571D01*
X319752380Y-98880952D01*
X319657142Y-98833333D01*
X319419047Y-98833333D01*
X319323809Y-98880952D01*
X319276190Y-98928571D01*
X319228571Y-99023809D01*
X319228571Y-99261904D01*
X319276190Y-99357142D01*
X319323809Y-99404761D01*
X319419047Y-99452380D01*
X319657142Y-99452380D01*
X319752380Y-99404761D01*
X319800000Y-99357142D01*
X318800000Y-99452380D02*
X318800000Y-98452380D01*
X318466666Y-99166666D01*
X318133333Y-98452380D01*
X318133333Y-99452380D01*
D11*
X369600000Y-192109120D02*
X367900000Y-192109120D01*
X367900000Y-192109120D02*
X367900000Y-188959120D01*
X369600000Y-192109120D02*
X369600000Y-188959120D01*
X367184200Y-192109120D02*
X365484200Y-192109120D01*
X365484200Y-192109120D02*
X365484200Y-188959120D01*
X367184200Y-192109120D02*
X367184200Y-188959120D01*
X348134200Y-192109120D02*
X346434200Y-192109120D01*
X346434200Y-192109120D02*
X346434200Y-188959120D01*
X348134200Y-192109120D02*
X348134200Y-188959120D01*
X329084200Y-192109120D02*
X327384200Y-192109120D01*
X327384200Y-192109120D02*
X327384200Y-188959120D01*
X329084200Y-192109120D02*
X329084200Y-188959120D01*
X310034200Y-192109120D02*
X308334200Y-192109120D01*
X308334200Y-192109120D02*
X308334200Y-188959120D01*
X310034200Y-192109120D02*
X310034200Y-188959120D01*
X290984200Y-192109120D02*
X289284200Y-192109120D01*
X289284200Y-192109120D02*
X289284200Y-188959120D01*
X290984200Y-192109120D02*
X290984200Y-188959120D01*
X271934200Y-192109120D02*
X270234200Y-192109120D01*
X270234200Y-192109120D02*
X270234200Y-188959120D01*
X271934200Y-192109120D02*
X271934200Y-188959120D01*
X252884200Y-192109120D02*
X251184200Y-192109120D01*
X251184200Y-192109120D02*
X251184200Y-188959120D01*
X252884200Y-192109120D02*
X252884200Y-188959120D01*
X210021700Y-192109120D02*
X208321700Y-192109120D01*
X208321700Y-192109120D02*
X208321700Y-188959120D01*
X210021700Y-192109120D02*
X210021700Y-188959120D01*
X176684200Y-192109120D02*
X174984200Y-192109120D01*
X174984200Y-192109120D02*
X174984200Y-188959120D01*
X176684200Y-192109120D02*
X176684200Y-188959120D01*
X133821700Y-192109120D02*
X132121700Y-192109120D01*
X132121700Y-192109120D02*
X132121700Y-188959120D01*
X133821700Y-192109120D02*
X133821700Y-188959120D01*
X110009200Y-192109120D02*
X108309200Y-192109120D01*
X108309200Y-192109120D02*
X108309200Y-188959120D01*
X110009200Y-192109120D02*
X110009200Y-188959120D01*
X86196700Y-192109120D02*
X84496700Y-192109120D01*
X84496700Y-192109120D02*
X84496700Y-188959120D01*
X86196700Y-192109120D02*
X86196700Y-188959120D01*
X370100000Y-177584120D02*
X368400000Y-177584120D01*
X368400000Y-177584120D02*
X368400000Y-174434120D01*
X370100000Y-177584120D02*
X370100000Y-174434120D01*
X367334200Y-177584120D02*
X365634200Y-177584120D01*
X365634200Y-177584120D02*
X365634200Y-174434120D01*
X367334200Y-177584120D02*
X367334200Y-174434120D01*
X348284200Y-177584120D02*
X346584200Y-177584120D01*
X346584200Y-177584120D02*
X346584200Y-174434120D01*
X348284200Y-177584120D02*
X348284200Y-174434120D01*
X322634200Y-177584120D02*
X320934200Y-177584120D01*
X320934200Y-177584120D02*
X320934200Y-174434120D01*
X322634200Y-177584120D02*
X322634200Y-174434120D01*
X295896700Y-177584120D02*
X294196700Y-177584120D01*
X294196700Y-177584120D02*
X294196700Y-174434120D01*
X295896700Y-177584120D02*
X295896700Y-174434120D01*
X276846700Y-177584120D02*
X275146700Y-177584120D01*
X275146700Y-177584120D02*
X275146700Y-174434120D01*
X276846700Y-177584120D02*
X276846700Y-174434120D01*
X257796700Y-177584120D02*
X256096700Y-177584120D01*
X256096700Y-177584120D02*
X256096700Y-174434120D01*
X257796700Y-177584120D02*
X257796700Y-174434120D01*
X238746700Y-177584120D02*
X237046700Y-177584120D01*
X237046700Y-177584120D02*
X237046700Y-174434120D01*
X238746700Y-177584120D02*
X238746700Y-174434120D01*
X219696700Y-176450000D02*
X217996700Y-176450000D01*
X217996700Y-176450000D02*
X217996700Y-173300000D01*
X219696700Y-176450000D02*
X219696700Y-173300000D01*
X200646700Y-177584120D02*
X198946700Y-177584120D01*
X198946700Y-177584120D02*
X198946700Y-174434120D01*
X200646700Y-177584120D02*
X200646700Y-174434120D01*
X181596700Y-177584120D02*
X179896700Y-177584120D01*
X179896700Y-177584120D02*
X179896700Y-174434120D01*
X181596700Y-177584120D02*
X181596700Y-174434120D01*
X162546700Y-177584120D02*
X160846700Y-177584120D01*
X160846700Y-177584120D02*
X160846700Y-174434120D01*
X162546700Y-177584120D02*
X162546700Y-174434120D01*
X143496700Y-176675000D02*
X141796700Y-176675000D01*
X141796700Y-176675000D02*
X141796700Y-173525000D01*
X143496700Y-176675000D02*
X143496700Y-173525000D01*
X124446700Y-177584120D02*
X122746700Y-177584120D01*
X122746700Y-177584120D02*
X122746700Y-174434120D01*
X124446700Y-177584120D02*
X124446700Y-174434120D01*
X105396700Y-177584120D02*
X103696700Y-177584120D01*
X103696700Y-177584120D02*
X103696700Y-174434120D01*
X105396700Y-177584120D02*
X105396700Y-174434120D01*
X86346700Y-177584120D02*
X84646700Y-177584120D01*
X84646700Y-177584120D02*
X84646700Y-174434120D01*
X86346700Y-177584120D02*
X86346700Y-174434120D01*
X324621700Y-158509120D02*
X322921700Y-158509120D01*
X322921700Y-158509120D02*
X322921700Y-155359120D01*
X324621700Y-158509120D02*
X324621700Y-155359120D01*
X305571700Y-158509120D02*
X303871700Y-158509120D01*
X303871700Y-158509120D02*
X303871700Y-155359120D01*
X305571700Y-158509120D02*
X305571700Y-155359120D01*
X286521700Y-158509120D02*
X284821700Y-158509120D01*
X284821700Y-158509120D02*
X284821700Y-155359120D01*
X286521700Y-158509120D02*
X286521700Y-155359120D01*
X267471700Y-158509120D02*
X265771700Y-158509120D01*
X265771700Y-158509120D02*
X265771700Y-155359120D01*
X267471700Y-158509120D02*
X267471700Y-155359120D01*
X248421700Y-158509120D02*
X246721700Y-158509120D01*
X246721700Y-158509120D02*
X246721700Y-155359120D01*
X248421700Y-158509120D02*
X248421700Y-155359120D01*
X229371700Y-158509120D02*
X227671700Y-158509120D01*
X227671700Y-158509120D02*
X227671700Y-155359120D01*
X229371700Y-158509120D02*
X229371700Y-155359120D01*
X210321700Y-158509120D02*
X208621700Y-158509120D01*
X208621700Y-158509120D02*
X208621700Y-155359120D01*
X210321700Y-158509120D02*
X210321700Y-155359120D01*
X191271700Y-158509120D02*
X189571700Y-158509120D01*
X189571700Y-158509120D02*
X189571700Y-155359120D01*
X191271700Y-158509120D02*
X191271700Y-155359120D01*
X172221700Y-158509120D02*
X170521700Y-158509120D01*
X170521700Y-158509120D02*
X170521700Y-155359120D01*
X172221700Y-158509120D02*
X172221700Y-155359120D01*
X153171700Y-158509120D02*
X151471700Y-158509120D01*
X151471700Y-158509120D02*
X151471700Y-155359120D01*
X153171700Y-158509120D02*
X153171700Y-155359120D01*
X134121700Y-158509120D02*
X132421700Y-158509120D01*
X132421700Y-158509120D02*
X132421700Y-155359120D01*
X134121700Y-158509120D02*
X134121700Y-155359120D01*
X115071700Y-158509120D02*
X113371700Y-158509120D01*
X113371700Y-158509120D02*
X113371700Y-155359120D01*
X115071700Y-158509120D02*
X115071700Y-155359120D01*
X86496700Y-158509120D02*
X84796700Y-158509120D01*
X84796700Y-158509120D02*
X84796700Y-155359120D01*
X86496700Y-158509120D02*
X86496700Y-155359120D01*
X348084200Y-158484120D02*
X346384200Y-158484120D01*
X346384200Y-158484120D02*
X346384200Y-155334120D01*
X348084200Y-158484120D02*
X348084200Y-155334120D01*
X319809200Y-139534120D02*
X318109200Y-139534120D01*
X318109200Y-139534120D02*
X318109200Y-136384120D01*
X319809200Y-139534120D02*
X319809200Y-136384120D01*
X300759200Y-139534120D02*
X299059200Y-139534120D01*
X299059200Y-139534120D02*
X299059200Y-136384120D01*
X300759200Y-139534120D02*
X300759200Y-136384120D01*
X281709200Y-139534120D02*
X280009200Y-139534120D01*
X280009200Y-139534120D02*
X280009200Y-136384120D01*
X281709200Y-139534120D02*
X281709200Y-136384120D01*
X262659200Y-139534120D02*
X260959200Y-139534120D01*
X260959200Y-139534120D02*
X260959200Y-136384120D01*
X262659200Y-139534120D02*
X262659200Y-136384120D01*
X243609200Y-139534120D02*
X241909200Y-139534120D01*
X241909200Y-139534120D02*
X241909200Y-136384120D01*
X243609200Y-139534120D02*
X243609200Y-136384120D01*
X224559200Y-139534120D02*
X222859200Y-139534120D01*
X222859200Y-139534120D02*
X222859200Y-136384120D01*
X224559200Y-139534120D02*
X224559200Y-136384120D01*
X205509200Y-139534120D02*
X203809200Y-139534120D01*
X203809200Y-139534120D02*
X203809200Y-136384120D01*
X205509200Y-139534120D02*
X205509200Y-136384120D01*
X186459200Y-139534120D02*
X184759200Y-139534120D01*
X184759200Y-139534120D02*
X184759200Y-136384120D01*
X186459200Y-139534120D02*
X186459200Y-136384120D01*
X167409200Y-139534120D02*
X165709200Y-139534120D01*
X165709200Y-139534120D02*
X165709200Y-136384120D01*
X167409200Y-139534120D02*
X167409200Y-136384120D01*
X148359200Y-139534120D02*
X146659200Y-139534120D01*
X146659200Y-139534120D02*
X146659200Y-136384120D01*
X148359200Y-139534120D02*
X148359200Y-136384120D01*
X129309200Y-139534120D02*
X127609200Y-139534120D01*
X127609200Y-139534120D02*
X127609200Y-136384120D01*
X129309200Y-139534120D02*
X129309200Y-136384120D01*
X110259200Y-139534120D02*
X108559200Y-139534120D01*
X108559200Y-139534120D02*
X108559200Y-136384120D01*
X110259200Y-139534120D02*
X110259200Y-136384120D01*
X91209200Y-139534120D02*
X89509200Y-139534120D01*
X89509200Y-139534120D02*
X89509200Y-136384120D01*
X91209200Y-139534120D02*
X91209200Y-136384120D01*
X348234200Y-120434120D02*
X346534200Y-120434120D01*
X346534200Y-120434120D02*
X346534200Y-117284120D01*
X348234200Y-120434120D02*
X348234200Y-117284120D01*
X310134200Y-120434120D02*
X308434200Y-120434120D01*
X308434200Y-120434120D02*
X308434200Y-117284120D01*
X310134200Y-120434120D02*
X310134200Y-117284120D01*
X291084200Y-120434120D02*
X289384200Y-120434120D01*
X289384200Y-120434120D02*
X289384200Y-117284120D01*
X291084200Y-120434120D02*
X291084200Y-117284120D01*
X272034200Y-120434120D02*
X270334200Y-120434120D01*
X270334200Y-120434120D02*
X270334200Y-117284120D01*
X272034200Y-120434120D02*
X272034200Y-117284120D01*
X252984200Y-120434120D02*
X251284200Y-120434120D01*
X251284200Y-120434120D02*
X251284200Y-117284120D01*
X252984200Y-120434120D02*
X252984200Y-117284120D01*
X233934200Y-120434120D02*
X232234200Y-120434120D01*
X232234200Y-120434120D02*
X232234200Y-117284120D01*
X233934200Y-120434120D02*
X233934200Y-117284120D01*
X214884200Y-120434120D02*
X213184200Y-120434120D01*
X213184200Y-120434120D02*
X213184200Y-117284120D01*
X214884200Y-120434120D02*
X214884200Y-117284120D01*
X195834200Y-120434120D02*
X194134200Y-120434120D01*
X194134200Y-120434120D02*
X194134200Y-117284120D01*
X195834200Y-120434120D02*
X195834200Y-117284120D01*
X176784200Y-120434120D02*
X175084200Y-120434120D01*
X175084200Y-120434120D02*
X175084200Y-117284120D01*
X176784200Y-120434120D02*
X176784200Y-117284120D01*
X157734200Y-120434120D02*
X156034200Y-120434120D01*
X156034200Y-120434120D02*
X156034200Y-117284120D01*
X157734200Y-120434120D02*
X157734200Y-117284120D01*
X138684200Y-120434120D02*
X136984200Y-120434120D01*
X136984200Y-120434120D02*
X136984200Y-117284120D01*
X138684200Y-120434120D02*
X138684200Y-117284120D01*
X119634200Y-120434120D02*
X117934200Y-120434120D01*
X117934200Y-120434120D02*
X117934200Y-117284120D01*
X119634200Y-120434120D02*
X119634200Y-117284120D01*
X100584200Y-120434120D02*
X98884200Y-120434120D01*
X98884200Y-120434120D02*
X98884200Y-117284120D01*
X100584200Y-120434120D02*
X100584200Y-117284120D01*
X81534200Y-120434120D02*
X79834200Y-120434120D01*
X79834200Y-120434120D02*
X79834200Y-117284120D01*
X81534200Y-120434120D02*
X81534200Y-117284120D01*
D10*
X371052380Y-188613881D02*
X370052380Y-188613881D01*
X370052380Y-188851977D01*
X370100000Y-188994834D01*
X370195238Y-189090072D01*
X370290476Y-189137691D01*
X370480952Y-189185310D01*
X370623809Y-189185310D01*
X370814285Y-189137691D01*
X370909523Y-189090072D01*
X371004761Y-188994834D01*
X371052380Y-188851977D01*
X371052380Y-188613881D01*
X371147619Y-189375786D02*
X371147619Y-190137691D01*
X370052380Y-190280548D02*
X370052380Y-190947215D01*
X371052380Y-190518643D01*
X370052380Y-191804358D02*
X370052380Y-191328167D01*
X370528571Y-191280548D01*
X370480952Y-191328167D01*
X370433333Y-191423405D01*
X370433333Y-191661500D01*
X370480952Y-191756739D01*
X370528571Y-191804358D01*
X370623809Y-191851977D01*
X370861904Y-191851977D01*
X370957142Y-191804358D01*
X371004761Y-191756739D01*
X371052380Y-191661500D01*
X371052380Y-191423405D01*
X371004761Y-191328167D01*
X370957142Y-191280548D01*
X368636580Y-188613881D02*
X367636580Y-188613881D01*
X367636580Y-188851977D01*
X367684200Y-188994834D01*
X367779438Y-189090072D01*
X367874676Y-189137691D01*
X368065152Y-189185310D01*
X368208009Y-189185310D01*
X368398485Y-189137691D01*
X368493723Y-189090072D01*
X368588961Y-188994834D01*
X368636580Y-188851977D01*
X368636580Y-188613881D01*
X368731819Y-189375786D02*
X368731819Y-190137691D01*
X367636580Y-190280548D02*
X367636580Y-190947215D01*
X368636580Y-190518643D01*
X367969914Y-191756739D02*
X368636580Y-191756739D01*
X367588961Y-191518643D02*
X368303247Y-191280548D01*
X368303247Y-191899596D01*
X349586580Y-188613881D02*
X348586580Y-188613881D01*
X348586580Y-188851977D01*
X348634200Y-188994834D01*
X348729438Y-189090072D01*
X348824676Y-189137691D01*
X349015152Y-189185310D01*
X349158009Y-189185310D01*
X349348485Y-189137691D01*
X349443723Y-189090072D01*
X349538961Y-188994834D01*
X349586580Y-188851977D01*
X349586580Y-188613881D01*
X349681819Y-189375786D02*
X349681819Y-190137691D01*
X348586580Y-190280548D02*
X348586580Y-190947215D01*
X349586580Y-190518643D01*
X348586580Y-191232929D02*
X348586580Y-191851977D01*
X348967533Y-191518643D01*
X348967533Y-191661500D01*
X349015152Y-191756739D01*
X349062771Y-191804358D01*
X349158009Y-191851977D01*
X349396104Y-191851977D01*
X349491342Y-191804358D01*
X349538961Y-191756739D01*
X349586580Y-191661500D01*
X349586580Y-191375786D01*
X349538961Y-191280548D01*
X349491342Y-191232929D01*
X330536580Y-188613881D02*
X329536580Y-188613881D01*
X329536580Y-188851977D01*
X329584200Y-188994834D01*
X329679438Y-189090072D01*
X329774676Y-189137691D01*
X329965152Y-189185310D01*
X330108009Y-189185310D01*
X330298485Y-189137691D01*
X330393723Y-189090072D01*
X330488961Y-188994834D01*
X330536580Y-188851977D01*
X330536580Y-188613881D01*
X330631819Y-189375786D02*
X330631819Y-190137691D01*
X329536580Y-190280548D02*
X329536580Y-190947215D01*
X330536580Y-190518643D01*
X329631819Y-191280548D02*
X329584200Y-191328167D01*
X329536580Y-191423405D01*
X329536580Y-191661500D01*
X329584200Y-191756739D01*
X329631819Y-191804358D01*
X329727057Y-191851977D01*
X329822295Y-191851977D01*
X329965152Y-191804358D01*
X330536580Y-191232929D01*
X330536580Y-191851977D01*
X311486580Y-188613881D02*
X310486580Y-188613881D01*
X310486580Y-188851977D01*
X310534200Y-188994834D01*
X310629438Y-189090072D01*
X310724676Y-189137691D01*
X310915152Y-189185310D01*
X311058009Y-189185310D01*
X311248485Y-189137691D01*
X311343723Y-189090072D01*
X311438961Y-188994834D01*
X311486580Y-188851977D01*
X311486580Y-188613881D01*
X311581819Y-189375786D02*
X311581819Y-190137691D01*
X310486580Y-190280548D02*
X310486580Y-190947215D01*
X311486580Y-190518643D01*
X311486580Y-191851977D02*
X311486580Y-191280548D01*
X311486580Y-191566262D02*
X310486580Y-191566262D01*
X310629438Y-191471024D01*
X310724676Y-191375786D01*
X310772295Y-191280548D01*
X292436580Y-188613881D02*
X291436580Y-188613881D01*
X291436580Y-188851977D01*
X291484200Y-188994834D01*
X291579438Y-189090072D01*
X291674676Y-189137691D01*
X291865152Y-189185310D01*
X292008009Y-189185310D01*
X292198485Y-189137691D01*
X292293723Y-189090072D01*
X292388961Y-188994834D01*
X292436580Y-188851977D01*
X292436580Y-188613881D01*
X292531819Y-189375786D02*
X292531819Y-190137691D01*
X291436580Y-190280548D02*
X291436580Y-190947215D01*
X292436580Y-190518643D01*
X291436580Y-191518643D02*
X291436580Y-191613881D01*
X291484200Y-191709120D01*
X291531819Y-191756739D01*
X291627057Y-191804358D01*
X291817533Y-191851977D01*
X292055628Y-191851977D01*
X292246104Y-191804358D01*
X292341342Y-191756739D01*
X292388961Y-191709120D01*
X292436580Y-191613881D01*
X292436580Y-191518643D01*
X292388961Y-191423405D01*
X292341342Y-191375786D01*
X292246104Y-191328167D01*
X292055628Y-191280548D01*
X291817533Y-191280548D01*
X291627057Y-191328167D01*
X291531819Y-191375786D01*
X291484200Y-191423405D01*
X291436580Y-191518643D01*
X273386580Y-188613881D02*
X272386580Y-188613881D01*
X272386580Y-188851977D01*
X272434200Y-188994834D01*
X272529438Y-189090072D01*
X272624676Y-189137691D01*
X272815152Y-189185310D01*
X272958009Y-189185310D01*
X273148485Y-189137691D01*
X273243723Y-189090072D01*
X273338961Y-188994834D01*
X273386580Y-188851977D01*
X273386580Y-188613881D01*
X273481819Y-189375786D02*
X273481819Y-190137691D01*
X272386580Y-190804358D02*
X272386580Y-190613881D01*
X272434200Y-190518643D01*
X272481819Y-190471024D01*
X272624676Y-190375786D01*
X272815152Y-190328167D01*
X273196104Y-190328167D01*
X273291342Y-190375786D01*
X273338961Y-190423405D01*
X273386580Y-190518643D01*
X273386580Y-190709120D01*
X273338961Y-190804358D01*
X273291342Y-190851977D01*
X273196104Y-190899596D01*
X272958009Y-190899596D01*
X272862771Y-190851977D01*
X272815152Y-190804358D01*
X272767533Y-190709120D01*
X272767533Y-190518643D01*
X272815152Y-190423405D01*
X272862771Y-190375786D01*
X272958009Y-190328167D01*
X273386580Y-191375786D02*
X273386580Y-191566262D01*
X273338961Y-191661500D01*
X273291342Y-191709120D01*
X273148485Y-191804358D01*
X272958009Y-191851977D01*
X272577057Y-191851977D01*
X272481819Y-191804358D01*
X272434200Y-191756739D01*
X272386580Y-191661500D01*
X272386580Y-191471024D01*
X272434200Y-191375786D01*
X272481819Y-191328167D01*
X272577057Y-191280548D01*
X272815152Y-191280548D01*
X272910390Y-191328167D01*
X272958009Y-191375786D01*
X273005628Y-191471024D01*
X273005628Y-191661500D01*
X272958009Y-191756739D01*
X272910390Y-191804358D01*
X272815152Y-191851977D01*
X254336580Y-188613881D02*
X253336580Y-188613881D01*
X253336580Y-188851977D01*
X253384200Y-188994834D01*
X253479438Y-189090072D01*
X253574676Y-189137691D01*
X253765152Y-189185310D01*
X253908009Y-189185310D01*
X254098485Y-189137691D01*
X254193723Y-189090072D01*
X254288961Y-188994834D01*
X254336580Y-188851977D01*
X254336580Y-188613881D01*
X254431819Y-189375786D02*
X254431819Y-190137691D01*
X253336580Y-190804358D02*
X253336580Y-190613881D01*
X253384200Y-190518643D01*
X253431819Y-190471024D01*
X253574676Y-190375786D01*
X253765152Y-190328167D01*
X254146104Y-190328167D01*
X254241342Y-190375786D01*
X254288961Y-190423405D01*
X254336580Y-190518643D01*
X254336580Y-190709120D01*
X254288961Y-190804358D01*
X254241342Y-190851977D01*
X254146104Y-190899596D01*
X253908009Y-190899596D01*
X253812771Y-190851977D01*
X253765152Y-190804358D01*
X253717533Y-190709120D01*
X253717533Y-190518643D01*
X253765152Y-190423405D01*
X253812771Y-190375786D01*
X253908009Y-190328167D01*
X253765152Y-191471024D02*
X253717533Y-191375786D01*
X253669914Y-191328167D01*
X253574676Y-191280548D01*
X253527057Y-191280548D01*
X253431819Y-191328167D01*
X253384200Y-191375786D01*
X253336580Y-191471024D01*
X253336580Y-191661500D01*
X253384200Y-191756739D01*
X253431819Y-191804358D01*
X253527057Y-191851977D01*
X253574676Y-191851977D01*
X253669914Y-191804358D01*
X253717533Y-191756739D01*
X253765152Y-191661500D01*
X253765152Y-191471024D01*
X253812771Y-191375786D01*
X253860390Y-191328167D01*
X253955628Y-191280548D01*
X254146104Y-191280548D01*
X254241342Y-191328167D01*
X254288961Y-191375786D01*
X254336580Y-191471024D01*
X254336580Y-191661500D01*
X254288961Y-191756739D01*
X254241342Y-191804358D01*
X254146104Y-191851977D01*
X253955628Y-191851977D01*
X253860390Y-191804358D01*
X253812771Y-191756739D01*
X253765152Y-191661500D01*
X211474080Y-188613881D02*
X210474080Y-188613881D01*
X210474080Y-188851977D01*
X210521700Y-188994834D01*
X210616938Y-189090072D01*
X210712176Y-189137691D01*
X210902652Y-189185310D01*
X211045509Y-189185310D01*
X211235985Y-189137691D01*
X211331223Y-189090072D01*
X211426461Y-188994834D01*
X211474080Y-188851977D01*
X211474080Y-188613881D01*
X211569319Y-189375786D02*
X211569319Y-190137691D01*
X210474080Y-190804358D02*
X210474080Y-190613881D01*
X210521700Y-190518643D01*
X210569319Y-190471024D01*
X210712176Y-190375786D01*
X210902652Y-190328167D01*
X211283604Y-190328167D01*
X211378842Y-190375786D01*
X211426461Y-190423405D01*
X211474080Y-190518643D01*
X211474080Y-190709120D01*
X211426461Y-190804358D01*
X211378842Y-190851977D01*
X211283604Y-190899596D01*
X211045509Y-190899596D01*
X210950271Y-190851977D01*
X210902652Y-190804358D01*
X210855033Y-190709120D01*
X210855033Y-190518643D01*
X210902652Y-190423405D01*
X210950271Y-190375786D01*
X211045509Y-190328167D01*
X210474080Y-191232929D02*
X210474080Y-191899596D01*
X211474080Y-191471024D01*
X178136580Y-188613881D02*
X177136580Y-188613881D01*
X177136580Y-188851977D01*
X177184200Y-188994834D01*
X177279438Y-189090072D01*
X177374676Y-189137691D01*
X177565152Y-189185310D01*
X177708009Y-189185310D01*
X177898485Y-189137691D01*
X177993723Y-189090072D01*
X178088961Y-188994834D01*
X178136580Y-188851977D01*
X178136580Y-188613881D01*
X178231819Y-189375786D02*
X178231819Y-190137691D01*
X177136580Y-190804358D02*
X177136580Y-190613881D01*
X177184200Y-190518643D01*
X177231819Y-190471024D01*
X177374676Y-190375786D01*
X177565152Y-190328167D01*
X177946104Y-190328167D01*
X178041342Y-190375786D01*
X178088961Y-190423405D01*
X178136580Y-190518643D01*
X178136580Y-190709120D01*
X178088961Y-190804358D01*
X178041342Y-190851977D01*
X177946104Y-190899596D01*
X177708009Y-190899596D01*
X177612771Y-190851977D01*
X177565152Y-190804358D01*
X177517533Y-190709120D01*
X177517533Y-190518643D01*
X177565152Y-190423405D01*
X177612771Y-190375786D01*
X177708009Y-190328167D01*
X177136580Y-191756739D02*
X177136580Y-191566262D01*
X177184200Y-191471024D01*
X177231819Y-191423405D01*
X177374676Y-191328167D01*
X177565152Y-191280548D01*
X177946104Y-191280548D01*
X178041342Y-191328167D01*
X178088961Y-191375786D01*
X178136580Y-191471024D01*
X178136580Y-191661500D01*
X178088961Y-191756739D01*
X178041342Y-191804358D01*
X177946104Y-191851977D01*
X177708009Y-191851977D01*
X177612771Y-191804358D01*
X177565152Y-191756739D01*
X177517533Y-191661500D01*
X177517533Y-191471024D01*
X177565152Y-191375786D01*
X177612771Y-191328167D01*
X177708009Y-191280548D01*
X135274080Y-188613881D02*
X134274080Y-188613881D01*
X134274080Y-188851977D01*
X134321700Y-188994834D01*
X134416938Y-189090072D01*
X134512176Y-189137691D01*
X134702652Y-189185310D01*
X134845509Y-189185310D01*
X135035985Y-189137691D01*
X135131223Y-189090072D01*
X135226461Y-188994834D01*
X135274080Y-188851977D01*
X135274080Y-188613881D01*
X135369319Y-189375786D02*
X135369319Y-190137691D01*
X134274080Y-190804358D02*
X134274080Y-190613881D01*
X134321700Y-190518643D01*
X134369319Y-190471024D01*
X134512176Y-190375786D01*
X134702652Y-190328167D01*
X135083604Y-190328167D01*
X135178842Y-190375786D01*
X135226461Y-190423405D01*
X135274080Y-190518643D01*
X135274080Y-190709120D01*
X135226461Y-190804358D01*
X135178842Y-190851977D01*
X135083604Y-190899596D01*
X134845509Y-190899596D01*
X134750271Y-190851977D01*
X134702652Y-190804358D01*
X134655033Y-190709120D01*
X134655033Y-190518643D01*
X134702652Y-190423405D01*
X134750271Y-190375786D01*
X134845509Y-190328167D01*
X134274080Y-191804358D02*
X134274080Y-191328167D01*
X134750271Y-191280548D01*
X134702652Y-191328167D01*
X134655033Y-191423405D01*
X134655033Y-191661500D01*
X134702652Y-191756739D01*
X134750271Y-191804358D01*
X134845509Y-191851977D01*
X135083604Y-191851977D01*
X135178842Y-191804358D01*
X135226461Y-191756739D01*
X135274080Y-191661500D01*
X135274080Y-191423405D01*
X135226461Y-191328167D01*
X135178842Y-191280548D01*
X111461580Y-188613881D02*
X110461580Y-188613881D01*
X110461580Y-188851977D01*
X110509200Y-188994834D01*
X110604438Y-189090072D01*
X110699676Y-189137691D01*
X110890152Y-189185310D01*
X111033009Y-189185310D01*
X111223485Y-189137691D01*
X111318723Y-189090072D01*
X111413961Y-188994834D01*
X111461580Y-188851977D01*
X111461580Y-188613881D01*
X111556819Y-189375786D02*
X111556819Y-190137691D01*
X110461580Y-190804358D02*
X110461580Y-190613881D01*
X110509200Y-190518643D01*
X110556819Y-190471024D01*
X110699676Y-190375786D01*
X110890152Y-190328167D01*
X111271104Y-190328167D01*
X111366342Y-190375786D01*
X111413961Y-190423405D01*
X111461580Y-190518643D01*
X111461580Y-190709120D01*
X111413961Y-190804358D01*
X111366342Y-190851977D01*
X111271104Y-190899596D01*
X111033009Y-190899596D01*
X110937771Y-190851977D01*
X110890152Y-190804358D01*
X110842533Y-190709120D01*
X110842533Y-190518643D01*
X110890152Y-190423405D01*
X110937771Y-190375786D01*
X111033009Y-190328167D01*
X110794914Y-191756739D02*
X111461580Y-191756739D01*
X110413961Y-191518643D02*
X111128247Y-191280548D01*
X111128247Y-191899596D01*
X87649080Y-188613881D02*
X86649080Y-188613881D01*
X86649080Y-188851977D01*
X86696700Y-188994834D01*
X86791938Y-189090072D01*
X86887176Y-189137691D01*
X87077652Y-189185310D01*
X87220509Y-189185310D01*
X87410985Y-189137691D01*
X87506223Y-189090072D01*
X87601461Y-188994834D01*
X87649080Y-188851977D01*
X87649080Y-188613881D01*
X87744319Y-189375786D02*
X87744319Y-190137691D01*
X86649080Y-190804358D02*
X86649080Y-190613881D01*
X86696700Y-190518643D01*
X86744319Y-190471024D01*
X86887176Y-190375786D01*
X87077652Y-190328167D01*
X87458604Y-190328167D01*
X87553842Y-190375786D01*
X87601461Y-190423405D01*
X87649080Y-190518643D01*
X87649080Y-190709120D01*
X87601461Y-190804358D01*
X87553842Y-190851977D01*
X87458604Y-190899596D01*
X87220509Y-190899596D01*
X87125271Y-190851977D01*
X87077652Y-190804358D01*
X87030033Y-190709120D01*
X87030033Y-190518643D01*
X87077652Y-190423405D01*
X87125271Y-190375786D01*
X87220509Y-190328167D01*
X86649080Y-191232929D02*
X86649080Y-191851977D01*
X87030033Y-191518643D01*
X87030033Y-191661500D01*
X87077652Y-191756739D01*
X87125271Y-191804358D01*
X87220509Y-191851977D01*
X87458604Y-191851977D01*
X87553842Y-191804358D01*
X87601461Y-191756739D01*
X87649080Y-191661500D01*
X87649080Y-191375786D01*
X87601461Y-191280548D01*
X87553842Y-191232929D01*
X371552380Y-174088881D02*
X370552380Y-174088881D01*
X370552380Y-174326977D01*
X370600000Y-174469834D01*
X370695238Y-174565072D01*
X370790476Y-174612691D01*
X370980952Y-174660310D01*
X371123809Y-174660310D01*
X371314285Y-174612691D01*
X371409523Y-174565072D01*
X371504761Y-174469834D01*
X371552380Y-174326977D01*
X371552380Y-174088881D01*
X371647619Y-174850786D02*
X371647619Y-175612691D01*
X370552380Y-176279358D02*
X370552380Y-176088881D01*
X370600000Y-175993643D01*
X370647619Y-175946024D01*
X370790476Y-175850786D01*
X370980952Y-175803167D01*
X371361904Y-175803167D01*
X371457142Y-175850786D01*
X371504761Y-175898405D01*
X371552380Y-175993643D01*
X371552380Y-176184120D01*
X371504761Y-176279358D01*
X371457142Y-176326977D01*
X371361904Y-176374596D01*
X371123809Y-176374596D01*
X371028571Y-176326977D01*
X370980952Y-176279358D01*
X370933333Y-176184120D01*
X370933333Y-175993643D01*
X370980952Y-175898405D01*
X371028571Y-175850786D01*
X371123809Y-175803167D01*
X370647619Y-176755548D02*
X370600000Y-176803167D01*
X370552380Y-176898405D01*
X370552380Y-177136500D01*
X370600000Y-177231739D01*
X370647619Y-177279358D01*
X370742857Y-177326977D01*
X370838095Y-177326977D01*
X370980952Y-177279358D01*
X371552380Y-176707929D01*
X371552380Y-177326977D01*
X365202380Y-174088881D02*
X364202380Y-174088881D01*
X364202380Y-174326977D01*
X364250000Y-174469834D01*
X364345238Y-174565072D01*
X364440476Y-174612691D01*
X364630952Y-174660310D01*
X364773809Y-174660310D01*
X364964285Y-174612691D01*
X365059523Y-174565072D01*
X365154761Y-174469834D01*
X365202380Y-174326977D01*
X365202380Y-174088881D01*
X365297619Y-174850786D02*
X365297619Y-175612691D01*
X364202380Y-176279358D02*
X364202380Y-176088881D01*
X364250000Y-175993643D01*
X364297619Y-175946024D01*
X364440476Y-175850786D01*
X364630952Y-175803167D01*
X365011904Y-175803167D01*
X365107142Y-175850786D01*
X365154761Y-175898405D01*
X365202380Y-175993643D01*
X365202380Y-176184120D01*
X365154761Y-176279358D01*
X365107142Y-176326977D01*
X365011904Y-176374596D01*
X364773809Y-176374596D01*
X364678571Y-176326977D01*
X364630952Y-176279358D01*
X364583333Y-176184120D01*
X364583333Y-175993643D01*
X364630952Y-175898405D01*
X364678571Y-175850786D01*
X364773809Y-175803167D01*
X365202380Y-177326977D02*
X365202380Y-176755548D01*
X365202380Y-177041262D02*
X364202380Y-177041262D01*
X364345238Y-176946024D01*
X364440476Y-176850786D01*
X364488095Y-176755548D01*
X349736580Y-174088881D02*
X348736580Y-174088881D01*
X348736580Y-174326977D01*
X348784200Y-174469834D01*
X348879438Y-174565072D01*
X348974676Y-174612691D01*
X349165152Y-174660310D01*
X349308009Y-174660310D01*
X349498485Y-174612691D01*
X349593723Y-174565072D01*
X349688961Y-174469834D01*
X349736580Y-174326977D01*
X349736580Y-174088881D01*
X349831819Y-174850786D02*
X349831819Y-175612691D01*
X348736580Y-176279358D02*
X348736580Y-176088881D01*
X348784200Y-175993643D01*
X348831819Y-175946024D01*
X348974676Y-175850786D01*
X349165152Y-175803167D01*
X349546104Y-175803167D01*
X349641342Y-175850786D01*
X349688961Y-175898405D01*
X349736580Y-175993643D01*
X349736580Y-176184120D01*
X349688961Y-176279358D01*
X349641342Y-176326977D01*
X349546104Y-176374596D01*
X349308009Y-176374596D01*
X349212771Y-176326977D01*
X349165152Y-176279358D01*
X349117533Y-176184120D01*
X349117533Y-175993643D01*
X349165152Y-175898405D01*
X349212771Y-175850786D01*
X349308009Y-175803167D01*
X348736580Y-176993643D02*
X348736580Y-177088881D01*
X348784200Y-177184120D01*
X348831819Y-177231739D01*
X348927057Y-177279358D01*
X349117533Y-177326977D01*
X349355628Y-177326977D01*
X349546104Y-177279358D01*
X349641342Y-177231739D01*
X349688961Y-177184120D01*
X349736580Y-177088881D01*
X349736580Y-176993643D01*
X349688961Y-176898405D01*
X349641342Y-176850786D01*
X349546104Y-176803167D01*
X349355628Y-176755548D01*
X349117533Y-176755548D01*
X348927057Y-176803167D01*
X348831819Y-176850786D01*
X348784200Y-176898405D01*
X348736580Y-176993643D01*
X324086580Y-174088881D02*
X323086580Y-174088881D01*
X323086580Y-174326977D01*
X323134200Y-174469834D01*
X323229438Y-174565072D01*
X323324676Y-174612691D01*
X323515152Y-174660310D01*
X323658009Y-174660310D01*
X323848485Y-174612691D01*
X323943723Y-174565072D01*
X324038961Y-174469834D01*
X324086580Y-174326977D01*
X324086580Y-174088881D01*
X324181819Y-174850786D02*
X324181819Y-175612691D01*
X323086580Y-176326977D02*
X323086580Y-175850786D01*
X323562771Y-175803167D01*
X323515152Y-175850786D01*
X323467533Y-175946024D01*
X323467533Y-176184120D01*
X323515152Y-176279358D01*
X323562771Y-176326977D01*
X323658009Y-176374596D01*
X323896104Y-176374596D01*
X323991342Y-176326977D01*
X324038961Y-176279358D01*
X324086580Y-176184120D01*
X324086580Y-175946024D01*
X324038961Y-175850786D01*
X323991342Y-175803167D01*
X324086580Y-176850786D02*
X324086580Y-177041262D01*
X324038961Y-177136500D01*
X323991342Y-177184120D01*
X323848485Y-177279358D01*
X323658009Y-177326977D01*
X323277057Y-177326977D01*
X323181819Y-177279358D01*
X323134200Y-177231739D01*
X323086580Y-177136500D01*
X323086580Y-176946024D01*
X323134200Y-176850786D01*
X323181819Y-176803167D01*
X323277057Y-176755548D01*
X323515152Y-176755548D01*
X323610390Y-176803167D01*
X323658009Y-176850786D01*
X323705628Y-176946024D01*
X323705628Y-177136500D01*
X323658009Y-177231739D01*
X323610390Y-177279358D01*
X323515152Y-177326977D01*
X297349080Y-174088881D02*
X296349080Y-174088881D01*
X296349080Y-174326977D01*
X296396700Y-174469834D01*
X296491938Y-174565072D01*
X296587176Y-174612691D01*
X296777652Y-174660310D01*
X296920509Y-174660310D01*
X297110985Y-174612691D01*
X297206223Y-174565072D01*
X297301461Y-174469834D01*
X297349080Y-174326977D01*
X297349080Y-174088881D01*
X297444319Y-174850786D02*
X297444319Y-175612691D01*
X296349080Y-176326977D02*
X296349080Y-175850786D01*
X296825271Y-175803167D01*
X296777652Y-175850786D01*
X296730033Y-175946024D01*
X296730033Y-176184120D01*
X296777652Y-176279358D01*
X296825271Y-176326977D01*
X296920509Y-176374596D01*
X297158604Y-176374596D01*
X297253842Y-176326977D01*
X297301461Y-176279358D01*
X297349080Y-176184120D01*
X297349080Y-175946024D01*
X297301461Y-175850786D01*
X297253842Y-175803167D01*
X296777652Y-176946024D02*
X296730033Y-176850786D01*
X296682414Y-176803167D01*
X296587176Y-176755548D01*
X296539557Y-176755548D01*
X296444319Y-176803167D01*
X296396700Y-176850786D01*
X296349080Y-176946024D01*
X296349080Y-177136500D01*
X296396700Y-177231739D01*
X296444319Y-177279358D01*
X296539557Y-177326977D01*
X296587176Y-177326977D01*
X296682414Y-177279358D01*
X296730033Y-177231739D01*
X296777652Y-177136500D01*
X296777652Y-176946024D01*
X296825271Y-176850786D01*
X296872890Y-176803167D01*
X296968128Y-176755548D01*
X297158604Y-176755548D01*
X297253842Y-176803167D01*
X297301461Y-176850786D01*
X297349080Y-176946024D01*
X297349080Y-177136500D01*
X297301461Y-177231739D01*
X297253842Y-177279358D01*
X297158604Y-177326977D01*
X296968128Y-177326977D01*
X296872890Y-177279358D01*
X296825271Y-177231739D01*
X296777652Y-177136500D01*
X278299080Y-174088881D02*
X277299080Y-174088881D01*
X277299080Y-174326977D01*
X277346700Y-174469834D01*
X277441938Y-174565072D01*
X277537176Y-174612691D01*
X277727652Y-174660310D01*
X277870509Y-174660310D01*
X278060985Y-174612691D01*
X278156223Y-174565072D01*
X278251461Y-174469834D01*
X278299080Y-174326977D01*
X278299080Y-174088881D01*
X278394319Y-174850786D02*
X278394319Y-175612691D01*
X277299080Y-176326977D02*
X277299080Y-175850786D01*
X277775271Y-175803167D01*
X277727652Y-175850786D01*
X277680033Y-175946024D01*
X277680033Y-176184120D01*
X277727652Y-176279358D01*
X277775271Y-176326977D01*
X277870509Y-176374596D01*
X278108604Y-176374596D01*
X278203842Y-176326977D01*
X278251461Y-176279358D01*
X278299080Y-176184120D01*
X278299080Y-175946024D01*
X278251461Y-175850786D01*
X278203842Y-175803167D01*
X277299080Y-176707929D02*
X277299080Y-177374596D01*
X278299080Y-176946024D01*
X259249080Y-174088881D02*
X258249080Y-174088881D01*
X258249080Y-174326977D01*
X258296700Y-174469834D01*
X258391938Y-174565072D01*
X258487176Y-174612691D01*
X258677652Y-174660310D01*
X258820509Y-174660310D01*
X259010985Y-174612691D01*
X259106223Y-174565072D01*
X259201461Y-174469834D01*
X259249080Y-174326977D01*
X259249080Y-174088881D01*
X259344319Y-174850786D02*
X259344319Y-175612691D01*
X258249080Y-176326977D02*
X258249080Y-175850786D01*
X258725271Y-175803167D01*
X258677652Y-175850786D01*
X258630033Y-175946024D01*
X258630033Y-176184120D01*
X258677652Y-176279358D01*
X258725271Y-176326977D01*
X258820509Y-176374596D01*
X259058604Y-176374596D01*
X259153842Y-176326977D01*
X259201461Y-176279358D01*
X259249080Y-176184120D01*
X259249080Y-175946024D01*
X259201461Y-175850786D01*
X259153842Y-175803167D01*
X258249080Y-177231739D02*
X258249080Y-177041262D01*
X258296700Y-176946024D01*
X258344319Y-176898405D01*
X258487176Y-176803167D01*
X258677652Y-176755548D01*
X259058604Y-176755548D01*
X259153842Y-176803167D01*
X259201461Y-176850786D01*
X259249080Y-176946024D01*
X259249080Y-177136500D01*
X259201461Y-177231739D01*
X259153842Y-177279358D01*
X259058604Y-177326977D01*
X258820509Y-177326977D01*
X258725271Y-177279358D01*
X258677652Y-177231739D01*
X258630033Y-177136500D01*
X258630033Y-176946024D01*
X258677652Y-176850786D01*
X258725271Y-176803167D01*
X258820509Y-176755548D01*
X240199080Y-174088881D02*
X239199080Y-174088881D01*
X239199080Y-174326977D01*
X239246700Y-174469834D01*
X239341938Y-174565072D01*
X239437176Y-174612691D01*
X239627652Y-174660310D01*
X239770509Y-174660310D01*
X239960985Y-174612691D01*
X240056223Y-174565072D01*
X240151461Y-174469834D01*
X240199080Y-174326977D01*
X240199080Y-174088881D01*
X240294319Y-174850786D02*
X240294319Y-175612691D01*
X239199080Y-176326977D02*
X239199080Y-175850786D01*
X239675271Y-175803167D01*
X239627652Y-175850786D01*
X239580033Y-175946024D01*
X239580033Y-176184120D01*
X239627652Y-176279358D01*
X239675271Y-176326977D01*
X239770509Y-176374596D01*
X240008604Y-176374596D01*
X240103842Y-176326977D01*
X240151461Y-176279358D01*
X240199080Y-176184120D01*
X240199080Y-175946024D01*
X240151461Y-175850786D01*
X240103842Y-175803167D01*
X239199080Y-177279358D02*
X239199080Y-176803167D01*
X239675271Y-176755548D01*
X239627652Y-176803167D01*
X239580033Y-176898405D01*
X239580033Y-177136500D01*
X239627652Y-177231739D01*
X239675271Y-177279358D01*
X239770509Y-177326977D01*
X240008604Y-177326977D01*
X240103842Y-177279358D01*
X240151461Y-177231739D01*
X240199080Y-177136500D01*
X240199080Y-176898405D01*
X240151461Y-176803167D01*
X240103842Y-176755548D01*
X221149080Y-172954761D02*
X220149080Y-172954761D01*
X220149080Y-173192857D01*
X220196700Y-173335714D01*
X220291938Y-173430952D01*
X220387176Y-173478571D01*
X220577652Y-173526190D01*
X220720509Y-173526190D01*
X220910985Y-173478571D01*
X221006223Y-173430952D01*
X221101461Y-173335714D01*
X221149080Y-173192857D01*
X221149080Y-172954761D01*
X221244319Y-173716666D02*
X221244319Y-174478571D01*
X220149080Y-175192857D02*
X220149080Y-174716666D01*
X220625271Y-174669047D01*
X220577652Y-174716666D01*
X220530033Y-174811904D01*
X220530033Y-175050000D01*
X220577652Y-175145238D01*
X220625271Y-175192857D01*
X220720509Y-175240476D01*
X220958604Y-175240476D01*
X221053842Y-175192857D01*
X221101461Y-175145238D01*
X221149080Y-175050000D01*
X221149080Y-174811904D01*
X221101461Y-174716666D01*
X221053842Y-174669047D01*
X220482414Y-176097619D02*
X221149080Y-176097619D01*
X220101461Y-175859523D02*
X220815747Y-175621428D01*
X220815747Y-176240476D01*
X202099080Y-174088881D02*
X201099080Y-174088881D01*
X201099080Y-174326977D01*
X201146700Y-174469834D01*
X201241938Y-174565072D01*
X201337176Y-174612691D01*
X201527652Y-174660310D01*
X201670509Y-174660310D01*
X201860985Y-174612691D01*
X201956223Y-174565072D01*
X202051461Y-174469834D01*
X202099080Y-174326977D01*
X202099080Y-174088881D01*
X202194319Y-174850786D02*
X202194319Y-175612691D01*
X201099080Y-176326977D02*
X201099080Y-175850786D01*
X201575271Y-175803167D01*
X201527652Y-175850786D01*
X201480033Y-175946024D01*
X201480033Y-176184120D01*
X201527652Y-176279358D01*
X201575271Y-176326977D01*
X201670509Y-176374596D01*
X201908604Y-176374596D01*
X202003842Y-176326977D01*
X202051461Y-176279358D01*
X202099080Y-176184120D01*
X202099080Y-175946024D01*
X202051461Y-175850786D01*
X202003842Y-175803167D01*
X201099080Y-176707929D02*
X201099080Y-177326977D01*
X201480033Y-176993643D01*
X201480033Y-177136500D01*
X201527652Y-177231739D01*
X201575271Y-177279358D01*
X201670509Y-177326977D01*
X201908604Y-177326977D01*
X202003842Y-177279358D01*
X202051461Y-177231739D01*
X202099080Y-177136500D01*
X202099080Y-176850786D01*
X202051461Y-176755548D01*
X202003842Y-176707929D01*
X183049080Y-174088881D02*
X182049080Y-174088881D01*
X182049080Y-174326977D01*
X182096700Y-174469834D01*
X182191938Y-174565072D01*
X182287176Y-174612691D01*
X182477652Y-174660310D01*
X182620509Y-174660310D01*
X182810985Y-174612691D01*
X182906223Y-174565072D01*
X183001461Y-174469834D01*
X183049080Y-174326977D01*
X183049080Y-174088881D01*
X183144319Y-174850786D02*
X183144319Y-175612691D01*
X182049080Y-176326977D02*
X182049080Y-175850786D01*
X182525271Y-175803167D01*
X182477652Y-175850786D01*
X182430033Y-175946024D01*
X182430033Y-176184120D01*
X182477652Y-176279358D01*
X182525271Y-176326977D01*
X182620509Y-176374596D01*
X182858604Y-176374596D01*
X182953842Y-176326977D01*
X183001461Y-176279358D01*
X183049080Y-176184120D01*
X183049080Y-175946024D01*
X183001461Y-175850786D01*
X182953842Y-175803167D01*
X182144319Y-176755548D02*
X182096700Y-176803167D01*
X182049080Y-176898405D01*
X182049080Y-177136500D01*
X182096700Y-177231739D01*
X182144319Y-177279358D01*
X182239557Y-177326977D01*
X182334795Y-177326977D01*
X182477652Y-177279358D01*
X183049080Y-176707929D01*
X183049080Y-177326977D01*
X163999080Y-174088881D02*
X162999080Y-174088881D01*
X162999080Y-174326977D01*
X163046700Y-174469834D01*
X163141938Y-174565072D01*
X163237176Y-174612691D01*
X163427652Y-174660310D01*
X163570509Y-174660310D01*
X163760985Y-174612691D01*
X163856223Y-174565072D01*
X163951461Y-174469834D01*
X163999080Y-174326977D01*
X163999080Y-174088881D01*
X164094319Y-174850786D02*
X164094319Y-175612691D01*
X162999080Y-176326977D02*
X162999080Y-175850786D01*
X163475271Y-175803167D01*
X163427652Y-175850786D01*
X163380033Y-175946024D01*
X163380033Y-176184120D01*
X163427652Y-176279358D01*
X163475271Y-176326977D01*
X163570509Y-176374596D01*
X163808604Y-176374596D01*
X163903842Y-176326977D01*
X163951461Y-176279358D01*
X163999080Y-176184120D01*
X163999080Y-175946024D01*
X163951461Y-175850786D01*
X163903842Y-175803167D01*
X163999080Y-177326977D02*
X163999080Y-176755548D01*
X163999080Y-177041262D02*
X162999080Y-177041262D01*
X163141938Y-176946024D01*
X163237176Y-176850786D01*
X163284795Y-176755548D01*
X144949080Y-173179761D02*
X143949080Y-173179761D01*
X143949080Y-173417857D01*
X143996700Y-173560714D01*
X144091938Y-173655952D01*
X144187176Y-173703571D01*
X144377652Y-173751190D01*
X144520509Y-173751190D01*
X144710985Y-173703571D01*
X144806223Y-173655952D01*
X144901461Y-173560714D01*
X144949080Y-173417857D01*
X144949080Y-173179761D01*
X145044319Y-173941666D02*
X145044319Y-174703571D01*
X143949080Y-175417857D02*
X143949080Y-174941666D01*
X144425271Y-174894047D01*
X144377652Y-174941666D01*
X144330033Y-175036904D01*
X144330033Y-175275000D01*
X144377652Y-175370238D01*
X144425271Y-175417857D01*
X144520509Y-175465476D01*
X144758604Y-175465476D01*
X144853842Y-175417857D01*
X144901461Y-175370238D01*
X144949080Y-175275000D01*
X144949080Y-175036904D01*
X144901461Y-174941666D01*
X144853842Y-174894047D01*
X143949080Y-176084523D02*
X143949080Y-176179761D01*
X143996700Y-176275000D01*
X144044319Y-176322619D01*
X144139557Y-176370238D01*
X144330033Y-176417857D01*
X144568128Y-176417857D01*
X144758604Y-176370238D01*
X144853842Y-176322619D01*
X144901461Y-176275000D01*
X144949080Y-176179761D01*
X144949080Y-176084523D01*
X144901461Y-175989285D01*
X144853842Y-175941666D01*
X144758604Y-175894047D01*
X144568128Y-175846428D01*
X144330033Y-175846428D01*
X144139557Y-175894047D01*
X144044319Y-175941666D01*
X143996700Y-175989285D01*
X143949080Y-176084523D01*
X125899080Y-174088881D02*
X124899080Y-174088881D01*
X124899080Y-174326977D01*
X124946700Y-174469834D01*
X125041938Y-174565072D01*
X125137176Y-174612691D01*
X125327652Y-174660310D01*
X125470509Y-174660310D01*
X125660985Y-174612691D01*
X125756223Y-174565072D01*
X125851461Y-174469834D01*
X125899080Y-174326977D01*
X125899080Y-174088881D01*
X125994319Y-174850786D02*
X125994319Y-175612691D01*
X125232414Y-176279358D02*
X125899080Y-176279358D01*
X124851461Y-176041262D02*
X125565747Y-175803167D01*
X125565747Y-176422215D01*
X125899080Y-176850786D02*
X125899080Y-177041262D01*
X125851461Y-177136500D01*
X125803842Y-177184120D01*
X125660985Y-177279358D01*
X125470509Y-177326977D01*
X125089557Y-177326977D01*
X124994319Y-177279358D01*
X124946700Y-177231739D01*
X124899080Y-177136500D01*
X124899080Y-176946024D01*
X124946700Y-176850786D01*
X124994319Y-176803167D01*
X125089557Y-176755548D01*
X125327652Y-176755548D01*
X125422890Y-176803167D01*
X125470509Y-176850786D01*
X125518128Y-176946024D01*
X125518128Y-177136500D01*
X125470509Y-177231739D01*
X125422890Y-177279358D01*
X125327652Y-177326977D01*
X106849080Y-174088881D02*
X105849080Y-174088881D01*
X105849080Y-174326977D01*
X105896700Y-174469834D01*
X105991938Y-174565072D01*
X106087176Y-174612691D01*
X106277652Y-174660310D01*
X106420509Y-174660310D01*
X106610985Y-174612691D01*
X106706223Y-174565072D01*
X106801461Y-174469834D01*
X106849080Y-174326977D01*
X106849080Y-174088881D01*
X106944319Y-174850786D02*
X106944319Y-175612691D01*
X106182414Y-176279358D02*
X106849080Y-176279358D01*
X105801461Y-176041262D02*
X106515747Y-175803167D01*
X106515747Y-176422215D01*
X106277652Y-176946024D02*
X106230033Y-176850786D01*
X106182414Y-176803167D01*
X106087176Y-176755548D01*
X106039557Y-176755548D01*
X105944319Y-176803167D01*
X105896700Y-176850786D01*
X105849080Y-176946024D01*
X105849080Y-177136500D01*
X105896700Y-177231739D01*
X105944319Y-177279358D01*
X106039557Y-177326977D01*
X106087176Y-177326977D01*
X106182414Y-177279358D01*
X106230033Y-177231739D01*
X106277652Y-177136500D01*
X106277652Y-176946024D01*
X106325271Y-176850786D01*
X106372890Y-176803167D01*
X106468128Y-176755548D01*
X106658604Y-176755548D01*
X106753842Y-176803167D01*
X106801461Y-176850786D01*
X106849080Y-176946024D01*
X106849080Y-177136500D01*
X106801461Y-177231739D01*
X106753842Y-177279358D01*
X106658604Y-177326977D01*
X106468128Y-177326977D01*
X106372890Y-177279358D01*
X106325271Y-177231739D01*
X106277652Y-177136500D01*
X87799080Y-174088881D02*
X86799080Y-174088881D01*
X86799080Y-174326977D01*
X86846700Y-174469834D01*
X86941938Y-174565072D01*
X87037176Y-174612691D01*
X87227652Y-174660310D01*
X87370509Y-174660310D01*
X87560985Y-174612691D01*
X87656223Y-174565072D01*
X87751461Y-174469834D01*
X87799080Y-174326977D01*
X87799080Y-174088881D01*
X87894319Y-174850786D02*
X87894319Y-175612691D01*
X87132414Y-176279358D02*
X87799080Y-176279358D01*
X86751461Y-176041262D02*
X87465747Y-175803167D01*
X87465747Y-176422215D01*
X86799080Y-176707929D02*
X86799080Y-177374596D01*
X87799080Y-176946024D01*
X326074080Y-155013881D02*
X325074080Y-155013881D01*
X325074080Y-155251977D01*
X325121700Y-155394834D01*
X325216938Y-155490072D01*
X325312176Y-155537691D01*
X325502652Y-155585310D01*
X325645509Y-155585310D01*
X325835985Y-155537691D01*
X325931223Y-155490072D01*
X326026461Y-155394834D01*
X326074080Y-155251977D01*
X326074080Y-155013881D01*
X326169319Y-155775786D02*
X326169319Y-156537691D01*
X325407414Y-157204358D02*
X326074080Y-157204358D01*
X325026461Y-156966262D02*
X325740747Y-156728167D01*
X325740747Y-157347215D01*
X325407414Y-158156739D02*
X326074080Y-158156739D01*
X325026461Y-157918643D02*
X325740747Y-157680548D01*
X325740747Y-158299596D01*
X307024080Y-155013881D02*
X306024080Y-155013881D01*
X306024080Y-155251977D01*
X306071700Y-155394834D01*
X306166938Y-155490072D01*
X306262176Y-155537691D01*
X306452652Y-155585310D01*
X306595509Y-155585310D01*
X306785985Y-155537691D01*
X306881223Y-155490072D01*
X306976461Y-155394834D01*
X307024080Y-155251977D01*
X307024080Y-155013881D01*
X307119319Y-155775786D02*
X307119319Y-156537691D01*
X306357414Y-157204358D02*
X307024080Y-157204358D01*
X305976461Y-156966262D02*
X306690747Y-156728167D01*
X306690747Y-157347215D01*
X306024080Y-157632929D02*
X306024080Y-158251977D01*
X306405033Y-157918643D01*
X306405033Y-158061500D01*
X306452652Y-158156739D01*
X306500271Y-158204358D01*
X306595509Y-158251977D01*
X306833604Y-158251977D01*
X306928842Y-158204358D01*
X306976461Y-158156739D01*
X307024080Y-158061500D01*
X307024080Y-157775786D01*
X306976461Y-157680548D01*
X306928842Y-157632929D01*
X287974080Y-155013881D02*
X286974080Y-155013881D01*
X286974080Y-155251977D01*
X287021700Y-155394834D01*
X287116938Y-155490072D01*
X287212176Y-155537691D01*
X287402652Y-155585310D01*
X287545509Y-155585310D01*
X287735985Y-155537691D01*
X287831223Y-155490072D01*
X287926461Y-155394834D01*
X287974080Y-155251977D01*
X287974080Y-155013881D01*
X288069319Y-155775786D02*
X288069319Y-156537691D01*
X287307414Y-157204358D02*
X287974080Y-157204358D01*
X286926461Y-156966262D02*
X287640747Y-156728167D01*
X287640747Y-157347215D01*
X287069319Y-157680548D02*
X287021700Y-157728167D01*
X286974080Y-157823405D01*
X286974080Y-158061500D01*
X287021700Y-158156739D01*
X287069319Y-158204358D01*
X287164557Y-158251977D01*
X287259795Y-158251977D01*
X287402652Y-158204358D01*
X287974080Y-157632929D01*
X287974080Y-158251977D01*
X268924080Y-155013881D02*
X267924080Y-155013881D01*
X267924080Y-155251977D01*
X267971700Y-155394834D01*
X268066938Y-155490072D01*
X268162176Y-155537691D01*
X268352652Y-155585310D01*
X268495509Y-155585310D01*
X268685985Y-155537691D01*
X268781223Y-155490072D01*
X268876461Y-155394834D01*
X268924080Y-155251977D01*
X268924080Y-155013881D01*
X269019319Y-155775786D02*
X269019319Y-156537691D01*
X268257414Y-157204358D02*
X268924080Y-157204358D01*
X267876461Y-156966262D02*
X268590747Y-156728167D01*
X268590747Y-157347215D01*
X268924080Y-158251977D02*
X268924080Y-157680548D01*
X268924080Y-157966262D02*
X267924080Y-157966262D01*
X268066938Y-157871024D01*
X268162176Y-157775786D01*
X268209795Y-157680548D01*
X249874080Y-155013881D02*
X248874080Y-155013881D01*
X248874080Y-155251977D01*
X248921700Y-155394834D01*
X249016938Y-155490072D01*
X249112176Y-155537691D01*
X249302652Y-155585310D01*
X249445509Y-155585310D01*
X249635985Y-155537691D01*
X249731223Y-155490072D01*
X249826461Y-155394834D01*
X249874080Y-155251977D01*
X249874080Y-155013881D01*
X249969319Y-155775786D02*
X249969319Y-156537691D01*
X249207414Y-157204358D02*
X249874080Y-157204358D01*
X248826461Y-156966262D02*
X249540747Y-156728167D01*
X249540747Y-157347215D01*
X248874080Y-157918643D02*
X248874080Y-158013881D01*
X248921700Y-158109120D01*
X248969319Y-158156739D01*
X249064557Y-158204358D01*
X249255033Y-158251977D01*
X249493128Y-158251977D01*
X249683604Y-158204358D01*
X249778842Y-158156739D01*
X249826461Y-158109120D01*
X249874080Y-158013881D01*
X249874080Y-157918643D01*
X249826461Y-157823405D01*
X249778842Y-157775786D01*
X249683604Y-157728167D01*
X249493128Y-157680548D01*
X249255033Y-157680548D01*
X249064557Y-157728167D01*
X248969319Y-157775786D01*
X248921700Y-157823405D01*
X248874080Y-157918643D01*
X230824080Y-155013881D02*
X229824080Y-155013881D01*
X229824080Y-155251977D01*
X229871700Y-155394834D01*
X229966938Y-155490072D01*
X230062176Y-155537691D01*
X230252652Y-155585310D01*
X230395509Y-155585310D01*
X230585985Y-155537691D01*
X230681223Y-155490072D01*
X230776461Y-155394834D01*
X230824080Y-155251977D01*
X230824080Y-155013881D01*
X230919319Y-155775786D02*
X230919319Y-156537691D01*
X229824080Y-156680548D02*
X229824080Y-157299596D01*
X230205033Y-156966262D01*
X230205033Y-157109120D01*
X230252652Y-157204358D01*
X230300271Y-157251977D01*
X230395509Y-157299596D01*
X230633604Y-157299596D01*
X230728842Y-157251977D01*
X230776461Y-157204358D01*
X230824080Y-157109120D01*
X230824080Y-156823405D01*
X230776461Y-156728167D01*
X230728842Y-156680548D01*
X230824080Y-157775786D02*
X230824080Y-157966262D01*
X230776461Y-158061500D01*
X230728842Y-158109120D01*
X230585985Y-158204358D01*
X230395509Y-158251977D01*
X230014557Y-158251977D01*
X229919319Y-158204358D01*
X229871700Y-158156739D01*
X229824080Y-158061500D01*
X229824080Y-157871024D01*
X229871700Y-157775786D01*
X229919319Y-157728167D01*
X230014557Y-157680548D01*
X230252652Y-157680548D01*
X230347890Y-157728167D01*
X230395509Y-157775786D01*
X230443128Y-157871024D01*
X230443128Y-158061500D01*
X230395509Y-158156739D01*
X230347890Y-158204358D01*
X230252652Y-158251977D01*
X211774080Y-155013881D02*
X210774080Y-155013881D01*
X210774080Y-155251977D01*
X210821700Y-155394834D01*
X210916938Y-155490072D01*
X211012176Y-155537691D01*
X211202652Y-155585310D01*
X211345509Y-155585310D01*
X211535985Y-155537691D01*
X211631223Y-155490072D01*
X211726461Y-155394834D01*
X211774080Y-155251977D01*
X211774080Y-155013881D01*
X211869319Y-155775786D02*
X211869319Y-156537691D01*
X210774080Y-156680548D02*
X210774080Y-157299596D01*
X211155033Y-156966262D01*
X211155033Y-157109120D01*
X211202652Y-157204358D01*
X211250271Y-157251977D01*
X211345509Y-157299596D01*
X211583604Y-157299596D01*
X211678842Y-157251977D01*
X211726461Y-157204358D01*
X211774080Y-157109120D01*
X211774080Y-156823405D01*
X211726461Y-156728167D01*
X211678842Y-156680548D01*
X211202652Y-157871024D02*
X211155033Y-157775786D01*
X211107414Y-157728167D01*
X211012176Y-157680548D01*
X210964557Y-157680548D01*
X210869319Y-157728167D01*
X210821700Y-157775786D01*
X210774080Y-157871024D01*
X210774080Y-158061500D01*
X210821700Y-158156739D01*
X210869319Y-158204358D01*
X210964557Y-158251977D01*
X211012176Y-158251977D01*
X211107414Y-158204358D01*
X211155033Y-158156739D01*
X211202652Y-158061500D01*
X211202652Y-157871024D01*
X211250271Y-157775786D01*
X211297890Y-157728167D01*
X211393128Y-157680548D01*
X211583604Y-157680548D01*
X211678842Y-157728167D01*
X211726461Y-157775786D01*
X211774080Y-157871024D01*
X211774080Y-158061500D01*
X211726461Y-158156739D01*
X211678842Y-158204358D01*
X211583604Y-158251977D01*
X211393128Y-158251977D01*
X211297890Y-158204358D01*
X211250271Y-158156739D01*
X211202652Y-158061500D01*
X192724080Y-155013881D02*
X191724080Y-155013881D01*
X191724080Y-155251977D01*
X191771700Y-155394834D01*
X191866938Y-155490072D01*
X191962176Y-155537691D01*
X192152652Y-155585310D01*
X192295509Y-155585310D01*
X192485985Y-155537691D01*
X192581223Y-155490072D01*
X192676461Y-155394834D01*
X192724080Y-155251977D01*
X192724080Y-155013881D01*
X192819319Y-155775786D02*
X192819319Y-156537691D01*
X191724080Y-156680548D02*
X191724080Y-157299596D01*
X192105033Y-156966262D01*
X192105033Y-157109120D01*
X192152652Y-157204358D01*
X192200271Y-157251977D01*
X192295509Y-157299596D01*
X192533604Y-157299596D01*
X192628842Y-157251977D01*
X192676461Y-157204358D01*
X192724080Y-157109120D01*
X192724080Y-156823405D01*
X192676461Y-156728167D01*
X192628842Y-156680548D01*
X191724080Y-157632929D02*
X191724080Y-158299596D01*
X192724080Y-157871024D01*
X173674080Y-155013881D02*
X172674080Y-155013881D01*
X172674080Y-155251977D01*
X172721700Y-155394834D01*
X172816938Y-155490072D01*
X172912176Y-155537691D01*
X173102652Y-155585310D01*
X173245509Y-155585310D01*
X173435985Y-155537691D01*
X173531223Y-155490072D01*
X173626461Y-155394834D01*
X173674080Y-155251977D01*
X173674080Y-155013881D01*
X173769319Y-155775786D02*
X173769319Y-156537691D01*
X172674080Y-156680548D02*
X172674080Y-157299596D01*
X173055033Y-156966262D01*
X173055033Y-157109120D01*
X173102652Y-157204358D01*
X173150271Y-157251977D01*
X173245509Y-157299596D01*
X173483604Y-157299596D01*
X173578842Y-157251977D01*
X173626461Y-157204358D01*
X173674080Y-157109120D01*
X173674080Y-156823405D01*
X173626461Y-156728167D01*
X173578842Y-156680548D01*
X172674080Y-158156739D02*
X172674080Y-157966262D01*
X172721700Y-157871024D01*
X172769319Y-157823405D01*
X172912176Y-157728167D01*
X173102652Y-157680548D01*
X173483604Y-157680548D01*
X173578842Y-157728167D01*
X173626461Y-157775786D01*
X173674080Y-157871024D01*
X173674080Y-158061500D01*
X173626461Y-158156739D01*
X173578842Y-158204358D01*
X173483604Y-158251977D01*
X173245509Y-158251977D01*
X173150271Y-158204358D01*
X173102652Y-158156739D01*
X173055033Y-158061500D01*
X173055033Y-157871024D01*
X173102652Y-157775786D01*
X173150271Y-157728167D01*
X173245509Y-157680548D01*
X154624080Y-155013881D02*
X153624080Y-155013881D01*
X153624080Y-155251977D01*
X153671700Y-155394834D01*
X153766938Y-155490072D01*
X153862176Y-155537691D01*
X154052652Y-155585310D01*
X154195509Y-155585310D01*
X154385985Y-155537691D01*
X154481223Y-155490072D01*
X154576461Y-155394834D01*
X154624080Y-155251977D01*
X154624080Y-155013881D01*
X154719319Y-155775786D02*
X154719319Y-156537691D01*
X153624080Y-156680548D02*
X153624080Y-157299596D01*
X154005033Y-156966262D01*
X154005033Y-157109120D01*
X154052652Y-157204358D01*
X154100271Y-157251977D01*
X154195509Y-157299596D01*
X154433604Y-157299596D01*
X154528842Y-157251977D01*
X154576461Y-157204358D01*
X154624080Y-157109120D01*
X154624080Y-156823405D01*
X154576461Y-156728167D01*
X154528842Y-156680548D01*
X153624080Y-158204358D02*
X153624080Y-157728167D01*
X154100271Y-157680548D01*
X154052652Y-157728167D01*
X154005033Y-157823405D01*
X154005033Y-158061500D01*
X154052652Y-158156739D01*
X154100271Y-158204358D01*
X154195509Y-158251977D01*
X154433604Y-158251977D01*
X154528842Y-158204358D01*
X154576461Y-158156739D01*
X154624080Y-158061500D01*
X154624080Y-157823405D01*
X154576461Y-157728167D01*
X154528842Y-157680548D01*
X135574080Y-155013881D02*
X134574080Y-155013881D01*
X134574080Y-155251977D01*
X134621700Y-155394834D01*
X134716938Y-155490072D01*
X134812176Y-155537691D01*
X135002652Y-155585310D01*
X135145509Y-155585310D01*
X135335985Y-155537691D01*
X135431223Y-155490072D01*
X135526461Y-155394834D01*
X135574080Y-155251977D01*
X135574080Y-155013881D01*
X135669319Y-155775786D02*
X135669319Y-156537691D01*
X134574080Y-156680548D02*
X134574080Y-157299596D01*
X134955033Y-156966262D01*
X134955033Y-157109120D01*
X135002652Y-157204358D01*
X135050271Y-157251977D01*
X135145509Y-157299596D01*
X135383604Y-157299596D01*
X135478842Y-157251977D01*
X135526461Y-157204358D01*
X135574080Y-157109120D01*
X135574080Y-156823405D01*
X135526461Y-156728167D01*
X135478842Y-156680548D01*
X134907414Y-158156739D02*
X135574080Y-158156739D01*
X134526461Y-157918643D02*
X135240747Y-157680548D01*
X135240747Y-158299596D01*
X116524080Y-155013881D02*
X115524080Y-155013881D01*
X115524080Y-155251977D01*
X115571700Y-155394834D01*
X115666938Y-155490072D01*
X115762176Y-155537691D01*
X115952652Y-155585310D01*
X116095509Y-155585310D01*
X116285985Y-155537691D01*
X116381223Y-155490072D01*
X116476461Y-155394834D01*
X116524080Y-155251977D01*
X116524080Y-155013881D01*
X116619319Y-155775786D02*
X116619319Y-156537691D01*
X115524080Y-156680548D02*
X115524080Y-157299596D01*
X115905033Y-156966262D01*
X115905033Y-157109120D01*
X115952652Y-157204358D01*
X116000271Y-157251977D01*
X116095509Y-157299596D01*
X116333604Y-157299596D01*
X116428842Y-157251977D01*
X116476461Y-157204358D01*
X116524080Y-157109120D01*
X116524080Y-156823405D01*
X116476461Y-156728167D01*
X116428842Y-156680548D01*
X115524080Y-157632929D02*
X115524080Y-158251977D01*
X115905033Y-157918643D01*
X115905033Y-158061500D01*
X115952652Y-158156739D01*
X116000271Y-158204358D01*
X116095509Y-158251977D01*
X116333604Y-158251977D01*
X116428842Y-158204358D01*
X116476461Y-158156739D01*
X116524080Y-158061500D01*
X116524080Y-157775786D01*
X116476461Y-157680548D01*
X116428842Y-157632929D01*
X87949080Y-155013881D02*
X86949080Y-155013881D01*
X86949080Y-155251977D01*
X86996700Y-155394834D01*
X87091938Y-155490072D01*
X87187176Y-155537691D01*
X87377652Y-155585310D01*
X87520509Y-155585310D01*
X87710985Y-155537691D01*
X87806223Y-155490072D01*
X87901461Y-155394834D01*
X87949080Y-155251977D01*
X87949080Y-155013881D01*
X88044319Y-155775786D02*
X88044319Y-156537691D01*
X86949080Y-156680548D02*
X86949080Y-157299596D01*
X87330033Y-156966262D01*
X87330033Y-157109120D01*
X87377652Y-157204358D01*
X87425271Y-157251977D01*
X87520509Y-157299596D01*
X87758604Y-157299596D01*
X87853842Y-157251977D01*
X87901461Y-157204358D01*
X87949080Y-157109120D01*
X87949080Y-156823405D01*
X87901461Y-156728167D01*
X87853842Y-156680548D01*
X87044319Y-157680548D02*
X86996700Y-157728167D01*
X86949080Y-157823405D01*
X86949080Y-158061500D01*
X86996700Y-158156739D01*
X87044319Y-158204358D01*
X87139557Y-158251977D01*
X87234795Y-158251977D01*
X87377652Y-158204358D01*
X87949080Y-157632929D01*
X87949080Y-158251977D01*
X349536580Y-154988881D02*
X348536580Y-154988881D01*
X348536580Y-155226977D01*
X348584200Y-155369834D01*
X348679438Y-155465072D01*
X348774676Y-155512691D01*
X348965152Y-155560310D01*
X349108009Y-155560310D01*
X349298485Y-155512691D01*
X349393723Y-155465072D01*
X349488961Y-155369834D01*
X349536580Y-155226977D01*
X349536580Y-154988881D01*
X349631819Y-155750786D02*
X349631819Y-156512691D01*
X348631819Y-156703167D02*
X348584200Y-156750786D01*
X348536580Y-156846024D01*
X348536580Y-157084120D01*
X348584200Y-157179358D01*
X348631819Y-157226977D01*
X348727057Y-157274596D01*
X348822295Y-157274596D01*
X348965152Y-157226977D01*
X349536580Y-156655548D01*
X349536580Y-157274596D01*
X349536580Y-157750786D02*
X349536580Y-157941262D01*
X349488961Y-158036500D01*
X349441342Y-158084120D01*
X349298485Y-158179358D01*
X349108009Y-158226977D01*
X348727057Y-158226977D01*
X348631819Y-158179358D01*
X348584200Y-158131739D01*
X348536580Y-158036500D01*
X348536580Y-157846024D01*
X348584200Y-157750786D01*
X348631819Y-157703167D01*
X348727057Y-157655548D01*
X348965152Y-157655548D01*
X349060390Y-157703167D01*
X349108009Y-157750786D01*
X349155628Y-157846024D01*
X349155628Y-158036500D01*
X349108009Y-158131739D01*
X349060390Y-158179358D01*
X348965152Y-158226977D01*
X321261580Y-136038881D02*
X320261580Y-136038881D01*
X320261580Y-136276977D01*
X320309200Y-136419834D01*
X320404438Y-136515072D01*
X320499676Y-136562691D01*
X320690152Y-136610310D01*
X320833009Y-136610310D01*
X321023485Y-136562691D01*
X321118723Y-136515072D01*
X321213961Y-136419834D01*
X321261580Y-136276977D01*
X321261580Y-136038881D01*
X321356819Y-136800786D02*
X321356819Y-137562691D01*
X320356819Y-137753167D02*
X320309200Y-137800786D01*
X320261580Y-137896024D01*
X320261580Y-138134120D01*
X320309200Y-138229358D01*
X320356819Y-138276977D01*
X320452057Y-138324596D01*
X320547295Y-138324596D01*
X320690152Y-138276977D01*
X321261580Y-137705548D01*
X321261580Y-138324596D01*
X320690152Y-138896024D02*
X320642533Y-138800786D01*
X320594914Y-138753167D01*
X320499676Y-138705548D01*
X320452057Y-138705548D01*
X320356819Y-138753167D01*
X320309200Y-138800786D01*
X320261580Y-138896024D01*
X320261580Y-139086500D01*
X320309200Y-139181739D01*
X320356819Y-139229358D01*
X320452057Y-139276977D01*
X320499676Y-139276977D01*
X320594914Y-139229358D01*
X320642533Y-139181739D01*
X320690152Y-139086500D01*
X320690152Y-138896024D01*
X320737771Y-138800786D01*
X320785390Y-138753167D01*
X320880628Y-138705548D01*
X321071104Y-138705548D01*
X321166342Y-138753167D01*
X321213961Y-138800786D01*
X321261580Y-138896024D01*
X321261580Y-139086500D01*
X321213961Y-139181739D01*
X321166342Y-139229358D01*
X321071104Y-139276977D01*
X320880628Y-139276977D01*
X320785390Y-139229358D01*
X320737771Y-139181739D01*
X320690152Y-139086500D01*
X302211580Y-136038881D02*
X301211580Y-136038881D01*
X301211580Y-136276977D01*
X301259200Y-136419834D01*
X301354438Y-136515072D01*
X301449676Y-136562691D01*
X301640152Y-136610310D01*
X301783009Y-136610310D01*
X301973485Y-136562691D01*
X302068723Y-136515072D01*
X302163961Y-136419834D01*
X302211580Y-136276977D01*
X302211580Y-136038881D01*
X302306819Y-136800786D02*
X302306819Y-137562691D01*
X301306819Y-137753167D02*
X301259200Y-137800786D01*
X301211580Y-137896024D01*
X301211580Y-138134120D01*
X301259200Y-138229358D01*
X301306819Y-138276977D01*
X301402057Y-138324596D01*
X301497295Y-138324596D01*
X301640152Y-138276977D01*
X302211580Y-137705548D01*
X302211580Y-138324596D01*
X301211580Y-138657929D02*
X301211580Y-139324596D01*
X302211580Y-138896024D01*
X283161580Y-136038881D02*
X282161580Y-136038881D01*
X282161580Y-136276977D01*
X282209200Y-136419834D01*
X282304438Y-136515072D01*
X282399676Y-136562691D01*
X282590152Y-136610310D01*
X282733009Y-136610310D01*
X282923485Y-136562691D01*
X283018723Y-136515072D01*
X283113961Y-136419834D01*
X283161580Y-136276977D01*
X283161580Y-136038881D01*
X283256819Y-136800786D02*
X283256819Y-137562691D01*
X282256819Y-137753167D02*
X282209200Y-137800786D01*
X282161580Y-137896024D01*
X282161580Y-138134120D01*
X282209200Y-138229358D01*
X282256819Y-138276977D01*
X282352057Y-138324596D01*
X282447295Y-138324596D01*
X282590152Y-138276977D01*
X283161580Y-137705548D01*
X283161580Y-138324596D01*
X282161580Y-139181739D02*
X282161580Y-138991262D01*
X282209200Y-138896024D01*
X282256819Y-138848405D01*
X282399676Y-138753167D01*
X282590152Y-138705548D01*
X282971104Y-138705548D01*
X283066342Y-138753167D01*
X283113961Y-138800786D01*
X283161580Y-138896024D01*
X283161580Y-139086500D01*
X283113961Y-139181739D01*
X283066342Y-139229358D01*
X282971104Y-139276977D01*
X282733009Y-139276977D01*
X282637771Y-139229358D01*
X282590152Y-139181739D01*
X282542533Y-139086500D01*
X282542533Y-138896024D01*
X282590152Y-138800786D01*
X282637771Y-138753167D01*
X282733009Y-138705548D01*
X264111580Y-136038881D02*
X263111580Y-136038881D01*
X263111580Y-136276977D01*
X263159200Y-136419834D01*
X263254438Y-136515072D01*
X263349676Y-136562691D01*
X263540152Y-136610310D01*
X263683009Y-136610310D01*
X263873485Y-136562691D01*
X263968723Y-136515072D01*
X264063961Y-136419834D01*
X264111580Y-136276977D01*
X264111580Y-136038881D01*
X264206819Y-136800786D02*
X264206819Y-137562691D01*
X263206819Y-137753167D02*
X263159200Y-137800786D01*
X263111580Y-137896024D01*
X263111580Y-138134120D01*
X263159200Y-138229358D01*
X263206819Y-138276977D01*
X263302057Y-138324596D01*
X263397295Y-138324596D01*
X263540152Y-138276977D01*
X264111580Y-137705548D01*
X264111580Y-138324596D01*
X263111580Y-139229358D02*
X263111580Y-138753167D01*
X263587771Y-138705548D01*
X263540152Y-138753167D01*
X263492533Y-138848405D01*
X263492533Y-139086500D01*
X263540152Y-139181739D01*
X263587771Y-139229358D01*
X263683009Y-139276977D01*
X263921104Y-139276977D01*
X264016342Y-139229358D01*
X264063961Y-139181739D01*
X264111580Y-139086500D01*
X264111580Y-138848405D01*
X264063961Y-138753167D01*
X264016342Y-138705548D01*
X245061580Y-136038881D02*
X244061580Y-136038881D01*
X244061580Y-136276977D01*
X244109200Y-136419834D01*
X244204438Y-136515072D01*
X244299676Y-136562691D01*
X244490152Y-136610310D01*
X244633009Y-136610310D01*
X244823485Y-136562691D01*
X244918723Y-136515072D01*
X245013961Y-136419834D01*
X245061580Y-136276977D01*
X245061580Y-136038881D01*
X245156819Y-136800786D02*
X245156819Y-137562691D01*
X244156819Y-137753167D02*
X244109200Y-137800786D01*
X244061580Y-137896024D01*
X244061580Y-138134120D01*
X244109200Y-138229358D01*
X244156819Y-138276977D01*
X244252057Y-138324596D01*
X244347295Y-138324596D01*
X244490152Y-138276977D01*
X245061580Y-137705548D01*
X245061580Y-138324596D01*
X244394914Y-139181739D02*
X245061580Y-139181739D01*
X244013961Y-138943643D02*
X244728247Y-138705548D01*
X244728247Y-139324596D01*
X226011580Y-136038881D02*
X225011580Y-136038881D01*
X225011580Y-136276977D01*
X225059200Y-136419834D01*
X225154438Y-136515072D01*
X225249676Y-136562691D01*
X225440152Y-136610310D01*
X225583009Y-136610310D01*
X225773485Y-136562691D01*
X225868723Y-136515072D01*
X225963961Y-136419834D01*
X226011580Y-136276977D01*
X226011580Y-136038881D01*
X226106819Y-136800786D02*
X226106819Y-137562691D01*
X225106819Y-137753167D02*
X225059200Y-137800786D01*
X225011580Y-137896024D01*
X225011580Y-138134120D01*
X225059200Y-138229358D01*
X225106819Y-138276977D01*
X225202057Y-138324596D01*
X225297295Y-138324596D01*
X225440152Y-138276977D01*
X226011580Y-137705548D01*
X226011580Y-138324596D01*
X225011580Y-138657929D02*
X225011580Y-139276977D01*
X225392533Y-138943643D01*
X225392533Y-139086500D01*
X225440152Y-139181739D01*
X225487771Y-139229358D01*
X225583009Y-139276977D01*
X225821104Y-139276977D01*
X225916342Y-139229358D01*
X225963961Y-139181739D01*
X226011580Y-139086500D01*
X226011580Y-138800786D01*
X225963961Y-138705548D01*
X225916342Y-138657929D01*
X206961580Y-136038881D02*
X205961580Y-136038881D01*
X205961580Y-136276977D01*
X206009200Y-136419834D01*
X206104438Y-136515072D01*
X206199676Y-136562691D01*
X206390152Y-136610310D01*
X206533009Y-136610310D01*
X206723485Y-136562691D01*
X206818723Y-136515072D01*
X206913961Y-136419834D01*
X206961580Y-136276977D01*
X206961580Y-136038881D01*
X207056819Y-136800786D02*
X207056819Y-137562691D01*
X206056819Y-137753167D02*
X206009200Y-137800786D01*
X205961580Y-137896024D01*
X205961580Y-138134120D01*
X206009200Y-138229358D01*
X206056819Y-138276977D01*
X206152057Y-138324596D01*
X206247295Y-138324596D01*
X206390152Y-138276977D01*
X206961580Y-137705548D01*
X206961580Y-138324596D01*
X206056819Y-138705548D02*
X206009200Y-138753167D01*
X205961580Y-138848405D01*
X205961580Y-139086500D01*
X206009200Y-139181739D01*
X206056819Y-139229358D01*
X206152057Y-139276977D01*
X206247295Y-139276977D01*
X206390152Y-139229358D01*
X206961580Y-138657929D01*
X206961580Y-139276977D01*
X187911580Y-136038881D02*
X186911580Y-136038881D01*
X186911580Y-136276977D01*
X186959200Y-136419834D01*
X187054438Y-136515072D01*
X187149676Y-136562691D01*
X187340152Y-136610310D01*
X187483009Y-136610310D01*
X187673485Y-136562691D01*
X187768723Y-136515072D01*
X187863961Y-136419834D01*
X187911580Y-136276977D01*
X187911580Y-136038881D01*
X188006819Y-136800786D02*
X188006819Y-137562691D01*
X187006819Y-137753167D02*
X186959200Y-137800786D01*
X186911580Y-137896024D01*
X186911580Y-138134120D01*
X186959200Y-138229358D01*
X187006819Y-138276977D01*
X187102057Y-138324596D01*
X187197295Y-138324596D01*
X187340152Y-138276977D01*
X187911580Y-137705548D01*
X187911580Y-138324596D01*
X187911580Y-139276977D02*
X187911580Y-138705548D01*
X187911580Y-138991262D02*
X186911580Y-138991262D01*
X187054438Y-138896024D01*
X187149676Y-138800786D01*
X187197295Y-138705548D01*
X168861580Y-136038881D02*
X167861580Y-136038881D01*
X167861580Y-136276977D01*
X167909200Y-136419834D01*
X168004438Y-136515072D01*
X168099676Y-136562691D01*
X168290152Y-136610310D01*
X168433009Y-136610310D01*
X168623485Y-136562691D01*
X168718723Y-136515072D01*
X168813961Y-136419834D01*
X168861580Y-136276977D01*
X168861580Y-136038881D01*
X168956819Y-136800786D02*
X168956819Y-137562691D01*
X167956819Y-137753167D02*
X167909200Y-137800786D01*
X167861580Y-137896024D01*
X167861580Y-138134120D01*
X167909200Y-138229358D01*
X167956819Y-138276977D01*
X168052057Y-138324596D01*
X168147295Y-138324596D01*
X168290152Y-138276977D01*
X168861580Y-137705548D01*
X168861580Y-138324596D01*
X167861580Y-138943643D02*
X167861580Y-139038881D01*
X167909200Y-139134120D01*
X167956819Y-139181739D01*
X168052057Y-139229358D01*
X168242533Y-139276977D01*
X168480628Y-139276977D01*
X168671104Y-139229358D01*
X168766342Y-139181739D01*
X168813961Y-139134120D01*
X168861580Y-139038881D01*
X168861580Y-138943643D01*
X168813961Y-138848405D01*
X168766342Y-138800786D01*
X168671104Y-138753167D01*
X168480628Y-138705548D01*
X168242533Y-138705548D01*
X168052057Y-138753167D01*
X167956819Y-138800786D01*
X167909200Y-138848405D01*
X167861580Y-138943643D01*
X149811580Y-136038881D02*
X148811580Y-136038881D01*
X148811580Y-136276977D01*
X148859200Y-136419834D01*
X148954438Y-136515072D01*
X149049676Y-136562691D01*
X149240152Y-136610310D01*
X149383009Y-136610310D01*
X149573485Y-136562691D01*
X149668723Y-136515072D01*
X149763961Y-136419834D01*
X149811580Y-136276977D01*
X149811580Y-136038881D01*
X149906819Y-136800786D02*
X149906819Y-137562691D01*
X149811580Y-138324596D02*
X149811580Y-137753167D01*
X149811580Y-138038881D02*
X148811580Y-138038881D01*
X148954438Y-137943643D01*
X149049676Y-137848405D01*
X149097295Y-137753167D01*
X149811580Y-138800786D02*
X149811580Y-138991262D01*
X149763961Y-139086500D01*
X149716342Y-139134120D01*
X149573485Y-139229358D01*
X149383009Y-139276977D01*
X149002057Y-139276977D01*
X148906819Y-139229358D01*
X148859200Y-139181739D01*
X148811580Y-139086500D01*
X148811580Y-138896024D01*
X148859200Y-138800786D01*
X148906819Y-138753167D01*
X149002057Y-138705548D01*
X149240152Y-138705548D01*
X149335390Y-138753167D01*
X149383009Y-138800786D01*
X149430628Y-138896024D01*
X149430628Y-139086500D01*
X149383009Y-139181739D01*
X149335390Y-139229358D01*
X149240152Y-139276977D01*
X130761580Y-136038881D02*
X129761580Y-136038881D01*
X129761580Y-136276977D01*
X129809200Y-136419834D01*
X129904438Y-136515072D01*
X129999676Y-136562691D01*
X130190152Y-136610310D01*
X130333009Y-136610310D01*
X130523485Y-136562691D01*
X130618723Y-136515072D01*
X130713961Y-136419834D01*
X130761580Y-136276977D01*
X130761580Y-136038881D01*
X130856819Y-136800786D02*
X130856819Y-137562691D01*
X130761580Y-138324596D02*
X130761580Y-137753167D01*
X130761580Y-138038881D02*
X129761580Y-138038881D01*
X129904438Y-137943643D01*
X129999676Y-137848405D01*
X130047295Y-137753167D01*
X130190152Y-138896024D02*
X130142533Y-138800786D01*
X130094914Y-138753167D01*
X129999676Y-138705548D01*
X129952057Y-138705548D01*
X129856819Y-138753167D01*
X129809200Y-138800786D01*
X129761580Y-138896024D01*
X129761580Y-139086500D01*
X129809200Y-139181739D01*
X129856819Y-139229358D01*
X129952057Y-139276977D01*
X129999676Y-139276977D01*
X130094914Y-139229358D01*
X130142533Y-139181739D01*
X130190152Y-139086500D01*
X130190152Y-138896024D01*
X130237771Y-138800786D01*
X130285390Y-138753167D01*
X130380628Y-138705548D01*
X130571104Y-138705548D01*
X130666342Y-138753167D01*
X130713961Y-138800786D01*
X130761580Y-138896024D01*
X130761580Y-139086500D01*
X130713961Y-139181739D01*
X130666342Y-139229358D01*
X130571104Y-139276977D01*
X130380628Y-139276977D01*
X130285390Y-139229358D01*
X130237771Y-139181739D01*
X130190152Y-139086500D01*
X111711580Y-136038881D02*
X110711580Y-136038881D01*
X110711580Y-136276977D01*
X110759200Y-136419834D01*
X110854438Y-136515072D01*
X110949676Y-136562691D01*
X111140152Y-136610310D01*
X111283009Y-136610310D01*
X111473485Y-136562691D01*
X111568723Y-136515072D01*
X111663961Y-136419834D01*
X111711580Y-136276977D01*
X111711580Y-136038881D01*
X111806819Y-136800786D02*
X111806819Y-137562691D01*
X111711580Y-138324596D02*
X111711580Y-137753167D01*
X111711580Y-138038881D02*
X110711580Y-138038881D01*
X110854438Y-137943643D01*
X110949676Y-137848405D01*
X110997295Y-137753167D01*
X110711580Y-138657929D02*
X110711580Y-139324596D01*
X111711580Y-138896024D01*
X92661580Y-136038881D02*
X91661580Y-136038881D01*
X91661580Y-136276977D01*
X91709200Y-136419834D01*
X91804438Y-136515072D01*
X91899676Y-136562691D01*
X92090152Y-136610310D01*
X92233009Y-136610310D01*
X92423485Y-136562691D01*
X92518723Y-136515072D01*
X92613961Y-136419834D01*
X92661580Y-136276977D01*
X92661580Y-136038881D01*
X92756819Y-136800786D02*
X92756819Y-137562691D01*
X92661580Y-138324596D02*
X92661580Y-137753167D01*
X92661580Y-138038881D02*
X91661580Y-138038881D01*
X91804438Y-137943643D01*
X91899676Y-137848405D01*
X91947295Y-137753167D01*
X91661580Y-139181739D02*
X91661580Y-138991262D01*
X91709200Y-138896024D01*
X91756819Y-138848405D01*
X91899676Y-138753167D01*
X92090152Y-138705548D01*
X92471104Y-138705548D01*
X92566342Y-138753167D01*
X92613961Y-138800786D01*
X92661580Y-138896024D01*
X92661580Y-139086500D01*
X92613961Y-139181739D01*
X92566342Y-139229358D01*
X92471104Y-139276977D01*
X92233009Y-139276977D01*
X92137771Y-139229358D01*
X92090152Y-139181739D01*
X92042533Y-139086500D01*
X92042533Y-138896024D01*
X92090152Y-138800786D01*
X92137771Y-138753167D01*
X92233009Y-138705548D01*
X349686580Y-116938881D02*
X348686580Y-116938881D01*
X348686580Y-117176977D01*
X348734200Y-117319834D01*
X348829438Y-117415072D01*
X348924676Y-117462691D01*
X349115152Y-117510310D01*
X349258009Y-117510310D01*
X349448485Y-117462691D01*
X349543723Y-117415072D01*
X349638961Y-117319834D01*
X349686580Y-117176977D01*
X349686580Y-116938881D01*
X349781819Y-117700786D02*
X349781819Y-118462691D01*
X349686580Y-119224596D02*
X349686580Y-118653167D01*
X349686580Y-118938881D02*
X348686580Y-118938881D01*
X348829438Y-118843643D01*
X348924676Y-118748405D01*
X348972295Y-118653167D01*
X348686580Y-119557929D02*
X348686580Y-120176977D01*
X349067533Y-119843643D01*
X349067533Y-119986500D01*
X349115152Y-120081739D01*
X349162771Y-120129358D01*
X349258009Y-120176977D01*
X349496104Y-120176977D01*
X349591342Y-120129358D01*
X349638961Y-120081739D01*
X349686580Y-119986500D01*
X349686580Y-119700786D01*
X349638961Y-119605548D01*
X349591342Y-119557929D01*
X311586580Y-116938881D02*
X310586580Y-116938881D01*
X310586580Y-117176977D01*
X310634200Y-117319834D01*
X310729438Y-117415072D01*
X310824676Y-117462691D01*
X311015152Y-117510310D01*
X311158009Y-117510310D01*
X311348485Y-117462691D01*
X311443723Y-117415072D01*
X311538961Y-117319834D01*
X311586580Y-117176977D01*
X311586580Y-116938881D01*
X311681819Y-117700786D02*
X311681819Y-118462691D01*
X311586580Y-119224596D02*
X311586580Y-118653167D01*
X311586580Y-118938881D02*
X310586580Y-118938881D01*
X310729438Y-118843643D01*
X310824676Y-118748405D01*
X310872295Y-118653167D01*
X310681819Y-119605548D02*
X310634200Y-119653167D01*
X310586580Y-119748405D01*
X310586580Y-119986500D01*
X310634200Y-120081739D01*
X310681819Y-120129358D01*
X310777057Y-120176977D01*
X310872295Y-120176977D01*
X311015152Y-120129358D01*
X311586580Y-119557929D01*
X311586580Y-120176977D01*
X292536580Y-116938881D02*
X291536580Y-116938881D01*
X291536580Y-117176977D01*
X291584200Y-117319834D01*
X291679438Y-117415072D01*
X291774676Y-117462691D01*
X291965152Y-117510310D01*
X292108009Y-117510310D01*
X292298485Y-117462691D01*
X292393723Y-117415072D01*
X292488961Y-117319834D01*
X292536580Y-117176977D01*
X292536580Y-116938881D01*
X292631819Y-117700786D02*
X292631819Y-118462691D01*
X292536580Y-119224596D02*
X292536580Y-118653167D01*
X292536580Y-118938881D02*
X291536580Y-118938881D01*
X291679438Y-118843643D01*
X291774676Y-118748405D01*
X291822295Y-118653167D01*
X292536580Y-120176977D02*
X292536580Y-119605548D01*
X292536580Y-119891262D02*
X291536580Y-119891262D01*
X291679438Y-119796024D01*
X291774676Y-119700786D01*
X291822295Y-119605548D01*
X273486580Y-116938881D02*
X272486580Y-116938881D01*
X272486580Y-117176977D01*
X272534200Y-117319834D01*
X272629438Y-117415072D01*
X272724676Y-117462691D01*
X272915152Y-117510310D01*
X273058009Y-117510310D01*
X273248485Y-117462691D01*
X273343723Y-117415072D01*
X273438961Y-117319834D01*
X273486580Y-117176977D01*
X273486580Y-116938881D01*
X273581819Y-117700786D02*
X273581819Y-118462691D01*
X273486580Y-119224596D02*
X273486580Y-118653167D01*
X273486580Y-118938881D02*
X272486580Y-118938881D01*
X272629438Y-118843643D01*
X272724676Y-118748405D01*
X272772295Y-118653167D01*
X272486580Y-119843643D02*
X272486580Y-119938881D01*
X272534200Y-120034120D01*
X272581819Y-120081739D01*
X272677057Y-120129358D01*
X272867533Y-120176977D01*
X273105628Y-120176977D01*
X273296104Y-120129358D01*
X273391342Y-120081739D01*
X273438961Y-120034120D01*
X273486580Y-119938881D01*
X273486580Y-119843643D01*
X273438961Y-119748405D01*
X273391342Y-119700786D01*
X273296104Y-119653167D01*
X273105628Y-119605548D01*
X272867533Y-119605548D01*
X272677057Y-119653167D01*
X272581819Y-119700786D01*
X272534200Y-119748405D01*
X272486580Y-119843643D01*
X254436580Y-117415072D02*
X253436580Y-117415072D01*
X253436580Y-117653167D01*
X253484200Y-117796024D01*
X253579438Y-117891262D01*
X253674676Y-117938881D01*
X253865152Y-117986500D01*
X254008009Y-117986500D01*
X254198485Y-117938881D01*
X254293723Y-117891262D01*
X254388961Y-117796024D01*
X254436580Y-117653167D01*
X254436580Y-117415072D01*
X254531819Y-118176977D02*
X254531819Y-118938881D01*
X254436580Y-119224596D02*
X254436580Y-119415072D01*
X254388961Y-119510310D01*
X254341342Y-119557929D01*
X254198485Y-119653167D01*
X254008009Y-119700786D01*
X253627057Y-119700786D01*
X253531819Y-119653167D01*
X253484200Y-119605548D01*
X253436580Y-119510310D01*
X253436580Y-119319834D01*
X253484200Y-119224596D01*
X253531819Y-119176977D01*
X253627057Y-119129358D01*
X253865152Y-119129358D01*
X253960390Y-119176977D01*
X254008009Y-119224596D01*
X254055628Y-119319834D01*
X254055628Y-119510310D01*
X254008009Y-119605548D01*
X253960390Y-119653167D01*
X253865152Y-119700786D01*
X235386580Y-117415072D02*
X234386580Y-117415072D01*
X234386580Y-117653167D01*
X234434200Y-117796024D01*
X234529438Y-117891262D01*
X234624676Y-117938881D01*
X234815152Y-117986500D01*
X234958009Y-117986500D01*
X235148485Y-117938881D01*
X235243723Y-117891262D01*
X235338961Y-117796024D01*
X235386580Y-117653167D01*
X235386580Y-117415072D01*
X235481819Y-118176977D02*
X235481819Y-118938881D01*
X234815152Y-119319834D02*
X234767533Y-119224596D01*
X234719914Y-119176977D01*
X234624676Y-119129358D01*
X234577057Y-119129358D01*
X234481819Y-119176977D01*
X234434200Y-119224596D01*
X234386580Y-119319834D01*
X234386580Y-119510310D01*
X234434200Y-119605548D01*
X234481819Y-119653167D01*
X234577057Y-119700786D01*
X234624676Y-119700786D01*
X234719914Y-119653167D01*
X234767533Y-119605548D01*
X234815152Y-119510310D01*
X234815152Y-119319834D01*
X234862771Y-119224596D01*
X234910390Y-119176977D01*
X235005628Y-119129358D01*
X235196104Y-119129358D01*
X235291342Y-119176977D01*
X235338961Y-119224596D01*
X235386580Y-119319834D01*
X235386580Y-119510310D01*
X235338961Y-119605548D01*
X235291342Y-119653167D01*
X235196104Y-119700786D01*
X235005628Y-119700786D01*
X234910390Y-119653167D01*
X234862771Y-119605548D01*
X234815152Y-119510310D01*
X216336580Y-117415072D02*
X215336580Y-117415072D01*
X215336580Y-117653167D01*
X215384200Y-117796024D01*
X215479438Y-117891262D01*
X215574676Y-117938881D01*
X215765152Y-117986500D01*
X215908009Y-117986500D01*
X216098485Y-117938881D01*
X216193723Y-117891262D01*
X216288961Y-117796024D01*
X216336580Y-117653167D01*
X216336580Y-117415072D01*
X216431819Y-118176977D02*
X216431819Y-118938881D01*
X215336580Y-119081739D02*
X215336580Y-119748405D01*
X216336580Y-119319834D01*
X197286580Y-117415072D02*
X196286580Y-117415072D01*
X196286580Y-117653167D01*
X196334200Y-117796024D01*
X196429438Y-117891262D01*
X196524676Y-117938881D01*
X196715152Y-117986500D01*
X196858009Y-117986500D01*
X197048485Y-117938881D01*
X197143723Y-117891262D01*
X197238961Y-117796024D01*
X197286580Y-117653167D01*
X197286580Y-117415072D01*
X197381819Y-118176977D02*
X197381819Y-118938881D01*
X196286580Y-119605548D02*
X196286580Y-119415072D01*
X196334200Y-119319834D01*
X196381819Y-119272215D01*
X196524676Y-119176977D01*
X196715152Y-119129358D01*
X197096104Y-119129358D01*
X197191342Y-119176977D01*
X197238961Y-119224596D01*
X197286580Y-119319834D01*
X197286580Y-119510310D01*
X197238961Y-119605548D01*
X197191342Y-119653167D01*
X197096104Y-119700786D01*
X196858009Y-119700786D01*
X196762771Y-119653167D01*
X196715152Y-119605548D01*
X196667533Y-119510310D01*
X196667533Y-119319834D01*
X196715152Y-119224596D01*
X196762771Y-119176977D01*
X196858009Y-119129358D01*
X178236580Y-117415072D02*
X177236580Y-117415072D01*
X177236580Y-117653167D01*
X177284200Y-117796024D01*
X177379438Y-117891262D01*
X177474676Y-117938881D01*
X177665152Y-117986500D01*
X177808009Y-117986500D01*
X177998485Y-117938881D01*
X178093723Y-117891262D01*
X178188961Y-117796024D01*
X178236580Y-117653167D01*
X178236580Y-117415072D01*
X178331819Y-118176977D02*
X178331819Y-118938881D01*
X177236580Y-119653167D02*
X177236580Y-119176977D01*
X177712771Y-119129358D01*
X177665152Y-119176977D01*
X177617533Y-119272215D01*
X177617533Y-119510310D01*
X177665152Y-119605548D01*
X177712771Y-119653167D01*
X177808009Y-119700786D01*
X178046104Y-119700786D01*
X178141342Y-119653167D01*
X178188961Y-119605548D01*
X178236580Y-119510310D01*
X178236580Y-119272215D01*
X178188961Y-119176977D01*
X178141342Y-119129358D01*
X159186580Y-117415072D02*
X158186580Y-117415072D01*
X158186580Y-117653167D01*
X158234200Y-117796024D01*
X158329438Y-117891262D01*
X158424676Y-117938881D01*
X158615152Y-117986500D01*
X158758009Y-117986500D01*
X158948485Y-117938881D01*
X159043723Y-117891262D01*
X159138961Y-117796024D01*
X159186580Y-117653167D01*
X159186580Y-117415072D01*
X159281819Y-118176977D02*
X159281819Y-118938881D01*
X158519914Y-119605548D02*
X159186580Y-119605548D01*
X158138961Y-119367453D02*
X158853247Y-119129358D01*
X158853247Y-119748405D01*
X140136580Y-117415072D02*
X139136580Y-117415072D01*
X139136580Y-117653167D01*
X139184200Y-117796024D01*
X139279438Y-117891262D01*
X139374676Y-117938881D01*
X139565152Y-117986500D01*
X139708009Y-117986500D01*
X139898485Y-117938881D01*
X139993723Y-117891262D01*
X140088961Y-117796024D01*
X140136580Y-117653167D01*
X140136580Y-117415072D01*
X140231819Y-118176977D02*
X140231819Y-118938881D01*
X139136580Y-119081739D02*
X139136580Y-119700786D01*
X139517533Y-119367453D01*
X139517533Y-119510310D01*
X139565152Y-119605548D01*
X139612771Y-119653167D01*
X139708009Y-119700786D01*
X139946104Y-119700786D01*
X140041342Y-119653167D01*
X140088961Y-119605548D01*
X140136580Y-119510310D01*
X140136580Y-119224596D01*
X140088961Y-119129358D01*
X140041342Y-119081739D01*
X121086580Y-117415072D02*
X120086580Y-117415072D01*
X120086580Y-117653167D01*
X120134200Y-117796024D01*
X120229438Y-117891262D01*
X120324676Y-117938881D01*
X120515152Y-117986500D01*
X120658009Y-117986500D01*
X120848485Y-117938881D01*
X120943723Y-117891262D01*
X121038961Y-117796024D01*
X121086580Y-117653167D01*
X121086580Y-117415072D01*
X121181819Y-118176977D02*
X121181819Y-118938881D01*
X120181819Y-119129358D02*
X120134200Y-119176977D01*
X120086580Y-119272215D01*
X120086580Y-119510310D01*
X120134200Y-119605548D01*
X120181819Y-119653167D01*
X120277057Y-119700786D01*
X120372295Y-119700786D01*
X120515152Y-119653167D01*
X121086580Y-119081739D01*
X121086580Y-119700786D01*
X102036580Y-117415072D02*
X101036580Y-117415072D01*
X101036580Y-117653167D01*
X101084200Y-117796024D01*
X101179438Y-117891262D01*
X101274676Y-117938881D01*
X101465152Y-117986500D01*
X101608009Y-117986500D01*
X101798485Y-117938881D01*
X101893723Y-117891262D01*
X101988961Y-117796024D01*
X102036580Y-117653167D01*
X102036580Y-117415072D01*
X102131819Y-118176977D02*
X102131819Y-118938881D01*
X102036580Y-119700786D02*
X102036580Y-119129358D01*
X102036580Y-119415072D02*
X101036580Y-119415072D01*
X101179438Y-119319834D01*
X101274676Y-119224596D01*
X101322295Y-119129358D01*
X82986580Y-117415072D02*
X81986580Y-117415072D01*
X81986580Y-117653167D01*
X82034200Y-117796024D01*
X82129438Y-117891262D01*
X82224676Y-117938881D01*
X82415152Y-117986500D01*
X82558009Y-117986500D01*
X82748485Y-117938881D01*
X82843723Y-117891262D01*
X82938961Y-117796024D01*
X82986580Y-117653167D01*
X82986580Y-117415072D01*
X83081819Y-118176977D02*
X83081819Y-118938881D01*
X81986580Y-119367453D02*
X81986580Y-119462691D01*
X82034200Y-119557929D01*
X82081819Y-119605548D01*
X82177057Y-119653167D01*
X82367533Y-119700786D01*
X82605628Y-119700786D01*
X82796104Y-119653167D01*
X82891342Y-119605548D01*
X82938961Y-119557929D01*
X82986580Y-119462691D01*
X82986580Y-119367453D01*
X82938961Y-119272215D01*
X82891342Y-119224596D01*
X82796104Y-119176977D01*
X82605628Y-119129358D01*
X82367533Y-119129358D01*
X82177057Y-119176977D01*
X82081819Y-119224596D01*
X82034200Y-119272215D01*
X81986580Y-119367453D01*
M02*
