%FSLAX45Y45*%
G04 Gerber Fmt 4.5, Leading zero omitted, Abs format (unit mm)*
G04 Created by KiCad (PCBNEW (5.1.9)-1) date 2021-05-17 18:05:24*
%MOMM*%
%LPD*%
G01*
G04 APERTURE LIST*
%TA.AperFunction,Profile*%
%ADD10C,0.100000*%
%TD*%
%ADD11C,0.200000*%
%ADD12C,0.300000*%
G04 APERTURE END LIST*
D10*
X6700000Y-19695000D02*
X38280000Y-19695000D01*
X38280000Y-9765000D02*
X6700000Y-9765000D01*
X38280000Y-9765000D02*
G75*
G02*
X38530000Y-10015000I0J-250000D01*
G01*
X6450000Y-19445000D02*
X6450000Y-10015000D01*
X6700000Y-19695000D02*
G75*
G02*
X6450000Y-19445000I0J250000D01*
G01*
X38530000Y-19445000D02*
G75*
G02*
X38280000Y-19695000I-250000J0D01*
G01*
X6450000Y-10015000D02*
G75*
G02*
X6700000Y-9765000I250000J0D01*
G01*
X38530000Y-19445000D02*
X38530000Y-10015000D01*
D11*
X35838000Y-9851000D02*
X35940000Y-9953000D01*
X35940000Y-9851000D02*
X35838000Y-9953000D01*
X35838000Y-10105000D02*
X35940000Y-10207000D01*
X35940000Y-10105000D02*
X35838000Y-10207000D01*
X35838000Y-10359000D02*
X35940000Y-10461000D01*
X35940000Y-10359000D02*
X35838000Y-10461000D01*
X35838000Y-10613000D02*
X35940000Y-10715000D01*
X35940000Y-10613000D02*
X35838000Y-10715000D01*
X35838000Y-10867000D02*
X35940000Y-10969000D01*
X35940000Y-10867000D02*
X35838000Y-10969000D01*
X35838000Y-11121000D02*
X35940000Y-11223000D01*
X35940000Y-11121000D02*
X35838000Y-11223000D01*
X35838000Y-11375000D02*
X35940000Y-11477000D01*
X35940000Y-11375000D02*
X35838000Y-11477000D01*
X35838000Y-11629000D02*
X35940000Y-11731000D01*
X35940000Y-11629000D02*
X35838000Y-11731000D01*
X35838000Y-11883000D02*
X35940000Y-11985000D01*
X35940000Y-11883000D02*
X35838000Y-11985000D01*
X35838000Y-12137000D02*
X35940000Y-12239000D01*
X35940000Y-12137000D02*
X35838000Y-12239000D01*
X35838000Y-12391000D02*
X35940000Y-12493000D01*
X35940000Y-12391000D02*
X35838000Y-12493000D01*
X35838000Y-12645000D02*
X35940000Y-12747000D01*
X35940000Y-12645000D02*
X35838000Y-12747000D01*
X35838000Y-12899000D02*
X35940000Y-13001000D01*
X35940000Y-12899000D02*
X35838000Y-13001000D01*
X35838000Y-13153000D02*
X35940000Y-13255000D01*
X35940000Y-13153000D02*
X35838000Y-13255000D01*
X35838000Y-13407000D02*
X35940000Y-13509000D01*
X35940000Y-13407000D02*
X35838000Y-13509000D01*
X35838000Y-13661000D02*
X35940000Y-13763000D01*
X35940000Y-13661000D02*
X35838000Y-13763000D01*
X35838000Y-13915000D02*
X35940000Y-14017000D01*
X35940000Y-13915000D02*
X35838000Y-14017000D01*
X35838000Y-14169000D02*
X35940000Y-14271000D01*
X35940000Y-14169000D02*
X35838000Y-14271000D01*
X35838000Y-14423000D02*
X35940000Y-14525000D01*
X35940000Y-14423000D02*
X35838000Y-14525000D01*
X35838000Y-14677000D02*
X35940000Y-14779000D01*
X35940000Y-14677000D02*
X35838000Y-14779000D01*
X37616000Y-9851000D02*
X37718000Y-9953000D01*
X37718000Y-9851000D02*
X37616000Y-9953000D01*
X37616000Y-10105000D02*
X37718000Y-10207000D01*
X37718000Y-10105000D02*
X37616000Y-10207000D01*
X37616000Y-10359000D02*
X37718000Y-10461000D01*
X37718000Y-10359000D02*
X37616000Y-10461000D01*
X37616000Y-10613000D02*
X37718000Y-10715000D01*
X37718000Y-10613000D02*
X37616000Y-10715000D01*
X37616000Y-10867000D02*
X37718000Y-10969000D01*
X37718000Y-10867000D02*
X37616000Y-10969000D01*
X37616000Y-11121000D02*
X37718000Y-11223000D01*
X37718000Y-11121000D02*
X37616000Y-11223000D01*
X37616000Y-11375000D02*
X37718000Y-11477000D01*
X37718000Y-11375000D02*
X37616000Y-11477000D01*
X37616000Y-11629000D02*
X37718000Y-11731000D01*
X37718000Y-11629000D02*
X37616000Y-11731000D01*
X37616000Y-11883000D02*
X37718000Y-11985000D01*
X37718000Y-11883000D02*
X37616000Y-11985000D01*
X37616000Y-12137000D02*
X37718000Y-12239000D01*
X37718000Y-12137000D02*
X37616000Y-12239000D01*
X37616000Y-12391000D02*
X37718000Y-12493000D01*
X37718000Y-12391000D02*
X37616000Y-12493000D01*
X37616000Y-12645000D02*
X37718000Y-12747000D01*
X37718000Y-12645000D02*
X37616000Y-12747000D01*
X37616000Y-12899000D02*
X37718000Y-13001000D01*
X37718000Y-12899000D02*
X37616000Y-13001000D01*
X37616000Y-13153000D02*
X37718000Y-13255000D01*
X37718000Y-13153000D02*
X37616000Y-13255000D01*
X37616000Y-13407000D02*
X37718000Y-13509000D01*
X37718000Y-13407000D02*
X37616000Y-13509000D01*
X37616000Y-13661000D02*
X37718000Y-13763000D01*
X37718000Y-13661000D02*
X37616000Y-13763000D01*
X37616000Y-13915000D02*
X37718000Y-14017000D01*
X37718000Y-13915000D02*
X37616000Y-14017000D01*
X37616000Y-14169000D02*
X37718000Y-14271000D01*
X37718000Y-14169000D02*
X37616000Y-14271000D01*
X37616000Y-14423000D02*
X37718000Y-14525000D01*
X37718000Y-14423000D02*
X37616000Y-14525000D01*
X37616000Y-14677000D02*
X37718000Y-14779000D01*
X37718000Y-14677000D02*
X37616000Y-14779000D01*
X6943420Y-10896912D02*
G75*
G03*
X6943420Y-10896912I-73500J0D01*
G01*
X7181545Y-16611912D02*
G75*
G03*
X7181545Y-16611912I-73500J0D01*
G01*
X7181545Y-18516912D02*
G75*
G03*
X7181545Y-18516912I-73500J0D01*
G01*
X7419670Y-12801912D02*
G75*
G03*
X7419670Y-12801912I-73500J0D01*
G01*
X7578420Y-10642912D02*
G75*
G03*
X7578420Y-10642912I-73500J0D01*
G01*
X7660920Y-14706912D02*
G75*
G03*
X7660920Y-14706912I-73500J0D01*
G01*
X7816545Y-16357912D02*
G75*
G03*
X7816545Y-16357912I-73500J0D01*
G01*
X7816545Y-18262912D02*
G75*
G03*
X7816545Y-18262912I-73500J0D01*
G01*
X8054670Y-12547912D02*
G75*
G03*
X8054670Y-12547912I-73500J0D01*
G01*
X8295920Y-14452912D02*
G75*
G03*
X8295920Y-14452912I-73500J0D01*
G01*
X8848420Y-10896912D02*
G75*
G03*
X8848420Y-10896912I-73500J0D01*
G01*
X9324670Y-16611912D02*
G75*
G03*
X9324670Y-16611912I-73500J0D01*
G01*
X9483420Y-10642912D02*
G75*
G03*
X9483420Y-10642912I-73500J0D01*
G01*
X9562795Y-18516912D02*
G75*
G03*
X9562795Y-18516912I-73500J0D01*
G01*
X9800920Y-12801912D02*
G75*
G03*
X9800920Y-12801912I-73500J0D01*
G01*
X9959670Y-16357912D02*
G75*
G03*
X9959670Y-16357912I-73500J0D01*
G01*
X10197795Y-18262912D02*
G75*
G03*
X10197795Y-18262912I-73500J0D01*
G01*
X10277170Y-14706912D02*
G75*
G03*
X10277170Y-14706912I-73500J0D01*
G01*
X10435920Y-12547912D02*
G75*
G03*
X10435920Y-12547912I-73500J0D01*
G01*
X10753420Y-10896912D02*
G75*
G03*
X10753420Y-10896912I-73500J0D01*
G01*
X10912170Y-14452912D02*
G75*
G03*
X10912170Y-14452912I-73500J0D01*
G01*
X11229670Y-16611912D02*
G75*
G03*
X11229670Y-16611912I-73500J0D01*
G01*
X11388420Y-10642912D02*
G75*
G03*
X11388420Y-10642912I-73500J0D01*
G01*
X11705920Y-12801912D02*
G75*
G03*
X11705920Y-12801912I-73500J0D01*
G01*
X11864670Y-16357912D02*
G75*
G03*
X11864670Y-16357912I-73500J0D01*
G01*
X11944045Y-18516912D02*
G75*
G03*
X11944045Y-18516912I-73500J0D01*
G01*
X12182170Y-14706912D02*
G75*
G03*
X12182170Y-14706912I-73500J0D01*
G01*
X12340920Y-12547912D02*
G75*
G03*
X12340920Y-12547912I-73500J0D01*
G01*
X12579045Y-18262912D02*
G75*
G03*
X12579045Y-18262912I-73500J0D01*
G01*
X12658420Y-10896912D02*
G75*
G03*
X12658420Y-10896912I-73500J0D01*
G01*
X12817170Y-14452912D02*
G75*
G03*
X12817170Y-14452912I-73500J0D01*
G01*
X13134670Y-16611912D02*
G75*
G03*
X13134670Y-16611912I-73500J0D01*
G01*
X13293420Y-10642912D02*
G75*
G03*
X13293420Y-10642912I-73500J0D01*
G01*
X13610920Y-12801912D02*
G75*
G03*
X13610920Y-12801912I-73500J0D01*
G01*
X13769670Y-16357912D02*
G75*
G03*
X13769670Y-16357912I-73500J0D01*
G01*
X14087170Y-14706912D02*
G75*
G03*
X14087170Y-14706912I-73500J0D01*
G01*
X14245920Y-12547912D02*
G75*
G03*
X14245920Y-12547912I-73500J0D01*
G01*
X14563420Y-10896912D02*
G75*
G03*
X14563420Y-10896912I-73500J0D01*
G01*
X14722170Y-14452912D02*
G75*
G03*
X14722170Y-14452912I-73500J0D01*
G01*
X15039670Y-16611912D02*
G75*
G03*
X15039670Y-16611912I-73500J0D01*
G01*
X15198420Y-10642912D02*
G75*
G03*
X15198420Y-10642912I-73500J0D01*
G01*
X15277795Y-18516912D02*
G75*
G03*
X15277795Y-18516912I-73500J0D01*
G01*
X15515920Y-12801912D02*
G75*
G03*
X15515920Y-12801912I-73500J0D01*
G01*
X15674670Y-16357912D02*
G75*
G03*
X15674670Y-16357912I-73500J0D01*
G01*
X15912795Y-18262912D02*
G75*
G03*
X15912795Y-18262912I-73500J0D01*
G01*
X15992170Y-14706912D02*
G75*
G03*
X15992170Y-14706912I-73500J0D01*
G01*
X16150920Y-12547912D02*
G75*
G03*
X16150920Y-12547912I-73500J0D01*
G01*
X16468420Y-10896912D02*
G75*
G03*
X16468420Y-10896912I-73500J0D01*
G01*
X16627170Y-14452912D02*
G75*
G03*
X16627170Y-14452912I-73500J0D01*
G01*
X16944670Y-16611912D02*
G75*
G03*
X16944670Y-16611912I-73500J0D01*
G01*
X17103420Y-10642912D02*
G75*
G03*
X17103420Y-10642912I-73500J0D01*
G01*
X17420920Y-12801912D02*
G75*
G03*
X17420920Y-12801912I-73500J0D01*
G01*
X17579670Y-16357912D02*
G75*
G03*
X17579670Y-16357912I-73500J0D01*
G01*
X17897170Y-14706912D02*
G75*
G03*
X17897170Y-14706912I-73500J0D01*
G01*
X18055920Y-12547912D02*
G75*
G03*
X18055920Y-12547912I-73500J0D01*
G01*
X18373420Y-10896912D02*
G75*
G03*
X18373420Y-10896912I-73500J0D01*
G01*
X18532170Y-14452912D02*
G75*
G03*
X18532170Y-14452912I-73500J0D01*
G01*
X18849670Y-16611912D02*
G75*
G03*
X18849670Y-16611912I-73500J0D01*
G01*
X19008420Y-10642912D02*
G75*
G03*
X19008420Y-10642912I-73500J0D01*
G01*
X19087795Y-18516912D02*
G75*
G03*
X19087795Y-18516912I-73500J0D01*
G01*
X19325920Y-12801912D02*
G75*
G03*
X19325920Y-12801912I-73500J0D01*
G01*
X19484670Y-16357912D02*
G75*
G03*
X19484670Y-16357912I-73500J0D01*
G01*
X19722795Y-18262912D02*
G75*
G03*
X19722795Y-18262912I-73500J0D01*
G01*
X19802170Y-14706912D02*
G75*
G03*
X19802170Y-14706912I-73500J0D01*
G01*
X19960920Y-12547912D02*
G75*
G03*
X19960920Y-12547912I-73500J0D01*
G01*
X20278420Y-10896912D02*
G75*
G03*
X20278420Y-10896912I-73500J0D01*
G01*
X20437170Y-14452912D02*
G75*
G03*
X20437170Y-14452912I-73500J0D01*
G01*
X20754670Y-16611912D02*
G75*
G03*
X20754670Y-16611912I-73500J0D01*
G01*
X20913420Y-10642912D02*
G75*
G03*
X20913420Y-10642912I-73500J0D01*
G01*
X21230920Y-12801912D02*
G75*
G03*
X21230920Y-12801912I-73500J0D01*
G01*
X21389670Y-16357912D02*
G75*
G03*
X21389670Y-16357912I-73500J0D01*
G01*
X21707170Y-14706912D02*
G75*
G03*
X21707170Y-14706912I-73500J0D01*
G01*
X21865920Y-12547912D02*
G75*
G03*
X21865920Y-12547912I-73500J0D01*
G01*
X22183420Y-10896912D02*
G75*
G03*
X22183420Y-10896912I-73500J0D01*
G01*
X22342170Y-14452912D02*
G75*
G03*
X22342170Y-14452912I-73500J0D01*
G01*
X22659670Y-16611912D02*
G75*
G03*
X22659670Y-16611912I-73500J0D01*
G01*
X22818420Y-10642912D02*
G75*
G03*
X22818420Y-10642912I-73500J0D01*
G01*
X22897795Y-18516912D02*
G75*
G03*
X22897795Y-18516912I-73500J0D01*
G01*
X23135920Y-12801912D02*
G75*
G03*
X23135920Y-12801912I-73500J0D01*
G01*
X23294670Y-16357912D02*
G75*
G03*
X23294670Y-16357912I-73500J0D01*
G01*
X23532795Y-18262912D02*
G75*
G03*
X23532795Y-18262912I-73500J0D01*
G01*
X23612170Y-14706912D02*
G75*
G03*
X23612170Y-14706912I-73500J0D01*
G01*
X23770920Y-12547912D02*
G75*
G03*
X23770920Y-12547912I-73500J0D01*
G01*
X24088420Y-10896912D02*
G75*
G03*
X24088420Y-10896912I-73500J0D01*
G01*
X24247170Y-14452912D02*
G75*
G03*
X24247170Y-14452912I-73500J0D01*
G01*
X24564670Y-16611912D02*
G75*
G03*
X24564670Y-16611912I-73500J0D01*
G01*
X24723420Y-10642912D02*
G75*
G03*
X24723420Y-10642912I-73500J0D01*
G01*
X25040920Y-12801912D02*
G75*
G03*
X25040920Y-12801912I-73500J0D01*
G01*
X25199670Y-16357912D02*
G75*
G03*
X25199670Y-16357912I-73500J0D01*
G01*
X25517170Y-14706912D02*
G75*
G03*
X25517170Y-14706912I-73500J0D01*
G01*
X25675920Y-12547912D02*
G75*
G03*
X25675920Y-12547912I-73500J0D01*
G01*
X25993420Y-10896912D02*
G75*
G03*
X25993420Y-10896912I-73500J0D01*
G01*
X25993420Y-18516912D02*
G75*
G03*
X25993420Y-18516912I-73500J0D01*
G01*
X26152170Y-14452912D02*
G75*
G03*
X26152170Y-14452912I-73500J0D01*
G01*
X26469670Y-16611912D02*
G75*
G03*
X26469670Y-16611912I-73500J0D01*
G01*
X26628420Y-10642912D02*
G75*
G03*
X26628420Y-10642912I-73500J0D01*
G01*
X26628420Y-18262912D02*
G75*
G03*
X26628420Y-18262912I-73500J0D01*
G01*
X26945920Y-12801912D02*
G75*
G03*
X26945920Y-12801912I-73500J0D01*
G01*
X27104670Y-16357912D02*
G75*
G03*
X27104670Y-16357912I-73500J0D01*
G01*
X27422170Y-14706912D02*
G75*
G03*
X27422170Y-14706912I-73500J0D01*
G01*
X27580920Y-12547912D02*
G75*
G03*
X27580920Y-12547912I-73500J0D01*
G01*
X27898420Y-10896912D02*
G75*
G03*
X27898420Y-10896912I-73500J0D01*
G01*
X27898420Y-18516912D02*
G75*
G03*
X27898420Y-18516912I-73500J0D01*
G01*
X28057170Y-14452912D02*
G75*
G03*
X28057170Y-14452912I-73500J0D01*
G01*
X28374670Y-16611912D02*
G75*
G03*
X28374670Y-16611912I-73500J0D01*
G01*
X28533420Y-10642912D02*
G75*
G03*
X28533420Y-10642912I-73500J0D01*
G01*
X28533420Y-18262912D02*
G75*
G03*
X28533420Y-18262912I-73500J0D01*
G01*
X28850920Y-12801912D02*
G75*
G03*
X28850920Y-12801912I-73500J0D01*
G01*
X29009670Y-16357912D02*
G75*
G03*
X29009670Y-16357912I-73500J0D01*
G01*
X29327170Y-14706912D02*
G75*
G03*
X29327170Y-14706912I-73500J0D01*
G01*
X29485920Y-12547912D02*
G75*
G03*
X29485920Y-12547912I-73500J0D01*
G01*
X29803420Y-10896912D02*
G75*
G03*
X29803420Y-10896912I-73500J0D01*
G01*
X29803420Y-18516912D02*
G75*
G03*
X29803420Y-18516912I-73500J0D01*
G01*
X29962170Y-14452912D02*
G75*
G03*
X29962170Y-14452912I-73500J0D01*
G01*
X30438420Y-10642912D02*
G75*
G03*
X30438420Y-10642912I-73500J0D01*
G01*
X30438420Y-18262912D02*
G75*
G03*
X30438420Y-18262912I-73500J0D01*
G01*
X30755920Y-12801912D02*
G75*
G03*
X30755920Y-12801912I-73500J0D01*
G01*
X30995920Y-16611912D02*
G75*
G03*
X30995920Y-16611912I-73500J0D01*
G01*
X31232170Y-14706912D02*
G75*
G03*
X31232170Y-14706912I-73500J0D01*
G01*
X31390920Y-12547912D02*
G75*
G03*
X31390920Y-12547912I-73500J0D01*
G01*
X31630920Y-16357912D02*
G75*
G03*
X31630920Y-16357912I-73500J0D01*
G01*
X31708420Y-18516912D02*
G75*
G03*
X31708420Y-18516912I-73500J0D01*
G01*
X31867170Y-14452912D02*
G75*
G03*
X31867170Y-14452912I-73500J0D01*
G01*
X32343420Y-18262912D02*
G75*
G03*
X32343420Y-18262912I-73500J0D01*
G01*
X32660920Y-10896912D02*
G75*
G03*
X32660920Y-10896912I-73500J0D01*
G01*
X33295920Y-10642912D02*
G75*
G03*
X33295920Y-10642912I-73500J0D01*
G01*
X33613420Y-16611912D02*
G75*
G03*
X33613420Y-16611912I-73500J0D01*
G01*
X33613420Y-18516912D02*
G75*
G03*
X33613420Y-18516912I-73500J0D01*
G01*
X34010920Y-13627412D02*
G75*
G03*
X34010920Y-13627412I-73500J0D01*
G01*
X34248420Y-16357912D02*
G75*
G03*
X34248420Y-16357912I-73500J0D01*
G01*
X34248420Y-18262912D02*
G75*
G03*
X34248420Y-18262912I-73500J0D01*
G01*
X34264920Y-14262412D02*
G75*
G03*
X34264920Y-14262412I-73500J0D01*
G01*
X35518420Y-16611912D02*
G75*
G03*
X35518420Y-16611912I-73500J0D01*
G01*
X35518420Y-18516912D02*
G75*
G03*
X35518420Y-18516912I-73500J0D01*
G01*
X36153420Y-16357912D02*
G75*
G03*
X36153420Y-16357912I-73500J0D01*
G01*
X36153420Y-18262912D02*
G75*
G03*
X36153420Y-18262912I-73500J0D01*
G01*
X37423420Y-16611912D02*
G75*
G03*
X37423420Y-16611912I-73500J0D01*
G01*
X37423420Y-18516912D02*
G75*
G03*
X37423420Y-18516912I-73500J0D01*
G01*
X38058420Y-16357912D02*
G75*
G03*
X38058420Y-16357912I-73500J0D01*
G01*
X38058420Y-18262912D02*
G75*
G03*
X38058420Y-18262912I-73500J0D01*
G01*
D12*
X6731428Y-20165714D02*
X6731428Y-19865714D01*
X6802857Y-19865714D01*
X6845714Y-19880000D01*
X6874286Y-19908572D01*
X6888571Y-19937143D01*
X6902857Y-19994286D01*
X6902857Y-20037143D01*
X6888571Y-20094286D01*
X6874286Y-20122857D01*
X6845714Y-20151429D01*
X6802857Y-20165714D01*
X6731428Y-20165714D01*
X7031428Y-20165714D02*
X7031428Y-19965714D01*
X7031428Y-20022857D02*
X7045714Y-19994286D01*
X7060000Y-19980000D01*
X7088571Y-19965714D01*
X7117143Y-19965714D01*
X7217143Y-20165714D02*
X7217143Y-19965714D01*
X7217143Y-19865714D02*
X7202857Y-19880000D01*
X7217143Y-19894286D01*
X7231428Y-19880000D01*
X7217143Y-19865714D01*
X7217143Y-19894286D01*
X7402857Y-20165714D02*
X7374286Y-20151429D01*
X7360000Y-20122857D01*
X7360000Y-19865714D01*
X7560000Y-20165714D02*
X7531428Y-20151429D01*
X7517143Y-20122857D01*
X7517143Y-19865714D01*
X7902857Y-20165714D02*
X7902857Y-19865714D01*
X8002857Y-20080000D01*
X8102857Y-19865714D01*
X8102857Y-20165714D01*
X8374286Y-20165714D02*
X8374286Y-20008572D01*
X8360000Y-19980000D01*
X8331428Y-19965714D01*
X8274286Y-19965714D01*
X8245714Y-19980000D01*
X8374286Y-20151429D02*
X8345714Y-20165714D01*
X8274286Y-20165714D01*
X8245714Y-20151429D01*
X8231428Y-20122857D01*
X8231428Y-20094286D01*
X8245714Y-20065714D01*
X8274286Y-20051429D01*
X8345714Y-20051429D01*
X8374286Y-20037143D01*
X8517143Y-19965714D02*
X8517143Y-20265714D01*
X8517143Y-19980000D02*
X8545714Y-19965714D01*
X8602857Y-19965714D01*
X8631428Y-19980000D01*
X8645714Y-19994286D01*
X8660000Y-20022857D01*
X8660000Y-20108572D01*
X8645714Y-20137143D01*
X8631428Y-20151429D01*
X8602857Y-20165714D01*
X8545714Y-20165714D01*
X8517143Y-20151429D01*
X8788571Y-20137143D02*
X8802857Y-20151429D01*
X8788571Y-20165714D01*
X8774286Y-20151429D01*
X8788571Y-20137143D01*
X8788571Y-20165714D01*
X8788571Y-19980000D02*
X8802857Y-19994286D01*
X8788571Y-20008572D01*
X8774286Y-19994286D01*
X8788571Y-19980000D01*
X8788571Y-20008572D01*
X6343000Y-20609000D02*
X6445000Y-20711000D01*
X6445000Y-20609000D02*
X6343000Y-20711000D01*
X6888571Y-20795714D02*
X6717143Y-20795714D01*
X6802857Y-20795714D02*
X6802857Y-20495714D01*
X6774286Y-20538572D01*
X6745714Y-20567143D01*
X6717143Y-20581429D01*
X7017143Y-20767143D02*
X7031428Y-20781429D01*
X7017143Y-20795714D01*
X7002857Y-20781429D01*
X7017143Y-20767143D01*
X7017143Y-20795714D01*
X7217143Y-20495714D02*
X7245714Y-20495714D01*
X7274286Y-20510000D01*
X7288571Y-20524286D01*
X7302857Y-20552857D01*
X7317143Y-20610000D01*
X7317143Y-20681429D01*
X7302857Y-20738572D01*
X7288571Y-20767143D01*
X7274286Y-20781429D01*
X7245714Y-20795714D01*
X7217143Y-20795714D01*
X7188571Y-20781429D01*
X7174286Y-20767143D01*
X7160000Y-20738572D01*
X7145714Y-20681429D01*
X7145714Y-20610000D01*
X7160000Y-20552857D01*
X7174286Y-20524286D01*
X7188571Y-20510000D01*
X7217143Y-20495714D01*
X7431428Y-20524286D02*
X7445714Y-20510000D01*
X7474286Y-20495714D01*
X7545714Y-20495714D01*
X7574286Y-20510000D01*
X7588571Y-20524286D01*
X7602857Y-20552857D01*
X7602857Y-20581429D01*
X7588571Y-20624286D01*
X7417143Y-20795714D01*
X7602857Y-20795714D01*
X7731428Y-20795714D02*
X7731428Y-20595714D01*
X7731428Y-20624286D02*
X7745714Y-20610000D01*
X7774286Y-20595714D01*
X7817143Y-20595714D01*
X7845714Y-20610000D01*
X7860000Y-20638572D01*
X7860000Y-20795714D01*
X7860000Y-20638572D02*
X7874286Y-20610000D01*
X7902857Y-20595714D01*
X7945714Y-20595714D01*
X7974286Y-20610000D01*
X7988571Y-20638572D01*
X7988571Y-20795714D01*
X8131428Y-20795714D02*
X8131428Y-20595714D01*
X8131428Y-20624286D02*
X8145714Y-20610000D01*
X8174286Y-20595714D01*
X8217143Y-20595714D01*
X8245714Y-20610000D01*
X8260000Y-20638572D01*
X8260000Y-20795714D01*
X8260000Y-20638572D02*
X8274286Y-20610000D01*
X8302857Y-20595714D01*
X8345714Y-20595714D01*
X8374286Y-20610000D01*
X8388571Y-20638572D01*
X8388571Y-20795714D01*
X8974286Y-20481429D02*
X8717143Y-20867143D01*
X9360000Y-20495714D02*
X9388571Y-20495714D01*
X9417143Y-20510000D01*
X9431428Y-20524286D01*
X9445714Y-20552857D01*
X9460000Y-20610000D01*
X9460000Y-20681429D01*
X9445714Y-20738572D01*
X9431428Y-20767143D01*
X9417143Y-20781429D01*
X9388571Y-20795714D01*
X9360000Y-20795714D01*
X9331428Y-20781429D01*
X9317143Y-20767143D01*
X9302857Y-20738572D01*
X9288571Y-20681429D01*
X9288571Y-20610000D01*
X9302857Y-20552857D01*
X9317143Y-20524286D01*
X9331428Y-20510000D01*
X9360000Y-20495714D01*
X9588571Y-20767143D02*
X9602857Y-20781429D01*
X9588571Y-20795714D01*
X9574286Y-20781429D01*
X9588571Y-20767143D01*
X9588571Y-20795714D01*
X9788571Y-20495714D02*
X9817143Y-20495714D01*
X9845714Y-20510000D01*
X9860000Y-20524286D01*
X9874286Y-20552857D01*
X9888571Y-20610000D01*
X9888571Y-20681429D01*
X9874286Y-20738572D01*
X9860000Y-20767143D01*
X9845714Y-20781429D01*
X9817143Y-20795714D01*
X9788571Y-20795714D01*
X9760000Y-20781429D01*
X9745714Y-20767143D01*
X9731428Y-20738572D01*
X9717143Y-20681429D01*
X9717143Y-20610000D01*
X9731428Y-20552857D01*
X9745714Y-20524286D01*
X9760000Y-20510000D01*
X9788571Y-20495714D01*
X10145714Y-20595714D02*
X10145714Y-20795714D01*
X10074286Y-20481429D02*
X10002857Y-20695714D01*
X10188571Y-20695714D01*
X10360000Y-20495714D02*
X10388571Y-20495714D01*
X10417143Y-20510000D01*
X10431428Y-20524286D01*
X10445714Y-20552857D01*
X10460000Y-20610000D01*
X10460000Y-20681429D01*
X10445714Y-20738572D01*
X10431428Y-20767143D01*
X10417143Y-20781429D01*
X10388571Y-20795714D01*
X10360000Y-20795714D01*
X10331428Y-20781429D01*
X10317143Y-20767143D01*
X10302857Y-20738572D01*
X10288571Y-20681429D01*
X10288571Y-20610000D01*
X10302857Y-20552857D01*
X10317143Y-20524286D01*
X10331428Y-20510000D01*
X10360000Y-20495714D01*
X10574286Y-20495714D02*
X10574286Y-20552857D01*
X10688571Y-20495714D02*
X10688571Y-20552857D01*
X11131428Y-20910000D02*
X11117143Y-20895714D01*
X11088571Y-20852857D01*
X11074286Y-20824286D01*
X11060000Y-20781429D01*
X11045714Y-20710000D01*
X11045714Y-20652857D01*
X11060000Y-20581429D01*
X11074286Y-20538572D01*
X11088571Y-20510000D01*
X11117143Y-20467143D01*
X11131428Y-20452857D01*
X11374286Y-20595714D02*
X11374286Y-20795714D01*
X11302857Y-20481429D02*
X11231428Y-20695714D01*
X11417143Y-20695714D01*
X11588571Y-20495714D02*
X11617143Y-20495714D01*
X11645714Y-20510000D01*
X11660000Y-20524286D01*
X11674286Y-20552857D01*
X11688571Y-20610000D01*
X11688571Y-20681429D01*
X11674286Y-20738572D01*
X11660000Y-20767143D01*
X11645714Y-20781429D01*
X11617143Y-20795714D01*
X11588571Y-20795714D01*
X11560000Y-20781429D01*
X11545714Y-20767143D01*
X11531428Y-20738572D01*
X11517143Y-20681429D01*
X11517143Y-20610000D01*
X11531428Y-20552857D01*
X11545714Y-20524286D01*
X11560000Y-20510000D01*
X11588571Y-20495714D01*
X12045714Y-20795714D02*
X12045714Y-20495714D01*
X12174286Y-20795714D02*
X12174286Y-20638572D01*
X12160000Y-20610000D01*
X12131428Y-20595714D01*
X12088571Y-20595714D01*
X12060000Y-20610000D01*
X12045714Y-20624286D01*
X12360000Y-20795714D02*
X12331428Y-20781429D01*
X12317143Y-20767143D01*
X12302857Y-20738572D01*
X12302857Y-20652857D01*
X12317143Y-20624286D01*
X12331428Y-20610000D01*
X12360000Y-20595714D01*
X12402857Y-20595714D01*
X12431428Y-20610000D01*
X12445714Y-20624286D01*
X12460000Y-20652857D01*
X12460000Y-20738572D01*
X12445714Y-20767143D01*
X12431428Y-20781429D01*
X12402857Y-20795714D01*
X12360000Y-20795714D01*
X12631428Y-20795714D02*
X12602857Y-20781429D01*
X12588571Y-20752857D01*
X12588571Y-20495714D01*
X12860000Y-20781429D02*
X12831428Y-20795714D01*
X12774286Y-20795714D01*
X12745714Y-20781429D01*
X12731428Y-20752857D01*
X12731428Y-20638572D01*
X12745714Y-20610000D01*
X12774286Y-20595714D01*
X12831428Y-20595714D01*
X12860000Y-20610000D01*
X12874286Y-20638572D01*
X12874286Y-20667143D01*
X12731428Y-20695714D01*
X12988571Y-20781429D02*
X13017143Y-20795714D01*
X13074286Y-20795714D01*
X13102857Y-20781429D01*
X13117143Y-20752857D01*
X13117143Y-20738572D01*
X13102857Y-20710000D01*
X13074286Y-20695714D01*
X13031428Y-20695714D01*
X13002857Y-20681429D01*
X12988571Y-20652857D01*
X12988571Y-20638572D01*
X13002857Y-20610000D01*
X13031428Y-20595714D01*
X13074286Y-20595714D01*
X13102857Y-20610000D01*
X13217143Y-20910000D02*
X13231428Y-20895714D01*
X13260000Y-20852857D01*
X13274286Y-20824286D01*
X13288571Y-20781429D01*
X13302857Y-20710000D01*
X13302857Y-20652857D01*
X13288571Y-20581429D01*
X13274286Y-20538572D01*
X13260000Y-20510000D01*
X13231428Y-20467143D01*
X13217143Y-20452857D01*
X6445000Y-21056000D02*
G75*
G03*
X6445000Y-21056000I-73500J0D01*
G01*
X6888571Y-21191714D02*
X6717143Y-21191714D01*
X6802857Y-21191714D02*
X6802857Y-20891714D01*
X6774286Y-20934572D01*
X6745714Y-20963143D01*
X6717143Y-20977429D01*
X7017143Y-21163143D02*
X7031428Y-21177429D01*
X7017143Y-21191714D01*
X7002857Y-21177429D01*
X7017143Y-21163143D01*
X7017143Y-21191714D01*
X7288571Y-20991714D02*
X7288571Y-21191714D01*
X7217143Y-20877429D02*
X7145714Y-21091714D01*
X7331428Y-21091714D01*
X7417143Y-20891714D02*
X7617143Y-20891714D01*
X7488571Y-21191714D01*
X7731428Y-21191714D02*
X7731428Y-20991714D01*
X7731428Y-21020286D02*
X7745714Y-21006000D01*
X7774286Y-20991714D01*
X7817143Y-20991714D01*
X7845714Y-21006000D01*
X7860000Y-21034572D01*
X7860000Y-21191714D01*
X7860000Y-21034572D02*
X7874286Y-21006000D01*
X7902857Y-20991714D01*
X7945714Y-20991714D01*
X7974286Y-21006000D01*
X7988571Y-21034572D01*
X7988571Y-21191714D01*
X8131428Y-21191714D02*
X8131428Y-20991714D01*
X8131428Y-21020286D02*
X8145714Y-21006000D01*
X8174286Y-20991714D01*
X8217143Y-20991714D01*
X8245714Y-21006000D01*
X8260000Y-21034572D01*
X8260000Y-21191714D01*
X8260000Y-21034572D02*
X8274286Y-21006000D01*
X8302857Y-20991714D01*
X8345714Y-20991714D01*
X8374286Y-21006000D01*
X8388571Y-21034572D01*
X8388571Y-21191714D01*
X8974286Y-20877429D02*
X8717143Y-21263143D01*
X9360000Y-20891714D02*
X9388571Y-20891714D01*
X9417143Y-20906000D01*
X9431428Y-20920286D01*
X9445714Y-20948857D01*
X9460000Y-21006000D01*
X9460000Y-21077429D01*
X9445714Y-21134572D01*
X9431428Y-21163143D01*
X9417143Y-21177429D01*
X9388571Y-21191714D01*
X9360000Y-21191714D01*
X9331428Y-21177429D01*
X9317143Y-21163143D01*
X9302857Y-21134572D01*
X9288571Y-21077429D01*
X9288571Y-21006000D01*
X9302857Y-20948857D01*
X9317143Y-20920286D01*
X9331428Y-20906000D01*
X9360000Y-20891714D01*
X9588571Y-21163143D02*
X9602857Y-21177429D01*
X9588571Y-21191714D01*
X9574286Y-21177429D01*
X9588571Y-21163143D01*
X9588571Y-21191714D01*
X9788571Y-20891714D02*
X9817143Y-20891714D01*
X9845714Y-20906000D01*
X9860000Y-20920286D01*
X9874286Y-20948857D01*
X9888571Y-21006000D01*
X9888571Y-21077429D01*
X9874286Y-21134572D01*
X9860000Y-21163143D01*
X9845714Y-21177429D01*
X9817143Y-21191714D01*
X9788571Y-21191714D01*
X9760000Y-21177429D01*
X9745714Y-21163143D01*
X9731428Y-21134572D01*
X9717143Y-21077429D01*
X9717143Y-21006000D01*
X9731428Y-20948857D01*
X9745714Y-20920286D01*
X9760000Y-20906000D01*
X9788571Y-20891714D01*
X10160000Y-20891714D02*
X10017143Y-20891714D01*
X10002857Y-21034572D01*
X10017143Y-21020286D01*
X10045714Y-21006000D01*
X10117143Y-21006000D01*
X10145714Y-21020286D01*
X10160000Y-21034572D01*
X10174286Y-21063143D01*
X10174286Y-21134572D01*
X10160000Y-21163143D01*
X10145714Y-21177429D01*
X10117143Y-21191714D01*
X10045714Y-21191714D01*
X10017143Y-21177429D01*
X10002857Y-21163143D01*
X10345714Y-21020286D02*
X10317143Y-21006000D01*
X10302857Y-20991714D01*
X10288571Y-20963143D01*
X10288571Y-20948857D01*
X10302857Y-20920286D01*
X10317143Y-20906000D01*
X10345714Y-20891714D01*
X10402857Y-20891714D01*
X10431428Y-20906000D01*
X10445714Y-20920286D01*
X10460000Y-20948857D01*
X10460000Y-20963143D01*
X10445714Y-20991714D01*
X10431428Y-21006000D01*
X10402857Y-21020286D01*
X10345714Y-21020286D01*
X10317143Y-21034572D01*
X10302857Y-21048857D01*
X10288571Y-21077429D01*
X10288571Y-21134572D01*
X10302857Y-21163143D01*
X10317143Y-21177429D01*
X10345714Y-21191714D01*
X10402857Y-21191714D01*
X10431428Y-21177429D01*
X10445714Y-21163143D01*
X10460000Y-21134572D01*
X10460000Y-21077429D01*
X10445714Y-21048857D01*
X10431428Y-21034572D01*
X10402857Y-21020286D01*
X10574286Y-20891714D02*
X10574286Y-20948857D01*
X10688571Y-20891714D02*
X10688571Y-20948857D01*
X11131428Y-21306000D02*
X11117143Y-21291714D01*
X11088571Y-21248857D01*
X11074286Y-21220286D01*
X11060000Y-21177429D01*
X11045714Y-21106000D01*
X11045714Y-21048857D01*
X11060000Y-20977429D01*
X11074286Y-20934572D01*
X11088571Y-20906000D01*
X11117143Y-20863143D01*
X11131428Y-20848857D01*
X11402857Y-21191714D02*
X11231428Y-21191714D01*
X11317143Y-21191714D02*
X11317143Y-20891714D01*
X11288571Y-20934572D01*
X11260000Y-20963143D01*
X11231428Y-20977429D01*
X11660000Y-20991714D02*
X11660000Y-21191714D01*
X11588571Y-20877429D02*
X11517143Y-21091714D01*
X11702857Y-21091714D01*
X11874286Y-20891714D02*
X11902857Y-20891714D01*
X11931428Y-20906000D01*
X11945714Y-20920286D01*
X11960000Y-20948857D01*
X11974286Y-21006000D01*
X11974286Y-21077429D01*
X11960000Y-21134572D01*
X11945714Y-21163143D01*
X11931428Y-21177429D01*
X11902857Y-21191714D01*
X11874286Y-21191714D01*
X11845714Y-21177429D01*
X11831428Y-21163143D01*
X11817143Y-21134572D01*
X11802857Y-21077429D01*
X11802857Y-21006000D01*
X11817143Y-20948857D01*
X11831428Y-20920286D01*
X11845714Y-20906000D01*
X11874286Y-20891714D01*
X12331428Y-21191714D02*
X12331428Y-20891714D01*
X12460000Y-21191714D02*
X12460000Y-21034572D01*
X12445714Y-21006000D01*
X12417143Y-20991714D01*
X12374286Y-20991714D01*
X12345714Y-21006000D01*
X12331428Y-21020286D01*
X12645714Y-21191714D02*
X12617143Y-21177429D01*
X12602857Y-21163143D01*
X12588571Y-21134572D01*
X12588571Y-21048857D01*
X12602857Y-21020286D01*
X12617143Y-21006000D01*
X12645714Y-20991714D01*
X12688571Y-20991714D01*
X12717143Y-21006000D01*
X12731428Y-21020286D01*
X12745714Y-21048857D01*
X12745714Y-21134572D01*
X12731428Y-21163143D01*
X12717143Y-21177429D01*
X12688571Y-21191714D01*
X12645714Y-21191714D01*
X12917143Y-21191714D02*
X12888571Y-21177429D01*
X12874286Y-21148857D01*
X12874286Y-20891714D01*
X13145714Y-21177429D02*
X13117143Y-21191714D01*
X13060000Y-21191714D01*
X13031428Y-21177429D01*
X13017143Y-21148857D01*
X13017143Y-21034572D01*
X13031428Y-21006000D01*
X13060000Y-20991714D01*
X13117143Y-20991714D01*
X13145714Y-21006000D01*
X13160000Y-21034572D01*
X13160000Y-21063143D01*
X13017143Y-21091714D01*
X13274286Y-21177429D02*
X13302857Y-21191714D01*
X13360000Y-21191714D01*
X13388571Y-21177429D01*
X13402857Y-21148857D01*
X13402857Y-21134572D01*
X13388571Y-21106000D01*
X13360000Y-21091714D01*
X13317143Y-21091714D01*
X13288571Y-21077429D01*
X13274286Y-21048857D01*
X13274286Y-21034572D01*
X13288571Y-21006000D01*
X13317143Y-20991714D01*
X13360000Y-20991714D01*
X13388571Y-21006000D01*
X13502857Y-21306000D02*
X13517143Y-21291714D01*
X13545714Y-21248857D01*
X13560000Y-21220286D01*
X13574286Y-21177429D01*
X13588571Y-21106000D01*
X13588571Y-21048857D01*
X13574286Y-20977429D01*
X13560000Y-20934572D01*
X13545714Y-20906000D01*
X13517143Y-20863143D01*
X13502857Y-20848857D01*
M02*
