M48
; DRILL file {KiCad (5.1.9)-1} date 05/17/21 18:05:24
; FORMAT={-:-/ absolute / metric / decimal}
; #@! TF.CreationDate,2021-05-17T18:05:24+01:00
; #@! TF.GenerationSoftware,Kicad,Pcbnew,(5.1.9)-1
; #@! TF.FileFunction,Plated,1,2,PTH
FMAT,2
METRIC
T1C1.020
T2C1.470
%
G90
G05
T1
X358.89Y-99.02
X358.89Y-101.56
X358.89Y-104.1
X358.89Y-106.64
X358.89Y-109.18
X358.89Y-111.72
X358.89Y-114.26
X358.89Y-116.8
X358.89Y-119.34
X358.89Y-121.88
X358.89Y-124.42
X358.89Y-126.96
X358.89Y-129.5
X358.89Y-132.04
X358.89Y-134.58
X358.89Y-137.12
X358.89Y-139.66
X358.89Y-142.2
X358.89Y-144.74
X358.89Y-147.28
X376.67Y-99.02
X376.67Y-101.56
X376.67Y-104.1
X376.67Y-106.64
X376.67Y-109.18
X376.67Y-111.72
X376.67Y-114.26
X376.67Y-116.8
X376.67Y-119.34
X376.67Y-121.88
X376.67Y-124.42
X376.67Y-126.96
X376.67Y-129.5
X376.67Y-132.04
X376.67Y-134.58
X376.67Y-137.12
X376.67Y-139.66
X376.67Y-142.2
X376.67Y-144.74
X376.67Y-147.28
T2
X68.699Y-108.969
X71.08Y-166.119
X71.08Y-185.169
X73.462Y-128.019
X75.049Y-106.429
X75.874Y-147.069
X77.43Y-163.579
X77.43Y-182.629
X79.812Y-125.479
X82.224Y-144.529
X87.749Y-108.969
X92.512Y-166.119
X94.099Y-106.429
X94.893Y-185.169
X97.274Y-128.019
X98.862Y-163.579
X101.243Y-182.629
X102.037Y-147.069
X103.624Y-125.479
X106.799Y-108.969
X108.387Y-144.529
X111.562Y-166.119
X113.149Y-106.429
X116.324Y-128.019
X117.912Y-163.579
X118.705Y-185.169
X121.087Y-147.069
X122.674Y-125.479
X125.055Y-182.629
X125.849Y-108.969
X127.437Y-144.529
X130.612Y-166.119
X132.199Y-106.429
X135.374Y-128.019
X136.962Y-163.579
X140.137Y-147.069
X141.724Y-125.479
X144.899Y-108.969
X146.487Y-144.529
X149.662Y-166.119
X151.249Y-106.429
X152.043Y-185.169
X154.424Y-128.019
X156.012Y-163.579
X158.393Y-182.629
X159.187Y-147.069
X160.774Y-125.479
X163.949Y-108.969
X165.537Y-144.529
X168.712Y-166.119
X170.299Y-106.429
X173.474Y-128.019
X175.062Y-163.579
X178.237Y-147.069
X179.824Y-125.479
X182.999Y-108.969
X184.587Y-144.529
X187.762Y-166.119
X189.349Y-106.429
X190.143Y-185.169
X192.524Y-128.019
X194.112Y-163.579
X196.493Y-182.629
X197.287Y-147.069
X198.874Y-125.479
X202.049Y-108.969
X203.637Y-144.529
X206.812Y-166.119
X208.399Y-106.429
X211.574Y-128.019
X213.162Y-163.579
X216.337Y-147.069
X217.924Y-125.479
X221.099Y-108.969
X222.687Y-144.529
X225.862Y-166.119
X227.449Y-106.429
X228.243Y-185.169
X230.624Y-128.019
X232.212Y-163.579
X234.593Y-182.629
X235.387Y-147.069
X236.974Y-125.479
X240.149Y-108.969
X241.737Y-144.529
X244.912Y-166.119
X246.499Y-106.429
X249.674Y-128.019
X251.262Y-163.579
X254.437Y-147.069
X256.024Y-125.479
X259.199Y-108.969
X259.199Y-185.169
X260.787Y-144.529
X263.962Y-166.119
X265.549Y-106.429
X265.549Y-182.629
X268.724Y-128.019
X270.312Y-163.579
X273.487Y-147.069
X275.074Y-125.479
X278.249Y-108.969
X278.249Y-185.169
X279.837Y-144.529
X283.012Y-166.119
X284.599Y-106.429
X284.599Y-182.629
X287.774Y-128.019
X289.362Y-163.579
X292.537Y-147.069
X294.124Y-125.479
X297.299Y-108.969
X297.299Y-185.169
X298.887Y-144.529
X303.649Y-106.429
X303.649Y-182.629
X306.824Y-128.019
X309.224Y-166.119
X311.587Y-147.069
X313.174Y-125.479
X315.574Y-163.579
X316.349Y-185.169
X317.937Y-144.529
X322.699Y-182.629
X325.874Y-108.969
X332.224Y-106.429
X335.399Y-166.119
X335.399Y-185.169
X339.374Y-136.274
X341.749Y-163.579
X341.749Y-182.629
X341.914Y-142.624
X354.449Y-166.119
X354.449Y-185.169
X360.799Y-163.579
X360.799Y-182.629
X373.499Y-166.119
X373.499Y-185.169
X379.849Y-163.579
X379.849Y-182.629
T0
M30
