%FSLAX45Y45*%
G04 Gerber Fmt 4.5, Leading zero omitted, Abs format (unit mm)*
G04 Created by KiCad (PCBNEW (5.1.9)-1) date 2021-05-27 03:19:53*
%MOMM*%
%LPD*%
G01*
G04 APERTURE LIST*
%TA.AperFunction,Profile*%
%ADD10C,0.100000*%
%TD*%
%ADD11C,0.200000*%
%ADD12C,0.300000*%
G04 APERTURE END LIST*
D10*
X38530000Y-19445000D02*
X38530000Y-10015000D01*
X6450000Y-19445000D02*
X6450000Y-10015000D01*
X6450000Y-10015000D02*
G75*
G02*
X6700000Y-9765000I250000J0D01*
G01*
X38530000Y-19445000D02*
G75*
G02*
X38280000Y-19695000I-250000J0D01*
G01*
X6700000Y-19695000D02*
G75*
G02*
X6450000Y-19445000I0J250000D01*
G01*
X38280000Y-9765000D02*
G75*
G02*
X38530000Y-10015000I0J-250000D01*
G01*
X6700000Y-19695000D02*
X38280000Y-19695000D01*
X38280000Y-9765000D02*
X6700000Y-9765000D01*
D11*
D12*
X6731428Y-20165714D02*
X6731428Y-19865714D01*
X6802857Y-19865714D01*
X6845714Y-19880000D01*
X6874286Y-19908572D01*
X6888571Y-19937143D01*
X6902857Y-19994286D01*
X6902857Y-20037143D01*
X6888571Y-20094286D01*
X6874286Y-20122857D01*
X6845714Y-20151429D01*
X6802857Y-20165714D01*
X6731428Y-20165714D01*
X7031428Y-20165714D02*
X7031428Y-19965714D01*
X7031428Y-20022857D02*
X7045714Y-19994286D01*
X7060000Y-19980000D01*
X7088571Y-19965714D01*
X7117143Y-19965714D01*
X7217143Y-20165714D02*
X7217143Y-19965714D01*
X7217143Y-19865714D02*
X7202857Y-19880000D01*
X7217143Y-19894286D01*
X7231428Y-19880000D01*
X7217143Y-19865714D01*
X7217143Y-19894286D01*
X7402857Y-20165714D02*
X7374286Y-20151429D01*
X7360000Y-20122857D01*
X7360000Y-19865714D01*
X7560000Y-20165714D02*
X7531428Y-20151429D01*
X7517143Y-20122857D01*
X7517143Y-19865714D01*
X7902857Y-20165714D02*
X7902857Y-19865714D01*
X8002857Y-20080000D01*
X8102857Y-19865714D01*
X8102857Y-20165714D01*
X8374286Y-20165714D02*
X8374286Y-20008572D01*
X8360000Y-19980000D01*
X8331428Y-19965714D01*
X8274286Y-19965714D01*
X8245714Y-19980000D01*
X8374286Y-20151429D02*
X8345714Y-20165714D01*
X8274286Y-20165714D01*
X8245714Y-20151429D01*
X8231428Y-20122857D01*
X8231428Y-20094286D01*
X8245714Y-20065714D01*
X8274286Y-20051429D01*
X8345714Y-20051429D01*
X8374286Y-20037143D01*
X8517143Y-19965714D02*
X8517143Y-20265714D01*
X8517143Y-19980000D02*
X8545714Y-19965714D01*
X8602857Y-19965714D01*
X8631428Y-19980000D01*
X8645714Y-19994286D01*
X8660000Y-20022857D01*
X8660000Y-20108572D01*
X8645714Y-20137143D01*
X8631428Y-20151429D01*
X8602857Y-20165714D01*
X8545714Y-20165714D01*
X8517143Y-20151429D01*
X8788571Y-20137143D02*
X8802857Y-20151429D01*
X8788571Y-20165714D01*
X8774286Y-20151429D01*
X8788571Y-20137143D01*
X8788571Y-20165714D01*
X8788571Y-19980000D02*
X8802857Y-19994286D01*
X8788571Y-20008572D01*
X8774286Y-19994286D01*
X8788571Y-19980000D01*
X8788571Y-20008572D01*
M02*
