G04 #@! TF.GenerationSoftware,KiCad,Pcbnew,(5.1.9)-1*
G04 #@! TF.CreationDate,2021-05-17T18:03:42+01:00*
G04 #@! TF.ProjectId,EnvKB65_bottom,456e764b-4236-4355-9f62-6f74746f6d2e,rev?*
G04 #@! TF.SameCoordinates,Original*
G04 #@! TF.FileFunction,Copper,L1,Top*
G04 #@! TF.FilePolarity,Positive*
%FSLAX46Y46*%
G04 Gerber Fmt 4.6, Leading zero omitted, Abs format (unit mm)*
G04 Created by KiCad (PCBNEW (5.1.9)-1) date 2021-05-17 18:03:42*
%MOMM*%
%LPD*%
G01*
G04 APERTURE LIST*
G04 #@! TA.AperFunction,NonConductor*
%ADD10C,0.150000*%
G04 #@! TD*
G04 APERTURE END LIST*
D10*
X318133333Y-99452380D02*
X318133333Y-98452380D01*
X318561904Y-99452380D02*
X318561904Y-98928571D01*
X318514285Y-98833333D01*
X318419047Y-98785714D01*
X318276190Y-98785714D01*
X318180952Y-98833333D01*
X318133333Y-98880952D01*
X318895238Y-98785714D02*
X319276190Y-98785714D01*
X319038095Y-98452380D02*
X319038095Y-99309523D01*
X319085714Y-99404761D01*
X319180952Y-99452380D01*
X319276190Y-99452380D01*
X319466666Y-98785714D02*
X319847619Y-98785714D01*
X319609523Y-98452380D02*
X319609523Y-99309523D01*
X319657142Y-99404761D01*
X319752380Y-99452380D01*
X319847619Y-99452380D01*
X320180952Y-98785714D02*
X320180952Y-99785714D01*
X320180952Y-98833333D02*
X320276190Y-98785714D01*
X320466666Y-98785714D01*
X320561904Y-98833333D01*
X320609523Y-98880952D01*
X320657142Y-98976190D01*
X320657142Y-99261904D01*
X320609523Y-99357142D01*
X320561904Y-99404761D01*
X320466666Y-99452380D01*
X320276190Y-99452380D01*
X320180952Y-99404761D01*
X321038095Y-99404761D02*
X321133333Y-99452380D01*
X321323809Y-99452380D01*
X321419047Y-99404761D01*
X321466666Y-99309523D01*
X321466666Y-99261904D01*
X321419047Y-99166666D01*
X321323809Y-99119047D01*
X321180952Y-99119047D01*
X321085714Y-99071428D01*
X321038095Y-98976190D01*
X321038095Y-98928571D01*
X321085714Y-98833333D01*
X321180952Y-98785714D01*
X321323809Y-98785714D01*
X321419047Y-98833333D01*
X321895238Y-99357142D02*
X321942857Y-99404761D01*
X321895238Y-99452380D01*
X321847619Y-99404761D01*
X321895238Y-99357142D01*
X321895238Y-99452380D01*
X321895238Y-98833333D02*
X321942857Y-98880952D01*
X321895238Y-98928571D01*
X321847619Y-98880952D01*
X321895238Y-98833333D01*
X321895238Y-98928571D01*
X323085714Y-98404761D02*
X322228571Y-99690476D01*
X324133333Y-98404761D02*
X323276190Y-99690476D01*
X324895238Y-98785714D02*
X324895238Y-99595238D01*
X324847619Y-99690476D01*
X324800000Y-99738095D01*
X324704761Y-99785714D01*
X324561904Y-99785714D01*
X324466666Y-99738095D01*
X324895238Y-99404761D02*
X324800000Y-99452380D01*
X324609523Y-99452380D01*
X324514285Y-99404761D01*
X324466666Y-99357142D01*
X324419047Y-99261904D01*
X324419047Y-98976190D01*
X324466666Y-98880952D01*
X324514285Y-98833333D01*
X324609523Y-98785714D01*
X324800000Y-98785714D01*
X324895238Y-98833333D01*
X325371428Y-99452380D02*
X325371428Y-98785714D01*
X325371428Y-98452380D02*
X325323809Y-98500000D01*
X325371428Y-98547619D01*
X325419047Y-98500000D01*
X325371428Y-98452380D01*
X325371428Y-98547619D01*
X325704761Y-98785714D02*
X326085714Y-98785714D01*
X325847619Y-98452380D02*
X325847619Y-99309523D01*
X325895238Y-99404761D01*
X325990476Y-99452380D01*
X326085714Y-99452380D01*
X326419047Y-99452380D02*
X326419047Y-98452380D01*
X326847619Y-99452380D02*
X326847619Y-98928571D01*
X326800000Y-98833333D01*
X326704761Y-98785714D01*
X326561904Y-98785714D01*
X326466666Y-98833333D01*
X326419047Y-98880952D01*
X327752380Y-98785714D02*
X327752380Y-99452380D01*
X327323809Y-98785714D02*
X327323809Y-99309523D01*
X327371428Y-99404761D01*
X327466666Y-99452380D01*
X327609523Y-99452380D01*
X327704761Y-99404761D01*
X327752380Y-99357142D01*
X328228571Y-99452380D02*
X328228571Y-98452380D01*
X328228571Y-98833333D02*
X328323809Y-98785714D01*
X328514285Y-98785714D01*
X328609523Y-98833333D01*
X328657142Y-98880952D01*
X328704761Y-98976190D01*
X328704761Y-99261904D01*
X328657142Y-99357142D01*
X328609523Y-99404761D01*
X328514285Y-99452380D01*
X328323809Y-99452380D01*
X328228571Y-99404761D01*
X329133333Y-99357142D02*
X329180952Y-99404761D01*
X329133333Y-99452380D01*
X329085714Y-99404761D01*
X329133333Y-99357142D01*
X329133333Y-99452380D01*
X330038095Y-99404761D02*
X329942857Y-99452380D01*
X329752380Y-99452380D01*
X329657142Y-99404761D01*
X329609523Y-99357142D01*
X329561904Y-99261904D01*
X329561904Y-98976190D01*
X329609523Y-98880952D01*
X329657142Y-98833333D01*
X329752380Y-98785714D01*
X329942857Y-98785714D01*
X330038095Y-98833333D01*
X330609523Y-99452380D02*
X330514285Y-99404761D01*
X330466666Y-99357142D01*
X330419047Y-99261904D01*
X330419047Y-98976190D01*
X330466666Y-98880952D01*
X330514285Y-98833333D01*
X330609523Y-98785714D01*
X330752380Y-98785714D01*
X330847619Y-98833333D01*
X330895238Y-98880952D01*
X330942857Y-98976190D01*
X330942857Y-99261904D01*
X330895238Y-99357142D01*
X330847619Y-99404761D01*
X330752380Y-99452380D01*
X330609523Y-99452380D01*
X331371428Y-99452380D02*
X331371428Y-98785714D01*
X331371428Y-98880952D02*
X331419047Y-98833333D01*
X331514285Y-98785714D01*
X331657142Y-98785714D01*
X331752380Y-98833333D01*
X331800000Y-98928571D01*
X331800000Y-99452380D01*
X331800000Y-98928571D02*
X331847619Y-98833333D01*
X331942857Y-98785714D01*
X332085714Y-98785714D01*
X332180952Y-98833333D01*
X332228571Y-98928571D01*
X332228571Y-99452380D01*
X333419047Y-98404761D02*
X332561904Y-99690476D01*
X333752380Y-98928571D02*
X334085714Y-98928571D01*
X334228571Y-99452380D02*
X333752380Y-99452380D01*
X333752380Y-98452380D01*
X334228571Y-98452380D01*
X334657142Y-98785714D02*
X334657142Y-99452380D01*
X334657142Y-98880952D02*
X334704761Y-98833333D01*
X334800000Y-98785714D01*
X334942857Y-98785714D01*
X335038095Y-98833333D01*
X335085714Y-98928571D01*
X335085714Y-99452380D01*
X335466666Y-98785714D02*
X335704761Y-99452380D01*
X335942857Y-98785714D01*
X336323809Y-99452380D02*
X336323809Y-98785714D01*
X336323809Y-98452380D02*
X336276190Y-98500000D01*
X336323809Y-98547619D01*
X336371428Y-98500000D01*
X336323809Y-98452380D01*
X336323809Y-98547619D01*
X336942857Y-99452380D02*
X336847619Y-99404761D01*
X336800000Y-99357142D01*
X336752380Y-99261904D01*
X336752380Y-98976190D01*
X336800000Y-98880952D01*
X336847619Y-98833333D01*
X336942857Y-98785714D01*
X337085714Y-98785714D01*
X337180952Y-98833333D01*
X337228571Y-98880952D01*
X337276190Y-98976190D01*
X337276190Y-99261904D01*
X337228571Y-99357142D01*
X337180952Y-99404761D01*
X337085714Y-99452380D01*
X336942857Y-99452380D01*
X338133333Y-98785714D02*
X338133333Y-99452380D01*
X337704761Y-98785714D02*
X337704761Y-99309523D01*
X337752380Y-99404761D01*
X337847619Y-99452380D01*
X337990476Y-99452380D01*
X338085714Y-99404761D01*
X338133333Y-99357142D01*
X338561904Y-99404761D02*
X338657142Y-99452380D01*
X338847619Y-99452380D01*
X338942857Y-99404761D01*
X338990476Y-99309523D01*
X338990476Y-99261904D01*
X338942857Y-99166666D01*
X338847619Y-99119047D01*
X338704761Y-99119047D01*
X338609523Y-99071428D01*
X338561904Y-98976190D01*
X338561904Y-98928571D01*
X338609523Y-98833333D01*
X338704761Y-98785714D01*
X338847619Y-98785714D01*
X338942857Y-98833333D01*
X339419047Y-99071428D02*
X340180952Y-99071428D01*
X340657142Y-99452380D02*
X340657142Y-98452380D01*
X340895238Y-98452380D01*
X341038095Y-98500000D01*
X341133333Y-98595238D01*
X341180952Y-98690476D01*
X341228571Y-98880952D01*
X341228571Y-99023809D01*
X341180952Y-99214285D01*
X341133333Y-99309523D01*
X341038095Y-99404761D01*
X340895238Y-99452380D01*
X340657142Y-99452380D01*
X342085714Y-99452380D02*
X342085714Y-98928571D01*
X342038095Y-98833333D01*
X341942857Y-98785714D01*
X341752380Y-98785714D01*
X341657142Y-98833333D01*
X342085714Y-99404761D02*
X341990476Y-99452380D01*
X341752380Y-99452380D01*
X341657142Y-99404761D01*
X341609523Y-99309523D01*
X341609523Y-99214285D01*
X341657142Y-99119047D01*
X341752380Y-99071428D01*
X341990476Y-99071428D01*
X342085714Y-99023809D01*
X342419047Y-98785714D02*
X342800000Y-98785714D01*
X342561904Y-98452380D02*
X342561904Y-99309523D01*
X342609523Y-99404761D01*
X342704761Y-99452380D01*
X342800000Y-99452380D01*
X343561904Y-99452380D02*
X343561904Y-98928571D01*
X343514285Y-98833333D01*
X343419047Y-98785714D01*
X343228571Y-98785714D01*
X343133333Y-98833333D01*
X343561904Y-99404761D02*
X343466666Y-99452380D01*
X343228571Y-99452380D01*
X343133333Y-99404761D01*
X343085714Y-99309523D01*
X343085714Y-99214285D01*
X343133333Y-99119047D01*
X343228571Y-99071428D01*
X343466666Y-99071428D01*
X343561904Y-99023809D01*
X344752380Y-98404761D02*
X343895238Y-99690476D01*
X345085714Y-98928571D02*
X345419047Y-98928571D01*
X345561904Y-99452380D02*
X345085714Y-99452380D01*
X345085714Y-98452380D01*
X345561904Y-98452380D01*
X345990476Y-98785714D02*
X345990476Y-99452380D01*
X345990476Y-98880952D02*
X346038095Y-98833333D01*
X346133333Y-98785714D01*
X346276190Y-98785714D01*
X346371428Y-98833333D01*
X346419047Y-98928571D01*
X346419047Y-99452380D01*
X346800000Y-98785714D02*
X347038095Y-99452380D01*
X347276190Y-98785714D01*
X347657142Y-99071428D02*
X348419047Y-99071428D01*
X348895238Y-99452380D02*
X348895238Y-98452380D01*
X349466666Y-99452380D02*
X349038095Y-98880952D01*
X349466666Y-98452380D02*
X348895238Y-99023809D01*
X350228571Y-98928571D02*
X350371428Y-98976190D01*
X350419047Y-99023809D01*
X350466666Y-99119047D01*
X350466666Y-99261904D01*
X350419047Y-99357142D01*
X350371428Y-99404761D01*
X350276190Y-99452380D01*
X349895238Y-99452380D01*
X349895238Y-98452380D01*
X350228571Y-98452380D01*
X350323809Y-98500000D01*
X350371428Y-98547619D01*
X350419047Y-98642857D01*
X350419047Y-98738095D01*
X350371428Y-98833333D01*
X350323809Y-98880952D01*
X350228571Y-98928571D01*
X349895238Y-98928571D01*
X351323809Y-98452380D02*
X351133333Y-98452380D01*
X351038095Y-98500000D01*
X350990476Y-98547619D01*
X350895238Y-98690476D01*
X350847619Y-98880952D01*
X350847619Y-99261904D01*
X350895238Y-99357142D01*
X350942857Y-99404761D01*
X351038095Y-99452380D01*
X351228571Y-99452380D01*
X351323809Y-99404761D01*
X351371428Y-99357142D01*
X351419047Y-99261904D01*
X351419047Y-99023809D01*
X351371428Y-98928571D01*
X351323809Y-98880952D01*
X351228571Y-98833333D01*
X351038095Y-98833333D01*
X350942857Y-98880952D01*
X350895238Y-98928571D01*
X350847619Y-99023809D01*
X352323809Y-98452380D02*
X351847619Y-98452380D01*
X351800000Y-98928571D01*
X351847619Y-98880952D01*
X351942857Y-98833333D01*
X352180952Y-98833333D01*
X352276190Y-98880952D01*
X352323809Y-98928571D01*
X352371428Y-99023809D01*
X352371428Y-99261904D01*
X352323809Y-99357142D01*
X352276190Y-99404761D01*
X352180952Y-99452380D01*
X351942857Y-99452380D01*
X351847619Y-99404761D01*
X351800000Y-99357142D01*
X352800000Y-99452380D02*
X352800000Y-98452380D01*
X353133333Y-99166666D01*
X353466666Y-98452380D01*
X353466666Y-99452380D01*
M02*
