G04 #@! TF.GenerationSoftware,KiCad,Pcbnew,(5.1.9)-1*
G04 #@! TF.CreationDate,2021-05-27T03:19:54+01:00*
G04 #@! TF.ProjectId,EnvKB65_bottom,456e764b-4236-4355-9f62-6f74746f6d2e,rev?*
G04 #@! TF.SameCoordinates,Original*
G04 #@! TF.FileFunction,Legend,Bot*
G04 #@! TF.FilePolarity,Positive*
%FSLAX46Y46*%
G04 Gerber Fmt 4.6, Leading zero omitted, Abs format (unit mm)*
G04 Created by KiCad (PCBNEW (5.1.9)-1) date 2021-05-27 03:19:54*
%MOMM*%
%LPD*%
G01*
G04 APERTURE LIST*
%ADD10C,0.400000*%
%ADD11C,0.010000*%
G04 APERTURE END LIST*
D10*
X276410714Y-164357142D02*
X276410714Y-161357142D01*
X275125000Y-164357142D02*
X275125000Y-162785714D01*
X275267857Y-162500000D01*
X275553571Y-162357142D01*
X275982142Y-162357142D01*
X276267857Y-162500000D01*
X276410714Y-162642857D01*
X274125000Y-162357142D02*
X272982142Y-162357142D01*
X273696428Y-161357142D02*
X273696428Y-163928571D01*
X273553571Y-164214285D01*
X273267857Y-164357142D01*
X272982142Y-164357142D01*
X272410714Y-162357142D02*
X271267857Y-162357142D01*
X271982142Y-161357142D02*
X271982142Y-163928571D01*
X271839285Y-164214285D01*
X271553571Y-164357142D01*
X271267857Y-164357142D01*
X270267857Y-162357142D02*
X270267857Y-165357142D01*
X270267857Y-162500000D02*
X269982142Y-162357142D01*
X269410714Y-162357142D01*
X269125000Y-162500000D01*
X268982142Y-162642857D01*
X268839285Y-162928571D01*
X268839285Y-163785714D01*
X268982142Y-164071428D01*
X269125000Y-164214285D01*
X269410714Y-164357142D01*
X269982142Y-164357142D01*
X270267857Y-164214285D01*
X267553571Y-164071428D02*
X267410714Y-164214285D01*
X267553571Y-164357142D01*
X267696428Y-164214285D01*
X267553571Y-164071428D01*
X267553571Y-164357142D01*
X267553571Y-162500000D02*
X267410714Y-162642857D01*
X267553571Y-162785714D01*
X267696428Y-162642857D01*
X267553571Y-162500000D01*
X267553571Y-162785714D01*
X263982142Y-161214285D02*
X266553571Y-165071428D01*
X260839285Y-161214285D02*
X263410714Y-165071428D01*
X258553571Y-162357142D02*
X258553571Y-164785714D01*
X258696428Y-165071428D01*
X258839285Y-165214285D01*
X259124999Y-165357142D01*
X259553571Y-165357142D01*
X259839285Y-165214285D01*
X258553571Y-164214285D02*
X258839285Y-164357142D01*
X259410714Y-164357142D01*
X259696428Y-164214285D01*
X259839285Y-164071428D01*
X259982142Y-163785714D01*
X259982142Y-162928571D01*
X259839285Y-162642857D01*
X259696428Y-162500000D01*
X259410714Y-162357142D01*
X258839285Y-162357142D01*
X258553571Y-162500000D01*
X257124999Y-164357142D02*
X257124999Y-162357142D01*
X257124999Y-161357142D02*
X257267857Y-161500000D01*
X257124999Y-161642857D01*
X256982142Y-161500000D01*
X257124999Y-161357142D01*
X257124999Y-161642857D01*
X256124999Y-162357142D02*
X254982142Y-162357142D01*
X255696428Y-161357142D02*
X255696428Y-163928571D01*
X255553571Y-164214285D01*
X255267857Y-164357142D01*
X254982142Y-164357142D01*
X253982142Y-164357142D02*
X253982142Y-161357142D01*
X252696428Y-164357142D02*
X252696428Y-162785714D01*
X252839285Y-162500000D01*
X253124999Y-162357142D01*
X253553571Y-162357142D01*
X253839285Y-162500000D01*
X253982142Y-162642857D01*
X249982142Y-162357142D02*
X249982142Y-164357142D01*
X251267857Y-162357142D02*
X251267857Y-163928571D01*
X251124999Y-164214285D01*
X250839285Y-164357142D01*
X250410714Y-164357142D01*
X250124999Y-164214285D01*
X249982142Y-164071428D01*
X248553571Y-164357142D02*
X248553571Y-161357142D01*
X248553571Y-162500000D02*
X248267857Y-162357142D01*
X247696428Y-162357142D01*
X247410714Y-162500000D01*
X247267857Y-162642857D01*
X247124999Y-162928571D01*
X247124999Y-163785714D01*
X247267857Y-164071428D01*
X247410714Y-164214285D01*
X247696428Y-164357142D01*
X248267857Y-164357142D01*
X248553571Y-164214285D01*
X245839285Y-164071428D02*
X245696428Y-164214285D01*
X245839285Y-164357142D01*
X245982142Y-164214285D01*
X245839285Y-164071428D01*
X245839285Y-164357142D01*
X243124999Y-164214285D02*
X243410714Y-164357142D01*
X243982142Y-164357142D01*
X244267857Y-164214285D01*
X244410714Y-164071428D01*
X244553571Y-163785714D01*
X244553571Y-162928571D01*
X244410714Y-162642857D01*
X244267857Y-162500000D01*
X243982142Y-162357142D01*
X243410714Y-162357142D01*
X243124999Y-162500000D01*
X241410714Y-164357142D02*
X241696428Y-164214285D01*
X241839285Y-164071428D01*
X241982142Y-163785714D01*
X241982142Y-162928571D01*
X241839285Y-162642857D01*
X241696428Y-162500000D01*
X241410714Y-162357142D01*
X240982142Y-162357142D01*
X240696428Y-162500000D01*
X240553571Y-162642857D01*
X240410714Y-162928571D01*
X240410714Y-163785714D01*
X240553571Y-164071428D01*
X240696428Y-164214285D01*
X240982142Y-164357142D01*
X241410714Y-164357142D01*
X239124999Y-164357142D02*
X239124999Y-162357142D01*
X239124999Y-162642857D02*
X238982142Y-162500000D01*
X238696428Y-162357142D01*
X238267857Y-162357142D01*
X237982142Y-162500000D01*
X237839285Y-162785714D01*
X237839285Y-164357142D01*
X237839285Y-162785714D02*
X237696428Y-162500000D01*
X237410714Y-162357142D01*
X236982142Y-162357142D01*
X236696428Y-162500000D01*
X236553571Y-162785714D01*
X236553571Y-164357142D01*
X232982142Y-161214285D02*
X235553571Y-165071428D01*
X231982142Y-162785714D02*
X230982142Y-162785714D01*
X230553571Y-164357142D02*
X231982142Y-164357142D01*
X231982142Y-161357142D01*
X230553571Y-161357142D01*
X229267857Y-162357142D02*
X229267857Y-164357142D01*
X229267857Y-162642857D02*
X229124999Y-162500000D01*
X228839285Y-162357142D01*
X228410714Y-162357142D01*
X228124999Y-162500000D01*
X227982142Y-162785714D01*
X227982142Y-164357142D01*
X226839285Y-162357142D02*
X226124999Y-164357142D01*
X225410714Y-162357142D01*
X224267857Y-164357142D02*
X224267857Y-162357142D01*
X224267857Y-161357142D02*
X224410714Y-161500000D01*
X224267857Y-161642857D01*
X224124999Y-161500000D01*
X224267857Y-161357142D01*
X224267857Y-161642857D01*
X222410714Y-164357142D02*
X222696428Y-164214285D01*
X222839285Y-164071428D01*
X222982142Y-163785714D01*
X222982142Y-162928571D01*
X222839285Y-162642857D01*
X222696428Y-162500000D01*
X222410714Y-162357142D01*
X221982142Y-162357142D01*
X221696428Y-162500000D01*
X221553571Y-162642857D01*
X221410714Y-162928571D01*
X221410714Y-163785714D01*
X221553571Y-164071428D01*
X221696428Y-164214285D01*
X221982142Y-164357142D01*
X222410714Y-164357142D01*
X218839285Y-162357142D02*
X218839285Y-164357142D01*
X220124999Y-162357142D02*
X220124999Y-163928571D01*
X219982142Y-164214285D01*
X219696428Y-164357142D01*
X219267857Y-164357142D01*
X218982142Y-164214285D01*
X218839285Y-164071428D01*
X217553571Y-164214285D02*
X217267857Y-164357142D01*
X216696428Y-164357142D01*
X216410714Y-164214285D01*
X216267857Y-163928571D01*
X216267857Y-163785714D01*
X216410714Y-163500000D01*
X216696428Y-163357142D01*
X217124999Y-163357142D01*
X217410714Y-163214285D01*
X217553571Y-162928571D01*
X217553571Y-162785714D01*
X217410714Y-162500000D01*
X217124999Y-162357142D01*
X216696428Y-162357142D01*
X216410714Y-162500000D01*
X214982142Y-163214285D02*
X212696428Y-163214285D01*
X211267857Y-164357142D02*
X211267857Y-161357142D01*
X210553571Y-161357142D01*
X210124999Y-161500000D01*
X209839285Y-161785714D01*
X209696428Y-162071428D01*
X209553571Y-162642857D01*
X209553571Y-163071428D01*
X209696428Y-163642857D01*
X209839285Y-163928571D01*
X210124999Y-164214285D01*
X210553571Y-164357142D01*
X211267857Y-164357142D01*
X206982142Y-164357142D02*
X206982142Y-162785714D01*
X207124999Y-162500000D01*
X207410714Y-162357142D01*
X207982142Y-162357142D01*
X208267857Y-162500000D01*
X206982142Y-164214285D02*
X207267857Y-164357142D01*
X207982142Y-164357142D01*
X208267857Y-164214285D01*
X208410714Y-163928571D01*
X208410714Y-163642857D01*
X208267857Y-163357142D01*
X207982142Y-163214285D01*
X207267857Y-163214285D01*
X206982142Y-163071428D01*
X205982142Y-162357142D02*
X204839285Y-162357142D01*
X205553571Y-161357142D02*
X205553571Y-163928571D01*
X205410714Y-164214285D01*
X205124999Y-164357142D01*
X204839285Y-164357142D01*
X202553571Y-164357142D02*
X202553571Y-162785714D01*
X202696428Y-162500000D01*
X202982142Y-162357142D01*
X203553571Y-162357142D01*
X203839285Y-162500000D01*
X202553571Y-164214285D02*
X202839285Y-164357142D01*
X203553571Y-164357142D01*
X203839285Y-164214285D01*
X203982142Y-163928571D01*
X203982142Y-163642857D01*
X203839285Y-163357142D01*
X203553571Y-163214285D01*
X202839285Y-163214285D01*
X202553571Y-163071428D01*
X198982142Y-161214285D02*
X201553571Y-165071428D01*
X197982142Y-162785714D02*
X196982142Y-162785714D01*
X196553571Y-164357142D02*
X197982142Y-164357142D01*
X197982142Y-161357142D01*
X196553571Y-161357142D01*
X195267857Y-162357142D02*
X195267857Y-164357142D01*
X195267857Y-162642857D02*
X195124999Y-162500000D01*
X194839285Y-162357142D01*
X194410714Y-162357142D01*
X194124999Y-162500000D01*
X193982142Y-162785714D01*
X193982142Y-164357142D01*
X192839285Y-162357142D02*
X192124999Y-164357142D01*
X191410714Y-162357142D01*
X190267857Y-163214285D02*
X187982142Y-163214285D01*
X186553571Y-164357142D02*
X186553571Y-161357142D01*
X184839285Y-164357142D02*
X186124999Y-162642857D01*
X184839285Y-161357142D02*
X186553571Y-163071428D01*
X182553571Y-162785714D02*
X182124999Y-162928571D01*
X181982142Y-163071428D01*
X181839285Y-163357142D01*
X181839285Y-163785714D01*
X181982142Y-164071428D01*
X182124999Y-164214285D01*
X182410714Y-164357142D01*
X183553571Y-164357142D01*
X183553571Y-161357142D01*
X182553571Y-161357142D01*
X182267857Y-161500000D01*
X182124999Y-161642857D01*
X181982142Y-161928571D01*
X181982142Y-162214285D01*
X182124999Y-162500000D01*
X182267857Y-162642857D01*
X182553571Y-162785714D01*
X183553571Y-162785714D01*
X179267857Y-161357142D02*
X179839285Y-161357142D01*
X180124999Y-161500000D01*
X180267857Y-161642857D01*
X180553571Y-162071428D01*
X180696428Y-162642857D01*
X180696428Y-163785714D01*
X180553571Y-164071428D01*
X180410714Y-164214285D01*
X180124999Y-164357142D01*
X179553571Y-164357142D01*
X179267857Y-164214285D01*
X179124999Y-164071428D01*
X178982142Y-163785714D01*
X178982142Y-163071428D01*
X179124999Y-162785714D01*
X179267857Y-162642857D01*
X179553571Y-162500000D01*
X180124999Y-162500000D01*
X180410714Y-162642857D01*
X180553571Y-162785714D01*
X180696428Y-163071428D01*
X176267857Y-161357142D02*
X177696428Y-161357142D01*
X177839285Y-162785714D01*
X177696428Y-162642857D01*
X177410714Y-162500000D01*
X176696428Y-162500000D01*
X176410714Y-162642857D01*
X176267857Y-162785714D01*
X176124999Y-163071428D01*
X176124999Y-163785714D01*
X176267857Y-164071428D01*
X176410714Y-164214285D01*
X176696428Y-164357142D01*
X177410714Y-164357142D01*
X177696428Y-164214285D01*
X177839285Y-164071428D01*
X174839285Y-164357142D02*
X174839285Y-161357142D01*
X173839285Y-163500000D01*
X172839285Y-161357142D01*
X172839285Y-164357142D01*
D11*
G36*
X229745930Y-141691677D02*
G01*
X229528509Y-141758348D01*
X229411156Y-141870077D01*
X229395887Y-142044591D01*
X229484716Y-142299614D01*
X229679657Y-142652871D01*
X229893237Y-142987679D01*
X230149529Y-143379163D01*
X230408092Y-143779297D01*
X230633251Y-144132627D01*
X230751422Y-144321667D01*
X230930095Y-144608049D01*
X231166290Y-144981871D01*
X231425381Y-145388508D01*
X231610140Y-145676334D01*
X231823801Y-146016337D01*
X231998621Y-146310530D01*
X232116163Y-146526772D01*
X232158012Y-146631491D01*
X232140658Y-146709466D01*
X232057930Y-146765984D01*
X231869954Y-146821179D01*
X231710208Y-146857620D01*
X231529915Y-146938230D01*
X231498986Y-147051480D01*
X231611032Y-147191513D01*
X231880772Y-147281187D01*
X232298517Y-147318894D01*
X232648367Y-147327334D01*
X233436369Y-148533834D01*
X234095946Y-149542491D01*
X234667012Y-150413140D01*
X235152555Y-151150257D01*
X235555564Y-151758318D01*
X235879027Y-152241800D01*
X236125930Y-152605178D01*
X236299262Y-152852928D01*
X236402011Y-152989527D01*
X236430841Y-153019870D01*
X236588262Y-153077963D01*
X236691705Y-152979697D01*
X236707348Y-152942990D01*
X236694507Y-152795912D01*
X236603343Y-152537590D01*
X236448573Y-152198260D01*
X236244915Y-151808159D01*
X236007086Y-151397525D01*
X235786426Y-151050981D01*
X235624493Y-150802104D01*
X235508299Y-150611350D01*
X235462369Y-150519030D01*
X235462333Y-150518265D01*
X235416831Y-150434523D01*
X235292617Y-150240176D01*
X235108129Y-149963314D01*
X234881803Y-149632024D01*
X234858012Y-149597608D01*
X234578841Y-149182692D01*
X234293960Y-148739913D01*
X234040999Y-148328729D01*
X233890014Y-148068112D01*
X233718689Y-147754126D01*
X233622549Y-147554775D01*
X233592998Y-147437542D01*
X233621437Y-147369908D01*
X233692956Y-147322719D01*
X233844106Y-147290932D01*
X234154787Y-147268776D01*
X234615456Y-147256550D01*
X235216567Y-147254556D01*
X235706123Y-147259274D01*
X237552672Y-147285000D01*
X237962432Y-147620949D01*
X238175627Y-147804309D01*
X238474710Y-148073009D01*
X238824022Y-148394488D01*
X239187904Y-148736187D01*
X239283773Y-148827449D01*
X239678940Y-149196499D01*
X239977087Y-149454070D01*
X240195600Y-149613520D01*
X240351864Y-149688209D01*
X240416742Y-149698000D01*
X240755463Y-149628198D01*
X241003721Y-149430873D01*
X241055348Y-149349963D01*
X241082424Y-149266703D01*
X241061279Y-149171831D01*
X240974915Y-149042554D01*
X240806331Y-148856081D01*
X240538526Y-148589617D01*
X240358789Y-148416083D01*
X240055319Y-148114358D01*
X239828137Y-147867758D01*
X239693409Y-147695123D01*
X239667299Y-147615296D01*
X239670251Y-147613541D01*
X239871146Y-147493575D01*
X240059566Y-147329462D01*
X240182788Y-147171450D01*
X240203666Y-147105201D01*
X240120469Y-146973599D01*
X239876445Y-146852232D01*
X239479945Y-146744081D01*
X238939320Y-146652127D01*
X238930914Y-146650989D01*
X238670515Y-146613552D01*
X238457862Y-146571263D01*
X238262382Y-146509880D01*
X238053503Y-146415164D01*
X238029638Y-146401734D01*
X236309000Y-146401734D01*
X236230477Y-146433770D01*
X236019064Y-146469031D01*
X235710997Y-146502328D01*
X235483500Y-146519967D01*
X235115157Y-146546438D01*
X234802785Y-146572351D01*
X234590392Y-146593882D01*
X234531000Y-146602713D01*
X234388967Y-146617157D01*
X234129241Y-146630129D01*
X233803456Y-146639176D01*
X233743060Y-146640179D01*
X233406671Y-146641411D01*
X233190942Y-146623746D01*
X233047282Y-146573548D01*
X232927099Y-146477181D01*
X232842272Y-146387399D01*
X232701741Y-146201145D01*
X232514518Y-145908826D01*
X232308907Y-145556192D01*
X232174397Y-145307899D01*
X231944184Y-144874883D01*
X231689684Y-144406164D01*
X231452255Y-143977581D01*
X231360686Y-143815717D01*
X231191263Y-143513061D01*
X231059740Y-143266655D01*
X230985081Y-143112591D01*
X230975000Y-143081589D01*
X231042260Y-143082594D01*
X231227056Y-143161038D01*
X231503912Y-143303688D01*
X231847350Y-143497313D01*
X232231894Y-143728679D01*
X232287333Y-143763187D01*
X232640143Y-143980269D01*
X233042367Y-144222724D01*
X233345666Y-144402102D01*
X233640757Y-144580532D01*
X234000629Y-144807532D01*
X234400956Y-145066686D01*
X234817408Y-145341577D01*
X235225657Y-145615790D01*
X235601375Y-145872906D01*
X235920233Y-146096510D01*
X236157903Y-146270185D01*
X236290056Y-146377515D01*
X236309000Y-146401734D01*
X238029638Y-146401734D01*
X237800654Y-146272875D01*
X237473261Y-146068772D01*
X237040754Y-145788614D01*
X236944000Y-145725500D01*
X236240086Y-145274282D01*
X235503908Y-144817027D01*
X234756846Y-144365914D01*
X234020276Y-143933124D01*
X233315578Y-143530836D01*
X232664131Y-143171230D01*
X232087312Y-142866487D01*
X231606500Y-142628787D01*
X231243074Y-142470309D01*
X231205806Y-142456250D01*
X230905166Y-142310158D01*
X230582270Y-142100826D01*
X230420554Y-141972025D01*
X230190894Y-141782706D01*
X230023808Y-141691397D01*
X229863579Y-141674945D01*
X229745930Y-141691677D01*
G37*
X229745930Y-141691677D02*
X229528509Y-141758348D01*
X229411156Y-141870077D01*
X229395887Y-142044591D01*
X229484716Y-142299614D01*
X229679657Y-142652871D01*
X229893237Y-142987679D01*
X230149529Y-143379163D01*
X230408092Y-143779297D01*
X230633251Y-144132627D01*
X230751422Y-144321667D01*
X230930095Y-144608049D01*
X231166290Y-144981871D01*
X231425381Y-145388508D01*
X231610140Y-145676334D01*
X231823801Y-146016337D01*
X231998621Y-146310530D01*
X232116163Y-146526772D01*
X232158012Y-146631491D01*
X232140658Y-146709466D01*
X232057930Y-146765984D01*
X231869954Y-146821179D01*
X231710208Y-146857620D01*
X231529915Y-146938230D01*
X231498986Y-147051480D01*
X231611032Y-147191513D01*
X231880772Y-147281187D01*
X232298517Y-147318894D01*
X232648367Y-147327334D01*
X233436369Y-148533834D01*
X234095946Y-149542491D01*
X234667012Y-150413140D01*
X235152555Y-151150257D01*
X235555564Y-151758318D01*
X235879027Y-152241800D01*
X236125930Y-152605178D01*
X236299262Y-152852928D01*
X236402011Y-152989527D01*
X236430841Y-153019870D01*
X236588262Y-153077963D01*
X236691705Y-152979697D01*
X236707348Y-152942990D01*
X236694507Y-152795912D01*
X236603343Y-152537590D01*
X236448573Y-152198260D01*
X236244915Y-151808159D01*
X236007086Y-151397525D01*
X235786426Y-151050981D01*
X235624493Y-150802104D01*
X235508299Y-150611350D01*
X235462369Y-150519030D01*
X235462333Y-150518265D01*
X235416831Y-150434523D01*
X235292617Y-150240176D01*
X235108129Y-149963314D01*
X234881803Y-149632024D01*
X234858012Y-149597608D01*
X234578841Y-149182692D01*
X234293960Y-148739913D01*
X234040999Y-148328729D01*
X233890014Y-148068112D01*
X233718689Y-147754126D01*
X233622549Y-147554775D01*
X233592998Y-147437542D01*
X233621437Y-147369908D01*
X233692956Y-147322719D01*
X233844106Y-147290932D01*
X234154787Y-147268776D01*
X234615456Y-147256550D01*
X235216567Y-147254556D01*
X235706123Y-147259274D01*
X237552672Y-147285000D01*
X237962432Y-147620949D01*
X238175627Y-147804309D01*
X238474710Y-148073009D01*
X238824022Y-148394488D01*
X239187904Y-148736187D01*
X239283773Y-148827449D01*
X239678940Y-149196499D01*
X239977087Y-149454070D01*
X240195600Y-149613520D01*
X240351864Y-149688209D01*
X240416742Y-149698000D01*
X240755463Y-149628198D01*
X241003721Y-149430873D01*
X241055348Y-149349963D01*
X241082424Y-149266703D01*
X241061279Y-149171831D01*
X240974915Y-149042554D01*
X240806331Y-148856081D01*
X240538526Y-148589617D01*
X240358789Y-148416083D01*
X240055319Y-148114358D01*
X239828137Y-147867758D01*
X239693409Y-147695123D01*
X239667299Y-147615296D01*
X239670251Y-147613541D01*
X239871146Y-147493575D01*
X240059566Y-147329462D01*
X240182788Y-147171450D01*
X240203666Y-147105201D01*
X240120469Y-146973599D01*
X239876445Y-146852232D01*
X239479945Y-146744081D01*
X238939320Y-146652127D01*
X238930914Y-146650989D01*
X238670515Y-146613552D01*
X238457862Y-146571263D01*
X238262382Y-146509880D01*
X238053503Y-146415164D01*
X238029638Y-146401734D01*
X236309000Y-146401734D01*
X236230477Y-146433770D01*
X236019064Y-146469031D01*
X235710997Y-146502328D01*
X235483500Y-146519967D01*
X235115157Y-146546438D01*
X234802785Y-146572351D01*
X234590392Y-146593882D01*
X234531000Y-146602713D01*
X234388967Y-146617157D01*
X234129241Y-146630129D01*
X233803456Y-146639176D01*
X233743060Y-146640179D01*
X233406671Y-146641411D01*
X233190942Y-146623746D01*
X233047282Y-146573548D01*
X232927099Y-146477181D01*
X232842272Y-146387399D01*
X232701741Y-146201145D01*
X232514518Y-145908826D01*
X232308907Y-145556192D01*
X232174397Y-145307899D01*
X231944184Y-144874883D01*
X231689684Y-144406164D01*
X231452255Y-143977581D01*
X231360686Y-143815717D01*
X231191263Y-143513061D01*
X231059740Y-143266655D01*
X230985081Y-143112591D01*
X230975000Y-143081589D01*
X231042260Y-143082594D01*
X231227056Y-143161038D01*
X231503912Y-143303688D01*
X231847350Y-143497313D01*
X232231894Y-143728679D01*
X232287333Y-143763187D01*
X232640143Y-143980269D01*
X233042367Y-144222724D01*
X233345666Y-144402102D01*
X233640757Y-144580532D01*
X234000629Y-144807532D01*
X234400956Y-145066686D01*
X234817408Y-145341577D01*
X235225657Y-145615790D01*
X235601375Y-145872906D01*
X235920233Y-146096510D01*
X236157903Y-146270185D01*
X236290056Y-146377515D01*
X236309000Y-146401734D01*
X238029638Y-146401734D01*
X237800654Y-146272875D01*
X237473261Y-146068772D01*
X237040754Y-145788614D01*
X236944000Y-145725500D01*
X236240086Y-145274282D01*
X235503908Y-144817027D01*
X234756846Y-144365914D01*
X234020276Y-143933124D01*
X233315578Y-143530836D01*
X232664131Y-143171230D01*
X232087312Y-142866487D01*
X231606500Y-142628787D01*
X231243074Y-142470309D01*
X231205806Y-142456250D01*
X230905166Y-142310158D01*
X230582270Y-142100826D01*
X230420554Y-141972025D01*
X230190894Y-141782706D01*
X230023808Y-141691397D01*
X229863579Y-141674945D01*
X229745930Y-141691677D01*
G36*
X225338908Y-143551477D02*
G01*
X225281166Y-143562896D01*
X225073507Y-143614045D01*
X224945801Y-143657458D01*
X224942500Y-143659287D01*
X224879084Y-143760422D01*
X224930603Y-143931176D01*
X225103100Y-144182456D01*
X225402617Y-144525168D01*
X225450500Y-144576264D01*
X225725200Y-144871972D01*
X226070427Y-145250083D01*
X226445288Y-145665488D01*
X226808890Y-146073079D01*
X226868666Y-146140639D01*
X227389913Y-146729477D01*
X227824929Y-147217954D01*
X228198600Y-147633486D01*
X228535812Y-148003489D01*
X228861453Y-148355379D01*
X229200407Y-148716571D01*
X229362355Y-148887805D01*
X229627694Y-149177502D01*
X229833399Y-149420997D01*
X229960366Y-149594202D01*
X229989486Y-149673028D01*
X229986519Y-149674716D01*
X229911765Y-149669142D01*
X229765443Y-149618793D01*
X229533312Y-149516945D01*
X229201130Y-149356875D01*
X228754656Y-149131859D01*
X228179647Y-148835172D01*
X227903152Y-148691106D01*
X227515063Y-148494154D01*
X227227782Y-148367265D01*
X226995588Y-148295632D01*
X226772760Y-148264446D01*
X226567970Y-148258667D01*
X226208893Y-148280194D01*
X225932493Y-148358794D01*
X225719512Y-148474219D01*
X225547467Y-148595606D01*
X225452568Y-148713495D01*
X225441195Y-148853316D01*
X225519731Y-149040497D01*
X225694556Y-149300471D01*
X225972052Y-149658666D01*
X226037236Y-149740334D01*
X226579122Y-150417667D01*
X226283663Y-150443690D01*
X226050854Y-150432467D01*
X225729325Y-150377784D01*
X225403307Y-150295523D01*
X225088985Y-150208517D01*
X224821089Y-150146072D01*
X224656288Y-150121355D01*
X224653647Y-150121334D01*
X224499966Y-150063423D01*
X224298600Y-149916642D01*
X224201666Y-149825000D01*
X224004601Y-149650160D01*
X223831433Y-149543741D01*
X223772091Y-149528667D01*
X223581883Y-149600576D01*
X223474247Y-149773314D01*
X223478539Y-149941097D01*
X223498471Y-150047854D01*
X223435214Y-150070277D01*
X223252701Y-150022976D01*
X222955189Y-149988026D01*
X222685729Y-150050103D01*
X222496962Y-150191631D01*
X222447932Y-150291686D01*
X222398860Y-150408913D01*
X222311823Y-150446917D01*
X222155015Y-150401986D01*
X221896632Y-150270411D01*
X221798973Y-150215975D01*
X221400558Y-150020837D01*
X221016899Y-149884438D01*
X220684245Y-149815637D01*
X220438844Y-149823290D01*
X220354525Y-149863025D01*
X220243193Y-150024927D01*
X220222333Y-150123011D01*
X220276685Y-150230226D01*
X220428129Y-150440332D01*
X220659253Y-150731476D01*
X220952641Y-151081802D01*
X221290879Y-151469455D01*
X221331606Y-151515150D01*
X221669406Y-151897794D01*
X221961320Y-152237055D01*
X222190980Y-152513189D01*
X222342019Y-152706450D01*
X222398067Y-152797093D01*
X222397247Y-152800641D01*
X222307587Y-152785742D01*
X222092573Y-152714334D01*
X221782187Y-152597319D01*
X221406413Y-152445597D01*
X221310834Y-152405653D01*
X220895117Y-152236495D01*
X220509202Y-152089746D01*
X220193201Y-151979984D01*
X219987230Y-151921787D01*
X219971374Y-151918890D01*
X219674698Y-151870746D01*
X219808452Y-152075540D01*
X219921839Y-152173002D01*
X220158248Y-152326742D01*
X220487514Y-152520877D01*
X220879469Y-152739527D01*
X221303946Y-152966811D01*
X221730779Y-153186849D01*
X222129801Y-153383760D01*
X222470845Y-153541662D01*
X222723743Y-153644676D01*
X222851198Y-153677334D01*
X223014895Y-153618205D01*
X223122569Y-153529167D01*
X223249096Y-153325765D01*
X223284161Y-153065392D01*
X223280365Y-152968488D01*
X223220103Y-152846015D01*
X223064440Y-152635539D01*
X222838143Y-152368363D01*
X222610442Y-152121822D01*
X222267553Y-151756203D01*
X221950084Y-151402917D01*
X221677803Y-151085445D01*
X221470483Y-150827268D01*
X221347892Y-150651868D01*
X221323000Y-150592699D01*
X221390444Y-150594499D01*
X221574942Y-150671375D01*
X221849747Y-150808993D01*
X222188109Y-150993019D01*
X222563280Y-151209117D01*
X222948511Y-151442953D01*
X223159659Y-151576950D01*
X223513354Y-151800410D01*
X223758110Y-151939129D01*
X223923470Y-152005811D01*
X224038979Y-152013163D01*
X224112159Y-151986591D01*
X224254810Y-151825503D01*
X224274100Y-151585969D01*
X224170072Y-151305492D01*
X224111235Y-151213904D01*
X224014606Y-151039780D01*
X224030013Y-150966795D01*
X224134565Y-150993772D01*
X224305374Y-151119530D01*
X224418659Y-151229737D01*
X224640782Y-151444124D01*
X224866265Y-151633702D01*
X224900108Y-151658794D01*
X225147128Y-151779223D01*
X225332828Y-151766897D01*
X225444705Y-151651207D01*
X225470259Y-151461541D01*
X225396985Y-151227290D01*
X225212382Y-150977842D01*
X225196500Y-150962064D01*
X225047843Y-150804145D01*
X225028571Y-150744590D01*
X225090666Y-150758036D01*
X225658344Y-150951323D01*
X226147922Y-151071945D01*
X226533155Y-151114271D01*
X226693031Y-151101769D01*
X226952352Y-151011593D01*
X227182414Y-150862410D01*
X227342583Y-150689676D01*
X227392230Y-150528844D01*
X227384280Y-150498568D01*
X227304981Y-150302874D01*
X227283965Y-150251000D01*
X227294936Y-150197931D01*
X227410660Y-150212058D01*
X227651526Y-150297104D01*
X227747949Y-150335667D01*
X228243701Y-150493196D01*
X228674928Y-150542721D01*
X229018267Y-150483808D01*
X229209537Y-150362797D01*
X229361767Y-150243098D01*
X229490144Y-150247523D01*
X229550054Y-150280003D01*
X229733425Y-150354133D01*
X229994491Y-150416608D01*
X230072421Y-150428934D01*
X230312808Y-150448044D01*
X230470244Y-150400023D01*
X230624797Y-150253718D01*
X230675658Y-150194227D01*
X230817040Y-150040110D01*
X230950120Y-149954815D01*
X231131397Y-149918102D01*
X231417371Y-149909730D01*
X231469965Y-149909667D01*
X231774214Y-149903740D01*
X231956954Y-149875616D01*
X232065878Y-149809781D01*
X232079559Y-149790107D01*
X228348325Y-149790107D01*
X228241631Y-149773788D01*
X227993248Y-149678886D01*
X227600267Y-149505187D01*
X227208458Y-149322871D01*
X226736007Y-149090239D01*
X226421106Y-148911846D01*
X226261520Y-148785870D01*
X226255016Y-148710491D01*
X226399358Y-148683888D01*
X226424166Y-148683860D01*
X226697354Y-148740589D01*
X227064167Y-148896495D01*
X227493272Y-149136478D01*
X227847331Y-149369699D01*
X228148267Y-149587850D01*
X228316234Y-149728057D01*
X228348325Y-149790107D01*
X232079559Y-149790107D01*
X232148677Y-149690717D01*
X232149961Y-149688452D01*
X232216649Y-149478744D01*
X232193312Y-149328601D01*
X231458035Y-149328601D01*
X231397787Y-149351301D01*
X231259282Y-149321999D01*
X231049134Y-149244961D01*
X230771746Y-149112549D01*
X230594000Y-149014931D01*
X230199007Y-148737519D01*
X229948117Y-148440611D01*
X229827210Y-148142725D01*
X229812883Y-147966801D01*
X229878330Y-147920000D01*
X230019730Y-147975769D01*
X230244763Y-148123606D01*
X230518878Y-148334303D01*
X230807527Y-148578654D01*
X231076161Y-148827454D01*
X231290232Y-149051496D01*
X231412959Y-149217329D01*
X231458035Y-149328601D01*
X232193312Y-149328601D01*
X232180018Y-149243079D01*
X232030616Y-148961065D01*
X231758992Y-148612308D01*
X231537438Y-148366827D01*
X231056721Y-147900906D01*
X230623353Y-147587686D01*
X230223755Y-147421875D01*
X229844349Y-147398182D01*
X229471556Y-147511316D01*
X229415225Y-147539836D01*
X229028241Y-147745597D01*
X227567454Y-146085546D01*
X227026426Y-145469230D01*
X226588494Y-144966475D01*
X226243573Y-144564888D01*
X225981581Y-144252076D01*
X225792434Y-144015647D01*
X225666048Y-143843207D01*
X225592341Y-143722364D01*
X225561228Y-143640725D01*
X225558453Y-143616440D01*
X225507506Y-143545599D01*
X225338908Y-143551477D01*
G37*
X225338908Y-143551477D02*
X225281166Y-143562896D01*
X225073507Y-143614045D01*
X224945801Y-143657458D01*
X224942500Y-143659287D01*
X224879084Y-143760422D01*
X224930603Y-143931176D01*
X225103100Y-144182456D01*
X225402617Y-144525168D01*
X225450500Y-144576264D01*
X225725200Y-144871972D01*
X226070427Y-145250083D01*
X226445288Y-145665488D01*
X226808890Y-146073079D01*
X226868666Y-146140639D01*
X227389913Y-146729477D01*
X227824929Y-147217954D01*
X228198600Y-147633486D01*
X228535812Y-148003489D01*
X228861453Y-148355379D01*
X229200407Y-148716571D01*
X229362355Y-148887805D01*
X229627694Y-149177502D01*
X229833399Y-149420997D01*
X229960366Y-149594202D01*
X229989486Y-149673028D01*
X229986519Y-149674716D01*
X229911765Y-149669142D01*
X229765443Y-149618793D01*
X229533312Y-149516945D01*
X229201130Y-149356875D01*
X228754656Y-149131859D01*
X228179647Y-148835172D01*
X227903152Y-148691106D01*
X227515063Y-148494154D01*
X227227782Y-148367265D01*
X226995588Y-148295632D01*
X226772760Y-148264446D01*
X226567970Y-148258667D01*
X226208893Y-148280194D01*
X225932493Y-148358794D01*
X225719512Y-148474219D01*
X225547467Y-148595606D01*
X225452568Y-148713495D01*
X225441195Y-148853316D01*
X225519731Y-149040497D01*
X225694556Y-149300471D01*
X225972052Y-149658666D01*
X226037236Y-149740334D01*
X226579122Y-150417667D01*
X226283663Y-150443690D01*
X226050854Y-150432467D01*
X225729325Y-150377784D01*
X225403307Y-150295523D01*
X225088985Y-150208517D01*
X224821089Y-150146072D01*
X224656288Y-150121355D01*
X224653647Y-150121334D01*
X224499966Y-150063423D01*
X224298600Y-149916642D01*
X224201666Y-149825000D01*
X224004601Y-149650160D01*
X223831433Y-149543741D01*
X223772091Y-149528667D01*
X223581883Y-149600576D01*
X223474247Y-149773314D01*
X223478539Y-149941097D01*
X223498471Y-150047854D01*
X223435214Y-150070277D01*
X223252701Y-150022976D01*
X222955189Y-149988026D01*
X222685729Y-150050103D01*
X222496962Y-150191631D01*
X222447932Y-150291686D01*
X222398860Y-150408913D01*
X222311823Y-150446917D01*
X222155015Y-150401986D01*
X221896632Y-150270411D01*
X221798973Y-150215975D01*
X221400558Y-150020837D01*
X221016899Y-149884438D01*
X220684245Y-149815637D01*
X220438844Y-149823290D01*
X220354525Y-149863025D01*
X220243193Y-150024927D01*
X220222333Y-150123011D01*
X220276685Y-150230226D01*
X220428129Y-150440332D01*
X220659253Y-150731476D01*
X220952641Y-151081802D01*
X221290879Y-151469455D01*
X221331606Y-151515150D01*
X221669406Y-151897794D01*
X221961320Y-152237055D01*
X222190980Y-152513189D01*
X222342019Y-152706450D01*
X222398067Y-152797093D01*
X222397247Y-152800641D01*
X222307587Y-152785742D01*
X222092573Y-152714334D01*
X221782187Y-152597319D01*
X221406413Y-152445597D01*
X221310834Y-152405653D01*
X220895117Y-152236495D01*
X220509202Y-152089746D01*
X220193201Y-151979984D01*
X219987230Y-151921787D01*
X219971374Y-151918890D01*
X219674698Y-151870746D01*
X219808452Y-152075540D01*
X219921839Y-152173002D01*
X220158248Y-152326742D01*
X220487514Y-152520877D01*
X220879469Y-152739527D01*
X221303946Y-152966811D01*
X221730779Y-153186849D01*
X222129801Y-153383760D01*
X222470845Y-153541662D01*
X222723743Y-153644676D01*
X222851198Y-153677334D01*
X223014895Y-153618205D01*
X223122569Y-153529167D01*
X223249096Y-153325765D01*
X223284161Y-153065392D01*
X223280365Y-152968488D01*
X223220103Y-152846015D01*
X223064440Y-152635539D01*
X222838143Y-152368363D01*
X222610442Y-152121822D01*
X222267553Y-151756203D01*
X221950084Y-151402917D01*
X221677803Y-151085445D01*
X221470483Y-150827268D01*
X221347892Y-150651868D01*
X221323000Y-150592699D01*
X221390444Y-150594499D01*
X221574942Y-150671375D01*
X221849747Y-150808993D01*
X222188109Y-150993019D01*
X222563280Y-151209117D01*
X222948511Y-151442953D01*
X223159659Y-151576950D01*
X223513354Y-151800410D01*
X223758110Y-151939129D01*
X223923470Y-152005811D01*
X224038979Y-152013163D01*
X224112159Y-151986591D01*
X224254810Y-151825503D01*
X224274100Y-151585969D01*
X224170072Y-151305492D01*
X224111235Y-151213904D01*
X224014606Y-151039780D01*
X224030013Y-150966795D01*
X224134565Y-150993772D01*
X224305374Y-151119530D01*
X224418659Y-151229737D01*
X224640782Y-151444124D01*
X224866265Y-151633702D01*
X224900108Y-151658794D01*
X225147128Y-151779223D01*
X225332828Y-151766897D01*
X225444705Y-151651207D01*
X225470259Y-151461541D01*
X225396985Y-151227290D01*
X225212382Y-150977842D01*
X225196500Y-150962064D01*
X225047843Y-150804145D01*
X225028571Y-150744590D01*
X225090666Y-150758036D01*
X225658344Y-150951323D01*
X226147922Y-151071945D01*
X226533155Y-151114271D01*
X226693031Y-151101769D01*
X226952352Y-151011593D01*
X227182414Y-150862410D01*
X227342583Y-150689676D01*
X227392230Y-150528844D01*
X227384280Y-150498568D01*
X227304981Y-150302874D01*
X227283965Y-150251000D01*
X227294936Y-150197931D01*
X227410660Y-150212058D01*
X227651526Y-150297104D01*
X227747949Y-150335667D01*
X228243701Y-150493196D01*
X228674928Y-150542721D01*
X229018267Y-150483808D01*
X229209537Y-150362797D01*
X229361767Y-150243098D01*
X229490144Y-150247523D01*
X229550054Y-150280003D01*
X229733425Y-150354133D01*
X229994491Y-150416608D01*
X230072421Y-150428934D01*
X230312808Y-150448044D01*
X230470244Y-150400023D01*
X230624797Y-150253718D01*
X230675658Y-150194227D01*
X230817040Y-150040110D01*
X230950120Y-149954815D01*
X231131397Y-149918102D01*
X231417371Y-149909730D01*
X231469965Y-149909667D01*
X231774214Y-149903740D01*
X231956954Y-149875616D01*
X232065878Y-149809781D01*
X232079559Y-149790107D01*
X228348325Y-149790107D01*
X228241631Y-149773788D01*
X227993248Y-149678886D01*
X227600267Y-149505187D01*
X227208458Y-149322871D01*
X226736007Y-149090239D01*
X226421106Y-148911846D01*
X226261520Y-148785870D01*
X226255016Y-148710491D01*
X226399358Y-148683888D01*
X226424166Y-148683860D01*
X226697354Y-148740589D01*
X227064167Y-148896495D01*
X227493272Y-149136478D01*
X227847331Y-149369699D01*
X228148267Y-149587850D01*
X228316234Y-149728057D01*
X228348325Y-149790107D01*
X232079559Y-149790107D01*
X232148677Y-149690717D01*
X232149961Y-149688452D01*
X232216649Y-149478744D01*
X232193312Y-149328601D01*
X231458035Y-149328601D01*
X231397787Y-149351301D01*
X231259282Y-149321999D01*
X231049134Y-149244961D01*
X230771746Y-149112549D01*
X230594000Y-149014931D01*
X230199007Y-148737519D01*
X229948117Y-148440611D01*
X229827210Y-148142725D01*
X229812883Y-147966801D01*
X229878330Y-147920000D01*
X230019730Y-147975769D01*
X230244763Y-148123606D01*
X230518878Y-148334303D01*
X230807527Y-148578654D01*
X231076161Y-148827454D01*
X231290232Y-149051496D01*
X231412959Y-149217329D01*
X231458035Y-149328601D01*
X232193312Y-149328601D01*
X232180018Y-149243079D01*
X232030616Y-148961065D01*
X231758992Y-148612308D01*
X231537438Y-148366827D01*
X231056721Y-147900906D01*
X230623353Y-147587686D01*
X230223755Y-147421875D01*
X229844349Y-147398182D01*
X229471556Y-147511316D01*
X229415225Y-147539836D01*
X229028241Y-147745597D01*
X227567454Y-146085546D01*
X227026426Y-145469230D01*
X226588494Y-144966475D01*
X226243573Y-144564888D01*
X225981581Y-144252076D01*
X225792434Y-144015647D01*
X225666048Y-143843207D01*
X225592341Y-143722364D01*
X225561228Y-143640725D01*
X225558453Y-143616440D01*
X225507506Y-143545599D01*
X225338908Y-143551477D01*
G36*
X245587618Y-131180796D02*
G01*
X245339690Y-131249857D01*
X244984492Y-131355190D01*
X244548923Y-131488806D01*
X244059884Y-131642712D01*
X244016240Y-131656624D01*
X243529663Y-131811780D01*
X242917900Y-132006687D01*
X242217146Y-132229822D01*
X241463599Y-132469663D01*
X240693456Y-132714688D01*
X239942913Y-132953373D01*
X239738000Y-133018518D01*
X239019602Y-133247081D01*
X238289087Y-133479844D01*
X237578757Y-133706492D01*
X236920913Y-133916708D01*
X236347853Y-134100175D01*
X235891880Y-134246576D01*
X235758666Y-134289493D01*
X235395723Y-134406140D01*
X234889428Y-134568208D01*
X234257849Y-134769949D01*
X233519053Y-135005618D01*
X232691106Y-135269467D01*
X231792076Y-135555751D01*
X230840030Y-135858723D01*
X229853033Y-136172636D01*
X228849154Y-136491744D01*
X227846459Y-136810300D01*
X226863015Y-137122557D01*
X225916888Y-137422770D01*
X225026146Y-137705191D01*
X224208855Y-137964074D01*
X223651333Y-138140479D01*
X222940907Y-138369214D01*
X222357009Y-138565827D01*
X221907897Y-138727291D01*
X221601831Y-138850580D01*
X221447071Y-138932670D01*
X221429115Y-138954464D01*
X221481025Y-139066854D01*
X221636640Y-139224539D01*
X221761514Y-139321367D01*
X221945651Y-139465045D01*
X222039178Y-139566608D01*
X222036399Y-139595677D01*
X221931452Y-139628918D01*
X221695793Y-139703260D01*
X221360240Y-139808991D01*
X220955610Y-139936398D01*
X220775956Y-139992942D01*
X220355960Y-140130348D01*
X219997492Y-140257552D01*
X219729966Y-140363344D01*
X219582796Y-140436513D01*
X219563915Y-140454921D01*
X219609404Y-140551550D01*
X219758594Y-140700078D01*
X219882498Y-140797420D01*
X220082210Y-140954238D01*
X220209320Y-141077355D01*
X220233135Y-141118578D01*
X220157552Y-141166675D01*
X219947934Y-141253615D01*
X219632239Y-141368933D01*
X219238426Y-141502164D01*
X219022263Y-141571813D01*
X218485267Y-141749426D01*
X218107801Y-141891520D01*
X217884338Y-142000407D01*
X217809357Y-142078402D01*
X217809333Y-142079541D01*
X217812467Y-142143062D01*
X217830389Y-142191647D01*
X217875881Y-142222088D01*
X217961723Y-142231178D01*
X218100697Y-142215708D01*
X218305583Y-142172471D01*
X218589163Y-142098257D01*
X218964218Y-141989861D01*
X219443529Y-141844072D01*
X220039877Y-141657684D01*
X220766044Y-141427488D01*
X221634809Y-141150276D01*
X222085000Y-141006357D01*
X222795670Y-140779115D01*
X223600133Y-140521870D01*
X224344553Y-140283815D01*
X223041149Y-140283815D01*
X221991574Y-140626089D01*
X221592464Y-140754520D01*
X221249588Y-140861628D01*
X220996010Y-140937315D01*
X220864794Y-140971486D01*
X220857333Y-140972428D01*
X220741662Y-140926021D01*
X220562484Y-140806059D01*
X220518666Y-140771767D01*
X220365557Y-140630478D01*
X220345586Y-140551162D01*
X220391666Y-140523375D01*
X220647879Y-140438101D01*
X220978596Y-140331957D01*
X221347062Y-140216239D01*
X221716523Y-140102248D01*
X222050223Y-140001280D01*
X222311409Y-139924634D01*
X222463326Y-139883608D01*
X222485601Y-139879712D01*
X222588152Y-139930780D01*
X222758034Y-140052895D01*
X222795908Y-140083286D01*
X223041149Y-140283815D01*
X224344553Y-140283815D01*
X224436252Y-140254491D01*
X225241892Y-139996849D01*
X225954914Y-139768815D01*
X226022000Y-139747360D01*
X226690951Y-139533594D01*
X227518732Y-139269392D01*
X228502782Y-138955571D01*
X229640540Y-138592945D01*
X230929446Y-138182331D01*
X232366939Y-137724545D01*
X233950457Y-137220402D01*
X235677439Y-136670717D01*
X237545325Y-136076308D01*
X238171666Y-135877014D01*
X239010472Y-135610186D01*
X239702355Y-135390438D01*
X240261751Y-135213490D01*
X240703095Y-135075062D01*
X241040820Y-134970875D01*
X241289363Y-134896648D01*
X241463157Y-134848102D01*
X241576638Y-134820957D01*
X241644239Y-134810933D01*
X241680397Y-134813752D01*
X241699545Y-134825131D01*
X241704203Y-134829648D01*
X241712149Y-134921711D01*
X241715650Y-135166201D01*
X241714911Y-135546277D01*
X241710133Y-136045096D01*
X241701519Y-136645816D01*
X241689271Y-137331595D01*
X241673592Y-138085591D01*
X241655987Y-138838271D01*
X241601064Y-141097376D01*
X241550173Y-143246734D01*
X241503379Y-145282544D01*
X241460744Y-147201002D01*
X241422332Y-148998306D01*
X241388206Y-150670653D01*
X241358431Y-152214241D01*
X241333068Y-153625266D01*
X241312183Y-154899926D01*
X241295838Y-156034418D01*
X241284096Y-157024940D01*
X241277022Y-157867688D01*
X241274678Y-158558861D01*
X241277128Y-159094655D01*
X241284436Y-159471268D01*
X241296665Y-159684897D01*
X241307283Y-159734555D01*
X241452263Y-159850253D01*
X241578916Y-159808937D01*
X241586555Y-159801556D01*
X241606086Y-159701432D01*
X241622687Y-159462630D01*
X241635083Y-159115796D01*
X241641996Y-158691579D01*
X241643000Y-158446889D01*
X241645786Y-157999722D01*
X241653471Y-157619131D01*
X241665044Y-157334060D01*
X241679496Y-157173457D01*
X241688302Y-157148667D01*
X241770257Y-157196599D01*
X241957132Y-157326385D01*
X242219341Y-157517010D01*
X242465743Y-157700909D01*
X242771706Y-157923138D01*
X243032642Y-158096801D01*
X243217051Y-158201898D01*
X243288275Y-158223177D01*
X243327578Y-158127397D01*
X243363194Y-157876511D01*
X243393729Y-157484730D01*
X243417787Y-156966266D01*
X243421000Y-156870691D01*
X243463333Y-155548178D01*
X244254884Y-156145304D01*
X244640601Y-156425739D01*
X244911271Y-156597168D01*
X245076537Y-156665158D01*
X245135245Y-156653621D01*
X245154691Y-156550660D01*
X245175758Y-156280266D01*
X245198385Y-155844331D01*
X245222510Y-155244749D01*
X245248071Y-154483412D01*
X245275007Y-153562212D01*
X245303255Y-152483041D01*
X245332755Y-151247793D01*
X245363443Y-149858358D01*
X245375198Y-149300239D01*
X245421471Y-147096754D01*
X245466057Y-145015176D01*
X245508839Y-143060443D01*
X245549700Y-141237498D01*
X245588525Y-139551281D01*
X245625196Y-138006732D01*
X245659596Y-136608792D01*
X245691610Y-135362403D01*
X245721121Y-134272504D01*
X245748013Y-133344037D01*
X245762714Y-132870500D01*
X245779987Y-132278036D01*
X245788191Y-131834870D01*
X245787849Y-131766682D01*
X245326202Y-131766682D01*
X245324388Y-132010179D01*
X245319254Y-132397918D01*
X245311060Y-132917374D01*
X245300062Y-133556023D01*
X245286519Y-134301341D01*
X245270687Y-135140803D01*
X245252824Y-136061886D01*
X245233189Y-137052065D01*
X245212038Y-138098816D01*
X245189630Y-139189614D01*
X245166222Y-140311936D01*
X245142072Y-141453257D01*
X245117437Y-142601053D01*
X245092575Y-143742800D01*
X245067743Y-144865974D01*
X245043200Y-145958049D01*
X245019203Y-147006503D01*
X244996010Y-147998811D01*
X244973878Y-148922448D01*
X244953065Y-149764891D01*
X244949409Y-149909667D01*
X244929470Y-150727681D01*
X244911087Y-151542058D01*
X244894757Y-152326233D01*
X244880978Y-153053640D01*
X244870246Y-153697716D01*
X244863058Y-154231893D01*
X244859911Y-154629609D01*
X244859812Y-154700389D01*
X244856575Y-155141126D01*
X244847321Y-155519759D01*
X244833317Y-155804902D01*
X244815830Y-155965168D01*
X244807827Y-155987617D01*
X244722911Y-155962040D01*
X244536350Y-155850923D01*
X244279200Y-155673914D01*
X244089153Y-155533012D01*
X243660853Y-155206974D01*
X242997666Y-155206974D01*
X242997666Y-157578105D01*
X242719787Y-157384552D01*
X242488395Y-157219215D01*
X242204741Y-157011008D01*
X242049196Y-156894667D01*
X241656484Y-156598334D01*
X241703767Y-155455334D01*
X241721849Y-155035967D01*
X241738449Y-154683354D01*
X241751983Y-154428881D01*
X241760867Y-154303933D01*
X241762238Y-154296509D01*
X241829652Y-154336854D01*
X242000965Y-154458195D01*
X242245618Y-154638597D01*
X242385547Y-154743829D01*
X242997666Y-155206974D01*
X243660853Y-155206974D01*
X243422985Y-155025901D01*
X243467542Y-154161117D01*
X243477949Y-153907943D01*
X243490762Y-153510716D01*
X243505740Y-152981730D01*
X243522642Y-152333276D01*
X243541225Y-151577645D01*
X243561249Y-150727129D01*
X243582470Y-149794020D01*
X243604649Y-148790609D01*
X243627542Y-147729188D01*
X243650908Y-146622048D01*
X243674505Y-145481481D01*
X243698093Y-144319780D01*
X243721428Y-143149234D01*
X243744270Y-141982137D01*
X243766377Y-140830779D01*
X243787506Y-139707452D01*
X243807417Y-138624448D01*
X243825867Y-137594059D01*
X243842615Y-136628576D01*
X243857419Y-135740291D01*
X243870037Y-134941495D01*
X243880229Y-134244480D01*
X243887751Y-133661537D01*
X243888852Y-133552442D01*
X243485236Y-133552442D01*
X243483001Y-133940192D01*
X243477316Y-134456734D01*
X243468383Y-135088573D01*
X243456408Y-135822210D01*
X243441595Y-136644148D01*
X243424147Y-137540891D01*
X243404270Y-138498941D01*
X243385838Y-139341528D01*
X243359738Y-140510727D01*
X243331979Y-141760003D01*
X243303249Y-143058063D01*
X243274235Y-144373612D01*
X243245625Y-145675356D01*
X243218107Y-146932002D01*
X243192368Y-148112253D01*
X243169098Y-149184818D01*
X243149561Y-150091434D01*
X243049392Y-154760534D01*
X242388529Y-154257462D01*
X242099614Y-154023431D01*
X241876572Y-153815498D01*
X241747904Y-153661586D01*
X241727691Y-153610029D01*
X241729741Y-153496164D01*
X241735584Y-153231835D01*
X241744769Y-152835859D01*
X241756851Y-152327051D01*
X241771379Y-151724228D01*
X241787907Y-151046205D01*
X241805985Y-150311799D01*
X241812801Y-150036667D01*
X241827223Y-149445137D01*
X241843847Y-148745454D01*
X241862349Y-147952435D01*
X241882405Y-147080900D01*
X241903693Y-146145665D01*
X241925887Y-145161549D01*
X241948664Y-144143369D01*
X241971702Y-143105944D01*
X241994675Y-142064092D01*
X242017261Y-141032629D01*
X242039137Y-140026375D01*
X242059977Y-139060147D01*
X242079459Y-138148763D01*
X242097259Y-137307041D01*
X242113053Y-136549799D01*
X242126518Y-135891855D01*
X242137330Y-135348026D01*
X242145166Y-134933131D01*
X242149701Y-134661988D01*
X242150742Y-134563834D01*
X242121971Y-134358371D01*
X242027184Y-134289059D01*
X242015800Y-134288667D01*
X241915649Y-134313837D01*
X241666686Y-134386758D01*
X241281365Y-134503540D01*
X240772143Y-134660297D01*
X240151475Y-134853141D01*
X239431816Y-135078185D01*
X238625622Y-135331542D01*
X237745348Y-135609324D01*
X236803450Y-135907644D01*
X235812384Y-136222613D01*
X235475300Y-136329980D01*
X233826268Y-136855504D01*
X232331411Y-137331877D01*
X230983572Y-137761379D01*
X229775592Y-138146291D01*
X228700314Y-138488893D01*
X227750578Y-138791465D01*
X226919227Y-139056287D01*
X226199103Y-139285641D01*
X225583048Y-139481806D01*
X225063903Y-139647063D01*
X224634510Y-139783692D01*
X224307927Y-139887546D01*
X223525188Y-140136368D01*
X223270179Y-139947832D01*
X223121839Y-139812923D01*
X223071769Y-139713258D01*
X223079252Y-139698565D01*
X223133557Y-139674251D01*
X223276609Y-139622471D01*
X223513996Y-139541427D01*
X223851309Y-139429323D01*
X224294139Y-139284363D01*
X224848075Y-139104750D01*
X225518708Y-138888688D01*
X226311628Y-138634379D01*
X227232424Y-138340028D01*
X228286688Y-138003838D01*
X229480010Y-137624012D01*
X230817979Y-137198753D01*
X232306185Y-136726266D01*
X233950220Y-136204754D01*
X233980666Y-136195099D01*
X236080225Y-135528337D01*
X238081635Y-134890734D01*
X239962560Y-134289416D01*
X241459561Y-133809052D01*
X242007171Y-133635234D01*
X242500027Y-133483080D01*
X242915753Y-133359147D01*
X243231971Y-133269994D01*
X243426305Y-133222179D01*
X243478533Y-133217311D01*
X243483814Y-133306983D01*
X243485236Y-133552442D01*
X243888852Y-133552442D01*
X243892362Y-133204959D01*
X243893822Y-132887037D01*
X243891887Y-132720062D01*
X243889613Y-132697058D01*
X243875312Y-132690614D01*
X243844391Y-132690614D01*
X243788449Y-132699675D01*
X243699084Y-132720416D01*
X243567892Y-132755453D01*
X243386471Y-132807404D01*
X243146419Y-132878888D01*
X242839333Y-132972523D01*
X242456811Y-133090925D01*
X241990451Y-133236713D01*
X241431849Y-133412504D01*
X240772604Y-133620917D01*
X240004313Y-133864568D01*
X239118573Y-134146077D01*
X238106982Y-134468060D01*
X236961138Y-134833135D01*
X235672638Y-135243921D01*
X234233080Y-135703034D01*
X233896000Y-135810552D01*
X232302082Y-136318891D01*
X230861925Y-136778007D01*
X229568009Y-137190268D01*
X228412813Y-137558042D01*
X227388816Y-137883699D01*
X226488498Y-138169607D01*
X225704337Y-138418135D01*
X225028813Y-138631652D01*
X224454406Y-138812526D01*
X223973593Y-138963125D01*
X223578854Y-139085819D01*
X223262669Y-139182977D01*
X223017517Y-139256967D01*
X222835877Y-139310157D01*
X222710228Y-139344916D01*
X222633049Y-139363614D01*
X222598644Y-139368667D01*
X222459949Y-139319849D01*
X222293356Y-139211856D01*
X222094003Y-139055045D01*
X223296001Y-138669088D01*
X224077883Y-138418378D01*
X225004844Y-138121764D01*
X226060528Y-137784463D01*
X227228585Y-137411694D01*
X228492658Y-137008677D01*
X229836397Y-136580629D01*
X231243446Y-136132770D01*
X231313666Y-136110428D01*
X232080539Y-135866416D01*
X232888701Y-135609226D01*
X233700477Y-135350851D01*
X234478189Y-135103284D01*
X235184162Y-134878519D01*
X235780718Y-134688548D01*
X235970333Y-134628151D01*
X236528136Y-134450567D01*
X237207610Y-134234410D01*
X237969022Y-133992312D01*
X238772637Y-133736903D01*
X239578721Y-133480814D01*
X240347539Y-133236675D01*
X240500000Y-133188277D01*
X241204067Y-132964622D01*
X241907496Y-132740866D01*
X242580712Y-132526439D01*
X243194141Y-132330768D01*
X243718210Y-132163285D01*
X244123346Y-132033417D01*
X244255394Y-131990916D01*
X244646959Y-131867087D01*
X244975435Y-131767853D01*
X245210095Y-131702154D01*
X245320212Y-131678925D01*
X245324440Y-131679950D01*
X245326202Y-131766682D01*
X245787849Y-131766682D01*
X245786617Y-131521174D01*
X245774556Y-131317121D01*
X245751298Y-131202881D01*
X245716133Y-131158627D01*
X245701377Y-131156000D01*
X245587618Y-131180796D01*
G37*
X245587618Y-131180796D02*
X245339690Y-131249857D01*
X244984492Y-131355190D01*
X244548923Y-131488806D01*
X244059884Y-131642712D01*
X244016240Y-131656624D01*
X243529663Y-131811780D01*
X242917900Y-132006687D01*
X242217146Y-132229822D01*
X241463599Y-132469663D01*
X240693456Y-132714688D01*
X239942913Y-132953373D01*
X239738000Y-133018518D01*
X239019602Y-133247081D01*
X238289087Y-133479844D01*
X237578757Y-133706492D01*
X236920913Y-133916708D01*
X236347853Y-134100175D01*
X235891880Y-134246576D01*
X235758666Y-134289493D01*
X235395723Y-134406140D01*
X234889428Y-134568208D01*
X234257849Y-134769949D01*
X233519053Y-135005618D01*
X232691106Y-135269467D01*
X231792076Y-135555751D01*
X230840030Y-135858723D01*
X229853033Y-136172636D01*
X228849154Y-136491744D01*
X227846459Y-136810300D01*
X226863015Y-137122557D01*
X225916888Y-137422770D01*
X225026146Y-137705191D01*
X224208855Y-137964074D01*
X223651333Y-138140479D01*
X222940907Y-138369214D01*
X222357009Y-138565827D01*
X221907897Y-138727291D01*
X221601831Y-138850580D01*
X221447071Y-138932670D01*
X221429115Y-138954464D01*
X221481025Y-139066854D01*
X221636640Y-139224539D01*
X221761514Y-139321367D01*
X221945651Y-139465045D01*
X222039178Y-139566608D01*
X222036399Y-139595677D01*
X221931452Y-139628918D01*
X221695793Y-139703260D01*
X221360240Y-139808991D01*
X220955610Y-139936398D01*
X220775956Y-139992942D01*
X220355960Y-140130348D01*
X219997492Y-140257552D01*
X219729966Y-140363344D01*
X219582796Y-140436513D01*
X219563915Y-140454921D01*
X219609404Y-140551550D01*
X219758594Y-140700078D01*
X219882498Y-140797420D01*
X220082210Y-140954238D01*
X220209320Y-141077355D01*
X220233135Y-141118578D01*
X220157552Y-141166675D01*
X219947934Y-141253615D01*
X219632239Y-141368933D01*
X219238426Y-141502164D01*
X219022263Y-141571813D01*
X218485267Y-141749426D01*
X218107801Y-141891520D01*
X217884338Y-142000407D01*
X217809357Y-142078402D01*
X217809333Y-142079541D01*
X217812467Y-142143062D01*
X217830389Y-142191647D01*
X217875881Y-142222088D01*
X217961723Y-142231178D01*
X218100697Y-142215708D01*
X218305583Y-142172471D01*
X218589163Y-142098257D01*
X218964218Y-141989861D01*
X219443529Y-141844072D01*
X220039877Y-141657684D01*
X220766044Y-141427488D01*
X221634809Y-141150276D01*
X222085000Y-141006357D01*
X222795670Y-140779115D01*
X223600133Y-140521870D01*
X224344553Y-140283815D01*
X223041149Y-140283815D01*
X221991574Y-140626089D01*
X221592464Y-140754520D01*
X221249588Y-140861628D01*
X220996010Y-140937315D01*
X220864794Y-140971486D01*
X220857333Y-140972428D01*
X220741662Y-140926021D01*
X220562484Y-140806059D01*
X220518666Y-140771767D01*
X220365557Y-140630478D01*
X220345586Y-140551162D01*
X220391666Y-140523375D01*
X220647879Y-140438101D01*
X220978596Y-140331957D01*
X221347062Y-140216239D01*
X221716523Y-140102248D01*
X222050223Y-140001280D01*
X222311409Y-139924634D01*
X222463326Y-139883608D01*
X222485601Y-139879712D01*
X222588152Y-139930780D01*
X222758034Y-140052895D01*
X222795908Y-140083286D01*
X223041149Y-140283815D01*
X224344553Y-140283815D01*
X224436252Y-140254491D01*
X225241892Y-139996849D01*
X225954914Y-139768815D01*
X226022000Y-139747360D01*
X226690951Y-139533594D01*
X227518732Y-139269392D01*
X228502782Y-138955571D01*
X229640540Y-138592945D01*
X230929446Y-138182331D01*
X232366939Y-137724545D01*
X233950457Y-137220402D01*
X235677439Y-136670717D01*
X237545325Y-136076308D01*
X238171666Y-135877014D01*
X239010472Y-135610186D01*
X239702355Y-135390438D01*
X240261751Y-135213490D01*
X240703095Y-135075062D01*
X241040820Y-134970875D01*
X241289363Y-134896648D01*
X241463157Y-134848102D01*
X241576638Y-134820957D01*
X241644239Y-134810933D01*
X241680397Y-134813752D01*
X241699545Y-134825131D01*
X241704203Y-134829648D01*
X241712149Y-134921711D01*
X241715650Y-135166201D01*
X241714911Y-135546277D01*
X241710133Y-136045096D01*
X241701519Y-136645816D01*
X241689271Y-137331595D01*
X241673592Y-138085591D01*
X241655987Y-138838271D01*
X241601064Y-141097376D01*
X241550173Y-143246734D01*
X241503379Y-145282544D01*
X241460744Y-147201002D01*
X241422332Y-148998306D01*
X241388206Y-150670653D01*
X241358431Y-152214241D01*
X241333068Y-153625266D01*
X241312183Y-154899926D01*
X241295838Y-156034418D01*
X241284096Y-157024940D01*
X241277022Y-157867688D01*
X241274678Y-158558861D01*
X241277128Y-159094655D01*
X241284436Y-159471268D01*
X241296665Y-159684897D01*
X241307283Y-159734555D01*
X241452263Y-159850253D01*
X241578916Y-159808937D01*
X241586555Y-159801556D01*
X241606086Y-159701432D01*
X241622687Y-159462630D01*
X241635083Y-159115796D01*
X241641996Y-158691579D01*
X241643000Y-158446889D01*
X241645786Y-157999722D01*
X241653471Y-157619131D01*
X241665044Y-157334060D01*
X241679496Y-157173457D01*
X241688302Y-157148667D01*
X241770257Y-157196599D01*
X241957132Y-157326385D01*
X242219341Y-157517010D01*
X242465743Y-157700909D01*
X242771706Y-157923138D01*
X243032642Y-158096801D01*
X243217051Y-158201898D01*
X243288275Y-158223177D01*
X243327578Y-158127397D01*
X243363194Y-157876511D01*
X243393729Y-157484730D01*
X243417787Y-156966266D01*
X243421000Y-156870691D01*
X243463333Y-155548178D01*
X244254884Y-156145304D01*
X244640601Y-156425739D01*
X244911271Y-156597168D01*
X245076537Y-156665158D01*
X245135245Y-156653621D01*
X245154691Y-156550660D01*
X245175758Y-156280266D01*
X245198385Y-155844331D01*
X245222510Y-155244749D01*
X245248071Y-154483412D01*
X245275007Y-153562212D01*
X245303255Y-152483041D01*
X245332755Y-151247793D01*
X245363443Y-149858358D01*
X245375198Y-149300239D01*
X245421471Y-147096754D01*
X245466057Y-145015176D01*
X245508839Y-143060443D01*
X245549700Y-141237498D01*
X245588525Y-139551281D01*
X245625196Y-138006732D01*
X245659596Y-136608792D01*
X245691610Y-135362403D01*
X245721121Y-134272504D01*
X245748013Y-133344037D01*
X245762714Y-132870500D01*
X245779987Y-132278036D01*
X245788191Y-131834870D01*
X245787849Y-131766682D01*
X245326202Y-131766682D01*
X245324388Y-132010179D01*
X245319254Y-132397918D01*
X245311060Y-132917374D01*
X245300062Y-133556023D01*
X245286519Y-134301341D01*
X245270687Y-135140803D01*
X245252824Y-136061886D01*
X245233189Y-137052065D01*
X245212038Y-138098816D01*
X245189630Y-139189614D01*
X245166222Y-140311936D01*
X245142072Y-141453257D01*
X245117437Y-142601053D01*
X245092575Y-143742800D01*
X245067743Y-144865974D01*
X245043200Y-145958049D01*
X245019203Y-147006503D01*
X244996010Y-147998811D01*
X244973878Y-148922448D01*
X244953065Y-149764891D01*
X244949409Y-149909667D01*
X244929470Y-150727681D01*
X244911087Y-151542058D01*
X244894757Y-152326233D01*
X244880978Y-153053640D01*
X244870246Y-153697716D01*
X244863058Y-154231893D01*
X244859911Y-154629609D01*
X244859812Y-154700389D01*
X244856575Y-155141126D01*
X244847321Y-155519759D01*
X244833317Y-155804902D01*
X244815830Y-155965168D01*
X244807827Y-155987617D01*
X244722911Y-155962040D01*
X244536350Y-155850923D01*
X244279200Y-155673914D01*
X244089153Y-155533012D01*
X243660853Y-155206974D01*
X242997666Y-155206974D01*
X242997666Y-157578105D01*
X242719787Y-157384552D01*
X242488395Y-157219215D01*
X242204741Y-157011008D01*
X242049196Y-156894667D01*
X241656484Y-156598334D01*
X241703767Y-155455334D01*
X241721849Y-155035967D01*
X241738449Y-154683354D01*
X241751983Y-154428881D01*
X241760867Y-154303933D01*
X241762238Y-154296509D01*
X241829652Y-154336854D01*
X242000965Y-154458195D01*
X242245618Y-154638597D01*
X242385547Y-154743829D01*
X242997666Y-155206974D01*
X243660853Y-155206974D01*
X243422985Y-155025901D01*
X243467542Y-154161117D01*
X243477949Y-153907943D01*
X243490762Y-153510716D01*
X243505740Y-152981730D01*
X243522642Y-152333276D01*
X243541225Y-151577645D01*
X243561249Y-150727129D01*
X243582470Y-149794020D01*
X243604649Y-148790609D01*
X243627542Y-147729188D01*
X243650908Y-146622048D01*
X243674505Y-145481481D01*
X243698093Y-144319780D01*
X243721428Y-143149234D01*
X243744270Y-141982137D01*
X243766377Y-140830779D01*
X243787506Y-139707452D01*
X243807417Y-138624448D01*
X243825867Y-137594059D01*
X243842615Y-136628576D01*
X243857419Y-135740291D01*
X243870037Y-134941495D01*
X243880229Y-134244480D01*
X243887751Y-133661537D01*
X243888852Y-133552442D01*
X243485236Y-133552442D01*
X243483001Y-133940192D01*
X243477316Y-134456734D01*
X243468383Y-135088573D01*
X243456408Y-135822210D01*
X243441595Y-136644148D01*
X243424147Y-137540891D01*
X243404270Y-138498941D01*
X243385838Y-139341528D01*
X243359738Y-140510727D01*
X243331979Y-141760003D01*
X243303249Y-143058063D01*
X243274235Y-144373612D01*
X243245625Y-145675356D01*
X243218107Y-146932002D01*
X243192368Y-148112253D01*
X243169098Y-149184818D01*
X243149561Y-150091434D01*
X243049392Y-154760534D01*
X242388529Y-154257462D01*
X242099614Y-154023431D01*
X241876572Y-153815498D01*
X241747904Y-153661586D01*
X241727691Y-153610029D01*
X241729741Y-153496164D01*
X241735584Y-153231835D01*
X241744769Y-152835859D01*
X241756851Y-152327051D01*
X241771379Y-151724228D01*
X241787907Y-151046205D01*
X241805985Y-150311799D01*
X241812801Y-150036667D01*
X241827223Y-149445137D01*
X241843847Y-148745454D01*
X241862349Y-147952435D01*
X241882405Y-147080900D01*
X241903693Y-146145665D01*
X241925887Y-145161549D01*
X241948664Y-144143369D01*
X241971702Y-143105944D01*
X241994675Y-142064092D01*
X242017261Y-141032629D01*
X242039137Y-140026375D01*
X242059977Y-139060147D01*
X242079459Y-138148763D01*
X242097259Y-137307041D01*
X242113053Y-136549799D01*
X242126518Y-135891855D01*
X242137330Y-135348026D01*
X242145166Y-134933131D01*
X242149701Y-134661988D01*
X242150742Y-134563834D01*
X242121971Y-134358371D01*
X242027184Y-134289059D01*
X242015800Y-134288667D01*
X241915649Y-134313837D01*
X241666686Y-134386758D01*
X241281365Y-134503540D01*
X240772143Y-134660297D01*
X240151475Y-134853141D01*
X239431816Y-135078185D01*
X238625622Y-135331542D01*
X237745348Y-135609324D01*
X236803450Y-135907644D01*
X235812384Y-136222613D01*
X235475300Y-136329980D01*
X233826268Y-136855504D01*
X232331411Y-137331877D01*
X230983572Y-137761379D01*
X229775592Y-138146291D01*
X228700314Y-138488893D01*
X227750578Y-138791465D01*
X226919227Y-139056287D01*
X226199103Y-139285641D01*
X225583048Y-139481806D01*
X225063903Y-139647063D01*
X224634510Y-139783692D01*
X224307927Y-139887546D01*
X223525188Y-140136368D01*
X223270179Y-139947832D01*
X223121839Y-139812923D01*
X223071769Y-139713258D01*
X223079252Y-139698565D01*
X223133557Y-139674251D01*
X223276609Y-139622471D01*
X223513996Y-139541427D01*
X223851309Y-139429323D01*
X224294139Y-139284363D01*
X224848075Y-139104750D01*
X225518708Y-138888688D01*
X226311628Y-138634379D01*
X227232424Y-138340028D01*
X228286688Y-138003838D01*
X229480010Y-137624012D01*
X230817979Y-137198753D01*
X232306185Y-136726266D01*
X233950220Y-136204754D01*
X233980666Y-136195099D01*
X236080225Y-135528337D01*
X238081635Y-134890734D01*
X239962560Y-134289416D01*
X241459561Y-133809052D01*
X242007171Y-133635234D01*
X242500027Y-133483080D01*
X242915753Y-133359147D01*
X243231971Y-133269994D01*
X243426305Y-133222179D01*
X243478533Y-133217311D01*
X243483814Y-133306983D01*
X243485236Y-133552442D01*
X243888852Y-133552442D01*
X243892362Y-133204959D01*
X243893822Y-132887037D01*
X243891887Y-132720062D01*
X243889613Y-132697058D01*
X243875312Y-132690614D01*
X243844391Y-132690614D01*
X243788449Y-132699675D01*
X243699084Y-132720416D01*
X243567892Y-132755453D01*
X243386471Y-132807404D01*
X243146419Y-132878888D01*
X242839333Y-132972523D01*
X242456811Y-133090925D01*
X241990451Y-133236713D01*
X241431849Y-133412504D01*
X240772604Y-133620917D01*
X240004313Y-133864568D01*
X239118573Y-134146077D01*
X238106982Y-134468060D01*
X236961138Y-134833135D01*
X235672638Y-135243921D01*
X234233080Y-135703034D01*
X233896000Y-135810552D01*
X232302082Y-136318891D01*
X230861925Y-136778007D01*
X229568009Y-137190268D01*
X228412813Y-137558042D01*
X227388816Y-137883699D01*
X226488498Y-138169607D01*
X225704337Y-138418135D01*
X225028813Y-138631652D01*
X224454406Y-138812526D01*
X223973593Y-138963125D01*
X223578854Y-139085819D01*
X223262669Y-139182977D01*
X223017517Y-139256967D01*
X222835877Y-139310157D01*
X222710228Y-139344916D01*
X222633049Y-139363614D01*
X222598644Y-139368667D01*
X222459949Y-139319849D01*
X222293356Y-139211856D01*
X222094003Y-139055045D01*
X223296001Y-138669088D01*
X224077883Y-138418378D01*
X225004844Y-138121764D01*
X226060528Y-137784463D01*
X227228585Y-137411694D01*
X228492658Y-137008677D01*
X229836397Y-136580629D01*
X231243446Y-136132770D01*
X231313666Y-136110428D01*
X232080539Y-135866416D01*
X232888701Y-135609226D01*
X233700477Y-135350851D01*
X234478189Y-135103284D01*
X235184162Y-134878519D01*
X235780718Y-134688548D01*
X235970333Y-134628151D01*
X236528136Y-134450567D01*
X237207610Y-134234410D01*
X237969022Y-133992312D01*
X238772637Y-133736903D01*
X239578721Y-133480814D01*
X240347539Y-133236675D01*
X240500000Y-133188277D01*
X241204067Y-132964622D01*
X241907496Y-132740866D01*
X242580712Y-132526439D01*
X243194141Y-132330768D01*
X243718210Y-132163285D01*
X244123346Y-132033417D01*
X244255394Y-131990916D01*
X244646959Y-131867087D01*
X244975435Y-131767853D01*
X245210095Y-131702154D01*
X245320212Y-131678925D01*
X245324440Y-131679950D01*
X245326202Y-131766682D01*
X245787849Y-131766682D01*
X245786617Y-131521174D01*
X245774556Y-131317121D01*
X245751298Y-131202881D01*
X245716133Y-131158627D01*
X245701377Y-131156000D01*
X245587618Y-131180796D01*
G36*
X208350766Y-147490936D02*
G01*
X208303348Y-147505220D01*
X208032303Y-147651815D01*
X207816242Y-147847210D01*
X207700279Y-148047027D01*
X207691666Y-148106907D01*
X207740547Y-148345633D01*
X207891914Y-148645500D01*
X208152859Y-149016129D01*
X208530471Y-149467139D01*
X209031839Y-150008151D01*
X209284025Y-150267581D01*
X209772443Y-150768104D01*
X210234395Y-151248689D01*
X210655757Y-151694030D01*
X211022399Y-152088821D01*
X211320197Y-152417758D01*
X211535023Y-152665534D01*
X211652751Y-152816845D01*
X211671000Y-152853729D01*
X211652876Y-152872447D01*
X211586148Y-152866737D01*
X211452279Y-152830471D01*
X211232733Y-152757524D01*
X210908974Y-152641769D01*
X210462466Y-152477081D01*
X209935333Y-152280083D01*
X209242436Y-152023144D01*
X208511696Y-151757190D01*
X207791397Y-151499487D01*
X207129822Y-151267301D01*
X206575255Y-151077899D01*
X206548666Y-151069016D01*
X206302435Y-150990694D01*
X205947720Y-150882534D01*
X205538985Y-150760754D01*
X205130697Y-150641574D01*
X204777321Y-150541213D01*
X204761985Y-150536956D01*
X204479912Y-150495006D01*
X204256195Y-150523763D01*
X204112938Y-150602448D01*
X204072244Y-150710281D01*
X204156216Y-150826482D01*
X204354252Y-150920277D01*
X204545430Y-150986236D01*
X204841618Y-151093586D01*
X205189757Y-151222992D01*
X205321000Y-151272549D01*
X205725314Y-151413229D01*
X206148598Y-151540166D01*
X206512018Y-151630117D01*
X206576645Y-151642733D01*
X207078672Y-151761994D01*
X207685442Y-151951479D01*
X208355573Y-152195842D01*
X209047683Y-152479739D01*
X209720392Y-152787826D01*
X209888835Y-152870912D01*
X210841315Y-153348598D01*
X210777126Y-153661133D01*
X210754836Y-153861003D01*
X210738995Y-154188246D01*
X210730833Y-154600977D01*
X210731583Y-155057317D01*
X210733060Y-155159000D01*
X210726372Y-155926189D01*
X210673188Y-156631002D01*
X210565130Y-157310817D01*
X210393817Y-158003010D01*
X210150869Y-158744959D01*
X209827905Y-159574040D01*
X209647342Y-160001526D01*
X209522062Y-160308527D01*
X209429331Y-160566418D01*
X209386186Y-160727082D01*
X209385000Y-160742359D01*
X209433707Y-160861606D01*
X209559498Y-160862349D01*
X209731877Y-160756853D01*
X209920347Y-160557383D01*
X209952398Y-160514167D01*
X210291178Y-159966649D01*
X210623799Y-159292170D01*
X210933491Y-158532769D01*
X211203482Y-157730484D01*
X211417002Y-156927356D01*
X211457604Y-156740965D01*
X211518004Y-156341827D01*
X211561614Y-155830509D01*
X211584165Y-155263700D01*
X211586333Y-155031462D01*
X211592424Y-154606552D01*
X211609191Y-154254235D01*
X211634374Y-154005879D01*
X211665714Y-153892852D01*
X211668513Y-153890537D01*
X211750226Y-153879538D01*
X211891481Y-153923468D01*
X212108803Y-154031198D01*
X212418715Y-154211603D01*
X212837740Y-154473554D01*
X213251822Y-154740758D01*
X213601376Y-154977248D01*
X213938497Y-155226766D01*
X214281865Y-155506298D01*
X214650162Y-155832830D01*
X215062070Y-156223348D01*
X215536270Y-156694838D01*
X216091443Y-157264286D01*
X216528596Y-157720167D01*
X216866605Y-158060190D01*
X217126318Y-158292042D01*
X217300448Y-158411391D01*
X217381711Y-158413906D01*
X217362821Y-158295255D01*
X217311830Y-158185834D01*
X217216499Y-158031781D01*
X217041983Y-157776525D01*
X216811768Y-157453513D01*
X216549342Y-157096195D01*
X216505322Y-157037258D01*
X216209980Y-156633574D01*
X216008876Y-156333121D01*
X215887066Y-156109693D01*
X215829607Y-155937087D01*
X215819666Y-155834919D01*
X215808511Y-155705729D01*
X215760619Y-155585693D01*
X215654350Y-155449722D01*
X215468064Y-155272724D01*
X215180123Y-155029610D01*
X214994166Y-154877771D01*
X214654324Y-154584173D01*
X214224827Y-154185743D01*
X213727660Y-153704969D01*
X213184810Y-153164337D01*
X212618263Y-152586334D01*
X212050004Y-151993447D01*
X211502020Y-151408164D01*
X210996296Y-150852970D01*
X210554818Y-150350354D01*
X210467877Y-150248334D01*
X210001957Y-149682698D01*
X209656981Y-149228224D01*
X209430367Y-148880254D01*
X209319531Y-148634129D01*
X209321888Y-148485190D01*
X209434855Y-148428781D01*
X209458185Y-148428000D01*
X209635344Y-148461549D01*
X209930748Y-148552950D01*
X210309248Y-148688338D01*
X210735694Y-148853847D01*
X211174937Y-149035610D01*
X211591826Y-149219762D01*
X211951212Y-149392437D01*
X212094333Y-149467921D01*
X213323231Y-150180254D01*
X214462713Y-150921705D01*
X215546200Y-151708834D01*
X215853073Y-151927223D01*
X216077383Y-152036599D01*
X216259388Y-152044522D01*
X216439343Y-151958552D01*
X216527915Y-151893188D01*
X216689380Y-151737219D01*
X216741336Y-151590810D01*
X216673668Y-151433936D01*
X216476261Y-151246570D01*
X216138999Y-151008683D01*
X216052852Y-150952622D01*
X215672892Y-150705598D01*
X215273540Y-150442812D01*
X214924676Y-150210332D01*
X214835114Y-150149861D01*
X214252331Y-149778192D01*
X213607039Y-149407747D01*
X212919629Y-149046781D01*
X212210488Y-148703549D01*
X211500007Y-148386306D01*
X210808575Y-148103309D01*
X210156581Y-147862812D01*
X209564413Y-147673071D01*
X209052462Y-147542341D01*
X208641117Y-147478878D01*
X208350766Y-147490936D01*
G37*
X208350766Y-147490936D02*
X208303348Y-147505220D01*
X208032303Y-147651815D01*
X207816242Y-147847210D01*
X207700279Y-148047027D01*
X207691666Y-148106907D01*
X207740547Y-148345633D01*
X207891914Y-148645500D01*
X208152859Y-149016129D01*
X208530471Y-149467139D01*
X209031839Y-150008151D01*
X209284025Y-150267581D01*
X209772443Y-150768104D01*
X210234395Y-151248689D01*
X210655757Y-151694030D01*
X211022399Y-152088821D01*
X211320197Y-152417758D01*
X211535023Y-152665534D01*
X211652751Y-152816845D01*
X211671000Y-152853729D01*
X211652876Y-152872447D01*
X211586148Y-152866737D01*
X211452279Y-152830471D01*
X211232733Y-152757524D01*
X210908974Y-152641769D01*
X210462466Y-152477081D01*
X209935333Y-152280083D01*
X209242436Y-152023144D01*
X208511696Y-151757190D01*
X207791397Y-151499487D01*
X207129822Y-151267301D01*
X206575255Y-151077899D01*
X206548666Y-151069016D01*
X206302435Y-150990694D01*
X205947720Y-150882534D01*
X205538985Y-150760754D01*
X205130697Y-150641574D01*
X204777321Y-150541213D01*
X204761985Y-150536956D01*
X204479912Y-150495006D01*
X204256195Y-150523763D01*
X204112938Y-150602448D01*
X204072244Y-150710281D01*
X204156216Y-150826482D01*
X204354252Y-150920277D01*
X204545430Y-150986236D01*
X204841618Y-151093586D01*
X205189757Y-151222992D01*
X205321000Y-151272549D01*
X205725314Y-151413229D01*
X206148598Y-151540166D01*
X206512018Y-151630117D01*
X206576645Y-151642733D01*
X207078672Y-151761994D01*
X207685442Y-151951479D01*
X208355573Y-152195842D01*
X209047683Y-152479739D01*
X209720392Y-152787826D01*
X209888835Y-152870912D01*
X210841315Y-153348598D01*
X210777126Y-153661133D01*
X210754836Y-153861003D01*
X210738995Y-154188246D01*
X210730833Y-154600977D01*
X210731583Y-155057317D01*
X210733060Y-155159000D01*
X210726372Y-155926189D01*
X210673188Y-156631002D01*
X210565130Y-157310817D01*
X210393817Y-158003010D01*
X210150869Y-158744959D01*
X209827905Y-159574040D01*
X209647342Y-160001526D01*
X209522062Y-160308527D01*
X209429331Y-160566418D01*
X209386186Y-160727082D01*
X209385000Y-160742359D01*
X209433707Y-160861606D01*
X209559498Y-160862349D01*
X209731877Y-160756853D01*
X209920347Y-160557383D01*
X209952398Y-160514167D01*
X210291178Y-159966649D01*
X210623799Y-159292170D01*
X210933491Y-158532769D01*
X211203482Y-157730484D01*
X211417002Y-156927356D01*
X211457604Y-156740965D01*
X211518004Y-156341827D01*
X211561614Y-155830509D01*
X211584165Y-155263700D01*
X211586333Y-155031462D01*
X211592424Y-154606552D01*
X211609191Y-154254235D01*
X211634374Y-154005879D01*
X211665714Y-153892852D01*
X211668513Y-153890537D01*
X211750226Y-153879538D01*
X211891481Y-153923468D01*
X212108803Y-154031198D01*
X212418715Y-154211603D01*
X212837740Y-154473554D01*
X213251822Y-154740758D01*
X213601376Y-154977248D01*
X213938497Y-155226766D01*
X214281865Y-155506298D01*
X214650162Y-155832830D01*
X215062070Y-156223348D01*
X215536270Y-156694838D01*
X216091443Y-157264286D01*
X216528596Y-157720167D01*
X216866605Y-158060190D01*
X217126318Y-158292042D01*
X217300448Y-158411391D01*
X217381711Y-158413906D01*
X217362821Y-158295255D01*
X217311830Y-158185834D01*
X217216499Y-158031781D01*
X217041983Y-157776525D01*
X216811768Y-157453513D01*
X216549342Y-157096195D01*
X216505322Y-157037258D01*
X216209980Y-156633574D01*
X216008876Y-156333121D01*
X215887066Y-156109693D01*
X215829607Y-155937087D01*
X215819666Y-155834919D01*
X215808511Y-155705729D01*
X215760619Y-155585693D01*
X215654350Y-155449722D01*
X215468064Y-155272724D01*
X215180123Y-155029610D01*
X214994166Y-154877771D01*
X214654324Y-154584173D01*
X214224827Y-154185743D01*
X213727660Y-153704969D01*
X213184810Y-153164337D01*
X212618263Y-152586334D01*
X212050004Y-151993447D01*
X211502020Y-151408164D01*
X210996296Y-150852970D01*
X210554818Y-150350354D01*
X210467877Y-150248334D01*
X210001957Y-149682698D01*
X209656981Y-149228224D01*
X209430367Y-148880254D01*
X209319531Y-148634129D01*
X209321888Y-148485190D01*
X209434855Y-148428781D01*
X209458185Y-148428000D01*
X209635344Y-148461549D01*
X209930748Y-148552950D01*
X210309248Y-148688338D01*
X210735694Y-148853847D01*
X211174937Y-149035610D01*
X211591826Y-149219762D01*
X211951212Y-149392437D01*
X212094333Y-149467921D01*
X213323231Y-150180254D01*
X214462713Y-150921705D01*
X215546200Y-151708834D01*
X215853073Y-151927223D01*
X216077383Y-152036599D01*
X216259388Y-152044522D01*
X216439343Y-151958552D01*
X216527915Y-151893188D01*
X216689380Y-151737219D01*
X216741336Y-151590810D01*
X216673668Y-151433936D01*
X216476261Y-151246570D01*
X216138999Y-151008683D01*
X216052852Y-150952622D01*
X215672892Y-150705598D01*
X215273540Y-150442812D01*
X214924676Y-150210332D01*
X214835114Y-150149861D01*
X214252331Y-149778192D01*
X213607039Y-149407747D01*
X212919629Y-149046781D01*
X212210488Y-148703549D01*
X211500007Y-148386306D01*
X210808575Y-148103309D01*
X210156581Y-147862812D01*
X209564413Y-147673071D01*
X209052462Y-147542341D01*
X208641117Y-147478878D01*
X208350766Y-147490936D01*
M02*
