G04 #@! TF.GenerationSoftware,KiCad,Pcbnew,(5.1.9)-1*
G04 #@! TF.CreationDate,2021-05-17T17:10:14+01:00*
G04 #@! TF.ProjectId,EnvKB65,456e764b-4236-4352-9e6b-696361645f70,rev?*
G04 #@! TF.SameCoordinates,Original*
G04 #@! TF.FileFunction,Soldermask,Bot*
G04 #@! TF.FilePolarity,Negative*
%FSLAX46Y46*%
G04 Gerber Fmt 4.6, Leading zero omitted, Abs format (unit mm)*
G04 Created by KiCad (PCBNEW (5.1.9)-1) date 2021-05-17 17:10:14*
%MOMM*%
%LPD*%
G01*
G04 APERTURE LIST*
%ADD10R,1.000000X1.000000*%
%ADD11C,2.200000*%
%ADD12O,1.700000X1.700000*%
%ADD13R,1.700000X1.700000*%
%ADD14C,2.250000*%
%ADD15C,3.987800*%
%ADD16C,1.750000*%
%ADD17C,3.048000*%
G04 APERTURE END LIST*
D10*
X368750000Y-188959120D03*
X368750000Y-191459120D03*
X366334200Y-188959120D03*
X366334200Y-191459120D03*
X347284200Y-188959120D03*
X347284200Y-191459120D03*
X328234200Y-188959120D03*
X328234200Y-191459120D03*
X309184200Y-188959120D03*
X309184200Y-191459120D03*
X290134200Y-188959120D03*
X290134200Y-191459120D03*
X271084200Y-188959120D03*
X271084200Y-191459120D03*
X252034200Y-188959120D03*
X252034200Y-191459120D03*
X209171700Y-188959120D03*
X209171700Y-191459120D03*
X175834200Y-188959120D03*
X175834200Y-191459120D03*
X132971700Y-188959120D03*
X132971700Y-191459120D03*
X109159200Y-188959120D03*
X109159200Y-191459120D03*
X85346700Y-188959120D03*
X85346700Y-191459120D03*
X369250000Y-174434120D03*
X369250000Y-176934120D03*
X366484200Y-174434120D03*
X366484200Y-176934120D03*
X347434200Y-174434120D03*
X347434200Y-176934120D03*
X321784200Y-174434120D03*
X321784200Y-176934120D03*
X295046700Y-174434120D03*
X295046700Y-176934120D03*
X275996700Y-174434120D03*
X275996700Y-176934120D03*
X256946700Y-174434120D03*
X256946700Y-176934120D03*
X237896700Y-174434120D03*
X237896700Y-176934120D03*
X218846700Y-173300000D03*
X218846700Y-175800000D03*
X199796700Y-174434120D03*
X199796700Y-176934120D03*
X180746700Y-174434120D03*
X180746700Y-176934120D03*
X161696700Y-174434120D03*
X161696700Y-176934120D03*
X142646700Y-173525000D03*
X142646700Y-176025000D03*
X123596700Y-174434120D03*
X123596700Y-176934120D03*
X104546700Y-174434120D03*
X104546700Y-176934120D03*
X85496700Y-174434120D03*
X85496700Y-176934120D03*
X323771700Y-155359120D03*
X323771700Y-157859120D03*
X304721700Y-155359120D03*
X304721700Y-157859120D03*
X285671700Y-155359120D03*
X285671700Y-157859120D03*
X266621700Y-155359120D03*
X266621700Y-157859120D03*
X247571700Y-155359120D03*
X247571700Y-157859120D03*
X228521700Y-155359120D03*
X228521700Y-157859120D03*
X209471700Y-155359120D03*
X209471700Y-157859120D03*
X190421700Y-155359120D03*
X190421700Y-157859120D03*
X171371700Y-155359120D03*
X171371700Y-157859120D03*
X152321700Y-155359120D03*
X152321700Y-157859120D03*
X133271700Y-155359120D03*
X133271700Y-157859120D03*
X114221700Y-155359120D03*
X114221700Y-157859120D03*
X85646700Y-155359120D03*
X85646700Y-157859120D03*
X347234200Y-155334120D03*
X347234200Y-157834120D03*
X318959200Y-136384120D03*
X318959200Y-138884120D03*
X299909200Y-136384120D03*
X299909200Y-138884120D03*
X280859200Y-136384120D03*
X280859200Y-138884120D03*
X261809200Y-136384120D03*
X261809200Y-138884120D03*
X242759200Y-136384120D03*
X242759200Y-138884120D03*
X223709200Y-136384120D03*
X223709200Y-138884120D03*
X204659200Y-136384120D03*
X204659200Y-138884120D03*
X185609200Y-136384120D03*
X185609200Y-138884120D03*
X166559200Y-136384120D03*
X166559200Y-138884120D03*
X147509200Y-136384120D03*
X147509200Y-138884120D03*
X128459200Y-136384120D03*
X128459200Y-138884120D03*
X109409200Y-136384120D03*
X109409200Y-138884120D03*
X90359200Y-136384120D03*
X90359200Y-138884120D03*
X347384200Y-117284120D03*
X347384200Y-119784120D03*
X309284200Y-117284120D03*
X309284200Y-119784120D03*
X290234200Y-117284120D03*
X290234200Y-119784120D03*
X271184200Y-117284120D03*
X271184200Y-119784120D03*
X252134200Y-117284120D03*
X252134200Y-119784120D03*
X233084200Y-117284120D03*
X233084200Y-119784120D03*
X214034200Y-117284120D03*
X214034200Y-119784120D03*
X194984200Y-117284120D03*
X194984200Y-119784120D03*
X175934200Y-117284120D03*
X175934200Y-119784120D03*
X156884200Y-117284120D03*
X156884200Y-119784120D03*
X137834200Y-117284120D03*
X137834200Y-119784120D03*
X118784200Y-117284120D03*
X118784200Y-119784120D03*
X99734200Y-117284120D03*
X99734200Y-119784120D03*
X80684200Y-117284120D03*
X80684200Y-119784120D03*
D11*
X231250000Y-178000000D03*
X225000000Y-122500000D03*
X367750000Y-180500000D03*
X70600000Y-178200000D03*
X69000000Y-101000000D03*
X382200000Y-101000000D03*
D12*
X376670000Y-99020000D03*
X376670000Y-101560000D03*
D13*
X376670000Y-104100000D03*
D12*
X376670000Y-106640000D03*
X376670000Y-109180000D03*
X376670000Y-111720000D03*
X376670000Y-114260000D03*
D13*
X376670000Y-116800000D03*
D12*
X376670000Y-119340000D03*
X376670000Y-121880000D03*
X376670000Y-124420000D03*
X376670000Y-126960000D03*
D13*
X376670000Y-129500000D03*
D12*
X376670000Y-132040000D03*
X376670000Y-134580000D03*
X376670000Y-137120000D03*
X376670000Y-139660000D03*
D13*
X376670000Y-142200000D03*
D12*
X376670000Y-144740000D03*
X376670000Y-147280000D03*
X358890000Y-147280000D03*
X358890000Y-144740000D03*
D13*
X358890000Y-142200000D03*
D12*
X358890000Y-139660000D03*
X358890000Y-137120000D03*
X358890000Y-134580000D03*
X358890000Y-132040000D03*
D13*
X358890000Y-129500000D03*
D12*
X358890000Y-126960000D03*
X358890000Y-124420000D03*
X358890000Y-121880000D03*
X358890000Y-119340000D03*
D13*
X358890000Y-116800000D03*
D12*
X358890000Y-114260000D03*
X358890000Y-111720000D03*
X358890000Y-109180000D03*
X358890000Y-106640000D03*
D13*
X358890000Y-104100000D03*
D12*
X358890000Y-101560000D03*
X358890000Y-99020000D03*
D14*
X341914200Y-142624120D03*
D15*
X336834200Y-140084120D03*
D14*
X339374200Y-136274120D03*
D16*
X336834200Y-135004120D03*
X336834200Y-145164120D03*
D17*
X343819200Y-152022120D03*
X343819200Y-128146120D03*
D15*
X328579200Y-152022120D03*
X328579200Y-128146120D03*
D16*
X199032950Y-187709120D03*
X188872950Y-187709120D03*
D14*
X190142950Y-185169120D03*
D15*
X193952950Y-187709120D03*
D14*
X196492950Y-182629120D03*
D15*
X243959200Y-179454120D03*
X220146700Y-179454120D03*
D17*
X243959200Y-194694120D03*
X220146700Y-194694120D03*
D16*
X237132950Y-187709120D03*
X226972950Y-187709120D03*
D14*
X228242950Y-185169120D03*
D15*
X232052950Y-187709120D03*
D14*
X234592950Y-182629120D03*
D16*
X363339200Y-187709120D03*
X353179200Y-187709120D03*
D14*
X354449200Y-185169120D03*
D15*
X358259200Y-187709120D03*
D14*
X360799200Y-182629120D03*
D16*
X268089200Y-187709120D03*
X257929200Y-187709120D03*
D14*
X259199200Y-185169120D03*
D15*
X263009200Y-187709120D03*
D14*
X265549200Y-182629120D03*
D16*
X84764200Y-149609120D03*
X74604200Y-149609120D03*
D14*
X75874200Y-147069120D03*
D15*
X79684200Y-149609120D03*
D14*
X82224200Y-144529120D03*
D15*
X167759200Y-179454120D03*
X143946700Y-179454120D03*
D17*
X167759200Y-194694120D03*
X143946700Y-194694120D03*
D16*
X160932950Y-187709120D03*
X150772950Y-187709120D03*
D14*
X152042950Y-185169120D03*
D15*
X155852950Y-187709120D03*
D14*
X158392950Y-182629120D03*
D16*
X318114200Y-168659120D03*
X307954200Y-168659120D03*
D14*
X309224200Y-166119120D03*
D15*
X313034200Y-168659120D03*
D14*
X315574200Y-163579120D03*
D16*
X382389200Y-187709120D03*
X372229200Y-187709120D03*
D14*
X373499200Y-185169120D03*
D15*
X377309200Y-187709120D03*
D14*
X379849200Y-182629120D03*
D16*
X344289200Y-187709120D03*
X334129200Y-187709120D03*
D14*
X335399200Y-185169120D03*
D15*
X339209200Y-187709120D03*
D14*
X341749200Y-182629120D03*
D16*
X325239200Y-187709120D03*
X315079200Y-187709120D03*
D14*
X316349200Y-185169120D03*
D15*
X320159200Y-187709120D03*
D14*
X322699200Y-182629120D03*
D16*
X306189200Y-187709120D03*
X296029200Y-187709120D03*
D14*
X297299200Y-185169120D03*
D15*
X301109200Y-187709120D03*
D14*
X303649200Y-182629120D03*
D16*
X287139200Y-187709120D03*
X276979200Y-187709120D03*
D14*
X278249200Y-185169120D03*
D15*
X282059200Y-187709120D03*
D14*
X284599200Y-182629120D03*
D16*
X127595450Y-187709120D03*
X117435450Y-187709120D03*
D14*
X118705450Y-185169120D03*
D15*
X122515450Y-187709120D03*
D14*
X125055450Y-182629120D03*
D16*
X103782950Y-187709120D03*
X93622950Y-187709120D03*
D14*
X94892950Y-185169120D03*
D15*
X98702950Y-187709120D03*
D14*
X101242950Y-182629120D03*
D16*
X79970450Y-187709120D03*
X69810450Y-187709120D03*
D14*
X71080450Y-185169120D03*
D15*
X74890450Y-187709120D03*
D14*
X77430450Y-182629120D03*
D16*
X382389200Y-168659120D03*
X372229200Y-168659120D03*
D14*
X373499200Y-166119120D03*
D15*
X377309200Y-168659120D03*
D14*
X379849200Y-163579120D03*
D16*
X363339200Y-168659120D03*
X353179200Y-168659120D03*
D14*
X354449200Y-166119120D03*
D15*
X358259200Y-168659120D03*
D14*
X360799200Y-163579120D03*
D16*
X344289200Y-168659120D03*
X334129200Y-168659120D03*
D14*
X335399200Y-166119120D03*
D15*
X339209200Y-168659120D03*
D14*
X341749200Y-163579120D03*
D16*
X291901700Y-168659120D03*
X281741700Y-168659120D03*
D14*
X283011700Y-166119120D03*
D15*
X286821700Y-168659120D03*
D14*
X289361700Y-163579120D03*
D16*
X272851700Y-168659120D03*
X262691700Y-168659120D03*
D14*
X263961700Y-166119120D03*
D15*
X267771700Y-168659120D03*
D14*
X270311700Y-163579120D03*
D16*
X253801700Y-168659120D03*
X243641700Y-168659120D03*
D14*
X244911700Y-166119120D03*
D15*
X248721700Y-168659120D03*
D14*
X251261700Y-163579120D03*
D16*
X234751700Y-168659120D03*
X224591700Y-168659120D03*
D14*
X225861700Y-166119120D03*
D15*
X229671700Y-168659120D03*
D14*
X232211700Y-163579120D03*
D16*
X215701700Y-168659120D03*
X205541700Y-168659120D03*
D14*
X206811700Y-166119120D03*
D15*
X210621700Y-168659120D03*
D14*
X213161700Y-163579120D03*
D16*
X196651700Y-168659120D03*
X186491700Y-168659120D03*
D14*
X187761700Y-166119120D03*
D15*
X191571700Y-168659120D03*
D14*
X194111700Y-163579120D03*
D16*
X177601700Y-168659120D03*
X167441700Y-168659120D03*
D14*
X168711700Y-166119120D03*
D15*
X172521700Y-168659120D03*
D14*
X175061700Y-163579120D03*
D16*
X158551700Y-168659120D03*
X148391700Y-168659120D03*
D14*
X149661700Y-166119120D03*
D15*
X153471700Y-168659120D03*
D14*
X156011700Y-163579120D03*
D16*
X139501700Y-168659120D03*
X129341700Y-168659120D03*
D14*
X130611700Y-166119120D03*
D15*
X134421700Y-168659120D03*
D14*
X136961700Y-163579120D03*
D16*
X120451700Y-168659120D03*
X110291700Y-168659120D03*
D14*
X111561700Y-166119120D03*
D15*
X115371700Y-168659120D03*
D14*
X117911700Y-163579120D03*
D16*
X101401700Y-168659120D03*
X91241700Y-168659120D03*
D14*
X92511700Y-166119120D03*
D15*
X96321700Y-168659120D03*
D14*
X98861700Y-163579120D03*
D16*
X79970450Y-168659120D03*
X69810450Y-168659120D03*
D14*
X71080450Y-166119120D03*
D15*
X74890450Y-168659120D03*
D14*
X77430450Y-163579120D03*
D16*
X320476700Y-149609120D03*
X310316700Y-149609120D03*
D14*
X311586700Y-147069120D03*
D15*
X315396700Y-149609120D03*
D14*
X317936700Y-144529120D03*
D16*
X301426700Y-149609120D03*
X291266700Y-149609120D03*
D14*
X292536700Y-147069120D03*
D15*
X296346700Y-149609120D03*
D14*
X298886700Y-144529120D03*
D16*
X282376700Y-149609120D03*
X272216700Y-149609120D03*
D14*
X273486700Y-147069120D03*
D15*
X277296700Y-149609120D03*
D14*
X279836700Y-144529120D03*
D16*
X263326700Y-149609120D03*
X253166700Y-149609120D03*
D14*
X254436700Y-147069120D03*
D15*
X258246700Y-149609120D03*
D14*
X260786700Y-144529120D03*
D16*
X244276700Y-149609120D03*
X234116700Y-149609120D03*
D14*
X235386700Y-147069120D03*
D15*
X239196700Y-149609120D03*
D14*
X241736700Y-144529120D03*
D16*
X225226700Y-149609120D03*
X215066700Y-149609120D03*
D14*
X216336700Y-147069120D03*
D15*
X220146700Y-149609120D03*
D14*
X222686700Y-144529120D03*
D16*
X206176700Y-149609120D03*
X196016700Y-149609120D03*
D14*
X197286700Y-147069120D03*
D15*
X201096700Y-149609120D03*
D14*
X203636700Y-144529120D03*
D16*
X187126700Y-149609120D03*
X176966700Y-149609120D03*
D14*
X178236700Y-147069120D03*
D15*
X182046700Y-149609120D03*
D14*
X184586700Y-144529120D03*
D16*
X168076700Y-149609120D03*
X157916700Y-149609120D03*
D14*
X159186700Y-147069120D03*
D15*
X162996700Y-149609120D03*
D14*
X165536700Y-144529120D03*
D16*
X149026700Y-149609120D03*
X138866700Y-149609120D03*
D14*
X140136700Y-147069120D03*
D15*
X143946700Y-149609120D03*
D14*
X146486700Y-144529120D03*
D16*
X129976700Y-149609120D03*
X119816700Y-149609120D03*
D14*
X121086700Y-147069120D03*
D15*
X124896700Y-149609120D03*
D14*
X127436700Y-144529120D03*
D16*
X110926700Y-149609120D03*
X100766700Y-149609120D03*
D14*
X102036700Y-147069120D03*
D15*
X105846700Y-149609120D03*
D14*
X108386700Y-144529120D03*
D16*
X315714200Y-130559120D03*
X305554200Y-130559120D03*
D14*
X306824200Y-128019120D03*
D15*
X310634200Y-130559120D03*
D14*
X313174200Y-125479120D03*
D16*
X296664200Y-130559120D03*
X286504200Y-130559120D03*
D14*
X287774200Y-128019120D03*
D15*
X291584200Y-130559120D03*
D14*
X294124200Y-125479120D03*
D16*
X277614200Y-130559120D03*
X267454200Y-130559120D03*
D14*
X268724200Y-128019120D03*
D15*
X272534200Y-130559120D03*
D14*
X275074200Y-125479120D03*
D16*
X258564200Y-130559120D03*
X248404200Y-130559120D03*
D14*
X249674200Y-128019120D03*
D15*
X253484200Y-130559120D03*
D14*
X256024200Y-125479120D03*
D16*
X239514200Y-130559120D03*
X229354200Y-130559120D03*
D14*
X230624200Y-128019120D03*
D15*
X234434200Y-130559120D03*
D14*
X236974200Y-125479120D03*
D16*
X220464200Y-130559120D03*
X210304200Y-130559120D03*
D14*
X211574200Y-128019120D03*
D15*
X215384200Y-130559120D03*
D14*
X217924200Y-125479120D03*
D16*
X201414200Y-130559120D03*
X191254200Y-130559120D03*
D14*
X192524200Y-128019120D03*
D15*
X196334200Y-130559120D03*
D14*
X198874200Y-125479120D03*
D16*
X182364200Y-130559120D03*
X172204200Y-130559120D03*
D14*
X173474200Y-128019120D03*
D15*
X177284200Y-130559120D03*
D14*
X179824200Y-125479120D03*
D16*
X163314200Y-130559120D03*
X153154200Y-130559120D03*
D14*
X154424200Y-128019120D03*
D15*
X158234200Y-130559120D03*
D14*
X160774200Y-125479120D03*
D16*
X144264200Y-130559120D03*
X134104200Y-130559120D03*
D14*
X135374200Y-128019120D03*
D15*
X139184200Y-130559120D03*
D14*
X141724200Y-125479120D03*
D16*
X125214200Y-130559120D03*
X115054200Y-130559120D03*
D14*
X116324200Y-128019120D03*
D15*
X120134200Y-130559120D03*
D14*
X122674200Y-125479120D03*
D16*
X106164200Y-130559120D03*
X96004200Y-130559120D03*
D14*
X97274200Y-128019120D03*
D15*
X101084200Y-130559120D03*
D14*
X103624200Y-125479120D03*
D16*
X82351700Y-130559120D03*
X72191700Y-130559120D03*
D14*
X73461700Y-128019120D03*
D15*
X77271700Y-130559120D03*
D14*
X79811700Y-125479120D03*
D15*
X341590450Y-119764120D03*
X317777950Y-119764120D03*
D17*
X341590450Y-104524120D03*
X317777950Y-104524120D03*
D16*
X334764200Y-111509120D03*
X324604200Y-111509120D03*
D14*
X325874200Y-108969120D03*
D15*
X329684200Y-111509120D03*
D14*
X332224200Y-106429120D03*
D16*
X306189200Y-111509120D03*
X296029200Y-111509120D03*
D14*
X297299200Y-108969120D03*
D15*
X301109200Y-111509120D03*
D14*
X303649200Y-106429120D03*
D16*
X287139200Y-111509120D03*
X276979200Y-111509120D03*
D14*
X278249200Y-108969120D03*
D15*
X282059200Y-111509120D03*
D14*
X284599200Y-106429120D03*
D16*
X268089200Y-111509120D03*
X257929200Y-111509120D03*
D14*
X259199200Y-108969120D03*
D15*
X263009200Y-111509120D03*
D14*
X265549200Y-106429120D03*
D16*
X249039200Y-111509120D03*
X238879200Y-111509120D03*
D14*
X240149200Y-108969120D03*
D15*
X243959200Y-111509120D03*
D14*
X246499200Y-106429120D03*
D16*
X229989200Y-111509120D03*
X219829200Y-111509120D03*
D14*
X221099200Y-108969120D03*
D15*
X224909200Y-111509120D03*
D14*
X227449200Y-106429120D03*
D16*
X210939200Y-111509120D03*
X200779200Y-111509120D03*
D14*
X202049200Y-108969120D03*
D15*
X205859200Y-111509120D03*
D14*
X208399200Y-106429120D03*
D16*
X191889200Y-111509120D03*
X181729200Y-111509120D03*
D14*
X182999200Y-108969120D03*
D15*
X186809200Y-111509120D03*
D14*
X189349200Y-106429120D03*
D16*
X172839200Y-111509120D03*
X162679200Y-111509120D03*
D14*
X163949200Y-108969120D03*
D15*
X167759200Y-111509120D03*
D14*
X170299200Y-106429120D03*
D16*
X153789200Y-111509120D03*
X143629200Y-111509120D03*
D14*
X144899200Y-108969120D03*
D15*
X148709200Y-111509120D03*
D14*
X151249200Y-106429120D03*
D16*
X134739200Y-111509120D03*
X124579200Y-111509120D03*
D14*
X125849200Y-108969120D03*
D15*
X129659200Y-111509120D03*
D14*
X132199200Y-106429120D03*
D16*
X115689200Y-111509120D03*
X105529200Y-111509120D03*
D14*
X106799200Y-108969120D03*
D15*
X110609200Y-111509120D03*
D14*
X113149200Y-106429120D03*
D16*
X96639200Y-111509120D03*
X86479200Y-111509120D03*
D14*
X87749200Y-108969120D03*
D15*
X91559200Y-111509120D03*
D14*
X94099200Y-106429120D03*
D16*
X77589200Y-111509120D03*
X67429200Y-111509120D03*
D14*
X68699200Y-108969120D03*
D15*
X72509200Y-111509120D03*
D14*
X75049200Y-106429120D03*
M02*
