%FSLAX45Y45*%
G04 Gerber Fmt 4.5, Leading zero omitted, Abs format (unit mm)*
G04 Created by KiCad (PCBNEW (5.1.9)-1) date 2021-05-17 15:39:48*
%MOMM*%
%LPD*%
G01*
G04 APERTURE LIST*
%TA.AperFunction,Profile*%
%ADD10C,0.100000*%
%TD*%
%ADD11C,0.200000*%
%ADD12C,0.300000*%
G04 APERTURE END LIST*
D10*
X6790000Y-19695000D02*
G75*
G02*
X6540000Y-19445000I0J250000D01*
G01*
X38475000Y-19445000D02*
G75*
G02*
X38225000Y-19695000I-250000J0D01*
G01*
X38225000Y-9765000D02*
G75*
G02*
X38475000Y-10015000I0J-250000D01*
G01*
X6540000Y-10015000D02*
G75*
G02*
X6790000Y-9765000I250000J0D01*
G01*
X6540000Y-19445000D02*
X6540000Y-10015000D01*
X6790000Y-19695000D02*
X38225000Y-19695000D01*
X38475000Y-19445000D02*
X38475000Y-10015000D01*
X38225000Y-9765000D02*
X6790000Y-9765000D01*
D11*
X6655420Y-11063412D02*
X6830420Y-11238412D01*
X6830420Y-11063412D02*
X6655420Y-11238412D01*
X6893545Y-16778412D02*
X7068545Y-16953412D01*
X7068545Y-16778412D02*
X6893545Y-16953412D01*
X6893545Y-18683412D02*
X7068545Y-18858412D01*
X7068545Y-18683412D02*
X6893545Y-18858412D01*
X7131670Y-12968412D02*
X7306670Y-13143412D01*
X7306670Y-12968412D02*
X7131670Y-13143412D01*
X7372920Y-14873412D02*
X7547920Y-15048412D01*
X7547920Y-14873412D02*
X7372920Y-15048412D01*
X7671420Y-11063412D02*
X7846420Y-11238412D01*
X7846420Y-11063412D02*
X7671420Y-11238412D01*
X7909545Y-16778412D02*
X8084545Y-16953412D01*
X8084545Y-16778412D02*
X7909545Y-16953412D01*
X7909545Y-18683412D02*
X8084545Y-18858412D01*
X8084545Y-18683412D02*
X7909545Y-18858412D01*
X8147670Y-12968412D02*
X8322670Y-13143412D01*
X8322670Y-12968412D02*
X8147670Y-13143412D01*
X8388920Y-14873412D02*
X8563920Y-15048412D01*
X8563920Y-14873412D02*
X8388920Y-15048412D01*
X8560420Y-11063412D02*
X8735420Y-11238412D01*
X8735420Y-11063412D02*
X8560420Y-11238412D01*
X9036670Y-16778412D02*
X9211670Y-16953412D01*
X9211670Y-16778412D02*
X9036670Y-16953412D01*
X9274795Y-18683412D02*
X9449795Y-18858412D01*
X9449795Y-18683412D02*
X9274795Y-18858412D01*
X9512920Y-12968412D02*
X9687920Y-13143412D01*
X9687920Y-12968412D02*
X9512920Y-13143412D01*
X9576420Y-11063412D02*
X9751420Y-11238412D01*
X9751420Y-11063412D02*
X9576420Y-11238412D01*
X9989170Y-14873412D02*
X10164170Y-15048412D01*
X10164170Y-14873412D02*
X9989170Y-15048412D01*
X10052670Y-16778412D02*
X10227670Y-16953412D01*
X10227670Y-16778412D02*
X10052670Y-16953412D01*
X10290795Y-18683412D02*
X10465795Y-18858412D01*
X10465795Y-18683412D02*
X10290795Y-18858412D01*
X10465420Y-11063412D02*
X10640420Y-11238412D01*
X10640420Y-11063412D02*
X10465420Y-11238412D01*
X10528920Y-12968412D02*
X10703920Y-13143412D01*
X10703920Y-12968412D02*
X10528920Y-13143412D01*
X10941670Y-16778412D02*
X11116670Y-16953412D01*
X11116670Y-16778412D02*
X10941670Y-16953412D01*
X11005170Y-14873412D02*
X11180170Y-15048412D01*
X11180170Y-14873412D02*
X11005170Y-15048412D01*
X11417920Y-12968412D02*
X11592920Y-13143412D01*
X11592920Y-12968412D02*
X11417920Y-13143412D01*
X11481420Y-11063412D02*
X11656420Y-11238412D01*
X11656420Y-11063412D02*
X11481420Y-11238412D01*
X11656045Y-18683412D02*
X11831045Y-18858412D01*
X11831045Y-18683412D02*
X11656045Y-18858412D01*
X11894170Y-14873412D02*
X12069170Y-15048412D01*
X12069170Y-14873412D02*
X11894170Y-15048412D01*
X11957670Y-16778412D02*
X12132670Y-16953412D01*
X12132670Y-16778412D02*
X11957670Y-16953412D01*
X12370420Y-11063412D02*
X12545420Y-11238412D01*
X12545420Y-11063412D02*
X12370420Y-11238412D01*
X12433920Y-12968412D02*
X12608920Y-13143412D01*
X12608920Y-12968412D02*
X12433920Y-13143412D01*
X12672045Y-18683412D02*
X12847045Y-18858412D01*
X12847045Y-18683412D02*
X12672045Y-18858412D01*
X12846670Y-16778412D02*
X13021670Y-16953412D01*
X13021670Y-16778412D02*
X12846670Y-16953412D01*
X12910170Y-14873412D02*
X13085170Y-15048412D01*
X13085170Y-14873412D02*
X12910170Y-15048412D01*
X13322920Y-12968412D02*
X13497920Y-13143412D01*
X13497920Y-12968412D02*
X13322920Y-13143412D01*
X13386420Y-11063412D02*
X13561420Y-11238412D01*
X13561420Y-11063412D02*
X13386420Y-11238412D01*
X13799170Y-14873412D02*
X13974170Y-15048412D01*
X13974170Y-14873412D02*
X13799170Y-15048412D01*
X13862670Y-16778412D02*
X14037670Y-16953412D01*
X14037670Y-16778412D02*
X13862670Y-16953412D01*
X14275420Y-11063412D02*
X14450420Y-11238412D01*
X14450420Y-11063412D02*
X14275420Y-11238412D01*
X14338920Y-12968412D02*
X14513920Y-13143412D01*
X14513920Y-12968412D02*
X14338920Y-13143412D01*
X14751670Y-16778412D02*
X14926670Y-16953412D01*
X14926670Y-16778412D02*
X14751670Y-16953412D01*
X14815170Y-14873412D02*
X14990170Y-15048412D01*
X14990170Y-14873412D02*
X14815170Y-15048412D01*
X14989795Y-18683412D02*
X15164795Y-18858412D01*
X15164795Y-18683412D02*
X14989795Y-18858412D01*
X15227920Y-12968412D02*
X15402920Y-13143412D01*
X15402920Y-12968412D02*
X15227920Y-13143412D01*
X15291420Y-11063412D02*
X15466420Y-11238412D01*
X15466420Y-11063412D02*
X15291420Y-11238412D01*
X15704170Y-14873412D02*
X15879170Y-15048412D01*
X15879170Y-14873412D02*
X15704170Y-15048412D01*
X15767670Y-16778412D02*
X15942670Y-16953412D01*
X15942670Y-16778412D02*
X15767670Y-16953412D01*
X16005795Y-18683412D02*
X16180795Y-18858412D01*
X16180795Y-18683412D02*
X16005795Y-18858412D01*
X16180420Y-11063412D02*
X16355420Y-11238412D01*
X16355420Y-11063412D02*
X16180420Y-11238412D01*
X16243920Y-12968412D02*
X16418920Y-13143412D01*
X16418920Y-12968412D02*
X16243920Y-13143412D01*
X16656670Y-16778412D02*
X16831670Y-16953412D01*
X16831670Y-16778412D02*
X16656670Y-16953412D01*
X16720170Y-14873412D02*
X16895170Y-15048412D01*
X16895170Y-14873412D02*
X16720170Y-15048412D01*
X17132920Y-12968412D02*
X17307920Y-13143412D01*
X17307920Y-12968412D02*
X17132920Y-13143412D01*
X17196420Y-11063412D02*
X17371420Y-11238412D01*
X17371420Y-11063412D02*
X17196420Y-11238412D01*
X17609170Y-14873412D02*
X17784170Y-15048412D01*
X17784170Y-14873412D02*
X17609170Y-15048412D01*
X17672670Y-16778412D02*
X17847670Y-16953412D01*
X17847670Y-16778412D02*
X17672670Y-16953412D01*
X18085420Y-11063412D02*
X18260420Y-11238412D01*
X18260420Y-11063412D02*
X18085420Y-11238412D01*
X18148920Y-12968412D02*
X18323920Y-13143412D01*
X18323920Y-12968412D02*
X18148920Y-13143412D01*
X18561670Y-16778412D02*
X18736670Y-16953412D01*
X18736670Y-16778412D02*
X18561670Y-16953412D01*
X18625170Y-14873412D02*
X18800170Y-15048412D01*
X18800170Y-14873412D02*
X18625170Y-15048412D01*
X18799795Y-18683412D02*
X18974795Y-18858412D01*
X18974795Y-18683412D02*
X18799795Y-18858412D01*
X19037920Y-12968412D02*
X19212920Y-13143412D01*
X19212920Y-12968412D02*
X19037920Y-13143412D01*
X19101420Y-11063412D02*
X19276420Y-11238412D01*
X19276420Y-11063412D02*
X19101420Y-11238412D01*
X19514170Y-14873412D02*
X19689170Y-15048412D01*
X19689170Y-14873412D02*
X19514170Y-15048412D01*
X19577670Y-16778412D02*
X19752670Y-16953412D01*
X19752670Y-16778412D02*
X19577670Y-16953412D01*
X19815795Y-18683412D02*
X19990795Y-18858412D01*
X19990795Y-18683412D02*
X19815795Y-18858412D01*
X19990420Y-11063412D02*
X20165420Y-11238412D01*
X20165420Y-11063412D02*
X19990420Y-11238412D01*
X20053920Y-12968412D02*
X20228920Y-13143412D01*
X20228920Y-12968412D02*
X20053920Y-13143412D01*
X20466670Y-16778412D02*
X20641670Y-16953412D01*
X20641670Y-16778412D02*
X20466670Y-16953412D01*
X20530170Y-14873412D02*
X20705170Y-15048412D01*
X20705170Y-14873412D02*
X20530170Y-15048412D01*
X20942920Y-12968412D02*
X21117920Y-13143412D01*
X21117920Y-12968412D02*
X20942920Y-13143412D01*
X21006420Y-11063412D02*
X21181420Y-11238412D01*
X21181420Y-11063412D02*
X21006420Y-11238412D01*
X21419170Y-14873412D02*
X21594170Y-15048412D01*
X21594170Y-14873412D02*
X21419170Y-15048412D01*
X21482670Y-16778412D02*
X21657670Y-16953412D01*
X21657670Y-16778412D02*
X21482670Y-16953412D01*
X21895420Y-11063412D02*
X22070420Y-11238412D01*
X22070420Y-11063412D02*
X21895420Y-11238412D01*
X21958920Y-12968412D02*
X22133920Y-13143412D01*
X22133920Y-12968412D02*
X21958920Y-13143412D01*
X22371670Y-16778412D02*
X22546670Y-16953412D01*
X22546670Y-16778412D02*
X22371670Y-16953412D01*
X22435170Y-14873412D02*
X22610170Y-15048412D01*
X22610170Y-14873412D02*
X22435170Y-15048412D01*
X22609795Y-18683412D02*
X22784795Y-18858412D01*
X22784795Y-18683412D02*
X22609795Y-18858412D01*
X22847920Y-12968412D02*
X23022920Y-13143412D01*
X23022920Y-12968412D02*
X22847920Y-13143412D01*
X22911420Y-11063412D02*
X23086420Y-11238412D01*
X23086420Y-11063412D02*
X22911420Y-11238412D01*
X23324170Y-14873412D02*
X23499170Y-15048412D01*
X23499170Y-14873412D02*
X23324170Y-15048412D01*
X23387670Y-16778412D02*
X23562670Y-16953412D01*
X23562670Y-16778412D02*
X23387670Y-16953412D01*
X23625795Y-18683412D02*
X23800795Y-18858412D01*
X23800795Y-18683412D02*
X23625795Y-18858412D01*
X23800420Y-11063412D02*
X23975420Y-11238412D01*
X23975420Y-11063412D02*
X23800420Y-11238412D01*
X23863920Y-12968412D02*
X24038920Y-13143412D01*
X24038920Y-12968412D02*
X23863920Y-13143412D01*
X24276670Y-16778412D02*
X24451670Y-16953412D01*
X24451670Y-16778412D02*
X24276670Y-16953412D01*
X24340170Y-14873412D02*
X24515170Y-15048412D01*
X24515170Y-14873412D02*
X24340170Y-15048412D01*
X24752920Y-12968412D02*
X24927920Y-13143412D01*
X24927920Y-12968412D02*
X24752920Y-13143412D01*
X24816420Y-11063412D02*
X24991420Y-11238412D01*
X24991420Y-11063412D02*
X24816420Y-11238412D01*
X25229170Y-14873412D02*
X25404170Y-15048412D01*
X25404170Y-14873412D02*
X25229170Y-15048412D01*
X25292670Y-16778412D02*
X25467670Y-16953412D01*
X25467670Y-16778412D02*
X25292670Y-16953412D01*
X25705420Y-11063412D02*
X25880420Y-11238412D01*
X25880420Y-11063412D02*
X25705420Y-11238412D01*
X25705420Y-18683412D02*
X25880420Y-18858412D01*
X25880420Y-18683412D02*
X25705420Y-18858412D01*
X25768920Y-12968412D02*
X25943920Y-13143412D01*
X25943920Y-12968412D02*
X25768920Y-13143412D01*
X26181670Y-16778412D02*
X26356670Y-16953412D01*
X26356670Y-16778412D02*
X26181670Y-16953412D01*
X26245170Y-14873412D02*
X26420170Y-15048412D01*
X26420170Y-14873412D02*
X26245170Y-15048412D01*
X26657920Y-12968412D02*
X26832920Y-13143412D01*
X26832920Y-12968412D02*
X26657920Y-13143412D01*
X26721420Y-11063412D02*
X26896420Y-11238412D01*
X26896420Y-11063412D02*
X26721420Y-11238412D01*
X26721420Y-18683412D02*
X26896420Y-18858412D01*
X26896420Y-18683412D02*
X26721420Y-18858412D01*
X27134170Y-14873412D02*
X27309170Y-15048412D01*
X27309170Y-14873412D02*
X27134170Y-15048412D01*
X27197670Y-16778412D02*
X27372670Y-16953412D01*
X27372670Y-16778412D02*
X27197670Y-16953412D01*
X27610420Y-11063412D02*
X27785420Y-11238412D01*
X27785420Y-11063412D02*
X27610420Y-11238412D01*
X27610420Y-18683412D02*
X27785420Y-18858412D01*
X27785420Y-18683412D02*
X27610420Y-18858412D01*
X27673920Y-12968412D02*
X27848920Y-13143412D01*
X27848920Y-12968412D02*
X27673920Y-13143412D01*
X28086670Y-16778412D02*
X28261670Y-16953412D01*
X28261670Y-16778412D02*
X28086670Y-16953412D01*
X28150170Y-14873412D02*
X28325170Y-15048412D01*
X28325170Y-14873412D02*
X28150170Y-15048412D01*
X28562920Y-12968412D02*
X28737920Y-13143412D01*
X28737920Y-12968412D02*
X28562920Y-13143412D01*
X28626420Y-11063412D02*
X28801420Y-11238412D01*
X28801420Y-11063412D02*
X28626420Y-11238412D01*
X28626420Y-18683412D02*
X28801420Y-18858412D01*
X28801420Y-18683412D02*
X28626420Y-18858412D01*
X29039170Y-14873412D02*
X29214170Y-15048412D01*
X29214170Y-14873412D02*
X29039170Y-15048412D01*
X29102670Y-16778412D02*
X29277670Y-16953412D01*
X29277670Y-16778412D02*
X29102670Y-16953412D01*
X29515420Y-11063412D02*
X29690420Y-11238412D01*
X29690420Y-11063412D02*
X29515420Y-11238412D01*
X29515420Y-18683412D02*
X29690420Y-18858412D01*
X29690420Y-18683412D02*
X29515420Y-18858412D01*
X29578920Y-12968412D02*
X29753920Y-13143412D01*
X29753920Y-12968412D02*
X29578920Y-13143412D01*
X30055170Y-14873412D02*
X30230170Y-15048412D01*
X30230170Y-14873412D02*
X30055170Y-15048412D01*
X30467920Y-12968412D02*
X30642920Y-13143412D01*
X30642920Y-12968412D02*
X30467920Y-13143412D01*
X30531420Y-11063412D02*
X30706420Y-11238412D01*
X30706420Y-11063412D02*
X30531420Y-11238412D01*
X30531420Y-18683412D02*
X30706420Y-18858412D01*
X30706420Y-18683412D02*
X30531420Y-18858412D01*
X30707920Y-16778412D02*
X30882920Y-16953412D01*
X30882920Y-16778412D02*
X30707920Y-16953412D01*
X30944170Y-14873412D02*
X31119170Y-15048412D01*
X31119170Y-14873412D02*
X30944170Y-15048412D01*
X31420420Y-18683412D02*
X31595420Y-18858412D01*
X31595420Y-18683412D02*
X31420420Y-18858412D01*
X31483920Y-12968412D02*
X31658920Y-13143412D01*
X31658920Y-12968412D02*
X31483920Y-13143412D01*
X31723920Y-16778412D02*
X31898920Y-16953412D01*
X31898920Y-16778412D02*
X31723920Y-16953412D01*
X31960170Y-14873412D02*
X32135170Y-15048412D01*
X32135170Y-14873412D02*
X31960170Y-15048412D01*
X32372920Y-11063412D02*
X32547920Y-11238412D01*
X32547920Y-11063412D02*
X32372920Y-11238412D01*
X32436420Y-18683412D02*
X32611420Y-18858412D01*
X32611420Y-18683412D02*
X32436420Y-18858412D01*
X33325420Y-16778412D02*
X33500420Y-16953412D01*
X33500420Y-16778412D02*
X33325420Y-16953412D01*
X33325420Y-18683412D02*
X33500420Y-18858412D01*
X33500420Y-18683412D02*
X33325420Y-18858412D01*
X33388920Y-11063412D02*
X33563920Y-11238412D01*
X33563920Y-11063412D02*
X33388920Y-11238412D01*
X33595920Y-13412912D02*
X33770920Y-13587912D01*
X33770920Y-13412912D02*
X33595920Y-13587912D01*
X33595920Y-14428912D02*
X33770920Y-14603912D01*
X33770920Y-14428912D02*
X33595920Y-14603912D01*
X34341420Y-16778412D02*
X34516420Y-16953412D01*
X34516420Y-16778412D02*
X34341420Y-16953412D01*
X34341420Y-18683412D02*
X34516420Y-18858412D01*
X34516420Y-18683412D02*
X34341420Y-18858412D01*
X35230420Y-16778412D02*
X35405420Y-16953412D01*
X35405420Y-16778412D02*
X35230420Y-16953412D01*
X35230420Y-18683412D02*
X35405420Y-18858412D01*
X35405420Y-18683412D02*
X35230420Y-18858412D01*
X36246420Y-16778412D02*
X36421420Y-16953412D01*
X36421420Y-16778412D02*
X36246420Y-16953412D01*
X36246420Y-18683412D02*
X36421420Y-18858412D01*
X36421420Y-18683412D02*
X36246420Y-18858412D01*
X37135420Y-16778412D02*
X37310420Y-16953412D01*
X37310420Y-16778412D02*
X37135420Y-16953412D01*
X37135420Y-18683412D02*
X37310420Y-18858412D01*
X37310420Y-18683412D02*
X37135420Y-18858412D01*
X38151420Y-16778412D02*
X38326420Y-16953412D01*
X38326420Y-16778412D02*
X38151420Y-16953412D01*
X38151420Y-18683412D02*
X38326420Y-18858412D01*
X38326420Y-18683412D02*
X38151420Y-18858412D01*
X7010000Y-10100000D02*
G75*
G03*
X7010000Y-10100000I-110000J0D01*
G01*
X7170000Y-17820000D02*
G75*
G03*
X7170000Y-17820000I-110000J0D01*
G01*
X22610000Y-12250000D02*
G75*
G03*
X22610000Y-12250000I-110000J0D01*
G01*
X23235000Y-17800000D02*
G75*
G03*
X23235000Y-17800000I-110000J0D01*
G01*
X36885000Y-18050000D02*
G75*
G03*
X36885000Y-18050000I-110000J0D01*
G01*
X38330000Y-10100000D02*
G75*
G03*
X38330000Y-10100000I-110000J0D01*
G01*
X14394670Y-19317012D02*
X14394670Y-19621812D01*
X14242270Y-19469412D02*
X14547070Y-19469412D01*
X16775920Y-19317012D02*
X16775920Y-19621812D01*
X16623520Y-19469412D02*
X16928320Y-19469412D01*
X22014670Y-19317012D02*
X22014670Y-19621812D01*
X21862270Y-19469412D02*
X22167070Y-19469412D01*
X24395920Y-19317012D02*
X24395920Y-19621812D01*
X24243520Y-19469412D02*
X24548320Y-19469412D01*
X31777795Y-10300012D02*
X31777795Y-10604812D01*
X31625395Y-10452412D02*
X31930195Y-10452412D01*
X34159045Y-10300012D02*
X34159045Y-10604812D01*
X34006645Y-10452412D02*
X34311445Y-10452412D01*
X34381920Y-12662212D02*
X34381920Y-12967012D01*
X34229520Y-12814612D02*
X34534320Y-12814612D01*
X34381920Y-15049812D02*
X34381920Y-15354612D01*
X34229520Y-15202212D02*
X34534320Y-15202212D01*
X7391911Y-11291903D02*
X7391911Y-11009921D01*
X7109929Y-11009921D01*
X7109929Y-11291903D01*
X7391911Y-11291903D01*
X7630036Y-17006903D02*
X7630036Y-16724921D01*
X7348054Y-16724921D01*
X7348054Y-17006903D01*
X7630036Y-17006903D01*
X7630036Y-18911903D02*
X7630036Y-18629921D01*
X7348054Y-18629921D01*
X7348054Y-18911903D01*
X7630036Y-18911903D01*
X7868161Y-13196903D02*
X7868161Y-12914921D01*
X7586179Y-12914921D01*
X7586179Y-13196903D01*
X7868161Y-13196903D01*
X8109411Y-15101903D02*
X8109411Y-14819921D01*
X7827429Y-14819921D01*
X7827429Y-15101903D01*
X8109411Y-15101903D01*
X9296911Y-11291903D02*
X9296911Y-11009921D01*
X9014929Y-11009921D01*
X9014929Y-11291903D01*
X9296911Y-11291903D01*
X9773161Y-17006903D02*
X9773161Y-16724921D01*
X9491179Y-16724921D01*
X9491179Y-17006903D01*
X9773161Y-17006903D01*
X10011286Y-18911903D02*
X10011286Y-18629921D01*
X9729304Y-18629921D01*
X9729304Y-18911903D01*
X10011286Y-18911903D01*
X10249411Y-13196903D02*
X10249411Y-12914921D01*
X9967429Y-12914921D01*
X9967429Y-13196903D01*
X10249411Y-13196903D01*
X10725661Y-15101903D02*
X10725661Y-14819921D01*
X10443679Y-14819921D01*
X10443679Y-15101903D01*
X10725661Y-15101903D01*
X11201911Y-11291903D02*
X11201911Y-11009921D01*
X10919929Y-11009921D01*
X10919929Y-11291903D01*
X11201911Y-11291903D01*
X11678161Y-17006903D02*
X11678161Y-16724921D01*
X11396179Y-16724921D01*
X11396179Y-17006903D01*
X11678161Y-17006903D01*
X12154411Y-13196903D02*
X12154411Y-12914921D01*
X11872429Y-12914921D01*
X11872429Y-13196903D01*
X12154411Y-13196903D01*
X12392536Y-18911903D02*
X12392536Y-18629921D01*
X12110554Y-18629921D01*
X12110554Y-18911903D01*
X12392536Y-18911903D01*
X12630661Y-15101903D02*
X12630661Y-14819921D01*
X12348679Y-14819921D01*
X12348679Y-15101903D01*
X12630661Y-15101903D01*
X13106911Y-11291903D02*
X13106911Y-11009921D01*
X12824929Y-11009921D01*
X12824929Y-11291903D01*
X13106911Y-11291903D01*
X13583161Y-17006903D02*
X13583161Y-16724921D01*
X13301179Y-16724921D01*
X13301179Y-17006903D01*
X13583161Y-17006903D01*
X14059411Y-13196903D02*
X14059411Y-12914921D01*
X13777429Y-12914921D01*
X13777429Y-13196903D01*
X14059411Y-13196903D01*
X14535661Y-15101903D02*
X14535661Y-14819921D01*
X14253679Y-14819921D01*
X14253679Y-15101903D01*
X14535661Y-15101903D01*
X14535661Y-18086403D02*
X14535661Y-17804421D01*
X14253679Y-17804421D01*
X14253679Y-18086403D01*
X14535661Y-18086403D01*
X15011911Y-11291903D02*
X15011911Y-11009921D01*
X14729929Y-11009921D01*
X14729929Y-11291903D01*
X15011911Y-11291903D01*
X15488161Y-17006903D02*
X15488161Y-16724921D01*
X15206179Y-16724921D01*
X15206179Y-17006903D01*
X15488161Y-17006903D01*
X15726286Y-18911903D02*
X15726286Y-18629921D01*
X15444304Y-18629921D01*
X15444304Y-18911903D01*
X15726286Y-18911903D01*
X15964411Y-13196903D02*
X15964411Y-12914921D01*
X15682429Y-12914921D01*
X15682429Y-13196903D01*
X15964411Y-13196903D01*
X16440661Y-15101903D02*
X16440661Y-14819921D01*
X16158679Y-14819921D01*
X16158679Y-15101903D01*
X16440661Y-15101903D01*
X16916911Y-11291903D02*
X16916911Y-11009921D01*
X16634929Y-11009921D01*
X16634929Y-11291903D01*
X16916911Y-11291903D01*
X16916911Y-18086403D02*
X16916911Y-17804421D01*
X16634929Y-17804421D01*
X16634929Y-18086403D01*
X16916911Y-18086403D01*
X17393161Y-17006903D02*
X17393161Y-16724921D01*
X17111179Y-16724921D01*
X17111179Y-17006903D01*
X17393161Y-17006903D01*
X17869411Y-13196903D02*
X17869411Y-12914921D01*
X17587429Y-12914921D01*
X17587429Y-13196903D01*
X17869411Y-13196903D01*
X18345661Y-15101903D02*
X18345661Y-14819921D01*
X18063679Y-14819921D01*
X18063679Y-15101903D01*
X18345661Y-15101903D01*
X18821911Y-11291903D02*
X18821911Y-11009921D01*
X18539929Y-11009921D01*
X18539929Y-11291903D01*
X18821911Y-11291903D01*
X19298161Y-17006903D02*
X19298161Y-16724921D01*
X19016179Y-16724921D01*
X19016179Y-17006903D01*
X19298161Y-17006903D01*
X19536286Y-18911903D02*
X19536286Y-18629921D01*
X19254304Y-18629921D01*
X19254304Y-18911903D01*
X19536286Y-18911903D01*
X19774411Y-13196903D02*
X19774411Y-12914921D01*
X19492429Y-12914921D01*
X19492429Y-13196903D01*
X19774411Y-13196903D01*
X20250661Y-15101903D02*
X20250661Y-14819921D01*
X19968679Y-14819921D01*
X19968679Y-15101903D01*
X20250661Y-15101903D01*
X20726911Y-11291903D02*
X20726911Y-11009921D01*
X20444929Y-11009921D01*
X20444929Y-11291903D01*
X20726911Y-11291903D01*
X21203161Y-17006903D02*
X21203161Y-16724921D01*
X20921179Y-16724921D01*
X20921179Y-17006903D01*
X21203161Y-17006903D01*
X21679411Y-13196903D02*
X21679411Y-12914921D01*
X21397429Y-12914921D01*
X21397429Y-13196903D01*
X21679411Y-13196903D01*
X22155661Y-15101903D02*
X22155661Y-14819921D01*
X21873679Y-14819921D01*
X21873679Y-15101903D01*
X22155661Y-15101903D01*
X22155661Y-18086403D02*
X22155661Y-17804421D01*
X21873679Y-17804421D01*
X21873679Y-18086403D01*
X22155661Y-18086403D01*
X22631911Y-11291903D02*
X22631911Y-11009921D01*
X22349929Y-11009921D01*
X22349929Y-11291903D01*
X22631911Y-11291903D01*
X23108161Y-17006903D02*
X23108161Y-16724921D01*
X22826179Y-16724921D01*
X22826179Y-17006903D01*
X23108161Y-17006903D01*
X23346286Y-18911903D02*
X23346286Y-18629921D01*
X23064304Y-18629921D01*
X23064304Y-18911903D01*
X23346286Y-18911903D01*
X23584411Y-13196903D02*
X23584411Y-12914921D01*
X23302429Y-12914921D01*
X23302429Y-13196903D01*
X23584411Y-13196903D01*
X24060661Y-15101903D02*
X24060661Y-14819921D01*
X23778679Y-14819921D01*
X23778679Y-15101903D01*
X24060661Y-15101903D01*
X24536911Y-11291903D02*
X24536911Y-11009921D01*
X24254929Y-11009921D01*
X24254929Y-11291903D01*
X24536911Y-11291903D01*
X24536911Y-18086403D02*
X24536911Y-17804421D01*
X24254929Y-17804421D01*
X24254929Y-18086403D01*
X24536911Y-18086403D01*
X25013161Y-17006903D02*
X25013161Y-16724921D01*
X24731179Y-16724921D01*
X24731179Y-17006903D01*
X25013161Y-17006903D01*
X25489411Y-13196903D02*
X25489411Y-12914921D01*
X25207429Y-12914921D01*
X25207429Y-13196903D01*
X25489411Y-13196903D01*
X25965661Y-15101903D02*
X25965661Y-14819921D01*
X25683679Y-14819921D01*
X25683679Y-15101903D01*
X25965661Y-15101903D01*
X26441911Y-11291903D02*
X26441911Y-11009921D01*
X26159929Y-11009921D01*
X26159929Y-11291903D01*
X26441911Y-11291903D01*
X26441911Y-18911903D02*
X26441911Y-18629921D01*
X26159929Y-18629921D01*
X26159929Y-18911903D01*
X26441911Y-18911903D01*
X26918161Y-17006903D02*
X26918161Y-16724921D01*
X26636179Y-16724921D01*
X26636179Y-17006903D01*
X26918161Y-17006903D01*
X27394411Y-13196903D02*
X27394411Y-12914921D01*
X27112429Y-12914921D01*
X27112429Y-13196903D01*
X27394411Y-13196903D01*
X27870661Y-15101903D02*
X27870661Y-14819921D01*
X27588679Y-14819921D01*
X27588679Y-15101903D01*
X27870661Y-15101903D01*
X28346911Y-11291903D02*
X28346911Y-11009921D01*
X28064929Y-11009921D01*
X28064929Y-11291903D01*
X28346911Y-11291903D01*
X28346911Y-18911903D02*
X28346911Y-18629921D01*
X28064929Y-18629921D01*
X28064929Y-18911903D01*
X28346911Y-18911903D01*
X28823161Y-17006903D02*
X28823161Y-16724921D01*
X28541179Y-16724921D01*
X28541179Y-17006903D01*
X28823161Y-17006903D01*
X29299411Y-13196903D02*
X29299411Y-12914921D01*
X29017429Y-12914921D01*
X29017429Y-13196903D01*
X29299411Y-13196903D01*
X29775661Y-15101903D02*
X29775661Y-14819921D01*
X29493679Y-14819921D01*
X29493679Y-15101903D01*
X29775661Y-15101903D01*
X30251911Y-11291903D02*
X30251911Y-11009921D01*
X29969929Y-11009921D01*
X29969929Y-11291903D01*
X30251911Y-11291903D01*
X30251911Y-18911903D02*
X30251911Y-18629921D01*
X29969929Y-18629921D01*
X29969929Y-18911903D01*
X30251911Y-18911903D01*
X31204411Y-13196903D02*
X31204411Y-12914921D01*
X30922429Y-12914921D01*
X30922429Y-13196903D01*
X31204411Y-13196903D01*
X31444411Y-17006903D02*
X31444411Y-16724921D01*
X31162429Y-16724921D01*
X31162429Y-17006903D01*
X31444411Y-17006903D01*
X31680661Y-15101903D02*
X31680661Y-14819921D01*
X31398679Y-14819921D01*
X31398679Y-15101903D01*
X31680661Y-15101903D01*
X31918786Y-12117403D02*
X31918786Y-11835421D01*
X31636804Y-11835421D01*
X31636804Y-12117403D01*
X31918786Y-12117403D01*
X32156911Y-18911903D02*
X32156911Y-18629921D01*
X31874929Y-18629921D01*
X31874929Y-18911903D01*
X32156911Y-18911903D01*
X32998911Y-12955603D02*
X32998911Y-12673621D01*
X32716929Y-12673621D01*
X32716929Y-12955603D01*
X32998911Y-12955603D01*
X32998911Y-15343203D02*
X32998911Y-15061221D01*
X32716929Y-15061221D01*
X32716929Y-15343203D01*
X32998911Y-15343203D01*
X33109411Y-11291903D02*
X33109411Y-11009921D01*
X32827429Y-11009921D01*
X32827429Y-11291903D01*
X33109411Y-11291903D01*
X33824411Y-14149403D02*
X33824411Y-13867421D01*
X33542429Y-13867421D01*
X33542429Y-14149403D01*
X33824411Y-14149403D01*
X34061911Y-17006903D02*
X34061911Y-16724921D01*
X33779929Y-16724921D01*
X33779929Y-17006903D01*
X34061911Y-17006903D01*
X34061911Y-18911903D02*
X34061911Y-18629921D01*
X33779929Y-18629921D01*
X33779929Y-18911903D01*
X34061911Y-18911903D01*
X34300036Y-12117403D02*
X34300036Y-11835421D01*
X34018054Y-11835421D01*
X34018054Y-12117403D01*
X34300036Y-12117403D01*
X35966911Y-17006903D02*
X35966911Y-16724921D01*
X35684929Y-16724921D01*
X35684929Y-17006903D01*
X35966911Y-17006903D01*
X35966911Y-18911903D02*
X35966911Y-18629921D01*
X35684929Y-18629921D01*
X35684929Y-18911903D01*
X35966911Y-18911903D01*
X37871911Y-17006903D02*
X37871911Y-16724921D01*
X37589929Y-16724921D01*
X37589929Y-17006903D01*
X37871911Y-17006903D01*
X37871911Y-18911903D02*
X37871911Y-18629921D01*
X37589929Y-18629921D01*
X37589929Y-18911903D01*
X37871911Y-18911903D01*
D12*
X6821428Y-20165714D02*
X6821428Y-19865714D01*
X6892857Y-19865714D01*
X6935714Y-19880000D01*
X6964286Y-19908572D01*
X6978571Y-19937143D01*
X6992857Y-19994286D01*
X6992857Y-20037143D01*
X6978571Y-20094286D01*
X6964286Y-20122857D01*
X6935714Y-20151429D01*
X6892857Y-20165714D01*
X6821428Y-20165714D01*
X7121428Y-20165714D02*
X7121428Y-19965714D01*
X7121428Y-20022857D02*
X7135714Y-19994286D01*
X7150000Y-19980000D01*
X7178571Y-19965714D01*
X7207143Y-19965714D01*
X7307143Y-20165714D02*
X7307143Y-19965714D01*
X7307143Y-19865714D02*
X7292857Y-19880000D01*
X7307143Y-19894286D01*
X7321428Y-19880000D01*
X7307143Y-19865714D01*
X7307143Y-19894286D01*
X7492857Y-20165714D02*
X7464286Y-20151429D01*
X7450000Y-20122857D01*
X7450000Y-19865714D01*
X7650000Y-20165714D02*
X7621428Y-20151429D01*
X7607143Y-20122857D01*
X7607143Y-19865714D01*
X7992857Y-20165714D02*
X7992857Y-19865714D01*
X8092857Y-20080000D01*
X8192857Y-19865714D01*
X8192857Y-20165714D01*
X8464286Y-20165714D02*
X8464286Y-20008572D01*
X8450000Y-19980000D01*
X8421428Y-19965714D01*
X8364286Y-19965714D01*
X8335714Y-19980000D01*
X8464286Y-20151429D02*
X8435714Y-20165714D01*
X8364286Y-20165714D01*
X8335714Y-20151429D01*
X8321428Y-20122857D01*
X8321428Y-20094286D01*
X8335714Y-20065714D01*
X8364286Y-20051429D01*
X8435714Y-20051429D01*
X8464286Y-20037143D01*
X8607143Y-19965714D02*
X8607143Y-20265714D01*
X8607143Y-19980000D02*
X8635714Y-19965714D01*
X8692857Y-19965714D01*
X8721428Y-19980000D01*
X8735714Y-19994286D01*
X8750000Y-20022857D01*
X8750000Y-20108572D01*
X8735714Y-20137143D01*
X8721428Y-20151429D01*
X8692857Y-20165714D01*
X8635714Y-20165714D01*
X8607143Y-20151429D01*
X8878571Y-20137143D02*
X8892857Y-20151429D01*
X8878571Y-20165714D01*
X8864286Y-20151429D01*
X8878571Y-20137143D01*
X8878571Y-20165714D01*
X8878571Y-19980000D02*
X8892857Y-19994286D01*
X8878571Y-20008572D01*
X8864286Y-19994286D01*
X8878571Y-19980000D01*
X8878571Y-20008572D01*
X6360000Y-20572500D02*
X6535000Y-20747500D01*
X6535000Y-20572500D02*
X6360000Y-20747500D01*
X6978571Y-20795714D02*
X6807143Y-20795714D01*
X6892857Y-20795714D02*
X6892857Y-20495714D01*
X6864286Y-20538572D01*
X6835714Y-20567143D01*
X6807143Y-20581429D01*
X7107143Y-20767143D02*
X7121428Y-20781429D01*
X7107143Y-20795714D01*
X7092857Y-20781429D01*
X7107143Y-20767143D01*
X7107143Y-20795714D01*
X7221428Y-20495714D02*
X7421428Y-20495714D01*
X7292857Y-20795714D01*
X7678571Y-20495714D02*
X7535714Y-20495714D01*
X7521428Y-20638572D01*
X7535714Y-20624286D01*
X7564286Y-20610000D01*
X7635714Y-20610000D01*
X7664286Y-20624286D01*
X7678571Y-20638572D01*
X7692857Y-20667143D01*
X7692857Y-20738572D01*
X7678571Y-20767143D01*
X7664286Y-20781429D01*
X7635714Y-20795714D01*
X7564286Y-20795714D01*
X7535714Y-20781429D01*
X7521428Y-20767143D01*
X7821428Y-20795714D02*
X7821428Y-20595714D01*
X7821428Y-20624286D02*
X7835714Y-20610000D01*
X7864286Y-20595714D01*
X7907143Y-20595714D01*
X7935714Y-20610000D01*
X7950000Y-20638572D01*
X7950000Y-20795714D01*
X7950000Y-20638572D02*
X7964286Y-20610000D01*
X7992857Y-20595714D01*
X8035714Y-20595714D01*
X8064286Y-20610000D01*
X8078571Y-20638572D01*
X8078571Y-20795714D01*
X8221428Y-20795714D02*
X8221428Y-20595714D01*
X8221428Y-20624286D02*
X8235714Y-20610000D01*
X8264286Y-20595714D01*
X8307143Y-20595714D01*
X8335714Y-20610000D01*
X8350000Y-20638572D01*
X8350000Y-20795714D01*
X8350000Y-20638572D02*
X8364286Y-20610000D01*
X8392857Y-20595714D01*
X8435714Y-20595714D01*
X8464286Y-20610000D01*
X8478571Y-20638572D01*
X8478571Y-20795714D01*
X9064286Y-20481429D02*
X8807143Y-20867143D01*
X9450000Y-20495714D02*
X9478571Y-20495714D01*
X9507143Y-20510000D01*
X9521428Y-20524286D01*
X9535714Y-20552857D01*
X9550000Y-20610000D01*
X9550000Y-20681429D01*
X9535714Y-20738572D01*
X9521428Y-20767143D01*
X9507143Y-20781429D01*
X9478571Y-20795714D01*
X9450000Y-20795714D01*
X9421428Y-20781429D01*
X9407143Y-20767143D01*
X9392857Y-20738572D01*
X9378571Y-20681429D01*
X9378571Y-20610000D01*
X9392857Y-20552857D01*
X9407143Y-20524286D01*
X9421428Y-20510000D01*
X9450000Y-20495714D01*
X9678571Y-20767143D02*
X9692857Y-20781429D01*
X9678571Y-20795714D01*
X9664286Y-20781429D01*
X9678571Y-20767143D01*
X9678571Y-20795714D01*
X9878571Y-20495714D02*
X9907143Y-20495714D01*
X9935714Y-20510000D01*
X9950000Y-20524286D01*
X9964286Y-20552857D01*
X9978571Y-20610000D01*
X9978571Y-20681429D01*
X9964286Y-20738572D01*
X9950000Y-20767143D01*
X9935714Y-20781429D01*
X9907143Y-20795714D01*
X9878571Y-20795714D01*
X9850000Y-20781429D01*
X9835714Y-20767143D01*
X9821428Y-20738572D01*
X9807143Y-20681429D01*
X9807143Y-20610000D01*
X9821428Y-20552857D01*
X9835714Y-20524286D01*
X9850000Y-20510000D01*
X9878571Y-20495714D01*
X10235714Y-20495714D02*
X10178571Y-20495714D01*
X10150000Y-20510000D01*
X10135714Y-20524286D01*
X10107143Y-20567143D01*
X10092857Y-20624286D01*
X10092857Y-20738572D01*
X10107143Y-20767143D01*
X10121428Y-20781429D01*
X10150000Y-20795714D01*
X10207143Y-20795714D01*
X10235714Y-20781429D01*
X10250000Y-20767143D01*
X10264286Y-20738572D01*
X10264286Y-20667143D01*
X10250000Y-20638572D01*
X10235714Y-20624286D01*
X10207143Y-20610000D01*
X10150000Y-20610000D01*
X10121428Y-20624286D01*
X10107143Y-20638572D01*
X10092857Y-20667143D01*
X10407143Y-20795714D02*
X10464286Y-20795714D01*
X10492857Y-20781429D01*
X10507143Y-20767143D01*
X10535714Y-20724286D01*
X10550000Y-20667143D01*
X10550000Y-20552857D01*
X10535714Y-20524286D01*
X10521428Y-20510000D01*
X10492857Y-20495714D01*
X10435714Y-20495714D01*
X10407143Y-20510000D01*
X10392857Y-20524286D01*
X10378571Y-20552857D01*
X10378571Y-20624286D01*
X10392857Y-20652857D01*
X10407143Y-20667143D01*
X10435714Y-20681429D01*
X10492857Y-20681429D01*
X10521428Y-20667143D01*
X10535714Y-20652857D01*
X10550000Y-20624286D01*
X10664286Y-20495714D02*
X10664286Y-20552857D01*
X10778571Y-20495714D02*
X10778571Y-20552857D01*
X11221428Y-20910000D02*
X11207143Y-20895714D01*
X11178571Y-20852857D01*
X11164286Y-20824286D01*
X11150000Y-20781429D01*
X11135714Y-20710000D01*
X11135714Y-20652857D01*
X11150000Y-20581429D01*
X11164286Y-20538572D01*
X11178571Y-20510000D01*
X11207143Y-20467143D01*
X11221428Y-20452857D01*
X11492857Y-20795714D02*
X11321428Y-20795714D01*
X11407143Y-20795714D02*
X11407143Y-20495714D01*
X11378571Y-20538572D01*
X11350000Y-20567143D01*
X11321428Y-20581429D01*
X11750000Y-20595714D02*
X11750000Y-20795714D01*
X11678571Y-20481429D02*
X11607143Y-20695714D01*
X11792857Y-20695714D01*
X11964286Y-20495714D02*
X11992857Y-20495714D01*
X12021428Y-20510000D01*
X12035714Y-20524286D01*
X12050000Y-20552857D01*
X12064286Y-20610000D01*
X12064286Y-20681429D01*
X12050000Y-20738572D01*
X12035714Y-20767143D01*
X12021428Y-20781429D01*
X11992857Y-20795714D01*
X11964286Y-20795714D01*
X11935714Y-20781429D01*
X11921428Y-20767143D01*
X11907143Y-20738572D01*
X11892857Y-20681429D01*
X11892857Y-20610000D01*
X11907143Y-20552857D01*
X11921428Y-20524286D01*
X11935714Y-20510000D01*
X11964286Y-20495714D01*
X12421428Y-20795714D02*
X12421428Y-20495714D01*
X12550000Y-20795714D02*
X12550000Y-20638572D01*
X12535714Y-20610000D01*
X12507143Y-20595714D01*
X12464286Y-20595714D01*
X12435714Y-20610000D01*
X12421428Y-20624286D01*
X12735714Y-20795714D02*
X12707143Y-20781429D01*
X12692857Y-20767143D01*
X12678571Y-20738572D01*
X12678571Y-20652857D01*
X12692857Y-20624286D01*
X12707143Y-20610000D01*
X12735714Y-20595714D01*
X12778571Y-20595714D01*
X12807143Y-20610000D01*
X12821428Y-20624286D01*
X12835714Y-20652857D01*
X12835714Y-20738572D01*
X12821428Y-20767143D01*
X12807143Y-20781429D01*
X12778571Y-20795714D01*
X12735714Y-20795714D01*
X13007143Y-20795714D02*
X12978571Y-20781429D01*
X12964286Y-20752857D01*
X12964286Y-20495714D01*
X13235714Y-20781429D02*
X13207143Y-20795714D01*
X13150000Y-20795714D01*
X13121428Y-20781429D01*
X13107143Y-20752857D01*
X13107143Y-20638572D01*
X13121428Y-20610000D01*
X13150000Y-20595714D01*
X13207143Y-20595714D01*
X13235714Y-20610000D01*
X13250000Y-20638572D01*
X13250000Y-20667143D01*
X13107143Y-20695714D01*
X13364286Y-20781429D02*
X13392857Y-20795714D01*
X13450000Y-20795714D01*
X13478571Y-20781429D01*
X13492857Y-20752857D01*
X13492857Y-20738572D01*
X13478571Y-20710000D01*
X13450000Y-20695714D01*
X13407143Y-20695714D01*
X13378571Y-20681429D01*
X13364286Y-20652857D01*
X13364286Y-20638572D01*
X13378571Y-20610000D01*
X13407143Y-20595714D01*
X13450000Y-20595714D01*
X13478571Y-20610000D01*
X13592857Y-20910000D02*
X13607143Y-20895714D01*
X13635714Y-20852857D01*
X13650000Y-20824286D01*
X13664286Y-20781429D01*
X13678571Y-20710000D01*
X13678571Y-20652857D01*
X13664286Y-20581429D01*
X13650000Y-20538572D01*
X13635714Y-20510000D01*
X13607143Y-20467143D01*
X13592857Y-20452857D01*
X14135714Y-20910000D02*
X14121428Y-20895714D01*
X14092857Y-20852857D01*
X14078571Y-20824286D01*
X14064286Y-20781429D01*
X14050000Y-20710000D01*
X14050000Y-20652857D01*
X14064286Y-20581429D01*
X14078571Y-20538572D01*
X14092857Y-20510000D01*
X14121428Y-20467143D01*
X14135714Y-20452857D01*
X14250000Y-20595714D02*
X14250000Y-20795714D01*
X14250000Y-20624286D02*
X14264286Y-20610000D01*
X14292857Y-20595714D01*
X14335714Y-20595714D01*
X14364286Y-20610000D01*
X14378571Y-20638572D01*
X14378571Y-20795714D01*
X14564286Y-20795714D02*
X14535714Y-20781429D01*
X14521428Y-20767143D01*
X14507143Y-20738572D01*
X14507143Y-20652857D01*
X14521428Y-20624286D01*
X14535714Y-20610000D01*
X14564286Y-20595714D01*
X14607143Y-20595714D01*
X14635714Y-20610000D01*
X14650000Y-20624286D01*
X14664286Y-20652857D01*
X14664286Y-20738572D01*
X14650000Y-20767143D01*
X14635714Y-20781429D01*
X14607143Y-20795714D01*
X14564286Y-20795714D01*
X14750000Y-20595714D02*
X14864286Y-20595714D01*
X14792857Y-20495714D02*
X14792857Y-20752857D01*
X14807143Y-20781429D01*
X14835714Y-20795714D01*
X14864286Y-20795714D01*
X15192857Y-20595714D02*
X15192857Y-20895714D01*
X15192857Y-20610000D02*
X15221428Y-20595714D01*
X15278571Y-20595714D01*
X15307143Y-20610000D01*
X15321428Y-20624286D01*
X15335714Y-20652857D01*
X15335714Y-20738572D01*
X15321428Y-20767143D01*
X15307143Y-20781429D01*
X15278571Y-20795714D01*
X15221428Y-20795714D01*
X15192857Y-20781429D01*
X15507143Y-20795714D02*
X15478571Y-20781429D01*
X15464286Y-20752857D01*
X15464286Y-20495714D01*
X15750000Y-20795714D02*
X15750000Y-20638572D01*
X15735714Y-20610000D01*
X15707143Y-20595714D01*
X15650000Y-20595714D01*
X15621428Y-20610000D01*
X15750000Y-20781429D02*
X15721428Y-20795714D01*
X15650000Y-20795714D01*
X15621428Y-20781429D01*
X15607143Y-20752857D01*
X15607143Y-20724286D01*
X15621428Y-20695714D01*
X15650000Y-20681429D01*
X15721428Y-20681429D01*
X15750000Y-20667143D01*
X15850000Y-20595714D02*
X15964286Y-20595714D01*
X15892857Y-20495714D02*
X15892857Y-20752857D01*
X15907143Y-20781429D01*
X15935714Y-20795714D01*
X15964286Y-20795714D01*
X16178571Y-20781429D02*
X16150000Y-20795714D01*
X16092857Y-20795714D01*
X16064286Y-20781429D01*
X16050000Y-20752857D01*
X16050000Y-20638572D01*
X16064286Y-20610000D01*
X16092857Y-20595714D01*
X16150000Y-20595714D01*
X16178571Y-20610000D01*
X16192857Y-20638572D01*
X16192857Y-20667143D01*
X16050000Y-20695714D01*
X16450000Y-20795714D02*
X16450000Y-20495714D01*
X16450000Y-20781429D02*
X16421428Y-20795714D01*
X16364286Y-20795714D01*
X16335714Y-20781429D01*
X16321428Y-20767143D01*
X16307143Y-20738572D01*
X16307143Y-20652857D01*
X16321428Y-20624286D01*
X16335714Y-20610000D01*
X16364286Y-20595714D01*
X16421428Y-20595714D01*
X16450000Y-20610000D01*
X16564286Y-20910000D02*
X16578571Y-20895714D01*
X16607143Y-20852857D01*
X16621428Y-20824286D01*
X16635714Y-20781429D01*
X16650000Y-20710000D01*
X16650000Y-20652857D01*
X16635714Y-20581429D01*
X16621428Y-20538572D01*
X16607143Y-20510000D01*
X16578571Y-20467143D01*
X16564286Y-20452857D01*
X6535000Y-21056000D02*
G75*
G03*
X6535000Y-21056000I-110000J0D01*
G01*
X6807143Y-20920286D02*
X6821428Y-20906000D01*
X6850000Y-20891714D01*
X6921428Y-20891714D01*
X6950000Y-20906000D01*
X6964286Y-20920286D01*
X6978571Y-20948857D01*
X6978571Y-20977429D01*
X6964286Y-21020286D01*
X6792857Y-21191714D01*
X6978571Y-21191714D01*
X7107143Y-21163143D02*
X7121428Y-21177429D01*
X7107143Y-21191714D01*
X7092857Y-21177429D01*
X7107143Y-21163143D01*
X7107143Y-21191714D01*
X7235714Y-20920286D02*
X7250000Y-20906000D01*
X7278571Y-20891714D01*
X7350000Y-20891714D01*
X7378571Y-20906000D01*
X7392857Y-20920286D01*
X7407143Y-20948857D01*
X7407143Y-20977429D01*
X7392857Y-21020286D01*
X7221428Y-21191714D01*
X7407143Y-21191714D01*
X7592857Y-20891714D02*
X7621428Y-20891714D01*
X7650000Y-20906000D01*
X7664286Y-20920286D01*
X7678571Y-20948857D01*
X7692857Y-21006000D01*
X7692857Y-21077429D01*
X7678571Y-21134572D01*
X7664286Y-21163143D01*
X7650000Y-21177429D01*
X7621428Y-21191714D01*
X7592857Y-21191714D01*
X7564286Y-21177429D01*
X7550000Y-21163143D01*
X7535714Y-21134572D01*
X7521428Y-21077429D01*
X7521428Y-21006000D01*
X7535714Y-20948857D01*
X7550000Y-20920286D01*
X7564286Y-20906000D01*
X7592857Y-20891714D01*
X7821428Y-21191714D02*
X7821428Y-20991714D01*
X7821428Y-21020286D02*
X7835714Y-21006000D01*
X7864286Y-20991714D01*
X7907143Y-20991714D01*
X7935714Y-21006000D01*
X7950000Y-21034572D01*
X7950000Y-21191714D01*
X7950000Y-21034572D02*
X7964286Y-21006000D01*
X7992857Y-20991714D01*
X8035714Y-20991714D01*
X8064286Y-21006000D01*
X8078571Y-21034572D01*
X8078571Y-21191714D01*
X8221428Y-21191714D02*
X8221428Y-20991714D01*
X8221428Y-21020286D02*
X8235714Y-21006000D01*
X8264286Y-20991714D01*
X8307143Y-20991714D01*
X8335714Y-21006000D01*
X8350000Y-21034572D01*
X8350000Y-21191714D01*
X8350000Y-21034572D02*
X8364286Y-21006000D01*
X8392857Y-20991714D01*
X8435714Y-20991714D01*
X8464286Y-21006000D01*
X8478571Y-21034572D01*
X8478571Y-21191714D01*
X9064286Y-20877429D02*
X8807143Y-21263143D01*
X9450000Y-20891714D02*
X9478571Y-20891714D01*
X9507143Y-20906000D01*
X9521428Y-20920286D01*
X9535714Y-20948857D01*
X9550000Y-21006000D01*
X9550000Y-21077429D01*
X9535714Y-21134572D01*
X9521428Y-21163143D01*
X9507143Y-21177429D01*
X9478571Y-21191714D01*
X9450000Y-21191714D01*
X9421428Y-21177429D01*
X9407143Y-21163143D01*
X9392857Y-21134572D01*
X9378571Y-21077429D01*
X9378571Y-21006000D01*
X9392857Y-20948857D01*
X9407143Y-20920286D01*
X9421428Y-20906000D01*
X9450000Y-20891714D01*
X9678571Y-21163143D02*
X9692857Y-21177429D01*
X9678571Y-21191714D01*
X9664286Y-21177429D01*
X9678571Y-21163143D01*
X9678571Y-21191714D01*
X9878571Y-20891714D02*
X9907143Y-20891714D01*
X9935714Y-20906000D01*
X9950000Y-20920286D01*
X9964286Y-20948857D01*
X9978571Y-21006000D01*
X9978571Y-21077429D01*
X9964286Y-21134572D01*
X9950000Y-21163143D01*
X9935714Y-21177429D01*
X9907143Y-21191714D01*
X9878571Y-21191714D01*
X9850000Y-21177429D01*
X9835714Y-21163143D01*
X9821428Y-21134572D01*
X9807143Y-21077429D01*
X9807143Y-21006000D01*
X9821428Y-20948857D01*
X9835714Y-20920286D01*
X9850000Y-20906000D01*
X9878571Y-20891714D01*
X10150000Y-21020286D02*
X10121428Y-21006000D01*
X10107143Y-20991714D01*
X10092857Y-20963143D01*
X10092857Y-20948857D01*
X10107143Y-20920286D01*
X10121428Y-20906000D01*
X10150000Y-20891714D01*
X10207143Y-20891714D01*
X10235714Y-20906000D01*
X10250000Y-20920286D01*
X10264286Y-20948857D01*
X10264286Y-20963143D01*
X10250000Y-20991714D01*
X10235714Y-21006000D01*
X10207143Y-21020286D01*
X10150000Y-21020286D01*
X10121428Y-21034572D01*
X10107143Y-21048857D01*
X10092857Y-21077429D01*
X10092857Y-21134572D01*
X10107143Y-21163143D01*
X10121428Y-21177429D01*
X10150000Y-21191714D01*
X10207143Y-21191714D01*
X10235714Y-21177429D01*
X10250000Y-21163143D01*
X10264286Y-21134572D01*
X10264286Y-21077429D01*
X10250000Y-21048857D01*
X10235714Y-21034572D01*
X10207143Y-21020286D01*
X10364286Y-20891714D02*
X10564286Y-20891714D01*
X10435714Y-21191714D01*
X10664286Y-20891714D02*
X10664286Y-20948857D01*
X10778571Y-20891714D02*
X10778571Y-20948857D01*
X11221428Y-21306000D02*
X11207143Y-21291714D01*
X11178571Y-21248857D01*
X11164286Y-21220286D01*
X11150000Y-21177429D01*
X11135714Y-21106000D01*
X11135714Y-21048857D01*
X11150000Y-20977429D01*
X11164286Y-20934572D01*
X11178571Y-20906000D01*
X11207143Y-20863143D01*
X11221428Y-20848857D01*
X11464286Y-20891714D02*
X11407143Y-20891714D01*
X11378571Y-20906000D01*
X11364286Y-20920286D01*
X11335714Y-20963143D01*
X11321428Y-21020286D01*
X11321428Y-21134572D01*
X11335714Y-21163143D01*
X11350000Y-21177429D01*
X11378571Y-21191714D01*
X11435714Y-21191714D01*
X11464286Y-21177429D01*
X11478571Y-21163143D01*
X11492857Y-21134572D01*
X11492857Y-21063143D01*
X11478571Y-21034572D01*
X11464286Y-21020286D01*
X11435714Y-21006000D01*
X11378571Y-21006000D01*
X11350000Y-21020286D01*
X11335714Y-21034572D01*
X11321428Y-21063143D01*
X11850000Y-21191714D02*
X11850000Y-20891714D01*
X11978571Y-21191714D02*
X11978571Y-21034572D01*
X11964286Y-21006000D01*
X11935714Y-20991714D01*
X11892857Y-20991714D01*
X11864286Y-21006000D01*
X11850000Y-21020286D01*
X12164286Y-21191714D02*
X12135714Y-21177429D01*
X12121428Y-21163143D01*
X12107143Y-21134572D01*
X12107143Y-21048857D01*
X12121428Y-21020286D01*
X12135714Y-21006000D01*
X12164286Y-20991714D01*
X12207143Y-20991714D01*
X12235714Y-21006000D01*
X12250000Y-21020286D01*
X12264286Y-21048857D01*
X12264286Y-21134572D01*
X12250000Y-21163143D01*
X12235714Y-21177429D01*
X12207143Y-21191714D01*
X12164286Y-21191714D01*
X12435714Y-21191714D02*
X12407143Y-21177429D01*
X12392857Y-21148857D01*
X12392857Y-20891714D01*
X12664286Y-21177429D02*
X12635714Y-21191714D01*
X12578571Y-21191714D01*
X12550000Y-21177429D01*
X12535714Y-21148857D01*
X12535714Y-21034572D01*
X12550000Y-21006000D01*
X12578571Y-20991714D01*
X12635714Y-20991714D01*
X12664286Y-21006000D01*
X12678571Y-21034572D01*
X12678571Y-21063143D01*
X12535714Y-21091714D01*
X12792857Y-21177429D02*
X12821428Y-21191714D01*
X12878571Y-21191714D01*
X12907143Y-21177429D01*
X12921428Y-21148857D01*
X12921428Y-21134572D01*
X12907143Y-21106000D01*
X12878571Y-21091714D01*
X12835714Y-21091714D01*
X12807143Y-21077429D01*
X12792857Y-21048857D01*
X12792857Y-21034572D01*
X12807143Y-21006000D01*
X12835714Y-20991714D01*
X12878571Y-20991714D01*
X12907143Y-21006000D01*
X13021428Y-21306000D02*
X13035714Y-21291714D01*
X13064286Y-21248857D01*
X13078571Y-21220286D01*
X13092857Y-21177429D01*
X13107143Y-21106000D01*
X13107143Y-21048857D01*
X13092857Y-20977429D01*
X13078571Y-20934572D01*
X13064286Y-20906000D01*
X13035714Y-20863143D01*
X13021428Y-20848857D01*
X13564286Y-21306000D02*
X13550000Y-21291714D01*
X13521428Y-21248857D01*
X13507143Y-21220286D01*
X13492857Y-21177429D01*
X13478571Y-21106000D01*
X13478571Y-21048857D01*
X13492857Y-20977429D01*
X13507143Y-20934572D01*
X13521428Y-20906000D01*
X13550000Y-20863143D01*
X13564286Y-20848857D01*
X13678571Y-20991714D02*
X13678571Y-21191714D01*
X13678571Y-21020286D02*
X13692857Y-21006000D01*
X13721428Y-20991714D01*
X13764286Y-20991714D01*
X13792857Y-21006000D01*
X13807143Y-21034572D01*
X13807143Y-21191714D01*
X13992857Y-21191714D02*
X13964286Y-21177429D01*
X13950000Y-21163143D01*
X13935714Y-21134572D01*
X13935714Y-21048857D01*
X13950000Y-21020286D01*
X13964286Y-21006000D01*
X13992857Y-20991714D01*
X14035714Y-20991714D01*
X14064286Y-21006000D01*
X14078571Y-21020286D01*
X14092857Y-21048857D01*
X14092857Y-21134572D01*
X14078571Y-21163143D01*
X14064286Y-21177429D01*
X14035714Y-21191714D01*
X13992857Y-21191714D01*
X14178571Y-20991714D02*
X14292857Y-20991714D01*
X14221428Y-20891714D02*
X14221428Y-21148857D01*
X14235714Y-21177429D01*
X14264286Y-21191714D01*
X14292857Y-21191714D01*
X14621428Y-20991714D02*
X14621428Y-21291714D01*
X14621428Y-21006000D02*
X14650000Y-20991714D01*
X14707143Y-20991714D01*
X14735714Y-21006000D01*
X14750000Y-21020286D01*
X14764286Y-21048857D01*
X14764286Y-21134572D01*
X14750000Y-21163143D01*
X14735714Y-21177429D01*
X14707143Y-21191714D01*
X14650000Y-21191714D01*
X14621428Y-21177429D01*
X14935714Y-21191714D02*
X14907143Y-21177429D01*
X14892857Y-21148857D01*
X14892857Y-20891714D01*
X15178571Y-21191714D02*
X15178571Y-21034572D01*
X15164286Y-21006000D01*
X15135714Y-20991714D01*
X15078571Y-20991714D01*
X15050000Y-21006000D01*
X15178571Y-21177429D02*
X15150000Y-21191714D01*
X15078571Y-21191714D01*
X15050000Y-21177429D01*
X15035714Y-21148857D01*
X15035714Y-21120286D01*
X15050000Y-21091714D01*
X15078571Y-21077429D01*
X15150000Y-21077429D01*
X15178571Y-21063143D01*
X15278571Y-20991714D02*
X15392857Y-20991714D01*
X15321428Y-20891714D02*
X15321428Y-21148857D01*
X15335714Y-21177429D01*
X15364286Y-21191714D01*
X15392857Y-21191714D01*
X15607143Y-21177429D02*
X15578571Y-21191714D01*
X15521428Y-21191714D01*
X15492857Y-21177429D01*
X15478571Y-21148857D01*
X15478571Y-21034572D01*
X15492857Y-21006000D01*
X15521428Y-20991714D01*
X15578571Y-20991714D01*
X15607143Y-21006000D01*
X15621428Y-21034572D01*
X15621428Y-21063143D01*
X15478571Y-21091714D01*
X15878571Y-21191714D02*
X15878571Y-20891714D01*
X15878571Y-21177429D02*
X15850000Y-21191714D01*
X15792857Y-21191714D01*
X15764286Y-21177429D01*
X15750000Y-21163143D01*
X15735714Y-21134572D01*
X15735714Y-21048857D01*
X15750000Y-21020286D01*
X15764286Y-21006000D01*
X15792857Y-20991714D01*
X15850000Y-20991714D01*
X15878571Y-21006000D01*
X15992857Y-21306000D02*
X16007143Y-21291714D01*
X16035714Y-21248857D01*
X16050000Y-21220286D01*
X16064286Y-21177429D01*
X16078571Y-21106000D01*
X16078571Y-21048857D01*
X16064286Y-20977429D01*
X16050000Y-20934572D01*
X16035714Y-20906000D01*
X16007143Y-20863143D01*
X15992857Y-20848857D01*
X6382600Y-21299600D02*
X6382600Y-21604400D01*
X6230200Y-21452000D02*
X6535000Y-21452000D01*
X6792857Y-21287714D02*
X6978571Y-21287714D01*
X6878571Y-21402000D01*
X6921428Y-21402000D01*
X6950000Y-21416286D01*
X6964286Y-21430572D01*
X6978571Y-21459143D01*
X6978571Y-21530572D01*
X6964286Y-21559143D01*
X6950000Y-21573429D01*
X6921428Y-21587714D01*
X6835714Y-21587714D01*
X6807143Y-21573429D01*
X6792857Y-21559143D01*
X7107143Y-21559143D02*
X7121428Y-21573429D01*
X7107143Y-21587714D01*
X7092857Y-21573429D01*
X7107143Y-21559143D01*
X7107143Y-21587714D01*
X7307143Y-21287714D02*
X7335714Y-21287714D01*
X7364286Y-21302000D01*
X7378571Y-21316286D01*
X7392857Y-21344857D01*
X7407143Y-21402000D01*
X7407143Y-21473429D01*
X7392857Y-21530572D01*
X7378571Y-21559143D01*
X7364286Y-21573429D01*
X7335714Y-21587714D01*
X7307143Y-21587714D01*
X7278571Y-21573429D01*
X7264286Y-21559143D01*
X7250000Y-21530572D01*
X7235714Y-21473429D01*
X7235714Y-21402000D01*
X7250000Y-21344857D01*
X7264286Y-21316286D01*
X7278571Y-21302000D01*
X7307143Y-21287714D01*
X7678571Y-21287714D02*
X7535714Y-21287714D01*
X7521428Y-21430572D01*
X7535714Y-21416286D01*
X7564286Y-21402000D01*
X7635714Y-21402000D01*
X7664286Y-21416286D01*
X7678571Y-21430572D01*
X7692857Y-21459143D01*
X7692857Y-21530572D01*
X7678571Y-21559143D01*
X7664286Y-21573429D01*
X7635714Y-21587714D01*
X7564286Y-21587714D01*
X7535714Y-21573429D01*
X7521428Y-21559143D01*
X7821428Y-21587714D02*
X7821428Y-21387714D01*
X7821428Y-21416286D02*
X7835714Y-21402000D01*
X7864286Y-21387714D01*
X7907143Y-21387714D01*
X7935714Y-21402000D01*
X7950000Y-21430572D01*
X7950000Y-21587714D01*
X7950000Y-21430572D02*
X7964286Y-21402000D01*
X7992857Y-21387714D01*
X8035714Y-21387714D01*
X8064286Y-21402000D01*
X8078571Y-21430572D01*
X8078571Y-21587714D01*
X8221428Y-21587714D02*
X8221428Y-21387714D01*
X8221428Y-21416286D02*
X8235714Y-21402000D01*
X8264286Y-21387714D01*
X8307143Y-21387714D01*
X8335714Y-21402000D01*
X8350000Y-21430572D01*
X8350000Y-21587714D01*
X8350000Y-21430572D02*
X8364286Y-21402000D01*
X8392857Y-21387714D01*
X8435714Y-21387714D01*
X8464286Y-21402000D01*
X8478571Y-21430572D01*
X8478571Y-21587714D01*
X9064286Y-21273429D02*
X8807143Y-21659143D01*
X9450000Y-21287714D02*
X9478571Y-21287714D01*
X9507143Y-21302000D01*
X9521428Y-21316286D01*
X9535714Y-21344857D01*
X9550000Y-21402000D01*
X9550000Y-21473429D01*
X9535714Y-21530572D01*
X9521428Y-21559143D01*
X9507143Y-21573429D01*
X9478571Y-21587714D01*
X9450000Y-21587714D01*
X9421428Y-21573429D01*
X9407143Y-21559143D01*
X9392857Y-21530572D01*
X9378571Y-21473429D01*
X9378571Y-21402000D01*
X9392857Y-21344857D01*
X9407143Y-21316286D01*
X9421428Y-21302000D01*
X9450000Y-21287714D01*
X9678571Y-21559143D02*
X9692857Y-21573429D01*
X9678571Y-21587714D01*
X9664286Y-21573429D01*
X9678571Y-21559143D01*
X9678571Y-21587714D01*
X9978571Y-21587714D02*
X9807143Y-21587714D01*
X9892857Y-21587714D02*
X9892857Y-21287714D01*
X9864286Y-21330572D01*
X9835714Y-21359143D01*
X9807143Y-21373429D01*
X10092857Y-21316286D02*
X10107143Y-21302000D01*
X10135714Y-21287714D01*
X10207143Y-21287714D01*
X10235714Y-21302000D01*
X10250000Y-21316286D01*
X10264286Y-21344857D01*
X10264286Y-21373429D01*
X10250000Y-21416286D01*
X10078571Y-21587714D01*
X10264286Y-21587714D01*
X10450000Y-21287714D02*
X10478571Y-21287714D01*
X10507143Y-21302000D01*
X10521428Y-21316286D01*
X10535714Y-21344857D01*
X10550000Y-21402000D01*
X10550000Y-21473429D01*
X10535714Y-21530572D01*
X10521428Y-21559143D01*
X10507143Y-21573429D01*
X10478571Y-21587714D01*
X10450000Y-21587714D01*
X10421428Y-21573429D01*
X10407143Y-21559143D01*
X10392857Y-21530572D01*
X10378571Y-21473429D01*
X10378571Y-21402000D01*
X10392857Y-21344857D01*
X10407143Y-21316286D01*
X10421428Y-21302000D01*
X10450000Y-21287714D01*
X10664286Y-21287714D02*
X10664286Y-21344857D01*
X10778571Y-21287714D02*
X10778571Y-21344857D01*
X11221428Y-21702000D02*
X11207143Y-21687714D01*
X11178571Y-21644857D01*
X11164286Y-21616286D01*
X11150000Y-21573429D01*
X11135714Y-21502000D01*
X11135714Y-21444857D01*
X11150000Y-21373429D01*
X11164286Y-21330572D01*
X11178571Y-21302000D01*
X11207143Y-21259143D01*
X11221428Y-21244857D01*
X11378571Y-21416286D02*
X11350000Y-21402000D01*
X11335714Y-21387714D01*
X11321428Y-21359143D01*
X11321428Y-21344857D01*
X11335714Y-21316286D01*
X11350000Y-21302000D01*
X11378571Y-21287714D01*
X11435714Y-21287714D01*
X11464286Y-21302000D01*
X11478571Y-21316286D01*
X11492857Y-21344857D01*
X11492857Y-21359143D01*
X11478571Y-21387714D01*
X11464286Y-21402000D01*
X11435714Y-21416286D01*
X11378571Y-21416286D01*
X11350000Y-21430572D01*
X11335714Y-21444857D01*
X11321428Y-21473429D01*
X11321428Y-21530572D01*
X11335714Y-21559143D01*
X11350000Y-21573429D01*
X11378571Y-21587714D01*
X11435714Y-21587714D01*
X11464286Y-21573429D01*
X11478571Y-21559143D01*
X11492857Y-21530572D01*
X11492857Y-21473429D01*
X11478571Y-21444857D01*
X11464286Y-21430572D01*
X11435714Y-21416286D01*
X11850000Y-21587714D02*
X11850000Y-21287714D01*
X11978571Y-21587714D02*
X11978571Y-21430572D01*
X11964286Y-21402000D01*
X11935714Y-21387714D01*
X11892857Y-21387714D01*
X11864286Y-21402000D01*
X11850000Y-21416286D01*
X12164286Y-21587714D02*
X12135714Y-21573429D01*
X12121428Y-21559143D01*
X12107143Y-21530572D01*
X12107143Y-21444857D01*
X12121428Y-21416286D01*
X12135714Y-21402000D01*
X12164286Y-21387714D01*
X12207143Y-21387714D01*
X12235714Y-21402000D01*
X12250000Y-21416286D01*
X12264286Y-21444857D01*
X12264286Y-21530572D01*
X12250000Y-21559143D01*
X12235714Y-21573429D01*
X12207143Y-21587714D01*
X12164286Y-21587714D01*
X12435714Y-21587714D02*
X12407143Y-21573429D01*
X12392857Y-21544857D01*
X12392857Y-21287714D01*
X12664286Y-21573429D02*
X12635714Y-21587714D01*
X12578571Y-21587714D01*
X12550000Y-21573429D01*
X12535714Y-21544857D01*
X12535714Y-21430572D01*
X12550000Y-21402000D01*
X12578571Y-21387714D01*
X12635714Y-21387714D01*
X12664286Y-21402000D01*
X12678571Y-21430572D01*
X12678571Y-21459143D01*
X12535714Y-21487714D01*
X12792857Y-21573429D02*
X12821428Y-21587714D01*
X12878571Y-21587714D01*
X12907143Y-21573429D01*
X12921428Y-21544857D01*
X12921428Y-21530572D01*
X12907143Y-21502000D01*
X12878571Y-21487714D01*
X12835714Y-21487714D01*
X12807143Y-21473429D01*
X12792857Y-21444857D01*
X12792857Y-21430572D01*
X12807143Y-21402000D01*
X12835714Y-21387714D01*
X12878571Y-21387714D01*
X12907143Y-21402000D01*
X13021428Y-21702000D02*
X13035714Y-21687714D01*
X13064286Y-21644857D01*
X13078571Y-21616286D01*
X13092857Y-21573429D01*
X13107143Y-21502000D01*
X13107143Y-21444857D01*
X13092857Y-21373429D01*
X13078571Y-21330572D01*
X13064286Y-21302000D01*
X13035714Y-21259143D01*
X13021428Y-21244857D01*
X13564286Y-21702000D02*
X13550000Y-21687714D01*
X13521428Y-21644857D01*
X13507143Y-21616286D01*
X13492857Y-21573429D01*
X13478571Y-21502000D01*
X13478571Y-21444857D01*
X13492857Y-21373429D01*
X13507143Y-21330572D01*
X13521428Y-21302000D01*
X13550000Y-21259143D01*
X13564286Y-21244857D01*
X13678571Y-21387714D02*
X13678571Y-21587714D01*
X13678571Y-21416286D02*
X13692857Y-21402000D01*
X13721428Y-21387714D01*
X13764286Y-21387714D01*
X13792857Y-21402000D01*
X13807143Y-21430572D01*
X13807143Y-21587714D01*
X13992857Y-21587714D02*
X13964286Y-21573429D01*
X13950000Y-21559143D01*
X13935714Y-21530572D01*
X13935714Y-21444857D01*
X13950000Y-21416286D01*
X13964286Y-21402000D01*
X13992857Y-21387714D01*
X14035714Y-21387714D01*
X14064286Y-21402000D01*
X14078571Y-21416286D01*
X14092857Y-21444857D01*
X14092857Y-21530572D01*
X14078571Y-21559143D01*
X14064286Y-21573429D01*
X14035714Y-21587714D01*
X13992857Y-21587714D01*
X14178571Y-21387714D02*
X14292857Y-21387714D01*
X14221428Y-21287714D02*
X14221428Y-21544857D01*
X14235714Y-21573429D01*
X14264286Y-21587714D01*
X14292857Y-21587714D01*
X14621428Y-21387714D02*
X14621428Y-21687714D01*
X14621428Y-21402000D02*
X14650000Y-21387714D01*
X14707143Y-21387714D01*
X14735714Y-21402000D01*
X14750000Y-21416286D01*
X14764286Y-21444857D01*
X14764286Y-21530572D01*
X14750000Y-21559143D01*
X14735714Y-21573429D01*
X14707143Y-21587714D01*
X14650000Y-21587714D01*
X14621428Y-21573429D01*
X14935714Y-21587714D02*
X14907143Y-21573429D01*
X14892857Y-21544857D01*
X14892857Y-21287714D01*
X15178571Y-21587714D02*
X15178571Y-21430572D01*
X15164286Y-21402000D01*
X15135714Y-21387714D01*
X15078571Y-21387714D01*
X15050000Y-21402000D01*
X15178571Y-21573429D02*
X15150000Y-21587714D01*
X15078571Y-21587714D01*
X15050000Y-21573429D01*
X15035714Y-21544857D01*
X15035714Y-21516286D01*
X15050000Y-21487714D01*
X15078571Y-21473429D01*
X15150000Y-21473429D01*
X15178571Y-21459143D01*
X15278571Y-21387714D02*
X15392857Y-21387714D01*
X15321428Y-21287714D02*
X15321428Y-21544857D01*
X15335714Y-21573429D01*
X15364286Y-21587714D01*
X15392857Y-21587714D01*
X15607143Y-21573429D02*
X15578571Y-21587714D01*
X15521428Y-21587714D01*
X15492857Y-21573429D01*
X15478571Y-21544857D01*
X15478571Y-21430572D01*
X15492857Y-21402000D01*
X15521428Y-21387714D01*
X15578571Y-21387714D01*
X15607143Y-21402000D01*
X15621428Y-21430572D01*
X15621428Y-21459143D01*
X15478571Y-21487714D01*
X15878571Y-21587714D02*
X15878571Y-21287714D01*
X15878571Y-21573429D02*
X15850000Y-21587714D01*
X15792857Y-21587714D01*
X15764286Y-21573429D01*
X15750000Y-21559143D01*
X15735714Y-21530572D01*
X15735714Y-21444857D01*
X15750000Y-21416286D01*
X15764286Y-21402000D01*
X15792857Y-21387714D01*
X15850000Y-21387714D01*
X15878571Y-21402000D01*
X15992857Y-21702000D02*
X16007143Y-21687714D01*
X16035714Y-21644857D01*
X16050000Y-21616286D01*
X16064286Y-21573429D01*
X16078571Y-21502000D01*
X16078571Y-21444857D01*
X16064286Y-21373429D01*
X16050000Y-21330572D01*
X16035714Y-21302000D01*
X16007143Y-21259143D01*
X15992857Y-21244857D01*
X6476601Y-22027792D02*
X6476601Y-21745809D01*
X6194618Y-21745809D01*
X6194618Y-22027792D01*
X6476601Y-22027792D01*
X6792857Y-21722514D02*
X6978571Y-21722514D01*
X6878571Y-21836800D01*
X6921428Y-21836800D01*
X6950000Y-21851086D01*
X6964286Y-21865372D01*
X6978571Y-21893943D01*
X6978571Y-21965372D01*
X6964286Y-21993943D01*
X6950000Y-22008229D01*
X6921428Y-22022514D01*
X6835714Y-22022514D01*
X6807143Y-22008229D01*
X6792857Y-21993943D01*
X7107143Y-21993943D02*
X7121428Y-22008229D01*
X7107143Y-22022514D01*
X7092857Y-22008229D01*
X7107143Y-21993943D01*
X7107143Y-22022514D01*
X7264286Y-22022514D02*
X7321428Y-22022514D01*
X7350000Y-22008229D01*
X7364286Y-21993943D01*
X7392857Y-21951086D01*
X7407143Y-21893943D01*
X7407143Y-21779657D01*
X7392857Y-21751086D01*
X7378571Y-21736800D01*
X7350000Y-21722514D01*
X7292857Y-21722514D01*
X7264286Y-21736800D01*
X7250000Y-21751086D01*
X7235714Y-21779657D01*
X7235714Y-21851086D01*
X7250000Y-21879657D01*
X7264286Y-21893943D01*
X7292857Y-21908229D01*
X7350000Y-21908229D01*
X7378571Y-21893943D01*
X7392857Y-21879657D01*
X7407143Y-21851086D01*
X7550000Y-22022514D02*
X7607143Y-22022514D01*
X7635714Y-22008229D01*
X7650000Y-21993943D01*
X7678571Y-21951086D01*
X7692857Y-21893943D01*
X7692857Y-21779657D01*
X7678571Y-21751086D01*
X7664286Y-21736800D01*
X7635714Y-21722514D01*
X7578571Y-21722514D01*
X7550000Y-21736800D01*
X7535714Y-21751086D01*
X7521428Y-21779657D01*
X7521428Y-21851086D01*
X7535714Y-21879657D01*
X7550000Y-21893943D01*
X7578571Y-21908229D01*
X7635714Y-21908229D01*
X7664286Y-21893943D01*
X7678571Y-21879657D01*
X7692857Y-21851086D01*
X7821428Y-22022514D02*
X7821428Y-21822514D01*
X7821428Y-21851086D02*
X7835714Y-21836800D01*
X7864286Y-21822514D01*
X7907143Y-21822514D01*
X7935714Y-21836800D01*
X7950000Y-21865372D01*
X7950000Y-22022514D01*
X7950000Y-21865372D02*
X7964286Y-21836800D01*
X7992857Y-21822514D01*
X8035714Y-21822514D01*
X8064286Y-21836800D01*
X8078571Y-21865372D01*
X8078571Y-22022514D01*
X8221428Y-22022514D02*
X8221428Y-21822514D01*
X8221428Y-21851086D02*
X8235714Y-21836800D01*
X8264286Y-21822514D01*
X8307143Y-21822514D01*
X8335714Y-21836800D01*
X8350000Y-21865372D01*
X8350000Y-22022514D01*
X8350000Y-21865372D02*
X8364286Y-21836800D01*
X8392857Y-21822514D01*
X8435714Y-21822514D01*
X8464286Y-21836800D01*
X8478571Y-21865372D01*
X8478571Y-22022514D01*
X9064286Y-21708229D02*
X8807143Y-22093943D01*
X9450000Y-21722514D02*
X9478571Y-21722514D01*
X9507143Y-21736800D01*
X9521428Y-21751086D01*
X9535714Y-21779657D01*
X9550000Y-21836800D01*
X9550000Y-21908229D01*
X9535714Y-21965372D01*
X9521428Y-21993943D01*
X9507143Y-22008229D01*
X9478571Y-22022514D01*
X9450000Y-22022514D01*
X9421428Y-22008229D01*
X9407143Y-21993943D01*
X9392857Y-21965372D01*
X9378571Y-21908229D01*
X9378571Y-21836800D01*
X9392857Y-21779657D01*
X9407143Y-21751086D01*
X9421428Y-21736800D01*
X9450000Y-21722514D01*
X9678571Y-21993943D02*
X9692857Y-22008229D01*
X9678571Y-22022514D01*
X9664286Y-22008229D01*
X9678571Y-21993943D01*
X9678571Y-22022514D01*
X9978571Y-22022514D02*
X9807143Y-22022514D01*
X9892857Y-22022514D02*
X9892857Y-21722514D01*
X9864286Y-21765372D01*
X9835714Y-21793943D01*
X9807143Y-21808229D01*
X10250000Y-21722514D02*
X10107143Y-21722514D01*
X10092857Y-21865372D01*
X10107143Y-21851086D01*
X10135714Y-21836800D01*
X10207143Y-21836800D01*
X10235714Y-21851086D01*
X10250000Y-21865372D01*
X10264286Y-21893943D01*
X10264286Y-21965372D01*
X10250000Y-21993943D01*
X10235714Y-22008229D01*
X10207143Y-22022514D01*
X10135714Y-22022514D01*
X10107143Y-22008229D01*
X10092857Y-21993943D01*
X10364286Y-21722514D02*
X10564286Y-21722514D01*
X10435714Y-22022514D01*
X10664286Y-21722514D02*
X10664286Y-21779657D01*
X10778571Y-21722514D02*
X10778571Y-21779657D01*
X11221428Y-22136800D02*
X11207143Y-22122514D01*
X11178571Y-22079657D01*
X11164286Y-22051086D01*
X11150000Y-22008229D01*
X11135714Y-21936800D01*
X11135714Y-21879657D01*
X11150000Y-21808229D01*
X11164286Y-21765372D01*
X11178571Y-21736800D01*
X11207143Y-21693943D01*
X11221428Y-21679657D01*
X11307143Y-21722514D02*
X11507143Y-21722514D01*
X11378571Y-22022514D01*
X11664286Y-21851086D02*
X11635714Y-21836800D01*
X11621428Y-21822514D01*
X11607143Y-21793943D01*
X11607143Y-21779657D01*
X11621428Y-21751086D01*
X11635714Y-21736800D01*
X11664286Y-21722514D01*
X11721428Y-21722514D01*
X11750000Y-21736800D01*
X11764286Y-21751086D01*
X11778571Y-21779657D01*
X11778571Y-21793943D01*
X11764286Y-21822514D01*
X11750000Y-21836800D01*
X11721428Y-21851086D01*
X11664286Y-21851086D01*
X11635714Y-21865372D01*
X11621428Y-21879657D01*
X11607143Y-21908229D01*
X11607143Y-21965372D01*
X11621428Y-21993943D01*
X11635714Y-22008229D01*
X11664286Y-22022514D01*
X11721428Y-22022514D01*
X11750000Y-22008229D01*
X11764286Y-21993943D01*
X11778571Y-21965372D01*
X11778571Y-21908229D01*
X11764286Y-21879657D01*
X11750000Y-21865372D01*
X11721428Y-21851086D01*
X12135714Y-22022514D02*
X12135714Y-21722514D01*
X12264286Y-22022514D02*
X12264286Y-21865372D01*
X12250000Y-21836800D01*
X12221428Y-21822514D01*
X12178571Y-21822514D01*
X12150000Y-21836800D01*
X12135714Y-21851086D01*
X12450000Y-22022514D02*
X12421428Y-22008229D01*
X12407143Y-21993943D01*
X12392857Y-21965372D01*
X12392857Y-21879657D01*
X12407143Y-21851086D01*
X12421428Y-21836800D01*
X12450000Y-21822514D01*
X12492857Y-21822514D01*
X12521428Y-21836800D01*
X12535714Y-21851086D01*
X12550000Y-21879657D01*
X12550000Y-21965372D01*
X12535714Y-21993943D01*
X12521428Y-22008229D01*
X12492857Y-22022514D01*
X12450000Y-22022514D01*
X12721428Y-22022514D02*
X12692857Y-22008229D01*
X12678571Y-21979657D01*
X12678571Y-21722514D01*
X12950000Y-22008229D02*
X12921428Y-22022514D01*
X12864286Y-22022514D01*
X12835714Y-22008229D01*
X12821428Y-21979657D01*
X12821428Y-21865372D01*
X12835714Y-21836800D01*
X12864286Y-21822514D01*
X12921428Y-21822514D01*
X12950000Y-21836800D01*
X12964286Y-21865372D01*
X12964286Y-21893943D01*
X12821428Y-21922514D01*
X13078571Y-22008229D02*
X13107143Y-22022514D01*
X13164286Y-22022514D01*
X13192857Y-22008229D01*
X13207143Y-21979657D01*
X13207143Y-21965372D01*
X13192857Y-21936800D01*
X13164286Y-21922514D01*
X13121428Y-21922514D01*
X13092857Y-21908229D01*
X13078571Y-21879657D01*
X13078571Y-21865372D01*
X13092857Y-21836800D01*
X13121428Y-21822514D01*
X13164286Y-21822514D01*
X13192857Y-21836800D01*
X13307143Y-22136800D02*
X13321428Y-22122514D01*
X13350000Y-22079657D01*
X13364286Y-22051086D01*
X13378571Y-22008229D01*
X13392857Y-21936800D01*
X13392857Y-21879657D01*
X13378571Y-21808229D01*
X13364286Y-21765372D01*
X13350000Y-21736800D01*
X13321428Y-21693943D01*
X13307143Y-21679657D01*
X13850000Y-22136800D02*
X13835714Y-22122514D01*
X13807143Y-22079657D01*
X13792857Y-22051086D01*
X13778571Y-22008229D01*
X13764286Y-21936800D01*
X13764286Y-21879657D01*
X13778571Y-21808229D01*
X13792857Y-21765372D01*
X13807143Y-21736800D01*
X13835714Y-21693943D01*
X13850000Y-21679657D01*
X13964286Y-21822514D02*
X13964286Y-22022514D01*
X13964286Y-21851086D02*
X13978571Y-21836800D01*
X14007143Y-21822514D01*
X14050000Y-21822514D01*
X14078571Y-21836800D01*
X14092857Y-21865372D01*
X14092857Y-22022514D01*
X14278571Y-22022514D02*
X14250000Y-22008229D01*
X14235714Y-21993943D01*
X14221428Y-21965372D01*
X14221428Y-21879657D01*
X14235714Y-21851086D01*
X14250000Y-21836800D01*
X14278571Y-21822514D01*
X14321428Y-21822514D01*
X14350000Y-21836800D01*
X14364286Y-21851086D01*
X14378571Y-21879657D01*
X14378571Y-21965372D01*
X14364286Y-21993943D01*
X14350000Y-22008229D01*
X14321428Y-22022514D01*
X14278571Y-22022514D01*
X14464286Y-21822514D02*
X14578571Y-21822514D01*
X14507143Y-21722514D02*
X14507143Y-21979657D01*
X14521428Y-22008229D01*
X14550000Y-22022514D01*
X14578571Y-22022514D01*
X14907143Y-21822514D02*
X14907143Y-22122514D01*
X14907143Y-21836800D02*
X14935714Y-21822514D01*
X14992857Y-21822514D01*
X15021428Y-21836800D01*
X15035714Y-21851086D01*
X15050000Y-21879657D01*
X15050000Y-21965372D01*
X15035714Y-21993943D01*
X15021428Y-22008229D01*
X14992857Y-22022514D01*
X14935714Y-22022514D01*
X14907143Y-22008229D01*
X15221428Y-22022514D02*
X15192857Y-22008229D01*
X15178571Y-21979657D01*
X15178571Y-21722514D01*
X15464286Y-22022514D02*
X15464286Y-21865372D01*
X15450000Y-21836800D01*
X15421428Y-21822514D01*
X15364286Y-21822514D01*
X15335714Y-21836800D01*
X15464286Y-22008229D02*
X15435714Y-22022514D01*
X15364286Y-22022514D01*
X15335714Y-22008229D01*
X15321428Y-21979657D01*
X15321428Y-21951086D01*
X15335714Y-21922514D01*
X15364286Y-21908229D01*
X15435714Y-21908229D01*
X15464286Y-21893943D01*
X15564286Y-21822514D02*
X15678571Y-21822514D01*
X15607143Y-21722514D02*
X15607143Y-21979657D01*
X15621428Y-22008229D01*
X15650000Y-22022514D01*
X15678571Y-22022514D01*
X15892857Y-22008229D02*
X15864286Y-22022514D01*
X15807143Y-22022514D01*
X15778571Y-22008229D01*
X15764286Y-21979657D01*
X15764286Y-21865372D01*
X15778571Y-21836800D01*
X15807143Y-21822514D01*
X15864286Y-21822514D01*
X15892857Y-21836800D01*
X15907143Y-21865372D01*
X15907143Y-21893943D01*
X15764286Y-21922514D01*
X16164286Y-22022514D02*
X16164286Y-21722514D01*
X16164286Y-22008229D02*
X16135714Y-22022514D01*
X16078571Y-22022514D01*
X16050000Y-22008229D01*
X16035714Y-21993943D01*
X16021428Y-21965372D01*
X16021428Y-21879657D01*
X16035714Y-21851086D01*
X16050000Y-21836800D01*
X16078571Y-21822514D01*
X16135714Y-21822514D01*
X16164286Y-21836800D01*
X16278571Y-22136800D02*
X16292857Y-22122514D01*
X16321428Y-22079657D01*
X16335714Y-22051086D01*
X16350000Y-22008229D01*
X16364286Y-21936800D01*
X16364286Y-21879657D01*
X16350000Y-21808229D01*
X16335714Y-21765372D01*
X16321428Y-21736800D01*
X16292857Y-21693943D01*
X16278571Y-21679657D01*
M02*
