G04 #@! TF.GenerationSoftware,KiCad,Pcbnew,(5.1.9)-1*
G04 #@! TF.CreationDate,2021-05-17T15:30:07+01:00*
G04 #@! TF.ProjectId,EnvKB65,456e764b-4236-4352-9e6b-696361645f70,rev?*
G04 #@! TF.SameCoordinates,Original*
G04 #@! TF.FileFunction,Soldermask,Bot*
G04 #@! TF.FilePolarity,Negative*
%FSLAX46Y46*%
G04 Gerber Fmt 4.6, Leading zero omitted, Abs format (unit mm)*
G04 Created by KiCad (PCBNEW (5.1.9)-1) date 2021-05-17 15:30:07*
%MOMM*%
%LPD*%
G01*
G04 APERTURE LIST*
%ADD10C,2.200000*%
%ADD11O,1.700000X1.700000*%
%ADD12R,1.700000X1.700000*%
%ADD13C,3.987800*%
%ADD14C,3.048000*%
%ADD15C,1.750000*%
%ADD16C,2.250000*%
%ADD17R,1.200000X0.900000*%
G04 APERTURE END LIST*
D10*
X231250000Y-178000000D03*
X225000000Y-122500000D03*
X367750000Y-180500000D03*
X70600000Y-178200000D03*
X69000000Y-101000000D03*
X382200000Y-101000000D03*
D11*
X376670000Y-99020000D03*
X376670000Y-101560000D03*
D12*
X376670000Y-104100000D03*
D11*
X376670000Y-106640000D03*
X376670000Y-109180000D03*
X376670000Y-111720000D03*
X376670000Y-114260000D03*
D12*
X376670000Y-116800000D03*
D11*
X376670000Y-119340000D03*
X376670000Y-121880000D03*
X376670000Y-124420000D03*
X376670000Y-126960000D03*
D12*
X376670000Y-129500000D03*
D11*
X376670000Y-132040000D03*
X376670000Y-134580000D03*
X376670000Y-137120000D03*
X376670000Y-139660000D03*
D12*
X376670000Y-142200000D03*
D11*
X376670000Y-144740000D03*
X376670000Y-147280000D03*
X358890000Y-147280000D03*
X358890000Y-144740000D03*
D12*
X358890000Y-142200000D03*
D11*
X358890000Y-139660000D03*
X358890000Y-137120000D03*
X358890000Y-134580000D03*
X358890000Y-132040000D03*
D12*
X358890000Y-129500000D03*
D11*
X358890000Y-126960000D03*
X358890000Y-124420000D03*
X358890000Y-121880000D03*
X358890000Y-119340000D03*
D12*
X358890000Y-116800000D03*
D11*
X358890000Y-114260000D03*
X358890000Y-111720000D03*
X358890000Y-109180000D03*
X358890000Y-106640000D03*
D12*
X358890000Y-104100000D03*
D11*
X358890000Y-101560000D03*
X358890000Y-99020000D03*
D13*
X328579200Y-128146120D03*
X328579200Y-152022120D03*
D14*
X343819200Y-128146120D03*
X343819200Y-152022120D03*
D15*
X336834200Y-145164120D03*
X336834200Y-135004120D03*
D16*
X339374200Y-136274120D03*
D13*
X336834200Y-140084120D03*
D16*
X341914200Y-142624120D03*
X196492950Y-182629120D03*
D13*
X193952950Y-187709120D03*
D16*
X190142950Y-185169120D03*
D15*
X188872950Y-187709120D03*
X199032950Y-187709120D03*
D16*
X234592950Y-182629120D03*
D13*
X232052950Y-187709120D03*
D16*
X228242950Y-185169120D03*
D15*
X226972950Y-187709120D03*
X237132950Y-187709120D03*
D14*
X220146700Y-194694120D03*
X243959200Y-194694120D03*
D13*
X220146700Y-179454120D03*
X243959200Y-179454120D03*
D16*
X360799200Y-182629120D03*
D13*
X358259200Y-187709120D03*
D16*
X354449200Y-185169120D03*
D15*
X353179200Y-187709120D03*
X363339200Y-187709120D03*
D16*
X265549200Y-182629120D03*
D13*
X263009200Y-187709120D03*
D16*
X259199200Y-185169120D03*
D15*
X257929200Y-187709120D03*
X268089200Y-187709120D03*
D16*
X82224200Y-144529120D03*
D13*
X79684200Y-149609120D03*
D16*
X75874200Y-147069120D03*
D15*
X74604200Y-149609120D03*
X84764200Y-149609120D03*
D16*
X158392950Y-182629120D03*
D13*
X155852950Y-187709120D03*
D16*
X152042950Y-185169120D03*
D15*
X150772950Y-187709120D03*
X160932950Y-187709120D03*
D14*
X143946700Y-194694120D03*
X167759200Y-194694120D03*
D13*
X143946700Y-179454120D03*
X167759200Y-179454120D03*
D16*
X315574200Y-163579120D03*
D13*
X313034200Y-168659120D03*
D16*
X309224200Y-166119120D03*
D15*
X307954200Y-168659120D03*
X318114200Y-168659120D03*
D16*
X379849200Y-182629120D03*
D13*
X377309200Y-187709120D03*
D16*
X373499200Y-185169120D03*
D15*
X372229200Y-187709120D03*
X382389200Y-187709120D03*
D16*
X341749200Y-182629120D03*
D13*
X339209200Y-187709120D03*
D16*
X335399200Y-185169120D03*
D15*
X334129200Y-187709120D03*
X344289200Y-187709120D03*
D16*
X322699200Y-182629120D03*
D13*
X320159200Y-187709120D03*
D16*
X316349200Y-185169120D03*
D15*
X315079200Y-187709120D03*
X325239200Y-187709120D03*
D16*
X303649200Y-182629120D03*
D13*
X301109200Y-187709120D03*
D16*
X297299200Y-185169120D03*
D15*
X296029200Y-187709120D03*
X306189200Y-187709120D03*
D16*
X284599200Y-182629120D03*
D13*
X282059200Y-187709120D03*
D16*
X278249200Y-185169120D03*
D15*
X276979200Y-187709120D03*
X287139200Y-187709120D03*
D16*
X125055450Y-182629120D03*
D13*
X122515450Y-187709120D03*
D16*
X118705450Y-185169120D03*
D15*
X117435450Y-187709120D03*
X127595450Y-187709120D03*
D16*
X101242950Y-182629120D03*
D13*
X98702950Y-187709120D03*
D16*
X94892950Y-185169120D03*
D15*
X93622950Y-187709120D03*
X103782950Y-187709120D03*
D16*
X77430450Y-182629120D03*
D13*
X74890450Y-187709120D03*
D16*
X71080450Y-185169120D03*
D15*
X69810450Y-187709120D03*
X79970450Y-187709120D03*
D16*
X379849200Y-163579120D03*
D13*
X377309200Y-168659120D03*
D16*
X373499200Y-166119120D03*
D15*
X372229200Y-168659120D03*
X382389200Y-168659120D03*
D16*
X360799200Y-163579120D03*
D13*
X358259200Y-168659120D03*
D16*
X354449200Y-166119120D03*
D15*
X353179200Y-168659120D03*
X363339200Y-168659120D03*
D16*
X341749200Y-163579120D03*
D13*
X339209200Y-168659120D03*
D16*
X335399200Y-166119120D03*
D15*
X334129200Y-168659120D03*
X344289200Y-168659120D03*
D16*
X289361700Y-163579120D03*
D13*
X286821700Y-168659120D03*
D16*
X283011700Y-166119120D03*
D15*
X281741700Y-168659120D03*
X291901700Y-168659120D03*
D16*
X270311700Y-163579120D03*
D13*
X267771700Y-168659120D03*
D16*
X263961700Y-166119120D03*
D15*
X262691700Y-168659120D03*
X272851700Y-168659120D03*
D16*
X251261700Y-163579120D03*
D13*
X248721700Y-168659120D03*
D16*
X244911700Y-166119120D03*
D15*
X243641700Y-168659120D03*
X253801700Y-168659120D03*
D16*
X232211700Y-163579120D03*
D13*
X229671700Y-168659120D03*
D16*
X225861700Y-166119120D03*
D15*
X224591700Y-168659120D03*
X234751700Y-168659120D03*
D16*
X213161700Y-163579120D03*
D13*
X210621700Y-168659120D03*
D16*
X206811700Y-166119120D03*
D15*
X205541700Y-168659120D03*
X215701700Y-168659120D03*
D16*
X194111700Y-163579120D03*
D13*
X191571700Y-168659120D03*
D16*
X187761700Y-166119120D03*
D15*
X186491700Y-168659120D03*
X196651700Y-168659120D03*
D16*
X175061700Y-163579120D03*
D13*
X172521700Y-168659120D03*
D16*
X168711700Y-166119120D03*
D15*
X167441700Y-168659120D03*
X177601700Y-168659120D03*
D16*
X156011700Y-163579120D03*
D13*
X153471700Y-168659120D03*
D16*
X149661700Y-166119120D03*
D15*
X148391700Y-168659120D03*
X158551700Y-168659120D03*
D16*
X136961700Y-163579120D03*
D13*
X134421700Y-168659120D03*
D16*
X130611700Y-166119120D03*
D15*
X129341700Y-168659120D03*
X139501700Y-168659120D03*
D16*
X117911700Y-163579120D03*
D13*
X115371700Y-168659120D03*
D16*
X111561700Y-166119120D03*
D15*
X110291700Y-168659120D03*
X120451700Y-168659120D03*
D16*
X98861700Y-163579120D03*
D13*
X96321700Y-168659120D03*
D16*
X92511700Y-166119120D03*
D15*
X91241700Y-168659120D03*
X101401700Y-168659120D03*
D16*
X77430450Y-163579120D03*
D13*
X74890450Y-168659120D03*
D16*
X71080450Y-166119120D03*
D15*
X69810450Y-168659120D03*
X79970450Y-168659120D03*
D16*
X317936700Y-144529120D03*
D13*
X315396700Y-149609120D03*
D16*
X311586700Y-147069120D03*
D15*
X310316700Y-149609120D03*
X320476700Y-149609120D03*
D16*
X298886700Y-144529120D03*
D13*
X296346700Y-149609120D03*
D16*
X292536700Y-147069120D03*
D15*
X291266700Y-149609120D03*
X301426700Y-149609120D03*
D16*
X279836700Y-144529120D03*
D13*
X277296700Y-149609120D03*
D16*
X273486700Y-147069120D03*
D15*
X272216700Y-149609120D03*
X282376700Y-149609120D03*
D16*
X260786700Y-144529120D03*
D13*
X258246700Y-149609120D03*
D16*
X254436700Y-147069120D03*
D15*
X253166700Y-149609120D03*
X263326700Y-149609120D03*
D16*
X241736700Y-144529120D03*
D13*
X239196700Y-149609120D03*
D16*
X235386700Y-147069120D03*
D15*
X234116700Y-149609120D03*
X244276700Y-149609120D03*
D16*
X222686700Y-144529120D03*
D13*
X220146700Y-149609120D03*
D16*
X216336700Y-147069120D03*
D15*
X215066700Y-149609120D03*
X225226700Y-149609120D03*
D16*
X203636700Y-144529120D03*
D13*
X201096700Y-149609120D03*
D16*
X197286700Y-147069120D03*
D15*
X196016700Y-149609120D03*
X206176700Y-149609120D03*
D16*
X184586700Y-144529120D03*
D13*
X182046700Y-149609120D03*
D16*
X178236700Y-147069120D03*
D15*
X176966700Y-149609120D03*
X187126700Y-149609120D03*
D16*
X165536700Y-144529120D03*
D13*
X162996700Y-149609120D03*
D16*
X159186700Y-147069120D03*
D15*
X157916700Y-149609120D03*
X168076700Y-149609120D03*
D16*
X146486700Y-144529120D03*
D13*
X143946700Y-149609120D03*
D16*
X140136700Y-147069120D03*
D15*
X138866700Y-149609120D03*
X149026700Y-149609120D03*
D16*
X127436700Y-144529120D03*
D13*
X124896700Y-149609120D03*
D16*
X121086700Y-147069120D03*
D15*
X119816700Y-149609120D03*
X129976700Y-149609120D03*
D16*
X108386700Y-144529120D03*
D13*
X105846700Y-149609120D03*
D16*
X102036700Y-147069120D03*
D15*
X100766700Y-149609120D03*
X110926700Y-149609120D03*
D16*
X313174200Y-125479120D03*
D13*
X310634200Y-130559120D03*
D16*
X306824200Y-128019120D03*
D15*
X305554200Y-130559120D03*
X315714200Y-130559120D03*
D16*
X294124200Y-125479120D03*
D13*
X291584200Y-130559120D03*
D16*
X287774200Y-128019120D03*
D15*
X286504200Y-130559120D03*
X296664200Y-130559120D03*
D16*
X275074200Y-125479120D03*
D13*
X272534200Y-130559120D03*
D16*
X268724200Y-128019120D03*
D15*
X267454200Y-130559120D03*
X277614200Y-130559120D03*
D16*
X256024200Y-125479120D03*
D13*
X253484200Y-130559120D03*
D16*
X249674200Y-128019120D03*
D15*
X248404200Y-130559120D03*
X258564200Y-130559120D03*
D16*
X236974200Y-125479120D03*
D13*
X234434200Y-130559120D03*
D16*
X230624200Y-128019120D03*
D15*
X229354200Y-130559120D03*
X239514200Y-130559120D03*
D16*
X217924200Y-125479120D03*
D13*
X215384200Y-130559120D03*
D16*
X211574200Y-128019120D03*
D15*
X210304200Y-130559120D03*
X220464200Y-130559120D03*
D16*
X198874200Y-125479120D03*
D13*
X196334200Y-130559120D03*
D16*
X192524200Y-128019120D03*
D15*
X191254200Y-130559120D03*
X201414200Y-130559120D03*
D16*
X179824200Y-125479120D03*
D13*
X177284200Y-130559120D03*
D16*
X173474200Y-128019120D03*
D15*
X172204200Y-130559120D03*
X182364200Y-130559120D03*
D16*
X160774200Y-125479120D03*
D13*
X158234200Y-130559120D03*
D16*
X154424200Y-128019120D03*
D15*
X153154200Y-130559120D03*
X163314200Y-130559120D03*
D16*
X141724200Y-125479120D03*
D13*
X139184200Y-130559120D03*
D16*
X135374200Y-128019120D03*
D15*
X134104200Y-130559120D03*
X144264200Y-130559120D03*
D16*
X122674200Y-125479120D03*
D13*
X120134200Y-130559120D03*
D16*
X116324200Y-128019120D03*
D15*
X115054200Y-130559120D03*
X125214200Y-130559120D03*
D16*
X103624200Y-125479120D03*
D13*
X101084200Y-130559120D03*
D16*
X97274200Y-128019120D03*
D15*
X96004200Y-130559120D03*
X106164200Y-130559120D03*
D16*
X79811700Y-125479120D03*
D13*
X77271700Y-130559120D03*
D16*
X73461700Y-128019120D03*
D15*
X72191700Y-130559120D03*
X82351700Y-130559120D03*
D16*
X332224200Y-106429120D03*
D13*
X329684200Y-111509120D03*
D16*
X325874200Y-108969120D03*
D15*
X324604200Y-111509120D03*
X334764200Y-111509120D03*
D14*
X317777950Y-104524120D03*
X341590450Y-104524120D03*
D13*
X317777950Y-119764120D03*
X341590450Y-119764120D03*
D16*
X303649200Y-106429120D03*
D13*
X301109200Y-111509120D03*
D16*
X297299200Y-108969120D03*
D15*
X296029200Y-111509120D03*
X306189200Y-111509120D03*
D16*
X284599200Y-106429120D03*
D13*
X282059200Y-111509120D03*
D16*
X278249200Y-108969120D03*
D15*
X276979200Y-111509120D03*
X287139200Y-111509120D03*
D16*
X265549200Y-106429120D03*
D13*
X263009200Y-111509120D03*
D16*
X259199200Y-108969120D03*
D15*
X257929200Y-111509120D03*
X268089200Y-111509120D03*
D16*
X246499200Y-106429120D03*
D13*
X243959200Y-111509120D03*
D16*
X240149200Y-108969120D03*
D15*
X238879200Y-111509120D03*
X249039200Y-111509120D03*
D16*
X227449200Y-106429120D03*
D13*
X224909200Y-111509120D03*
D16*
X221099200Y-108969120D03*
D15*
X219829200Y-111509120D03*
X229989200Y-111509120D03*
D16*
X208399200Y-106429120D03*
D13*
X205859200Y-111509120D03*
D16*
X202049200Y-108969120D03*
D15*
X200779200Y-111509120D03*
X210939200Y-111509120D03*
D16*
X189349200Y-106429120D03*
D13*
X186809200Y-111509120D03*
D16*
X182999200Y-108969120D03*
D15*
X181729200Y-111509120D03*
X191889200Y-111509120D03*
D16*
X170299200Y-106429120D03*
D13*
X167759200Y-111509120D03*
D16*
X163949200Y-108969120D03*
D15*
X162679200Y-111509120D03*
X172839200Y-111509120D03*
D16*
X151249200Y-106429120D03*
D13*
X148709200Y-111509120D03*
D16*
X144899200Y-108969120D03*
D15*
X143629200Y-111509120D03*
X153789200Y-111509120D03*
D16*
X132199200Y-106429120D03*
D13*
X129659200Y-111509120D03*
D16*
X125849200Y-108969120D03*
D15*
X124579200Y-111509120D03*
X134739200Y-111509120D03*
D16*
X113149200Y-106429120D03*
D13*
X110609200Y-111509120D03*
D16*
X106799200Y-108969120D03*
D15*
X105529200Y-111509120D03*
X115689200Y-111509120D03*
D16*
X94099200Y-106429120D03*
D13*
X91559200Y-111509120D03*
D16*
X87749200Y-108969120D03*
D15*
X86479200Y-111509120D03*
X96639200Y-111509120D03*
D16*
X75049200Y-106429120D03*
D13*
X72509200Y-111509120D03*
D16*
X68699200Y-108969120D03*
D15*
X67429200Y-111509120D03*
X77589200Y-111509120D03*
D17*
X80684200Y-116884120D03*
X80684200Y-120184120D03*
X99734200Y-116884120D03*
X99734200Y-120184120D03*
X118784200Y-116884120D03*
X118784200Y-120184120D03*
X137834200Y-116884120D03*
X137834200Y-120184120D03*
X156884200Y-116884120D03*
X156884200Y-120184120D03*
X175934200Y-116884120D03*
X175934200Y-120184120D03*
X194984200Y-116884120D03*
X194984200Y-120184120D03*
X214034200Y-116884120D03*
X214034200Y-120184120D03*
X233084200Y-116884120D03*
X233084200Y-120184120D03*
X252134200Y-116884120D03*
X252134200Y-120184120D03*
X271184200Y-116884120D03*
X271184200Y-120184120D03*
X290234200Y-116884120D03*
X290234200Y-120184120D03*
X309284200Y-116884120D03*
X309284200Y-120184120D03*
X347384200Y-116884120D03*
X347384200Y-120184120D03*
X90359200Y-135984120D03*
X90359200Y-139284120D03*
X109409200Y-135984120D03*
X109409200Y-139284120D03*
X128459200Y-135984120D03*
X128459200Y-139284120D03*
X147509200Y-135984120D03*
X147509200Y-139284120D03*
X166559200Y-135984120D03*
X166559200Y-139284120D03*
X185609200Y-135984120D03*
X185609200Y-139284120D03*
X204659200Y-135984120D03*
X204659200Y-139284120D03*
X223709200Y-135984120D03*
X223709200Y-139284120D03*
X242759200Y-135984120D03*
X242759200Y-139284120D03*
X261809200Y-135984120D03*
X261809200Y-139284120D03*
X280859200Y-135984120D03*
X280859200Y-139284120D03*
X299909200Y-135984120D03*
X299909200Y-139284120D03*
X318959200Y-135984120D03*
X318959200Y-139284120D03*
X85646700Y-154959120D03*
X85646700Y-158259120D03*
X114221700Y-154959120D03*
X114221700Y-158259120D03*
X133271700Y-154959120D03*
X133271700Y-158259120D03*
X152321700Y-154959120D03*
X152321700Y-158259120D03*
X171371700Y-154959120D03*
X171371700Y-158259120D03*
X190421700Y-154959120D03*
X190421700Y-158259120D03*
X209471700Y-154959120D03*
X209471700Y-158259120D03*
X228521700Y-154959120D03*
X228521700Y-158259120D03*
X247571700Y-154959120D03*
X247571700Y-158259120D03*
X266621700Y-154959120D03*
X266621700Y-158259120D03*
X285671700Y-154959120D03*
X285671700Y-158259120D03*
X304721700Y-154959120D03*
X304721700Y-158259120D03*
X323771700Y-154959120D03*
X323771700Y-158259120D03*
X347234200Y-154934120D03*
X347234200Y-158234120D03*
X85496700Y-174034120D03*
X85496700Y-177334120D03*
X104546700Y-174034120D03*
X104546700Y-177334120D03*
X123596700Y-174034120D03*
X123596700Y-177334120D03*
X142646700Y-173125000D03*
X142646700Y-176425000D03*
X161696700Y-174034120D03*
X161696700Y-177334120D03*
X180746700Y-174034120D03*
X180746700Y-177334120D03*
X199796700Y-174034120D03*
X199796700Y-177334120D03*
X218846700Y-172900000D03*
X218846700Y-176200000D03*
X237896700Y-174034120D03*
X237896700Y-177334120D03*
X256946700Y-174034120D03*
X256946700Y-177334120D03*
X275996700Y-174034120D03*
X275996700Y-177334120D03*
X295046700Y-174034120D03*
X295046700Y-177334120D03*
X321784200Y-174034120D03*
X321784200Y-177334120D03*
X347434200Y-174034120D03*
X347434200Y-177334120D03*
X366484200Y-174034120D03*
X366484200Y-177334120D03*
X369250000Y-174034120D03*
X369250000Y-177334120D03*
X85346700Y-188559120D03*
X85346700Y-191859120D03*
X109159200Y-188559120D03*
X109159200Y-191859120D03*
X132971700Y-188559120D03*
X132971700Y-191859120D03*
X175834200Y-188559120D03*
X175834200Y-191859120D03*
X209171700Y-188559120D03*
X209171700Y-191859120D03*
X252034200Y-188559120D03*
X252034200Y-191859120D03*
X271084200Y-188559120D03*
X271084200Y-191859120D03*
X290134200Y-188559120D03*
X290134200Y-191859120D03*
X309184200Y-188559120D03*
X309184200Y-191859120D03*
X328234200Y-188559120D03*
X328234200Y-191859120D03*
X347284200Y-188559120D03*
X347284200Y-191859120D03*
X366334200Y-188559120D03*
X366334200Y-191859120D03*
X368750000Y-188559120D03*
X368750000Y-191859120D03*
M02*
