M48
; DRILL file {KiCad (5.1.9)-1} date 05/17/21 17:10:12
; FORMAT={-:-/ absolute / metric / decimal}
; #@! TF.CreationDate,2021-05-17T17:10:12+01:00
; #@! TF.GenerationSoftware,Kicad,Pcbnew,(5.1.9)-1
; #@! TF.FileFunction,NonPlated,1,2,NPTH
FMAT,2
METRIC
T1C1.750
T2C2.200
T3C3.048
T4C3.988
%
G90
G05
T1
X67.429Y-111.509
X69.81Y-168.659
X69.81Y-187.709
X72.192Y-130.559
X74.604Y-149.609
X77.589Y-111.509
X79.97Y-168.659
X79.97Y-187.709
X82.352Y-130.559
X84.764Y-149.609
X86.479Y-111.509
X91.242Y-168.659
X93.623Y-187.709
X96.004Y-130.559
X96.639Y-111.509
X100.767Y-149.609
X101.402Y-168.659
X103.783Y-187.709
X105.529Y-111.509
X106.164Y-130.559
X110.292Y-168.659
X110.927Y-149.609
X115.054Y-130.559
X115.689Y-111.509
X117.435Y-187.709
X119.817Y-149.609
X120.452Y-168.659
X124.579Y-111.509
X125.214Y-130.559
X127.595Y-187.709
X129.342Y-168.659
X129.977Y-149.609
X134.104Y-130.559
X134.739Y-111.509
X138.867Y-149.609
X139.502Y-168.659
X143.629Y-111.509
X144.264Y-130.559
X148.392Y-168.659
X149.027Y-149.609
X150.773Y-187.709
X153.154Y-130.559
X153.789Y-111.509
X157.917Y-149.609
X158.552Y-168.659
X160.933Y-187.709
X162.679Y-111.509
X163.314Y-130.559
X167.442Y-168.659
X168.077Y-149.609
X172.204Y-130.559
X172.839Y-111.509
X176.967Y-149.609
X177.602Y-168.659
X181.729Y-111.509
X182.364Y-130.559
X186.492Y-168.659
X187.127Y-149.609
X188.873Y-187.709
X191.254Y-130.559
X191.889Y-111.509
X196.017Y-149.609
X196.652Y-168.659
X199.033Y-187.709
X200.779Y-111.509
X201.414Y-130.559
X205.542Y-168.659
X206.177Y-149.609
X210.304Y-130.559
X210.939Y-111.509
X215.067Y-149.609
X215.702Y-168.659
X219.829Y-111.509
X220.464Y-130.559
X224.592Y-168.659
X225.227Y-149.609
X226.973Y-187.709
X229.354Y-130.559
X229.989Y-111.509
X234.117Y-149.609
X234.752Y-168.659
X237.133Y-187.709
X238.879Y-111.509
X239.514Y-130.559
X243.642Y-168.659
X244.277Y-149.609
X248.404Y-130.559
X249.039Y-111.509
X253.167Y-149.609
X253.802Y-168.659
X257.929Y-111.509
X257.929Y-187.709
X258.564Y-130.559
X262.692Y-168.659
X263.327Y-149.609
X267.454Y-130.559
X268.089Y-111.509
X268.089Y-187.709
X272.217Y-149.609
X272.852Y-168.659
X276.979Y-111.509
X276.979Y-187.709
X277.614Y-130.559
X281.742Y-168.659
X282.377Y-149.609
X286.504Y-130.559
X287.139Y-111.509
X287.139Y-187.709
X291.267Y-149.609
X291.902Y-168.659
X296.029Y-111.509
X296.029Y-187.709
X296.664Y-130.559
X301.427Y-149.609
X305.554Y-130.559
X306.189Y-111.509
X306.189Y-187.709
X307.954Y-168.659
X310.317Y-149.609
X315.079Y-187.709
X315.714Y-130.559
X318.114Y-168.659
X320.477Y-149.609
X324.604Y-111.509
X325.239Y-187.709
X334.129Y-168.659
X334.129Y-187.709
X334.764Y-111.509
X336.834Y-135.004
X336.834Y-145.164
X344.289Y-168.659
X344.289Y-187.709
X353.179Y-168.659
X353.179Y-187.709
X363.339Y-168.659
X363.339Y-187.709
X372.229Y-168.659
X372.229Y-187.709
X382.389Y-168.659
X382.389Y-187.709
T2
X69.0Y-101.0
X70.6Y-178.2
X225.0Y-122.5
X231.25Y-178.0
X367.75Y-180.5
X382.2Y-101.0
T3
X143.947Y-194.694
X167.759Y-194.694
X220.147Y-194.694
X243.959Y-194.694
X317.778Y-104.524
X341.59Y-104.524
X343.819Y-128.146
X343.819Y-152.022
T4
X72.509Y-111.509
X74.89Y-168.659
X74.89Y-187.709
X77.272Y-130.559
X79.684Y-149.609
X91.559Y-111.509
X96.322Y-168.659
X98.703Y-187.709
X101.084Y-130.559
X105.847Y-149.609
X110.609Y-111.509
X115.372Y-168.659
X120.134Y-130.559
X122.515Y-187.709
X124.897Y-149.609
X129.659Y-111.509
X134.422Y-168.659
X139.184Y-130.559
X143.947Y-149.609
X143.947Y-179.454
X148.709Y-111.509
X153.472Y-168.659
X155.853Y-187.709
X158.234Y-130.559
X162.997Y-149.609
X167.759Y-111.509
X167.759Y-179.454
X172.522Y-168.659
X177.284Y-130.559
X182.047Y-149.609
X186.809Y-111.509
X191.572Y-168.659
X193.953Y-187.709
X196.334Y-130.559
X201.097Y-149.609
X205.859Y-111.509
X210.622Y-168.659
X215.384Y-130.559
X220.147Y-149.609
X220.147Y-179.454
X224.909Y-111.509
X229.672Y-168.659
X232.053Y-187.709
X234.434Y-130.559
X239.197Y-149.609
X243.959Y-111.509
X243.959Y-179.454
X248.722Y-168.659
X253.484Y-130.559
X258.247Y-149.609
X263.009Y-111.509
X263.009Y-187.709
X267.772Y-168.659
X272.534Y-130.559
X277.297Y-149.609
X282.059Y-111.509
X282.059Y-187.709
X286.822Y-168.659
X291.584Y-130.559
X296.347Y-149.609
X301.109Y-111.509
X301.109Y-187.709
X310.634Y-130.559
X313.034Y-168.659
X315.397Y-149.609
X317.778Y-119.764
X320.159Y-187.709
X328.579Y-128.146
X328.579Y-152.022
X329.684Y-111.509
X336.834Y-140.084
X339.209Y-168.659
X339.209Y-187.709
X341.59Y-119.764
X358.259Y-168.659
X358.259Y-187.709
X377.309Y-168.659
X377.309Y-187.709
T0
M30
