G04 #@! TF.GenerationSoftware,KiCad,Pcbnew,(5.1.9)-1*
G04 #@! TF.CreationDate,2021-05-17T15:39:50+01:00*
G04 #@! TF.ProjectId,EnvKB65,456e764b-4236-4352-9e6b-696361645f70,rev?*
G04 #@! TF.SameCoordinates,Original*
G04 #@! TF.FileFunction,Paste,Bot*
G04 #@! TF.FilePolarity,Positive*
%FSLAX46Y46*%
G04 Gerber Fmt 4.6, Leading zero omitted, Abs format (unit mm)*
G04 Created by KiCad (PCBNEW (5.1.9)-1) date 2021-05-17 15:39:50*
%MOMM*%
%LPD*%
G01*
G04 APERTURE LIST*
%ADD10R,1.000000X1.000000*%
G04 APERTURE END LIST*
D10*
X368750000Y-188959120D03*
X368750000Y-191459120D03*
X366334200Y-188959120D03*
X366334200Y-191459120D03*
X347284200Y-188959120D03*
X347284200Y-191459120D03*
X328234200Y-188959120D03*
X328234200Y-191459120D03*
X309184200Y-188959120D03*
X309184200Y-191459120D03*
X290134200Y-188959120D03*
X290134200Y-191459120D03*
X271084200Y-188959120D03*
X271084200Y-191459120D03*
X252034200Y-188959120D03*
X252034200Y-191459120D03*
X209171700Y-188959120D03*
X209171700Y-191459120D03*
X175834200Y-188959120D03*
X175834200Y-191459120D03*
X132971700Y-188959120D03*
X132971700Y-191459120D03*
X109159200Y-188959120D03*
X109159200Y-191459120D03*
X85346700Y-188959120D03*
X85346700Y-191459120D03*
X369250000Y-174434120D03*
X369250000Y-176934120D03*
X366484200Y-174434120D03*
X366484200Y-176934120D03*
X347434200Y-174434120D03*
X347434200Y-176934120D03*
X321784200Y-174434120D03*
X321784200Y-176934120D03*
X295046700Y-174434120D03*
X295046700Y-176934120D03*
X275996700Y-174434120D03*
X275996700Y-176934120D03*
X256946700Y-174434120D03*
X256946700Y-176934120D03*
X237896700Y-174434120D03*
X237896700Y-176934120D03*
X218846700Y-173300000D03*
X218846700Y-175800000D03*
X199796700Y-174434120D03*
X199796700Y-176934120D03*
X180746700Y-174434120D03*
X180746700Y-176934120D03*
X161696700Y-174434120D03*
X161696700Y-176934120D03*
X142646700Y-173525000D03*
X142646700Y-176025000D03*
X123596700Y-174434120D03*
X123596700Y-176934120D03*
X104546700Y-174434120D03*
X104546700Y-176934120D03*
X85496700Y-174434120D03*
X85496700Y-176934120D03*
X323771700Y-155359120D03*
X323771700Y-157859120D03*
X304721700Y-155359120D03*
X304721700Y-157859120D03*
X285671700Y-155359120D03*
X285671700Y-157859120D03*
X266621700Y-155359120D03*
X266621700Y-157859120D03*
X247571700Y-155359120D03*
X247571700Y-157859120D03*
X228521700Y-155359120D03*
X228521700Y-157859120D03*
X209471700Y-155359120D03*
X209471700Y-157859120D03*
X190421700Y-155359120D03*
X190421700Y-157859120D03*
X171371700Y-155359120D03*
X171371700Y-157859120D03*
X152321700Y-155359120D03*
X152321700Y-157859120D03*
X133271700Y-155359120D03*
X133271700Y-157859120D03*
X114221700Y-155359120D03*
X114221700Y-157859120D03*
X85646700Y-155359120D03*
X85646700Y-157859120D03*
X347234200Y-155334120D03*
X347234200Y-157834120D03*
X318959200Y-136384120D03*
X318959200Y-138884120D03*
X299909200Y-136384120D03*
X299909200Y-138884120D03*
X280859200Y-136384120D03*
X280859200Y-138884120D03*
X261809200Y-136384120D03*
X261809200Y-138884120D03*
X242759200Y-136384120D03*
X242759200Y-138884120D03*
X223709200Y-136384120D03*
X223709200Y-138884120D03*
X204659200Y-136384120D03*
X204659200Y-138884120D03*
X185609200Y-136384120D03*
X185609200Y-138884120D03*
X166559200Y-136384120D03*
X166559200Y-138884120D03*
X147509200Y-136384120D03*
X147509200Y-138884120D03*
X128459200Y-136384120D03*
X128459200Y-138884120D03*
X109409200Y-136384120D03*
X109409200Y-138884120D03*
X90359200Y-136384120D03*
X90359200Y-138884120D03*
X347384200Y-117284120D03*
X347384200Y-119784120D03*
X309284200Y-117284120D03*
X309284200Y-119784120D03*
X290234200Y-117284120D03*
X290234200Y-119784120D03*
X271184200Y-117284120D03*
X271184200Y-119784120D03*
X252134200Y-117284120D03*
X252134200Y-119784120D03*
X233084200Y-117284120D03*
X233084200Y-119784120D03*
X214034200Y-117284120D03*
X214034200Y-119784120D03*
X194984200Y-117284120D03*
X194984200Y-119784120D03*
X175934200Y-117284120D03*
X175934200Y-119784120D03*
X156884200Y-117284120D03*
X156884200Y-119784120D03*
X137834200Y-117284120D03*
X137834200Y-119784120D03*
X118784200Y-117284120D03*
X118784200Y-119784120D03*
X99734200Y-117284120D03*
X99734200Y-119784120D03*
X80684200Y-117284120D03*
X80684200Y-119784120D03*
M02*
