G04 #@! TF.GenerationSoftware,KiCad,Pcbnew,(5.1.9)-1*
G04 #@! TF.CreationDate,2021-05-17T17:10:14+01:00*
G04 #@! TF.ProjectId,EnvKB65,456e764b-4236-4352-9e6b-696361645f70,rev?*
G04 #@! TF.SameCoordinates,Original*
G04 #@! TF.FileFunction,Legend,Top*
G04 #@! TF.FilePolarity,Positive*
%FSLAX46Y46*%
G04 Gerber Fmt 4.6, Leading zero omitted, Abs format (unit mm)*
G04 Created by KiCad (PCBNEW (5.1.9)-1) date 2021-05-17 17:10:14*
%MOMM*%
%LPD*%
G01*
G04 APERTURE LIST*
%ADD10C,0.150000*%
%ADD11C,0.100000*%
%ADD12C,0.175000*%
%ADD13C,0.010000*%
%ADD14C,0.120000*%
G04 APERTURE END LIST*
D10*
X366538095Y-99252380D02*
X366538095Y-100061904D01*
X366585714Y-100157142D01*
X366633333Y-100204761D01*
X366728571Y-100252380D01*
X366919047Y-100252380D01*
X367014285Y-100204761D01*
X367061904Y-100157142D01*
X367109523Y-100061904D01*
X367109523Y-99252380D01*
X367538095Y-100204761D02*
X367680952Y-100252380D01*
X367919047Y-100252380D01*
X368014285Y-100204761D01*
X368061904Y-100157142D01*
X368109523Y-100061904D01*
X368109523Y-99966666D01*
X368061904Y-99871428D01*
X368014285Y-99823809D01*
X367919047Y-99776190D01*
X367728571Y-99728571D01*
X367633333Y-99680952D01*
X367585714Y-99633333D01*
X367538095Y-99538095D01*
X367538095Y-99442857D01*
X367585714Y-99347619D01*
X367633333Y-99300000D01*
X367728571Y-99252380D01*
X367966666Y-99252380D01*
X368109523Y-99300000D01*
X368871428Y-99728571D02*
X369014285Y-99776190D01*
X369061904Y-99823809D01*
X369109523Y-99919047D01*
X369109523Y-100061904D01*
X369061904Y-100157142D01*
X369014285Y-100204761D01*
X368919047Y-100252380D01*
X368538095Y-100252380D01*
X368538095Y-99252380D01*
X368871428Y-99252380D01*
X368966666Y-99300000D01*
X369014285Y-99347619D01*
X369061904Y-99442857D01*
X369061904Y-99538095D01*
X369014285Y-99633333D01*
X368966666Y-99680952D01*
X368871428Y-99728571D01*
X368538095Y-99728571D01*
D11*
G36*
X368400000Y-99000000D02*
G01*
X367200000Y-99000000D01*
X367800000Y-98400000D01*
X368400000Y-99000000D01*
G37*
X368400000Y-99000000D02*
X367200000Y-99000000D01*
X367800000Y-98400000D01*
X368400000Y-99000000D01*
D12*
X75189940Y-101104761D02*
X75189940Y-99104761D01*
X76047083Y-101104761D02*
X76047083Y-100057142D01*
X75951845Y-99866666D01*
X75761369Y-99771428D01*
X75475654Y-99771428D01*
X75285178Y-99866666D01*
X75189940Y-99961904D01*
X76713750Y-99771428D02*
X77475654Y-99771428D01*
X76999464Y-99104761D02*
X76999464Y-100819047D01*
X77094702Y-101009523D01*
X77285178Y-101104761D01*
X77475654Y-101104761D01*
X77856607Y-99771428D02*
X78618511Y-99771428D01*
X78142321Y-99104761D02*
X78142321Y-100819047D01*
X78237559Y-101009523D01*
X78428035Y-101104761D01*
X78618511Y-101104761D01*
X79285178Y-99771428D02*
X79285178Y-101771428D01*
X79285178Y-99866666D02*
X79475654Y-99771428D01*
X79856607Y-99771428D01*
X80047083Y-99866666D01*
X80142321Y-99961904D01*
X80237559Y-100152380D01*
X80237559Y-100723809D01*
X80142321Y-100914285D01*
X80047083Y-101009523D01*
X79856607Y-101104761D01*
X79475654Y-101104761D01*
X79285178Y-101009523D01*
X81094702Y-100914285D02*
X81189940Y-101009523D01*
X81094702Y-101104761D01*
X80999464Y-101009523D01*
X81094702Y-100914285D01*
X81094702Y-101104761D01*
X81094702Y-99866666D02*
X81189940Y-99961904D01*
X81094702Y-100057142D01*
X80999464Y-99961904D01*
X81094702Y-99866666D01*
X81094702Y-100057142D01*
X83475654Y-99009523D02*
X81761369Y-101580952D01*
X85570892Y-99009523D02*
X83856607Y-101580952D01*
X86237559Y-101104761D02*
X86237559Y-99104761D01*
X86904226Y-100533333D01*
X87570892Y-99104761D01*
X87570892Y-101104761D01*
X89285178Y-101009523D02*
X89094702Y-101104761D01*
X88713750Y-101104761D01*
X88523273Y-101009523D01*
X88428035Y-100819047D01*
X88428035Y-100057142D01*
X88523273Y-99866666D01*
X88713750Y-99771428D01*
X89094702Y-99771428D01*
X89285178Y-99866666D01*
X89380416Y-100057142D01*
X89380416Y-100247619D01*
X88428035Y-100438095D01*
X91094702Y-101009523D02*
X90904226Y-101104761D01*
X90523273Y-101104761D01*
X90332797Y-101009523D01*
X90237559Y-100914285D01*
X90142321Y-100723809D01*
X90142321Y-100152380D01*
X90237559Y-99961904D01*
X90332797Y-99866666D01*
X90523273Y-99771428D01*
X90904226Y-99771428D01*
X91094702Y-99866666D01*
X91951845Y-101104761D02*
X91951845Y-99104761D01*
X92808988Y-101104761D02*
X92808988Y-100057142D01*
X92713750Y-99866666D01*
X92523273Y-99771428D01*
X92237559Y-99771428D01*
X92047083Y-99866666D01*
X91951845Y-99961904D01*
X93761369Y-101104761D02*
X93761369Y-99104761D01*
X93761369Y-99866666D02*
X93951845Y-99771428D01*
X94332797Y-99771428D01*
X94523273Y-99866666D01*
X94618511Y-99961904D01*
X94713750Y-100152380D01*
X94713750Y-100723809D01*
X94618511Y-100914285D01*
X94523273Y-101009523D01*
X94332797Y-101104761D01*
X93951845Y-101104761D01*
X93761369Y-101009523D01*
X95856607Y-101104761D02*
X95666130Y-101009523D01*
X95570892Y-100914285D01*
X95475654Y-100723809D01*
X95475654Y-100152380D01*
X95570892Y-99961904D01*
X95666130Y-99866666D01*
X95856607Y-99771428D01*
X96142321Y-99771428D01*
X96332797Y-99866666D01*
X96428035Y-99961904D01*
X96523273Y-100152380D01*
X96523273Y-100723809D01*
X96428035Y-100914285D01*
X96332797Y-101009523D01*
X96142321Y-101104761D01*
X95856607Y-101104761D01*
X98237559Y-101104761D02*
X98237559Y-100057142D01*
X98142321Y-99866666D01*
X97951845Y-99771428D01*
X97570892Y-99771428D01*
X97380416Y-99866666D01*
X98237559Y-101009523D02*
X98047083Y-101104761D01*
X97570892Y-101104761D01*
X97380416Y-101009523D01*
X97285178Y-100819047D01*
X97285178Y-100628571D01*
X97380416Y-100438095D01*
X97570892Y-100342857D01*
X98047083Y-100342857D01*
X98237559Y-100247619D01*
X99189940Y-101104761D02*
X99189940Y-99771428D01*
X99189940Y-100152380D02*
X99285178Y-99961904D01*
X99380416Y-99866666D01*
X99570892Y-99771428D01*
X99761369Y-99771428D01*
X101285178Y-101104761D02*
X101285178Y-99104761D01*
X101285178Y-101009523D02*
X101094702Y-101104761D01*
X100713750Y-101104761D01*
X100523273Y-101009523D01*
X100428035Y-100914285D01*
X100332797Y-100723809D01*
X100332797Y-100152380D01*
X100428035Y-99961904D01*
X100523273Y-99866666D01*
X100713750Y-99771428D01*
X101094702Y-99771428D01*
X101285178Y-99866666D01*
X102142321Y-101009523D02*
X102332797Y-101104761D01*
X102713750Y-101104761D01*
X102904226Y-101009523D01*
X102999464Y-100819047D01*
X102999464Y-100723809D01*
X102904226Y-100533333D01*
X102713750Y-100438095D01*
X102428035Y-100438095D01*
X102237559Y-100342857D01*
X102142321Y-100152380D01*
X102142321Y-100057142D01*
X102237559Y-99866666D01*
X102428035Y-99771428D01*
X102713750Y-99771428D01*
X102904226Y-99866666D01*
X103856607Y-100914285D02*
X103951845Y-101009523D01*
X103856607Y-101104761D01*
X103761369Y-101009523D01*
X103856607Y-100914285D01*
X103856607Y-101104761D01*
X105666130Y-101009523D02*
X105475654Y-101104761D01*
X105094702Y-101104761D01*
X104904226Y-101009523D01*
X104808988Y-100914285D01*
X104713750Y-100723809D01*
X104713750Y-100152380D01*
X104808988Y-99961904D01*
X104904226Y-99866666D01*
X105094702Y-99771428D01*
X105475654Y-99771428D01*
X105666130Y-99866666D01*
X106808988Y-101104761D02*
X106618511Y-101009523D01*
X106523273Y-100914285D01*
X106428035Y-100723809D01*
X106428035Y-100152380D01*
X106523273Y-99961904D01*
X106618511Y-99866666D01*
X106808988Y-99771428D01*
X107094702Y-99771428D01*
X107285178Y-99866666D01*
X107380416Y-99961904D01*
X107475654Y-100152380D01*
X107475654Y-100723809D01*
X107380416Y-100914285D01*
X107285178Y-101009523D01*
X107094702Y-101104761D01*
X106808988Y-101104761D01*
X108332797Y-100914285D02*
X108428035Y-101009523D01*
X108332797Y-101104761D01*
X108237559Y-101009523D01*
X108332797Y-100914285D01*
X108332797Y-101104761D01*
X110142321Y-99771428D02*
X110142321Y-101104761D01*
X109285178Y-99771428D02*
X109285178Y-100819047D01*
X109380416Y-101009523D01*
X109570892Y-101104761D01*
X109856607Y-101104761D01*
X110047083Y-101009523D01*
X110142321Y-100914285D01*
X111094702Y-101104761D02*
X111094702Y-99104761D01*
X111285178Y-100342857D02*
X111856607Y-101104761D01*
X111856607Y-99771428D02*
X111094702Y-100533333D01*
D13*
G36*
X375904488Y-149396785D02*
G01*
X376202750Y-149501396D01*
X376479351Y-149641379D01*
X376732101Y-149814512D01*
X376958812Y-150018578D01*
X377157293Y-150251358D01*
X377325355Y-150510632D01*
X377460808Y-150794180D01*
X377552733Y-151067230D01*
X377601250Y-151243583D01*
X377601250Y-156577583D01*
X377554394Y-156747433D01*
X377448288Y-157058133D01*
X377309062Y-157342762D01*
X377137701Y-157600330D01*
X376935191Y-157829846D01*
X376702516Y-158030318D01*
X376440662Y-158200755D01*
X376150614Y-158340165D01*
X375876953Y-158435195D01*
X375717417Y-158481742D01*
X367674084Y-158484378D01*
X367092407Y-158484546D01*
X366521289Y-158484664D01*
X365962198Y-158484734D01*
X365416604Y-158484758D01*
X364885975Y-158484736D01*
X364371780Y-158484669D01*
X363875489Y-158484560D01*
X363398570Y-158484408D01*
X362942493Y-158484215D01*
X362508727Y-158483982D01*
X362098740Y-158483710D01*
X361714002Y-158483401D01*
X361355982Y-158483055D01*
X361026148Y-158482674D01*
X360725971Y-158482259D01*
X360456918Y-158481810D01*
X360220460Y-158481330D01*
X360018065Y-158480819D01*
X359851201Y-158480278D01*
X359721340Y-158479709D01*
X359629948Y-158479113D01*
X359578495Y-158478490D01*
X359567250Y-158478085D01*
X359445588Y-158454514D01*
X359302249Y-158416653D01*
X359153345Y-158369293D01*
X359014989Y-158317221D01*
X358988731Y-158306113D01*
X358721265Y-158167648D01*
X358473739Y-157994043D01*
X358250035Y-157789331D01*
X358054035Y-157557541D01*
X357889623Y-157302706D01*
X357762169Y-157032666D01*
X357741695Y-156981302D01*
X357723277Y-156935543D01*
X357706809Y-156893007D01*
X357692181Y-156851312D01*
X357679285Y-156808077D01*
X357668011Y-156760919D01*
X357667387Y-156757500D01*
X358953451Y-156757500D01*
X358954139Y-156928253D01*
X358957023Y-157062901D01*
X358963294Y-157167663D01*
X358974140Y-157248754D01*
X358990752Y-157312392D01*
X359014319Y-157364794D01*
X359046030Y-157412176D01*
X359087076Y-157460756D01*
X359088263Y-157462075D01*
X359133774Y-157510375D01*
X359176818Y-157548097D01*
X359223219Y-157576472D01*
X359278800Y-157596733D01*
X359349385Y-157610111D01*
X359440797Y-157617838D01*
X359558860Y-157621148D01*
X359709397Y-157621271D01*
X359835362Y-157620141D01*
X360336307Y-157614750D01*
X360427438Y-157550658D01*
X360497158Y-157491813D01*
X360563544Y-157420496D01*
X360582659Y-157395440D01*
X360646750Y-157304312D01*
X360653672Y-156824531D01*
X360654385Y-156759656D01*
X362816334Y-156759656D01*
X362817118Y-156931537D01*
X362820176Y-157067232D01*
X362826561Y-157172872D01*
X362837328Y-157254587D01*
X362853532Y-157318506D01*
X362876226Y-157370761D01*
X362906465Y-157417480D01*
X362935725Y-157453739D01*
X362982214Y-157505099D01*
X363027201Y-157545084D01*
X363076659Y-157575101D01*
X363136563Y-157596554D01*
X363212886Y-157610850D01*
X363311604Y-157619393D01*
X363438689Y-157623589D01*
X363600116Y-157624844D01*
X363663000Y-157624851D01*
X363821442Y-157624327D01*
X363943654Y-157622807D01*
X364035740Y-157619868D01*
X364103799Y-157615084D01*
X364153932Y-157608033D01*
X364192241Y-157598288D01*
X364223917Y-157585843D01*
X364314765Y-157527358D01*
X364400499Y-157442819D01*
X364467302Y-157347274D01*
X364491237Y-157294724D01*
X364502123Y-157249183D01*
X364510224Y-157179589D01*
X364515779Y-157081525D01*
X364519026Y-156950574D01*
X364520202Y-156782319D01*
X364520216Y-156757500D01*
X366700451Y-156757500D01*
X366701139Y-156928253D01*
X366704023Y-157062901D01*
X366710294Y-157167663D01*
X366721140Y-157248754D01*
X366737752Y-157312392D01*
X366761319Y-157364794D01*
X366793030Y-157412176D01*
X366834076Y-157460756D01*
X366835263Y-157462075D01*
X366881442Y-157510742D01*
X366925668Y-157548603D01*
X366973943Y-157577014D01*
X367032267Y-157597329D01*
X367106641Y-157610903D01*
X367203066Y-157619091D01*
X367327541Y-157623247D01*
X367486067Y-157624726D01*
X367556276Y-157624868D01*
X367711902Y-157624759D01*
X367831440Y-157623767D01*
X367921131Y-157621410D01*
X367987217Y-157617205D01*
X368035942Y-157610670D01*
X368073547Y-157601324D01*
X368106274Y-157588684D01*
X368122427Y-157581139D01*
X368219199Y-157516689D01*
X368304109Y-157428079D01*
X368364892Y-157329196D01*
X368379768Y-157289662D01*
X368389482Y-157234464D01*
X368396881Y-157146901D01*
X368402004Y-157035036D01*
X368404891Y-156906933D01*
X368405582Y-156770656D01*
X368404115Y-156634268D01*
X368403352Y-156606921D01*
X370586956Y-156606921D01*
X370587513Y-156776305D01*
X370588234Y-156826484D01*
X370591623Y-156989545D01*
X370596949Y-157116825D01*
X370605735Y-157214878D01*
X370619506Y-157290253D01*
X370639783Y-157349502D01*
X370668090Y-157399177D01*
X370705951Y-157445828D01*
X370740608Y-157481851D01*
X370786249Y-157525093D01*
X370830233Y-157558672D01*
X370878513Y-157583723D01*
X370937041Y-157601385D01*
X371011770Y-157612794D01*
X371108652Y-157619087D01*
X371233641Y-157621401D01*
X371392687Y-157620874D01*
X371464651Y-157620150D01*
X371953218Y-157614750D01*
X372056758Y-157550690D01*
X372156356Y-157469296D01*
X372224357Y-157383092D01*
X372288417Y-157279554D01*
X372295144Y-156808830D01*
X372296754Y-156683783D01*
X372530797Y-156683783D01*
X372531406Y-156820507D01*
X372534403Y-156954969D01*
X372539700Y-157078527D01*
X372547211Y-157182540D01*
X372556850Y-157258368D01*
X372563999Y-157287843D01*
X372625907Y-157413879D01*
X372714337Y-157509661D01*
X372810564Y-157570228D01*
X372847721Y-157588164D01*
X372881882Y-157601714D01*
X372919505Y-157611492D01*
X372967045Y-157618113D01*
X373030959Y-157622193D01*
X373117704Y-157624346D01*
X373233736Y-157625188D01*
X373385510Y-157625333D01*
X373389084Y-157625333D01*
X373541668Y-157625196D01*
X373658375Y-157624375D01*
X373745662Y-157622255D01*
X373809985Y-157618222D01*
X373857799Y-157611659D01*
X373895562Y-157601953D01*
X373929730Y-157588488D01*
X373966758Y-157570649D01*
X373967603Y-157570228D01*
X374082090Y-157494243D01*
X374165280Y-157393473D01*
X374214168Y-157287843D01*
X374225107Y-157234281D01*
X374233973Y-157147074D01*
X374240679Y-157034861D01*
X374245140Y-156906285D01*
X374247204Y-156774054D01*
X374458465Y-156774054D01*
X374458778Y-156941601D01*
X374460832Y-157073007D01*
X374465748Y-157174459D01*
X374474647Y-157252146D01*
X374488648Y-157312254D01*
X374508871Y-157360971D01*
X374536437Y-157404485D01*
X374572466Y-157448984D01*
X374582795Y-157460838D01*
X374628733Y-157510205D01*
X374673418Y-157548610D01*
X374722827Y-157577410D01*
X374782936Y-157597962D01*
X374859719Y-157611625D01*
X374959154Y-157619756D01*
X375087215Y-157623713D01*
X375249879Y-157624854D01*
X375304667Y-157624851D01*
X375462610Y-157624346D01*
X375584340Y-157622878D01*
X375675972Y-157620013D01*
X375743622Y-157615318D01*
X375793407Y-157608360D01*
X375831443Y-157598705D01*
X375863845Y-157585921D01*
X375865584Y-157585119D01*
X375935985Y-157543038D01*
X376004394Y-157487951D01*
X376017969Y-157474459D01*
X376058673Y-157428985D01*
X376090168Y-157384824D01*
X376113624Y-157335865D01*
X376130214Y-157275999D01*
X376141108Y-157199115D01*
X376147476Y-157099104D01*
X376150492Y-156969856D01*
X376151324Y-156805261D01*
X376151334Y-156778666D01*
X376150710Y-156608416D01*
X376148062Y-156474400D01*
X376142219Y-156370526D01*
X376132013Y-156290705D01*
X376116276Y-156228845D01*
X376093838Y-156178857D01*
X376063532Y-156134647D01*
X376024188Y-156090127D01*
X376017969Y-156083603D01*
X375953681Y-156026769D01*
X375880465Y-155975697D01*
X375865584Y-155967186D01*
X375835049Y-155952002D01*
X375803054Y-155940596D01*
X375763266Y-155932432D01*
X375709352Y-155926973D01*
X375634982Y-155923683D01*
X375533822Y-155922023D01*
X375399541Y-155921457D01*
X375325834Y-155921416D01*
X375155077Y-155922117D01*
X375020425Y-155925011D01*
X374915661Y-155931290D01*
X374834568Y-155942143D01*
X374770928Y-155958759D01*
X374718525Y-155982329D01*
X374671142Y-156014042D01*
X374622562Y-156055089D01*
X374621258Y-156056262D01*
X374572457Y-156102592D01*
X374534523Y-156146985D01*
X374506090Y-156195469D01*
X374485790Y-156254070D01*
X374472256Y-156328814D01*
X374464123Y-156425728D01*
X374460023Y-156550839D01*
X374458589Y-156710173D01*
X374458465Y-156774054D01*
X374247204Y-156774054D01*
X374247268Y-156769985D01*
X374246976Y-156634604D01*
X374244179Y-156508781D01*
X374238790Y-156401158D01*
X374230721Y-156320375D01*
X374224201Y-156287076D01*
X374176299Y-156180987D01*
X374098152Y-156080489D01*
X374001117Y-155999021D01*
X373960953Y-155975489D01*
X373925468Y-155957864D01*
X373892409Y-155944556D01*
X373855365Y-155934959D01*
X373807926Y-155928466D01*
X373743681Y-155924472D01*
X373656220Y-155922369D01*
X373539133Y-155921553D01*
X373389084Y-155921416D01*
X373236656Y-155921559D01*
X373120152Y-155922393D01*
X373033160Y-155924524D01*
X372969270Y-155928558D01*
X372922071Y-155935101D01*
X372885154Y-155944759D01*
X372852108Y-155958138D01*
X372817214Y-155975489D01*
X372715919Y-156045993D01*
X372629122Y-156140727D01*
X372568178Y-156246247D01*
X372553966Y-156287076D01*
X372544159Y-156346442D01*
X372537087Y-156438109D01*
X372532661Y-156553436D01*
X372530797Y-156683783D01*
X372296754Y-156683783D01*
X372297130Y-156654582D01*
X372297807Y-156536189D01*
X372296732Y-156447184D01*
X372293462Y-156381098D01*
X372287551Y-156331462D01*
X372278557Y-156291807D01*
X372266035Y-156255666D01*
X372255430Y-156230149D01*
X372181993Y-156110293D01*
X372077436Y-156011216D01*
X371983040Y-155955810D01*
X371950554Y-155944100D01*
X371907583Y-155935285D01*
X371848250Y-155928990D01*
X371766679Y-155924843D01*
X371656993Y-155922470D01*
X371513317Y-155921497D01*
X371441750Y-155921416D01*
X371288822Y-155921618D01*
X371171812Y-155922597D01*
X371084307Y-155924914D01*
X371019894Y-155929131D01*
X370972158Y-155935808D01*
X370934686Y-155945506D01*
X370901064Y-155958786D01*
X370875516Y-155970942D01*
X370801503Y-156016797D01*
X370732548Y-156074470D01*
X370710747Y-156097942D01*
X370669787Y-156153256D01*
X370638343Y-156212142D01*
X370615376Y-156280776D01*
X370599849Y-156365332D01*
X370590721Y-156471989D01*
X370586956Y-156606921D01*
X368403352Y-156606921D01*
X368400531Y-156505833D01*
X368394868Y-156393413D01*
X368387166Y-156305073D01*
X368377465Y-156248876D01*
X368374640Y-156240574D01*
X368317025Y-156143303D01*
X368233738Y-156052784D01*
X368138725Y-155982815D01*
X368090779Y-155959695D01*
X368051438Y-155946631D01*
X368006072Y-155936848D01*
X367948197Y-155929899D01*
X367871326Y-155925335D01*
X367768974Y-155922708D01*
X367634655Y-155921570D01*
X367536500Y-155921416D01*
X367384981Y-155921668D01*
X367269456Y-155922778D01*
X367183588Y-155925280D01*
X367121041Y-155929710D01*
X367075477Y-155936600D01*
X367040558Y-155946484D01*
X367009948Y-155959896D01*
X366996473Y-155966913D01*
X366866343Y-156059889D01*
X366765848Y-156182923D01*
X366745949Y-156217472D01*
X366730857Y-156248194D01*
X366719522Y-156280507D01*
X366711409Y-156320750D01*
X366705983Y-156375259D01*
X366702711Y-156450373D01*
X366701059Y-156552429D01*
X366700494Y-156687765D01*
X366700451Y-156757500D01*
X364520216Y-156757500D01*
X364519952Y-156605967D01*
X364518831Y-156490429D01*
X364516318Y-156404548D01*
X364511881Y-156341987D01*
X364504984Y-156296408D01*
X364495095Y-156261473D01*
X364481678Y-156230846D01*
X364474718Y-156217472D01*
X364381801Y-156087369D01*
X364258756Y-155986833D01*
X364224194Y-155966913D01*
X364193485Y-155951812D01*
X364161205Y-155940470D01*
X364121015Y-155932352D01*
X364066580Y-155926926D01*
X363991561Y-155923656D01*
X363889621Y-155922010D01*
X363754423Y-155921454D01*
X363684167Y-155921416D01*
X363507321Y-155922415D01*
X363366813Y-155926294D01*
X363256676Y-155934378D01*
X363170945Y-155947992D01*
X363103653Y-155968462D01*
X363048832Y-155997112D01*
X363000518Y-156035268D01*
X362953206Y-156083740D01*
X362910525Y-156133007D01*
X362877764Y-156178678D01*
X362853617Y-156227208D01*
X362836776Y-156285050D01*
X362825934Y-156358659D01*
X362819785Y-156454489D01*
X362817022Y-156578992D01*
X362816338Y-156738624D01*
X362816334Y-156759656D01*
X360654385Y-156759656D01*
X360655605Y-156648875D01*
X360655076Y-156509618D01*
X360651068Y-156400849D01*
X360642563Y-156316659D01*
X360628543Y-156251137D01*
X360607992Y-156198373D01*
X360579892Y-156152458D01*
X360543226Y-156107480D01*
X360527195Y-156089796D01*
X360477229Y-156039138D01*
X360427880Y-155999708D01*
X360373084Y-155970122D01*
X360306781Y-155948996D01*
X360222908Y-155934947D01*
X360115402Y-155926590D01*
X359978202Y-155922543D01*
X359805246Y-155921421D01*
X359789500Y-155921416D01*
X359637981Y-155921668D01*
X359522456Y-155922778D01*
X359436588Y-155925280D01*
X359374041Y-155929710D01*
X359328477Y-155936600D01*
X359293558Y-155946484D01*
X359262948Y-155959896D01*
X359249473Y-155966913D01*
X359119343Y-156059889D01*
X359018848Y-156182923D01*
X358998949Y-156217472D01*
X358983857Y-156248194D01*
X358972522Y-156280507D01*
X358964409Y-156320750D01*
X358958983Y-156375259D01*
X358955711Y-156450373D01*
X358954059Y-156552429D01*
X358953494Y-156687765D01*
X358953451Y-156757500D01*
X357667387Y-156757500D01*
X357658253Y-156707458D01*
X357649901Y-156645310D01*
X357642847Y-156572094D01*
X357636982Y-156485429D01*
X357632197Y-156382933D01*
X357628385Y-156262224D01*
X357625437Y-156120920D01*
X357623243Y-155956639D01*
X357621696Y-155767000D01*
X357620687Y-155549621D01*
X357620108Y-155302119D01*
X357619850Y-155022114D01*
X357619804Y-154707224D01*
X357619861Y-154355083D01*
X358953417Y-154355083D01*
X358953417Y-154810166D01*
X358953870Y-154966430D01*
X358955530Y-155086878D01*
X358958851Y-155178021D01*
X358964286Y-155246368D01*
X358972289Y-155298429D01*
X358983311Y-155340717D01*
X358992061Y-155365403D01*
X359042552Y-155454927D01*
X359118262Y-155541271D01*
X359206104Y-155611704D01*
X359286052Y-155651398D01*
X359328501Y-155658324D01*
X359406209Y-155664492D01*
X359512104Y-155669578D01*
X359639114Y-155673260D01*
X359780166Y-155675214D01*
X359810667Y-155675374D01*
X359963315Y-155675635D01*
X360080121Y-155674807D01*
X360167574Y-155672399D01*
X360232161Y-155667923D01*
X360280369Y-155660889D01*
X360318686Y-155650809D01*
X360353601Y-155637193D01*
X360361000Y-155633888D01*
X360464485Y-155576338D01*
X360539312Y-155505692D01*
X360599152Y-155408521D01*
X360607011Y-155392250D01*
X360623440Y-155355459D01*
X360635811Y-155319833D01*
X360644702Y-155278844D01*
X360650689Y-155225964D01*
X360654350Y-155154666D01*
X360656261Y-155058422D01*
X360657001Y-154930706D01*
X360657127Y-154825361D01*
X360657078Y-154810716D01*
X362816786Y-154810716D01*
X362816798Y-154825361D01*
X362817268Y-154979334D01*
X362818660Y-155097404D01*
X362821481Y-155186001D01*
X362826235Y-155251555D01*
X362833425Y-155300494D01*
X362843557Y-155339249D01*
X362857134Y-155374247D01*
X362860445Y-155381666D01*
X362917995Y-155485151D01*
X362988641Y-155559978D01*
X363085812Y-155619818D01*
X363102084Y-155627677D01*
X363139683Y-155644426D01*
X363176103Y-155656949D01*
X363218075Y-155665861D01*
X363272331Y-155671778D01*
X363345603Y-155675317D01*
X363444624Y-155677092D01*
X363576126Y-155677719D01*
X363649961Y-155677793D01*
X363822609Y-155676532D01*
X363966549Y-155672696D01*
X364077893Y-155666470D01*
X364152756Y-155658035D01*
X364175089Y-155653107D01*
X364273062Y-155605909D01*
X364367012Y-155529896D01*
X364443633Y-155437555D01*
X364481606Y-155365403D01*
X364494776Y-155325939D01*
X364504638Y-155280824D01*
X364511647Y-155223548D01*
X364516255Y-155147601D01*
X364518914Y-155046472D01*
X364520080Y-154913650D01*
X364520250Y-154810166D01*
X364520250Y-154355083D01*
X366700417Y-154355083D01*
X366700417Y-154810166D01*
X366700870Y-154966430D01*
X366702530Y-155086878D01*
X366705851Y-155178021D01*
X366711286Y-155246368D01*
X366719289Y-155298429D01*
X366730311Y-155340717D01*
X366739061Y-155365403D01*
X366789552Y-155454927D01*
X366865262Y-155541271D01*
X366953104Y-155611704D01*
X367033052Y-155651398D01*
X367075501Y-155658324D01*
X367153209Y-155664492D01*
X367259104Y-155669578D01*
X367386114Y-155673260D01*
X367527166Y-155675214D01*
X367557667Y-155675374D01*
X367710315Y-155675635D01*
X367827121Y-155674807D01*
X367914574Y-155672399D01*
X367979161Y-155667923D01*
X368027369Y-155660889D01*
X368065686Y-155650809D01*
X368100601Y-155637193D01*
X368108000Y-155633888D01*
X368211485Y-155576338D01*
X368286312Y-155505692D01*
X368346152Y-155408521D01*
X368354011Y-155392250D01*
X368370440Y-155355459D01*
X368382811Y-155319833D01*
X368391702Y-155278844D01*
X368397689Y-155225964D01*
X368401350Y-155154666D01*
X368403261Y-155058422D01*
X368404001Y-154930706D01*
X368404127Y-154825361D01*
X368403827Y-154735814D01*
X370586664Y-154735814D01*
X370588234Y-154879150D01*
X370591633Y-155041969D01*
X370597109Y-155169105D01*
X370606350Y-155267209D01*
X370621047Y-155342930D01*
X370642887Y-155402917D01*
X370673561Y-155453820D01*
X370714757Y-155502289D01*
X370757270Y-155544590D01*
X370801200Y-155584775D01*
X370842878Y-155615914D01*
X370888274Y-155639088D01*
X370943359Y-155655376D01*
X371014103Y-155665855D01*
X371106476Y-155671606D01*
X371226449Y-155673708D01*
X371379993Y-155673240D01*
X371464651Y-155672448D01*
X371953218Y-155667416D01*
X372056758Y-155603357D01*
X372156353Y-155521967D01*
X372224357Y-155435760D01*
X372288417Y-155332223D01*
X372295225Y-154866551D01*
X372295812Y-154807710D01*
X374458465Y-154807710D01*
X374459529Y-154975691D01*
X374462950Y-155118452D01*
X374468523Y-155231351D01*
X374476041Y-155309745D01*
X374482160Y-155340978D01*
X374535758Y-155451492D01*
X374622190Y-155548857D01*
X374732048Y-155622706D01*
X374742250Y-155627607D01*
X374780372Y-155644382D01*
X374817212Y-155656924D01*
X374859523Y-155665849D01*
X374914059Y-155671775D01*
X374987572Y-155675317D01*
X375086815Y-155677093D01*
X375218543Y-155677720D01*
X375291628Y-155677793D01*
X375460325Y-155676570D01*
X375602555Y-155672868D01*
X375713882Y-155666896D01*
X375789873Y-155658857D01*
X375815663Y-155653434D01*
X375914760Y-155605813D01*
X376009173Y-155529133D01*
X376085010Y-155435659D01*
X376107139Y-155396093D01*
X376121561Y-155363475D01*
X376132468Y-155328975D01*
X376140346Y-155286360D01*
X376145681Y-155229398D01*
X376148958Y-155151858D01*
X376150662Y-155047505D01*
X376151280Y-154910108D01*
X376151334Y-154828806D01*
X376151203Y-154674788D01*
X376150413Y-154556727D01*
X376148364Y-154468247D01*
X376144459Y-154402972D01*
X376138099Y-154354527D01*
X376128686Y-154316535D01*
X376115622Y-154282620D01*
X376098308Y-154246406D01*
X376096307Y-154242387D01*
X376016822Y-154128837D01*
X375907466Y-154042874D01*
X375773468Y-153988415D01*
X375749999Y-153982867D01*
X375685545Y-153974582D01*
X375585441Y-153968915D01*
X375456297Y-153966067D01*
X375304729Y-153966236D01*
X375235032Y-153967274D01*
X375075581Y-153971207D01*
X374951564Y-153977401D01*
X374856083Y-153987565D01*
X374782242Y-154003412D01*
X374723143Y-154026651D01*
X374671891Y-154058994D01*
X374621588Y-154102151D01*
X374597568Y-154125413D01*
X374554760Y-154170858D01*
X374521731Y-154216056D01*
X374497223Y-154267181D01*
X374479978Y-154330406D01*
X374468736Y-154411904D01*
X374462240Y-154517848D01*
X374459231Y-154654411D01*
X374458465Y-154807710D01*
X372295812Y-154807710D01*
X372296963Y-154692438D01*
X372295768Y-154554445D01*
X372290544Y-154446400D01*
X372280192Y-154362129D01*
X372263616Y-154295461D01*
X372239720Y-154240221D01*
X372207406Y-154190237D01*
X372166112Y-154139944D01*
X372117818Y-154088325D01*
X372070708Y-154048612D01*
X372018324Y-154019126D01*
X371954211Y-153998191D01*
X371871910Y-153984130D01*
X371764963Y-153975266D01*
X371626914Y-153969921D01*
X371501203Y-153967249D01*
X371320595Y-153965364D01*
X371176154Y-153967556D01*
X371061809Y-153975062D01*
X370971489Y-153989117D01*
X370899123Y-154010957D01*
X370838641Y-154041820D01*
X370783971Y-154082940D01*
X370742693Y-154121692D01*
X370693263Y-154175644D01*
X370654940Y-154230748D01*
X370626489Y-154293068D01*
X370606672Y-154368671D01*
X370594254Y-154463619D01*
X370587997Y-154583979D01*
X370586664Y-154735814D01*
X368403827Y-154735814D01*
X368403559Y-154656034D01*
X368400895Y-154522888D01*
X368394949Y-154419782D01*
X368384532Y-154340575D01*
X368368458Y-154279123D01*
X368345541Y-154229287D01*
X368314594Y-154184923D01*
X368274430Y-154139891D01*
X368270969Y-154136270D01*
X368218855Y-154084804D01*
X368169429Y-154045499D01*
X368115884Y-154016582D01*
X368051414Y-153996281D01*
X367969211Y-153982824D01*
X367862469Y-153974440D01*
X367724381Y-153969355D01*
X367621167Y-153967104D01*
X367447235Y-153965418D01*
X367301169Y-153967323D01*
X367187461Y-153972679D01*
X367110604Y-153981344D01*
X367100319Y-153983402D01*
X366966126Y-154034272D01*
X366852683Y-154121088D01*
X366763565Y-154241102D01*
X366762572Y-154242886D01*
X366700417Y-154355083D01*
X364520250Y-154355083D01*
X364458095Y-154242886D01*
X364369320Y-154122454D01*
X364256173Y-154035185D01*
X364122230Y-153983825D01*
X364120348Y-153983402D01*
X364051180Y-153974109D01*
X363944287Y-153968099D01*
X363804162Y-153965512D01*
X363635298Y-153966488D01*
X363599500Y-153967104D01*
X363438802Y-153971041D01*
X363313627Y-153977190D01*
X363217170Y-153987324D01*
X363142623Y-154003214D01*
X363083180Y-154026632D01*
X363032033Y-154059352D01*
X362982375Y-154103144D01*
X362949698Y-154136270D01*
X362908772Y-154181612D01*
X362877161Y-154225803D01*
X362853682Y-154274983D01*
X362837149Y-154335296D01*
X362826377Y-154412883D01*
X362820183Y-154513887D01*
X362817381Y-154644451D01*
X362816786Y-154810716D01*
X360657078Y-154810716D01*
X360656559Y-154656034D01*
X360653895Y-154522888D01*
X360647949Y-154419782D01*
X360637532Y-154340575D01*
X360621458Y-154279123D01*
X360598541Y-154229287D01*
X360567594Y-154184923D01*
X360527430Y-154139891D01*
X360523969Y-154136270D01*
X360471855Y-154084804D01*
X360422429Y-154045499D01*
X360368884Y-154016582D01*
X360304414Y-153996281D01*
X360222211Y-153982824D01*
X360115469Y-153974440D01*
X359977381Y-153969355D01*
X359874167Y-153967104D01*
X359700235Y-153965418D01*
X359554169Y-153967323D01*
X359440461Y-153972679D01*
X359363604Y-153981344D01*
X359353319Y-153983402D01*
X359219126Y-154034272D01*
X359105683Y-154121088D01*
X359016565Y-154241102D01*
X359015572Y-154242886D01*
X358953417Y-154355083D01*
X357619861Y-154355083D01*
X357619862Y-154355066D01*
X357619916Y-153963259D01*
X357619917Y-153910583D01*
X357619939Y-153520378D01*
X357620026Y-153170188D01*
X357620201Y-152873416D01*
X358953512Y-152873416D01*
X358954030Y-153039142D01*
X358956301Y-153168910D01*
X358961516Y-153269095D01*
X358970866Y-153346067D01*
X358985542Y-153406200D01*
X359006735Y-153455866D01*
X359035635Y-153501439D01*
X359073433Y-153549289D01*
X359081636Y-153559066D01*
X359137499Y-153610787D01*
X359211069Y-153661111D01*
X359248885Y-153681325D01*
X359284785Y-153697598D01*
X359318671Y-153709847D01*
X359356886Y-153718555D01*
X359405771Y-153724206D01*
X359471665Y-153727283D01*
X359560910Y-153728270D01*
X359679848Y-153727651D01*
X359833568Y-153725925D01*
X360311553Y-153720083D01*
X360415092Y-153656023D01*
X360514679Y-153574641D01*
X360582691Y-153488428D01*
X360646750Y-153384892D01*
X360653201Y-152907701D01*
X360653530Y-152873416D01*
X360858417Y-152873416D01*
X360858898Y-153039079D01*
X360861137Y-153168787D01*
X360866326Y-153268919D01*
X360875657Y-153345848D01*
X360890323Y-153405953D01*
X360911516Y-153455607D01*
X360940428Y-153501189D01*
X360978252Y-153549072D01*
X360986636Y-153559066D01*
X361042499Y-153610787D01*
X361116069Y-153661111D01*
X361153885Y-153681325D01*
X361189785Y-153697598D01*
X361223671Y-153709847D01*
X361261886Y-153718555D01*
X361310771Y-153724206D01*
X361376665Y-153727283D01*
X361465910Y-153728270D01*
X361584848Y-153727651D01*
X361738568Y-153725925D01*
X362216553Y-153720083D01*
X362320092Y-153656023D01*
X362419679Y-153574641D01*
X362487691Y-153488428D01*
X362551750Y-153384892D01*
X362556589Y-153026911D01*
X362816782Y-153026911D01*
X362817486Y-153143403D01*
X362819521Y-153230493D01*
X362823498Y-153294647D01*
X362830031Y-153342331D01*
X362839731Y-153380009D01*
X362853210Y-153414149D01*
X362871079Y-153451214D01*
X362871438Y-153451935D01*
X362915806Y-153524886D01*
X362968813Y-153590137D01*
X362998395Y-153617321D01*
X363047851Y-153652364D01*
X363097009Y-153679268D01*
X363152297Y-153699101D01*
X363220141Y-153712931D01*
X363306967Y-153721826D01*
X363419201Y-153726853D01*
X363563269Y-153729082D01*
X363673584Y-153729530D01*
X363822864Y-153729542D01*
X363936528Y-153728627D01*
X364021291Y-153726191D01*
X364083870Y-153721636D01*
X364130979Y-153714366D01*
X364169336Y-153703784D01*
X364205655Y-153689293D01*
X364224782Y-153680567D01*
X364298973Y-153637668D01*
X364366808Y-153584865D01*
X364392031Y-153559066D01*
X364431703Y-153510010D01*
X364462234Y-153464481D01*
X364484817Y-153416104D01*
X364500644Y-153358501D01*
X364510907Y-153285298D01*
X364516799Y-153190117D01*
X364519512Y-153066584D01*
X364520238Y-152908321D01*
X364520250Y-152873416D01*
X364795417Y-152873416D01*
X364795611Y-153030170D01*
X364796527Y-153150678D01*
X364798665Y-153241024D01*
X364802525Y-153307297D01*
X364808609Y-153355580D01*
X364817417Y-153391961D01*
X364829448Y-153422526D01*
X364842728Y-153448749D01*
X364908049Y-153540698D01*
X364996072Y-153624510D01*
X365091656Y-153686688D01*
X365126402Y-153701686D01*
X365175596Y-153711347D01*
X365258749Y-153719007D01*
X365367533Y-153724639D01*
X365493621Y-153728217D01*
X365628684Y-153729714D01*
X365764395Y-153729104D01*
X365892425Y-153726361D01*
X366004446Y-153721457D01*
X366092130Y-153714367D01*
X366147150Y-153705065D01*
X366147628Y-153704925D01*
X366227132Y-153666290D01*
X366315928Y-153597316D01*
X366343522Y-153571076D01*
X366391790Y-153519738D01*
X366429334Y-153469133D01*
X366457352Y-153413274D01*
X366477044Y-153346170D01*
X366489609Y-153261834D01*
X366496246Y-153154275D01*
X366498155Y-153017506D01*
X366496798Y-152873416D01*
X366700417Y-152873416D01*
X366700898Y-153039079D01*
X366703137Y-153168787D01*
X366708326Y-153268919D01*
X366717657Y-153345848D01*
X366732323Y-153405953D01*
X366753516Y-153455607D01*
X366782428Y-153501189D01*
X366820252Y-153549072D01*
X366828636Y-153559066D01*
X366884499Y-153610787D01*
X366958069Y-153661111D01*
X366995885Y-153681325D01*
X367031785Y-153697598D01*
X367065671Y-153709847D01*
X367103886Y-153718555D01*
X367152771Y-153724206D01*
X367218665Y-153727283D01*
X367307910Y-153728270D01*
X367426848Y-153727651D01*
X367580568Y-153725925D01*
X368058553Y-153720083D01*
X368162092Y-153656023D01*
X368261679Y-153574641D01*
X368329691Y-153488428D01*
X368393750Y-153384892D01*
X368400201Y-152907701D01*
X368400530Y-152873416D01*
X370595084Y-152873416D01*
X370595278Y-153030170D01*
X370596193Y-153150678D01*
X370598331Y-153241024D01*
X370602192Y-153307297D01*
X370608276Y-153355580D01*
X370617083Y-153391961D01*
X370629115Y-153422526D01*
X370642394Y-153448749D01*
X370708272Y-153541299D01*
X370797288Y-153625802D01*
X370894033Y-153688479D01*
X370926068Y-153702414D01*
X370969114Y-153712133D01*
X371040571Y-153719076D01*
X371143846Y-153723379D01*
X371282345Y-153725181D01*
X371459474Y-153724617D01*
X371473500Y-153724492D01*
X371633221Y-153722579D01*
X371756321Y-153719890D01*
X371848510Y-153716002D01*
X371915499Y-153710494D01*
X371962999Y-153702942D01*
X371996720Y-153692925D01*
X372014753Y-153684457D01*
X372105973Y-153618337D01*
X372188842Y-153529784D01*
X372250302Y-153433816D01*
X372266639Y-153394767D01*
X372278130Y-153338039D01*
X372287318Y-153247740D01*
X372294135Y-153132575D01*
X372298516Y-153001248D01*
X372300245Y-152873416D01*
X372542417Y-152873416D01*
X372542611Y-153030170D01*
X372543527Y-153150678D01*
X372545665Y-153241024D01*
X372549525Y-153307297D01*
X372555609Y-153355580D01*
X372564417Y-153391961D01*
X372576448Y-153422526D01*
X372589728Y-153448749D01*
X372655049Y-153540698D01*
X372743072Y-153624510D01*
X372838656Y-153686688D01*
X372873402Y-153701686D01*
X372922596Y-153711347D01*
X373005749Y-153719007D01*
X373114533Y-153724639D01*
X373240621Y-153728217D01*
X373375684Y-153729714D01*
X373511395Y-153729104D01*
X373639425Y-153726361D01*
X373751446Y-153721457D01*
X373839130Y-153714367D01*
X373894150Y-153705065D01*
X373894628Y-153704925D01*
X373974132Y-153666290D01*
X374062928Y-153597316D01*
X374090522Y-153571076D01*
X374138790Y-153519738D01*
X374176334Y-153469133D01*
X374204352Y-153413274D01*
X374224044Y-153346170D01*
X374236609Y-153261834D01*
X374243246Y-153154275D01*
X374245155Y-153017506D01*
X374243798Y-152873416D01*
X374458000Y-152873416D01*
X374458137Y-153026001D01*
X374458958Y-153142708D01*
X374461078Y-153229995D01*
X374465111Y-153294317D01*
X374471674Y-153342132D01*
X374481380Y-153379895D01*
X374494845Y-153414062D01*
X374512684Y-153451091D01*
X374513105Y-153451935D01*
X374557473Y-153524886D01*
X374610480Y-153590137D01*
X374640062Y-153617321D01*
X374689517Y-153652364D01*
X374738676Y-153679268D01*
X374793964Y-153699101D01*
X374861808Y-153712931D01*
X374948633Y-153721826D01*
X375060867Y-153726853D01*
X375204936Y-153729082D01*
X375315250Y-153729530D01*
X375464530Y-153729542D01*
X375578194Y-153728627D01*
X375662958Y-153726191D01*
X375725536Y-153721636D01*
X375772646Y-153714366D01*
X375811002Y-153703784D01*
X375847322Y-153689293D01*
X375866448Y-153680567D01*
X375984340Y-153604601D01*
X376077592Y-153501548D01*
X376122791Y-153419138D01*
X376132969Y-153381860D01*
X376140651Y-153322001D01*
X376146063Y-153235192D01*
X376149429Y-153117064D01*
X376150975Y-152963245D01*
X376151135Y-152868804D01*
X376150936Y-152386583D01*
X376088301Y-152277373D01*
X376038695Y-152200280D01*
X375984717Y-152139607D01*
X375920791Y-152093494D01*
X375841338Y-152060081D01*
X375740781Y-152037511D01*
X375613543Y-152023923D01*
X375454045Y-152017459D01*
X375304667Y-152016166D01*
X375135028Y-152017498D01*
X375001016Y-152022263D01*
X374895983Y-152031618D01*
X374813285Y-152046718D01*
X374746275Y-152068720D01*
X374688307Y-152098780D01*
X374641105Y-152131586D01*
X374587595Y-152184852D01*
X374534929Y-152256758D01*
X374511951Y-152297212D01*
X374494379Y-152333764D01*
X374481107Y-152367753D01*
X374471531Y-152405620D01*
X374465050Y-152453806D01*
X374461059Y-152518751D01*
X374458956Y-152606898D01*
X374458137Y-152724686D01*
X374458000Y-152873416D01*
X374243798Y-152873416D01*
X374243535Y-152845537D01*
X374242954Y-152809916D01*
X374240118Y-152663405D01*
X374236818Y-152552561D01*
X374232359Y-152470719D01*
X374226047Y-152411213D01*
X374217189Y-152367377D01*
X374205089Y-152332546D01*
X374190064Y-152301916D01*
X374100028Y-152178883D01*
X373978534Y-152082379D01*
X373950000Y-152066208D01*
X373922101Y-152053383D01*
X373888944Y-152043647D01*
X373844627Y-152036585D01*
X373783246Y-152031782D01*
X373698901Y-152028822D01*
X373585687Y-152027289D01*
X373437704Y-152026770D01*
X373389084Y-152026750D01*
X373232064Y-152026963D01*
X373111329Y-152027924D01*
X373020828Y-152030117D01*
X372954513Y-152034026D01*
X372906336Y-152040135D01*
X372870248Y-152048925D01*
X372840199Y-152060882D01*
X372817584Y-152072436D01*
X372694550Y-152162472D01*
X372598047Y-152283965D01*
X372581875Y-152312500D01*
X372569050Y-152340399D01*
X372559315Y-152373556D01*
X372552253Y-152417873D01*
X372547449Y-152479253D01*
X372544489Y-152563599D01*
X372542957Y-152676812D01*
X372542437Y-152824796D01*
X372542417Y-152873416D01*
X372300245Y-152873416D01*
X372300394Y-152862463D01*
X372299702Y-152724923D01*
X372296373Y-152597332D01*
X372290343Y-152488395D01*
X372281544Y-152406815D01*
X372274435Y-152373003D01*
X372229338Y-152278538D01*
X372156045Y-152184664D01*
X372066547Y-152105285D01*
X372016268Y-152073644D01*
X371986022Y-152058574D01*
X371954985Y-152047127D01*
X371917077Y-152038807D01*
X371866219Y-152033119D01*
X371796333Y-152029565D01*
X371701339Y-152027651D01*
X371575158Y-152026878D01*
X371441750Y-152026750D01*
X371284731Y-152026963D01*
X371163995Y-152027924D01*
X371073495Y-152030117D01*
X371007180Y-152034026D01*
X370959003Y-152040135D01*
X370922914Y-152048925D01*
X370892865Y-152060882D01*
X370870250Y-152072436D01*
X370747217Y-152162472D01*
X370650713Y-152283965D01*
X370634542Y-152312500D01*
X370621717Y-152340399D01*
X370611981Y-152373556D01*
X370604919Y-152417873D01*
X370600116Y-152479253D01*
X370597156Y-152563599D01*
X370595623Y-152676812D01*
X370595104Y-152824796D01*
X370595084Y-152873416D01*
X368400530Y-152873416D01*
X368401887Y-152732280D01*
X368400863Y-152593157D01*
X368395931Y-152484324D01*
X368385895Y-152399774D01*
X368369561Y-152333497D01*
X368345732Y-152279487D01*
X368313212Y-152231734D01*
X368270805Y-152184231D01*
X368252497Y-152165644D01*
X368200999Y-152119010D01*
X368147139Y-152083009D01*
X368084695Y-152056323D01*
X368007448Y-152037634D01*
X367909178Y-152025624D01*
X367783665Y-152018976D01*
X367624690Y-152016371D01*
X367547012Y-152016166D01*
X367378818Y-152017363D01*
X367246239Y-152021800D01*
X367142604Y-152030744D01*
X367061242Y-152045463D01*
X366995480Y-152067225D01*
X366938648Y-152097299D01*
X366884073Y-152136951D01*
X366875757Y-152143731D01*
X366819557Y-152202266D01*
X366766886Y-152276476D01*
X366749942Y-152307182D01*
X366733721Y-152342017D01*
X366721488Y-152376063D01*
X366712682Y-152415733D01*
X366706742Y-152467442D01*
X366703107Y-152537603D01*
X366701217Y-152632630D01*
X366700509Y-152758938D01*
X366700417Y-152873416D01*
X366496798Y-152873416D01*
X366496535Y-152845537D01*
X366495954Y-152809916D01*
X366493118Y-152663405D01*
X366489818Y-152552561D01*
X366485359Y-152470719D01*
X366479047Y-152411213D01*
X366470189Y-152367377D01*
X366458089Y-152332546D01*
X366443064Y-152301916D01*
X366353028Y-152178883D01*
X366231534Y-152082379D01*
X366203000Y-152066208D01*
X366175101Y-152053383D01*
X366141944Y-152043647D01*
X366097627Y-152036585D01*
X366036246Y-152031782D01*
X365951901Y-152028822D01*
X365838687Y-152027289D01*
X365690704Y-152026770D01*
X365642084Y-152026750D01*
X365485064Y-152026963D01*
X365364329Y-152027924D01*
X365273828Y-152030117D01*
X365207513Y-152034026D01*
X365159336Y-152040135D01*
X365123248Y-152048925D01*
X365093199Y-152060882D01*
X365070584Y-152072436D01*
X364947550Y-152162472D01*
X364851047Y-152283965D01*
X364834875Y-152312500D01*
X364822050Y-152340399D01*
X364812315Y-152373556D01*
X364805253Y-152417873D01*
X364800449Y-152479253D01*
X364797489Y-152563599D01*
X364795957Y-152676812D01*
X364795437Y-152824796D01*
X364795417Y-152873416D01*
X364520250Y-152873416D01*
X364520048Y-152720488D01*
X364519069Y-152603478D01*
X364516752Y-152515973D01*
X364512536Y-152451560D01*
X364505859Y-152403824D01*
X364496160Y-152366352D01*
X364482880Y-152332730D01*
X364470725Y-152307182D01*
X364425220Y-152233588D01*
X364368277Y-152165394D01*
X364344910Y-152143731D01*
X364290102Y-152102549D01*
X364234026Y-152071134D01*
X364170012Y-152048218D01*
X364091388Y-152032533D01*
X363991481Y-152022812D01*
X363863620Y-152017786D01*
X363701134Y-152016189D01*
X363673655Y-152016166D01*
X363498455Y-152017545D01*
X363359344Y-152022514D01*
X363250140Y-152032321D01*
X363164663Y-152048216D01*
X363096732Y-152071447D01*
X363040167Y-152103261D01*
X362988788Y-152144909D01*
X362975906Y-152157123D01*
X362927855Y-152206205D01*
X362890590Y-152252870D01*
X362862742Y-152303289D01*
X362842944Y-152363629D01*
X362829826Y-152440062D01*
X362822022Y-152538755D01*
X362818161Y-152665880D01*
X362816878Y-152827604D01*
X362816798Y-152874552D01*
X362816782Y-153026911D01*
X362556589Y-153026911D01*
X362558201Y-152907701D01*
X362559857Y-152732344D01*
X362558822Y-152593354D01*
X362554018Y-152484794D01*
X362544370Y-152400728D01*
X362528799Y-152335219D01*
X362506231Y-152282333D01*
X362475587Y-152236132D01*
X362435791Y-152190680D01*
X362426363Y-152180873D01*
X362377381Y-152133033D01*
X362330731Y-152096184D01*
X362279967Y-152068787D01*
X362218641Y-152049303D01*
X362140308Y-152036193D01*
X362038520Y-152027917D01*
X361906830Y-152022938D01*
X361752217Y-152019920D01*
X361594545Y-152018078D01*
X361472678Y-152018286D01*
X361380121Y-152020865D01*
X361310380Y-152026135D01*
X361256963Y-152034414D01*
X361213374Y-152046024D01*
X361211797Y-152046544D01*
X361079955Y-152111205D01*
X360973263Y-152207096D01*
X360907942Y-152307182D01*
X360891721Y-152342017D01*
X360879488Y-152376063D01*
X360870682Y-152415733D01*
X360864742Y-152467442D01*
X360861107Y-152537603D01*
X360859217Y-152632630D01*
X360858509Y-152758938D01*
X360858417Y-152873416D01*
X360653530Y-152873416D01*
X360654887Y-152732280D01*
X360653863Y-152593157D01*
X360648931Y-152484324D01*
X360638895Y-152399774D01*
X360622561Y-152333497D01*
X360598732Y-152279487D01*
X360566212Y-152231734D01*
X360523805Y-152184231D01*
X360505497Y-152165644D01*
X360453999Y-152119010D01*
X360400139Y-152083009D01*
X360337695Y-152056323D01*
X360260448Y-152037634D01*
X360162178Y-152025624D01*
X360036665Y-152018976D01*
X359877690Y-152016371D01*
X359800012Y-152016166D01*
X359631818Y-152017363D01*
X359499239Y-152021800D01*
X359395604Y-152030744D01*
X359314242Y-152045463D01*
X359248480Y-152067225D01*
X359191648Y-152097299D01*
X359137073Y-152136951D01*
X359128757Y-152143731D01*
X359072557Y-152202266D01*
X359019886Y-152276476D01*
X359002942Y-152307182D01*
X358986722Y-152342010D01*
X358974492Y-152376038D01*
X358965690Y-152415680D01*
X358959758Y-152467348D01*
X358956136Y-152537457D01*
X358954263Y-152632419D01*
X358953581Y-152758650D01*
X358953512Y-152873416D01*
X357620201Y-152873416D01*
X357620211Y-152857692D01*
X357620529Y-152580572D01*
X357621011Y-152336508D01*
X357621691Y-152123182D01*
X357622601Y-151938274D01*
X357623776Y-151779464D01*
X357625248Y-151644435D01*
X357627050Y-151530865D01*
X357629216Y-151436437D01*
X357631777Y-151358831D01*
X357634769Y-151295727D01*
X357638222Y-151244807D01*
X357642172Y-151203752D01*
X357646650Y-151170241D01*
X357651690Y-151141957D01*
X357657325Y-151116579D01*
X357659935Y-151106000D01*
X357717590Y-150926083D01*
X370595084Y-150926083D01*
X370595393Y-151084893D01*
X370596599Y-151207275D01*
X370599116Y-151299132D01*
X370603360Y-151366366D01*
X370609746Y-151414879D01*
X370618689Y-151450574D01*
X370630604Y-151479354D01*
X370634542Y-151487000D01*
X370724068Y-151614173D01*
X370839751Y-151708114D01*
X370965363Y-151764294D01*
X371001805Y-151769121D01*
X371073478Y-151773010D01*
X371173284Y-151775787D01*
X371294128Y-151777272D01*
X371428913Y-151777290D01*
X371473500Y-151776960D01*
X371625087Y-151775301D01*
X371740715Y-151773101D01*
X371826759Y-151769761D01*
X371889593Y-151764679D01*
X371935591Y-151757255D01*
X371971129Y-151746890D01*
X372002580Y-151732983D01*
X372016268Y-151725855D01*
X372109508Y-151659910D01*
X372192946Y-151572046D01*
X372254591Y-151476167D01*
X372274435Y-151426496D01*
X372283570Y-151372827D01*
X372290812Y-151281982D01*
X372295911Y-151159086D01*
X372298620Y-151009264D01*
X372299000Y-150920997D01*
X372298001Y-150751040D01*
X372294066Y-150616971D01*
X372285793Y-150512373D01*
X372271775Y-150430828D01*
X372250610Y-150365918D01*
X372220892Y-150311227D01*
X372181218Y-150260335D01*
X372146270Y-150223024D01*
X372096371Y-150175747D01*
X372046601Y-150139157D01*
X371990767Y-150111919D01*
X371922678Y-150092701D01*
X371836144Y-150080168D01*
X371724972Y-150072986D01*
X371582972Y-150069823D01*
X371432688Y-150069298D01*
X371283124Y-150069814D01*
X371169193Y-150071368D01*
X371084199Y-150074509D01*
X371021444Y-150079788D01*
X370974232Y-150087754D01*
X370935866Y-150098958D01*
X370902000Y-150112879D01*
X370773135Y-150191766D01*
X370674497Y-150299309D01*
X370640770Y-150354583D01*
X370626072Y-150384092D01*
X370614909Y-150415025D01*
X370606797Y-150453431D01*
X370601254Y-150505358D01*
X370597795Y-150576856D01*
X370595937Y-150673972D01*
X370595196Y-150802757D01*
X370595084Y-150926083D01*
X357717590Y-150926083D01*
X357757821Y-150800543D01*
X357890907Y-150517127D01*
X358057139Y-150257864D01*
X358254463Y-150024868D01*
X358480825Y-149820249D01*
X358734171Y-149646121D01*
X359012446Y-149504596D01*
X359313597Y-149397786D01*
X359323834Y-149394896D01*
X359524917Y-149338583D01*
X375696250Y-149338583D01*
X375904488Y-149396785D01*
G37*
X375904488Y-149396785D02*
X376202750Y-149501396D01*
X376479351Y-149641379D01*
X376732101Y-149814512D01*
X376958812Y-150018578D01*
X377157293Y-150251358D01*
X377325355Y-150510632D01*
X377460808Y-150794180D01*
X377552733Y-151067230D01*
X377601250Y-151243583D01*
X377601250Y-156577583D01*
X377554394Y-156747433D01*
X377448288Y-157058133D01*
X377309062Y-157342762D01*
X377137701Y-157600330D01*
X376935191Y-157829846D01*
X376702516Y-158030318D01*
X376440662Y-158200755D01*
X376150614Y-158340165D01*
X375876953Y-158435195D01*
X375717417Y-158481742D01*
X367674084Y-158484378D01*
X367092407Y-158484546D01*
X366521289Y-158484664D01*
X365962198Y-158484734D01*
X365416604Y-158484758D01*
X364885975Y-158484736D01*
X364371780Y-158484669D01*
X363875489Y-158484560D01*
X363398570Y-158484408D01*
X362942493Y-158484215D01*
X362508727Y-158483982D01*
X362098740Y-158483710D01*
X361714002Y-158483401D01*
X361355982Y-158483055D01*
X361026148Y-158482674D01*
X360725971Y-158482259D01*
X360456918Y-158481810D01*
X360220460Y-158481330D01*
X360018065Y-158480819D01*
X359851201Y-158480278D01*
X359721340Y-158479709D01*
X359629948Y-158479113D01*
X359578495Y-158478490D01*
X359567250Y-158478085D01*
X359445588Y-158454514D01*
X359302249Y-158416653D01*
X359153345Y-158369293D01*
X359014989Y-158317221D01*
X358988731Y-158306113D01*
X358721265Y-158167648D01*
X358473739Y-157994043D01*
X358250035Y-157789331D01*
X358054035Y-157557541D01*
X357889623Y-157302706D01*
X357762169Y-157032666D01*
X357741695Y-156981302D01*
X357723277Y-156935543D01*
X357706809Y-156893007D01*
X357692181Y-156851312D01*
X357679285Y-156808077D01*
X357668011Y-156760919D01*
X357667387Y-156757500D01*
X358953451Y-156757500D01*
X358954139Y-156928253D01*
X358957023Y-157062901D01*
X358963294Y-157167663D01*
X358974140Y-157248754D01*
X358990752Y-157312392D01*
X359014319Y-157364794D01*
X359046030Y-157412176D01*
X359087076Y-157460756D01*
X359088263Y-157462075D01*
X359133774Y-157510375D01*
X359176818Y-157548097D01*
X359223219Y-157576472D01*
X359278800Y-157596733D01*
X359349385Y-157610111D01*
X359440797Y-157617838D01*
X359558860Y-157621148D01*
X359709397Y-157621271D01*
X359835362Y-157620141D01*
X360336307Y-157614750D01*
X360427438Y-157550658D01*
X360497158Y-157491813D01*
X360563544Y-157420496D01*
X360582659Y-157395440D01*
X360646750Y-157304312D01*
X360653672Y-156824531D01*
X360654385Y-156759656D01*
X362816334Y-156759656D01*
X362817118Y-156931537D01*
X362820176Y-157067232D01*
X362826561Y-157172872D01*
X362837328Y-157254587D01*
X362853532Y-157318506D01*
X362876226Y-157370761D01*
X362906465Y-157417480D01*
X362935725Y-157453739D01*
X362982214Y-157505099D01*
X363027201Y-157545084D01*
X363076659Y-157575101D01*
X363136563Y-157596554D01*
X363212886Y-157610850D01*
X363311604Y-157619393D01*
X363438689Y-157623589D01*
X363600116Y-157624844D01*
X363663000Y-157624851D01*
X363821442Y-157624327D01*
X363943654Y-157622807D01*
X364035740Y-157619868D01*
X364103799Y-157615084D01*
X364153932Y-157608033D01*
X364192241Y-157598288D01*
X364223917Y-157585843D01*
X364314765Y-157527358D01*
X364400499Y-157442819D01*
X364467302Y-157347274D01*
X364491237Y-157294724D01*
X364502123Y-157249183D01*
X364510224Y-157179589D01*
X364515779Y-157081525D01*
X364519026Y-156950574D01*
X364520202Y-156782319D01*
X364520216Y-156757500D01*
X366700451Y-156757500D01*
X366701139Y-156928253D01*
X366704023Y-157062901D01*
X366710294Y-157167663D01*
X366721140Y-157248754D01*
X366737752Y-157312392D01*
X366761319Y-157364794D01*
X366793030Y-157412176D01*
X366834076Y-157460756D01*
X366835263Y-157462075D01*
X366881442Y-157510742D01*
X366925668Y-157548603D01*
X366973943Y-157577014D01*
X367032267Y-157597329D01*
X367106641Y-157610903D01*
X367203066Y-157619091D01*
X367327541Y-157623247D01*
X367486067Y-157624726D01*
X367556276Y-157624868D01*
X367711902Y-157624759D01*
X367831440Y-157623767D01*
X367921131Y-157621410D01*
X367987217Y-157617205D01*
X368035942Y-157610670D01*
X368073547Y-157601324D01*
X368106274Y-157588684D01*
X368122427Y-157581139D01*
X368219199Y-157516689D01*
X368304109Y-157428079D01*
X368364892Y-157329196D01*
X368379768Y-157289662D01*
X368389482Y-157234464D01*
X368396881Y-157146901D01*
X368402004Y-157035036D01*
X368404891Y-156906933D01*
X368405582Y-156770656D01*
X368404115Y-156634268D01*
X368403352Y-156606921D01*
X370586956Y-156606921D01*
X370587513Y-156776305D01*
X370588234Y-156826484D01*
X370591623Y-156989545D01*
X370596949Y-157116825D01*
X370605735Y-157214878D01*
X370619506Y-157290253D01*
X370639783Y-157349502D01*
X370668090Y-157399177D01*
X370705951Y-157445828D01*
X370740608Y-157481851D01*
X370786249Y-157525093D01*
X370830233Y-157558672D01*
X370878513Y-157583723D01*
X370937041Y-157601385D01*
X371011770Y-157612794D01*
X371108652Y-157619087D01*
X371233641Y-157621401D01*
X371392687Y-157620874D01*
X371464651Y-157620150D01*
X371953218Y-157614750D01*
X372056758Y-157550690D01*
X372156356Y-157469296D01*
X372224357Y-157383092D01*
X372288417Y-157279554D01*
X372295144Y-156808830D01*
X372296754Y-156683783D01*
X372530797Y-156683783D01*
X372531406Y-156820507D01*
X372534403Y-156954969D01*
X372539700Y-157078527D01*
X372547211Y-157182540D01*
X372556850Y-157258368D01*
X372563999Y-157287843D01*
X372625907Y-157413879D01*
X372714337Y-157509661D01*
X372810564Y-157570228D01*
X372847721Y-157588164D01*
X372881882Y-157601714D01*
X372919505Y-157611492D01*
X372967045Y-157618113D01*
X373030959Y-157622193D01*
X373117704Y-157624346D01*
X373233736Y-157625188D01*
X373385510Y-157625333D01*
X373389084Y-157625333D01*
X373541668Y-157625196D01*
X373658375Y-157624375D01*
X373745662Y-157622255D01*
X373809985Y-157618222D01*
X373857799Y-157611659D01*
X373895562Y-157601953D01*
X373929730Y-157588488D01*
X373966758Y-157570649D01*
X373967603Y-157570228D01*
X374082090Y-157494243D01*
X374165280Y-157393473D01*
X374214168Y-157287843D01*
X374225107Y-157234281D01*
X374233973Y-157147074D01*
X374240679Y-157034861D01*
X374245140Y-156906285D01*
X374247204Y-156774054D01*
X374458465Y-156774054D01*
X374458778Y-156941601D01*
X374460832Y-157073007D01*
X374465748Y-157174459D01*
X374474647Y-157252146D01*
X374488648Y-157312254D01*
X374508871Y-157360971D01*
X374536437Y-157404485D01*
X374572466Y-157448984D01*
X374582795Y-157460838D01*
X374628733Y-157510205D01*
X374673418Y-157548610D01*
X374722827Y-157577410D01*
X374782936Y-157597962D01*
X374859719Y-157611625D01*
X374959154Y-157619756D01*
X375087215Y-157623713D01*
X375249879Y-157624854D01*
X375304667Y-157624851D01*
X375462610Y-157624346D01*
X375584340Y-157622878D01*
X375675972Y-157620013D01*
X375743622Y-157615318D01*
X375793407Y-157608360D01*
X375831443Y-157598705D01*
X375863845Y-157585921D01*
X375865584Y-157585119D01*
X375935985Y-157543038D01*
X376004394Y-157487951D01*
X376017969Y-157474459D01*
X376058673Y-157428985D01*
X376090168Y-157384824D01*
X376113624Y-157335865D01*
X376130214Y-157275999D01*
X376141108Y-157199115D01*
X376147476Y-157099104D01*
X376150492Y-156969856D01*
X376151324Y-156805261D01*
X376151334Y-156778666D01*
X376150710Y-156608416D01*
X376148062Y-156474400D01*
X376142219Y-156370526D01*
X376132013Y-156290705D01*
X376116276Y-156228845D01*
X376093838Y-156178857D01*
X376063532Y-156134647D01*
X376024188Y-156090127D01*
X376017969Y-156083603D01*
X375953681Y-156026769D01*
X375880465Y-155975697D01*
X375865584Y-155967186D01*
X375835049Y-155952002D01*
X375803054Y-155940596D01*
X375763266Y-155932432D01*
X375709352Y-155926973D01*
X375634982Y-155923683D01*
X375533822Y-155922023D01*
X375399541Y-155921457D01*
X375325834Y-155921416D01*
X375155077Y-155922117D01*
X375020425Y-155925011D01*
X374915661Y-155931290D01*
X374834568Y-155942143D01*
X374770928Y-155958759D01*
X374718525Y-155982329D01*
X374671142Y-156014042D01*
X374622562Y-156055089D01*
X374621258Y-156056262D01*
X374572457Y-156102592D01*
X374534523Y-156146985D01*
X374506090Y-156195469D01*
X374485790Y-156254070D01*
X374472256Y-156328814D01*
X374464123Y-156425728D01*
X374460023Y-156550839D01*
X374458589Y-156710173D01*
X374458465Y-156774054D01*
X374247204Y-156774054D01*
X374247268Y-156769985D01*
X374246976Y-156634604D01*
X374244179Y-156508781D01*
X374238790Y-156401158D01*
X374230721Y-156320375D01*
X374224201Y-156287076D01*
X374176299Y-156180987D01*
X374098152Y-156080489D01*
X374001117Y-155999021D01*
X373960953Y-155975489D01*
X373925468Y-155957864D01*
X373892409Y-155944556D01*
X373855365Y-155934959D01*
X373807926Y-155928466D01*
X373743681Y-155924472D01*
X373656220Y-155922369D01*
X373539133Y-155921553D01*
X373389084Y-155921416D01*
X373236656Y-155921559D01*
X373120152Y-155922393D01*
X373033160Y-155924524D01*
X372969270Y-155928558D01*
X372922071Y-155935101D01*
X372885154Y-155944759D01*
X372852108Y-155958138D01*
X372817214Y-155975489D01*
X372715919Y-156045993D01*
X372629122Y-156140727D01*
X372568178Y-156246247D01*
X372553966Y-156287076D01*
X372544159Y-156346442D01*
X372537087Y-156438109D01*
X372532661Y-156553436D01*
X372530797Y-156683783D01*
X372296754Y-156683783D01*
X372297130Y-156654582D01*
X372297807Y-156536189D01*
X372296732Y-156447184D01*
X372293462Y-156381098D01*
X372287551Y-156331462D01*
X372278557Y-156291807D01*
X372266035Y-156255666D01*
X372255430Y-156230149D01*
X372181993Y-156110293D01*
X372077436Y-156011216D01*
X371983040Y-155955810D01*
X371950554Y-155944100D01*
X371907583Y-155935285D01*
X371848250Y-155928990D01*
X371766679Y-155924843D01*
X371656993Y-155922470D01*
X371513317Y-155921497D01*
X371441750Y-155921416D01*
X371288822Y-155921618D01*
X371171812Y-155922597D01*
X371084307Y-155924914D01*
X371019894Y-155929131D01*
X370972158Y-155935808D01*
X370934686Y-155945506D01*
X370901064Y-155958786D01*
X370875516Y-155970942D01*
X370801503Y-156016797D01*
X370732548Y-156074470D01*
X370710747Y-156097942D01*
X370669787Y-156153256D01*
X370638343Y-156212142D01*
X370615376Y-156280776D01*
X370599849Y-156365332D01*
X370590721Y-156471989D01*
X370586956Y-156606921D01*
X368403352Y-156606921D01*
X368400531Y-156505833D01*
X368394868Y-156393413D01*
X368387166Y-156305073D01*
X368377465Y-156248876D01*
X368374640Y-156240574D01*
X368317025Y-156143303D01*
X368233738Y-156052784D01*
X368138725Y-155982815D01*
X368090779Y-155959695D01*
X368051438Y-155946631D01*
X368006072Y-155936848D01*
X367948197Y-155929899D01*
X367871326Y-155925335D01*
X367768974Y-155922708D01*
X367634655Y-155921570D01*
X367536500Y-155921416D01*
X367384981Y-155921668D01*
X367269456Y-155922778D01*
X367183588Y-155925280D01*
X367121041Y-155929710D01*
X367075477Y-155936600D01*
X367040558Y-155946484D01*
X367009948Y-155959896D01*
X366996473Y-155966913D01*
X366866343Y-156059889D01*
X366765848Y-156182923D01*
X366745949Y-156217472D01*
X366730857Y-156248194D01*
X366719522Y-156280507D01*
X366711409Y-156320750D01*
X366705983Y-156375259D01*
X366702711Y-156450373D01*
X366701059Y-156552429D01*
X366700494Y-156687765D01*
X366700451Y-156757500D01*
X364520216Y-156757500D01*
X364519952Y-156605967D01*
X364518831Y-156490429D01*
X364516318Y-156404548D01*
X364511881Y-156341987D01*
X364504984Y-156296408D01*
X364495095Y-156261473D01*
X364481678Y-156230846D01*
X364474718Y-156217472D01*
X364381801Y-156087369D01*
X364258756Y-155986833D01*
X364224194Y-155966913D01*
X364193485Y-155951812D01*
X364161205Y-155940470D01*
X364121015Y-155932352D01*
X364066580Y-155926926D01*
X363991561Y-155923656D01*
X363889621Y-155922010D01*
X363754423Y-155921454D01*
X363684167Y-155921416D01*
X363507321Y-155922415D01*
X363366813Y-155926294D01*
X363256676Y-155934378D01*
X363170945Y-155947992D01*
X363103653Y-155968462D01*
X363048832Y-155997112D01*
X363000518Y-156035268D01*
X362953206Y-156083740D01*
X362910525Y-156133007D01*
X362877764Y-156178678D01*
X362853617Y-156227208D01*
X362836776Y-156285050D01*
X362825934Y-156358659D01*
X362819785Y-156454489D01*
X362817022Y-156578992D01*
X362816338Y-156738624D01*
X362816334Y-156759656D01*
X360654385Y-156759656D01*
X360655605Y-156648875D01*
X360655076Y-156509618D01*
X360651068Y-156400849D01*
X360642563Y-156316659D01*
X360628543Y-156251137D01*
X360607992Y-156198373D01*
X360579892Y-156152458D01*
X360543226Y-156107480D01*
X360527195Y-156089796D01*
X360477229Y-156039138D01*
X360427880Y-155999708D01*
X360373084Y-155970122D01*
X360306781Y-155948996D01*
X360222908Y-155934947D01*
X360115402Y-155926590D01*
X359978202Y-155922543D01*
X359805246Y-155921421D01*
X359789500Y-155921416D01*
X359637981Y-155921668D01*
X359522456Y-155922778D01*
X359436588Y-155925280D01*
X359374041Y-155929710D01*
X359328477Y-155936600D01*
X359293558Y-155946484D01*
X359262948Y-155959896D01*
X359249473Y-155966913D01*
X359119343Y-156059889D01*
X359018848Y-156182923D01*
X358998949Y-156217472D01*
X358983857Y-156248194D01*
X358972522Y-156280507D01*
X358964409Y-156320750D01*
X358958983Y-156375259D01*
X358955711Y-156450373D01*
X358954059Y-156552429D01*
X358953494Y-156687765D01*
X358953451Y-156757500D01*
X357667387Y-156757500D01*
X357658253Y-156707458D01*
X357649901Y-156645310D01*
X357642847Y-156572094D01*
X357636982Y-156485429D01*
X357632197Y-156382933D01*
X357628385Y-156262224D01*
X357625437Y-156120920D01*
X357623243Y-155956639D01*
X357621696Y-155767000D01*
X357620687Y-155549621D01*
X357620108Y-155302119D01*
X357619850Y-155022114D01*
X357619804Y-154707224D01*
X357619861Y-154355083D01*
X358953417Y-154355083D01*
X358953417Y-154810166D01*
X358953870Y-154966430D01*
X358955530Y-155086878D01*
X358958851Y-155178021D01*
X358964286Y-155246368D01*
X358972289Y-155298429D01*
X358983311Y-155340717D01*
X358992061Y-155365403D01*
X359042552Y-155454927D01*
X359118262Y-155541271D01*
X359206104Y-155611704D01*
X359286052Y-155651398D01*
X359328501Y-155658324D01*
X359406209Y-155664492D01*
X359512104Y-155669578D01*
X359639114Y-155673260D01*
X359780166Y-155675214D01*
X359810667Y-155675374D01*
X359963315Y-155675635D01*
X360080121Y-155674807D01*
X360167574Y-155672399D01*
X360232161Y-155667923D01*
X360280369Y-155660889D01*
X360318686Y-155650809D01*
X360353601Y-155637193D01*
X360361000Y-155633888D01*
X360464485Y-155576338D01*
X360539312Y-155505692D01*
X360599152Y-155408521D01*
X360607011Y-155392250D01*
X360623440Y-155355459D01*
X360635811Y-155319833D01*
X360644702Y-155278844D01*
X360650689Y-155225964D01*
X360654350Y-155154666D01*
X360656261Y-155058422D01*
X360657001Y-154930706D01*
X360657127Y-154825361D01*
X360657078Y-154810716D01*
X362816786Y-154810716D01*
X362816798Y-154825361D01*
X362817268Y-154979334D01*
X362818660Y-155097404D01*
X362821481Y-155186001D01*
X362826235Y-155251555D01*
X362833425Y-155300494D01*
X362843557Y-155339249D01*
X362857134Y-155374247D01*
X362860445Y-155381666D01*
X362917995Y-155485151D01*
X362988641Y-155559978D01*
X363085812Y-155619818D01*
X363102084Y-155627677D01*
X363139683Y-155644426D01*
X363176103Y-155656949D01*
X363218075Y-155665861D01*
X363272331Y-155671778D01*
X363345603Y-155675317D01*
X363444624Y-155677092D01*
X363576126Y-155677719D01*
X363649961Y-155677793D01*
X363822609Y-155676532D01*
X363966549Y-155672696D01*
X364077893Y-155666470D01*
X364152756Y-155658035D01*
X364175089Y-155653107D01*
X364273062Y-155605909D01*
X364367012Y-155529896D01*
X364443633Y-155437555D01*
X364481606Y-155365403D01*
X364494776Y-155325939D01*
X364504638Y-155280824D01*
X364511647Y-155223548D01*
X364516255Y-155147601D01*
X364518914Y-155046472D01*
X364520080Y-154913650D01*
X364520250Y-154810166D01*
X364520250Y-154355083D01*
X366700417Y-154355083D01*
X366700417Y-154810166D01*
X366700870Y-154966430D01*
X366702530Y-155086878D01*
X366705851Y-155178021D01*
X366711286Y-155246368D01*
X366719289Y-155298429D01*
X366730311Y-155340717D01*
X366739061Y-155365403D01*
X366789552Y-155454927D01*
X366865262Y-155541271D01*
X366953104Y-155611704D01*
X367033052Y-155651398D01*
X367075501Y-155658324D01*
X367153209Y-155664492D01*
X367259104Y-155669578D01*
X367386114Y-155673260D01*
X367527166Y-155675214D01*
X367557667Y-155675374D01*
X367710315Y-155675635D01*
X367827121Y-155674807D01*
X367914574Y-155672399D01*
X367979161Y-155667923D01*
X368027369Y-155660889D01*
X368065686Y-155650809D01*
X368100601Y-155637193D01*
X368108000Y-155633888D01*
X368211485Y-155576338D01*
X368286312Y-155505692D01*
X368346152Y-155408521D01*
X368354011Y-155392250D01*
X368370440Y-155355459D01*
X368382811Y-155319833D01*
X368391702Y-155278844D01*
X368397689Y-155225964D01*
X368401350Y-155154666D01*
X368403261Y-155058422D01*
X368404001Y-154930706D01*
X368404127Y-154825361D01*
X368403827Y-154735814D01*
X370586664Y-154735814D01*
X370588234Y-154879150D01*
X370591633Y-155041969D01*
X370597109Y-155169105D01*
X370606350Y-155267209D01*
X370621047Y-155342930D01*
X370642887Y-155402917D01*
X370673561Y-155453820D01*
X370714757Y-155502289D01*
X370757270Y-155544590D01*
X370801200Y-155584775D01*
X370842878Y-155615914D01*
X370888274Y-155639088D01*
X370943359Y-155655376D01*
X371014103Y-155665855D01*
X371106476Y-155671606D01*
X371226449Y-155673708D01*
X371379993Y-155673240D01*
X371464651Y-155672448D01*
X371953218Y-155667416D01*
X372056758Y-155603357D01*
X372156353Y-155521967D01*
X372224357Y-155435760D01*
X372288417Y-155332223D01*
X372295225Y-154866551D01*
X372295812Y-154807710D01*
X374458465Y-154807710D01*
X374459529Y-154975691D01*
X374462950Y-155118452D01*
X374468523Y-155231351D01*
X374476041Y-155309745D01*
X374482160Y-155340978D01*
X374535758Y-155451492D01*
X374622190Y-155548857D01*
X374732048Y-155622706D01*
X374742250Y-155627607D01*
X374780372Y-155644382D01*
X374817212Y-155656924D01*
X374859523Y-155665849D01*
X374914059Y-155671775D01*
X374987572Y-155675317D01*
X375086815Y-155677093D01*
X375218543Y-155677720D01*
X375291628Y-155677793D01*
X375460325Y-155676570D01*
X375602555Y-155672868D01*
X375713882Y-155666896D01*
X375789873Y-155658857D01*
X375815663Y-155653434D01*
X375914760Y-155605813D01*
X376009173Y-155529133D01*
X376085010Y-155435659D01*
X376107139Y-155396093D01*
X376121561Y-155363475D01*
X376132468Y-155328975D01*
X376140346Y-155286360D01*
X376145681Y-155229398D01*
X376148958Y-155151858D01*
X376150662Y-155047505D01*
X376151280Y-154910108D01*
X376151334Y-154828806D01*
X376151203Y-154674788D01*
X376150413Y-154556727D01*
X376148364Y-154468247D01*
X376144459Y-154402972D01*
X376138099Y-154354527D01*
X376128686Y-154316535D01*
X376115622Y-154282620D01*
X376098308Y-154246406D01*
X376096307Y-154242387D01*
X376016822Y-154128837D01*
X375907466Y-154042874D01*
X375773468Y-153988415D01*
X375749999Y-153982867D01*
X375685545Y-153974582D01*
X375585441Y-153968915D01*
X375456297Y-153966067D01*
X375304729Y-153966236D01*
X375235032Y-153967274D01*
X375075581Y-153971207D01*
X374951564Y-153977401D01*
X374856083Y-153987565D01*
X374782242Y-154003412D01*
X374723143Y-154026651D01*
X374671891Y-154058994D01*
X374621588Y-154102151D01*
X374597568Y-154125413D01*
X374554760Y-154170858D01*
X374521731Y-154216056D01*
X374497223Y-154267181D01*
X374479978Y-154330406D01*
X374468736Y-154411904D01*
X374462240Y-154517848D01*
X374459231Y-154654411D01*
X374458465Y-154807710D01*
X372295812Y-154807710D01*
X372296963Y-154692438D01*
X372295768Y-154554445D01*
X372290544Y-154446400D01*
X372280192Y-154362129D01*
X372263616Y-154295461D01*
X372239720Y-154240221D01*
X372207406Y-154190237D01*
X372166112Y-154139944D01*
X372117818Y-154088325D01*
X372070708Y-154048612D01*
X372018324Y-154019126D01*
X371954211Y-153998191D01*
X371871910Y-153984130D01*
X371764963Y-153975266D01*
X371626914Y-153969921D01*
X371501203Y-153967249D01*
X371320595Y-153965364D01*
X371176154Y-153967556D01*
X371061809Y-153975062D01*
X370971489Y-153989117D01*
X370899123Y-154010957D01*
X370838641Y-154041820D01*
X370783971Y-154082940D01*
X370742693Y-154121692D01*
X370693263Y-154175644D01*
X370654940Y-154230748D01*
X370626489Y-154293068D01*
X370606672Y-154368671D01*
X370594254Y-154463619D01*
X370587997Y-154583979D01*
X370586664Y-154735814D01*
X368403827Y-154735814D01*
X368403559Y-154656034D01*
X368400895Y-154522888D01*
X368394949Y-154419782D01*
X368384532Y-154340575D01*
X368368458Y-154279123D01*
X368345541Y-154229287D01*
X368314594Y-154184923D01*
X368274430Y-154139891D01*
X368270969Y-154136270D01*
X368218855Y-154084804D01*
X368169429Y-154045499D01*
X368115884Y-154016582D01*
X368051414Y-153996281D01*
X367969211Y-153982824D01*
X367862469Y-153974440D01*
X367724381Y-153969355D01*
X367621167Y-153967104D01*
X367447235Y-153965418D01*
X367301169Y-153967323D01*
X367187461Y-153972679D01*
X367110604Y-153981344D01*
X367100319Y-153983402D01*
X366966126Y-154034272D01*
X366852683Y-154121088D01*
X366763565Y-154241102D01*
X366762572Y-154242886D01*
X366700417Y-154355083D01*
X364520250Y-154355083D01*
X364458095Y-154242886D01*
X364369320Y-154122454D01*
X364256173Y-154035185D01*
X364122230Y-153983825D01*
X364120348Y-153983402D01*
X364051180Y-153974109D01*
X363944287Y-153968099D01*
X363804162Y-153965512D01*
X363635298Y-153966488D01*
X363599500Y-153967104D01*
X363438802Y-153971041D01*
X363313627Y-153977190D01*
X363217170Y-153987324D01*
X363142623Y-154003214D01*
X363083180Y-154026632D01*
X363032033Y-154059352D01*
X362982375Y-154103144D01*
X362949698Y-154136270D01*
X362908772Y-154181612D01*
X362877161Y-154225803D01*
X362853682Y-154274983D01*
X362837149Y-154335296D01*
X362826377Y-154412883D01*
X362820183Y-154513887D01*
X362817381Y-154644451D01*
X362816786Y-154810716D01*
X360657078Y-154810716D01*
X360656559Y-154656034D01*
X360653895Y-154522888D01*
X360647949Y-154419782D01*
X360637532Y-154340575D01*
X360621458Y-154279123D01*
X360598541Y-154229287D01*
X360567594Y-154184923D01*
X360527430Y-154139891D01*
X360523969Y-154136270D01*
X360471855Y-154084804D01*
X360422429Y-154045499D01*
X360368884Y-154016582D01*
X360304414Y-153996281D01*
X360222211Y-153982824D01*
X360115469Y-153974440D01*
X359977381Y-153969355D01*
X359874167Y-153967104D01*
X359700235Y-153965418D01*
X359554169Y-153967323D01*
X359440461Y-153972679D01*
X359363604Y-153981344D01*
X359353319Y-153983402D01*
X359219126Y-154034272D01*
X359105683Y-154121088D01*
X359016565Y-154241102D01*
X359015572Y-154242886D01*
X358953417Y-154355083D01*
X357619861Y-154355083D01*
X357619862Y-154355066D01*
X357619916Y-153963259D01*
X357619917Y-153910583D01*
X357619939Y-153520378D01*
X357620026Y-153170188D01*
X357620201Y-152873416D01*
X358953512Y-152873416D01*
X358954030Y-153039142D01*
X358956301Y-153168910D01*
X358961516Y-153269095D01*
X358970866Y-153346067D01*
X358985542Y-153406200D01*
X359006735Y-153455866D01*
X359035635Y-153501439D01*
X359073433Y-153549289D01*
X359081636Y-153559066D01*
X359137499Y-153610787D01*
X359211069Y-153661111D01*
X359248885Y-153681325D01*
X359284785Y-153697598D01*
X359318671Y-153709847D01*
X359356886Y-153718555D01*
X359405771Y-153724206D01*
X359471665Y-153727283D01*
X359560910Y-153728270D01*
X359679848Y-153727651D01*
X359833568Y-153725925D01*
X360311553Y-153720083D01*
X360415092Y-153656023D01*
X360514679Y-153574641D01*
X360582691Y-153488428D01*
X360646750Y-153384892D01*
X360653201Y-152907701D01*
X360653530Y-152873416D01*
X360858417Y-152873416D01*
X360858898Y-153039079D01*
X360861137Y-153168787D01*
X360866326Y-153268919D01*
X360875657Y-153345848D01*
X360890323Y-153405953D01*
X360911516Y-153455607D01*
X360940428Y-153501189D01*
X360978252Y-153549072D01*
X360986636Y-153559066D01*
X361042499Y-153610787D01*
X361116069Y-153661111D01*
X361153885Y-153681325D01*
X361189785Y-153697598D01*
X361223671Y-153709847D01*
X361261886Y-153718555D01*
X361310771Y-153724206D01*
X361376665Y-153727283D01*
X361465910Y-153728270D01*
X361584848Y-153727651D01*
X361738568Y-153725925D01*
X362216553Y-153720083D01*
X362320092Y-153656023D01*
X362419679Y-153574641D01*
X362487691Y-153488428D01*
X362551750Y-153384892D01*
X362556589Y-153026911D01*
X362816782Y-153026911D01*
X362817486Y-153143403D01*
X362819521Y-153230493D01*
X362823498Y-153294647D01*
X362830031Y-153342331D01*
X362839731Y-153380009D01*
X362853210Y-153414149D01*
X362871079Y-153451214D01*
X362871438Y-153451935D01*
X362915806Y-153524886D01*
X362968813Y-153590137D01*
X362998395Y-153617321D01*
X363047851Y-153652364D01*
X363097009Y-153679268D01*
X363152297Y-153699101D01*
X363220141Y-153712931D01*
X363306967Y-153721826D01*
X363419201Y-153726853D01*
X363563269Y-153729082D01*
X363673584Y-153729530D01*
X363822864Y-153729542D01*
X363936528Y-153728627D01*
X364021291Y-153726191D01*
X364083870Y-153721636D01*
X364130979Y-153714366D01*
X364169336Y-153703784D01*
X364205655Y-153689293D01*
X364224782Y-153680567D01*
X364298973Y-153637668D01*
X364366808Y-153584865D01*
X364392031Y-153559066D01*
X364431703Y-153510010D01*
X364462234Y-153464481D01*
X364484817Y-153416104D01*
X364500644Y-153358501D01*
X364510907Y-153285298D01*
X364516799Y-153190117D01*
X364519512Y-153066584D01*
X364520238Y-152908321D01*
X364520250Y-152873416D01*
X364795417Y-152873416D01*
X364795611Y-153030170D01*
X364796527Y-153150678D01*
X364798665Y-153241024D01*
X364802525Y-153307297D01*
X364808609Y-153355580D01*
X364817417Y-153391961D01*
X364829448Y-153422526D01*
X364842728Y-153448749D01*
X364908049Y-153540698D01*
X364996072Y-153624510D01*
X365091656Y-153686688D01*
X365126402Y-153701686D01*
X365175596Y-153711347D01*
X365258749Y-153719007D01*
X365367533Y-153724639D01*
X365493621Y-153728217D01*
X365628684Y-153729714D01*
X365764395Y-153729104D01*
X365892425Y-153726361D01*
X366004446Y-153721457D01*
X366092130Y-153714367D01*
X366147150Y-153705065D01*
X366147628Y-153704925D01*
X366227132Y-153666290D01*
X366315928Y-153597316D01*
X366343522Y-153571076D01*
X366391790Y-153519738D01*
X366429334Y-153469133D01*
X366457352Y-153413274D01*
X366477044Y-153346170D01*
X366489609Y-153261834D01*
X366496246Y-153154275D01*
X366498155Y-153017506D01*
X366496798Y-152873416D01*
X366700417Y-152873416D01*
X366700898Y-153039079D01*
X366703137Y-153168787D01*
X366708326Y-153268919D01*
X366717657Y-153345848D01*
X366732323Y-153405953D01*
X366753516Y-153455607D01*
X366782428Y-153501189D01*
X366820252Y-153549072D01*
X366828636Y-153559066D01*
X366884499Y-153610787D01*
X366958069Y-153661111D01*
X366995885Y-153681325D01*
X367031785Y-153697598D01*
X367065671Y-153709847D01*
X367103886Y-153718555D01*
X367152771Y-153724206D01*
X367218665Y-153727283D01*
X367307910Y-153728270D01*
X367426848Y-153727651D01*
X367580568Y-153725925D01*
X368058553Y-153720083D01*
X368162092Y-153656023D01*
X368261679Y-153574641D01*
X368329691Y-153488428D01*
X368393750Y-153384892D01*
X368400201Y-152907701D01*
X368400530Y-152873416D01*
X370595084Y-152873416D01*
X370595278Y-153030170D01*
X370596193Y-153150678D01*
X370598331Y-153241024D01*
X370602192Y-153307297D01*
X370608276Y-153355580D01*
X370617083Y-153391961D01*
X370629115Y-153422526D01*
X370642394Y-153448749D01*
X370708272Y-153541299D01*
X370797288Y-153625802D01*
X370894033Y-153688479D01*
X370926068Y-153702414D01*
X370969114Y-153712133D01*
X371040571Y-153719076D01*
X371143846Y-153723379D01*
X371282345Y-153725181D01*
X371459474Y-153724617D01*
X371473500Y-153724492D01*
X371633221Y-153722579D01*
X371756321Y-153719890D01*
X371848510Y-153716002D01*
X371915499Y-153710494D01*
X371962999Y-153702942D01*
X371996720Y-153692925D01*
X372014753Y-153684457D01*
X372105973Y-153618337D01*
X372188842Y-153529784D01*
X372250302Y-153433816D01*
X372266639Y-153394767D01*
X372278130Y-153338039D01*
X372287318Y-153247740D01*
X372294135Y-153132575D01*
X372298516Y-153001248D01*
X372300245Y-152873416D01*
X372542417Y-152873416D01*
X372542611Y-153030170D01*
X372543527Y-153150678D01*
X372545665Y-153241024D01*
X372549525Y-153307297D01*
X372555609Y-153355580D01*
X372564417Y-153391961D01*
X372576448Y-153422526D01*
X372589728Y-153448749D01*
X372655049Y-153540698D01*
X372743072Y-153624510D01*
X372838656Y-153686688D01*
X372873402Y-153701686D01*
X372922596Y-153711347D01*
X373005749Y-153719007D01*
X373114533Y-153724639D01*
X373240621Y-153728217D01*
X373375684Y-153729714D01*
X373511395Y-153729104D01*
X373639425Y-153726361D01*
X373751446Y-153721457D01*
X373839130Y-153714367D01*
X373894150Y-153705065D01*
X373894628Y-153704925D01*
X373974132Y-153666290D01*
X374062928Y-153597316D01*
X374090522Y-153571076D01*
X374138790Y-153519738D01*
X374176334Y-153469133D01*
X374204352Y-153413274D01*
X374224044Y-153346170D01*
X374236609Y-153261834D01*
X374243246Y-153154275D01*
X374245155Y-153017506D01*
X374243798Y-152873416D01*
X374458000Y-152873416D01*
X374458137Y-153026001D01*
X374458958Y-153142708D01*
X374461078Y-153229995D01*
X374465111Y-153294317D01*
X374471674Y-153342132D01*
X374481380Y-153379895D01*
X374494845Y-153414062D01*
X374512684Y-153451091D01*
X374513105Y-153451935D01*
X374557473Y-153524886D01*
X374610480Y-153590137D01*
X374640062Y-153617321D01*
X374689517Y-153652364D01*
X374738676Y-153679268D01*
X374793964Y-153699101D01*
X374861808Y-153712931D01*
X374948633Y-153721826D01*
X375060867Y-153726853D01*
X375204936Y-153729082D01*
X375315250Y-153729530D01*
X375464530Y-153729542D01*
X375578194Y-153728627D01*
X375662958Y-153726191D01*
X375725536Y-153721636D01*
X375772646Y-153714366D01*
X375811002Y-153703784D01*
X375847322Y-153689293D01*
X375866448Y-153680567D01*
X375984340Y-153604601D01*
X376077592Y-153501548D01*
X376122791Y-153419138D01*
X376132969Y-153381860D01*
X376140651Y-153322001D01*
X376146063Y-153235192D01*
X376149429Y-153117064D01*
X376150975Y-152963245D01*
X376151135Y-152868804D01*
X376150936Y-152386583D01*
X376088301Y-152277373D01*
X376038695Y-152200280D01*
X375984717Y-152139607D01*
X375920791Y-152093494D01*
X375841338Y-152060081D01*
X375740781Y-152037511D01*
X375613543Y-152023923D01*
X375454045Y-152017459D01*
X375304667Y-152016166D01*
X375135028Y-152017498D01*
X375001016Y-152022263D01*
X374895983Y-152031618D01*
X374813285Y-152046718D01*
X374746275Y-152068720D01*
X374688307Y-152098780D01*
X374641105Y-152131586D01*
X374587595Y-152184852D01*
X374534929Y-152256758D01*
X374511951Y-152297212D01*
X374494379Y-152333764D01*
X374481107Y-152367753D01*
X374471531Y-152405620D01*
X374465050Y-152453806D01*
X374461059Y-152518751D01*
X374458956Y-152606898D01*
X374458137Y-152724686D01*
X374458000Y-152873416D01*
X374243798Y-152873416D01*
X374243535Y-152845537D01*
X374242954Y-152809916D01*
X374240118Y-152663405D01*
X374236818Y-152552561D01*
X374232359Y-152470719D01*
X374226047Y-152411213D01*
X374217189Y-152367377D01*
X374205089Y-152332546D01*
X374190064Y-152301916D01*
X374100028Y-152178883D01*
X373978534Y-152082379D01*
X373950000Y-152066208D01*
X373922101Y-152053383D01*
X373888944Y-152043647D01*
X373844627Y-152036585D01*
X373783246Y-152031782D01*
X373698901Y-152028822D01*
X373585687Y-152027289D01*
X373437704Y-152026770D01*
X373389084Y-152026750D01*
X373232064Y-152026963D01*
X373111329Y-152027924D01*
X373020828Y-152030117D01*
X372954513Y-152034026D01*
X372906336Y-152040135D01*
X372870248Y-152048925D01*
X372840199Y-152060882D01*
X372817584Y-152072436D01*
X372694550Y-152162472D01*
X372598047Y-152283965D01*
X372581875Y-152312500D01*
X372569050Y-152340399D01*
X372559315Y-152373556D01*
X372552253Y-152417873D01*
X372547449Y-152479253D01*
X372544489Y-152563599D01*
X372542957Y-152676812D01*
X372542437Y-152824796D01*
X372542417Y-152873416D01*
X372300245Y-152873416D01*
X372300394Y-152862463D01*
X372299702Y-152724923D01*
X372296373Y-152597332D01*
X372290343Y-152488395D01*
X372281544Y-152406815D01*
X372274435Y-152373003D01*
X372229338Y-152278538D01*
X372156045Y-152184664D01*
X372066547Y-152105285D01*
X372016268Y-152073644D01*
X371986022Y-152058574D01*
X371954985Y-152047127D01*
X371917077Y-152038807D01*
X371866219Y-152033119D01*
X371796333Y-152029565D01*
X371701339Y-152027651D01*
X371575158Y-152026878D01*
X371441750Y-152026750D01*
X371284731Y-152026963D01*
X371163995Y-152027924D01*
X371073495Y-152030117D01*
X371007180Y-152034026D01*
X370959003Y-152040135D01*
X370922914Y-152048925D01*
X370892865Y-152060882D01*
X370870250Y-152072436D01*
X370747217Y-152162472D01*
X370650713Y-152283965D01*
X370634542Y-152312500D01*
X370621717Y-152340399D01*
X370611981Y-152373556D01*
X370604919Y-152417873D01*
X370600116Y-152479253D01*
X370597156Y-152563599D01*
X370595623Y-152676812D01*
X370595104Y-152824796D01*
X370595084Y-152873416D01*
X368400530Y-152873416D01*
X368401887Y-152732280D01*
X368400863Y-152593157D01*
X368395931Y-152484324D01*
X368385895Y-152399774D01*
X368369561Y-152333497D01*
X368345732Y-152279487D01*
X368313212Y-152231734D01*
X368270805Y-152184231D01*
X368252497Y-152165644D01*
X368200999Y-152119010D01*
X368147139Y-152083009D01*
X368084695Y-152056323D01*
X368007448Y-152037634D01*
X367909178Y-152025624D01*
X367783665Y-152018976D01*
X367624690Y-152016371D01*
X367547012Y-152016166D01*
X367378818Y-152017363D01*
X367246239Y-152021800D01*
X367142604Y-152030744D01*
X367061242Y-152045463D01*
X366995480Y-152067225D01*
X366938648Y-152097299D01*
X366884073Y-152136951D01*
X366875757Y-152143731D01*
X366819557Y-152202266D01*
X366766886Y-152276476D01*
X366749942Y-152307182D01*
X366733721Y-152342017D01*
X366721488Y-152376063D01*
X366712682Y-152415733D01*
X366706742Y-152467442D01*
X366703107Y-152537603D01*
X366701217Y-152632630D01*
X366700509Y-152758938D01*
X366700417Y-152873416D01*
X366496798Y-152873416D01*
X366496535Y-152845537D01*
X366495954Y-152809916D01*
X366493118Y-152663405D01*
X366489818Y-152552561D01*
X366485359Y-152470719D01*
X366479047Y-152411213D01*
X366470189Y-152367377D01*
X366458089Y-152332546D01*
X366443064Y-152301916D01*
X366353028Y-152178883D01*
X366231534Y-152082379D01*
X366203000Y-152066208D01*
X366175101Y-152053383D01*
X366141944Y-152043647D01*
X366097627Y-152036585D01*
X366036246Y-152031782D01*
X365951901Y-152028822D01*
X365838687Y-152027289D01*
X365690704Y-152026770D01*
X365642084Y-152026750D01*
X365485064Y-152026963D01*
X365364329Y-152027924D01*
X365273828Y-152030117D01*
X365207513Y-152034026D01*
X365159336Y-152040135D01*
X365123248Y-152048925D01*
X365093199Y-152060882D01*
X365070584Y-152072436D01*
X364947550Y-152162472D01*
X364851047Y-152283965D01*
X364834875Y-152312500D01*
X364822050Y-152340399D01*
X364812315Y-152373556D01*
X364805253Y-152417873D01*
X364800449Y-152479253D01*
X364797489Y-152563599D01*
X364795957Y-152676812D01*
X364795437Y-152824796D01*
X364795417Y-152873416D01*
X364520250Y-152873416D01*
X364520048Y-152720488D01*
X364519069Y-152603478D01*
X364516752Y-152515973D01*
X364512536Y-152451560D01*
X364505859Y-152403824D01*
X364496160Y-152366352D01*
X364482880Y-152332730D01*
X364470725Y-152307182D01*
X364425220Y-152233588D01*
X364368277Y-152165394D01*
X364344910Y-152143731D01*
X364290102Y-152102549D01*
X364234026Y-152071134D01*
X364170012Y-152048218D01*
X364091388Y-152032533D01*
X363991481Y-152022812D01*
X363863620Y-152017786D01*
X363701134Y-152016189D01*
X363673655Y-152016166D01*
X363498455Y-152017545D01*
X363359344Y-152022514D01*
X363250140Y-152032321D01*
X363164663Y-152048216D01*
X363096732Y-152071447D01*
X363040167Y-152103261D01*
X362988788Y-152144909D01*
X362975906Y-152157123D01*
X362927855Y-152206205D01*
X362890590Y-152252870D01*
X362862742Y-152303289D01*
X362842944Y-152363629D01*
X362829826Y-152440062D01*
X362822022Y-152538755D01*
X362818161Y-152665880D01*
X362816878Y-152827604D01*
X362816798Y-152874552D01*
X362816782Y-153026911D01*
X362556589Y-153026911D01*
X362558201Y-152907701D01*
X362559857Y-152732344D01*
X362558822Y-152593354D01*
X362554018Y-152484794D01*
X362544370Y-152400728D01*
X362528799Y-152335219D01*
X362506231Y-152282333D01*
X362475587Y-152236132D01*
X362435791Y-152190680D01*
X362426363Y-152180873D01*
X362377381Y-152133033D01*
X362330731Y-152096184D01*
X362279967Y-152068787D01*
X362218641Y-152049303D01*
X362140308Y-152036193D01*
X362038520Y-152027917D01*
X361906830Y-152022938D01*
X361752217Y-152019920D01*
X361594545Y-152018078D01*
X361472678Y-152018286D01*
X361380121Y-152020865D01*
X361310380Y-152026135D01*
X361256963Y-152034414D01*
X361213374Y-152046024D01*
X361211797Y-152046544D01*
X361079955Y-152111205D01*
X360973263Y-152207096D01*
X360907942Y-152307182D01*
X360891721Y-152342017D01*
X360879488Y-152376063D01*
X360870682Y-152415733D01*
X360864742Y-152467442D01*
X360861107Y-152537603D01*
X360859217Y-152632630D01*
X360858509Y-152758938D01*
X360858417Y-152873416D01*
X360653530Y-152873416D01*
X360654887Y-152732280D01*
X360653863Y-152593157D01*
X360648931Y-152484324D01*
X360638895Y-152399774D01*
X360622561Y-152333497D01*
X360598732Y-152279487D01*
X360566212Y-152231734D01*
X360523805Y-152184231D01*
X360505497Y-152165644D01*
X360453999Y-152119010D01*
X360400139Y-152083009D01*
X360337695Y-152056323D01*
X360260448Y-152037634D01*
X360162178Y-152025624D01*
X360036665Y-152018976D01*
X359877690Y-152016371D01*
X359800012Y-152016166D01*
X359631818Y-152017363D01*
X359499239Y-152021800D01*
X359395604Y-152030744D01*
X359314242Y-152045463D01*
X359248480Y-152067225D01*
X359191648Y-152097299D01*
X359137073Y-152136951D01*
X359128757Y-152143731D01*
X359072557Y-152202266D01*
X359019886Y-152276476D01*
X359002942Y-152307182D01*
X358986722Y-152342010D01*
X358974492Y-152376038D01*
X358965690Y-152415680D01*
X358959758Y-152467348D01*
X358956136Y-152537457D01*
X358954263Y-152632419D01*
X358953581Y-152758650D01*
X358953512Y-152873416D01*
X357620201Y-152873416D01*
X357620211Y-152857692D01*
X357620529Y-152580572D01*
X357621011Y-152336508D01*
X357621691Y-152123182D01*
X357622601Y-151938274D01*
X357623776Y-151779464D01*
X357625248Y-151644435D01*
X357627050Y-151530865D01*
X357629216Y-151436437D01*
X357631777Y-151358831D01*
X357634769Y-151295727D01*
X357638222Y-151244807D01*
X357642172Y-151203752D01*
X357646650Y-151170241D01*
X357651690Y-151141957D01*
X357657325Y-151116579D01*
X357659935Y-151106000D01*
X357717590Y-150926083D01*
X370595084Y-150926083D01*
X370595393Y-151084893D01*
X370596599Y-151207275D01*
X370599116Y-151299132D01*
X370603360Y-151366366D01*
X370609746Y-151414879D01*
X370618689Y-151450574D01*
X370630604Y-151479354D01*
X370634542Y-151487000D01*
X370724068Y-151614173D01*
X370839751Y-151708114D01*
X370965363Y-151764294D01*
X371001805Y-151769121D01*
X371073478Y-151773010D01*
X371173284Y-151775787D01*
X371294128Y-151777272D01*
X371428913Y-151777290D01*
X371473500Y-151776960D01*
X371625087Y-151775301D01*
X371740715Y-151773101D01*
X371826759Y-151769761D01*
X371889593Y-151764679D01*
X371935591Y-151757255D01*
X371971129Y-151746890D01*
X372002580Y-151732983D01*
X372016268Y-151725855D01*
X372109508Y-151659910D01*
X372192946Y-151572046D01*
X372254591Y-151476167D01*
X372274435Y-151426496D01*
X372283570Y-151372827D01*
X372290812Y-151281982D01*
X372295911Y-151159086D01*
X372298620Y-151009264D01*
X372299000Y-150920997D01*
X372298001Y-150751040D01*
X372294066Y-150616971D01*
X372285793Y-150512373D01*
X372271775Y-150430828D01*
X372250610Y-150365918D01*
X372220892Y-150311227D01*
X372181218Y-150260335D01*
X372146270Y-150223024D01*
X372096371Y-150175747D01*
X372046601Y-150139157D01*
X371990767Y-150111919D01*
X371922678Y-150092701D01*
X371836144Y-150080168D01*
X371724972Y-150072986D01*
X371582972Y-150069823D01*
X371432688Y-150069298D01*
X371283124Y-150069814D01*
X371169193Y-150071368D01*
X371084199Y-150074509D01*
X371021444Y-150079788D01*
X370974232Y-150087754D01*
X370935866Y-150098958D01*
X370902000Y-150112879D01*
X370773135Y-150191766D01*
X370674497Y-150299309D01*
X370640770Y-150354583D01*
X370626072Y-150384092D01*
X370614909Y-150415025D01*
X370606797Y-150453431D01*
X370601254Y-150505358D01*
X370597795Y-150576856D01*
X370595937Y-150673972D01*
X370595196Y-150802757D01*
X370595084Y-150926083D01*
X357717590Y-150926083D01*
X357757821Y-150800543D01*
X357890907Y-150517127D01*
X358057139Y-150257864D01*
X358254463Y-150024868D01*
X358480825Y-149820249D01*
X358734171Y-149646121D01*
X359012446Y-149504596D01*
X359313597Y-149397786D01*
X359323834Y-149394896D01*
X359524917Y-149338583D01*
X375696250Y-149338583D01*
X375904488Y-149396785D01*
D14*
X357280000Y-97650000D02*
X378280000Y-97650000D01*
X364080000Y-148650000D02*
X357280000Y-148650000D01*
X357280000Y-100317000D02*
X360287000Y-100317000D01*
X360287000Y-100317000D02*
X360287000Y-97650000D01*
X357280000Y-97650000D02*
X357280000Y-97950000D01*
X357280000Y-100050000D02*
X357280000Y-100450000D01*
X357280000Y-102650000D02*
X357280000Y-103050000D01*
X357280000Y-105150000D02*
X357280000Y-105550000D01*
X357280000Y-107750000D02*
X357280000Y-108150000D01*
X357280000Y-110250000D02*
X357280000Y-110650000D01*
X357280000Y-112750000D02*
X357280000Y-113150000D01*
X357280000Y-115350000D02*
X357280000Y-115750000D01*
X357280000Y-117850000D02*
X357280000Y-118250000D01*
X357280000Y-120450000D02*
X357280000Y-120850000D01*
X357280000Y-122950000D02*
X357280000Y-123350000D01*
X357280000Y-125450000D02*
X357280000Y-125850000D01*
X357280000Y-128050000D02*
X357280000Y-128450000D01*
X357280000Y-130550000D02*
X357280000Y-130950000D01*
X357280000Y-133150000D02*
X357280000Y-133550000D01*
X357280000Y-135650000D02*
X357280000Y-136050000D01*
X357280000Y-138250000D02*
X357280000Y-138650000D01*
X357280000Y-140750000D02*
X357280000Y-141150000D01*
X357280000Y-143250000D02*
X357280000Y-143650000D01*
X357280000Y-145850000D02*
X357280000Y-146250000D01*
X378280000Y-112750000D02*
X378280000Y-113150000D01*
X378280000Y-117850000D02*
X378280000Y-118250000D01*
X378280000Y-125450000D02*
X378280000Y-125850000D01*
X378280000Y-133150000D02*
X378280000Y-133550000D01*
X378280000Y-102650000D02*
X378280000Y-103050000D01*
X378280000Y-100050000D02*
X378280000Y-100450000D01*
X378280000Y-107750000D02*
X378280000Y-108150000D01*
X378280000Y-140750000D02*
X378280000Y-141150000D01*
X378280000Y-145850000D02*
X378280000Y-146250000D01*
X378280000Y-143250000D02*
X378280000Y-143650000D01*
X378280000Y-128050000D02*
X378280000Y-128450000D01*
X378280000Y-122950000D02*
X378280000Y-123350000D01*
X378280000Y-110250000D02*
X378280000Y-110650000D01*
X378280000Y-115350000D02*
X378280000Y-115750000D01*
X378280000Y-135650000D02*
X378280000Y-136050000D01*
X378280000Y-120450000D02*
X378280000Y-120850000D01*
X378280000Y-97650000D02*
X378280000Y-97950000D01*
X378280000Y-105150000D02*
X378280000Y-105550000D01*
X378280000Y-130550000D02*
X378280000Y-130950000D01*
X378280000Y-138250000D02*
X378280000Y-138650000D01*
X378280000Y-148650000D02*
X371480000Y-148650000D01*
D10*
X379931597Y-117890964D02*
X380200971Y-117621590D01*
X380039346Y-118106463D02*
X379662223Y-117352216D01*
X380416470Y-117729340D01*
X380362595Y-116705719D02*
X380281783Y-116732656D01*
X380200971Y-116813468D01*
X380147096Y-116921218D01*
X380147096Y-117028967D01*
X380174033Y-117109780D01*
X380254845Y-117244467D01*
X380335658Y-117325279D01*
X380470345Y-117406091D01*
X380551157Y-117433028D01*
X380658906Y-117433028D01*
X380766656Y-117379154D01*
X380820531Y-117325279D01*
X380874406Y-117217529D01*
X380874406Y-117163654D01*
X380685844Y-116975093D01*
X380578094Y-117082842D01*
X381170717Y-116975093D02*
X380605032Y-116409407D01*
X381493966Y-116651844D01*
X380928280Y-116086158D01*
X381763340Y-116382470D02*
X381197654Y-115816784D01*
X381332341Y-115682097D01*
X381440091Y-115628223D01*
X381547841Y-115628223D01*
X381628653Y-115655160D01*
X381763340Y-115735972D01*
X381844152Y-115816784D01*
X381924964Y-115951471D01*
X381951902Y-116032284D01*
X381951902Y-116140033D01*
X381898027Y-116247783D01*
X381763340Y-116382470D01*
X379866158Y-104248155D02*
X379785346Y-104275093D01*
X379704534Y-104355905D01*
X379650659Y-104463654D01*
X379650659Y-104571404D01*
X379677597Y-104652216D01*
X379758409Y-104786903D01*
X379839221Y-104867715D01*
X379973908Y-104948528D01*
X380054720Y-104975465D01*
X380162470Y-104975465D01*
X380270219Y-104921590D01*
X380324094Y-104867715D01*
X380377969Y-104759966D01*
X380377969Y-104706091D01*
X380189407Y-104517529D01*
X380081658Y-104625279D01*
X380674280Y-104517529D02*
X380108595Y-103951844D01*
X380997529Y-104194280D01*
X380431844Y-103628595D01*
X381266903Y-103924906D02*
X380701218Y-103359221D01*
X380835905Y-103224534D01*
X380943654Y-103170659D01*
X381051404Y-103170659D01*
X381132216Y-103197597D01*
X381266903Y-103278409D01*
X381347715Y-103359221D01*
X381428528Y-103493908D01*
X381455465Y-103574720D01*
X381455465Y-103682470D01*
X381401590Y-103790219D01*
X381266903Y-103924906D01*
X379866158Y-129648155D02*
X379785346Y-129675093D01*
X379704534Y-129755905D01*
X379650659Y-129863654D01*
X379650659Y-129971404D01*
X379677597Y-130052216D01*
X379758409Y-130186903D01*
X379839221Y-130267715D01*
X379973908Y-130348528D01*
X380054720Y-130375465D01*
X380162470Y-130375465D01*
X380270219Y-130321590D01*
X380324094Y-130267715D01*
X380377969Y-130159966D01*
X380377969Y-130106091D01*
X380189407Y-129917529D01*
X380081658Y-130025279D01*
X380674280Y-129917529D02*
X380108595Y-129351844D01*
X380997529Y-129594280D01*
X380431844Y-129028595D01*
X381266903Y-129324906D02*
X380701218Y-128759221D01*
X380835905Y-128624534D01*
X380943654Y-128570659D01*
X381051404Y-128570659D01*
X381132216Y-128597597D01*
X381266903Y-128678409D01*
X381347715Y-128759221D01*
X381428528Y-128893908D01*
X381455465Y-128974720D01*
X381455465Y-129082470D01*
X381401590Y-129190219D01*
X381266903Y-129324906D01*
X379866158Y-142348155D02*
X379785346Y-142375093D01*
X379704534Y-142455905D01*
X379650659Y-142563654D01*
X379650659Y-142671404D01*
X379677597Y-142752216D01*
X379758409Y-142886903D01*
X379839221Y-142967715D01*
X379973908Y-143048528D01*
X380054720Y-143075465D01*
X380162470Y-143075465D01*
X380270219Y-143021590D01*
X380324094Y-142967715D01*
X380377969Y-142859966D01*
X380377969Y-142806091D01*
X380189407Y-142617529D01*
X380081658Y-142725279D01*
X380674280Y-142617529D02*
X380108595Y-142051844D01*
X380997529Y-142294280D01*
X380431844Y-141728595D01*
X381266903Y-142024906D02*
X380701218Y-141459221D01*
X380835905Y-141324534D01*
X380943654Y-141270659D01*
X381051404Y-141270659D01*
X381132216Y-141297597D01*
X381266903Y-141378409D01*
X381347715Y-141459221D01*
X381428528Y-141593908D01*
X381455465Y-141674720D01*
X381455465Y-141782470D01*
X381401590Y-141890219D01*
X381266903Y-142024906D01*
X354266158Y-142348155D02*
X354185346Y-142375093D01*
X354104534Y-142455905D01*
X354050659Y-142563654D01*
X354050659Y-142671404D01*
X354077597Y-142752216D01*
X354158409Y-142886903D01*
X354239221Y-142967715D01*
X354373908Y-143048528D01*
X354454720Y-143075465D01*
X354562470Y-143075465D01*
X354670219Y-143021590D01*
X354724094Y-142967715D01*
X354777969Y-142859966D01*
X354777969Y-142806091D01*
X354589407Y-142617529D01*
X354481658Y-142725279D01*
X355074280Y-142617529D02*
X354508595Y-142051844D01*
X355397529Y-142294280D01*
X354831844Y-141728595D01*
X355666903Y-142024906D02*
X355101218Y-141459221D01*
X355235905Y-141324534D01*
X355343654Y-141270659D01*
X355451404Y-141270659D01*
X355532216Y-141297597D01*
X355666903Y-141378409D01*
X355747715Y-141459221D01*
X355828528Y-141593908D01*
X355855465Y-141674720D01*
X355855465Y-141782470D01*
X355801590Y-141890219D01*
X355666903Y-142024906D01*
X354266158Y-129648155D02*
X354185346Y-129675093D01*
X354104534Y-129755905D01*
X354050659Y-129863654D01*
X354050659Y-129971404D01*
X354077597Y-130052216D01*
X354158409Y-130186903D01*
X354239221Y-130267715D01*
X354373908Y-130348528D01*
X354454720Y-130375465D01*
X354562470Y-130375465D01*
X354670219Y-130321590D01*
X354724094Y-130267715D01*
X354777969Y-130159966D01*
X354777969Y-130106091D01*
X354589407Y-129917529D01*
X354481658Y-130025279D01*
X355074280Y-129917529D02*
X354508595Y-129351844D01*
X355397529Y-129594280D01*
X354831844Y-129028595D01*
X355666903Y-129324906D02*
X355101218Y-128759221D01*
X355235905Y-128624534D01*
X355343654Y-128570659D01*
X355451404Y-128570659D01*
X355532216Y-128597597D01*
X355666903Y-128678409D01*
X355747715Y-128759221D01*
X355828528Y-128893908D01*
X355855465Y-128974720D01*
X355855465Y-129082470D01*
X355801590Y-129190219D01*
X355666903Y-129324906D01*
X354266158Y-116948155D02*
X354185346Y-116975093D01*
X354104534Y-117055905D01*
X354050659Y-117163654D01*
X354050659Y-117271404D01*
X354077597Y-117352216D01*
X354158409Y-117486903D01*
X354239221Y-117567715D01*
X354373908Y-117648528D01*
X354454720Y-117675465D01*
X354562470Y-117675465D01*
X354670219Y-117621590D01*
X354724094Y-117567715D01*
X354777969Y-117459966D01*
X354777969Y-117406091D01*
X354589407Y-117217529D01*
X354481658Y-117325279D01*
X355074280Y-117217529D02*
X354508595Y-116651844D01*
X355397529Y-116894280D01*
X354831844Y-116328595D01*
X355666903Y-116624906D02*
X355101218Y-116059221D01*
X355235905Y-115924534D01*
X355343654Y-115870659D01*
X355451404Y-115870659D01*
X355532216Y-115897597D01*
X355666903Y-115978409D01*
X355747715Y-116059221D01*
X355828528Y-116193908D01*
X355855465Y-116274720D01*
X355855465Y-116382470D01*
X355801590Y-116490219D01*
X355666903Y-116624906D01*
X354266158Y-104248155D02*
X354185346Y-104275093D01*
X354104534Y-104355905D01*
X354050659Y-104463654D01*
X354050659Y-104571404D01*
X354077597Y-104652216D01*
X354158409Y-104786903D01*
X354239221Y-104867715D01*
X354373908Y-104948528D01*
X354454720Y-104975465D01*
X354562470Y-104975465D01*
X354670219Y-104921590D01*
X354724094Y-104867715D01*
X354777969Y-104759966D01*
X354777969Y-104706091D01*
X354589407Y-104517529D01*
X354481658Y-104625279D01*
X355074280Y-104517529D02*
X354508595Y-103951844D01*
X355397529Y-104194280D01*
X354831844Y-103628595D01*
X355666903Y-103924906D02*
X355101218Y-103359221D01*
X355235905Y-103224534D01*
X355343654Y-103170659D01*
X355451404Y-103170659D01*
X355532216Y-103197597D01*
X355666903Y-103278409D01*
X355747715Y-103359221D01*
X355828528Y-103493908D01*
X355855465Y-103574720D01*
X355855465Y-103682470D01*
X355801590Y-103790219D01*
X355666903Y-103924906D01*
X379702131Y-107108308D02*
X380052317Y-106758122D01*
X380079255Y-107162183D01*
X380160067Y-107081370D01*
X380240879Y-107054433D01*
X380294754Y-107054433D01*
X380375566Y-107081370D01*
X380510253Y-107216057D01*
X380537190Y-107296870D01*
X380537190Y-107350744D01*
X380510253Y-107431557D01*
X380348629Y-107593181D01*
X380267816Y-107620118D01*
X380213942Y-107620118D01*
X380213942Y-106596497D02*
X380968189Y-106973621D01*
X380591065Y-106219374D01*
X380725752Y-106084687D02*
X381075938Y-105734500D01*
X381102876Y-106138561D01*
X381183688Y-106057749D01*
X381264500Y-106030812D01*
X381318375Y-106030812D01*
X381399187Y-106057749D01*
X381533874Y-106192436D01*
X381560812Y-106273248D01*
X381560812Y-106327123D01*
X381533874Y-106407935D01*
X381372250Y-106569560D01*
X381291438Y-106596497D01*
X381237563Y-106596497D01*
X381803248Y-106246311D02*
X382234247Y-105815312D01*
X382018748Y-105330439D02*
X382207309Y-105141877D01*
X382584433Y-105357377D02*
X382315059Y-105626751D01*
X381749374Y-105061065D01*
X382018748Y-104791691D01*
X382826870Y-105114940D02*
X382261184Y-104549255D01*
X383150118Y-104791691D01*
X382584433Y-104226006D01*
X379669847Y-109640592D02*
X380020033Y-109290406D01*
X380046971Y-109694467D01*
X380127783Y-109613654D01*
X380208595Y-109586717D01*
X380262470Y-109586717D01*
X380343282Y-109613654D01*
X380477969Y-109748341D01*
X380504906Y-109829154D01*
X380504906Y-109883028D01*
X380477969Y-109963841D01*
X380316345Y-110125465D01*
X380235532Y-110152402D01*
X380181658Y-110152402D01*
X380181658Y-109128781D02*
X380935905Y-109505905D01*
X380558781Y-108751658D01*
X380693468Y-108616971D02*
X381043654Y-108266784D01*
X381070592Y-108670845D01*
X381151404Y-108590033D01*
X381232216Y-108563096D01*
X381286091Y-108563096D01*
X381366903Y-108590033D01*
X381501590Y-108724720D01*
X381528528Y-108805532D01*
X381528528Y-108859407D01*
X381501590Y-108940219D01*
X381339966Y-109101844D01*
X381259154Y-109128781D01*
X381205279Y-109128781D01*
X379934788Y-112683773D02*
X380204162Y-112414399D01*
X380042537Y-112899272D02*
X379665414Y-112145025D01*
X380419661Y-112522149D01*
X380608223Y-112333587D02*
X380042537Y-111767902D01*
X380177224Y-111633215D01*
X380284974Y-111579340D01*
X380392723Y-111579340D01*
X380473536Y-111606277D01*
X380608223Y-111687089D01*
X380689035Y-111767902D01*
X380769847Y-111902589D01*
X380796784Y-111983401D01*
X380796784Y-112091150D01*
X380742910Y-112198900D01*
X380608223Y-112333587D01*
X381443282Y-111390778D02*
X381443282Y-111444653D01*
X381389407Y-111552402D01*
X381335532Y-111606277D01*
X381227783Y-111660152D01*
X381120033Y-111660152D01*
X381039221Y-111633215D01*
X380904534Y-111552402D01*
X380823722Y-111471590D01*
X380742910Y-111336903D01*
X380715972Y-111256091D01*
X380715972Y-111148341D01*
X380769847Y-111040592D01*
X380823722Y-110986717D01*
X380931471Y-110932842D01*
X380985346Y-110932842D01*
X381658781Y-111390778D02*
X382089780Y-110959780D01*
X381524094Y-110286345D02*
X382278341Y-110663468D01*
X381901218Y-109909221D01*
X382978714Y-109963096D02*
X382520778Y-109882284D01*
X382655465Y-110286345D02*
X382089780Y-109720659D01*
X382305279Y-109505160D01*
X382386091Y-109478223D01*
X382439966Y-109478223D01*
X382520778Y-109505160D01*
X382601590Y-109585972D01*
X382628528Y-109666784D01*
X382628528Y-109720659D01*
X382601590Y-109801471D01*
X382386091Y-110016971D01*
X382924839Y-109424348D02*
X383113401Y-109235786D01*
X383490524Y-109451285D02*
X383221150Y-109720659D01*
X382655465Y-109154974D01*
X382924839Y-108885600D01*
X383625211Y-108723975D02*
X383436650Y-108912537D01*
X383732961Y-109208849D02*
X383167276Y-108643163D01*
X383436650Y-108373789D01*
X379877722Y-114396592D02*
X379796910Y-114423529D01*
X379716097Y-114504341D01*
X379662223Y-114612091D01*
X379662223Y-114719841D01*
X379689160Y-114800653D01*
X379769972Y-114935340D01*
X379850784Y-115016152D01*
X379985471Y-115096964D01*
X380066284Y-115123902D01*
X380174033Y-115123902D01*
X380281783Y-115070027D01*
X380335658Y-115016152D01*
X380389532Y-114908402D01*
X380389532Y-114854528D01*
X380200971Y-114665966D01*
X380093221Y-114773715D01*
X380685844Y-114665966D02*
X380120158Y-114100280D01*
X380335658Y-113884781D01*
X380416470Y-113857844D01*
X380470345Y-113857844D01*
X380551157Y-113884781D01*
X380631969Y-113965593D01*
X380658906Y-114046406D01*
X380658906Y-114100280D01*
X380631969Y-114181093D01*
X380416470Y-114396592D01*
X380712781Y-113615407D02*
X380712781Y-113561532D01*
X380739719Y-113480720D01*
X380874406Y-113346033D01*
X380955218Y-113319096D01*
X381009093Y-113319096D01*
X381089905Y-113346033D01*
X381143780Y-113399908D01*
X381197654Y-113507658D01*
X381197654Y-114154155D01*
X381547841Y-113803969D01*
X381547841Y-113157471D02*
X381467028Y-113184409D01*
X381413154Y-113184409D01*
X381332341Y-113157471D01*
X381305404Y-113130534D01*
X381278467Y-113049722D01*
X381278467Y-112995847D01*
X381305404Y-112915035D01*
X381413154Y-112807285D01*
X381493966Y-112780348D01*
X381547841Y-112780348D01*
X381628653Y-112807285D01*
X381655590Y-112834223D01*
X381682528Y-112915035D01*
X381682528Y-112968910D01*
X381655590Y-113049722D01*
X381547841Y-113157471D01*
X381520903Y-113238284D01*
X381520903Y-113292158D01*
X381547841Y-113372971D01*
X381655590Y-113480720D01*
X381736402Y-113507658D01*
X381790277Y-113507658D01*
X381871089Y-113480720D01*
X381978839Y-113372971D01*
X382005776Y-113292158D01*
X382005776Y-113238284D01*
X381978839Y-113157471D01*
X381871089Y-113049722D01*
X381790277Y-113022784D01*
X381736402Y-113022784D01*
X381655590Y-113049722D01*
X379877722Y-119740592D02*
X379796910Y-119767529D01*
X379716097Y-119848341D01*
X379662223Y-119956091D01*
X379662223Y-120063841D01*
X379689160Y-120144653D01*
X379769972Y-120279340D01*
X379850784Y-120360152D01*
X379985471Y-120440964D01*
X380066284Y-120467902D01*
X380174033Y-120467902D01*
X380281783Y-120414027D01*
X380335658Y-120360152D01*
X380389532Y-120252402D01*
X380389532Y-120198528D01*
X380200971Y-120009966D01*
X380093221Y-120117715D01*
X380685844Y-120009966D02*
X380120158Y-119444280D01*
X380335658Y-119228781D01*
X380416470Y-119201844D01*
X380470345Y-119201844D01*
X380551157Y-119228781D01*
X380631969Y-119309593D01*
X380658906Y-119390406D01*
X380658906Y-119444280D01*
X380631969Y-119525093D01*
X380416470Y-119740592D01*
X380712781Y-118959407D02*
X380712781Y-118905532D01*
X380739719Y-118824720D01*
X380874406Y-118690033D01*
X380955218Y-118663096D01*
X381009093Y-118663096D01*
X381089905Y-118690033D01*
X381143780Y-118743908D01*
X381197654Y-118851658D01*
X381197654Y-119498155D01*
X381547841Y-119147969D01*
X381170717Y-118393722D02*
X381547841Y-118016598D01*
X381871089Y-118824720D01*
X379877722Y-122270592D02*
X379796910Y-122297529D01*
X379716097Y-122378341D01*
X379662223Y-122486091D01*
X379662223Y-122593841D01*
X379689160Y-122674653D01*
X379769972Y-122809340D01*
X379850784Y-122890152D01*
X379985471Y-122970964D01*
X380066284Y-122997902D01*
X380174033Y-122997902D01*
X380281783Y-122944027D01*
X380335658Y-122890152D01*
X380389532Y-122782402D01*
X380389532Y-122728528D01*
X380200971Y-122539966D01*
X380093221Y-122647715D01*
X380685844Y-122539966D02*
X380120158Y-121974280D01*
X380335658Y-121758781D01*
X380416470Y-121731844D01*
X380470345Y-121731844D01*
X380551157Y-121758781D01*
X380631969Y-121839593D01*
X380658906Y-121920406D01*
X380658906Y-121974280D01*
X380631969Y-122055093D01*
X380416470Y-122270592D01*
X380712781Y-121489407D02*
X380712781Y-121435532D01*
X380739719Y-121354720D01*
X380874406Y-121220033D01*
X380955218Y-121193096D01*
X381009093Y-121193096D01*
X381089905Y-121220033D01*
X381143780Y-121273908D01*
X381197654Y-121381658D01*
X381197654Y-122028155D01*
X381547841Y-121677969D01*
X381467028Y-120627410D02*
X381359279Y-120735160D01*
X381332341Y-120815972D01*
X381332341Y-120869847D01*
X381359279Y-121004534D01*
X381440091Y-121139221D01*
X381655590Y-121354720D01*
X381736402Y-121381658D01*
X381790277Y-121381658D01*
X381871089Y-121354720D01*
X381978839Y-121246971D01*
X382005776Y-121166158D01*
X382005776Y-121112284D01*
X381978839Y-121031471D01*
X381844152Y-120896784D01*
X381763340Y-120869847D01*
X381709465Y-120869847D01*
X381628653Y-120896784D01*
X381520903Y-121004534D01*
X381493966Y-121085346D01*
X381493966Y-121139221D01*
X381520903Y-121220033D01*
X380618375Y-125093435D02*
X380160439Y-125012622D01*
X380295126Y-125416683D02*
X379729441Y-124850998D01*
X379944940Y-124635499D01*
X380025752Y-124608561D01*
X380079627Y-124608561D01*
X380160439Y-124635499D01*
X380241251Y-124716311D01*
X380268189Y-124797123D01*
X380268189Y-124850998D01*
X380241251Y-124931810D01*
X380025752Y-125147309D01*
X380295126Y-124285312D02*
X380753062Y-124743248D01*
X380833874Y-124770186D01*
X380887749Y-124770186D01*
X380968561Y-124743248D01*
X381076311Y-124635499D01*
X381103248Y-124554687D01*
X381103248Y-124500812D01*
X381076311Y-124419999D01*
X380618375Y-123962064D01*
X381453435Y-124258375D02*
X380887749Y-123692690D01*
X381776683Y-123935126D01*
X381210998Y-123369441D01*
X379877722Y-127350592D02*
X379796910Y-127377529D01*
X379716097Y-127458341D01*
X379662223Y-127566091D01*
X379662223Y-127673841D01*
X379689160Y-127754653D01*
X379769972Y-127889340D01*
X379850784Y-127970152D01*
X379985471Y-128050964D01*
X380066284Y-128077902D01*
X380174033Y-128077902D01*
X380281783Y-128024027D01*
X380335658Y-127970152D01*
X380389532Y-127862402D01*
X380389532Y-127808528D01*
X380200971Y-127619966D01*
X380093221Y-127727715D01*
X380685844Y-127619966D02*
X380120158Y-127054280D01*
X380335658Y-126838781D01*
X380416470Y-126811844D01*
X380470345Y-126811844D01*
X380551157Y-126838781D01*
X380631969Y-126919593D01*
X380658906Y-127000406D01*
X380658906Y-127054280D01*
X380631969Y-127135093D01*
X380416470Y-127350592D01*
X380712781Y-126569407D02*
X380712781Y-126515532D01*
X380739719Y-126434720D01*
X380874406Y-126300033D01*
X380955218Y-126273096D01*
X381009093Y-126273096D01*
X381089905Y-126300033D01*
X381143780Y-126353908D01*
X381197654Y-126461658D01*
X381197654Y-127108155D01*
X381547841Y-126757969D01*
X381251529Y-126030659D02*
X381251529Y-125976784D01*
X381278467Y-125895972D01*
X381413154Y-125761285D01*
X381493966Y-125734348D01*
X381547841Y-125734348D01*
X381628653Y-125761285D01*
X381682528Y-125815160D01*
X381736402Y-125922910D01*
X381736402Y-126569407D01*
X382086589Y-126219221D01*
X379877722Y-132440592D02*
X379796910Y-132467529D01*
X379716097Y-132548341D01*
X379662223Y-132656091D01*
X379662223Y-132763841D01*
X379689160Y-132844653D01*
X379769972Y-132979340D01*
X379850784Y-133060152D01*
X379985471Y-133140964D01*
X380066284Y-133167902D01*
X380174033Y-133167902D01*
X380281783Y-133114027D01*
X380335658Y-133060152D01*
X380389532Y-132952402D01*
X380389532Y-132898528D01*
X380200971Y-132709966D01*
X380093221Y-132817715D01*
X380685844Y-132709966D02*
X380120158Y-132144280D01*
X380335658Y-131928781D01*
X380416470Y-131901844D01*
X380470345Y-131901844D01*
X380551157Y-131928781D01*
X380631969Y-132009593D01*
X380658906Y-132090406D01*
X380658906Y-132144280D01*
X380631969Y-132225093D01*
X380416470Y-132440592D01*
X380712781Y-131659407D02*
X380712781Y-131605532D01*
X380739719Y-131524720D01*
X380874406Y-131390033D01*
X380955218Y-131363096D01*
X381009093Y-131363096D01*
X381089905Y-131390033D01*
X381143780Y-131443908D01*
X381197654Y-131551658D01*
X381197654Y-132198155D01*
X381547841Y-131847969D01*
X382086589Y-131309221D02*
X381763340Y-131632470D01*
X381924964Y-131470845D02*
X381359279Y-130905160D01*
X381386216Y-131039847D01*
X381386216Y-131147597D01*
X381359279Y-131228409D01*
X379877722Y-134970592D02*
X379796910Y-134997529D01*
X379716097Y-135078341D01*
X379662223Y-135186091D01*
X379662223Y-135293841D01*
X379689160Y-135374653D01*
X379769972Y-135509340D01*
X379850784Y-135590152D01*
X379985471Y-135670964D01*
X380066284Y-135697902D01*
X380174033Y-135697902D01*
X380281783Y-135644027D01*
X380335658Y-135590152D01*
X380389532Y-135482402D01*
X380389532Y-135428528D01*
X380200971Y-135239966D01*
X380093221Y-135347715D01*
X380685844Y-135239966D02*
X380120158Y-134674280D01*
X380335658Y-134458781D01*
X380416470Y-134431844D01*
X380470345Y-134431844D01*
X380551157Y-134458781D01*
X380631969Y-134539593D01*
X380658906Y-134620406D01*
X380658906Y-134674280D01*
X380631969Y-134755093D01*
X380416470Y-134970592D01*
X380712781Y-134189407D02*
X380712781Y-134135532D01*
X380739719Y-134054720D01*
X380874406Y-133920033D01*
X380955218Y-133893096D01*
X381009093Y-133893096D01*
X381089905Y-133920033D01*
X381143780Y-133973908D01*
X381197654Y-134081658D01*
X381197654Y-134728155D01*
X381547841Y-134377969D01*
X381332341Y-133462097D02*
X381386216Y-133408223D01*
X381467028Y-133381285D01*
X381520903Y-133381285D01*
X381601715Y-133408223D01*
X381736402Y-133489035D01*
X381871089Y-133623722D01*
X381951902Y-133758409D01*
X381978839Y-133839221D01*
X381978839Y-133893096D01*
X381951902Y-133973908D01*
X381898027Y-134027783D01*
X381817215Y-134054720D01*
X381763340Y-134054720D01*
X381682528Y-134027783D01*
X381547841Y-133946971D01*
X381413154Y-133812284D01*
X381332341Y-133677597D01*
X381305404Y-133596784D01*
X381305404Y-133542910D01*
X381332341Y-133462097D01*
X379877722Y-137510592D02*
X379796910Y-137537529D01*
X379716097Y-137618341D01*
X379662223Y-137726091D01*
X379662223Y-137833841D01*
X379689160Y-137914653D01*
X379769972Y-138049340D01*
X379850784Y-138130152D01*
X379985471Y-138210964D01*
X380066284Y-138237902D01*
X380174033Y-138237902D01*
X380281783Y-138184027D01*
X380335658Y-138130152D01*
X380389532Y-138022402D01*
X380389532Y-137968528D01*
X380200971Y-137779966D01*
X380093221Y-137887715D01*
X380685844Y-137779966D02*
X380120158Y-137214280D01*
X380335658Y-136998781D01*
X380416470Y-136971844D01*
X380470345Y-136971844D01*
X380551157Y-136998781D01*
X380631969Y-137079593D01*
X380658906Y-137160406D01*
X380658906Y-137214280D01*
X380631969Y-137295093D01*
X380416470Y-137510592D01*
X381547841Y-136917969D02*
X381224592Y-137241218D01*
X381386216Y-137079593D02*
X380820531Y-136513908D01*
X380847468Y-136648595D01*
X380847468Y-136756345D01*
X380820531Y-136837157D01*
X381817215Y-136648595D02*
X381924964Y-136540845D01*
X381951902Y-136460033D01*
X381951902Y-136406158D01*
X381924964Y-136271471D01*
X381844152Y-136136784D01*
X381628653Y-135921285D01*
X381547841Y-135894348D01*
X381493966Y-135894348D01*
X381413154Y-135921285D01*
X381305404Y-136029035D01*
X381278467Y-136109847D01*
X381278467Y-136163722D01*
X381305404Y-136244534D01*
X381440091Y-136379221D01*
X381520903Y-136406158D01*
X381574778Y-136406158D01*
X381655590Y-136379221D01*
X381763340Y-136271471D01*
X381790277Y-136190659D01*
X381790277Y-136136784D01*
X381763340Y-136055972D01*
X379877722Y-140050592D02*
X379796910Y-140077529D01*
X379716097Y-140158341D01*
X379662223Y-140266091D01*
X379662223Y-140373841D01*
X379689160Y-140454653D01*
X379769972Y-140589340D01*
X379850784Y-140670152D01*
X379985471Y-140750964D01*
X380066284Y-140777902D01*
X380174033Y-140777902D01*
X380281783Y-140724027D01*
X380335658Y-140670152D01*
X380389532Y-140562402D01*
X380389532Y-140508528D01*
X380200971Y-140319966D01*
X380093221Y-140427715D01*
X380685844Y-140319966D02*
X380120158Y-139754280D01*
X380335658Y-139538781D01*
X380416470Y-139511844D01*
X380470345Y-139511844D01*
X380551157Y-139538781D01*
X380631969Y-139619593D01*
X380658906Y-139700406D01*
X380658906Y-139754280D01*
X380631969Y-139835093D01*
X380416470Y-140050592D01*
X381547841Y-139457969D02*
X381224592Y-139781218D01*
X381386216Y-139619593D02*
X380820531Y-139053908D01*
X380847468Y-139188595D01*
X380847468Y-139296345D01*
X380820531Y-139377157D01*
X381547841Y-138811471D02*
X381467028Y-138838409D01*
X381413154Y-138838409D01*
X381332341Y-138811471D01*
X381305404Y-138784534D01*
X381278467Y-138703722D01*
X381278467Y-138649847D01*
X381305404Y-138569035D01*
X381413154Y-138461285D01*
X381493966Y-138434348D01*
X381547841Y-138434348D01*
X381628653Y-138461285D01*
X381655590Y-138488223D01*
X381682528Y-138569035D01*
X381682528Y-138622910D01*
X381655590Y-138703722D01*
X381547841Y-138811471D01*
X381520903Y-138892284D01*
X381520903Y-138946158D01*
X381547841Y-139026971D01*
X381655590Y-139134720D01*
X381736402Y-139161658D01*
X381790277Y-139161658D01*
X381871089Y-139134720D01*
X381978839Y-139026971D01*
X382005776Y-138946158D01*
X382005776Y-138892284D01*
X381978839Y-138811471D01*
X381871089Y-138703722D01*
X381790277Y-138676784D01*
X381736402Y-138676784D01*
X381655590Y-138703722D01*
X379877722Y-145130592D02*
X379796910Y-145157529D01*
X379716097Y-145238341D01*
X379662223Y-145346091D01*
X379662223Y-145453841D01*
X379689160Y-145534653D01*
X379769972Y-145669340D01*
X379850784Y-145750152D01*
X379985471Y-145830964D01*
X380066284Y-145857902D01*
X380174033Y-145857902D01*
X380281783Y-145804027D01*
X380335658Y-145750152D01*
X380389532Y-145642402D01*
X380389532Y-145588528D01*
X380200971Y-145399966D01*
X380093221Y-145507715D01*
X380685844Y-145399966D02*
X380120158Y-144834280D01*
X380335658Y-144618781D01*
X380416470Y-144591844D01*
X380470345Y-144591844D01*
X380551157Y-144618781D01*
X380631969Y-144699593D01*
X380658906Y-144780406D01*
X380658906Y-144834280D01*
X380631969Y-144915093D01*
X380416470Y-145130592D01*
X381547841Y-144537969D02*
X381224592Y-144861218D01*
X381386216Y-144699593D02*
X380820531Y-144133908D01*
X380847468Y-144268595D01*
X380847468Y-144376345D01*
X380820531Y-144457157D01*
X381170717Y-143783722D02*
X381547841Y-143406598D01*
X381871089Y-144214720D01*
X379877722Y-147670592D02*
X379796910Y-147697529D01*
X379716097Y-147778341D01*
X379662223Y-147886091D01*
X379662223Y-147993841D01*
X379689160Y-148074653D01*
X379769972Y-148209340D01*
X379850784Y-148290152D01*
X379985471Y-148370964D01*
X380066284Y-148397902D01*
X380174033Y-148397902D01*
X380281783Y-148344027D01*
X380335658Y-148290152D01*
X380389532Y-148182402D01*
X380389532Y-148128528D01*
X380200971Y-147939966D01*
X380093221Y-148047715D01*
X380685844Y-147939966D02*
X380120158Y-147374280D01*
X380335658Y-147158781D01*
X380416470Y-147131844D01*
X380470345Y-147131844D01*
X380551157Y-147158781D01*
X380631969Y-147239593D01*
X380658906Y-147320406D01*
X380658906Y-147374280D01*
X380631969Y-147455093D01*
X380416470Y-147670592D01*
X381547841Y-147077969D02*
X381224592Y-147401218D01*
X381386216Y-147239593D02*
X380820531Y-146673908D01*
X380847468Y-146808595D01*
X380847468Y-146916345D01*
X380820531Y-146997157D01*
X381467028Y-146027410D02*
X381359279Y-146135160D01*
X381332341Y-146215972D01*
X381332341Y-146269847D01*
X381359279Y-146404534D01*
X381440091Y-146539221D01*
X381655590Y-146754720D01*
X381736402Y-146781658D01*
X381790277Y-146781658D01*
X381871089Y-146754720D01*
X381978839Y-146646971D01*
X382005776Y-146566158D01*
X382005776Y-146512284D01*
X381978839Y-146431471D01*
X381844152Y-146296784D01*
X381763340Y-146269847D01*
X381709465Y-146269847D01*
X381628653Y-146296784D01*
X381520903Y-146404534D01*
X381493966Y-146485346D01*
X381493966Y-146539221D01*
X381520903Y-146620033D01*
X353769722Y-147670592D02*
X353688910Y-147697529D01*
X353608097Y-147778341D01*
X353554223Y-147886091D01*
X353554223Y-147993841D01*
X353581160Y-148074653D01*
X353661972Y-148209340D01*
X353742784Y-148290152D01*
X353877471Y-148370964D01*
X353958284Y-148397902D01*
X354066033Y-148397902D01*
X354173783Y-148344027D01*
X354227658Y-148290152D01*
X354281532Y-148182402D01*
X354281532Y-148128528D01*
X354092971Y-147939966D01*
X353985221Y-148047715D01*
X354577844Y-147939966D02*
X354012158Y-147374280D01*
X354227658Y-147158781D01*
X354308470Y-147131844D01*
X354362345Y-147131844D01*
X354443157Y-147158781D01*
X354523969Y-147239593D01*
X354550906Y-147320406D01*
X354550906Y-147374280D01*
X354523969Y-147455093D01*
X354308470Y-147670592D01*
X355439841Y-147077969D02*
X355116592Y-147401218D01*
X355278216Y-147239593D02*
X354712531Y-146673908D01*
X354739468Y-146808595D01*
X354739468Y-146916345D01*
X354712531Y-146997157D01*
X355385966Y-146000473D02*
X355116592Y-146269847D01*
X355359028Y-146566158D01*
X355359028Y-146512284D01*
X355385966Y-146431471D01*
X355520653Y-146296784D01*
X355601465Y-146269847D01*
X355655340Y-146269847D01*
X355736152Y-146296784D01*
X355870839Y-146431471D01*
X355897776Y-146512284D01*
X355897776Y-146566158D01*
X355870839Y-146646971D01*
X355736152Y-146781658D01*
X355655340Y-146808595D01*
X355601465Y-146808595D01*
X353723722Y-145130592D02*
X353642910Y-145157529D01*
X353562097Y-145238341D01*
X353508223Y-145346091D01*
X353508223Y-145453841D01*
X353535160Y-145534653D01*
X353615972Y-145669340D01*
X353696784Y-145750152D01*
X353831471Y-145830964D01*
X353912284Y-145857902D01*
X354020033Y-145857902D01*
X354127783Y-145804027D01*
X354181658Y-145750152D01*
X354235532Y-145642402D01*
X354235532Y-145588528D01*
X354046971Y-145399966D01*
X353939221Y-145507715D01*
X354531844Y-145399966D02*
X353966158Y-144834280D01*
X354181658Y-144618781D01*
X354262470Y-144591844D01*
X354316345Y-144591844D01*
X354397157Y-144618781D01*
X354477969Y-144699593D01*
X354504906Y-144780406D01*
X354504906Y-144834280D01*
X354477969Y-144915093D01*
X354262470Y-145130592D01*
X355393841Y-144537969D02*
X355070592Y-144861218D01*
X355232216Y-144699593D02*
X354666531Y-144133908D01*
X354693468Y-144268595D01*
X354693468Y-144376345D01*
X354666531Y-144457157D01*
X355501590Y-143675972D02*
X355878714Y-144053096D01*
X355151404Y-143595160D02*
X355420778Y-144133908D01*
X355770964Y-143783722D01*
X353769722Y-140050592D02*
X353688910Y-140077529D01*
X353608097Y-140158341D01*
X353554223Y-140266091D01*
X353554223Y-140373841D01*
X353581160Y-140454653D01*
X353661972Y-140589340D01*
X353742784Y-140670152D01*
X353877471Y-140750964D01*
X353958284Y-140777902D01*
X354066033Y-140777902D01*
X354173783Y-140724027D01*
X354227658Y-140670152D01*
X354281532Y-140562402D01*
X354281532Y-140508528D01*
X354092971Y-140319966D01*
X353985221Y-140427715D01*
X354577844Y-140319966D02*
X354012158Y-139754280D01*
X354227658Y-139538781D01*
X354308470Y-139511844D01*
X354362345Y-139511844D01*
X354443157Y-139538781D01*
X354523969Y-139619593D01*
X354550906Y-139700406D01*
X354550906Y-139754280D01*
X354523969Y-139835093D01*
X354308470Y-140050592D01*
X355439841Y-139457969D02*
X355116592Y-139781218D01*
X355278216Y-139619593D02*
X354712531Y-139053908D01*
X354739468Y-139188595D01*
X354739468Y-139296345D01*
X354712531Y-139377157D01*
X355062717Y-138703722D02*
X355412903Y-138353536D01*
X355439841Y-138757597D01*
X355520653Y-138676784D01*
X355601465Y-138649847D01*
X355655340Y-138649847D01*
X355736152Y-138676784D01*
X355870839Y-138811471D01*
X355897776Y-138892284D01*
X355897776Y-138946158D01*
X355870839Y-139026971D01*
X355709215Y-139188595D01*
X355628402Y-139215532D01*
X355574528Y-139215532D01*
X353623722Y-137510592D02*
X353542910Y-137537529D01*
X353462097Y-137618341D01*
X353408223Y-137726091D01*
X353408223Y-137833841D01*
X353435160Y-137914653D01*
X353515972Y-138049340D01*
X353596784Y-138130152D01*
X353731471Y-138210964D01*
X353812284Y-138237902D01*
X353920033Y-138237902D01*
X354027783Y-138184027D01*
X354081658Y-138130152D01*
X354135532Y-138022402D01*
X354135532Y-137968528D01*
X353946971Y-137779966D01*
X353839221Y-137887715D01*
X354431844Y-137779966D02*
X353866158Y-137214280D01*
X354081658Y-136998781D01*
X354162470Y-136971844D01*
X354216345Y-136971844D01*
X354297157Y-136998781D01*
X354377969Y-137079593D01*
X354404906Y-137160406D01*
X354404906Y-137214280D01*
X354377969Y-137295093D01*
X354162470Y-137510592D01*
X355293841Y-136917969D02*
X354970592Y-137241218D01*
X355132216Y-137079593D02*
X354566531Y-136513908D01*
X354593468Y-136648595D01*
X354593468Y-136756345D01*
X354566531Y-136837157D01*
X354997529Y-136190659D02*
X354997529Y-136136784D01*
X355024467Y-136055972D01*
X355159154Y-135921285D01*
X355239966Y-135894348D01*
X355293841Y-135894348D01*
X355374653Y-135921285D01*
X355428528Y-135975160D01*
X355482402Y-136082910D01*
X355482402Y-136729407D01*
X355832589Y-136379221D01*
X353623722Y-134970592D02*
X353542910Y-134997529D01*
X353462097Y-135078341D01*
X353408223Y-135186091D01*
X353408223Y-135293841D01*
X353435160Y-135374653D01*
X353515972Y-135509340D01*
X353596784Y-135590152D01*
X353731471Y-135670964D01*
X353812284Y-135697902D01*
X353920033Y-135697902D01*
X354027783Y-135644027D01*
X354081658Y-135590152D01*
X354135532Y-135482402D01*
X354135532Y-135428528D01*
X353946971Y-135239966D01*
X353839221Y-135347715D01*
X354431844Y-135239966D02*
X353866158Y-134674280D01*
X354081658Y-134458781D01*
X354162470Y-134431844D01*
X354216345Y-134431844D01*
X354297157Y-134458781D01*
X354377969Y-134539593D01*
X354404906Y-134620406D01*
X354404906Y-134674280D01*
X354377969Y-134755093D01*
X354162470Y-134970592D01*
X355293841Y-134377969D02*
X354970592Y-134701218D01*
X355132216Y-134539593D02*
X354566531Y-133973908D01*
X354593468Y-134108595D01*
X354593468Y-134216345D01*
X354566531Y-134297157D01*
X355832589Y-133839221D02*
X355509340Y-134162470D01*
X355670964Y-134000845D02*
X355105279Y-133435160D01*
X355132216Y-133569847D01*
X355132216Y-133677597D01*
X355105279Y-133758409D01*
X353769722Y-132430592D02*
X353688910Y-132457529D01*
X353608097Y-132538341D01*
X353554223Y-132646091D01*
X353554223Y-132753841D01*
X353581160Y-132834653D01*
X353661972Y-132969340D01*
X353742784Y-133050152D01*
X353877471Y-133130964D01*
X353958284Y-133157902D01*
X354066033Y-133157902D01*
X354173783Y-133104027D01*
X354227658Y-133050152D01*
X354281532Y-132942402D01*
X354281532Y-132888528D01*
X354092971Y-132699966D01*
X353985221Y-132807715D01*
X354577844Y-132699966D02*
X354012158Y-132134280D01*
X354227658Y-131918781D01*
X354308470Y-131891844D01*
X354362345Y-131891844D01*
X354443157Y-131918781D01*
X354523969Y-131999593D01*
X354550906Y-132080406D01*
X354550906Y-132134280D01*
X354523969Y-132215093D01*
X354308470Y-132430592D01*
X355439841Y-131837969D02*
X355116592Y-132161218D01*
X355278216Y-131999593D02*
X354712531Y-131433908D01*
X354739468Y-131568595D01*
X354739468Y-131676345D01*
X354712531Y-131757157D01*
X355224341Y-130922097D02*
X355278216Y-130868223D01*
X355359028Y-130841285D01*
X355412903Y-130841285D01*
X355493715Y-130868223D01*
X355628402Y-130949035D01*
X355763089Y-131083722D01*
X355843902Y-131218409D01*
X355870839Y-131299221D01*
X355870839Y-131353096D01*
X355843902Y-131433908D01*
X355790027Y-131487783D01*
X355709215Y-131514720D01*
X355655340Y-131514720D01*
X355574528Y-131487783D01*
X355439841Y-131406971D01*
X355305154Y-131272284D01*
X355224341Y-131137597D01*
X355197404Y-131056784D01*
X355197404Y-131002910D01*
X355224341Y-130922097D01*
X354293096Y-127081218D02*
X354212284Y-127108155D01*
X354131471Y-127188967D01*
X354077597Y-127296717D01*
X354077597Y-127404467D01*
X354104534Y-127485279D01*
X354185346Y-127619966D01*
X354266158Y-127700778D01*
X354400845Y-127781590D01*
X354481658Y-127808528D01*
X354589407Y-127808528D01*
X354697157Y-127754653D01*
X354751032Y-127700778D01*
X354804906Y-127593028D01*
X354804906Y-127539154D01*
X354616345Y-127350592D01*
X354508595Y-127458341D01*
X355101218Y-127350592D02*
X354535532Y-126784906D01*
X354751032Y-126569407D01*
X354831844Y-126542470D01*
X354885719Y-126542470D01*
X354966531Y-126569407D01*
X355047343Y-126650219D01*
X355074280Y-126731032D01*
X355074280Y-126784906D01*
X355047343Y-126865719D01*
X354831844Y-127081218D01*
X355693841Y-126757969D02*
X355801590Y-126650219D01*
X355828528Y-126569407D01*
X355828528Y-126515532D01*
X355801590Y-126380845D01*
X355720778Y-126246158D01*
X355505279Y-126030659D01*
X355424467Y-126003722D01*
X355370592Y-126003722D01*
X355289780Y-126030659D01*
X355182030Y-126138409D01*
X355155093Y-126219221D01*
X355155093Y-126273096D01*
X355182030Y-126353908D01*
X355316717Y-126488595D01*
X355397529Y-126515532D01*
X355451404Y-126515532D01*
X355532216Y-126488595D01*
X355639966Y-126380845D01*
X355666903Y-126300033D01*
X355666903Y-126246158D01*
X355639966Y-126165346D01*
X354293096Y-124541218D02*
X354212284Y-124568155D01*
X354131471Y-124648967D01*
X354077597Y-124756717D01*
X354077597Y-124864467D01*
X354104534Y-124945279D01*
X354185346Y-125079966D01*
X354266158Y-125160778D01*
X354400845Y-125241590D01*
X354481658Y-125268528D01*
X354589407Y-125268528D01*
X354697157Y-125214653D01*
X354751032Y-125160778D01*
X354804906Y-125053028D01*
X354804906Y-124999154D01*
X354616345Y-124810592D01*
X354508595Y-124918341D01*
X355101218Y-124810592D02*
X354535532Y-124244906D01*
X354751032Y-124029407D01*
X354831844Y-124002470D01*
X354885719Y-124002470D01*
X354966531Y-124029407D01*
X355047343Y-124110219D01*
X355074280Y-124191032D01*
X355074280Y-124244906D01*
X355047343Y-124325719D01*
X354831844Y-124541218D01*
X355424467Y-123840845D02*
X355343654Y-123867783D01*
X355289780Y-123867783D01*
X355208967Y-123840845D01*
X355182030Y-123813908D01*
X355155093Y-123733096D01*
X355155093Y-123679221D01*
X355182030Y-123598409D01*
X355289780Y-123490659D01*
X355370592Y-123463722D01*
X355424467Y-123463722D01*
X355505279Y-123490659D01*
X355532216Y-123517597D01*
X355559154Y-123598409D01*
X355559154Y-123652284D01*
X355532216Y-123733096D01*
X355424467Y-123840845D01*
X355397529Y-123921658D01*
X355397529Y-123975532D01*
X355424467Y-124056345D01*
X355532216Y-124164094D01*
X355613028Y-124191032D01*
X355666903Y-124191032D01*
X355747715Y-124164094D01*
X355855465Y-124056345D01*
X355882402Y-123975532D01*
X355882402Y-123921658D01*
X355855465Y-123840845D01*
X355747715Y-123733096D01*
X355666903Y-123706158D01*
X355613028Y-123706158D01*
X355532216Y-123733096D01*
X354393096Y-121971218D02*
X354312284Y-121998155D01*
X354231471Y-122078967D01*
X354177597Y-122186717D01*
X354177597Y-122294467D01*
X354204534Y-122375279D01*
X354285346Y-122509966D01*
X354366158Y-122590778D01*
X354500845Y-122671590D01*
X354581658Y-122698528D01*
X354689407Y-122698528D01*
X354797157Y-122644653D01*
X354851032Y-122590778D01*
X354904906Y-122483028D01*
X354904906Y-122429154D01*
X354716345Y-122240592D01*
X354608595Y-122348341D01*
X355201218Y-122240592D02*
X354635532Y-121674906D01*
X354851032Y-121459407D01*
X354931844Y-121432470D01*
X354985719Y-121432470D01*
X355066531Y-121459407D01*
X355147343Y-121540219D01*
X355174280Y-121621032D01*
X355174280Y-121674906D01*
X355147343Y-121755719D01*
X354931844Y-121971218D01*
X355147343Y-121163096D02*
X355524467Y-120785972D01*
X355847715Y-121594094D01*
X354293096Y-119461218D02*
X354212284Y-119488155D01*
X354131471Y-119568967D01*
X354077597Y-119676717D01*
X354077597Y-119784467D01*
X354104534Y-119865279D01*
X354185346Y-119999966D01*
X354266158Y-120080778D01*
X354400845Y-120161590D01*
X354481658Y-120188528D01*
X354589407Y-120188528D01*
X354697157Y-120134653D01*
X354751032Y-120080778D01*
X354804906Y-119973028D01*
X354804906Y-119919154D01*
X354616345Y-119730592D01*
X354508595Y-119838341D01*
X355101218Y-119730592D02*
X354535532Y-119164906D01*
X354751032Y-118949407D01*
X354831844Y-118922470D01*
X354885719Y-118922470D01*
X354966531Y-118949407D01*
X355047343Y-119030219D01*
X355074280Y-119111032D01*
X355074280Y-119164906D01*
X355047343Y-119245719D01*
X354831844Y-119461218D01*
X355343654Y-118356784D02*
X355235905Y-118464534D01*
X355208967Y-118545346D01*
X355208967Y-118599221D01*
X355235905Y-118733908D01*
X355316717Y-118868595D01*
X355532216Y-119084094D01*
X355613028Y-119111032D01*
X355666903Y-119111032D01*
X355747715Y-119084094D01*
X355855465Y-118976345D01*
X355882402Y-118895532D01*
X355882402Y-118841658D01*
X355855465Y-118760845D01*
X355720778Y-118626158D01*
X355639966Y-118599221D01*
X355586091Y-118599221D01*
X355505279Y-118626158D01*
X355397529Y-118733908D01*
X355370592Y-118814720D01*
X355370592Y-118868595D01*
X355397529Y-118949407D01*
X354293096Y-114381218D02*
X354212284Y-114408155D01*
X354131471Y-114488967D01*
X354077597Y-114596717D01*
X354077597Y-114704467D01*
X354104534Y-114785279D01*
X354185346Y-114919966D01*
X354266158Y-115000778D01*
X354400845Y-115081590D01*
X354481658Y-115108528D01*
X354589407Y-115108528D01*
X354697157Y-115054653D01*
X354751032Y-115000778D01*
X354804906Y-114893028D01*
X354804906Y-114839154D01*
X354616345Y-114650592D01*
X354508595Y-114758341D01*
X355101218Y-114650592D02*
X354535532Y-114084906D01*
X354751032Y-113869407D01*
X354831844Y-113842470D01*
X354885719Y-113842470D01*
X354966531Y-113869407D01*
X355047343Y-113950219D01*
X355074280Y-114031032D01*
X355074280Y-114084906D01*
X355047343Y-114165719D01*
X354831844Y-114381218D01*
X355370592Y-113249847D02*
X355101218Y-113519221D01*
X355343654Y-113815532D01*
X355343654Y-113761658D01*
X355370592Y-113680845D01*
X355505279Y-113546158D01*
X355586091Y-113519221D01*
X355639966Y-113519221D01*
X355720778Y-113546158D01*
X355855465Y-113680845D01*
X355882402Y-113761658D01*
X355882402Y-113815532D01*
X355855465Y-113896345D01*
X355720778Y-114031032D01*
X355639966Y-114057969D01*
X355586091Y-114057969D01*
X354293096Y-111841218D02*
X354212284Y-111868155D01*
X354131471Y-111948967D01*
X354077597Y-112056717D01*
X354077597Y-112164467D01*
X354104534Y-112245279D01*
X354185346Y-112379966D01*
X354266158Y-112460778D01*
X354400845Y-112541590D01*
X354481658Y-112568528D01*
X354589407Y-112568528D01*
X354697157Y-112514653D01*
X354751032Y-112460778D01*
X354804906Y-112353028D01*
X354804906Y-112299154D01*
X354616345Y-112110592D01*
X354508595Y-112218341D01*
X355101218Y-112110592D02*
X354535532Y-111544906D01*
X354751032Y-111329407D01*
X354831844Y-111302470D01*
X354885719Y-111302470D01*
X354966531Y-111329407D01*
X355047343Y-111410219D01*
X355074280Y-111491032D01*
X355074280Y-111544906D01*
X355047343Y-111625719D01*
X354831844Y-111841218D01*
X355532216Y-110925346D02*
X355909340Y-111302470D01*
X355182030Y-110844534D02*
X355451404Y-111383282D01*
X355801590Y-111033096D01*
X354293096Y-109301218D02*
X354212284Y-109328155D01*
X354131471Y-109408967D01*
X354077597Y-109516717D01*
X354077597Y-109624467D01*
X354104534Y-109705279D01*
X354185346Y-109839966D01*
X354266158Y-109920778D01*
X354400845Y-110001590D01*
X354481658Y-110028528D01*
X354589407Y-110028528D01*
X354697157Y-109974653D01*
X354751032Y-109920778D01*
X354804906Y-109813028D01*
X354804906Y-109759154D01*
X354616345Y-109570592D01*
X354508595Y-109678341D01*
X355101218Y-109570592D02*
X354535532Y-109004906D01*
X354751032Y-108789407D01*
X354831844Y-108762470D01*
X354885719Y-108762470D01*
X354966531Y-108789407D01*
X355047343Y-108870219D01*
X355074280Y-108951032D01*
X355074280Y-109004906D01*
X355047343Y-109085719D01*
X354831844Y-109301218D01*
X355047343Y-108493096D02*
X355397529Y-108142910D01*
X355424467Y-108546971D01*
X355505279Y-108466158D01*
X355586091Y-108439221D01*
X355639966Y-108439221D01*
X355720778Y-108466158D01*
X355855465Y-108600845D01*
X355882402Y-108681658D01*
X355882402Y-108735532D01*
X355855465Y-108816345D01*
X355693841Y-108977969D01*
X355613028Y-109004906D01*
X355559154Y-109004906D01*
X354293096Y-99141218D02*
X354212284Y-99168155D01*
X354131471Y-99248967D01*
X354077597Y-99356717D01*
X354077597Y-99464467D01*
X354104534Y-99545279D01*
X354185346Y-99679966D01*
X354266158Y-99760778D01*
X354400845Y-99841590D01*
X354481658Y-99868528D01*
X354589407Y-99868528D01*
X354697157Y-99814653D01*
X354751032Y-99760778D01*
X354804906Y-99653028D01*
X354804906Y-99599154D01*
X354616345Y-99410592D01*
X354508595Y-99518341D01*
X355101218Y-99410592D02*
X354535532Y-98844906D01*
X354751032Y-98629407D01*
X354831844Y-98602470D01*
X354885719Y-98602470D01*
X354966531Y-98629407D01*
X355047343Y-98710219D01*
X355074280Y-98791032D01*
X355074280Y-98844906D01*
X355047343Y-98925719D01*
X354831844Y-99141218D01*
X355208967Y-98171471D02*
X355262842Y-98117597D01*
X355343654Y-98090659D01*
X355397529Y-98090659D01*
X355478341Y-98117597D01*
X355613028Y-98198409D01*
X355747715Y-98333096D01*
X355828528Y-98467783D01*
X355855465Y-98548595D01*
X355855465Y-98602470D01*
X355828528Y-98683282D01*
X355774653Y-98737157D01*
X355693841Y-98764094D01*
X355639966Y-98764094D01*
X355559154Y-98737157D01*
X355424467Y-98656345D01*
X355289780Y-98521658D01*
X355208967Y-98386971D01*
X355182030Y-98306158D01*
X355182030Y-98252284D01*
X355208967Y-98171471D01*
X354193096Y-106761218D02*
X354112284Y-106788155D01*
X354031471Y-106868967D01*
X353977597Y-106976717D01*
X353977597Y-107084467D01*
X354004534Y-107165279D01*
X354085346Y-107299966D01*
X354166158Y-107380778D01*
X354300845Y-107461590D01*
X354381658Y-107488528D01*
X354489407Y-107488528D01*
X354597157Y-107434653D01*
X354651032Y-107380778D01*
X354704906Y-107273028D01*
X354704906Y-107219154D01*
X354516345Y-107030592D01*
X354408595Y-107138341D01*
X355001218Y-107030592D02*
X354435532Y-106464906D01*
X354651032Y-106249407D01*
X354731844Y-106222470D01*
X354785719Y-106222470D01*
X354866531Y-106249407D01*
X354947343Y-106330219D01*
X354974280Y-106411032D01*
X354974280Y-106464906D01*
X354947343Y-106545719D01*
X354731844Y-106761218D01*
X355028155Y-105980033D02*
X355028155Y-105926158D01*
X355055093Y-105845346D01*
X355189780Y-105710659D01*
X355270592Y-105683722D01*
X355324467Y-105683722D01*
X355405279Y-105710659D01*
X355459154Y-105764534D01*
X355513028Y-105872284D01*
X355513028Y-106518781D01*
X355863215Y-106168595D01*
X354193096Y-101671218D02*
X354112284Y-101698155D01*
X354031471Y-101778967D01*
X353977597Y-101886717D01*
X353977597Y-101994467D01*
X354004534Y-102075279D01*
X354085346Y-102209966D01*
X354166158Y-102290778D01*
X354300845Y-102371590D01*
X354381658Y-102398528D01*
X354489407Y-102398528D01*
X354597157Y-102344653D01*
X354651032Y-102290778D01*
X354704906Y-102183028D01*
X354704906Y-102129154D01*
X354516345Y-101940592D01*
X354408595Y-102048341D01*
X355001218Y-101940592D02*
X354435532Y-101374906D01*
X354651032Y-101159407D01*
X354731844Y-101132470D01*
X354785719Y-101132470D01*
X354866531Y-101159407D01*
X354947343Y-101240219D01*
X354974280Y-101321032D01*
X354974280Y-101374906D01*
X354947343Y-101455719D01*
X354731844Y-101671218D01*
X355863215Y-101078595D02*
X355539966Y-101401844D01*
X355701590Y-101240219D02*
X355135905Y-100674534D01*
X355162842Y-100809221D01*
X355162842Y-100916971D01*
X355135905Y-100997783D01*
M02*
